<!-- This Source Code Form is subject to the terms of the Mozilla Public
   - License, v. 2.0. If a copy of the MPL was not distributed with this
   - file, You can obtain one at http://mozilla.org/MPL/2.0/. -->
<svg width="48" height="48" fill="none" xmlns="http://www.w3.org/2000/svg">
    <circle cx="24" cy="24" r="20" fill="#fff" />
    <path d="M33.914 20.849c.05-.99-.62-1.873-1.587-2.093a7.425 7.425 0 0 0-6.702 1.804l-.308.286a1.939 1.939 0 0 1-2.643-.001l-.301-.28a7.427 7.427 0 0 0-6.707-1.808h-.002a2.043 2.043 0 0 0-1.584 2.087v.006c-.247.975.134 4.575.35 5.141.434 2.287 2.303 4.007 4.543 4.007 1.119 0 2.132-.447 2.933-1.161l.488-.418a2.436 2.436 0 0 1 3.139-.025l.734.606v-.003c.772.621 1.718 1.001 2.754 1.001 2.24 0 4.109-1.72 4.543-4.007.216-.567.611-4.152.35-5.142zM21.79 24.69c-.533.603-1.36.991-2.29.991-.93 0-1.757-.388-2.29-.991a.866.866 0 0 1 0-1.131c.533-.603 1.36-.991 2.29-.991.93 0 1.757.388 2.29.991.28.317.28.815 0 1.131zm9 0c-.533.603-1.36.991-2.29.991-.93 0-1.757-.388-2.29-.991a.866.866 0 0 1 0-1.131c.533-.603 1.36-.991 2.29-.991.93 0 1.757.388 2.29.991.28.317.28.815 0 1.131z" fill="#000" />
</svg>
