<!-- This Source Code Form is subject to the terms of the Mozilla Public
   - License, v. 2.0. If a copy of the MPL was not distributed with this
   - file, You can obtain one at http://mozilla.org/MPL/2.0/. -->
<svg xmlns="http://www.w3.org/2000/svg" width="48" height="48" fill="none" viewBox="0 0 48 48">
    <circle cx="24" cy="24" r="20" fill="#fff" />
    <path fill="#000" d="M33.65 25.266c-.948 0-1.431-.687-1.612-1.62-.262-1.353-.717-2.631-1.256-3.907-.278-.656-.786-2.162-1.625-2.335-.954-.197-1.796.317-2.884 2.499-.895 1.799-1.5 3.053-1.5 3.053v.012l-.614-.006h-.309l-.015.003-.615.006v-.012s-.604-1.257-1.5-3.053c-1.084-2.185-1.93-2.696-2.883-2.499-.84.173-1.348 1.682-1.625 2.335-.54 1.276-.995 2.551-1.257 3.907-.18.933-.66 1.617-1.612 1.62-.243 0-.405.253-.32.478.202.542.825.887 1.346 1.087-.234.062-.932-.08-.963.271-.025.287.704.576.9.669 1.837.884 3.527 2.47 5.7 2.19.945-.123 1.634-.788 2.408-1.201a1.25 1.25 0 0 1 1.172 0c.773.412 1.462 1.078 2.407 1.201 2.173.28 3.863-1.306 5.7-2.19.196-.096.923-.382.901-.669-.028-.348-.727-.21-.964-.27.521-.201 1.145-.546 1.347-1.088a.355.355 0 0 0-.32-.478zm-15.393.465c-.029-.292.607-.517.838-.554 1.372-.228 3.19.308 3.633 1.728-1.26 1.15-3.854.357-4.472-1.17zm7.006 1.174c.442-1.42 2.26-1.956 3.632-1.728.23.037.867.262.839.554-.62 1.528-3.212 2.323-4.471 1.17z" />
</svg>
