<!-- This Source Code Form is subject to the terms of the Mozilla Public
   - License, v. 2.0. If a copy of the MPL was not distributed with this
   - file, You can obtain one at http://mozilla.org/MPL/2.0/. -->
<svg xmlns="http://www.w3.org/2000/svg" width="32" height="32" fill="context-fill" fill-opacity="context-fill-opacity" viewBox="0 0 32 32">
    <path fill-rule="evenodd" d="M8.639 4a3.45 3.45 0 0 1 2.286.86A119 119 0 0 1 21.74 15.676c1.213 1.38 1.13 3.47-.17 4.77l-.18.178 5.243 5.242a1.25 1.25 0 0 1-1.769 1.768l-5.242-5.242-.178.18A3.5 3.5 0 0 1 16.96 23.6a3.45 3.45 0 0 1-2.286-.86A119 119 0 0 1 3.859 11.925c-1.213-1.38-1.13-3.469.17-4.769L6.154 5.03A3.5 3.5 0 0 1 8.64 4m-.001 2.499c-.156 0-.457.038-.716.297L5.796 8.922a.99.99 0 0 0-.06 1.351 117 117 0 0 0 5.124 5.465 118 118 0 0 0 5.465 5.124.95.95 0 0 0 .635.238c.156 0 .457-.038.716-.297l2.126-2.126a.99.99 0 0 0 .06-1.35A117.036 117.036 0 0 0 9.273 6.738a.94.94 0 0 0-.498-.23zM25 4a5 5 0 1 1 0 10 5 5 0 0 1 0-10m0 2.5a2.5 2.5 0 1 0 0 5 2.5 2.5 0 0 0 0-5" clip-rule="evenodd" />
</svg>
