<!-- This Source Code Form is subject to the terms of the Mozilla Public
   - License, v. 2.0. If a copy of the MPL was not distributed with this
   - file, You can obtain one at http://mozilla.org/MPL/2.0/. -->
<svg xmlns="http://www.w3.org/2000/svg" width="32" height="32" fill="context-fill" fill-opacity="context-fill-opacity" viewBox="0 0 32 32">
    <path d="M17.866 12.366a1.25 1.25 0 0 1 1.768 1.768l-5.5 5.5a1.25 1.25 0 0 1-1.768-1.768z" />
    <path fill-rule="evenodd" d="M23.378 3A5.62 5.62 0 0 1 29 8.622v3.826C29 21.59 21.59 29 12.448 29H8.622A5.62 5.62 0 0 1 3 23.378v-3.826C3 10.41 10.41 3 19.552 3zM5.5 23.378A3.12 3.12 0 0 0 8.622 26.5h2.956L5.5 20.422zM17.335 5.674A14.06 14.06 0 0 0 5.713 17.1l9.186 9.186a14.06 14.06 0 0 0 11.426-11.622zm9.165 5.63V8.622A3.12 3.12 0 0 0 23.378 5.5h-2.682z" clip-rule="evenodd" />
</svg>
