<!-- This Source Code Form is subject to the terms of the Mozilla Public
   - License, v. 2.0. If a copy of the MPL was not distributed with this
   - file, You can obtain one at http://mozilla.org/MPL/2.0/. -->
<svg xmlns="http://www.w3.org/2000/svg" width="32" height="32" fill="context-fill" fill-opacity="context-fill-opacity" viewBox="0 0 32 32">
    <path d="M16 24c1.859 0 3.542.143 5.013.348.565.079.987.557.987 1.128h.002c0 .582-.44 1.07-1.018 1.131l-1.707.193a2 2 0 0 0-1.776 1.987v.713a1.5 1.5 0 0 1-3 0v-.713a2 2 0 0 0-1.776-1.987l-1.707-.193A1.137 1.137 0 0 1 10 25.477c0-.562.412-1.048.968-1.126A36 36 0 0 1 16 24m-2.5-14a1.5 1.5 0 1 1 0 3 1.5 1.5 0 0 1 0-3m5 0a1.5 1.5 0 1 1 0 3 1.5 1.5 0 0 1 0-3M16 6.5a1.5 1.5 0 1 1 0 3 1.5 1.5 0 0 1 0-3" />
    <path fill-rule="evenodd" d="M16 2c5.523 0 10 4.477 10 10s-4.477 10-10 10S6 17.523 6 12 10.477 2 16 2m0 2.5a7.5 7.5 0 1 0 0 15 7.5 7.5 0 0 0 0-15" clip-rule="evenodd" />
</svg>
