<svg width="20" height="20" viewBox="0 0 20 20" fill="none" xmlns="http://www.w3.org/2000/svg">
<path d="M6.24132 11.515L3.86532 9.54204C3.54532 9.27704 3.42132 8.85004 3.55032 8.45504C3.67832 8.06004 4.02932 7.78704 4.44332 7.76104L7.51432 7.56204L7.93032 7.25104L9.06332 4.40404C9.21832 4.01804 9.58532 3.76904 10.0003 3.76904C10.4153 3.76904 10.7823 4.01904 10.9363 4.40304V4.40404L12.0693 7.25104L12.4853 7.56204L15.5573 7.76104C15.9713 7.78704 16.3223 8.06004 16.4503 8.45504C16.5793 8.85104 16.4553 9.27804 16.1363 9.54204L13.7643 11.512L13.6153 12.004L14.3713 14.974C14.4733 15.377 14.3223 15.794 13.9873 16.037C13.8103 16.166 13.6033 16.231 13.3953 16.231C13.2093 16.231 13.0233 16.179 12.8573 16.075L10.2593 14.433H9.74332L7.14632 16.075C6.79232 16.296 6.34932 16.28 6.01532 16.037C5.67932 15.794 5.52832 15.377 5.63132 14.974L6.38532 12.011L6.24132 11.515Z" fill="black"/>
<path d="M9.99974 3.77002C10.4147 3.77002 10.7817 4.01902 10.9357 4.40402V4.40502L12.0687 7.25202L12.4847 7.56302L15.5557 7.76202C15.9697 7.78802 16.3207 8.06102 16.4477 8.45602C16.5767 8.85102 16.4527 9.27802 16.1337 9.54302L13.7627 11.513L13.6137 12.005L14.3697 14.975C14.4717 15.378 14.3207 15.794 13.9857 16.038C13.8087 16.167 13.6017 16.232 13.3937 16.232C13.2077 16.232 13.0217 16.18 12.8567 16.076L10.2587 14.434H9.74274L7.14574 16.076C6.97874 16.18 6.79274 16.232 6.60674 16.232C6.39874 16.232 6.19174 16.167 6.01474 16.039C5.67874 15.796 5.52774 15.379 5.63074 14.976L6.38474 12.014L6.24074 11.515L3.86574 9.54202C3.54574 9.27702 3.42174 8.85102 3.55074 8.45502C3.67874 8.06102 4.02974 7.78802 4.44374 7.76102L7.51474 7.56202L7.93074 7.25102L9.06374 4.40402C9.21774 4.01902 9.58474 3.77002 9.99974 3.77002ZM9.99974 2.27002C8.96874 2.27002 8.05474 2.88902 7.67074 3.84802L6.77074 6.10802L4.34674 6.26502C3.31574 6.33002 2.44274 7.00902 2.12374 7.99302C1.80374 8.97502 2.11174 10.037 2.90774 10.697L4.77574 12.248L4.17574 14.603C3.92074 15.605 4.29674 16.644 5.13274 17.25C5.56374 17.563 6.07274 17.729 6.60474 17.729C7.07574 17.729 7.53674 17.596 7.93774 17.346L9.99974 16.043L12.0537 17.341C12.4557 17.595 12.9187 17.729 13.3927 17.729C13.9237 17.729 14.4337 17.563 14.8657 17.249C15.7017 16.643 16.0777 15.604 15.8227 14.603L15.2227 12.247L17.0917 10.694C17.8867 10.035 18.1947 8.97302 17.8737 7.98902C17.5557 7.00702 16.6827 6.32902 15.6507 6.26302L13.2277 6.10602L12.4357 4.11502L12.3277 3.84502C11.9437 2.88802 11.0297 2.27002 9.99974 2.27002Z" fill="white"/>
</svg>
