<svg width="20" height="20" fill="none" xmlns="http://www.w3.org/2000/svg"><path d="M8.874 10.186c-.32.362-.816.594-1.374.594a1.832 1.832 0 0 1-1.374-.594.519.519 0 0 1 0-.678c.32-.362.816-.594 1.374-.594.558 0 1.054.233 1.374.594a.519.519 0 0 1 0 .678zM11.126 10.186c.32.362.816.594 1.374.594.558 0 1.054-.233 1.374-.594a.519.519 0 0 0 0-.678 1.828 1.828 0 0 0-1.374-.594c-.558 0-1.054.233-1.374.594a.519.519 0 0 0 0 .678z" fill="#000"/><path fill-rule="evenodd" clip-rule="evenodd" d="M10 18c-4.411 0-8-3.589-8-8s3.589-8 8-8 8 3.589 8 8-3.589 8-8 8zm3.794-11.014h-1.297c-.704 0-1.37.321-1.808.873a.882.882 0 0 1-1.38 0 2.304 2.304 0 0 0-1.807-.873H6.206C5.54 6.986 5 7.526 5 8.192v2.004c0 1.008.504 1.949 1.343 2.508l.162.108c.198.132.431.203.669.203h.339c.253 0 .5-.08.705-.228l1.126-.812a.88.88 0 0 1 .515-.166h.282a.88.88 0 0 1 .515.166l1.126.812c.205.148.452.228.705.228h.339a1.2 1.2 0 0 0 .669-.203l.162-.108A3.014 3.014 0 0 0 15 10.196V8.192c0-.666-.54-1.206-1.206-1.206z" fill="#000"/></svg>