<svg width="20" height="20" fill="none" xmlns="http://www.w3.org/2000/svg"><path d="M6.741 16a.982.982 0 0 1-.579-.189.98.98 0 0 1-.375-1.04l.798-3.132-2.487-2.066a.979.979 0 0 1-.307-1.062.98.98 0 0 1 .873-.679l3.226-.209L9.086 4.62A.978.978 0 0 1 10 4a.98.98 0 0 1 .915.621l1.196 3.003 3.226.209a.979.979 0 0 1 .873.679.978.978 0 0 1-.309 1.061l-2.486 2.064.798 3.133a.981.981 0 0 1-.375 1.04.98.98 0 0 1-1.105.036L10 14.119l-2.732 1.727a.984.984 0 0 1-.527.154z" fill="#D9D9D9"/><path d="m10 14.119-2.732 1.727a.984.984 0 0 1-1.481-1.075l.798-3.132-2.487-2.066a.979.979 0 0 1-.307-1.062.98.98 0 0 1 .873-.679l3.226-.209L9.086 4.62A.978.978 0 0 1 10 4v10.119z" fill="#000"/></svg>