<svg width="24" height="24" viewBox="0 0 24 24" fill="none" xmlns="http://www.w3.org/2000/svg">
<path fill-rule="evenodd" clip-rule="evenodd" d="M6.25 4.5C6.25 4.08625 6.58625 3.75 7 3.75H17C17.4138 3.75 17.75 4.08625 17.75 4.5V5H19.5V4.5C19.5 3.11975 18.3802 2 17 2H7C5.61975 2 4.5 3.11975 4.5 4.5V19.5C4.5 20.8802 5.61975 22 7 22H17C18.3802 22 19.5 20.8802 19.5 19.5V13.5H17.75V17H6.25V4.5ZM10 20.25H14V18.75H10V20.25Z" fill="black"/>
<path d="M13 13.5H11V15.5H13V13.5Z" fill="black"/>
<path d="M11 10.25H13V12.25H11V10.25Z" fill="black"/>
<path d="M16.25 13.5H14.25V15.5H16.25V13.5Z" fill="black"/>
<path d="M7.75 13.5H9.75V15.5H7.75V13.5Z" fill="black"/>
<path d="M15.53 7.483C15.058 7.011 14.25 7.345 14.25 8.013V11.5C14.25 11.914 14.586 12.25 15 12.25H18.487C19.155 12.25 19.49 11.442 19.017 10.97L17.8922 9.8452L21.9997 5.73771L20.7622 4.50027L16.6548 8.60776L15.53 7.483Z" fill="black"/>
</svg>
