<svg width="24" height="24" viewBox="0 0 24 24" fill="none" xmlns="http://www.w3.org/2000/svg">
<path d="M12.751 4.819V3.068C17.363 3.452 21 7.321 21 12.03C21 16.993 16.963 21.03 12 21.03C7.037 21.03 3 16.993 3 12.03C3 8.785 4.73 5.943 7.313 4.361L5.891 2.939C5.544 2.592 5.79 2 6.28 2H10.45C10.754 2 11 2.246 11 2.55V6.72C11 7.21 10.408 7.456 10.061 7.109L8.609 5.657C6.323 6.876 4.75 9.262 4.75 12.03C4.75 16.028 8.002 19.28 12 19.28C15.998 19.28 19.25 16.028 19.25 12.03C19.25 8.285 16.397 5.196 12.751 4.819Z" fill="black"/>
<path d="M9.5 9.05497V14.945C9.5 15.562 10.167 15.949 10.702 15.642L15.856 12.697C16.396 12.389 16.396 11.61 15.856 11.302L10.702 8.35697C10.167 8.05097 9.5 8.43797 9.5 9.05497Z" fill="black"/>
</svg>
