<svg width="24" height="24" fill="none" xmlns="http://www.w3.org/2000/svg"><path fill-rule="evenodd" clip-rule="evenodd" d="m11.021 20.209.949-1.523c-.318.041-.641.064-.97.064a7.732 7.732 0 0 1-6.119-3.012A2.492 2.492 0 0 1 7.25 14h7.5c.026 0 .05.003.076.005l.056.005-2.237 3.592 3.483-5.591c.979-1.571 3.266-1.571 4.244 0l.464.745A9.973 9.973 0 0 0 21 11c0-5.514-4.486-10-10-10S1 5.486 1 11c0 5.418 4.334 9.833 9.715 9.986.06-.264.15-.526.306-.777zM8.103 9.799A3.006 3.006 0 0 1 11 6a3 3 0 0 1 3 3 3.006 3.006 0 0 1-3.8 2.897 2.967 2.967 0 0 1-2.097-2.098z" fill="#000"/><path fill-rule="evenodd" clip-rule="evenodd" d="M22.537 22.436h-8.574a1.25 1.25 0 0 1-1.085-1.87l4.285-7.499a1.252 1.252 0 0 1 2.174 0l4.285 7.499a1.25 1.25 0 0 1-1.085 1.87zM17.5 15H19v1.5h-1.5V15zm0 2.75H19v2.75h-1.5v-2.75z" fill="#000"/></svg>