<svg width="24" height="24" viewBox="0 0 24 24" fill="none" xmlns="http://www.w3.org/2000/svg">
<path d="M6.50503 14.215L3.03303 11.331C2.56603 10.944 2.38503 10.32 2.57303 9.742C2.76003 9.165 3.27303 8.767 3.87803 8.728L8.36703 8.438L8.97603 7.983L10.632 3.822C10.857 3.258 11.394 2.893 12 2.893C12.606 2.893 13.143 3.258 13.368 3.819V3.82L15.024 7.981L15.632 8.436L20.121 8.726C20.726 8.765 21.239 9.163 21.426 9.74C21.614 10.318 21.433 10.942 20.966 11.329L17.5 14.208L17.282 14.927L18.387 19.268C18.537 19.857 18.316 20.466 17.825 20.822C17.566 21.01 17.263 21.105 16.959 21.105C16.688 21.105 16.415 21.029 16.173 20.877L12.376 18.477H11.621L7.82503 20.877C7.30803 21.2 6.66003 21.176 6.17203 20.822C5.68103 20.466 5.46003 19.857 5.61003 19.268L6.71303 14.938L6.50503 14.215Z" fill="black"/>
</svg>
