<svg width="24" height="24" fill="none" xmlns="http://www.w3.org/2000/svg"><path fill-rule="evenodd" clip-rule="evenodd" d="M13.785 3.211c-.643-1.614-2.927-1.614-3.57 0L9.08 6.068l-3.067.198c-1.734.112-2.44 2.284-1.105 3.395l2.365 1.964-.76 2.979c-.427 1.683 1.42 3.025 2.89 2.098L12 15.059l2.598 1.643c1.467.926 3.318-.414 2.888-2.1l-.759-2.977 2.365-1.964c1.337-1.11.63-3.283-1.104-3.395l-3.066-.198-1.137-2.857zM10.5 7.23l1.34-3.37a.16.16 0 0 1 .063-.082.182.182 0 0 1 .097-.026c.04 0 .074.011.097.026a.16.16 0 0 1 .062.082l1.341 3.37c.125.313.42.527.757.55l3.619.233a.159.159 0 0 1 .096.034.182.182 0 0 1 .055.084.183.183 0 0 1 .005.1.16.16 0 0 1-.058.085l-2.79 2.317a.875.875 0 0 0-.289.889l.895 3.514a.158.158 0 0 1-.002.102.182.182 0 0 1-.063.079.183.183 0 0 1-.095.036.16.16 0 0 1-.098-.03l-3.064-1.938a.875.875 0 0 0-.935 0l-3.066 1.938a.16.16 0 0 1-.098.03.182.182 0 0 1-.095-.036.182.182 0 0 1-.063-.079.16.16 0 0 1-.002-.103l.895-3.513a.875.875 0 0 0-.289-.89l-2.79-2.316a.159.159 0 0 1-.058-.083.183.183 0 0 1 .005-.102.183.183 0 0 1 .056-.084.159.159 0 0 1 .096-.034l3.62-.234a.875.875 0 0 0 .756-.55z" fill="#000"/><path d="M5 19.5V17H3.25v2.5a2.5 2.5 0 0 0 2.5 2.5h12.5a2.5 2.5 0 0 0 2.5-2.5V17H19v2.5a.75.75 0 0 1-.75.75H5.75A.75.75 0 0 1 5 19.5z" fill="#000"/></svg>