<svg width="24" height="24" viewBox="0 0 24 24" fill="none" xmlns="http://www.w3.org/2000/svg">
<path fill-rule="evenodd" clip-rule="evenodd" d="M8.75 10.25H15.25V12H8.75V10.25Z" fill="black"/>
<path fill-rule="evenodd" clip-rule="evenodd" d="M8.75 14.25H12.722V16H8.75V14.25Z" fill="black"/>
<path fill-rule="evenodd" clip-rule="evenodd" d="M17 3H15.4648C14.7731 1.80443 13.4804 1 12 1C10.5196 1 9.22685 1.80443 8.5352 3H7C5.61975 3 4.5 4.11975 4.5 5.5V19.5C4.5 20.8802 5.61975 22 7 22H17C18.3802 22 19.5 20.8802 19.5 19.5V5.5C19.5 4.11975 18.3802 3 17 3ZM9.5 8C8.672 8 8 7.328 8 6.5V5C8 4.91604 8.00259 4.83268 8.00769 4.75H7C6.58625 4.75 6.25 5.08625 6.25 5.5V19.5C6.25 19.9138 6.58625 20.25 7 20.25H17C17.4137 20.25 17.75 19.9138 17.75 19.5V5.5C17.75 5.08625 17.4137 4.75 17 4.75H15.9923C15.9974 4.83268 16 4.91604 16 5V6.5C16 7.328 15.328 8 14.5 8H9.5ZM11 5.5V3.5H13V5.5H11Z" fill="black"/>
</svg>
