<svg width="24" height="24" viewBox="0 0 24 24" fill="none" xmlns="http://www.w3.org/2000/svg">
<path d="M21.976 11.4879C21.346 11.6809 20.68 11.7819 20 11.8279V12.9999H17.5V11.6529C13.595 10.7759 10.667 7.28695 10.667 3.12095C10.667 2.75595 10.697 2.39695 10.74 2.04395C5.82 2.66695 2 6.86995 2 11.9559C2 17.4699 6.486 21.9559 12 21.9559C17.514 21.9559 22 17.4699 22 11.9559C22 11.7979 21.984 11.6439 21.976 11.4879ZM6.5 12.9999H4V10.4999H6.5V12.9999ZM10 18.4999H7.5V15.9999H10V18.4999ZM10 7.99995H7.5V5.49995H10V7.99995ZM13.5 12.9999H11V10.4999H13.5V12.9999ZM17 18.4999H14.5V15.9999H17V18.4999Z" fill="black"/>
</svg>
