<svg width="24" height="24" fill="none" xmlns="http://www.w3.org/2000/svg"><path d="M9.25 3a2.5 2.5 0 0 0-2.5 2.5H8.5a.75.75 0 0 1 .75-.75h8a.75.75 0 0 1 .75.75v10a.75.75 0 0 1-.75.75V18a2.5 2.5 0 0 0 2.5-2.5v-10a2.5 2.5 0 0 0-2.5-2.5h-8z" fill="#000"/><path fill-rule="evenodd" clip-rule="evenodd" d="M5.25 7a2.5 2.5 0 0 0-2.5 2.5v10a2.5 2.5 0 0 0 2.5 2.5h8a2.5 2.5 0 0 0 2.5-2.5v-10a2.5 2.5 0 0 0-2.5-2.5h-8zM4.5 9.5a.75.75 0 0 1 .75-.75h8a.75.75 0 0 1 .75.75v10a.75.75 0 0 1-.75.75h-8a.75.75 0 0 1-.75-.75v-10z" fill="#000"/></svg>