<svg width="24" height="24" viewBox="0 0 24 24" fill="none" xmlns="http://www.w3.org/2000/svg">
<path d="M3.5 4.75C3.08625 4.75 2.75 5.08625 2.75 5.5V17.5C2.75 17.9138 3.08625 18.25 3.5 18.25H14.5V20H3.5C2.11975 20 1 18.8802 1 17.5V5.5C1 4.11975 2.11975 3 3.5 3H8.011C8.6766 3 9.31416 3.26465 9.78374 3.73731L12.0339 6H18.5C19.8802 6 21 7.11975 21 8.5V13.625H19.25V8.5C19.25 8.08625 18.9138 7.75 18.5 7.75H11.67C11.4371 7.75 11.2138 7.65714 11.0496 7.49199L8.54256 4.97099C8.40214 4.82965 8.2114 4.75 8.011 4.75H3.5Z" fill="black"/>
<path d="M19.125 20H16V18.25H19.125V15.125H20.875V18.25H24V20H20.875V23.125H19.125V20Z" fill="black"/>
</svg>
