<svg width="24" height="24" fill="none" xmlns="http://www.w3.org/2000/svg"><path d="M22.799 20.749 18.8 13.755a1.496 1.496 0 0 0-2.599 0l-3.999 6.994c-.574 1.002.147 2.251 1.299 2.251H21.5c1.151 0 1.872-1.249 1.299-2.251z" fill="#000"/><path d="M18.25 16h-1.5v3h1.5v-3zM18.25 20h-1.5v1.5h1.5V20z" fill="#fff"/><path d="m10.899 20.004.431-.754H5a.752.752 0 0 1-.75-.75v-6c0-.413.337-.75.75-.75h10c.289 0 .533.17.658.41a2.93 2.93 0 0 1 1.644-.634A2.503 2.503 0 0 0 15 10V6c0-2.757-2.243-5-5-5S5 3.243 5 6v4a2.502 2.502 0 0 0-2.5 2.5v6C2.5 19.879 3.621 21 5 21h5.563c.059-.342.155-.68.336-.996zM6.75 6A3.254 3.254 0 0 1 10 2.75 3.254 3.254 0 0 1 13.25 6v4h-6.5V6z" fill="#000"/></svg>