<svg width="24" height="24" viewBox="0 0 24 24" fill="none" xmlns="http://www.w3.org/2000/svg">
<path d="M9.12995 5.508C9.67295 4.469 10.7489 3.75 11.9999 3.75C13.7919 3.75 15.2499 5.208 15.2499 7V11H14.6219L16.3719 12.75H16.9999C17.4139 12.75 17.7499 13.087 17.7499 13.5V14.127L19.4999 15.877V13.5C19.4999 12.121 18.3789 11 16.9999 11V7C16.9999 4.243 14.7569 2 11.9999 2C10.2699 2 8.74395 2.884 7.84595 4.224L9.12995 5.508Z" fill="black"/>
<path fill-rule="evenodd" clip-rule="evenodd" d="M19.5 18.0126V17.998L17.75 16.248V16.2626L14.2373 12.75H14.251L12.501 11H12.4873L8.75 7.26262V7.24897L7.195 5.69397C7.19403 5.69755 7.19306 5.70113 7.19209 5.70471L3.98768 2.50031L2.75024 3.73774L7 7.9875V11C5.622 11 4.5 12.121 4.5 13.5V19.5C4.5 20.879 5.622 22 7 22H17C18.0837 22 19.0081 21.3076 19.3543 20.3418L21.0122 21.9997L22.2497 20.7623L19.5 18.0126ZM17.75 18.7375V19.5C17.75 19.913 17.414 20.25 17 20.25H7C6.586 20.25 6.25 19.913 6.25 19.5V13.5C6.25 13.087 6.586 12.75 7 12.75H11.7625L17.75 18.7375ZM8.75 9.7375V11H10.0125L8.75 9.7375Z" fill="black"/>
</svg>
