<svg width="24" height="24" viewBox="0 0 24 24" fill="none" xmlns="http://www.w3.org/2000/svg">
<path d="M11.98 22C11.64 22 11.31 21.98 10.97 21.95C6.09999 21.46 2.24999 17.39 2.01999 12.49C1.77999 7.56 5.10999 3.25 9.91999 2.22C10.46 2.11 11.01 2.33 11.32 2.78C11.64 3.25 11.65 3.86 11.33 4.33C10.36 5.83 10.02 7.63 10.39 9.42C10.93 12.06 13.09 14.15 15.75 14.62C16.98 14.84 18.18 14.74 19.32 14.32C19.86 14.12 20.45 14.26 20.83 14.68C21.21 15.09 21.3 15.67 21.07 16.17C19.42 19.74 15.85 21.98 11.97 21.98L11.98 22ZM9.41999 4.17C5.91999 5.31 3.57999 8.64 3.75999 12.41C3.94999 16.45 7.12999 19.8 11.14 20.21C14.36 20.52 17.44 18.96 19.07 16.25C17.9 16.54 16.67 16.59 15.45 16.37C12.09 15.77 9.36999 13.13 8.67999 9.8C8.27999 7.86 8.53999 5.9 9.40999 4.18L9.41999 4.17Z" fill="black"/>
</svg>
