<svg width="24" height="24" fill="none" xmlns="http://www.w3.org/2000/svg"><path d="M11.98 22c-.34 0-.67-.02-1.01-.05-4.87-.49-8.72-4.56-8.95-9.46a9.967 9.967 0 0 1 7.9-10.27 1.371 1.371 0 0 1 1.41 2.11c-.97 1.5-1.31 3.3-.94 5.09.54 2.64 2.7 4.73 5.36 5.2 1.23.22 2.43.12 3.57-.3.54-.2 1.13-.06 1.51.36.38.41.47.99.24 1.49a10.02 10.02 0 0 1-9.1 5.81l.01.02zM9.42 4.17a8.213 8.213 0 0 0-5.66 8.24c.19 4.04 3.37 7.39 7.38 7.8 3.22.31 6.3-1.25 7.93-3.96-1.17.29-2.4.34-3.62.12-3.36-.6-6.08-3.24-6.77-6.57-.4-1.94-.14-3.9.73-5.62l.01-.01z" fill="#000"/></svg>