<svg width="24" height="24" fill="none" xmlns="http://www.w3.org/2000/svg"><path d="M18 8H6V6.25h12V8zM6 12h7v-1.75H6V12z" fill="#000"/><path fill-rule="evenodd" clip-rule="evenodd" d="M2 4.5A2.5 2.5 0 0 1 4.5 2h15A2.5 2.5 0 0 1 22 4.5v10a2.5 2.5 0 0 1-2.5 2.5H18v4.125a.875.875 0 0 1-1.494.619L11.763 17H4.5A2.5 2.5 0 0 1 2 14.5v-10zm2.5-.75a.75.75 0 0 0-.75.75v10c0 .414.336.75.75.75h7.625c.232 0 .455.092.619.256l3.506 3.507v-2.888c0-.483.392-.875.875-.875H19.5a.75.75 0 0 0 .75-.75v-10a.75.75 0 0 0-.75-.75h-15z" fill="#000"/></svg>