<svg width="24" height="24" fill="none" xmlns="http://www.w3.org/2000/svg"><path fill-rule="evenodd" clip-rule="evenodd" d="M12.172 3.238 10.78 4.629l3.823 3.824 3.266.072c1.875.041 2.786 2.31 1.46 3.637l-2.965 2.964L22 20.762 20.762 22l-5.636-5.636-2.964 2.964c-1.327 1.328-3.594.415-3.637-1.458l-.073-3.267L4.63 10.78l-1.391 1.392L2 10.934 10.934 2l1.238 1.238zM5.866 9.543l3.676-3.676 4.32 4.32 3.969.088a.38.38 0 0 1 .26.65l-7.167 7.167a.38.38 0 0 1-.65-.262l-.088-3.967-4.32-4.32z" fill="#000"/></svg>