<svg width="24" height="24" viewBox="0 0 24 24" fill="none" xmlns="http://www.w3.org/2000/svg">
<path fill-rule="evenodd" clip-rule="evenodd" d="M10.25 6V4C10.25 3.448 9.802 3 9.25 3H6.25C5.698 3 5.25 3.448 5.25 4V6H4.5C3.11975 6 2 7.11975 2 8.5V18.5C2 19.8802 3.11975 21 4.5 21H19.5C20.8802 21 22 19.8802 22 18.5V8.5C22 7.11975 20.8802 6 19.5 6H18.75V4C18.75 3.448 18.302 3 17.75 3H14.75C14.198 3 13.75 3.448 13.75 4V6H10.25ZM3.75 8.5C3.75 8.08625 4.08625 7.75 4.5 7.75H19.5C19.9138 7.75 20.25 8.08625 20.25 8.5V18.5C20.25 18.9138 19.9138 19.25 19.5 19.25H4.5C4.08625 19.25 3.75 18.9138 3.75 18.5V8.5Z" fill="black"/>
</svg>
