<svg width="24" height="24" viewBox="0 0 24 24" fill="none" xmlns="http://www.w3.org/2000/svg">
<path d="M11 21C10.85 21 10.7 20.962 10.566 20.885L9.018 20H4.5C3.122 20 2 18.879 2 17.5V4.5C2 3.121 3.122 2 4.5 2H9.25C9.402 2 9.552 2.04 9.684 2.115L11 2.867L12.316 2.115C12.448 2.04 12.598 2 12.75 2H17.5C18.878 2 20 3.121 20 4.5V13H18.25V4.5C18.25 4.087 17.914 3.75 17.5 3.75H12.982L11.434 4.635C11.165 4.789 10.834 4.789 10.566 4.635L9.018 3.75H4.5C4.086 3.75 3.75 4.087 3.75 4.5V17.5C3.75 17.913 4.086 18.25 4.5 18.25H9.25C9.402 18.25 9.552 18.29 9.684 18.365L11 19.117L12.316 18.365C12.448 18.29 12.598 18.25 12.75 18.25H13V19.996L11.434 20.885C11.3 20.962 11.15 21 11 21Z" fill="black"/>
<path d="M20 18.25V15H18.25V18.25H15V20H18.25V23H20V20H23V18.25H20Z" fill="black"/>
<path d="M6 12H11V10.25H6V12Z" fill="black"/>
<path d="M10 16H6V14.25H10V16Z" fill="black"/>
<path d="M6 8H11V6.25H6V8Z" fill="black"/>
</svg>
