<svg width="24" height="24" viewBox="0 0 24 24" fill="none" xmlns="http://www.w3.org/2000/svg">
<path fill-rule="evenodd" clip-rule="evenodd" d="M7 3.75C6.58625 3.75 6.25 4.08625 6.25 4.5V18.5C6.25 18.9138 6.58625 19.25 7 19.25H17C17.4138 19.25 17.75 18.9138 17.75 18.5V4.5C17.75 4.08625 17.4138 3.75 17 3.75H7ZM4.5 4.5C4.5 3.11975 5.61975 2 7 2H17C18.3802 2 19.5 3.11975 19.5 4.5V18.5C19.5 19.8802 18.3802 21 17 21H7C5.61975 21 4.5 19.8802 4.5 18.5V4.5Z" fill="black"/>
<path fill-rule="evenodd" clip-rule="evenodd" d="M8.75 6.25H15.25V8H8.75V6.25Z" fill="black"/>
<path fill-rule="evenodd" clip-rule="evenodd" d="M8.75 10.25H15.25V12H8.75V10.25Z" fill="black"/>
<path fill-rule="evenodd" clip-rule="evenodd" d="M8.75 14.25H12.722V16H8.75V14.25Z" fill="black"/>
</svg>
