<svg width="24" height="24" fill="none" xmlns="http://www.w3.org/2000/svg"><path d="M11 21a.87.87 0 0 1-.434-.115L9.018 20H4.5A2.503 2.503 0 0 1 2 17.5v-13C2 3.121 3.122 2 4.5 2h4.75a.88.88 0 0 1 .434.115L11 2.867l1.316-.752A.88.88 0 0 1 12.75 2h4.75C18.878 2 20 3.121 20 4.5V13h-1.75V4.5a.75.75 0 0 0-.75-.75h-4.518l-1.548.885a.873.873 0 0 1-.868 0L9.018 3.75H4.5a.75.75 0 0 0-.75.75v13c0 .413.336.75.75.75h4.75a.88.88 0 0 1 .434.115l1.316.752 1.316-.752a.88.88 0 0 1 .434-.115H13v1.746l-1.566.889A.87.87 0 0 1 11 21zM20 18.25V15h-1.75v3.25H15V20h3.25v3H20v-3h3v-1.75h-3z" fill="#000"/><path d="M6 12h5v-1.75H6V12zM10 16H6v-1.75h4V16zM6 8h5V6.25H6V8z" fill="#000"/></svg>