<svg width="24" height="24" viewBox="0 0 24 24" fill="none" xmlns="http://www.w3.org/2000/svg">
<path fill-rule="evenodd" clip-rule="evenodd" d="M10 3C6.13401 3 3 6.13401 3 10C3 13.866 6.13401 17 10 17C11.6176 17 13.1071 16.4513 14.2924 15.5299L19.7633 20.9998L21.0006 19.7623L15.5299 14.2924C16.4513 13.1071 17 11.6176 17 10C17 6.13401 13.866 3 10 3ZM4.75 10C4.75 7.1005 7.1005 4.75 10 4.75C12.8995 4.75 15.25 7.1005 15.25 10C15.25 12.8995 12.8995 15.25 10 15.25C7.1005 15.25 4.75 12.8995 4.75 10Z" fill="black"/>
</svg>
