<svg width="24" height="24" viewBox="0 0 24 24" fill="none" xmlns="http://www.w3.org/2000/svg">
<path fill-rule="evenodd" clip-rule="evenodd" d="M8.25 12C8.25 9.93 9.93 8.25 12 8.25C14.07 8.25 15.75 9.93 15.75 12C15.75 14.07 14.07 15.75 12 15.75C9.93 15.75 8.25 14.07 8.25 12ZM14 12C14 10.9 13.1 10 12 10C10.9 10 10 10.9 10 12C10 13.1 10.9 14 12 14C13.1 14 14 13.1 14 12Z" fill="black"/>
<path fill-rule="evenodd" clip-rule="evenodd" d="M9.19 20.46C9.45 21.37 10.29 22 11.24 22H12.76L12.81 22.02C13.75 22.02 14.59 21.39 14.86 20.49L15.37 18.77C15.65 18.62 15.94 18.45 16.24 18.24L17.97 18.67C18.89 18.91 19.86 18.49 20.33 17.67L21.09 16.36C21.56 15.54 21.44 14.5 20.79 13.82L19.54 12.5C19.56 12.34 19.57 12.18 19.57 12.01C19.57 11.83 19.55 11.66 19.53 11.49L20.76 10.21C21.41 9.53 21.54 8.48 21.07 7.66L20.31 6.35C19.84 5.54 18.87 5.12 17.96 5.34L16.19 5.76C15.9 5.56 15.62 5.39 15.34 5.25L14.83 3.53C14.56 2.63 13.72 2 12.78 2H11.27C10.32 2 9.48 2.63 9.22 3.54L8.73 5.23C8.44 5.37 8.15 5.55 7.85 5.75L6.08 5.33C5.16 5.11 4.2 5.53 3.73 6.34L2.97 7.65C2.49 8.47 2.62 9.52 3.28 10.2L4.51 11.48C4.48 11.65 4.47 11.82 4.47 12C4.47 12.17 4.48 12.33 4.5 12.49L3.25 13.81C2.6 14.49 2.48 15.54 2.95 16.35L3.71 17.66C4.18 18.48 5.15 18.89 6.07 18.66L7.8 18.23C8.1 18.44 8.4 18.62 8.7 18.77L9.19 20.46ZM8.52 16.58C8.37 16.46 8.18 16.4 7.99 16.4L8 16.42C7.93 16.42 7.86 16.43 7.79 16.45L5.66 16.98C5.5 17.02 5.32 16.95 5.24 16.8L4.48 15.49C4.39 15.34 4.41 15.15 4.53 15.03L6.07 13.41C6.25 13.22 6.33 12.96 6.3 12.7L6.27 12.48C6.26889 12.4711 6.26777 12.4622 6.26666 12.4533C6.24783 12.3033 6.23 12.1611 6.23 12.01C6.23 11.8825 6.24687 11.755 6.26375 11.6275C6.26937 11.585 6.275 11.5425 6.28 11.5L6.31 11.3C6.34 11.03 6.25 10.77 6.07 10.58L4.54 9C4.42 8.87 4.4 8.69 4.48 8.54L5.24 7.23C5.32 7.08 5.49 7.01 5.66 7.05L7.82 7.57C8.07 7.63 8.34 7.58 8.55 7.42C8.98 7.09 9.38 6.86 9.78 6.69C10.02 6.58 10.21 6.38 10.28 6.12L10.88 4.04C10.93 3.87 11.08 3.76 11.25 3.76H12.76C12.93 3.76 13.08 3.87 13.13 4.03L13.75 6.13C13.83 6.38 14.01 6.59 14.25 6.69C14.64 6.85 15.02 7.08 15.46 7.41C15.67 7.56 15.94 7.62 16.19 7.56L18.35 7.04C18.52 7 18.69 7.07 18.77 7.22L19.53 8.53C19.61 8.68 19.59 8.87 19.47 8.99L17.94 10.57C17.75 10.76 17.67 11.03 17.7 11.29L17.73 11.49C17.7352 11.5338 17.741 11.5769 17.7468 11.6199C17.7635 11.7438 17.78 11.8664 17.78 12C17.78 12.16 17.76 12.32 17.74 12.47L17.71 12.69C17.67 12.95 17.76 13.21 17.94 13.4L19.48 15.02C19.59 15.15 19.62 15.33 19.53 15.48L18.77 16.79C18.69 16.94 18.51 17.01 18.35 16.97L16.22 16.44C15.96 16.37 15.69 16.43 15.48 16.59C15.03 16.93 14.64 17.17 14.25 17.33C14.01 17.43 13.82 17.64 13.75 17.89L13.13 19.99C13.08 20.15 12.93 20.26 12.76 20.26H11.24C11.07 20.26 10.92 20.14 10.87 19.98L10.27 17.9C10.2 17.64 10.02 17.43 9.77 17.33C9.37 17.16 8.96 16.91 8.52 16.58Z" fill="black"/>
</svg>
