<svg width="24" height="24" viewBox="0 0 24 24" fill="none" xmlns="http://www.w3.org/2000/svg">
<path fill-rule="evenodd" clip-rule="evenodd" d="M14 6.5C14 4.567 15.567 3 17.5 3C19.433 3 21 4.567 21 6.5C21 8.433 19.433 10 17.5 10C16.4933 10 15.5859 9.57499 14.9474 8.89461L9.89507 11.146C9.96361 11.4193 10 11.7054 10 12C10 12.2988 9.96256 12.5888 9.89213 12.8657L14.9393 15.114C15.5783 14.4286 16.4891 14 17.5 14C19.433 14 21 15.567 21 17.5C21 19.433 19.433 21 17.5 21C15.567 21 14 19.433 14 17.5C14 17.2093 14.0354 16.9269 14.1022 16.6569L9.04409 14.4037C8.40604 15.0788 7.50221 15.5 6.5 15.5C4.567 15.5 3 13.933 3 12C3 10.067 4.567 8.5 6.5 8.5C7.50674 8.5 8.41419 8.92505 9.05271 9.60548L14.105 7.35412C14.0364 7.08075 14 6.79463 14 6.5ZM17.5 4.75C16.5335 4.75 15.75 5.5335 15.75 6.5C15.75 7.4665 16.5335 8.25 17.5 8.25C18.4665 8.25 19.25 7.4665 19.25 6.5C19.25 5.5335 18.4665 4.75 17.5 4.75ZM6.5 10.25C5.5335 10.25 4.75 11.0335 4.75 12C4.75 12.9665 5.5335 13.75 6.5 13.75C7.4665 13.75 8.25 12.9665 8.25 12C8.25 11.0335 7.4665 10.25 6.5 10.25ZM15.75 17.5C15.75 16.5335 16.5335 15.75 17.5 15.75C18.4665 15.75 19.25 16.5335 19.25 17.5C19.25 18.4665 18.4665 19.25 17.5 19.25C16.5335 19.25 15.75 18.4665 15.75 17.5Z" fill="black"/>
</svg>
