<svg width="24" height="24" viewBox="0 0 24 24" fill="none" xmlns="http://www.w3.org/2000/svg">
<path d="M6 11H8.25V13.25H6V11Z" fill="black"/>
<path fill-rule="evenodd" clip-rule="evenodd" d="M21.9997 20.7522L3.23768 1.99023L2.00024 3.22767L4.77257 6H4.5C3.121 6 2 7.121 2 8.5V15.5C2 16.879 3.121 18 4.5 18H16.7726L20.7622 21.9897L21.9997 20.7522ZM15.0226 16.25L6.52257 7.75H4.5C4.087 7.75 3.75 8.087 3.75 8.5V15.5C3.75 15.913 4.087 16.25 4.5 16.25H15.0226Z" fill="black"/>
<path d="M11.109 7.75H19.5C19.913 7.75 20.25 8.087 20.25 8.5V15.5C20.25 15.881 19.959 16.185 19.591 16.232L20.916 17.557C21.57 17.105 22 16.353 22 15.5V8.5C22 7.121 20.879 6 19.5 6H9.35901L11.109 7.75Z" fill="black"/>
</svg>
