<svg width="24" height="24" viewBox="0 0 24 24" fill="none" xmlns="http://www.w3.org/2000/svg">
<path fill-rule="evenodd" clip-rule="evenodd" d="M4.5 7.75C4.08625 7.75 3.75 8.08625 3.75 8.5V15.5C3.75 15.9138 4.08625 16.25 4.5 16.25H19.5C19.9138 16.25 20.25 15.9138 20.25 15.5V8.5C20.25 8.08625 19.9138 7.75 19.5 7.75H4.5ZM2 8.5C2 7.11975 3.11975 6 4.5 6H19.5C20.8802 6 22 7.11975 22 8.5V15.5C22 16.8802 20.8802 18 19.5 18H4.5C3.11975 18 2 16.8802 2 15.5V8.5Z" fill="black"/>
<path d="M8.5 10.75H6V13.25H8.5V10.75Z" fill="black"/>
</svg>
