<!-- This Source Code Form is subject to the terms of the Mozilla Public
   - License, v. 2.0. If a copy of the MPL was not distributed with this
   - file, You can obtain one at http://mozilla.org/MPL/2.0/. -->
<svg xmlns="http://www.w3.org/2000/svg" width="72" height="72" fill="none" viewBox="0 0 72 72">
    <path fill="#000" fill-rule="evenodd" d="M38.5 11.499c10.201 0 18.5 8.299 18.5 18.499v2.713l.001-.001c6.247 1.13 11 6.606 11 13.173 0 6.617-4.907 12.307-11.414 13.234a138.4 138.4 0 0 1-20.99 1.374A139 139 0 0 1 17.7 59.125C9.89 58.013 4 51.247 4 43.385c0-8.76 7.128-15.887 15.889-15.887h.279c1.224-9.023 8.978-15.999 18.332-15.999m0 5.249c-7.306 0-13.25 5.943-13.25 13.249a2.754 2.754 0 0 1-2.75 2.75h-2.611c-5.866 0-10.639 4.772-10.639 10.638 0 5.264 3.951 9.797 9.19 10.543a133 133 0 0 0 18.726 1.323c6.199 0 12.484-.448 18.68-1.33 3.936-.562 6.904-4.017 6.904-8.038 0-4.486-3.65-8.136-8.137-8.136H54.5a2.754 2.754 0 0 1-2.75-2.75v-5c0-7.306-5.944-13.249-13.25-13.249" clip-rule="evenodd" />
</svg>
