<!-- This Source Code Form is subject to the terms of the Mozilla Public
   - License, v. 2.0. If a copy of the MPL was not distributed with this
   - file, You can obtain one at http://mozilla.org/MPL/2.0/. -->
<svg xmlns="http://www.w3.org/2000/svg" width="72" height="72" fill="none" viewBox="0 0 72 72">
    <circle cx="36" cy="36" r="36" fill="#000" />
    <path fill="#fff" d="M63.504 39.017c-2.702 0-4.08-1.958-4.595-4.618-.746-3.855-2.044-7.498-3.58-11.133-.792-1.87-2.24-6.164-4.63-6.656-2.72-.561-5.12.905-8.22 7.121a890 890 0 0 0-4.275 8.701v.035l-1.75-.017h-.88s-.045 0-.045.008l-1.75.018v-.035s-1.724-3.582-4.275-8.701c-3.092-6.225-5.5-7.683-8.22-7.12-2.39.49-3.838 4.793-4.63 6.654-1.537 3.635-2.834 7.27-3.58 11.133-.516 2.66-1.884 4.61-4.595 4.619-.693 0-1.155.72-.915 1.36.578 1.546 2.355 2.53 3.839 3.1-.667.176-2.657-.228-2.746.773-.071.816 2.008 1.642 2.568 1.905 5.234 2.52 10.05 7.042 16.245 6.243 2.692-.352 4.656-2.248 6.86-3.425a3.57 3.57 0 0 1 3.341 0c2.204 1.177 4.168 3.073 6.86 3.425 6.194.799 11.01-3.723 16.245-6.243.56-.272 2.63-1.089 2.568-1.905-.08-.992-2.07-.597-2.746-.773 1.484-.57 3.261-1.554 3.839-3.1.24-.64-.231-1.351-.916-1.36zm-43.872 1.326c-.08-.834 1.733-1.475 2.39-1.58 3.91-.65 9.09.878 10.353 4.925-3.59 3.275-10.984 1.018-12.743-3.336zm19.967 3.345c1.262-4.047 6.443-5.575 10.353-4.926.657.106 2.47.747 2.39 1.58-1.768 4.356-9.153 6.621-12.743 3.337z" />
</svg>
