<!-- This Source Code Form is subject to the terms of the Mozilla Public
   - License, v. 2.0. If a copy of the MPL was not distributed with this
   - file, You can obtain one at http://mozilla.org/MPL/2.0/. -->
<svg xmlns="http://www.w3.org/2000/svg" width="72" height="72" fill="none" viewBox="0 0 72 72">
    <path fill="#000" d="M64.951 40.753c-2.843 0-4.293-2.061-4.836-4.861-.786-4.058-2.151-7.893-3.77-11.72-.832-1.968-2.357-6.488-4.873-7.005-2.862-.591-5.388.952-8.653 7.495-2.684 5.398-4.499 9.16-4.499 9.16v.036l-1.843-.018h-.926l-.046.01-1.843.018v-.037s-1.815-3.771-4.5-9.16c-3.255-6.552-5.79-8.086-8.652-7.495-2.516.518-4.04 5.046-4.873 7.006-1.619 3.826-2.984 7.652-3.77 11.719-.543 2.8-1.983 4.852-4.836 4.861-.73 0-1.216.758-.964 1.433.608 1.626 2.48 2.661 4.041 3.262-.701.185-2.796-.24-2.89.813-.075.86 2.114 1.729 2.703 2.006 5.51 2.653 10.58 7.412 17.1 6.571 2.834-.37 4.901-2.366 7.22-3.604a3.76 3.76 0 0 1 3.518 0c2.32 1.238 4.387 3.235 7.221 3.604 6.52.841 11.59-3.918 17.1-6.57.589-.287 2.768-1.147 2.703-2.007-.084-1.044-2.18-.628-2.89-.813 1.562-.6 3.432-1.636 4.04-3.262.253-.675-.243-1.424-.963-1.433zm-46.18 1.395c-.085-.878 1.823-1.552 2.515-1.663 4.116-.684 9.57.924 10.898 5.185-3.78 3.447-11.562 1.072-13.414-3.512zm21.018 3.522c1.328-4.26 6.781-5.869 10.897-5.185.692.11 2.6.785 2.517 1.663-1.862 4.585-9.635 6.97-13.414 3.513z" />
</svg>
