<!-- This Source Code Form is subject to the terms of the Mozilla Public
   - License, v. 2.0. If a copy of the MPL was not distributed with this
   - file, You can obtain one at http://mozilla.org/MPL/2.0/. -->
<svg xmlns="http://www.w3.org/2000/svg" width="72" height="72" fill="none" viewBox="0 0 72 72">
    <path fill="#000" d="M65.742 25.693a6.126 6.126 0 0 0-4.761-6.279 22.27 22.27 0 0 0-20.106 5.412l-.924.858a5.82 5.82 0 0 1-7.929-.003l-.902-.84A22.28 22.28 0 0 0 11 19.417h-.007a6.13 6.13 0 0 0-4.752 6.261v.018c-.74 2.925.402 13.725 1.05 15.423 1.302 6.86 6.909 12.02 13.629 12.02 3.357 0 6.396-1.34 8.799-3.483l1.463-1.253a7.31 7.31 0 0 1 9.417-.075l2.202 1.817v-.009c2.316 1.863 5.154 3.003 8.262 3.003 6.72 0 12.327-5.16 13.629-12.02.648-1.701 1.833-12.456 1.05-15.426M29.37 37.216c-1.6 1.809-4.08 2.973-6.87 2.973s-5.271-1.164-6.87-2.973c-.84-.948-.84-2.442 0-3.393 1.599-1.809 4.08-2.973 6.87-2.973s5.27 1.164 6.87 2.973c.84.951.84 2.445 0 3.393m26.999 0c-1.6 1.809-4.08 2.973-6.87 2.973s-5.27-1.164-6.87-2.973c-.84-.948-.84-2.442 0-3.393 1.6-1.809 4.08-2.973 6.87-2.973s5.27 1.164 6.87 2.973c.84.951.84 2.445 0 3.393" />
</svg>
