<svg xmlns="http://www.w3.org/2000/svg" width="72" height="72" fill="none" viewBox="0 0 72 72"><path fill="#000" fill-rule="evenodd" d="M25.375 39A7.625 7.625 0 0 1 33 46.625v9.75A7.625 7.625 0 0 1 25.375 64h-9.75A7.625 7.625 0 0 1 8 56.375v-9.75A7.625 7.625 0 0 1 15.625 39zm-9.75 5.25a2.375 2.375 0 0 0-2.375 2.375v9.75a2.375 2.375 0 0 0 2.375 2.375h9.75a2.375 2.375 0 0 0 2.375-2.375v-9.75a2.375 2.375 0 0 0-2.375-2.375zM56.375 39A7.625 7.625 0 0 1 64 46.625v9.75A7.625 7.625 0 0 1 56.375 64h-9.75A7.625 7.625 0 0 1 39 56.375v-9.75A7.625 7.625 0 0 1 46.625 39zm-9.75 5.25a2.375 2.375 0 0 0-2.375 2.375v9.75a2.375 2.375 0 0 0 2.375 2.375h9.75a2.375 2.375 0 0 0 2.375-2.375v-9.75a2.375 2.375 0 0 0-2.375-2.375zM25.375 8A7.625 7.625 0 0 1 33 15.625v9.75A7.625 7.625 0 0 1 25.375 33h-9.75A7.625 7.625 0 0 1 8 25.375v-9.75A7.625 7.625 0 0 1 15.625 8zm-9.75 5.25a2.375 2.375 0 0 0-2.375 2.375v9.75a2.375 2.375 0 0 0 2.375 2.375h9.75a2.375 2.375 0 0 0 2.375-2.375v-9.75a2.375 2.375 0 0 0-2.375-2.375zM56.375 8A7.625 7.625 0 0 1 64 15.625v9.75A7.625 7.625 0 0 1 56.375 33h-9.75A7.625 7.625 0 0 1 39 25.375v-9.75A7.625 7.625 0 0 1 46.625 8zm-9.75 5.25a2.375 2.375 0 0 0-2.375 2.375v9.75a2.375 2.375 0 0 0 2.375 2.375h9.75a2.375 2.375 0 0 0 2.375-2.375v-9.75a2.375 2.375 0 0 0-2.375-2.375z" clip-rule="evenodd"/></svg>