<!-- This Source Code Form is subject to the terms of the Mozilla Public
   - License, v. 2.0. If a copy of the MPL was not distributed with this
   - file, You can obtain one at http://mozilla.org/MPL/2.0/. -->
<svg xmlns="http://www.w3.org/2000/svg" width="72" height="72" fill="none" viewBox="0 0 72 72">
    <path fill="#000" fill-rule="evenodd" d="M20.5 39c1.486 0 3.63.118 6.142.682A8.14 8.14 0 0 1 33 47.617v7.766a8.135 8.135 0 0 1-6.365 7.934v.001a28 28 0 0 1-12.276 0A8.14 8.14 0 0 1 8 55.381v-7.766a8.135 8.135 0 0 1 6.364-7.934A28 28 0 0 1 20.5 39m0 5.25a22.7 22.7 0 0 0-4.435.437l-.55.116a2.89 2.89 0 0 0-2.265 2.813v7.766a2.89 2.89 0 0 0 2.258 2.812 22.7 22.7 0 0 0 9.977.002l.245-.066a2.88 2.88 0 0 0 2.02-2.747v-7.766a2.89 2.89 0 0 0-2.259-2.813 22.8 22.8 0 0 0-4.991-.554m31-5.25c1.486 0 3.63.118 6.142.682A8.14 8.14 0 0 1 64 47.617v7.766a8.134 8.134 0 0 1-6.02 7.85l-.344.085a28 28 0 0 1-12.277 0A8.14 8.14 0 0 1 39 55.381v-7.766a8.135 8.135 0 0 1 6.364-7.934A28 28 0 0 1 51.5 39m0 5.25a22.7 22.7 0 0 0-4.435.437l-.55.116a2.89 2.89 0 0 0-2.265 2.813v7.766a2.89 2.89 0 0 0 2.258 2.812 22.7 22.7 0 0 0 9.977.002l.245-.066a2.88 2.88 0 0 0 2.02-2.747v-7.766a2.89 2.89 0 0 0-2.259-2.813 22.8 22.8 0 0 0-4.991-.554m-31-36.249c1.486 0 3.63.118 6.142.682A8.14 8.14 0 0 1 33 16.615V23.5c0 4.464-2.433 7.935-6.365 8.818v.001a28 28 0 0 1-11.594.143l-.676-.143A8.135 8.135 0 0 1 8 24.384v-7.767a8.135 8.135 0 0 1 6.364-7.934A28 28 0 0 1 20.5 8m0 5.25a22.7 22.7 0 0 0-4.435.437l-.55.116a2.89 2.89 0 0 0-2.265 2.813v7.767c0 1.345.933 2.513 2.265 2.812l.55.116a22.75 22.75 0 0 0 9.42-.115l.207-.055c1.04-.321 2.058-1.32 2.058-3.642v-6.885a2.89 2.89 0 0 0-2.259-2.81 22.8 22.8 0 0 0-4.991-.554M51.5 8c1.486 0 3.63.118 6.142.682A8.14 8.14 0 0 1 64 16.617v7.766a8.134 8.134 0 0 1-6.02 7.85l-.344.085a28 28 0 0 1-11.595.143l-.676-.143A8.135 8.135 0 0 1 39 24.383v-7.767a8.135 8.135 0 0 1 6.364-7.934A28 28 0 0 1 51.5 8m0 5.25a22.7 22.7 0 0 0-4.435.437l-.55.116a2.89 2.89 0 0 0-2.265 2.813v7.767c0 1.345.933 2.513 2.265 2.812l.55.116a22.75 22.75 0 0 0 9.42-.115l.245-.066a2.88 2.88 0 0 0 2.02-2.747v-7.766a2.89 2.89 0 0 0-2.259-2.813 22.8 22.8 0 0 0-4.991-.554" clip-rule="evenodd" />
</svg>
