<svg width="16" height="16" viewBox="0 0 16 16" fill="none" xmlns="http://www.w3.org/2000/svg">
<path d="M7.399 3.15601C7.49331 3.06493 7.61961 3.01453 7.75071 3.01567C7.8818 3.01681 8.00721 3.06939 8.09991 3.1621C8.19262 3.2548 8.2452 3.38021 8.24634 3.5113C8.24748 3.6424 8.19708 3.7687 8.106 3.86301L7.613 4.35701C8.19 4.93201 9.154 5.895 9.154 5.895L9.598 6.06H11.044C11.2267 6.05957 11.4054 6.11355 11.5573 6.21507C11.7092 6.31658 11.8275 6.46103 11.897 6.63C11.9672 6.79862 11.9856 6.98429 11.95 7.16342C11.9144 7.34255 11.8263 7.50705 11.697 7.636L10.02 9.313L12.844 12.137C12.9351 12.2313 12.9855 12.3576 12.9843 12.4887C12.9832 12.6198 12.9306 12.7452 12.8379 12.8379C12.7452 12.9306 12.6198 12.9832 12.4887 12.9843C12.3576 12.9855 12.2313 12.9351 12.137 12.844L9.313 10.02L7.636 11.697C7.635 11.698 7.635 11.698 7.634 11.699C7.50539 11.8282 7.34119 11.9162 7.16235 11.9516C6.98352 11.9871 6.79818 11.9684 6.63 11.898C6.46103 11.8285 6.31658 11.7102 6.21507 11.5583C6.11355 11.4064 6.05957 11.2277 6.06 11.045L6.058 9.594L5.908 9.168C5.908 9.168 4.936 8.193 4.356 7.613L3.863 8.106C3.7687 8.19708 3.6424 8.24748 3.5113 8.24634C3.38021 8.2452 3.2548 8.19262 3.1621 8.09991C3.06939 8.00721 3.01681 7.8818 3.01567 7.75071C3.01453 7.61961 3.06493 7.49331 3.156 7.399L6.692 3.86301L7.399 3.15601ZM6.69 2.439L5.981 3.14801L2.439 6.69C2.15755 6.97198 1.99948 7.3541 1.99948 7.7525C1.99948 8.15091 2.15755 8.53303 2.439 8.815C2.6837 9.05906 3.00494 9.21146 3.34875 9.24661C3.69256 9.28175 4.03799 9.1975 4.327 9.008L5.03501 9.717L5.053 9.769L5.054 11.05C5.054 11.832 5.521 12.53 6.243 12.829C6.59453 12.9756 6.98171 13.0143 7.3553 12.9402C7.72888 12.8661 8.072 12.6826 8.341 12.413L9.314 11.44L11.435 13.561C11.717 13.8425 12.0991 14.0005 12.4975 14.0005C12.8959 14.0005 13.278 13.8425 13.56 13.561C13.8415 13.279 13.9995 12.8969 13.9995 12.4985C13.9995 12.1001 13.8415 11.718 13.56 11.436L11.44 9.314L12.412 8.342C12.6821 8.07291 12.8661 7.72955 12.9405 7.3556C13.015 6.98166 12.9765 6.59403 12.83 6.242C12.6848 5.88958 12.4379 5.58833 12.121 5.3766C11.804 5.16487 11.4312 5.05223 11.05 5.053H9.781L9.709 5.027L9.008 4.327C9.1975 4.03799 9.28175 3.69256 9.24661 3.34875C9.21146 3.00494 9.05906 2.6837 8.815 2.439C8.53277 2.15804 8.15074 2.00031 7.7525 2.00031C7.35426 2.00031 6.97224 2.15804 6.69 2.439Z" fill="white"/>
<path d="M11.05 6.055H9.6L9.156 5.89C9.156 5.89 8.19 4.926 7.612 4.349L8.106 3.855C8.15249 3.80851 8.18936 3.75332 8.21452 3.69258C8.23968 3.63184 8.25263 3.56674 8.25263 3.501C8.25263 3.43525 8.23968 3.37015 8.21452 3.30941C8.18936 3.24867 8.15249 3.19349 8.106 3.147C8.05951 3.10051 8.00432 3.06363 7.94358 3.03847C7.88284 3.01332 7.81774 3.00037 7.752 3.00037C7.68625 3.00037 7.62115 3.01332 7.56041 3.03847C7.49967 3.06363 7.44449 3.10051 7.398 3.147L6.689 3.855L3.147 7.398C3.10051 7.44449 3.06363 7.49967 3.03847 7.56041C3.01332 7.62115 3.00037 7.68625 3.00037 7.752C3.00037 7.81774 3.01332 7.88284 3.03847 7.94358C3.06363 8.00432 3.10051 8.05951 3.147 8.106C3.19349 8.15249 3.24867 8.18936 3.30941 8.21452C3.37015 8.23968 3.43525 8.25263 3.501 8.25263C3.56674 8.25263 3.63184 8.23968 3.69258 8.21452C3.75332 8.18936 3.80851 8.15249 3.855 8.106L4.349 7.612C4.93 8.194 5.904 9.17 5.904 9.17L6.054 9.597L6.055 11.049C6.05447 11.1707 6.07806 11.2914 6.12441 11.404C6.17076 11.5166 6.23894 11.6189 6.32504 11.705C6.41113 11.7911 6.51342 11.8592 6.62601 11.9056C6.73859 11.9519 6.85925 11.9755 6.981 11.975C7.10241 11.975 7.22261 11.951 7.33469 11.9043C7.44676 11.8576 7.54848 11.7892 7.634 11.703L9.314 10.023L12.144 12.853C12.1905 12.8995 12.2457 12.9364 12.3064 12.9615C12.3672 12.9867 12.4323 12.9996 12.498 12.9996C12.5637 12.9996 12.6288 12.9867 12.6896 12.9615C12.7503 12.9364 12.8055 12.8995 12.852 12.853C12.8985 12.8065 12.9354 12.7513 12.9605 12.6906C12.9857 12.6298 12.9986 12.5647 12.9986 12.499C12.9986 12.4333 12.9857 12.3682 12.9605 12.3074C12.9354 12.2467 12.8985 12.1915 12.852 12.145L10.022 9.315L11.702 7.635C11.8317 7.50584 11.92 7.34105 11.9558 7.16156C11.9916 6.98208 11.9732 6.79601 11.903 6.627C11.834 6.45749 11.716 6.31247 11.564 6.21055C11.412 6.10863 11.233 6.05446 11.05 6.055Z" fill="black"/>
</svg>
