<svg width="12" height="14" viewBox="0 0 12 14" fill="none" xmlns="http://www.w3.org/2000/svg">
<path fill-rule="evenodd" clip-rule="evenodd" d="M3 9.9C3.2 9.7 3.3 9.4 3.1 9.2C2.7 8.6 2.5 7.9 2.5 7.2C2.5 5.3 4.1 3.7 6 3.7V5.2C6 5.4 6.2 5.5 6.3 5.4L8.3 3.4V3L6.3 1.1C6.2 0.899999 6 0.999999 6 1.2V2.7C3.5 2.7 1.5 4.7 1.5 7.2C1.5 8.1 1.8 9 2.3 9.7C2.4 10 2.8 10 3 9.9ZM9.00001 4.1C8.80001 4.3 8.70001 4.6 8.90001 4.8C9.30001 5.4 9.50001 6.1 9.50001 6.8C9.50001 8.7 7.90001 10.3 6.00001 10.3V8.8C6.00001 8.6 5.80001 8.5 5.60001 8.7L3.70001 10.6V11L5.70001 12.9C5.80001 13.1 6.00001 13 6.00001 12.8V11.3C8.50001 11.3 10.5 9.3 10.5 6.8C10.5 5.9 10.2 5 9.70001 4.3C9.60001 4 9.20001 4 9.00001 4.1Z" fill="black"/>
</svg>
