<!-- This Source Code Form is subject to the terms of the Mozilla Public
   - License, v. 2.0. If a copy of the MPL was not distributed with this
   - file, You can obtain one at http://mozilla.org/MPL/2.0/. -->
<svg xmlns="http://www.w3.org/2000/svg" width="40" height="40" fill="context-fill" fill-opacity="context-fill-opacity" viewBox="0 0 40 40">
    <path fill-rule="evenodd" d="M20.499 1.596c1.649 0 3.107.99 3.717 2.521l2.975 7.477 9.059.586a3.95 3.95 0 0 1 3.508 2.643 3.96 3.96 0 0 1-1.038 4.279q-.736.69-1.56 1.384a39.6 39.6 0 0 1-5.782 4.04l2.16 8.483c.403 1.577-.148 3.17-1.437 4.155A4 4 0 0 1 29.67 38c-.68 0-1.367-.177-2-.536a44.543 44.543 0 0 1-7.17-5.041 44.7 44.7 0 0 1-7.17 5.041c-1.432.81-3.13.695-4.432-.3a3.93 3.93 0 0 1-1.438-4.156l2.16-8.481a39.6 39.6 0 0 1-7.341-5.425 3.96 3.96 0 0 1-1.038-4.28 3.95 3.95 0 0 1 3.508-2.642l9.06-.586 2.975-7.477a3.98 3.98 0 0 1 3.716-2.521m0 3c-.205.001-.703.063-.929.63l-3.327 8.36a1.5 1.5 0 0 1-1.297.94l-10.005.649a.97.97 0 0 0-.877.66.98.98 0 0 0 .263 1.077q.68.637 1.441 1.279a36.6 36.6 0 0 0 6.298 4.263c.609.325.917 1.024.746 1.693l-2.446 9.603c-.146.575.2.913.353 1.032.126.096.58.386 1.134.072a41.934 41.934 0 0 0 6.802-4.8 2.8 2.8 0 0 1 1.845-.686c.66 0 1.32.228 1.844.685a42 42 0 0 0 3.72 2.875 41 41 0 0 0 3.082 1.925 1.01 1.01 0 0 0 1.134-.072.955.955 0 0 0 .353-1.03l-2.446-9.604a1.5 1.5 0 0 1 .746-1.693 36.6 36.6 0 0 0 7.739-5.542c.438-.41.33-.89.262-1.078a.97.97 0 0 0-.878-.659l-10.004-.648a1.5 1.5 0 0 1-1.296-.942l-3.328-8.358c-.227-.57-.725-.63-.93-.63" clip-rule="evenodd" />
</svg>
