<!-- This Source Code Form is subject to the terms of the Mozilla Public
   - License, v. 2.0. If a copy of the MPL was not distributed with this
   - file, You can obtain one at http://mozilla.org/MPL/2.0/. -->
<svg xmlns="http://www.w3.org/2000/svg" width="40" height="40" fill="context-fill" fill-opacity="context-fill-opacity" viewBox="0 0 40 40">
    <path d="M25.5 19a1.5 1.5 0 0 1 0 3h-13a1.5 1.5 0 1 1 0-3zM25.5 11a1.5 1.5 0 0 1 0 3h-13a1.5 1.5 0 1 1 0-3z" />
    <path fill-rule="evenodd" d="M19.128 2c3.87.008 7.355.376 10.361.887l1.259.228.23.049A5.245 5.245 0 0 1 35 8.274V26c0 1.671-.782 3.16-2 4.12v4.322q.331-.075.65-.151a1.5 1.5 0 0 1 .7 2.918 65.1 65.1 0 0 1-27.412.627A4.84 4.84 0 0 1 3 33.084l.001-.022L3 33.053V8.273a5.244 5.244 0 0 1 4.254-5.158l1.282-.233A62.4 62.4 0 0 1 19.128 2M29.75 31.25H7.834a1.835 1.835 0 0 0-.332 3.64A62.1 62.1 0 0 0 30 35.047v-3.805a5 5 0 0 1-.25.007M19.122 5A59.4 59.4 0 0 0 7.818 6.06 2.245 2.245 0 0 0 6 8.273V28.61a4.8 4.8 0 0 1 1.834-.36H29.75A2.25 2.25 0 0 0 32 26V8.273c0-1.086-.764-2.01-1.816-2.212A59.5 59.5 0 0 0 19.122 5" clip-rule="evenodd" />
</svg>
