<!-- This Source Code Form is subject to the terms of the Mozilla Public
   - License, v. 2.0. If a copy of the MPL was not distributed with this
   - file, You can obtain one at http://mozilla.org/MPL/2.0/. -->
<svg xmlns="http://www.w3.org/2000/svg" width="40" height="40" fill="context-fill" fill-opacity="context-fill-opacity" viewBox="0 0 40 40">
    <g clip-path="url(#clip0_8069_32802)">
        <path fill-rule="evenodd" d="M15.273 1.442a25.5 25.5 0 0 1 9.435-.004A5.266 5.266 0 0 1 29 6.604v2.671c2.085.186 4.273.446 6.55.799a5.26 5.26 0 0 1 4.451 5.193v16.471c0 2.562-1.852 4.785-4.413 5.183a101.4 101.4 0 0 1-31.135.005 5.264 5.264 0 0 1-4.452-5.193V15.282L0 15.264c0-2.563 1.852-4.785 4.413-5.184 2.049-.319 4.25-.596 6.587-.804V6.604a5.26 5.26 0 0 1 4.273-5.162m4.729 10.433c-2.815 0-5.488.12-8.002.325v22.599a98.5 98.5 0 0 0 16 0V12.2a98 98 0 0 0-7.998-.324M9 12.492a99 99 0 0 0-4.125.552c-1.067.166-1.87 1.1-1.875 2.209l.001.01v16.47l.01.205a2.266 2.266 0 0 0 1.902 2.024A98 98 0 0 0 9 34.508zm22 22.016a98 98 0 0 0 4.127-.551l.197-.04a2.24 2.24 0 0 0 1.677-2.179v-16.47c0-1.11-.815-2.06-1.91-2.23A98 98 0 0 0 31 12.49zm-6.849-30.12a22.5 22.5 0 0 0-8.32.002A2.254 2.254 0 0 0 14 6.604v2.45a101 101 0 0 1 12 0v-2.45a2.26 2.26 0 0 0-1.849-2.217" clip-rule="evenodd" />
    </g>
</svg>
