<!-- This Source Code Form is subject to the terms of the Mozilla Public
   - License, v. 2.0. If a copy of the MPL was not distributed with this
   - file, You can obtain one at http://mozilla.org/MPL/2.0/. -->
<svg xmlns="http://www.w3.org/2000/svg" width="40" height="40" fill="context-fill" fill-opacity="context-fill-opacity" viewBox="0 0 40 40">
    <path d="M20.5 18a2.5 2.5 0 1 1 0 5 2.5 2.5 0 0 1 0-5" />
    <path fill-rule="evenodd" d="M20.5 2c4.33 0 7.92 3.019 8.855 7.052q.257-.018.524-.018A9.12 9.12 0 0 1 39 18.155c0 2.954-1.416 5.547-3.577 7.202a8.94 8.94 0 0 1 1.232 4.522A9.12 9.12 0 0 1 27.535 39a9.1 9.1 0 0 1-7.035-3.321A9.1 9.1 0 0 1 13.466 39a9.12 9.12 0 0 1-9.121-9.121c0-1.661.459-3.198 1.23-4.522C3.415 23.702 2 21.11 2 18.155a9.12 9.12 0 0 1 9.121-9.12q.267 0 .524.017C12.579 5.019 16.17 2 20.5 2m0 3c-3.274 0-5.936 2.584-6.087 5.838a1.5 1.5 0 0 1-1.851 1.389 6 6 0 0 0-1.44-.193A6.12 6.12 0 0 0 5 18.155c0 2.376 1.374 4.426 3.386 5.44a1.5 1.5 0 0 1 .462 2.318C7.913 27 7.345 28.373 7.345 29.88a6.118 6.118 0 0 0 11.77 2.35l.047-.103a1.501 1.501 0 0 1 2.723.102 6.12 6.12 0 0 0 11.77-2.35c0-1.506-.568-2.878-1.503-3.965a1.5 1.5 0 0 1 .462-2.317C34.627 22.58 36 20.53 36 18.156c0-3.381-2.74-6.122-6.121-6.122-.468 0-.94.071-1.44.193a1.502 1.502 0 0 1-1.852-1.39C26.437 7.585 23.774 5 20.5 5" clip-rule="evenodd" />
</svg>
