<!-- This Source Code Form is subject to the terms of the Mozilla Public
   - License, v. 2.0. If a copy of the MPL was not distributed with this
   - file, You can obtain one at http://mozilla.org/MPL/2.0/. -->
<svg xmlns="http://www.w3.org/2000/svg" width="40" height="40" fill="context-fill" fill-opacity="context-fill-opacity" viewBox="0 0 40 40">
    <path d="M12.063 19.785a1.5 1.5 0 0 1 2.113.178 38 38 0 0 0 1.052 1.192l.057.062.017.018q.63.663 1.371 1.393l.507.492.001.001q.67.643 1.426 1.324a1.5 1.5 0 0 1-2.006 2.23 62 62 0 0 1-3.474-3.374l-.008-.008-.019-.02a13 13 0 0 1-.326-.356c-.218-.24-.525-.588-.889-1.019a1.5 1.5 0 0 1 .178-2.113" />
    <path fill-rule="evenodd" d="M3.27 8.34c2.49-3.171 5.868-4.627 9.235-4.294 3.076.304 5.947 2.08 7.98 5.013 1.964-2.855 4.76-4.599 7.773-4.947 3.273-.377 6.606.917 9.137 3.851a10.63 10.63 0 0 1 2.571 7.776q.002.075-.004.153c-.113 1.5-.674 3.042-1.368 4.447-.702 1.42-1.588 2.797-2.442 3.987a45 45 0 0 1-3.088 3.822l-.217.235q-.038.042-.06.064l-.016.017-.005.006-.002.002a61 61 0 0 1-1.599 1.619l-.595.574c-1.962 1.865-4.08 3.544-6.261 5.088l-.027.023-.051.037a6.48 6.48 0 0 1-7.248.153l-.212-.143c-1.739-1.221-3.455-2.527-5.068-3.976a63 63 0 0 1-3.471-3.374l1.086-1.034-1.087 1.033-.002-.002-.005-.006-.017-.018-.06-.063-.216-.235a45 45 0 0 1-3.088-3.822c-.854-1.191-1.74-2.567-2.442-3.988-.694-1.405-1.255-2.945-1.368-4.445l-.024-.407c-.034-.934.058-1.78.161-2.408a12 12 0 0 1 .242-1.129l.02-.074.007-.023.004-.012v-.002l.578.175-.578-.175v-.002A10.7 10.7 0 0 1 3.27 8.34m8.94-1.308c-2.24-.221-4.654.708-6.58 3.16a7.7 7.7 0 0 0-1.314 2.51l-.001.005a4 4 0 0 0-.053.201 9 9 0 0 0-.132.657 9.3 9.3 0 0 0-.123 1.81l.017.291.04.367c.13.877.49 1.89 1.026 2.976.606 1.226 1.394 2.457 2.19 3.567a42 42 0 0 0 3.064 3.763l.048.052.01.011.003.002.725.748a60 60 0 0 0 2.578 2.463c1.494 1.343 3.108 2.574 4.788 3.754l.229.149c1.17.692 2.65.64 3.775-.156h.001l.046-.037c2.103-1.488 4.114-3.083 5.955-4.834l.568-.547a58 58 0 0 0 1.52-1.54l.002-.002.01-.011.05-.052.191-.209a41 41 0 0 0 2.871-3.553c.797-1.11 1.585-2.341 2.19-3.567.59-1.194.962-2.3 1.054-3.233l.005-.088a7.63 7.63 0 0 0-1.84-5.766c-1.94-2.248-4.319-3.084-6.521-2.83-2.218.256-4.452 1.643-6.006 4.227v.002l-.048.079v-.002c-.905 1.502-3.046 1.553-4.028.14l-.09-.14c-1.636-2.721-3.957-4.143-6.22-4.367" clip-rule="evenodd" />
</svg>
