<!-- This Source Code Form is subject to the terms of the Mozilla Public
   - License, v. 2.0. If a copy of the MPL was not distributed with this
   - file, You can obtain one at http://mozilla.org/MPL/2.0/. -->
<svg xmlns="http://www.w3.org/2000/svg" width="40" height="40" fill="context-fill" fill-opacity="context-fill-opacity" viewBox="0 0 40 40">
    <path d="M16.5 32a2.5 2.5 0 1 1 0 5 2.5 2.5 0 0 1 0-5M31.5 32a2.5 2.5 0 1 1 0 5 2.5 2.5 0 0 1 0-5" />
    <path fill-rule="evenodd" d="M5.167 4a5.26 5.26 0 0 1 5.062 3.855l.983 3.568A61 61 0 0 1 24.314 10h.01c3.444.001 6.914.297 10.313.88a5.26 5.26 0 0 1 3.544 2.354 5.25 5.25 0 0 1 .636 4.195l-2.101 7.697a5.29 5.29 0 0 1-3.672 3.674 32.45 32.45 0 0 1-17.492-.001 5.3 5.3 0 0 1-3.674-3.67L7.336 8.653A2.256 2.256 0 0 0 5.167 7H1.5a1.5 1.5 0 1 1 0-3zm19.215 9c-4.134 0-8.264.443-12.302 1.32l2.76 10.013a2.25 2.25 0 0 0 1.588 1.576 29.6 29.6 0 0 0 15.877.002 2.25 2.25 0 0 0 1.585-1.575l2.1-7.696a2.22 2.22 0 0 0-.27-1.794 2.23 2.23 0 0 0-1.522-1.01c-3.235-.555-6.58-.853-9.816-.836" clip-rule="evenodd" />
</svg>
