<!-- This Source Code Form is subject to the terms of the Mozilla Public
   - License, v. 2.0. If a copy of the MPL was not distributed with this
   - file, You can obtain one at http://mozilla.org/MPL/2.0/. -->
<svg xmlns="http://www.w3.org/2000/svg" width="12" height="12" fill="context-fill" fill-opacity="context-fill-opacity" viewBox="0 0 12 12">
    <g clip-path="url(#clip0_8069_32477)">
        <path fill-rule="evenodd" d="M8.356.66c.704-.705 1.88-.919 2.763-.282l.19.154c.895.811.922 2.201.076 3.048l-1.054 1.054.898 3.354a1.75 1.75 0 0 1-.452 1.692l-.777.778a1.002 1.002 0 0 1-1.607-.267A12 12 0 0 1 7.9 9.06l-.153-.427c-.13-.382-.23-.75-.314-1.096L6.116 8.854l.14 1.149c.038.308-.07.61-.283.826l-.002.003-.927.929c-.366.365-1.033.323-1.3-.2a9.4 9.4 0 0 1-.848-2.46A9.3 9.3 0 0 1 .44 8.25c-.522-.267-.562-.93-.202-1.294l.002-.003.928-.929.086-.077a1 1 0 0 1 .628-.216l.115.007 1.144.14L4.46 4.56a12.5 12.5 0 0 1-2.3-.795l-.352-.167a1.002 1.002 0 0 1-.267-1.606l.778-.78.085-.078A1.75 1.75 0 0 1 4.01.76l3.348.897zm2.031.731c-.311-.225-.81-.184-1.146.153L7.987 2.798a.63.63 0 0 1-.604.162l-3.698-.992a.5.5 0 0 0-.483.129l-.529.529a11.214 11.214 0 0 0 3.148.923.626.626 0 0 1 .356 1.06L3.811 6.98a.63.63 0 0 1-.517.178l-1.329-.162-.4.4q.186.079.388.153l.368.123.323.092q.317.083.605.134l.277.046.096.023q.047.015.092.037h.001l.066.039a.63.63 0 0 1 .273.43c.04.27.097.566.18.882l.093.324q.126.409.273.756l.4-.4-.161-1.33a.63.63 0 0 1 .178-.517l2.365-2.369a.626.626 0 0 1 1.062.356c.081.583.227 1.287.487 2.058l.138.386q.143.376.295.706l.528-.528a.5.5 0 0 0 .142-.42l-.013-.065L9.03 4.61a.63.63 0 0 1 .162-.603l1.309-1.31.064-.071a.856.856 0 0 0-.1-1.17z" clip-rule="evenodd" />
    </g>
</svg>
