<svg width="12" height="12" viewBox="0 0 12 12" fill="none" xmlns="http://www.w3.org/2000/svg">
<g clip-path="url(#clip0_8069_32468)">
<path d="M7.5 0.594971C10.059 1.06597 12 3.30424 12 6.00024C11.9999 8.6961 10.0589 10.9335 7.5 11.4045V10.1194C9.35991 9.66641 10.7499 7.99812 10.75 6.00024C10.75 4.00225 9.35998 2.33411 7.5 1.8811V0.594971Z" fill="black"/>
<path d="M3.67188 1.61938C4.31687 0.520385 6 0.978197 6 2.2522V9.74731C5.99975 11.0211 4.31684 11.479 3.67188 10.3801L2.41309 8.23462C2.32109 8.23762 2.21002 8.24927 2.12402 8.24927C1.77302 8.24927 1.44177 8.23142 1.13477 8.20142C0.489975 8.13834 0.000173021 7.60115 0 6.95337V5.04419C0 4.4133 0.469826 3.86616 1.09766 3.802C1.47566 3.764 1.82002 3.75024 2.12402 3.75024C2.22501 3.75025 2.31902 3.75603 2.41602 3.75903L3.67188 1.61938Z" fill="black"/>
<path d="M7.5 3.19165C8.661 3.60465 9.5 4.69627 9.5 5.99927C9.49989 7.30214 8.66091 8.39293 7.5 8.80591V3.19165Z" fill="black"/>
</g>
<defs>
<clipPath id="clip0_8069_32468">
<rect width="12" height="12" fill="white"/>
</clipPath>
</defs>
</svg>
