<svg width="12" height="12" viewBox="0 0 12 12" fill="none" xmlns="http://www.w3.org/2000/svg">
<g clip-path="url(#clip0_8069_32499)">
<path d="M3.67188 1.61897C4.31685 0.520185 5.99967 0.978098 6 2.25178V9.74689C6 11.0209 4.31687 11.4787 3.67188 10.3797L2.41309 8.23518C2.32109 8.23818 2.21002 8.24885 2.12402 8.24885C1.77302 8.24885 1.44177 8.231 1.13477 8.201C0.489888 8.13788 0 7.60087 0 6.95295V5.04377C0.000191471 4.41306 0.469975 3.86673 1.09766 3.80256C1.47566 3.76456 1.82002 3.74982 2.12402 3.74982C2.22501 3.74983 2.31902 3.75659 2.41602 3.75959L3.67188 1.61897Z" fill="black"/>
<path d="M10.9326 3.68342C11.1766 3.43942 11.5744 3.43942 11.8184 3.68342C12.061 3.9274 12.0611 4.32331 11.8184 4.56721L10.3848 5.99982L11.8184 7.43342C12.061 7.6774 12.0611 8.07331 11.8184 8.31721C11.6964 8.43921 11.536 8.49982 11.376 8.49982C11.216 8.49982 11.0546 8.43921 10.9326 8.31721L9.5 6.88459L8.06836 8.31721C7.94636 8.4392 7.78499 8.49982 7.625 8.49982C7.465 8.49982 7.30462 8.43921 7.18262 8.31721C6.93987 8.0733 6.93999 7.6774 7.18262 7.43342L8.61523 5.99982L7.18262 4.56721C6.93987 4.3233 6.93999 3.9274 7.18262 3.68342C7.42662 3.43942 7.82436 3.43942 8.06836 3.68342L9.5 5.11506L10.9326 3.68342Z" fill="black"/>
</g>
<defs>
<clipPath id="clip0_8069_32499">
<rect width="12" height="12" fill="white"/>
</clipPath>
</defs>
</svg>
