<!-- This Source Code Form is subject to the terms of the Mozilla Public
   - License, v. 2.0. If a copy of the MPL was not distributed with this
   - file, You can obtain one at http://mozilla.org/MPL/2.0/. -->
<svg xmlns="http://www.w3.org/2000/svg" width="12" height="12" fill="context-fill" fill-opacity="context-fill-opacity" viewBox="0 0 12 12">
    <g clip-path="url(#clip0_8069_32499)">
        <path d="M3.672 1.619C4.317.52 6 .979 6 2.252v7.495c0 1.274-1.683 1.732-2.328.633L2.413 8.235c-.092.003-.203.014-.289.014q-.527-.001-.99-.048A1.253 1.253 0 0 1 0 6.953v-1.91c0-.63.47-1.176 1.098-1.24q.569-.055 1.026-.053c.101 0 .195.007.292.01zm7.261 2.064a.627.627 0 0 1 .885 0 .627.627 0 0 1 0 .884L10.385 6l1.433 1.433a.624.624 0 0 1-.442 1.066.63.63 0 0 1-.443-.182L9.5 6.885 8.068 8.317a.626.626 0 0 1-.885-.884L8.615 6 7.183 4.567a.627.627 0 0 1 0-.884.627.627 0 0 1 .885 0L9.5 5.115z" />
    </g>
</svg>
