<!-- This Source Code Form is subject to the terms of the Mozilla Public
   - License, v. 2.0. If a copy of the MPL was not distributed with this
   - file, You can obtain one at http://mozilla.org/MPL/2.0/. -->
<svg xmlns="http://www.w3.org/2000/svg" width="12" height="12" fill="context-fill" fill-opacity="context-fill-opacity" viewBox="0 0 12 12">
    <path d="M7.25 1.578A4.49 4.49 0 0 1 11 6.002a4.49 4.49 0 0 1-3.75 4.424v-1.01A3.5 3.5 0 0 0 10 6c0-1.672-1.18-3.07-2.75-3.415zM4.06 2.35C4.598 1.432 6 1.814 6 2.876v6.245c0 1.06-1.402 1.443-1.94.527L3.01 7.862c-.076.002-.169.012-.24.012q-.44-.001-.824-.04A1.045 1.045 0 0 1 1 6.794V5.203c0-.526.392-.982.915-1.035.315-.032.602-.043.855-.043.085 0 .156.011.239.014z" />
    <path d="M7.25 3.66A2.48 2.48 0 0 1 8.917 6 2.48 2.48 0 0 1 7.25 8.339z" />
</svg>
