<svg width="12" height="12" viewBox="0 0 12 12" fill="none" xmlns="http://www.w3.org/2000/svg">
<path d="M7.25 1.57788C9.37593 1.93587 10.9999 3.77381 11 6.00171C11 8.22969 9.37597 10.0665 7.25 10.4255V9.41577C8.81998 9.07076 10 7.67272 10 6.00073C9.99991 4.32882 8.81994 2.93068 7.25 2.58569V1.57788Z" fill="black"/>
<path d="M4.05957 2.34937C4.59753 1.43343 5.9998 1.81488 6 2.87671V9.12183C6 10.1828 4.59757 10.5652 4.05957 9.64917L3.01074 7.86206C2.9338 7.86408 2.84145 7.87378 2.76953 7.87378C2.47681 7.87376 2.20208 7.85871 1.94629 7.83374C1.40929 7.78074 1 7.3337 1 6.7937V5.20288C1.00003 4.67691 1.39206 4.22072 1.91504 4.16772C2.22982 4.13575 2.51666 4.12477 2.76953 4.12476C2.85546 4.12476 2.92587 4.13639 3.00879 4.1394L4.05957 2.34937Z" fill="black"/>
<path d="M7.25 3.66089C8.21794 4.00487 8.91691 4.91384 8.91699 5.99976C8.91699 7.08572 8.21795 7.9946 7.25 8.33862V3.66089Z" fill="black"/>
</svg>
