<svg width="12" height="12" viewBox="0 0 12 12" fill="none" xmlns="http://www.w3.org/2000/svg">
<path fill-rule="evenodd" clip-rule="evenodd" d="M7.46973 1C8.04378 1.0003 8.55163 1.36208 8.74316 1.89453L8.77734 2.00391L8.78125 2.01855L9.50977 5.03613C10.8894 5.06161 12 6.18653 12 7.57227C11.9999 8.97381 10.8635 10.1103 9.46191 10.1104C8.06039 10.1103 6.92397 8.97378 6.92383 7.57227C6.92383 6.62458 7.44416 5.79921 8.21387 5.36328C7.65324 5.2954 7.02408 5.25001 6.33887 5.25C5.58029 5.25001 4.89096 5.30674 4.28613 5.38672L4.16406 5.62402C4.72127 6.08961 5.07617 6.78941 5.07617 7.57227C5.07603 8.97381 3.93966 10.1103 2.53809 10.1104C1.13648 10.1104 0.000145341 8.97384 0 7.57227C0 6.17057 1.13639 5.03418 2.53809 5.03418C2.70856 5.03419 2.87508 5.05095 3.03613 5.08301L3.27539 4.61719L3.26953 3.46777C3.12601 3.45593 2.97732 3.44217 2.82422 3.42188C2.63725 3.39688 2.49614 3.21107 2.49609 2.99512V2.50586C2.49615 2.28992 2.63138 2.1041 2.81934 2.0791C3.17225 2.03113 3.56723 2 3.99609 2C4.27994 2 4.59476 2.01384 4.93555 2.0498C5.25155 2.0838 5.49609 2.387 5.49609 2.75C5.49609 3.115 5.25355 3.4162 4.93555 3.4502C4.80195 3.46447 4.66312 3.47393 4.51953 3.48242L4.52246 4.09961C5.07426 4.03979 5.68245 4.00001 6.33887 4C6.93194 4 7.48578 4.03364 7.99414 4.08398L7.56934 2.32617C7.55747 2.28223 7.5166 2.25032 7.46973 2.25H6.82031C6.47513 2.25 6.19531 1.97018 6.19531 1.625C6.19531 1.27982 6.47513 1 6.82031 1H7.46973ZM2.41797 6.29004C1.76296 6.35065 1.25 6.90144 1.25 7.57227C1.25015 8.28348 1.82683 8.86035 2.53809 8.86035C3.2493 8.86031 3.82603 8.28346 3.82617 7.57227C3.82617 7.27968 3.72787 7.01022 3.56348 6.79395L3.05566 7.78516C2.89808 8.09222 2.52193 8.21321 2.21484 8.05566C1.90779 7.89808 1.78681 7.52193 1.94434 7.21484L2.41797 6.29004ZM10.0703 7.35352C10.151 7.6887 9.94441 8.02615 9.60938 8.10742C9.27387 8.18848 8.93559 7.98197 8.85449 7.64648L8.60449 6.6123C8.3407 6.84818 8.17383 7.19058 8.17383 7.57227C8.17397 8.28342 8.75074 8.86025 9.46191 8.86035C10.1731 8.86031 10.7499 8.28346 10.75 7.57227C10.75 6.98671 10.3592 6.49246 9.82422 6.33594L10.0703 7.35352Z" fill="black"/>
</svg>
