<!-- This Source Code Form is subject to the terms of the Mozilla Public
   - License, v. 2.0. If a copy of the MPL was not distributed with this
   - file, You can obtain one at http://mozilla.org/MPL/2.0/. -->
<svg xmlns="http://www.w3.org/2000/svg" width="12" height="12" fill="context-fill" fill-opacity="context-fill-opacity" viewBox="0 0 12 12">
    <path d="M8.504 10.645a.8.8 0 0 1-.386-.102A12 12 0 0 1 6.223 9.22a.335.335 0 0 0-.444 0 12 12 0 0 1-1.895 1.323.77.77 0 0 1-.856-.059.75.75 0 0 1-.273-.795l.649-2.549a10.4 10.4 0 0 1-2.168-1.577.74.74 0 0 1-.187-.803.77.77 0 0 1 .678-.511l2.672-.173.889-2.234a.755.755 0 0 1 .714-.484c.322 0 .595.186.714.484l.889 2.234 2.672.173c.312.02.572.217.678.511a.74.74 0 0 1-.187.803A10.366 10.366 0 0 1 8.6 7.14l.649 2.55a.77.77 0 0 1-.743.957z" />
    <path d="M6 1.355c.321 0 .595.186.714.484l.889 2.234 2.673.173c.312.02.572.217.678.512a.75.75 0 0 1-.187.804A10.434 10.434 0 0 1 8.599 7.14l.649 2.55a.75.75 0 0 1-.274.795.77.77 0 0 1-.856.06 11.874 11.874 0 0 1-1.896-1.323A.34.34 0 0 0 6 9.138a.34.34 0 0 0-.222.084 12 12 0 0 1-1.896 1.323.8.8 0 0 1-.387.102.76.76 0 0 1-.469-.162.75.75 0 0 1-.274-.796l.649-2.55a10.3 10.3 0 0 1-2.168-1.578.75.75 0 0 1-.187-.804.77.77 0 0 1 .678-.512l2.673-.173.889-2.234A.76.76 0 0 1 6 1.354m0-1a1.76 1.76 0 0 0-1.643 1.114l-.655 1.648-2.042.132a1.78 1.78 0 0 0-1.554 1.17 1.75 1.75 0 0 0 .439 1.868q.254.241.509.454.565.476 1.195.878l-.464 1.824a1.76 1.76 0 0 0 .635 1.837c.31.24.684.368 1.077.368.302 0 .604-.079.873-.228a13 13 0 0 0 1.632-1.087q.31.242.641.471c.308.212.639.418.985.613.273.152.575.231.878.231.393 0 .767-.128 1.08-.37a1.76 1.76 0 0 0 .632-1.836l-.464-1.823a11.4 11.4 0 0 0 1.705-1.332 1.75 1.75 0 0 0 .438-1.867 1.78 1.78 0 0 0-1.554-1.17L8.3 3.117 7.645 1.47A1.76 1.76 0 0 0 6.002.356z" />
</svg>
