<!-- This Source Code Form is subject to the terms of the Mozilla Public
   - License, v. 2.0. If a copy of the MPL was not distributed with this
   - file, You can obtain one at http://mozilla.org/MPL/2.0/. -->
<svg xmlns="http://www.w3.org/2000/svg" width="12" height="12" fill="context-fill" fill-opacity="context-fill-opacity" viewBox="0 0 12 12">
    <path d="M7.625 3.75a.625.625 0 1 1 0 1.25h-3.5a.625.625 0 1 1 0-1.25z" />
    <path fill-rule="evenodd" d="M5.875.75c.905 0 1.877.03 2.908.103l.23.027A2.38 2.38 0 0 1 11 3.22v4.16c0 .614-.296 1.153-.75 1.493v1.635l.056-.005a.625.625 0 0 1 .138 1.242 41.3 41.3 0 0 1-7.115.176l-.793-.057A1.94 1.94 0 0 1 .75 9.933V3.226c0-1.24.95-2.284 2.197-2.372A42 42 0 0 1 5.875.75M2.684 9.249A.684.684 0 0 0 2 9.933c0 .357.273.655.638.685l.768.055A40 40 0 0 0 9 10.626V9.249zM5.875 2q-1.125.001-2.16.059l-.679.042A1.12 1.12 0 0 0 2 3.226v4.9c.213-.08.443-.127.684-.127h6.441a.62.62 0 0 0 .625-.62V3.22c0-.585-.46-1.077-1.056-1.12A40 40 0 0 0 5.875 2" clip-rule="evenodd" />
</svg>
