<!-- This Source Code Form is subject to the terms of the Mozilla Public
   - License, v. 2.0. If a copy of the MPL was not distributed with this
   - file, You can obtain one at http://mozilla.org/MPL/2.0/. -->
<svg xmlns="http://www.w3.org/2000/svg" width="12" height="12" fill="context-fill" fill-opacity="context-fill-opacity" stroke-opacity="context-stroke-opacity" viewBox="0 0 12 12">
    <path d="M6.002.858c.527 0 .983.312 1.178.799l.772 1.94 2.358.153h-.001c.512.032.943.36 1.116.84.17.472.051.987-.312 1.333v.001a10 10 0 0 1-.485.433v-.001c-.454.382-.941.725-1.451 1.027l.557 2.183.033.186c.045.432-.133.856-.486 1.128v.001a1.27 1.27 0 0 1-.775.266h-.207l-.026-.026a1.3 1.3 0 0 1-.399-.141h-.002A12.4 12.4 0 0 1 6 9.684q-.444.373-.923.703v.001c-.3.206-.62.404-.947.59l-.004.001a1.27 1.27 0 0 1-1.401-.1v.001a1.25 1.25 0 0 1-.488-1.131l.034-.186.554-2.182A11 11 0 0 1 .892 5.926L.89 5.924A1.24 1.24 0 0 1 .579 4.59c.174-.48.605-.806 1.116-.84l2.356-.153.772-1.94.085-.174A1.25 1.25 0 0 1 6.002.858" />
</svg>
