<!-- This Source Code Form is subject to the terms of the Mozilla Public
   - License, v. 2.0. If a copy of the MPL was not distributed with this
   - file, You can obtain one at http://mozilla.org/MPL/2.0/. -->
<svg xmlns="http://www.w3.org/2000/svg" width="12" height="12" fill="context-fill" fill-opacity="context-fill-opacity" viewBox="0 0 12 12">
    <g clip-path="url(#clip0_8069_32472)">
        <path fill-rule="evenodd" d="M6 .5c.587 0 1.125.043 1.604.107A1.62 1.62 0 0 1 9 2.22v.858q.377.018.76.043A2.387 2.387 0 0 1 12 5.495v4.01a2.38 2.38 0 0 1-1.993 2.347l-.232.027a59 59 0 0 1-7.536 0A2.387 2.387 0 0 1 0 9.507v-4.01c0-1.255.972-2.293 2.225-2.374L3 3.077v-.86C3 1.412 3.597.715 4.406.606A12 12 0 0 1 6 .5m0 3.75q-.895 0-1.75.028v6.445q.901.027 1.75.028.895-.001 1.75-.03V4.278Q6.849 4.25 6 4.25m3 6.42q.351-.017.694-.04a1.126 1.126 0 0 0 1.056-1.125v-4.01c0-.591-.466-1.087-1.07-1.126q-.344-.021-.68-.038zm-6.694-6.3A1.126 1.126 0 0 0 1.25 5.496v4.01c0 .591.466 1.087 1.07 1.126q.344.02.68.037V4.33q-.352.018-.694.04M6 1.75c-.308 0-.656.013-1.037.05l-.392.045a.38.38 0 0 0-.321.373v.808a59 59 0 0 1 3.5 0V2.22a.37.37 0 0 0-.313-.373C7.007 1.789 6.525 1.75 6 1.75" clip-rule="evenodd" />
    </g>
</svg>
