<svg width="12" height="12" viewBox="0 0 12 12" fill="none" xmlns="http://www.w3.org/2000/svg">
<path d="M7.74707 2.18276C7.991 1.93906 8.38691 1.9391 8.63086 2.18276C8.87486 2.42676 8.87486 2.82352 8.63086 3.06752L5.28613 6.41225C5.24414 6.45424 5.24414 6.547 5.28613 6.58901L8.63086 9.93373C8.87486 10.1777 8.87486 10.5745 8.63086 10.8185C8.509 10.9402 8.3492 11.001 8.18945 11.0011C8.02955 11.0011 7.86904 10.9394 7.74707 10.8175L4.40234 7.47182C4.14234 7.21182 3.99902 6.86714 3.99902 6.50014C3.99902 6.13314 4.14234 5.78846 4.40234 5.52846L7.74707 2.18276Z" fill="black"/>
</svg>
