<svg width="12" height="12" viewBox="0 0 12 12" fill="none" xmlns="http://www.w3.org/2000/svg">
<path d="M4.36867 2.18263C4.61267 1.93863 5.00943 1.93863 5.25343 2.18263L8.59816 5.52834C8.85803 5.78831 9.00148 6.13312 9.00148 6.50002C9.00148 6.86692 8.85803 7.21172 8.59816 7.4717L5.25343 10.8174C5.13143 10.9394 4.97105 11 4.81105 11C4.65105 11 4.49067 10.9404 4.36867 10.8184C4.12468 10.5744 4.12467 10.1776 4.36867 9.93361L7.71437 6.58888C7.75608 6.54685 7.75608 6.45415 7.71437 6.41213L4.36867 3.0674C4.12467 2.8234 4.12467 2.42663 4.36867 2.18263Z" fill="black"/>
</svg>
