<svg width="12" height="12" viewBox="0 0 12 12" fill="none" xmlns="http://www.w3.org/2000/svg">
<path d="M9.93262 4.36855C10.1766 4.12455 10.5734 4.12456 10.8174 4.36855C11.0614 4.61255 11.0614 5.00931 10.8174 5.25331L7.47168 8.59804C7.21171 8.8579 6.86689 9.00136 6.5 9.00136C6.1331 9.00135 5.78829 8.8579 5.52832 8.59804L2.18262 5.25331C2.06062 5.13131 2 4.97092 2 4.81093C2 4.65093 2.05964 4.49055 2.18164 4.36855C2.42564 4.12455 2.82241 4.12455 3.06641 4.36855L6.41113 7.71425C6.45316 7.75596 6.54586 7.75595 6.58789 7.71425L9.93262 4.36855Z" fill="black"/>
</svg>
