<svg width="12" height="12" viewBox="0 0 12 12" fill="none" xmlns="http://www.w3.org/2000/svg">
<path d="M8.93257 2.18257C9.17665 1.93849 9.57326 1.93849 9.81734 2.18257C10.0614 2.42665 10.0614 2.82326 9.81734 3.06734L6.88472 5.99995L9.81734 8.93257C10.0614 9.17665 10.0614 9.57326 9.81734 9.81734C9.57326 10.0614 9.17665 10.0614 8.93257 9.81734L5.99995 6.88472L3.06734 9.81734C2.82326 10.0614 2.42665 10.0614 2.18257 9.81734C1.93849 9.57326 1.93849 9.17665 2.18257 8.93257L5.11519 5.99995L2.18257 3.06734C1.93849 2.82326 1.93849 2.42665 2.18257 2.18257C2.42665 1.93849 2.82326 1.93849 3.06734 2.18257L5.99995 5.11519L8.93257 2.18257Z" fill="black"/>
</svg>
