<svg width="12" height="12" viewBox="0 0 12 12" fill="none" xmlns="http://www.w3.org/2000/svg">
<path fill-rule="evenodd" clip-rule="evenodd" d="M6 0C9.31371 0 12 2.68629 12 6C12 9.31371 9.31371 12 6 12C2.68629 12 0 9.31371 0 6C0 2.68629 2.68629 0 6 0ZM8.31738 3.68262C8.07332 3.43855 7.6767 3.43857 7.43262 3.68262L6 5.11523L4.56738 3.68262C4.32332 3.43855 3.9267 3.43857 3.68262 3.68262C3.43854 3.92669 3.43854 4.32331 3.68262 4.56738L5.11523 6L3.68262 7.43262C3.43854 7.67669 3.43854 8.07331 3.68262 8.31738C3.9267 8.56144 4.32331 8.56145 4.56738 8.31738L6 6.88477L7.43262 8.31738C7.6767 8.56144 8.07331 8.56145 8.31738 8.31738C8.56142 8.07331 8.56143 7.67669 8.31738 7.43262L6.88477 6L8.31738 4.56738C8.56142 4.32331 8.56143 3.92669 8.31738 3.68262Z" fill="black"/>
</svg>
