<!-- This Source Code Form is subject to the terms of the Mozilla Public
   - License, v. 2.0. If a copy of the MPL was not distributed with this
   - file, You can obtain one at http://mozilla.org/MPL/2.0/. -->
<svg xmlns="http://www.w3.org/2000/svg" width="12" height="12" fill="context-fill" fill-opacity="context-fill-opacity" viewBox="0 0 12 12">
    <path fill-rule="evenodd" d="M7.562.976a2 2 0 0 1 2.693.108l.662.662c.728.728.775 1.91.108 2.693a50.5 50.5 0 0 1-6.404 6.273A1.3 1.3 0 0 1 3.81 11H1.625A.625.625 0 0 1 1 10.376V8.192c0-.296.103-.584.29-.812A50.275 50.275 0 0 1 7.561.976m-.774 2.366a49 49 0 0 0-1.872 1.836 46 46 0 0 0-2.62 2.957.2.2 0 0 0-.046.129v1.485l1.506-.004a.2.2 0 0 0 .129-.045c1.01-.83 2-1.71 2.937-2.615a49 49 0 0 0 1.835-1.874zm2.063-1.594a.73.73 0 0 0-.477.178q-.33.284-.66.575l1.784 1.783q.293-.327.578-.659a.74.74 0 0 0-.044-.997l-.66-.66a.74.74 0 0 0-.522-.219" clip-rule="evenodd" />
</svg>
