<svg width="12" height="12" viewBox="0 0 12 12" fill="none" xmlns="http://www.w3.org/2000/svg">
<path fill-rule="evenodd" clip-rule="evenodd" d="M7.56152 0.975871C8.34252 0.310871 9.52588 0.356269 10.2549 1.08427L10.917 1.74638C11.6447 2.47427 11.692 3.65681 11.0254 4.43876C9.97752 5.66661 8.85528 6.8598 7.69043 7.98368C6.70943 8.92968 5.67709 9.8472 4.62109 10.7122C4.39409 10.8972 4.10459 11.0003 3.80859 11.0003H1.625C1.28006 11.0003 1.00009 10.7212 1 10.3763V8.19169C1.00009 7.89584 1.10315 7.60806 1.28906 7.38017C2.15404 6.32419 3.07062 5.29081 4.0166 4.31083C5.14055 3.14588 6.33258 2.02383 7.56152 0.975871ZM6.78809 3.34208C6.1476 3.93841 5.5209 4.55106 4.91602 5.17802C4.01102 6.11702 3.1309 7.10505 2.2959 8.13505C2.26594 8.17201 2.25003 8.21702 2.25 8.26396V9.74931L3.75586 9.7454C3.80271 9.7454 3.84882 9.72932 3.88477 9.6995C4.89577 8.8695 5.88427 7.99025 6.82227 7.08525C7.44945 6.48012 8.0608 5.85175 8.65723 5.21122L6.78809 3.34208ZM8.85059 1.74833C8.68174 1.74843 8.5129 1.80718 8.37402 1.92607C8.15254 2.11486 7.93368 2.30775 7.71484 2.50126L9.49805 4.28446C9.69204 4.06511 9.88698 3.84724 10.0762 3.62528C10.3241 3.33435 10.3021 2.89923 10.0322 2.62821L9.37109 1.96708C9.22609 1.82208 9.03761 1.74931 8.84961 1.74931L8.85059 1.74833Z" fill="black"/>
</svg>
