<svg width="12" height="12" viewBox="0 0 12 12" fill="none" xmlns="http://www.w3.org/2000/svg">
<g clip-path="url(#clip0_8069_32460)">
<path fill-rule="evenodd" clip-rule="evenodd" d="M10.2461 5.98242C10.5498 6.04488 10.7345 6.59046 10.835 6.82812C11.0303 7.28997 11.1952 7.75343 11.29 8.24316C11.3556 8.5809 11.5302 8.82991 11.873 8.83008L11.876 8.83105C11.9627 8.83239 12.0226 8.92257 11.9922 9.00391C11.9188 9.20019 11.6924 9.32496 11.5039 9.39746C11.5897 9.41977 11.8434 9.37004 11.8535 9.49609C11.8606 9.59969 11.5974 9.70277 11.5264 9.7373C10.8614 10.0575 10.2497 10.6327 9.46289 10.5312C9.12078 10.4866 8.87083 10.2452 8.59082 10.0957C8.45889 10.0257 8.29892 10.0256 8.16699 10.0957C7.88698 10.2452 7.63703 10.4866 7.29492 10.5312C6.50808 10.6327 5.89638 10.0575 5.23145 9.7373C5.1604 9.70388 4.89694 9.59971 4.90527 9.49609C4.91656 9.36892 5.16923 9.41977 5.25391 9.39746C5.06537 9.32496 4.83904 9.2002 4.76562 9.00391C4.73519 8.9226 4.794 8.83134 4.88184 8.83105C5.22615 8.82994 5.40031 8.58208 5.46582 8.24414C5.56066 7.7533 5.72557 7.29094 5.9209 6.8291C6.02136 6.59258 6.2055 6.04733 6.50879 5.98438C6.85428 5.91298 7.1608 6.09774 7.55371 6.88867C7.87773 7.53899 8.09668 7.99414 8.09668 7.99414V7.99902L8.31934 7.99609L8.3252 7.99512H8.43652L8.65918 7.99707V7.99316C8.65918 7.99316 8.87814 7.53912 9.20215 6.8877C9.59605 6.09817 9.90076 5.91124 10.2461 5.98242ZM6.60254 8.79688C6.51875 8.81041 6.28886 8.89226 6.29883 8.99805C6.52238 9.55135 7.46182 9.83892 7.91797 9.42285C7.75744 8.90886 7.09921 8.71434 6.60254 8.79688ZM10.1514 8.79688C9.65496 8.7145 8.99682 8.90851 8.83594 9.42188C9.29208 9.83909 10.2304 9.55136 10.4551 8.99805C10.4651 8.8921 10.2349 8.81026 10.1514 8.79688Z" fill="black"/>
<path fill-rule="evenodd" clip-rule="evenodd" d="M4.79785 1.00293C4.91206 1.00402 5.02634 1.00351 5.14062 1.00586C5.22338 1.00756 5.30603 1.01132 5.38867 1.01367C5.52276 1.0175 5.65691 1.0208 5.79102 1.02637C5.8627 1.02934 5.93429 1.03364 6.00586 1.03711C6.13933 1.04358 6.27286 1.04942 6.40625 1.05762C6.55046 1.06649 6.69428 1.07799 6.83789 1.08887C6.90393 1.09386 6.97014 1.09809 7.03613 1.10352H7.04004C7.04656 1.10405 7.05305 1.10493 7.05957 1.10547C8.16555 1.19747 8.99996 2.10959 9 3.22656V5.45703C8.56128 6.03913 8.37793 6.31641 8.37793 6.31641C8.37207 6.30625 8.19764 6.0051 7.74902 5.44336V3.22656C7.74902 3.22395 7.74807 3.22135 7.74805 3.21875L6.16211 4.80566C5.70111 5.26566 5.08859 5.49902 4.47559 5.49902C3.92372 5.49893 3.37163 5.31064 2.92773 4.92773C2.5922 4.63894 1.90244 3.97624 1.25098 3.34375V5.77637L1.24902 5.77539C1.25099 6.22776 1.60869 6.61154 2.06543 6.64844C2.74112 6.70392 3.41792 6.73144 4.09375 6.73828H4.87988C4.72395 7.13041 4.56333 7.58323 4.47168 7.99512C3.62285 7.99439 2.7737 7.96144 1.96387 7.89453C0.861934 7.80346 0 6.87144 0 5.77148V3.22656C3.53647e-05 2.10959 0.834453 1.19747 1.94043 1.10547C1.94663 1.10495 1.95279 1.10403 1.95898 1.10352H1.96387C2.02953 1.09812 2.09542 1.09384 2.16113 1.08887C2.30474 1.07799 2.44856 1.06649 2.59277 1.05762C2.72616 1.04941 2.85969 1.04358 2.99316 1.03711C3.06474 1.03364 3.13632 1.02934 3.20801 1.02637C3.34211 1.0208 3.47626 1.0175 3.61035 1.01367C3.69299 1.01131 3.77565 1.00756 3.8584 1.00586C3.97268 1.00351 4.08697 1.00402 4.20117 1.00293C4.29292 1.00205 4.38471 1.00007 4.47656 1H4.52344C4.61496 1.00007 4.70643 1.00206 4.79785 1.00293ZM4.5 2.24902C3.73295 2.24905 2.95322 2.27992 2.18066 2.34082C2.14159 2.34391 2.10248 2.34636 2.06348 2.34961C2.05034 2.35072 2.03738 2.35281 2.02441 2.35449C2.69706 3.00876 3.42009 3.70314 3.74316 3.98145C4.18917 4.36319 4.86146 4.33781 5.27637 3.9209L6.85352 2.34277C6.84181 2.34192 6.83006 2.34175 6.81836 2.34082C6.04612 2.27997 5.26673 2.24905 4.5 2.24902Z" fill="black"/>
</g>
<defs>
<clipPath id="clip0_8069_32460">
<rect width="12" height="12" fill="white"/>
</clipPath>
</defs>
</svg>
