<!-- This Source Code Form is subject to the terms of the Mozilla Public
   - License, v. 2.0. If a copy of the MPL was not distributed with this
   - file, You can obtain one at http://mozilla.org/MPL/2.0/. -->
<svg xmlns="http://www.w3.org/2000/svg" width="12" height="12" fill="context-fill" fill-opacity="context-fill-opacity" viewBox="0 0 12 12">
    <g fill-rule="evenodd" clip-path="url(#clip0_8069_32460)" clip-rule="evenodd">
        <path d="M10.246 5.982c.304.063.489.608.589.846.195.462.36.925.455 1.415.066.338.24.587.583.587l.003.001a.13.13 0 0 1 .116.173c-.073.196-.3.321-.488.393.086.023.34-.027.35.1.007.103-.257.206-.328.24-.665.32-1.276.896-2.063.794-.342-.044-.592-.286-.872-.435a.45.45 0 0 0-.424 0c-.28.15-.53.39-.872.435-.787.102-1.399-.474-2.064-.794-.07-.033-.334-.137-.326-.24.012-.128.264-.077.349-.1-.189-.072-.415-.197-.488-.393-.03-.081.028-.173.116-.173.344-.001.518-.249.584-.587.095-.49.26-.953.455-1.415.1-.236.284-.782.588-.845.345-.071.652.114 1.045.905.324.65.543 1.105.543 1.105V8l.222-.003h.118l.222.001v-.004s.22-.454.543-1.105c.394-.79.699-.977 1.044-.906M6.603 8.797c-.084.013-.314.095-.304.201.223.553 1.163.84 1.619.425-.16-.514-.819-.709-1.315-.626m3.548 0c-.496-.083-1.154.112-1.315.625.456.417 1.394.13 1.62-.424.01-.106-.221-.188-.305-.201" />
        <path d="M4.798 1.003q.17 0 .343.003l.248.008.402.012.215.011.4.02.432.032.198.015h.004l.02.001A2.11 2.11 0 0 1 9 3.227v2.23c-.439.582-.622.86-.622.86-.006-.01-.18-.312-.629-.874V3.22L6.161 4.806a2.38 2.38 0 0 1-1.686.693 2.36 2.36 0 0 1-1.548-.571c-.336-.29-1.026-.952-1.677-1.584v2.432h-.002c.002.452.36.836.816.872.676.056 1.353.083 2.029.09h.786a9 9 0 0 0-.408 1.257 31 31 0 0 1-2.508-.1A2.146 2.146 0 0 1 0 5.77V3.227a2.11 2.11 0 0 1 1.94-2.122l.019-.001h.005l.197-.015q.216-.018.432-.031.2-.012.4-.02.107-.007.215-.012l.402-.012.248-.008.343-.003L4.477 1h.046q.137 0 .275.003M4.5 2.249c-.767 0-1.547.03-2.32.092l-.117.009q-.02.001-.039.004c.673.655 1.396 1.35 1.72 1.627a1.13 1.13 0 0 0 1.532-.06l1.578-1.578-.036-.002A30 30 0 0 0 4.5 2.249" />
    </g>
</svg>
