<!-- This Source Code Form is subject to the terms of the Mozilla Public
   - License, v. 2.0. If a copy of the MPL was not distributed with this
   - file, You can obtain one at http://mozilla.org/MPL/2.0/. -->
<svg xmlns="http://www.w3.org/2000/svg" width="12" height="12" fill="context-fill" fill-opacity="context-fill-opacity" viewBox="0 0 12 12">
    <g fill-rule="evenodd" clip-path="url(#clip0_8069_32460)" clip-rule="evenodd">
        <path d="M6.794 6.81a25 25 0 0 1 3.333-.002 2.01 2.01 0 0 1 1.874 1.996v.506c0 .78-.61 1.412-1.39 1.44-.22.008-.426 0-.629-.021a1.5 1.5 0 0 1-.415-.11l-.773-.326a.82.82 0 0 0-.639 0l-.773.326q-.214.09-.415.11a5 5 0 0 1-.464.023l-.003.001q-.074 0-.147-.002a1.44 1.44 0 0 1-1.407-1.44v-.507c0-1.048.812-1.924 1.848-1.994m.132 1.445a.98.98 0 0 0-.73.317.28.28 0 0 0 0 .36c.17.192.434.316.73.317.296 0 .56-.125.73-.317a.28.28 0 0 0 0-.36.97.97 0 0 0-.73-.317m3.093 0a.97.97 0 0 0-.73.317.28.28 0 0 0 0 .36c.17.192.434.316.73.317.295 0 .56-.125.73-.317a.28.28 0 0 0 0-.36.98.98 0 0 0-.73-.317" />
        <path d="M1.941 1.106a31 31 0 0 1 5.096-.002 2.146 2.146 0 0 1 1.964 2.123V5.77c-.176-.003-.35-.017-.526-.017-.241 0-.483.017-.725.024v-2.55l-.001-.009-1.587 1.588a2.38 2.38 0 0 1-1.686.694 2.36 2.36 0 0 1-1.548-.572c-.336-.289-1.026-.952-1.678-1.585v2.429c0 .454.358.84.816.877q1.015.081 2.029.09h.677a3 3 0 0 0-.698 1.243 31 31 0 0 1-2.11-.087A2.146 2.146 0 0 1 .002 5.772V3.227a2.11 2.11 0 0 1 1.94-2.121M4.5 2.25c-.82 0-1.646.034-2.456.102l-.02.002c.673.654 1.396 1.349 1.72 1.627a1.13 1.13 0 0 0 1.532-.06l1.577-1.577A30 30 0 0 0 4.5 2.25" />
    </g>
</svg>
