<!-- This Source Code Form is subject to the terms of the Mozilla Public
   - License, v. 2.0. If a copy of the MPL was not distributed with this
   - file, You can obtain one at http://mozilla.org/MPL/2.0/. -->
<svg xmlns="http://www.w3.org/2000/svg" width="12" height="12" fill="context-fill" fill-opacity="context-fill-opacity" viewBox="0 0 12 12">
    <path fill-rule="evenodd" d="M9 4.998c.259 0 .516.077.74.232q.267.183.586.364l.103.06.394.202q.073.034.144.064.119.055.233.104.072.03.137.068l.058.033q.066.043.127.093c.181.149.316.341.395.557l.02.058.011.04.014.048.01.054c.033.16.037.329.005.497l-.18.97a3.5 3.5 0 0 1-.49 1.28 5.2 5.2 0 0 1-1.646 1.585 1.3 1.3 0 0 1-.66.18v-.002c-.232 0-.464-.062-.67-.185a5.2 5.2 0 0 1-1.568-1.477C6.543 9.505 6.335 9 6.236 8.6l-.035-.164-.18-.984a1.315 1.315 0 0 1 .786-1.454c.194-.082.4-.176.607-.283l.229-.122q.333-.186.613-.373C8.483 5.07 8.743 4.997 9 5zM8.898 6.01l-.086.041a10 10 0 0 1-.94.554l-.002-.001q-.35.18-.678.316a.314.314 0 0 0-.188.35l.18.985c.055.295.24.767.4.996.343.495.79.91 1.258 1.189a.3.3 0 0 0 .159.045V6a.3.3 0 0 0-.103.011" clip-rule="evenodd" />
    <path fill-rule="evenodd" d="M1.941 1.107a31 31 0 0 1 5.096-.002 2.146 2.146 0 0 1 1.964 2.123v.774L8.988 4c-.44 0-.866.13-1.237.367v-1.14l-.001-.01-1.588 1.59a2.38 2.38 0 0 1-1.686.693 2.36 2.36 0 0 1-1.548-.572c-.336-.288-1.025-.951-1.677-1.584v2.428c0 .454.358.84.816.877.997.083 1.998.097 2.993.078a2.3 2.3 0 0 0-.022.906l.064.342C4.9 7.98 4.702 8 4.5 8c-.839 0-1.692-.035-2.536-.104A2.146 2.146 0 0 1 0 5.773V3.228a2.11 2.11 0 0 1 1.94-2.121m2.56 1.143a30 30 0 0 0-2.477.104c.673.654 1.396 1.349 1.72 1.627a1.13 1.13 0 0 0 1.532-.06l1.577-1.577A30 30 0 0 0 4.5 2.25" clip-rule="evenodd" />
</svg>
