<!-- This Source Code Form is subject to the terms of the Mozilla Public
   - License, v. 2.0. If a copy of the MPL was not distributed with this
   - file, You can obtain one at http://mozilla.org/MPL/2.0/. -->
<svg xmlns="http://www.w3.org/2000/svg" width="12" height="12" fill="context-fill" fill-opacity="context-fill-opacity" viewBox="0 0 12 12">
    <path fill-rule="evenodd" d="M4.375 0C5.015 0 5.59.268 6 .696 6.41.268 6.986 0 7.625 0h.203a2.25 2.25 0 0 1 2.064 3.145q.188.012.374.026l.157.02c.773.138 1.327.82 1.327 1.601v.414c0 .569-.297 1.077-.75 1.37v2.95c0 1.25-.976 2.284-2.216 2.373a39 39 0 0 1-5.59 0A2.37 2.37 0 0 1 1 9.525V6.582a1.63 1.63 0 0 1-.75-1.374v-.414c0-.843.65-1.556 1.496-1.623l.362-.026A2.25 2.25 0 0 1 4.171 0zM9.75 6.865a53 53 0 0 1-3.125.128v3.751a37 37 0 0 0 2.07-.092A1.14 1.14 0 0 0 9.75 9.525zm-7.5 2.661a1.12 1.12 0 0 0 1.033 1.125 38 38 0 0 0 2.092.091V6.994Q4.006 6.98 2.745 6.9l-.495-.035zm4.375-3.782a52 52 0 0 0 3.53-.16l.069-.013a.38.38 0 0 0 .276-.365v-.414a.37.37 0 0 0-.333-.375 52 52 0 0 0-3.542-.161zm-1.25-1.49q-1.167.013-2.437.086l-1.092.076a.38.38 0 0 0-.346.378v.414c0 .204.152.36.333.375q1.667.136 3.542.16zM4.172 1.25a1 1 0 0 0-.59 1.807 53 53 0 0 1 1.793-.051V2.25a1 1 0 0 0-1-1zm3.453 0a1 1 0 0 0-1 1v.756q.92.01 1.79.05a1 1 0 0 0 .413-.806 1 1 0 0 0-1-1z" clip-rule="evenodd" />
</svg>
