<svg width="12" height="12" viewBox="0 0 12 12" fill="none" xmlns="http://www.w3.org/2000/svg">
<g clip-path="url(#clip0_8069_32494)">
<path fill-rule="evenodd" clip-rule="evenodd" d="M4.375 0C5.01416 3.47703e-05 5.5903 0.26797 6 0.696289C6.4097 0.267924 6.98578 0 7.625 0H7.82812C9.07025 6.75715e-05 10.0781 1.00786 10.0781 2.25C10.0781 2.56822 10.0107 2.87032 9.8916 3.14453C10.0171 3.15372 10.1419 3.16097 10.2656 3.1709L10.4229 3.19141C11.1961 3.32932 11.75 4.01067 11.75 4.79199V5.20605C11.75 5.77481 11.4528 6.28324 11 6.5752V9.52539C11 10.7756 10.0245 11.81 8.78418 11.8994C7.79603 11.9706 6.86471 11.999 6 11.999C5.01213 11.999 4.07514 11.9614 3.19434 11.8984C1.94644 11.8095 1 10.7633 1 9.52637V6.58203C0.543283 6.28995 0.250003 5.77587 0.25 5.20801V4.79395C0.250028 3.95131 0.90024 3.23819 1.74609 3.1709C1.8674 3.16117 1.98828 3.15333 2.1084 3.14453C1.98935 2.87043 1.92188 2.56837 1.92188 2.25C1.92188 1.00786 2.92975 6.60241e-05 4.17188 0H4.375ZM9.75 6.86523C8.6562 6.94244 7.61278 6.98163 6.625 6.99316V10.7441C7.28091 10.7333 7.97202 10.7044 8.69434 10.6523C9.28781 10.6095 9.75 10.113 9.75 9.52539V6.86523ZM2.25 9.52637C2.25 10.1213 2.70333 10.6101 3.2832 10.6514C3.94835 10.6989 4.64653 10.7301 5.375 10.7422V6.99414C4.46289 6.98341 3.58539 6.9518 2.74512 6.90039L2.25 6.86523V9.52637ZM6.625 5.74414C7.73254 5.73088 8.91181 5.68358 10.1543 5.58398L10.2236 5.57129C10.3807 5.52691 10.5 5.37863 10.5 5.20605V4.79199C10.5 4.58756 10.3484 4.43151 10.167 4.41699C9.05786 4.32796 7.87423 4.27086 6.625 4.25586V5.74414ZM5.375 4.25391C4.59719 4.26317 3.78407 4.29001 2.93848 4.33984L1.8457 4.41602C1.65592 4.43104 1.50003 4.59684 1.5 4.79395V5.20801C1.5 5.41244 1.65162 5.56849 1.83301 5.58301C2.94214 5.67204 4.12577 5.72816 5.375 5.74316V4.25391ZM4.17188 1.25C3.62011 1.25007 3.17188 1.69822 3.17188 2.25C3.17188 2.58113 3.33238 2.87359 3.58203 3.05664C4.19812 3.02869 4.79611 3.01262 5.375 3.00586V2.25C5.375 1.69822 4.92676 1.25007 4.375 1.25H4.17188ZM7.625 1.25C7.07318 1.25 6.625 1.69818 6.625 2.25V3.00586C7.23758 3.01304 7.83448 3.03032 8.41504 3.05664C8.66567 2.87389 8.82812 2.58179 8.82812 2.25C8.82812 1.69822 8.37989 1.25007 7.82812 1.25H7.625Z" fill="black"/>
</g>
<defs>
<clipPath id="clip0_8069_32494">
<rect width="12" height="12" fill="white"/>
</clipPath>
</defs>
</svg>
