<svg width="12" height="12" viewBox="0 0 12 12" fill="none" xmlns="http://www.w3.org/2000/svg">
<path fill-rule="evenodd" clip-rule="evenodd" d="M6 0C9.31371 0 12 2.68629 12 6C12 9.31371 9.31371 12 6 12C2.68629 12 0 9.31371 0 6C0 2.68629 2.68629 0 6 0ZM6 6.3252C5.43098 6.3252 4.83861 6.33461 4.22461 6.35742C4.30998 7.96112 4.96906 9.41099 5.99902 10.5107C7.02904 9.41137 7.68762 7.96272 7.77344 6.35938C7.19866 6.338 6.60723 6.3252 6 6.3252ZM2.97656 6.4209C2.42682 6.45578 1.86201 6.50101 1.2832 6.55859C1.49404 8.35813 2.71024 9.84978 4.35547 10.457C3.55527 9.29865 3.05553 7.91573 2.97656 6.4209ZM9.02148 6.4209C8.94257 7.91576 8.44451 9.29864 7.64453 10.457C9.29001 9.84968 10.5053 8.35753 10.7158 6.55762C10.1716 6.50355 9.60632 6.458 9.02148 6.4209ZM7.64453 1.54199C8.37054 2.59304 8.84721 3.82909 8.98828 5.16602C9.57793 5.20208 10.1483 5.24775 10.6982 5.30078C10.442 3.56428 9.24686 2.13328 7.64453 1.54199ZM4.35547 1.54199C2.75339 2.13319 1.55725 3.56367 1.30078 5.2998C1.88486 5.24341 2.45497 5.20093 3.00977 5.16699C3.15081 3.82969 3.62908 2.5933 4.35547 1.54199ZM5.99902 1.48828C5.08516 2.46385 4.46634 3.71551 4.27832 5.10547C4.87272 5.0846 5.44708 5.0752 6 5.0752C6.58826 5.0752 7.1621 5.08582 7.7207 5.10547C7.53265 3.71512 6.91333 2.46394 5.99902 1.48828Z" fill="black"/>
</svg>
