<!-- This Source Code Form is subject to the terms of the Mozilla Public
   - License, v. 2.0. If a copy of the MPL was not distributed with this
   - file, You can obtain one at http://mozilla.org/MPL/2.0/. -->
<svg xmlns="http://www.w3.org/2000/svg" width="12" height="12" fill="context-fill" fill-opacity="context-fill-opacity" viewBox="0 0 12 12">
    <g clip-path="url(#clip0_8069_32475)">
        <path fill-rule="evenodd" d="M4.648.5c.923.003 1.855.045 2.774.126a2.15 2.15 0 0 1 1.406.71l.109.121h1.126v-.145a.625.625 0 0 1 1.25 0v4.126a.625.625 0 0 1-1.25 0v-.214H9.059l-.842.495a.6.6 0 0 1-.175.07l-.044.008-.01 4.4A1.81 1.81 0 0 1 6.181 12h-.36a1.81 1.81 0 0 1-1.808-1.803L4 5.618l-.672-.393H1.171A.625.625 0 0 1 .546 4.6V3.472c0-1.595 1.24-2.89 2.82-2.95A31 31 0 0 1 4.648.5m.615 9.693a.56.56 0 0 0 .558.557h.36a.56.56 0 0 0 .557-.557l.01-4.214a8 8 0 0 1-.557.02L6.194 6h-.058a8 8 0 0 1-.885-.056zM3.41 1.771a1.685 1.685 0 0 0-1.616 1.7v.503h1.702a.6.6 0 0 1 .315.085l.91.532c.468.102.946.154 1.422.158a7.7 7.7 0 0 0 1.525-.157l.904-.532a.6.6 0 0 1 .316-.086h1.174V2.707H8.659a.63.63 0 0 1-.464-.206L7.9 2.174a.9.9 0 0 0-.59-.303 32 32 0 0 0-2.666-.121c-.42.006-.834.008-1.233.021" clip-rule="evenodd" />
    </g>
</svg>
