<!-- This Source Code Form is subject to the terms of the Mozilla Public
   - License, v. 2.0. If a copy of the MPL was not distributed with this
   - file, You can obtain one at http://mozilla.org/MPL/2.0/. -->
<svg xmlns="http://www.w3.org/2000/svg" width="12" height="12" fill="context-fill" fill-opacity="context-fill-opacity" viewBox="0 0 12 12">
    <path d="M3.366 5.651a.626.626 0 0 1 .881.075c.1.118.184.213.242.277l.067.073.016.018.003.004h.001a18 18 0 0 0 .977.95.625.625 0 0 1-.835.932q-.24-.216-.452-.421l-.314-.309q-.147-.151-.28-.29l-.004-.003-.006-.007-.022-.023-.078-.085c-.067-.073-.16-.18-.27-.31a.626.626 0 0 1 .074-.88" />
    <path fill-rule="evenodd" d="M3.52 1.008c.95.059 1.831.557 2.477 1.386.627-.803 1.473-1.287 2.39-1.367 1.037-.09 2.049.357 2.793 1.222.593.688.88 1.557.812 2.453q0 .023-.002.047c-.12 1.582-1.848 3.498-2.192 3.866q-.3.316-.666.667a17 17 0 0 1-1.895 1.543l-.015.01a2.1 2.1 0 0 1-1.223.39l-.002-.001c-.426 0-.85-.128-1.214-.384a16 16 0 0 1-2.576-2.22C1.995 8.395.133 6.391.01 4.747a3.8 3.8 0 0 1 .129-1.277c.123-.402.316-.773.577-1.104.728-.929 1.733-1.432 2.804-1.36M3.33 2.25c-.605 0-1.182.312-1.632.887a2.1 2.1 0 0 0-.364.696 2.6 2.6 0 0 0-.079.82c.077 1.02 1.368 2.587 1.858 3.104a14.993 14.993 0 0 0 2.39 2.06.86.86 0 0 0 .99 0l.015-.012a16 16 0 0 0 1.759-1.429q.342-.328.615-.616c.6-.638 1.739-2.08 1.854-3.047q0-.028.002-.056a2.1 2.1 0 0 0-.508-1.592c-.485-.564-1.097-.848-1.738-.792-.673.058-1.298.49-1.715 1.185a.9.9 0 0 1-.78.458h-.002a.89.89 0 0 1-.767-.433C4.787 2.748 4.135 2.3 3.442 2.256l-.11-.003z" clip-rule="evenodd" />
</svg>
