<!-- This Source Code Form is subject to the terms of the Mozilla Public
   - License, v. 2.0. If a copy of the MPL was not distributed with this
   - file, You can obtain one at http://mozilla.org/MPL/2.0/. -->
<svg xmlns="http://www.w3.org/2000/svg" width="12" height="12" fill="context-fill" fill-opacity="context-fill-opacity" viewBox="0 0 12 12">
    <g fill-rule="evenodd" clip-path="url(#clip0_8069_32496)" clip-rule="evenodd">
        <path d="M6 2.5a2.5 2.5 0 1 1 0 5 2.5 2.5 0 0 1 0-5m0 1.25a1.25 1.25 0 1 0 0 2.5 1.25 1.25 0 0 0 0-2.5" />
        <path d="M6 0a5 5 0 0 1 3.876 8.156l.135.01A1.63 1.63 0 0 1 11.5 9.789v.422c0 .83-.627 1.55-1.479 1.62l.002.001a48 48 0 0 1-8.034.001A1.63 1.63 0 0 1 .5 10.21v-.422c0-.83.626-1.549 1.478-1.62l.145-.013A5 5 0 0 1 6 0m0 9.249a47 47 0 0 0-2.991.096l-.927.068a.37.37 0 0 0-.332.375v.422a.38.38 0 0 0 .343.377 47 47 0 0 0 7.825-.001.37.37 0 0 0 .332-.375v-.422a.38.38 0 0 0-.343-.377A47 47 0 0 0 6 9.25M6 1.25a3.75 3.75 0 0 0-2.183 6.799 48 48 0 0 1 4.36 0A3.74 3.74 0 0 0 9.75 5 3.75 3.75 0 0 0 6 1.25" />
    </g>
</svg>
