<svg width="12" height="12" viewBox="0 0 12 12" fill="none" xmlns="http://www.w3.org/2000/svg">
<g clip-path="url(#clip0_8069_32504)">
<path d="M4.25 4.42871C4.25021 3.85288 4.87216 3.49237 5.37207 3.77832L8.12207 5.34863C8.62607 5.63663 8.62607 6.36337 8.12207 6.65137L5.37207 8.22168C4.87215 8.50763 4.2502 8.14713 4.25 7.57129V4.42871Z" fill="black"/>
<path fill-rule="evenodd" clip-rule="evenodd" d="M6 0C9.314 0 12 2.686 12 6C12 9.314 9.314 12 6 12C2.686 12 0 9.314 0 6C0 2.686 2.686 0 6 0ZM6 1.25C3.381 1.25 1.25 3.381 1.25 6C1.25 8.619 3.381 10.75 6 10.75C8.619 10.75 10.75 8.619 10.75 6C10.75 3.381 8.619 1.25 6 1.25Z" fill="black"/>
</g>
<defs>
<clipPath id="clip0_8069_32504">
<rect width="12" height="12" fill="white"/>
</clipPath>
</defs>
</svg>
