<!-- This Source Code Form is subject to the terms of the Mozilla Public
   - License, v. 2.0. If a copy of the MPL was not distributed with this
   - file, You can obtain one at http://mozilla.org/MPL/2.0/. -->
<svg xmlns="http://www.w3.org/2000/svg" width="12" height="12" fill="context-fill" fill-opacity="context-fill-opacity" viewBox="0 0 12 12">
    <path fill-rule="evenodd" d="M8.292 1.007q.802.02 1.537.077c1.24.095 2.17 1.146 2.17 2.368v6.743c0 .556-.286 1.076-.76 1.374l-.008.007v-.001l-.02.013a2.376 2.376 0 0 1-3.68-2.355C7.728 8.025 8.836 7.25 9.968 7.25h.781V5.429c-.94-.107-1.987-.18-3.126-.18-1.14 0-2.187.073-3.127.18l-.002 4.823H4.49a1.62 1.62 0 0 1-.756 1.316l-.027.018h-.001a2.376 2.376 0 0 1-3.68-2.354C.223 8.025 1.331 7.25 2.463 7.25h.783l.002-3.798c0-1.224.931-2.272 2.173-2.367A28 28 0 0 1 7.75 1zm1.676 7.494c-.574 0-1.056.367-1.183.837l-.02.094a1.126 1.126 0 0 0 1.752 1.117l.02-.013.027-.018.01-.006a.37.37 0 0 0 .175-.317V8.5zM2.463 8.5c-.574 0-1.056.367-1.183.837l-.02.094a1.126 1.126 0 0 0 1.75 1.117l.01-.006.011-.007.028-.018.006-.004a.38.38 0 0 0 .166-.225l.013-.094.001-1.694zm5.283-6.25a27 27 0 0 0-2.228.08c-.57.043-1.02.53-1.02 1.122l-.001.718a29 29 0 0 1 6.252.002v-.72a1.12 1.12 0 0 0-.911-1.109l-.105-.013q-.703-.054-1.47-.073z" clip-rule="evenodd" />
</svg>
