<svg width="12" height="12" viewBox="0 0 12 12" fill="none" xmlns="http://www.w3.org/2000/svg">
<g clip-path="url(#clip0_8069_32463)">
<path d="M3.75031 4.50016C4.16438 4.50032 4.50031 4.83604 4.50031 5.25016C4.50022 5.66419 4.16433 6 3.75031 6.00016C3.33615 6.00016 3.0004 5.66429 3.00031 5.25016C3.00031 4.83594 3.3361 4.50016 3.75031 4.50016Z" fill="black"/>
<path d="M8.25031 4.50016C8.66438 4.50032 9.00031 4.83604 9.00031 5.25016C9.00022 5.66419 8.66433 6 8.25031 6.00016C7.83615 6.00016 7.5004 5.66429 7.50031 5.25016C7.50031 4.83594 7.8361 4.50016 8.25031 4.50016Z" fill="black"/>
<path d="M6.00031 3.00016C6.41438 3.00032 6.75031 3.33604 6.75031 3.75016C6.75022 4.16419 6.41433 4.5 6.00031 4.50016C5.58615 4.50016 5.2504 4.16429 5.25031 3.75016C5.25031 3.33594 5.5861 3.00016 6.00031 3.00016Z" fill="black"/>
<path fill-rule="evenodd" clip-rule="evenodd" d="M4.9505 0.343908C8.55644 -0.296456 11.7019 2.43678 11.7503 5.9191L11.7484 6.07047C11.6912 7.62164 10.4221 8.87988 8.84308 8.88004H8.06281C7.8069 8.88038 7.64586 9.15786 7.77277 9.38004C8.3754 10.4351 7.61397 11.7499 6.39679 11.7502H6.00031C2.58762 11.7502 -0.129412 8.77693 0.294255 5.28336C0.593125 2.82413 2.50514 0.778711 4.9505 0.343908ZM10.5003 5.93668C10.4625 3.21141 8.00291 1.0712 5.16925 1.57438C3.27137 1.91185 1.76798 3.51372 1.53449 5.43375C1.20216 8.17418 3.329 10.5002 6.00031 10.5002H6.39679C6.65312 10.4999 6.81466 10.2228 6.68781 10.0002C6.08488 8.94461 6.84727 7.63038 8.06281 7.63004H8.84308C9.76673 7.62988 10.5134 6.86858 10.5003 5.93668Z" fill="black"/>
</g>
<defs>
<clipPath id="clip0_8069_32463">
<rect width="12" height="12" fill="white"/>
</clipPath>
</defs>
</svg>
