<!-- This Source Code Form is subject to the terms of the Mozilla Public
   - License, v. 2.0. If a copy of the MPL was not distributed with this
   - file, You can obtain one at http://mozilla.org/MPL/2.0/. -->
<svg xmlns="http://www.w3.org/2000/svg" width="12" height="12" fill="context-fill" fill-opacity="context-fill-opacity" viewBox="0 0 12 12">
    <g clip-path="url(#clip0_8069_32463)">
        <path d="M3.75 4.5a.75.75 0 1 1 0 1.5.75.75 0 0 1 0-1.5m4.5 0a.75.75 0 1 1 0 1.5.75.75 0 0 1 0-1.5M6 3a.75.75 0 1 1 0 1.5A.75.75 0 0 1 6 3" />
        <path fill-rule="evenodd" d="M4.95.344a5.755 5.755 0 0 1 6.8 5.575l-.002.151a2.913 2.913 0 0 1-2.905 2.81h-.78a.335.335 0 0 0-.29.5 1.585 1.585 0 0 1-1.376 2.37H6A5.75 5.75 0 0 1 .294 5.283C.594 2.824 2.505.78 4.951.343m5.55 5.593a4.505 4.505 0 0 0-5.33-4.363c-1.899.338-3.402 1.94-3.636 3.86A4.502 4.502 0 0 0 6 10.5h.397a.335.335 0 0 0 .29-.5 1.585 1.585 0 0 1 1.376-2.37h.78c.924 0 1.67-.761 1.657-1.693" clip-rule="evenodd" />
    </g>
</svg>
