<svg width="12" height="12" viewBox="0 0 12 12" fill="none" xmlns="http://www.w3.org/2000/svg">
<path d="M3.84961 2.01074C4.49955 2.04774 4.99992 2.60688 5 3.25781V9.74023C4.99986 10.4131 4.47074 10.9592 3.79883 10.9922C3.70189 10.9972 3.60194 10.999 3.5 10.999C3.39212 10.999 3.27524 10.9962 3.15039 10.9893C2.50046 10.9523 2.00011 10.3931 2 9.74219V3.25977C2.00011 2.58686 2.52924 2.04081 3.20117 2.00781C3.29812 2.00282 3.39806 2.00098 3.5 2.00098C3.60788 2.00098 3.72476 2.00376 3.84961 2.01074Z" fill="black"/>
<path d="M9.84961 2.01074C10.4996 2.04774 10.9999 2.60688 11 3.25781V9.74023C10.9999 10.4131 10.4707 10.9592 9.79883 10.9922C9.70189 10.9972 9.60194 10.999 9.5 10.999C9.39212 10.999 9.27524 10.9962 9.15039 10.9893C8.50046 10.9523 8.00011 10.3931 8 9.74219V3.25977C8.00011 2.58686 8.52924 2.04081 9.20117 2.00781C9.29812 2.00282 9.39806 2.00098 9.5 2.00098C9.60788 2.00098 9.72476 2.00376 9.84961 2.01074Z" fill="black"/>
</svg>
