<!-- This Source Code Form is subject to the terms of the Mozilla Public
   - License, v. 2.0. If a copy of the MPL was not distributed with this
   - file, You can obtain one at http://mozilla.org/MPL/2.0/. -->
<svg xmlns="http://www.w3.org/2000/svg" width="12" height="12" fill="context-fill" fill-opacity="context-fill-opacity" viewBox="0 0 12 12">
    <g clip-path="url(#clip0_8069_32462)">
        <path fill-rule="evenodd" d="M6 4.001c.87 0 1.65.52 2.005 1.315.358.801.852 1.53 1.456 2.153l.443.457.136.153c.297.372.46.835.46 1.314V9.4c0 .903-.629 1.68-1.496 1.88l-.177.032a21.3 21.3 0 0 1-5.674-.003A1.92 1.92 0 0 1 1.5 9.402c0-.551.213-1.082.596-1.476l.443-.457.222-.239a7.5 7.5 0 0 0 1.234-1.914A2.2 2.2 0 0 1 6 4.001m0 1.25a.94.94 0 0 0-.795.448l-.068.128a8.7 8.7 0 0 1-1.7 2.512l-.445.458v-.001a.87.87 0 0 0-.242.606c0 .34.25.624.571.667a20 20 0 0 0 5.34.003.68.68 0 0 0 .589-.672v-.007a.86.86 0 0 0-.242-.596l-.445-.457a8.7 8.7 0 0 1-1.536-2.167l-.164-.346A.95.95 0 0 0 6 5.251" clip-rule="evenodd" />
        <path d="M1.125 4c.621 0 1.125.672 1.125 1.5S1.746 7 1.125 7 0 6.328 0 5.5.504 4 1.125 4M10.875 4C11.496 4 12 4.672 12 5.5S11.496 7 10.875 7 9.75 6.328 9.75 5.5 10.254 4 10.875 4M4.125.5C4.746.5 5.25 1.172 5.25 2s-.504 1.5-1.125 1.5S3 2.828 3 2 3.504.5 4.125.5M7.875.5C8.496.5 9 1.172 9 2s-.504 1.5-1.125 1.5S6.75 2.828 6.75 2 7.254.5 7.875.5" />
    </g>
</svg>
