<!-- This Source Code Form is subject to the terms of the Mozilla Public
   - License, v. 2.0. If a copy of the MPL was not distributed with this
   - file, You can obtain one at http://mozilla.org/MPL/2.0/. -->
<svg xmlns="http://www.w3.org/2000/svg" width="12" height="12" fill="context-fill" fill-opacity="context-fill-opacity" viewBox="0 0 12 12">
    <path d="m9.113 4.058-1.844-.162-1.152-1.152c.136-.104.266-.216.405-.315a.624.624 0 1 0-.725-1.017 15.7 15.7 0 0 0-3.682 3.682.625.625 0 1 0 1.018.725c.1-.14.212-.271.317-.407l1.152 1.152.162 1.844c.07.799 1.007 1.284 1.617.828.467-.35.956-.768 1.448-1.226l1.808 1.808a.625.625 0 0 0 .884-.884L8.715 7.128c.39-.417.795-.877 1.21-1.43.462-.616-.004-1.569-.812-1.64" />
    <path d="M6.16 1.296a.625.625 0 0 1 .363 1.134c-.14.1-.27.211-.405.315L7.27 3.897l1.844.162c.808.071 1.274 1.023.812 1.639a17 17 0 0 1-1.21 1.43l1.806 1.806a.625.625 0 0 1-.884.884L7.83 8.01c-.492.458-.98.877-1.448 1.226a.88.88 0 0 1-.533.176 1.12 1.12 0 0 1-1.084-1.004l-.162-1.844-1.152-1.152c-.105.136-.217.267-.317.407a.625.625 0 1 1-1.018-.724 15.7 15.7 0 0 1 3.682-3.682.63.63 0 0 1 .362-.116m0-1.001c-.34 0-.666.105-.943.302a16.7 16.7 0 0 0-3.915 3.915 1.61 1.61 0 0 0-.279 1.212c.072.429.307.803.661 1.055.275.197.601.301.941.301.303 0 .594-.082.846-.236l.168.168.13 1.482a2.11 2.11 0 0 0 2.08 1.917c.413 0 .804-.13 1.132-.375q.386-.289.81-.652l1.139 1.139c.307.307.715.476 1.149.476s.842-.169 1.149-.476.476-.715.476-1.149-.169-.842-.476-1.149l-1.137-1.137c.199-.234.415-.499.634-.791.429-.571.504-1.316.202-1.993A2.1 2.1 0 0 0 9.2 3.062l-1.481-.13-.171-.171A1.626 1.626 0 0 0 6.159.295z" />
</svg>
