<!-- This Source Code Form is subject to the terms of the Mozilla Public
   - License, v. 2.0. If a copy of the MPL was not distributed with this
   - file, You can obtain one at http://mozilla.org/MPL/2.0/. -->
<svg xmlns="http://www.w3.org/2000/svg" width="12" height="12" fill="context-fill" fill-opacity="context-fill-opacity" viewBox="0 0 12 12">
    <path fill-rule="evenodd" d="M5.375 1A4.38 4.38 0 0 1 9.75 5.375c0 .981-.325 1.888-.872 2.618l1.94 1.94a.626.626 0 0 1-.884.884l-1.94-1.94a4.35 4.35 0 0 1-2.619.873A4.38 4.38 0 0 1 1 5.375 4.38 4.38 0 0 1 5.375 1m0 1.25A3.13 3.13 0 0 0 2.25 5.375 3.13 3.13 0 0 0 5.375 8.5 3.13 3.13 0 0 0 8.5 5.375 3.13 3.13 0 0 0 5.375 2.25" clip-rule="evenodd" />
</svg>
