<!-- This Source Code Form is subject to the terms of the Mozilla Public
   - License, v. 2.0. If a copy of the MPL was not distributed with this
   - file, You can obtain one at http://mozilla.org/MPL/2.0/. -->
<svg xmlns="http://www.w3.org/2000/svg" width="12" height="12" fill="context-fill" fill-opacity="context-fill-opacity" viewBox="0 0 12 12">
    <path d="M4.875 10.25a.875.875 0 1 1 0 1.75.875.875 0 0 1 0-1.75M9.875 10.25a.875.875 0 1 1 0 1.75.875.875 0 0 1 0-1.75" />
    <path fill-rule="evenodd" d="M1.227 1C2.3 1 3.244 1.724 3.52 2.76l.116.432c2.206-.223 4.45-.25 6.643-.085a1.864 1.864 0 0 1 1.654 2.345l-.61 2.287a1.87 1.87 0 0 1-1.587 1.373 19.2 19.2 0 0 1-4.59 0A1.87 1.87 0 0 1 3.561 7.74l-.987-3.685-.012-.044-.248-.928a1.13 1.13 0 0 0-1.087-.833H.625a.625.625 0 0 1 0-1.25zm8.96 3.353a36.7 36.7 0 0 0-6.222.063l.804 3a.62.62 0 0 0 .529.455c1.42.172 2.869.172 4.289 0a.62.62 0 0 0 .53-.456l.61-2.286.002-.001a.62.62 0 0 0-.093-.52.6.6 0 0 0-.45-.255" clip-rule="evenodd" />
</svg>
