<!-- This Source Code Form is subject to the terms of the Mozilla Public
   - License, v. 2.0. If a copy of the MPL was not distributed with this
   - file, You can obtain one at http://mozilla.org/MPL/2.0/. -->
<svg xmlns="http://www.w3.org/2000/svg" width="12" height="12" fill="context-fill" fill-opacity="context-fill-opacity" viewBox="0 0 12 12">
    <path d="M5.706 4.714a.5.5 0 0 1 .589 0l.99.719a.5.5 0 0 1 .18.56l-.377 1.162a.5.5 0 0 1-.476.345H5.39a.5.5 0 0 1-.476-.345l-.378-1.163a.5.5 0 0 1 .182-.56z" />
    <path fill-rule="evenodd" d="M6 0a6 6 0 1 1 0 12A6 6 0 0 1 6 0m.442 2.605a.75.75 0 0 1-.882 0l-1.372-.997a4.8 4.8 0 0 0-1.681 1.174l.635 1.654a.75.75 0 0 1-.228.852L1.29 6.604c.078.617.275 1.197.566 1.716l1.466-.076a.75.75 0 0 1 .739.48l.716 1.866a4.75 4.75 0 0 0 2.475-.008l.453-1.686a.75.75 0 0 1 .685-.556l1.797-.095c.287-.534.476-1.13.54-1.762L9.194 5.49a.75.75 0 0 1-.316-.823l.528-1.974a4.8 4.8 0 0 0-1.594-1.084z" clip-rule="evenodd" />
</svg>
