<!-- This Source Code Form is subject to the terms of the Mozilla Public
   - License, v. 2.0. If a copy of the MPL was not distributed with this
   - file, You can obtain one at http://mozilla.org/MPL/2.0/. -->
<svg xmlns="http://www.w3.org/2000/svg" width="12" height="12" fill="context-fill" fill-opacity="context-fill-opacity" viewBox="0 0 12 12">
    <path fill-rule="evenodd" d="M4.65 1.825C5.23.691 6.896.728 7.402 1.94l.179.45c.187.497.334.97.448 1.409.02.072.084.147.2.178q.57.145 1.2.373.323.118.626.244l.113.052c1.136.58 1.116 2.248-.108 2.761q-.274.115-.564.223c-.446.165-.872.295-1.27.4h-.001c-.115.03-.178.104-.196.174-.121.467-.281.974-.487 1.508v.002q-.072.183-.143.352v.002c-.52 1.245-2.277 1.246-2.798.003l-.143-.357-.001-.002a14 14 0 0 1-.486-1.506l-.023-.055a.28.28 0 0 0-.174-.122 13 13 0 0 1-1.268-.4h-.002a15 15 0 0 1-.565-.222c-1.263-.53-1.243-2.29.005-2.813q.301-.127.626-.244l.312-.109q.462-.154.89-.264l.078-.03a.24.24 0 0 0 .12-.15c.115-.438.26-.91.448-1.406v-.002q.088-.228.18-.449zm1.598.596a.267.267 0 0 0-.497 0q-.083.198-.164.41c-.17.453-.304.884-.407 1.282a1.5 1.5 0 0 1-.907 1.011l-.187.062a12 12 0 0 0-1.658.56.27.27 0 0 0-.005.507l.515.203q.607.22 1.15.362a1.52 1.52 0 0 1 1.024.87l.068.198c.111.425.255.888.443 1.375l.129.322v.003c.093.22.4.22.493 0q.068-.161.13-.324L6.51 8.9q.187-.534.31-1.012c.126-.483.479-.838.905-1.008l.186-.062a12.5 12.5 0 0 0 1.666-.565.271.271 0 0 0-.004-.507q-.271-.114-.568-.223a12 12 0 0 0-1.091-.337l-.002-.001a1.51 1.51 0 0 1-1.092-1.07 13 13 0 0 0-.571-1.694" clip-rule="evenodd" />
</svg>
