<svg width="12" height="12" viewBox="0 0 12 12" fill="none" xmlns="http://www.w3.org/2000/svg">
<path fill-rule="evenodd" clip-rule="evenodd" d="M4.65031 1.82518C5.22948 0.691485 6.89639 0.727603 7.40227 1.93944L7.58098 2.38963C7.76806 2.88609 7.91491 3.35846 8.02922 3.79783C8.04853 3.86961 8.11323 3.94503 8.22941 3.97557C8.60795 4.07416 9.00906 4.1969 9.42863 4.34862L9.42961 4.34959C9.64419 4.42771 9.85386 4.50868 10.0546 4.59276L10.1679 4.64549C11.3036 5.22474 11.2839 6.89347 10.0595 7.40623C9.87728 7.48267 9.68952 7.5571 9.49602 7.62889C9.05 7.79365 8.62351 7.92382 8.22649 8.0283H8.22453C8.10981 8.05824 8.04741 8.13328 8.02922 8.20311C7.9076 8.66965 7.74779 9.17689 7.54191 9.71092V9.71287C7.4946 9.83483 7.44622 9.95228 7.39934 10.0654V10.0674C6.87989 11.3117 5.12195 11.3126 4.60051 10.0703L4.45793 9.71287L4.45695 9.71092C4.25106 9.1768 4.0929 8.67105 3.97063 8.20506L3.94816 8.15037C3.91686 8.09754 3.85931 8.05044 3.77434 8.0283C3.37523 7.92355 2.94943 7.7921 2.50578 7.62889H2.50383C2.3101 7.55702 2.1218 7.48276 1.93938 7.40623C0.6759 6.8769 0.695631 5.116 1.94426 4.59276C2.14442 4.50892 2.35336 4.42719 2.57024 4.34862L2.88176 4.24022C3.18956 4.13702 3.48748 4.04955 3.77238 3.97557L3.84953 3.9453C3.91661 3.90828 3.95613 3.85217 3.97063 3.79686C4.08489 3.35778 4.23095 2.8857 4.41789 2.38963L4.41887 2.38768C4.47669 2.23589 4.53662 2.08554 4.59758 1.93944L4.65031 1.82518ZM6.24797 2.42088C6.15397 2.19648 5.84605 2.19469 5.7509 2.42186C5.69628 2.55277 5.64061 2.68898 5.58684 2.83006L5.58781 2.83104C5.41697 3.28442 5.28328 3.71476 5.17961 4.11326C5.05293 4.59625 4.70173 4.95377 4.27336 5.12401L4.08586 5.18553C3.742 5.27483 3.37667 5.38641 2.99602 5.5244C2.79895 5.5958 2.60944 5.66994 2.42766 5.74608C2.18671 5.84699 2.19658 6.15819 2.42277 6.25291L2.9384 6.45604C3.34169 6.6044 3.72674 6.72325 4.08879 6.81834C4.53367 6.93421 4.92465 7.24394 5.11223 7.68748L5.17961 7.88573C5.2912 8.31111 5.43524 8.77366 5.62297 9.26073L5.75188 9.58299L5.75285 9.58592C5.84504 9.80631 6.15275 9.8062 6.24504 9.58592C6.28974 9.47804 6.33359 9.37072 6.3759 9.2617L6.50871 8.90037C6.63397 8.54465 6.73649 8.2052 6.81926 7.88768C6.94517 7.40451 7.29762 7.04953 7.72356 6.87987L7.91008 6.81834C8.27216 6.723 8.65762 6.60482 9.06047 6.45604C9.23862 6.38995 9.41062 6.32233 9.57609 6.25291C9.80188 6.1581 9.81261 5.84713 9.57219 5.74608C9.39133 5.67033 9.20079 5.59515 9.00383 5.52342C8.62183 5.38529 8.25614 5.27489 7.91301 5.18553L7.91106 5.18455C7.40396 5.05116 6.96428 4.66603 6.81926 4.11424C6.71558 3.71569 6.58193 3.28448 6.41106 2.83104C6.35777 2.69027 6.30313 2.55308 6.24797 2.42088Z" fill="black"/>
</svg>
