<svg width="12" height="12" viewBox="0 0 12 12" fill="none" xmlns="http://www.w3.org/2000/svg">
<path d="M9.48145 3.69967C9.75721 3.69987 9.96053 3.88644 10.0635 4.13131C10.3343 4.70005 10.499 5.32684 10.499 5.99947C10.499 8.48414 8.48454 10.498 6 10.4985V11.601C6 11.9579 5.56746 12.1358 5.31641 11.8823L3.61621 10.1655C3.46221 10.0095 3.46221 9.75801 3.61621 9.60201L5.31641 7.88521C5.56742 7.63138 6 7.80952 6 8.16646V9.2485C7.79154 9.24795 9.24902 7.79114 9.24902 5.99947C9.24896 5.5248 9.14286 5.07516 8.95703 4.66939C8.95703 4.66939 8.90395 4.55827 8.87891 4.46236C8.86691 4.41736 8.86133 4.36878 8.86133 4.31978C8.8614 3.97784 9.13949 3.69967 9.48145 3.69967Z" fill="black"/>
<path d="M6 0.400839C6.00004 0.0440431 6.43255 -0.133874 6.68359 0.119589L8.38379 1.83736C8.53766 1.99337 8.53775 2.24391 8.38379 2.39986L6.68359 4.11666C6.43258 4.37054 6 4.19237 6 3.83541V2.75045C4.20846 2.75099 2.75098 4.20878 2.75098 6.00045C2.75105 6.47512 2.85714 6.92476 3.04297 7.33053C3.04297 7.33053 3.09606 7.44164 3.12109 7.53756C3.13309 7.58256 3.13867 7.63114 3.13867 7.68014C3.13858 8.02206 2.8605 8.30025 2.51855 8.30025C2.24278 8.30005 2.03947 8.11348 1.93652 7.86861C1.66572 7.29987 1.50008 6.67308 1.5 6.00045C1.5 3.51578 3.51446 1.50099 6 1.50045V0.400839Z" fill="black"/>
</svg>
