<svg width="12" height="12" viewBox="0 0 12 12" fill="none" xmlns="http://www.w3.org/2000/svg">
<path fill-rule="evenodd" clip-rule="evenodd" d="M3.21387 1.10049C5.05987 0.966492 6.93613 0.967492 8.78613 1.10049C10.0311 1.19057 11 2.22557 11 3.47451V6.41592C11 6.79474 10.8762 7.16476 10.6484 7.46768L7.51758 10.2987C7.18958 10.7347 6.67783 10.994 6.13184 10.997C5.67312 11 6.18298 11.0009 6 11.0009C5.064 11.0009 4.11471 10.9663 3.17871 10.8983C1.94591 10.8082 1.0001 9.76405 1 8.52823V3.47256C1.00024 2.22383 1.9681 1.19056 3.21387 1.10049ZM8.71582 2.34756C6.92089 2.21958 5.10059 2.21761 3.30566 2.34561C2.71397 2.38874 2.25025 2.88287 2.25 3.47256V8.52725C2.25011 9.11615 2.70425 9.61025 3.28418 9.65225C4.50711 9.73924 5.70307 9.76832 7 9.73233V7.99991C7.00007 7.44796 7.44804 6.99991 8 6.99991H9.75V3.47256C9.74976 2.88377 9.29567 2.38955 8.71582 2.34756Z" fill="black"/>
</svg>
