<!-- This Source Code Form is subject to the terms of the Mozilla Public
   - License, v. 2.0. If a copy of the MPL was not distributed with this
   - file, You can obtain one at http://mozilla.org/MPL/2.0/. -->
<svg xmlns="http://www.w3.org/2000/svg" width="12" height="12" fill="context-fill" fill-opacity="context-fill-opacity" viewBox="0 0 12 12">
    <g clip-path="url(#clip0_8069_32461)">
        <path d="M4.5 4.375a.5.5 0 0 1 .5.5v.375h.375a.5.5 0 0 1 0 1H5v.375a.5.5 0 0 1-1 0V6.25h-.375a.5.5 0 0 1 0-1H4v-.375a.5.5 0 0 1 .5-.5M7.75 5a.75.75 0 1 1 0 1.5.75.75 0 0 1 0-1.5" />
        <path fill-rule="evenodd" d="M6 2.04c.912 0 1.766.046 2.552.12a2.37 2.37 0 0 1 2.064 1.724l1.305 4.703a1.906 1.906 0 0 1-.885 2.2 1.93 1.93 0 0 1-2.622-.7l-.002-.004-.55-.96a16.7 16.7 0 0 1-3.721.001l-.083.146-.47.814-.001.003a1.93 1.93 0 0 1-2.621.697 1.9 1.9 0 0 1-.88-2.216l1.3-4.687a2.37 2.37 0 0 1 2.068-1.726l.6-.048A28 28 0 0 1 6 2.04m0 1.25q-.979.002-1.859.064l-.573.046a1.12 1.12 0 0 0-.92.654l-.057.16L1.288 8.91l-.007.024c-.08.248 0 .527.207.699l.097.066a.68.68 0 0 0 .922-.242l.76-1.317a.62.62 0 0 1 .634-.304 15.6 15.6 0 0 0 4.213-.002l.094-.006c.218.003.423.12.534.315l.32.561.432.754a.68.68 0 0 0 .922.242.654.654 0 0 0 .306-.76l-.006-.02-1.304-4.701a1.12 1.12 0 0 0-.978-.814A26 26 0 0 0 6 3.29" clip-rule="evenodd" />
    </g>
</svg>
