<svg width="12" height="12" viewBox="0 0 12 12" fill="none" xmlns="http://www.w3.org/2000/svg">
<g clip-path="url(#clip0_13802_57469)">
<path fill-rule="evenodd" clip-rule="evenodd" d="M6 0C9.309 0 12 2.691 12 6C12 9.309 9.309 12 6 12C2.691 12 0 9.309 0 6C0 2.691 2.691 0 6 0ZM8.81738 4.20801C8.57338 3.96401 8.17662 3.96401 7.93262 4.20801L5.39844 6.75098L4.06738 5.41992C3.82339 5.17598 3.42661 5.17598 3.18262 5.41992C2.9388 5.66392 2.93872 6.06074 3.18262 6.30469L4.51367 7.63574C4.74755 7.87052 5.06081 7.99988 5.39355 8C5.72647 8 6.04043 7.87063 6.27441 7.63574L8.81738 5.09277C9.06132 4.84883 9.06121 4.45202 8.81738 4.20801Z" fill="black"/>
</g>
<defs>
<clipPath id="clip0_13802_57469">
<rect width="12" height="12" fill="white"/>
</clipPath>
</defs>
</svg>
