<svg width="12" height="12" viewBox="0 0 12 12" fill="none" xmlns="http://www.w3.org/2000/svg">
<g clip-path="url(#clip0_13802_57470)">
<path fill-rule="evenodd" clip-rule="evenodd" d="M6 0C9.309 0 12 2.691 12 6C12 9.309 9.309 12 6 12C2.691 12 0 9.309 0 6C0 2.691 2.691 0 6 0ZM6 7.5C5.58579 7.5 5.25 7.83579 5.25 8.25C5.25 8.66421 5.58579 9 6 9C6.41421 9 6.75 8.66421 6.75 8.25C6.75 7.83579 6.41421 7.5 6 7.5ZM6 3C5.65482 3 5.375 3.27982 5.375 3.625V5.6123C5.37516 5.95734 5.65492 6.2373 6 6.2373C6.34508 6.2373 6.62484 5.95734 6.625 5.6123V3.625C6.625 3.27982 6.34518 3 6 3Z" fill="black"/>
</g>
<defs>
<clipPath id="clip0_13802_57470">
<rect width="12" height="12" fill="white"/>
</clipPath>
</defs>
</svg>
