<!-- This Source Code Form is subject to the terms of the Mozilla Public
   - License, v. 2.0. If a copy of the MPL was not distributed with this
   - file, You can obtain one at http://mozilla.org/MPL/2.0/. -->
<svg xmlns="http://www.w3.org/2000/svg" width="12" height="12" fill="context-fill" fill-opacity="context-fill-opacity" viewBox="0 0 12 12">
    <g clip-path="url(#clip0_13802_57469)">
        <path fill-rule="evenodd" d="M6 0c3.309 0 6 2.691 6 6s-2.691 6-6 6-6-2.691-6-6 2.691-6 6-6m2.817 4.208a.626.626 0 0 0-.884 0L5.398 6.751 4.068 5.42a.626.626 0 0 0-.885.885l1.33 1.33c.235.236.548.365.88.365.333 0 .647-.13.881-.364l2.543-2.543a.626.626 0 0 0 0-.885" clip-rule="evenodd" />
    </g>
</svg>
