<!-- This Source Code Form is subject to the terms of the Mozilla Public
   - License, v. 2.0. If a copy of the MPL was not distributed with this
   - file, You can obtain one at http://mozilla.org/MPL/2.0/. -->
<svg xmlns="http://www.w3.org/2000/svg" width="12" height="12" fill="context-fill" fill-opacity="context-fill-opacity" viewBox="0 0 12 12">
    <path d="M9.367 7.603 6.84 3.264a.972.972 0 0 0-1.68 0L2.634 7.602a.972.972 0 0 0 .722 1.456 22 22 0 0 0 5.301-.001c.687-.084 1.058-.856.71-1.454" />
    <path d="M4.37 2.642c.778-1.148 2.482-1.148 3.26 0l.075.119 2.526 4.338V7.1c.698 1.2-.031 2.776-1.452 2.95h-.001a22.907 22.907 0 0 1-5.542.001h-.001A1.973 1.973 0 0 1 1.77 7.098l2.526-4.337zm2.47.622a.973.973 0 0 0-1.68 0L2.634 7.602a.972.972 0 0 0 .722 1.456c.598.073 1.247.127 1.938.15L6 9.219c.584 0 1.233-.024 1.936-.086l.72-.076c.688-.084 1.059-.856.71-1.454z" />
</svg>
