<!-- This Source Code Form is subject to the terms of the Mozilla Public
   - License, v. 2.0. If a copy of the MPL was not distributed with this
   - file, You can obtain one at http://mozilla.org/MPL/2.0/. -->
<svg xmlns="http://www.w3.org/2000/svg" width="16" height="16" fill="context-fill" fill-opacity="context-fill-opacity" viewBox="0 0 16 16">
    <g clip-path="url(#clip0_13802_57542)">
        <path d="M11.661 5.611a.62.62 0 0 1 .198 1.224c-.867.106-1.738.166-2.609.201v2.02l.852 3.185a.625.625 0 1 1-1.21.316l-.75-2.806a.152.152 0 0 0-.286 0l-.75 2.803a.624.624 0 1 1-1.209-.316l.851-3.175h.002V7.036a33 33 0 0 1-2.61-.2.621.621 0 0 1 .199-1.225c2.432.29 4.89.29 7.322 0M8 2.75a1.25 1.25 0 1 1 0 2.5 1.25 1.25 0 0 1 0-2.5" />
        <path fill-rule="evenodd" d="M8 0a8 8 0 1 1 0 16A8 8 0 0 1 8 0m0 1.5a6.5 6.5 0 1 0 0 13 6.5 6.5 0 0 0 0-13" clip-rule="evenodd" />
    </g>
</svg>
