<!-- This Source Code Form is subject to the terms of the Mozilla Public
   - License, v. 2.0. If a copy of the MPL was not distributed with this
   - file, You can obtain one at http://mozilla.org/MPL/2.0/. -->
<svg xmlns="http://www.w3.org/2000/svg" width="16" height="16" fill="context-fill" fill-opacity="context-fill-opacity" viewBox="0 0 16 16">
    <path d="M8.608 4.076a.75.75 0 0 1 .706.375L11.062 7.5H14V9h-3.372a.75.75 0 0 1-.65-.377L8.792 6.555l-1.91 4.895a.75.75 0 0 1-1.348.102L4.063 9H2V7.5h2.496l.1.007a.75.75 0 0 1 .55.369l.907 1.573 1.913-4.897.046-.097a.75.75 0 0 1 .596-.38z" />
</svg>
