<svg width="16" height="16" viewBox="0 0 16 16" fill="none" xmlns="http://www.w3.org/2000/svg">
<path d="M7.40137 5.08116C7.77733 3.69683 9.69623 3.57817 10.2383 4.90831L11.2988 7.51573L14.251 7.51475C14.6651 7.51475 15.0009 7.85063 15.001 8.26475C15.001 8.67897 14.6652 9.01475 14.251 9.01475H11.2988C10.7285 9.01469 10.2087 8.69217 9.95605 8.18467L9.90918 8.08018L8.84961 5.47374L7.38965 10.8663C7.011 12.2634 5.06943 12.3653 4.54395 11.0187L3.76367 9.01475H1.75C1.33579 9.01475 1 8.67897 1 8.26475C1.00011 7.85063 1.33585 7.51475 1.75 7.51475H3.76367C4.38322 7.51475 4.93619 7.89574 5.16113 8.46885L5.16211 8.47081L5.94141 10.4737L7.40137 5.08116Z" fill="black"/>
</svg>
