<svg width="16" height="16" viewBox="0 0 16 16" fill="none" xmlns="http://www.w3.org/2000/svg">
<path d="M1.5 13.5C1.5 13.7758 1.72421 14 2 14H14C14.2758 14 14.5 13.7758 14.5 13.5H16C16 14.6042 15.1042 15.5 14 15.5H2C0.895786 15.5 0 14.6042 0 13.5H1.5Z" fill="black"/>
<path fill-rule="evenodd" clip-rule="evenodd" d="M14 0C15.1042 0 16 0.895786 16 2V10C16 11.1042 15.1042 12 14 12H2C0.895786 12 0 11.1042 0 10V2C0 0.895786 0.895786 0 2 0H14ZM2 1.5C1.72421 1.5 1.5 1.72421 1.5 2V10C1.5 10.2758 1.72421 10.5 2 10.5H14C14.2758 10.5 14.5 10.2758 14.5 10V2C14.5 1.72421 14.2758 1.5 14 1.5H2Z" fill="black"/>
</svg>
