<!-- This Source Code Form is subject to the terms of the Mozilla Public
   - License, v. 2.0. If a copy of the MPL was not distributed with this
   - file, You can obtain one at http://mozilla.org/MPL/2.0/. -->
<svg xmlns="http://www.w3.org/2000/svg" width="16" height="16" fill="context-fill" fill-opacity="context-fill-opacity" viewBox="0 0 16 16">
    <g clip-path="url(#clip0_8069_32654)">
        <path fill-rule="evenodd" d="M4.415 1.226a28.8 28.8 0 0 1 5.846-.125 2 2 0 0 0-.925.518 2 2 0 0 0-.513.908 27 27 0 0 0-4.22.187A1.26 1.26 0 0 0 3.5 3.958v7.043h5.749c.965 0 1.75.785 1.75 1.75v.714c0 .215.09.41.25.553a.72.72 0 0 0 .56.181l.02-.002h.002a.743.743 0 0 0 .669-.73V6.42a2.47 2.47 0 0 0 1.5-.614v7.66c0 1.121-.84 2.073-1.953 2.214l-.03.004a40 40 0 0 1-10.032.001A2.266 2.266 0 0 1 0 13.448v-.698C0 11.785.785 11 1.75 11H2V3.958a2.76 2.76 0 0 1 2.415-2.732M1.75 12.5a.25.25 0 0 0-.25.25v.698c0 .38.29.701.673.75a38.7 38.7 0 0 0 7.534.206 2.2 2.2 0 0 1-.207-.94v-.714a.25.25 0 0 0-.25-.25z" clip-rule="evenodd" />
        <path d="M10 7.5A.75.75 0 0 1 10 9H6a.75.75 0 0 1 0-1.5zm-.612-3 1.198 1.2A.74.74 0 0 1 10 6H6a.75.75 0 0 1 0-1.5zm5.331-3.28a.75.75 0 0 1 1.061 1.06l-2.538 2.54c-.236.236-.55.366-.884.366s-.648-.13-.884-.366l-1.255-1.255a.75.75 0 1 1 1.061-1.06l1.078 1.077z" />
    </g>
</svg>
