<svg width="16" height="16" viewBox="0 0 16 16" fill="none" xmlns="http://www.w3.org/2000/svg">
<path d="M9.75 9C10.164 9 10.5 9.336 10.5 9.75C10.5 10.164 10.164 10.5 9.75 10.5H6.25C5.836 10.5 5.5 10.164 5.5 9.75C5.5 9.336 5.836 9 6.25 9H9.75Z" fill="black"/>
<path fill-rule="evenodd" clip-rule="evenodd" d="M8 2C9.97408 2 11.8554 2.06397 13.6328 2.17285C14.6955 2.23916 15.4999 3.12544 15.5 4.1709V5.25C15.5 5.98948 15.097 6.63341 14.5 6.97949V12.0205C14.5 13.4026 13.4668 14.5858 12.0859 14.7529C10.5775 14.936 9.20227 15 8 15C6.52555 15 5.16686 14.903 3.94531 14.7568C2.56251 14.592 1.5 13.4347 1.5 12.0234V6.97949C0.902951 6.63341 0.5 5.98948 0.5 5.25V4.17188C0.500065 3.11768 1.32383 2.2351 2.37988 2.1709C4.35155 2.05096 6.22863 2 8 2ZM3 7.25V12.0234C3 12.6562 3.47589 13.1904 4.12305 13.2676L5.02344 13.3633C5.94782 13.4481 6.9429 13.5 8 13.5C9.14955 13.5 10.464 13.4386 11.9053 13.2637C12.5242 13.1886 13 12.6523 13 12.0205V7.25H3ZM8 3.5C6.25755 3.5 4.41082 3.55091 2.4707 3.66895C2.21084 3.68474 2.00007 3.90618 2 4.17188V5.25C2 5.52579 2.22421 5.75 2.5 5.75H13.5C13.7758 5.75 14 5.52579 14 5.25V4.1709C13.9999 3.89851 13.7932 3.6857 13.54 3.66992C11.7918 3.56285 9.9415 3.5 8 3.5Z" fill="black"/>
</svg>
