<!-- This Source Code Form is subject to the terms of the Mozilla Public
   - License, v. 2.0. If a copy of the MPL was not distributed with this
   - file, You can obtain one at http://mozilla.org/MPL/2.0/. -->
<svg xmlns="http://www.w3.org/2000/svg" width="16" height="16" fill="context-fill" fill-opacity="context-fill-opacity" viewBox="0 0 16 16">
    <path d="M13.108 11.013c.406-.086.8.188.877.595a.75.75 0 0 1-.594.877A28.6 28.6 0 0 1 8 13c-1.806 0-3.62-.174-5.393-.514a.75.75 0 0 1-.595-.878.74.74 0 0 1 .878-.595c3.357.645 6.852.645 10.217 0m-.388-7.793a.75.75 0 0 1 1.06 1.06L9.236 8.824c-.33.331-.77.513-1.237.513s-.907-.182-1.237-.513L2.219 4.28a.75.75 0 0 1 1.06-1.06l4.542 4.543a.25.25 0 0 0 .355 0z" />
</svg>
