<svg width="16" height="16" viewBox="0 0 16 16" fill="none" xmlns="http://www.w3.org/2000/svg">
<path d="M7.48999 1.99976C9.2356 1.99976 10.818 2.6893 11.9851 3.80737L13.1462 2.64722C13.4612 2.33232 13.9995 2.55593 13.9998 3.00073V6.49976C13.9998 6.77576 13.7758 6.99976 13.4998 6.99976H10.0007C9.55489 6.99956 9.33227 6.46118 9.64722 6.14624L10.9255 4.86694C10.0292 4.01925 8.8202 3.49976 7.48999 3.49976C4.72829 3.49976 2.49012 5.73808 2.48999 8.49976C2.48999 11.2615 4.7282 13.4998 7.48999 13.4998C9.72105 13.4998 11.6128 12.0381 12.2556 10.0183C12.3813 9.62395 12.8026 9.40575 13.197 9.53101C13.5917 9.6566 13.8098 10.0787 13.6843 10.4734C12.8491 13.0975 10.3928 14.9998 7.48999 14.9998C3.89978 14.9998 0.98999 12.09 0.98999 8.49976C0.990122 4.90965 3.89986 1.99976 7.48999 1.99976Z" fill="black"/>
</svg>
