<svg width="16" height="16" viewBox="0 0 16 16" fill="none" xmlns="http://www.w3.org/2000/svg">
<path d="M15.5012 3C15.7771 3.00012 16.0012 3.22407 16.0012 3.5V7.29297C16.0012 7.73793 15.4618 7.96233 15.1468 7.64746L13.7805 6.28125L10.7678 9.29492C9.72985 10.3339 7.91717 10.3339 6.87917 9.29492L5.7073 8.12305C5.2343 7.65005 4.41174 7.65005 3.93874 8.12305L1.28054 10.7803C1.13465 10.926 0.942033 10.9999 0.750268 11C0.55831 11 0.365982 10.9272 0.219994 10.7803C-0.0730059 10.4873 -0.0730059 10.0118 0.219994 9.71875L2.8782 7.0625C3.9162 6.0235 5.72887 6.0235 6.76687 7.0625L7.93874 8.23438C8.41174 8.70735 9.2343 8.70735 9.7073 8.23438L12.72 5.21973L11.3538 3.85352C11.0393 3.53846 11.2624 3 11.7083 3H15.5012Z" fill="black"/>
</svg>
