<svg width="16" height="16" viewBox="0 0 16 16" fill="none" xmlns="http://www.w3.org/2000/svg">
<path d="M8.51074 1.99976C12.1005 2.00014 15.0106 4.90989 15.0107 8.49976C15.0107 12.0897 12.1006 14.9994 8.51074 14.9998C5.60784 14.9998 3.15064 13.0975 2.31543 10.4734C2.18992 10.0787 2.40811 9.65663 2.80273 9.53101C3.19731 9.4056 3.61947 9.6238 3.74512 10.0183C4.38796 12.0381 6.27971 13.4998 8.51074 13.4998C11.2722 13.4994 13.5107 11.2613 13.5107 8.49976C13.5106 5.73832 11.2721 3.50014 8.51074 3.49976C7.1801 3.49976 5.9706 4.01974 5.07422 4.86792L6.35254 6.14624C6.66753 6.46123 6.44501 6.99974 5.99902 6.99976H2.5C2.224 6.99976 2 6.77576 2 6.49976V3.00073C2.00022 2.55598 2.53856 2.33248 2.85352 2.64722L4.01367 3.80737C5.18105 2.68901 6.76482 1.99976 8.51074 1.99976Z" fill="black"/>
</svg>
