<!-- This Source Code Form is subject to the terms of the Mozilla Public
   - License, v. 2.0. If a copy of the MPL was not distributed with this
   - file, You can obtain one at http://mozilla.org/MPL/2.0/. -->
<svg xmlns="http://www.w3.org/2000/svg" width="16" height="16" fill="context-fill" fill-opacity="context-fill-opacity" viewBox="0 0 16 16">
    <path d="M9.757 1.825a.755.755 0 0 1 .861-.63C13.701 1.928 16 4.694 16 8a6.995 6.995 0 0 1-5.379 6.803.752.752 0 1 1-.231-1.488A5.48 5.48 0 0 0 14.5 8a5.48 5.48 0 0 0-4.114-5.313.754.754 0 0 1-.63-.862m-4.86.333C5.756.694 8 1.304 8 3.003v9.994c0 1.699-2.243 2.309-3.104.844l-1.68-2.86c-.122.004-.269.02-.384.02-.468 0-.91-.025-1.318-.065A1.67 1.67 0 0 1 0 9.272V6.726c0-.841.627-1.571 1.464-1.657C1.967 5.018 2.427 5 2.832 5c.134 0 .259.008.389.012z" />
    <path d="M10.066 4.403a3.751 3.751 0 0 1 0 7.192c-.158.047-.316-.082-.316-.246v-6.7c0-.163.16-.293.316-.246" />
</svg>
