<!-- This Source Code Form is subject to the terms of the Mozilla Public
   - License, v. 2.0. If a copy of the MPL was not distributed with this
   - file, You can obtain one at http://mozilla.org/MPL/2.0/. -->
<svg xmlns="http://www.w3.org/2000/svg" width="16" height="16" fill="context-fill" fill-opacity="context-fill-opacity" viewBox="0 0 16 16">
    <path d="M4.896 2.16C5.756.693 8 1.303 8 3.002v9.994c0 1.699-2.243 2.309-3.104.844l-1.68-2.86c-.122.004-.269.02-.384.02-.468 0-.91-.025-1.318-.065A1.67 1.67 0 0 1 0 9.272V6.726c0-.841.627-1.571 1.464-1.658.503-.05.963-.068 1.368-.068.134 0 .259.008.389.012zm9.824 2.809a.75.75 0 0 1 1.061 1.06L13.811 8l1.97 1.97a.75.75 0 1 1-1.061 1.06l-1.97-1.97-1.969 1.97A.75.75 0 1 1 9.72 9.97L11.69 8 9.72 6.03a.75.75 0 0 1 1.061-1.06l1.969 1.969z" />
</svg>
