<!-- This Source Code Form is subject to the terms of the Mozilla Public
   - License, v. 2.0. If a copy of the MPL was not distributed with this
   - file, You can obtain one at http://mozilla.org/MPL/2.0/. -->
   <svg width="16" height="16" fill="context-fill" fill-opacity="context-fill-opacity" xmlns="http://www.w3.org/2000/svg"><path fill-rule="evenodd" clip-rule="evenodd" d="M8.5 9a3 3 0 0 1 3 3v2a1 1 0 0 1-1 1H1a1 1 0 0 1-1-1v-2a3 3 0 0 1 3-3h5.5zM3 10.5c-.827 0-1.5.673-1.5 1.5v1.5H10V12c0-.827-.673-1.5-1.5-1.5H3z" fill="#000"/><path d="m16 4.666-3.197 3.198a.749.749 0 0 1-1.06 0L9.628 5.751l1.061-1.06 1.583 1.582 2.667-2.668L16 4.666z" /><path fill-rule="evenodd" clip-rule="evenodd" d="M5.75 1.75a3 3 0 1 1 0 6 3 3 0 0 1 0-6zm0 1.5c-.827 0-1.5.673-1.5 1.5s.673 1.5 1.5 1.5 1.5-.673 1.5-1.5-.673-1.5-1.5-1.5z" /></svg>