<svg width="16" height="16" viewBox="0 0 16 16" fill="none" xmlns="http://www.w3.org/2000/svg">
<path fill-rule="evenodd" clip-rule="evenodd" d="M6 8.50098C7.17586 8.50098 8.2817 8.55836 9.30859 8.65234C10.8405 8.79234 11.9999 10.0988 12 11.6367V12.7617C12 13.7736 11.2402 14.6338 10.2354 14.752C8.67735 14.935 7.253 15 6 15C4.45208 15 3.02516 14.901 1.74121 14.749C0.743211 14.631 0 13.7696 0 12.7646V11.6387C0.000167367 10.0878 1.18753 8.78743 2.73242 8.64844C3.91628 8.54046 5.01111 8.50098 6 8.50098ZM6 9.99805C4.95807 9.99805 3.90412 10.0457 2.86719 10.1396C2.10029 10.2096 1.50016 10.8678 1.5 11.6377V12.7637C1.5 13.0167 1.67901 13.2298 1.91699 13.2578C3.26699 13.4178 4.641 13.499 6 13.499C7.35187 13.499 8.7177 13.4187 10.0596 13.2607C10.3066 13.2317 10.5 13.0117 10.5 12.7607V11.6357C10.4999 10.8679 9.91579 10.2125 9.17188 10.1445C8.3844 10.0725 7.58733 10.0271 6.79297 10.0088L6 9.99805Z" fill="black"/>
<path d="M14.7188 4.03516C15.0118 3.74216 15.4873 3.74216 15.7803 4.03516C16.073 4.32808 16.0729 4.80275 15.7803 5.0957L13.2422 7.63379C13.0063 7.8697 12.6923 7.9999 12.3584 8C12.0244 8 11.7096 7.86979 11.4736 7.63379L10.2188 6.37891C9.92604 6.086 9.92612 5.61132 10.2188 5.31836C10.5118 5.02536 10.9873 5.02536 11.2803 5.31836L12.3584 6.39648L14.7188 4.03516Z" fill="black"/>
<path fill-rule="evenodd" clip-rule="evenodd" d="M6 1C7.726 1 9.125 2.399 9.125 4.125C9.125 5.851 7.726 7.25 6 7.25C4.274 7.25 2.875 5.851 2.875 4.125C2.875 2.399 4.274 1 6 1ZM6 2.5C5.104 2.5 4.375 3.229 4.375 4.125C4.375 5.021 5.104 5.75 6 5.75C6.896 5.75 7.625 5.021 7.625 4.125C7.625 3.229 6.896 2.5 6 2.5Z" fill="black"/>
</svg>
