<!-- This Source Code Form is subject to the terms of the Mozilla Public
   - License, v. 2.0. If a copy of the MPL was not distributed with this
   - file, You can obtain one at http://mozilla.org/MPL/2.0/. -->
<svg xmlns="http://www.w3.org/2000/svg" width="16" height="16" fill="context-fill" fill-opacity="context-fill-opacity" viewBox="0 0 16 16">
    <path fill-rule="evenodd" d="M.22 1.22a.75.75 0 0 1 1.06 0l1.113 1.11L3.46 3.395l-.002.001L6 5.94v-.002l3.518 3.517-.002.001 3.106 3.107.002-.002 1.06 1.062h-.001l1.098 1.098a.75.75 0 0 1-1.061 1.06l-1.191-1.191c-1.755 1.21-4.014 1.74-6.393 1.2a7.9 7.9 0 0 1-5.549-4.755c-1.061-2.684-.609-5.452.838-7.549L.22 2.28a.75.75 0 0 1 0-1.06m2.292 3.352a6.4 6.4 0 0 0-.887 4.702c.606 3.062 3.454 5.317 6.574 5.223a6.45 6.45 0 0 0 3.248-.99l-3.282-3.281-1.203.688A.643.643 0 0 1 6 10.356V8.061z" clip-rule="evenodd" />
    <path d="M8.852.045C12.864.47 16 3.876 16 8a7.95 7.95 0 0 1-1.512 4.656l-1.07-1.07A6.46 6.46 0 0 0 14.5 8c0-3.365-2.571-6.14-5.851-6.468A.736.736 0 0 1 8 .792c0-.454.4-.795.852-.747m-1.89 5.041 4.123 2.356a.642.642 0 0 1 0 1.116l-.442.253-3.741-3.74c.02.008.041.004.06.015M5.5 0a.5.5 0 0 1 .5.5v3.499c0 .05-.027.085-.04.129L1.872.04c.044-.012.08-.04.13-.04z" />
</svg>
