<!-- This Source Code Form is subject to the terms of the Mozilla Public
   - License, v. 2.0. If a copy of the MPL was not distributed with this
   - file, You can obtain one at http://mozilla.org/MPL/2.0/. -->
<svg xmlns="http://www.w3.org/2000/svg" width="16" height="16" fill="context-fill" fill-opacity="context-fill-opacity" viewBox="0 0 16 16"><path d="M6.53 0c.26 0 .47.21.47.47v3.576a.47.47 0 0 1-.804.333l-1.36-1.36A5.99 5.99 0 0 0 2 8.11c0 3.31 2.691 6 6 6s6-2.69 6-6c0-2.968-2.167-5.432-5-5.91V.684c3.663.49 6.5 3.63 6.5 7.425 0 4.136-3.364 7.5-7.5 7.5S.5 12.245.5 8.11a7.48 7.48 0 0 1 3.254-6.171L2.62.805A.471.471 0 0 1 2.954 0z"/><path d="M6 5.644c0-.494.533-.803.962-.558l4.123 2.356a.642.642 0 0 1 0 1.116l-4.123 2.356A.643.643 0 0 1 6 10.356z"/></svg>