<!-- This Source Code Form is subject to the terms of the Mozilla Public
   - License, v. 2.0. If a copy of the MPL was not distributed with this
   - file, You can obtain one at http://mozilla.org/MPL/2.0/. -->
<svg xmlns="http://www.w3.org/2000/svg" width="16" height="16" fill="context-fill" fill-opacity="context-fill-opacity" viewBox="0 0 16 16">
    <path d="m15.001 14.94-1.06 1.061-1.71-1.709A7.44 7.44 0 0 1 8 15.609c-4.136 0-7.5-3.364-7.5-7.5 0-1.57.493-3.022 1.326-4.222L0 2.06 1.06 1zM2.909 4.97A5.86 5.86 0 0 0 2 8.11c0 3.308 2.691 6 6 6a5.95 5.95 0 0 0 3.148-.901l-2.983-2.983-1.203.688A.643.643 0 0 1 6 10.355V8.061zM9 .684c3.663.49 6.5 3.63 6.5 7.425 0 1.573-.49 3.034-1.32 4.24l-1.086-1.085c.57-.918.906-1.997.906-3.155 0-2.967-2.167-5.43-5-5.909zM6.9 5.07c.02.009.042.004.062.016l4.123 2.356a.642.642 0 0 1 0 1.116l-.444.254zM6.53 0c.26 0 .47.21.47.47v3.576a.466.466 0 0 1-.776.348L2.605.775A.467.467 0 0 1 2.955 0z" />
</svg>
