<!-- This Source Code Form is subject to the terms of the Mozilla Public
   - License, v. 2.0. If a copy of the MPL was not distributed with this
   - file, You can obtain one at http://mozilla.org/MPL/2.0/. -->
<svg xmlns="http://www.w3.org/2000/svg" width="16" height="16" fill="context-fill" fill-opacity="context-fill-opacity" viewBox="0 0 16 16">
    <path d="M5.5 0a.5.5 0 0 1 .5.5v3.499a.5.5 0 0 1-.854.354L3.818 3.024a6.51 6.51 0 0 0-2.193 6.25c.605 3.062 3.454 5.318 6.574 5.223A6.51 6.51 0 0 0 14.499 8a6.51 6.51 0 0 0-5.85-6.468.737.737 0 0 1-.65-.74c0-.454.4-.795.852-.747C12.863.47 16 3.876 16 8c0 5.019-4.648 8.974-9.864 7.788a7.9 7.9 0 0 1-5.55-4.754C-.755 7.64.306 4.094 2.756 1.961L1.647.854A.5.5 0 0 1 2.001 0z" />
    <path d="M6 5.644c0-.494.533-.803.962-.558l4.123 2.356a.642.642 0 0 1 0 1.116l-4.123 2.356A.643.643 0 0 1 6 10.356z" />
</svg>
