<svg width="16" height="16" viewBox="0 0 16 16" fill="none" xmlns="http://www.w3.org/2000/svg">
<path d="M7.99902 9C9.01702 9 9.9502 9.07643 10.7832 9.19043C11.419 9.27747 11.9443 9.65972 12.2393 10.1865C12.4132 10.4964 12.3721 10.8967 12.1562 11.1787C11.1982 12.4337 9.697 13.25 8 13.25L7.99902 13.251C6.30203 13.251 4.80077 12.4337 3.84277 11.1797C3.6281 10.8979 3.58714 10.4983 3.75977 10.1885C4.05373 9.66055 4.57996 9.2775 5.21484 9.19043C6.04884 9.07643 6.98103 9 7.99902 9Z" fill="black"/>
<path d="M8 3.75C9.10499 3.75 9.99999 4.64599 10 5.75098C10 7.02898 8.8008 8.02664 7.4668 7.68164C6.79403 7.50757 6.24338 6.95698 6.06934 6.2832C5.72434 4.94822 6.72202 3.75002 8 3.75Z" fill="black"/>
<path fill-rule="evenodd" clip-rule="evenodd" d="M8 0C12.418 0 16 3.582 16 8C16 12.418 12.418 16 8 16C3.582 16 0 12.418 0 8C0 3.582 3.582 0 8 0ZM8 1.5C4.416 1.5 1.5 4.416 1.5 8C1.5 11.584 4.416 14.5 8 14.5C11.584 14.5 14.5 11.584 14.5 8C14.5 4.416 11.584 1.5 8 1.5Z" fill="black"/>
</svg>
