<!-- This Source Code Form is subject to the terms of the Mozilla Public
   - License, v. 2.0. If a copy of the MPL was not distributed with this
   - file, You can obtain one at http://mozilla.org/MPL/2.0/. -->
<svg xmlns="http://www.w3.org/2000/svg" width="16" height="16" fill="context-fill" fill-opacity="context-fill-opacity" viewBox="0 0 16 16"><path d="M11 10a2 2 0 0 1 1.667.898A5.5 5.5 0 0 1 8 13.5a5.5 5.5 0 0 1-4.667-2.602A2 2 0 0 1 5 10zM8 4a2.376 2.376 0 1 1-.632 4.669 2.35 2.35 0 0 1-1.661-1.661A2.38 2.38 0 0 1 8 4"/><path fill-rule="evenodd" d="M8 0a8 8 0 1 1 0 16A8 8 0 0 1 8 0m0 1.5A6.51 6.51 0 0 0 1.5 8c0 3.584 2.916 6.5 6.5 6.5s6.5-2.916 6.5-6.5S11.584 1.5 8 1.5" clip-rule="evenodd"/></svg>