<svg width="16" height="16" viewBox="0 0 16 16" fill="none" xmlns="http://www.w3.org/2000/svg">
<path d="M7.05417 3.46792C7.34713 3.17507 7.82174 3.1751 8.11471 3.46792C8.40768 3.76088 8.40761 4.23545 8.11471 4.52846L5.14401 7.50014H14.2505C14.6644 7.50041 15.0005 7.83609 15.0005 8.25014C15.0004 8.66411 14.6644 8.99988 14.2505 9.00014H5.14596L8.11471 11.9689C8.40771 12.2619 8.40771 12.7374 8.11471 13.0304C7.96887 13.1771 7.77711 13.25 7.58542 13.2501L7.58444 13.2492C7.39244 13.2492 7.20017 13.1745 7.05417 13.0285L3.5112 9.48549C2.82931 8.80248 2.82924 7.69285 3.5112 7.01088L7.05417 3.46792Z" fill="black"/>
</svg>
