<svg width="16" height="16" viewBox="0 0 16 16" fill="none" xmlns="http://www.w3.org/2000/svg">
<path d="M6.05469 2.21902C6.34769 1.92602 6.82321 1.92602 7.11621 2.21902C7.409 2.51191 7.40884 2.98657 7.11621 3.27956L3.14453 7.25027H14.25C14.6642 7.25033 15 7.58609 15 8.00027C14.9999 8.41434 14.6641 8.7502 14.25 8.75027H3.14746L7.11621 12.719C7.409 13.0119 7.40884 13.4866 7.11621 13.7796C6.97021 13.9266 6.77794 14.0003 6.58594 14.0003C6.39399 14.0003 6.20164 13.9275 6.05566 13.7815L1.5127 9.23757C1.18199 8.90667 1.00006 8.467 1 8.00027C1 7.53332 1.18177 7.09295 1.5127 6.76296L6.05469 2.21902Z" fill="black"/>
</svg>
