<!-- This Source Code Form is subject to the terms of the Mozilla Public
   - License, v. 2.0. If a copy of the MPL was not distributed with this
   - file, You can obtain one at http://mozilla.org/MPL/2.0/. -->
<svg xmlns="http://www.w3.org/2000/svg" width="16" height="16" fill="context-fill" fill-opacity="context-fill-opacity" viewBox="0 0 16 16">
    <path fill-rule="evenodd" d="M4.411 4c.694 0 1.31.487 1.464 1.158.193.852.312 1.72.355 2.592h3.54c.043-.871.162-1.74.355-2.59A1.51 1.51 0 0 1 11.589 4h.959c1.094 0 2.027.782 2.219 1.861q.143.814.196 1.639H15a1 1 0 0 1 0 2h-.037q-.054.834-.2 1.658A2.24 2.24 0 0 1 12.548 13h-.96a1.496 1.496 0 0 1-1.465-1.175 15 15 0 0 1-.352-2.575H6.23a15 15 0 0 1-.352 2.576A1.5 1.5 0 0 1 4.412 13h-.959a2.24 2.24 0 0 1-2.217-1.842A15 15 0 0 1 1.037 9.5H1a1 1 0 0 1 0-2h.037q.054-.825.196-1.639A2.25 2.25 0 0 1 3.453 4zm-.959 1.5a.75.75 0 0 0-.742.623 13.6 13.6 0 0 0 .003 4.772c.062.345.38.605.74.605h.961a13.6 13.6 0 0 0-.002-6.009zm8.137 0a13.5 13.5 0 0 0-.004 5.995l.003.005h.959c.36 0 .68-.261.74-.605a13.6 13.6 0 0 0 .003-4.772.75.75 0 0 0-.742-.623z" clip-rule="evenodd" />
</svg>
