<!-- This Source Code Form is subject to the terms of the Mozilla Public
   - License, v. 2.0. If a copy of the MPL was not distributed with this
   - file, You can obtain one at http://mozilla.org/MPL/2.0/. -->
<svg xmlns="http://www.w3.org/2000/svg" width="16" height="16" fill="context-fill" fill-opacity="context-fill-opacity" viewBox="0 0 16 16">
    <g clip-path="url(#clip0_13802_57432)">
        <path d="M8 0c4.374 0 7.934 3.53 7.994 7.89a5.5 5.5 0 0 0-1.549-.692C14.048 3.992 11.312 1.5 8 1.5c-1.522 0-2.921.53-4.03 1.41l5.435 5.433c-.38.329-.716.707-.994 1.128l-5.5-5.501A6.46 6.46 0 0 0 1.5 8c0 3.543 2.85 6.428 6.378 6.494.209.535.495 1.03.85 1.469q-.36.035-.728.037c-4.411 0-8-3.589-8-8s3.589-8 8-8m7.25 14.5a.75.75 0 0 1 0 1.5h-4.5a.75.75 0 0 1 0-1.5z" />
        <path d="M13 8a.75.75 0 0 1 .75.75v2.249h1.358V11c.35 0 .524.423.277.67l-2.106 2.106a.394.394 0 0 1-.555 0l-2.107-2.107a.392.392 0 0 1 .277-.67h1.356V8.75A.75.75 0 0 1 13 8" />
    </g>
</svg>
