<!-- This Source Code Form is subject to the terms of the Mozilla Public
   - License, v. 2.0. If a copy of the MPL was not distributed with this
   - file, You can obtain one at http://mozilla.org/MPL/2.0/. -->
   <svg width="16" height="16" fill="context-fill" fill-opacity="context-fill-opacity" xmlns="http://www.w3.org/2000/svg"><g clip-path="url(#a)"><path fill-rule="evenodd" clip-rule="evenodd" d="M8 0a8 8 0 1 1 0 16A8 8 0 0 1 8 0zM2.905 3.966A6.5 6.5 0 0 0 8 14.5a6.469 6.469 0 0 0 4.033-1.406L2.905 3.966zM8 1.5a6.47 6.47 0 0 0-4.034 1.405l9.128 9.128A6.469 6.469 0 0 0 14.5 8 6.5 6.5 0 0 0 8 1.5z"/></g><defs><clipPath id="a"><path fill="#fff" d="M0 0h16v16H0z"/></clipPath></defs></svg>