<!-- This Source Code Form is subject to the terms of the Mozilla Public
   - License, v. 2.0. If a copy of the MPL was not distributed with this
   - file, You can obtain one at http://mozilla.org/MPL/2.0/. -->
<svg xmlns="http://www.w3.org/2000/svg" width="16" height="16" fill="context-fill" fill-opacity="context-fill-opacity" viewBox="0 0 16 16">
    <path fill-rule="evenodd" d="M6.465 1.48c.643-1.314 2.58-1.268 3.137.13h.001l1.184 2.974 3.598.235.134.013c1.364.192 2.031 1.92.957 2.939q-.33.314-.706.63a16 16 0 0 1-2.24 1.575l.855 3.351c.383 1.5-1.219 2.649-2.522 1.92a18 18 0 0 1-2.858-1.988 18 18 0 0 1-1.024.809l-.44.311a18 18 0 0 1-1.394.867c-1.303.73-2.906-.419-2.523-1.918l.852-3.352A16 16 0 0 1 .533 7.772c-1.11-1.053-.362-2.86 1.09-2.953l3.598-.235 1.185-2.973zm1.745.685a.22.22 0 0 0-.41 0L6.44 5.58a.75.75 0 0 1-.648.471l-4.072.265a.22.22 0 0 0-.2.15.2.2 0 0 0-.012.12c.006.029.02.061.057.097l.31.284q.159.144.33.287c.9.758 1.77 1.302 2.495 1.689a.75.75 0 0 1 .373.846l-.996 3.909a.2.2 0 0 0 .003.13.2.2 0 0 0 .074.096.23.23 0 0 0 .259.014c.414-.233.843-.496 1.279-.795l.403-.286q.588-.432 1.073-.854a1.27 1.27 0 0 1 1.58-.074l.094.074.335.284q.345.284.737.57l.402.285q.655.449 1.28.796c.096.054.187.04.26-.014a.2.2 0 0 0 .073-.095.2.2 0 0 0 .003-.13l-.996-3.91a.75.75 0 0 1 .373-.846 14.4 14.4 0 0 0 3.135-2.26l.04-.052a.2.2 0 0 0 .017-.045.2.2 0 0 0-.012-.12.22.22 0 0 0-.2-.15l-4.072-.265a.75.75 0 0 1-.648-.47L8.445 2.757z" clip-rule="evenodd" />
</svg>
