<!-- This Source Code Form is subject to the terms of the Mozilla Public
   - License, v. 2.0. If a copy of the MPL was not distributed with this
   - file, You can obtain one at http://mozilla.org/MPL/2.0/. -->
<svg width="16" height="16" fill="context-fill" fill-opacity="context-fill-opacity" xmlns="http://www.w3.org/2000/svg"><path d="M2.5 13a.5.5 0 0 0 .5.5h10a.5.5 0 0 0 .5-.5v-2H15v2a2 2 0 0 1-2 2H3a2 2 0 0 1-2-2v-2h1.5v2z"/><path fill-rule="evenodd" clip-rule="evenodd" d="M6.658.83C7.22-.316 8.91-.274 9.395.945l.785 1.975 2.123.138.125.013c1.26.181 1.748 1.798.736 2.638l-1.636 1.357.526 2.06c.333 1.312-1.107 2.365-2.255 1.639l-1.8-1.137-1.796 1.137v-.001c-1.147.725-2.59-.323-2.255-1.638l.526-2.06L2.839 5.71l-.094-.084c-.915-.886-.359-2.483.953-2.568l2.122-.138.787-1.975.051-.114zm.381 3.085a.75.75 0 0 1-.648.47l-2.595.169 2 1.662a.75.75 0 0 1 .248.762l-.642 2.517L7.6 8.108l.094-.051a.75.75 0 0 1 .706.05l2.2 1.39-.642-2.52a.75.75 0 0 1 .248-.761l2-1.661-2.596-.168a.75.75 0 0 1-.647-.47L8 1.5l-.96 2.415z"/></svg>