<!-- This Source Code Form is subject to the terms of the Mozilla Public
   - License, v. 2.0. If a copy of the MPL was not distributed with this
   - file, You can obtain one at http://mozilla.org/MPL/2.0/. -->
<svg xmlns="http://www.w3.org/2000/svg" width="16" height="16" fill="context-fill" fill-opacity="context-fill-opacity" viewBox="0 0 16 16">
    <path d="M6.374 1.603c.585-1.47 2.667-1.47 3.252 0l1.225 3.078 3.306.215.145.014c1.472.21 2.04 2.098.86 3.077l-2.55 2.117.819 3.21v.001c.39 1.533-1.293 2.756-2.631 1.91L8 13.457l-2.8 1.77c-1.337.844-3.023-.377-2.63-1.912l.817-3.21L.838 7.988C-.38 6.977.264 4.998 1.842 4.895l3.306-.214zm1.858.554a.25.25 0 0 0-.423-.07l-.041.07-1.402 3.52a.75.75 0 0 1-.648.47l-3.778.245a.25.25 0 0 0-.144.442L4.71 9.253a.75.75 0 0 1 .248.763l-.935 3.67a.25.25 0 0 0 .376.272l3.2-2.023.095-.051a.75.75 0 0 1 .707.05l3.2 2.024.074.032a.25.25 0 0 0 .302-.305l-.935-3.67a.75.75 0 0 1 .248-.762l2.914-2.419.053-.06a.252.252 0 0 0-.118-.364l-.078-.017-3.78-.246a.75.75 0 0 1-.648-.47z" />
</svg>
