<svg width="16" height="16" viewBox="0 0 16 16" fill="none" xmlns="http://www.w3.org/2000/svg">
<path d="M2.5 13.0001C2.50008 13.2759 2.72426 13.5001 3 13.5001H13C13.2757 13.5001 13.4999 13.2759 13.5 13.0001V11.0001H15V13.0001C14.9999 14.1043 14.1042 15.0001 13 15.0001H3C1.89583 15.0001 1.00008 14.1043 1 13.0001V11.0001H2.5V13.0001Z" fill="black"/>
<path fill-rule="evenodd" clip-rule="evenodd" d="M6.6582 0.83022C7.21929 -0.315893 8.9091 -0.274189 9.39453 0.945454L10.1797 2.92006L12.3027 3.05776L12.4277 3.07143C13.6877 3.25205 14.1764 4.86888 13.1641 5.70913L13.1631 5.70815L11.5283 7.06557L12.0537 9.12612C12.3871 10.4384 10.9473 11.4905 9.79883 10.7648L7.99902 9.62807L6.20312 10.7648L6.20215 10.7638C5.05559 11.4891 3.61268 10.441 3.94824 9.12612L4.47363 7.06655L2.83887 5.70913L2.74512 5.62514C1.83036 4.7386 2.38609 3.14232 3.69824 3.05678L5.82031 2.91909L6.60742 0.944477L6.6582 0.83022ZM7.03906 3.91518C6.93196 4.18398 6.67936 4.36708 6.39062 4.38588L3.7959 4.55385L3.79688 4.55483L5.79688 6.21596C6.01913 6.40084 6.11513 6.69748 6.04395 6.97768L5.40234 9.49526L7.59961 8.10756L7.69434 8.05678C7.92108 7.95558 8.18647 7.97255 8.40039 8.10756L10.5996 9.49623L9.95801 6.97768C9.8868 6.69737 9.98361 6.40083 10.2061 6.21596L12.2061 4.55483L9.61035 4.38686C9.32174 4.36801 9.07 4.18483 8.96289 3.91616L8 1.50014L7.03906 3.91518Z" fill="black"/>
</svg>
