<!-- This Source Code Form is subject to the terms of the Mozilla Public
   - License, v. 2.0. If a copy of the MPL was not distributed with this
   - file, You can obtain one at http://mozilla.org/MPL/2.0/. -->
<svg xmlns="http://www.w3.org/2000/svg" width="16" height="16" fill="context-fill" fill-opacity="context-fill-opacity" viewBox="0 0 16 16">
    <path fill-rule="evenodd" d="M8 0c.624 0 1.205.037 1.735.095 1.026.111 1.765.989 1.765 1.988v1.03q.627.042 1.277.1l.746.072.258.04A2.76 2.76 0 0 1 16 6.024v5.95c0 1.4-1.049 2.59-2.454 2.737a53.6 53.6 0 0 1-11.068.003A2.76 2.76 0 0 1 0 11.975v-5.95c0-1.4 1.049-2.59 2.454-2.737q.986-.102 2.046-.173v-1.03A2.01 2.01 0 0 1 6.292.091 16 16 0 0 1 8 0m0 4.5a52 52 0 0 0-3 .087v8.825q1.588.09 3 .088c1.041 0 2.043-.033 3-.088V4.587A52 52 0 0 0 8 4.5m-4.5.196q-.453.039-.89.084A1.246 1.246 0 0 0 1.5 6.025v5.95c0 .639.49 1.18 1.133 1.248q.438.045.867.082zm9 8.607q.453-.04.89-.083a1.246 1.246 0 0 0 1.11-1.245v-5.95c0-.638-.49-1.18-1.133-1.248q-.438-.045-.867-.083zM8 1.5c-.46 0-.98.022-1.548.083A.51.51 0 0 0 6 2.085v.953a53 53 0 0 1 4 .001v-.956c0-.233-.15-.42-.342-.48l-.085-.017A15 15 0 0 0 8 1.5" clip-rule="evenodd" />
</svg>
