<!-- This Source Code Form is subject to the terms of the Mozilla Public
   - License, v. 2.0. If a copy of the MPL was not distributed with this
   - file, You can obtain one at http://mozilla.org/MPL/2.0/. -->
<svg xmlns="http://www.w3.org/2000/svg" width="16" height="16" fill="context-fill" fill-opacity="context-fill-opacity" viewBox="0 0 16 16"><path d="M6.35 7.005a.75.75 0 0 1 1.061-.003l2.112 2.102.612-.577a.75.75 0 0 1 1.047.017l.673.678a.5.5 0 0 1 .145.353V11.5a.5.5 0 0 1-.5.5h-7a.5.5 0 0 1-.5-.5V9.576a.5.5 0 0 1 .145-.353zM12 5v2h-2V5z"/><path fill-rule="evenodd" d="M13 1a2 2 0 0 1 2 2v10a2 2 0 0 1-2 2H3a2 2 0 0 1-2-2V3a2 2 0 0 1 2-2zM3 2.5a.5.5 0 0 0-.5.5v10a.5.5 0 0 0 .5.5h10a.5.5 0 0 0 .5-.5V3a.5.5 0 0 0-.5-.5z" clip-rule="evenodd"/></svg>