<svg width="16" height="16" viewBox="0 0 16 16" fill="none" xmlns="http://www.w3.org/2000/svg">
<path d="M2.21987 2.21902C2.51287 1.92602 2.98839 1.92602 3.28139 2.21902L7.82436 6.76199C8.15524 7.09296 8.33706 7.53238 8.33706 7.99929L8.33608 8.00027C8.33602 8.46697 8.15404 8.9067 7.82338 9.2366L3.27944 13.7796C2.98644 14.0726 2.51189 14.0726 2.21889 13.7796C1.92614 13.4865 1.92598 13.0119 2.21889 12.719L6.76186 8.17605C6.85986 8.07805 6.85986 7.91956 6.76186 7.82156L2.21987 3.27956C1.92713 2.98655 1.92697 2.51193 2.21987 2.21902Z" fill="black"/>
<path d="M7.88393 2.21902C8.17687 1.92613 8.65148 1.92623 8.94448 2.21902L13.4874 6.76199C13.8184 7.09299 14.0011 7.53229 14.0011 7.99929L14.0001 8.00027C14.0001 8.46717 13.8174 8.90665 13.4865 9.2366L8.9435 13.7796C8.6505 14.0726 8.17596 14.0726 7.88296 13.7796C7.59014 13.4865 7.59002 13.012 7.88296 12.719L12.4259 8.17605C12.5239 8.07805 12.5239 7.91955 12.4259 7.82156L7.88393 3.27956C7.59113 2.98655 7.591 2.51195 7.88393 2.21902Z" fill="black"/>
</svg>
