<svg width="16" height="16" viewBox="0 0 16 16" fill="none" xmlns="http://www.w3.org/2000/svg">
<path fill-rule="evenodd" clip-rule="evenodd" d="M8 0C12.4183 0 16 3.58172 16 8C16 12.4183 12.4183 16 8 16C3.58172 16 0 12.4183 0 8C0 3.58172 3.58172 0 8 0ZM10.7803 5.21973C10.4874 4.92684 10.0126 4.92686 9.71973 5.21973L8 6.93945L6.28027 5.21973C5.98739 4.92684 5.51262 4.92686 5.21973 5.21973C4.92683 5.51262 4.92683 5.98738 5.21973 6.28027L6.93945 8L5.21973 9.71973C4.92683 10.0126 4.92683 10.4874 5.21973 10.7803C5.51262 11.0731 5.98739 11.0732 6.28027 10.7803L8 9.06055L9.71973 10.7803C10.0126 11.0731 10.4874 11.0732 10.7803 10.7803C11.0731 10.4874 11.0731 10.0126 10.7803 9.71973L9.06055 8L10.7803 6.28027C11.0731 5.98739 11.0731 5.51261 10.7803 5.21973Z" fill="black"/>
</svg>
