<!-- This Source Code Form is subject to the terms of the Mozilla Public
   - License, v. 2.0. If a copy of the MPL was not distributed with this
   - file, You can obtain one at http://mozilla.org/MPL/2.0/. -->
<svg xmlns="http://www.w3.org/2000/svg" width="16" height="16" fill="context-fill" fill-opacity="context-fill-opacity" viewBox="0 0 16 16">
    <path fill-rule="evenodd" d="M10.118 1.001a2.605 2.605 0 0 1 3.336.296l.781.78c.962.962 1.026 2.5.141 3.537q-.72.843-1.51 1.71l.5.5a.75.75 0 0 1-1.061 1.06l-.463-.463a68 68 0 0 1-5.17 4.887l-1.022.853a1.64 1.64 0 0 1-1.043.372H1.75a.75.75 0 0 1-.75-.75v-2.858c0-.376.126-.745.371-1.044a68 68 0 0 1 5.74-6.192l-.463-.462a.75.75 0 0 1 1.061-1.06l.498.497a68 68 0 0 1 1.711-1.509zm-1.947 3.75a67.5 67.5 0 0 0-5.64 6.08.14.14 0 0 0-.031.094v2.108h2.107A.14.14 0 0 0 4.7 13H4.7a66.403 66.403 0 0 0 6.08-5.64z" clip-rule="evenodd" />
</svg>
