<!-- This Source Code Form is subject to the terms of the Mozilla Public
   - License, v. 2.0. If a copy of the MPL was not distributed with this
   - file, You can obtain one at http://mozilla.org/MPL/2.0/. -->
<svg xmlns="http://www.w3.org/2000/svg" width="16" height="16" fill="context-fill" fill-opacity="context-fill-opacity" viewBox="0 0 16 16">
    <path d="M13 10a.75.75 0 0 1 .75.75v1.5h1.5a.75.75 0 0 1 0 1.5h-1.5v1.5a.75.75 0 0 1-1.5 0v-1.5h-1.5a.75.75 0 0 1 0-1.5h1.5v-1.5A.75.75 0 0 1 13 10M7.501.001a3.76 3.76 0 0 1 3.637 2.794C13.257 2.729 15 4.458 15 6.57c0 .504-.114.984-.3 1.431h-1.743c.335-.399.543-.893.543-1.43a2.28 2.28 0 0 0-2.275-2.277c-.161 0-.332.023-.536.072a.74.74 0 0 1-.626-.129.75.75 0 0 1-.3-.565A2.267 2.267 0 0 0 7.5 1.5a2.267 2.267 0 0 0-2.263 2.17.748.748 0 0 1-.926.695 2.3 2.3 0 0 0-.536-.072A2.28 2.28 0 0 0 1.501 6.57a2.26 2.26 0 0 0 1.26 2.02.75.75 0 0 1 .23 1.16 2.25 2.25 0 0 0-.56 1.475A2.28 2.28 0 0 0 4.707 13.5a2.27 2.27 0 0 0 2.1-1.402.75.75 0 0 1 .693-.462c.191 0 .365.078.5.2v2.377a4 4 0 0 1-.5-.448 3.77 3.77 0 0 1-2.793 1.234 3.78 3.78 0 0 1-3.776-3.775c0-.611.154-1.214.444-1.755A3.74 3.74 0 0 1 0 6.569c0-2.11 1.72-3.835 3.864-3.774A3.76 3.76 0 0 1 7.501 0" />
</svg>
