<!-- This Source Code Form is subject to the terms of the Mozilla Public
   - License, v. 2.0. If a copy of the MPL was not distributed with this
   - file, You can obtain one at http://mozilla.org/MPL/2.0/. -->
<svg xmlns="http://www.w3.org/2000/svg" width="16" height="16" fill="context-fill" fill-opacity="context-fill-opacity" viewBox="0 0 16 16">
    <path fill-rule="evenodd" d="M8.001 1.001c.74 0 1.619.042 2.6.178H10.6a2.78 2.78 0 0 1 2.267 1.893c.234-.039.492-.066.77-.072h.037C15 2.985 16 4.11 16 5.363v.887a3.75 3.75 0 0 1-3.724 3.749 6 6 0 0 1-.713.997 6.3 6.3 0 0 1-2.715 1.797h-.001q-.049.016-.097.028V14.5h2.5a.75.75 0 0 1 0 1.5h-6.5a.75.75 0 0 1 0-1.5h2.5v-1.679c-.032-.01-.064-.016-.096-.027v-.001a6.3 6.3 0 0 1-2.716-1.797A6 6 0 0 1 3.724 10 3.75 3.75 0 0 1 0 6.25v-.888C0 4.11.998 2.986 2.324 3.001L2.36 3c.28.006.538.033.772.072a2.73 2.73 0 0 1 2.215-1.885A19 19 0 0 1 8 1m0 1.5c-.894 0-1.714.067-2.446.17-.6.085-1.054.61-1.054 1.238v3.546c0 .365.05.708.162 1.018.16.447.433 1 .901 1.533.691.785 1.501 1.173 2.069 1.366.209.07.432.08.644.026l.09-.026a4.8 4.8 0 0 0 1.939-1.224l.132-.143c.467-.532.74-1.085.9-1.532l.072-.239q.09-.367.09-.779l.001-3.546c0-.583-.411-1.09-.987-1.222l-.118-.022A17.5 17.5 0 0 0 8 2.501m5.485 2.007a4 4 0 0 0-.486.066v2.881l-.014.379q-.021.283-.078.567A2.25 2.25 0 0 0 14.5 6.25v-.887c0-.497-.395-.87-.813-.863h-.019zM2.312 4.5c-.418-.006-.812.366-.812.862v.888A2.25 2.25 0 0 0 3.09 8.4a5 5 0 0 1-.089-.945v-2.88a4 4 0 0 0-.49-.067l-.18-.008z" clip-rule="evenodd" />
</svg>
