<svg width="16" height="16" viewBox="0 0 16 16" fill="none" xmlns="http://www.w3.org/2000/svg">
<path d="M8 10.25C8.48325 10.25 8.875 10.6418 8.875 11.125C8.875 11.6082 8.48325 12 8 12C7.51675 12 7.125 11.6082 7.125 11.125C7.125 10.6418 7.51675 10.25 8 10.25Z" fill="black"/>
<path d="M8 4C8.414 4 8.75 4.336 8.75 4.75V8.25C8.75 8.664 8.414 9 8 9C7.586 9 7.25 8.664 7.25 8.25V4.75C7.25 4.336 7.586 4 8 4Z" fill="black"/>
<path fill-rule="evenodd" clip-rule="evenodd" d="M8 0C12.4183 0 16 3.58172 16 8C16 12.4183 12.4183 16 8 16C3.58172 16 0 12.4183 0 8C0 3.58172 3.58172 0 8 0ZM8 1.5C4.41015 1.5 1.5 4.41015 1.5 8C1.5 11.5899 4.41015 14.5 8 14.5C11.5899 14.5 14.5 11.5899 14.5 8C14.5 4.41015 11.5899 1.5 8 1.5Z" fill="black"/>
</svg>
