<!-- This Source Code Form is subject to the terms of the Mozilla Public
   - License, v. 2.0. If a copy of the MPL was not distributed with this
   - file, You can obtain one at http://mozilla.org/MPL/2.0/. -->
<svg xmlns="http://www.w3.org/2000/svg" width="16" height="16" fill="context-fill" fill-opacity="context-fill-opacity" viewBox="0 0 16 16">
    <path fill-rule="evenodd" d="M.22.22a.75.75 0 0 1 1.06 0l14.5 14.5a.75.75 0 0 1-1.06 1.061l-4.237-4.236-.003 2.212A2.255 2.255 0 0 1 8.23 16h-.457a2.254 2.254 0 0 1-2.25-2.244l-.017-7.04q-.013-.008-.024-.018c-1.3.155-2.59.422-3.847.81a1.258 1.258 0 0 1-1.247-.296 1.27 1.27 0 0 1-.344-1.24v-.002a6.6 6.6 0 0 1 1.813-3.053L.22 1.28a.75.75 0 0 1 0-1.06m6.803 13.533a.75.75 0 0 0 .75.748h.457c.411 0 .75-.337.75-.748l.006-3.705L7.01 8.07zM2.915 3.976a5.06 5.06 0 0 0-1.294 1.971 21.5 21.5 0 0 1 2.689-.576zM6.266.137A11 11 0 0 1 9.724.136a1.51 1.51 0 0 1 1.2 1.077l.037.006c2.393.485 4.354 2.351 4.995 4.754a1.264 1.264 0 0 1-1.593 1.535 21.6 21.6 0 0 0-3.847-.798q-.012.007-.024.016l-.002.935-1.933-1.933c.316-.018.63-.046.941-.095l.002-.004V1.62a9.62 9.62 0 0 0-2.999-.003v2.054L4.264 1.434c.249-.085.502-.16.762-.214q.024-.002.047-.006c.156-.551.6-.982 1.193-1.077M11 5.275c1.138.147 2.269.353 3.378.671A5.08 5.08 0 0 0 11 2.781z" clip-rule="evenodd" />
</svg>
