<!-- This Source Code Form is subject to the terms of the Mozilla Public
   - License, v. 2.0. If a copy of the MPL was not distributed with this
   - file, You can obtain one at http://mozilla.org/MPL/2.0/. -->
<svg xmlns="http://www.w3.org/2000/svg" width="16" height="16" fill="context-fill" fill-opacity="context-fill-opacity" viewBox="0 0 16 16">
    <path d="M8 7a1 1 0 1 1 0 2 1 1 0 0 1 0-2" />
    <path fill-rule="evenodd" d="M8 4.57c1.762 0 3.3.923 4.176 2.303.405.64.43 1.462.076 2.124l-.076.13A4.94 4.94 0 0 1 8 11.431a4.93 4.93 0 0 1-4.004-2.05l-.172-.254a2.12 2.12 0 0 1 0-2.253A4.94 4.94 0 0 1 8 4.57m0 1.25a3.68 3.68 0 0 0-2.991 1.534l-.13.189a.87.87 0 0 0 0 .914A3.69 3.69 0 0 0 8 10.181a3.69 3.69 0 0 0 3.121-1.724c.151-.24.17-.55.057-.808l-.058-.106A3.69 3.69 0 0 0 8 5.82" clip-rule="evenodd" />
    <path fill-rule="evenodd" d="M8 2c1.455 0 3.056.059 4.777.213l.746.072.258.04A2.76 2.76 0 0 1 16 5.024v5.95c0 1.4-1.049 2.59-2.454 2.737a53.6 53.6 0 0 1-11.068.003A2.76 2.76 0 0 1 0 10.975v-5.95c0-1.4 1.049-2.59 2.454-2.737A54 54 0 0 1 8 2m0 1.5c-1.945 0-3.75.11-5.39.28-.629.066-1.11.601-1.11 1.245v5.95c0 .639.49 1.18 1.133 1.248a52 52 0 0 0 10.758-.003c.628-.066 1.109-.601 1.109-1.245v-5.95c0-.638-.49-1.18-1.133-1.248A52 52 0 0 0 8 3.5" clip-rule="evenodd" />
</svg>
