<!-- This Source Code Form is subject to the terms of the Mozilla Public
   - License, v. 2.0. If a copy of the MPL was not distributed with this
   - file, You can obtain one at http://mozilla.org/MPL/2.0/. -->
<svg xmlns="http://www.w3.org/2000/svg" width="16" height="16" fill="context-fill" fill-opacity="context-fill-opacity" viewBox="0 0 16 16">
    <path d="M5.75 11.75h-1.5V9h1.5zm3 0h-1.5v-4h1.5zm3 0h-1.5V9h1.5z" />
    <path d="M13 1a2 2 0 0 1 2 2v10a2 2 0 0 1-2 2H3a2 2 0 0 1-2-2V3a2 2 0 0 1 2-2zM2.5 13a.5.5 0 0 0 .5.5h10a.5.5 0 0 0 .5-.5V6h-11zM3 2.5a.5.5 0 0 0-.5.5v1.5h11V3a.5.5 0 0 0-.5-.5z" />
</svg>
