<!-- This Source Code Form is subject to the terms of the Mozilla Public
   - License, v. 2.0. If a copy of the MPL was not distributed with this
   - file, You can obtain one at http://mozilla.org/MPL/2.0/. -->
<svg xmlns="http://www.w3.org/2000/svg" width="16" height="16" fill="context-fill" fill-opacity="context-fill-opacity" viewBox="0 0 16 16">
    <path fill-rule="evenodd" d="M4.272.523C4.49.513 4.89.5 5.1.53c2.735.413 4.968 2.654 5.578 5.385l1.016-.873a.75.75 0 0 1 1.071.098c2.238 2.772 2.34 6.69.239 8.761-.984 1.218-2.55 1.956-4.415 2.08a8 8 0 0 1-.546.018c-1.88 0-3.688-.643-4.817-1.732-1.546-1.494-2.076-3.346-1.495-5.211.206-.66.991-2.081 1.476-2.67 1.165-1.561.859-3.514.394-4.87a.753.753 0 0 1 .673-.992m1.051 1.581c.442 2 .125 3.786-.938 5.208-.38.463-1.076 1.714-1.224 2.189-.519 1.664.314 2.923 1.105 3.687.453.438 1.079.782 1.792 1.008a8 8 0 0 1-.038-.713c0-2.157.662-3.64 1.718-4.414a.33.33 0 0 1 .2-.067V9h.004v.002q.106-.001.2.067h.003c1.055.774 1.718 2.258 1.718 4.414 0 .236-.016.496-.043.765.853-.258 1.555-.706 2.038-1.316a1 1 0 0 1 .067-.074c1.419-1.37 1.43-4.044.123-6.143l-1.467 1.26a.752.752 0 0 1-1.24-.568c0-2.486-1.73-4.727-4.018-5.303" clip-rule="evenodd" />
</svg>
