<!-- This Source Code Form is subject to the terms of the Mozilla Public
   - License, v. 2.0. If a copy of the MPL was not distributed with this
   - file, You can obtain one at http://mozilla.org/MPL/2.0/. -->
   <svg width="16" height="16" fill="context-fill" fill-opacity="context-fill-opacity" xmlns="http://www.w3.org/2000/svg"><g clip-path="url(#a)"><path fill-rule="evenodd" clip-rule="evenodd" d="M2.5 2.023a2 2 0 0 1 2-2h7a2 2 0 0 1 2 2V14a2 2 0 0 1-2 2h-7a2 2 0 0 1-2-2V2.023zm2-.5a.5.5 0 0 0-.5.5V12h8V2.023a.5.5 0 0 0-.5-.5h-7zm2 11.852h3v1.25h-3v-1.25z"/></g><defs><clipPath id="a"><path fill="#fff" d="M0 0h16v16H0z"/></clipPath></defs></svg>