<!-- This Source Code Form is subject to the terms of the Mozilla Public
   - License, v. 2.0. If a copy of the MPL was not distributed with this
   - file, You can obtain one at http://mozilla.org/MPL/2.0/. -->
<svg xmlns="http://www.w3.org/2000/svg" width="16" height="16" fill="context-fill" fill-opacity="context-fill-opacity" viewBox="0 0 16 16">
    <path fill-rule="evenodd" d="M8.001 2.117c1.365 0 2.99.092 4.798.38l-.001.002a2.73 2.73 0 0 1 1.93 1.347l.91 1.596.106.205a2.75 2.75 0 0 1-.549 3.104l-.02.016L9.946 14a2.75 2.75 0 0 1-3.89 0L.806 8.75a2.75 2.75 0 0 1-.442-3.31l.91-1.594A2.76 2.76 0 0 1 3.245 2.49a30.4 30.4 0 0 1 4.757-.373M1.866 7.688l5.25 5.25q.064.063.134.114V7.995a58 58 0 0 1-5.404-.328zm12.29-.022c-1.79.193-3.601.304-5.406.328v5.059q.07-.052.134-.115l5.25-5.25.01-.01q.007-.005.011-.012M8 3.616q-.444 0-.872.015L5.523 6.443a56 56 0 0 0 4.954 0L8.869 3.63q-.45-.014-.868-.013m4.147 2.728a55 55 0 0 0 2.162-.204l-.885-1.55a1.23 1.23 0 0 0-.863-.612 29 29 0 0 0-1.903-.239zM5.338 3.74c-.659.06-1.28.14-1.858.231a1.26 1.26 0 0 0-.827.5l-.077.119-.886 1.55q1.079.122 2.162.203z" clip-rule="evenodd" />
</svg>
