<!-- This Source Code Form is subject to the terms of the Mozilla Public
   - License, v. 2.0. If a copy of the MPL was not distributed with this
   - file, You can obtain one at http://mozilla.org/MPL/2.0/. -->
<svg xmlns="http://www.w3.org/2000/svg" width="16" height="16" fill="context-fill" fill-opacity="context-fill-opacity" viewBox="0 0 16 16">
    <path d="M14.25 11a.75.75 0 0 1 .75.75v1.256c0 1.38-1.024 2.57-2.414 2.731a40 40 0 0 1-8.526.069l-.622-.067A2.76 2.76 0 0 1 1 13.003V11.75a.75.75 0 0 1 1.5 0v1.253c0 .635.48 1.174 1.11 1.246l.597.063a38.6 38.6 0 0 0 8.207-.065 1.24 1.24 0 0 0 1.086-1.241V11.75a.75.75 0 0 1 .75-.75" />
    <path d="M8 1a.75.75 0 0 1 .75.75v7.897l2.22-2.22a.75.75 0 0 1 1.062 1.061l-3.146 3.146c-.236.236-.55.366-.884.366H8c-.334 0-.648-.13-.884-.366L3.97 8.488a.75.75 0 0 1 1.06-1.061l2.22 2.219V1.75A.75.75 0 0 1 8 1" />
</svg>
