<!-- This Source Code Form is subject to the terms of the Mozilla Public
   - License, v. 2.0. If a copy of the MPL was not distributed with this
   - file, You can obtain one at http://mozilla.org/MPL/2.0/. -->
<svg xmlns="http://www.w3.org/2000/svg" width="16" height="16" fill="context-fill" fill-opacity="context-fill-opacity" viewBox="0 0 16 16">
    <g clip-path="url(#clip0_8069_32512)">
        <path d="M14.502 14.5a.75.75 0 0 1 0 1.5h-4.5a.75.75 0 1 1 0-1.5zM7.803.015A2 2 0 0 1 9.163.6l3.244 3.245c.374.374.585.882.587 1.412v1.242H11.5v-1h-3a1 1 0 0 1-1-1V1.512c-.165-.004-.344-.013-.5-.013-1.146 0-2.3.074-3.432.219-.615.079-1.068.619-1.068 1.24v9.084c0 .629.462 1.162 1.075 1.24 1.46.187 2.948.232 4.425.177v1.512c-.333.014-.667.028-1 .028-1.205 0-2.421-.077-3.614-.229A2.75 2.75 0 0 1 1 12.042V2.969C1 1.603 2.114.387 3.47.218A29 29 0 0 1 7-.001c.168 0 .49.008.803.016" />
        <path d="M12.252 8a.75.75 0 0 1 .75.75v2.249h1.358V11c.35 0 .524.423.277.67l-2.106 2.106a.394.394 0 0 1-.555 0L9.869 11.67a.393.393 0 0 1 .279-.67h1.354V8.75a.75.75 0 0 1 .75-.75" />
    </g>
</svg>
