<!-- This Source Code Form is subject to the terms of the Mozilla Public
   - License, v. 2.0. If a copy of the MPL was not distributed with this
   - file, You can obtain one at http://mozilla.org/MPL/2.0/. -->
<svg xmlns="http://www.w3.org/2000/svg" width="16" height="16" fill="context-fill" fill-opacity="context-fill-opacity" viewBox="0 0 16 16">
    <path fill-rule="evenodd" d="M10.118 1.47a2.605 2.605 0 0 1 3.336.296l.781.78c.962.962 1.026 2.5.141 3.537a68.5 68.5 0 0 1-7.703 7.694l-1.023.854a1.64 1.64 0 0 1-1.043.37H1.75a.75.75 0 0 1-.75-.75v-2.857c0-.376.126-.745.371-1.044a68 68 0 0 1 8.547-8.725zM8.797 4.63A67 67 0 0 0 2.53 11.3a.14.14 0 0 0-.031.094v2.108h2.107a.14.14 0 0 0 .092-.032H4.7a66.5 66.5 0 0 0 6.669-6.267zm3.597-1.803a1.106 1.106 0 0 0-1.502-.062q-.488.415-.984.856l2.47 2.47q.441-.495.857-.982c.375-.44.35-1.092-.06-1.502z" clip-rule="evenodd" />
</svg>
