<!-- This Source Code Form is subject to the terms of the Mozilla Public
   - License, v. 2.0. If a copy of the MPL was not distributed with this
   - file, You can obtain one at http://mozilla.org/MPL/2.0/. -->
<svg xmlns="http://www.w3.org/2000/svg" width="16" height="16" fill="context-fill" fill-opacity="context-fill-opacity" viewBox="0 0 16 16">
    <path fill-rule="evenodd" d="M12.27 9.184c.525-1.053.931-1.303 1.392-1.207.405.083.65.81.784 1.127.26.616.48 1.233.607 1.886.087.45.32.782.778.783l.003.001a.17.17 0 0 1 .155.23c-.098.263-.399.43-.65.526.114.03.451-.037.465.131.01.138-.34.276-.435.322-.886.427-1.703 1.193-2.752 1.058-.456-.06-.789-.38-1.162-.58a.6.6 0 0 0-.566 0c-.374.2-.706.52-1.162.58-1.05.135-1.866-.63-2.752-1.058-.096-.044-.447-.184-.435-.322.015-.17.352-.101.465-.13-.252-.097-.553-.264-.65-.526-.041-.109.037-.23.155-.23.459-.002.69-.332.778-.783.127-.654.346-1.27.607-1.887.134-.315.38-1.043.784-1.126.46-.096.868.151 1.392 1.206.432.867.725 1.474.725 1.474v.006l.296-.003.008-.002h.149l.296.003v-.006s.293-.605.725-1.473m-1.712 3.38c-.214-.685-1.092-.945-1.754-.835-.112.018-.418.127-.405.268V12c.299.738 1.55 1.12 2.159.566m2.977-.835c-.662-.11-1.54.149-1.754.834.608.556 1.86.172 2.16-.566.012-.141-.295-.25-.406-.268" clip-rule="evenodd" />
    <path fill-rule="evenodd" d="M6.397 1.337q.23 0 .457.004.165.004.33.01.27.008.538.017l.286.015q.267.011.534.027.288.02.575.042.132.01.265.02h.005q.012 0 .026.002A2.813 2.813 0 0 1 12 4.302v2.974c-.585.776-.83 1.146-.83 1.146-.005-.01-.237-.412-.838-1.164v-2.97l-2.12 2.12a3.18 3.18 0 0 1-2.248.924A3.15 3.15 0 0 1 3.9 6.57c-.446-.384-1.364-1.266-2.232-2.108v3.24L1.665 7.7c.003.603.48 1.115 1.089 1.164.9.074 1.803.111 2.704.12h1.049c-.208.523-.423 1.127-.545 1.676a41 41 0 0 1-3.344-.134C1.15 10.405 0 9.162 0 7.696V4.301a2.813 2.813 0 0 1 2.587-2.828l.025-.002h.006q.132-.01.264-.02.287-.022.575-.042l.534-.027.286-.015q.269-.01.536-.016.165-.007.332-.011.228-.003.457-.004.183-.003.367-.004h.062q.184.001.366.004M6 2.999c-1.023 0-2.063.04-3.093.122l-.156.012q-.028.002-.056.007c.897.872 1.86 1.796 2.291 2.168a1.51 1.51 0 0 0 2.045-.08l2.103-2.104-.043-.003A40 40 0 0 0 6 3" clip-rule="evenodd" />
</svg>
