<!-- This Source Code Form is subject to the terms of the Mozilla Public
   - License, v. 2.0. If a copy of the MPL was not distributed with this
   - file, You can obtain one at http://mozilla.org/MPL/2.0/. -->
<svg xmlns="http://www.w3.org/2000/svg" width="16" height="16" fill="context-fill" fill-opacity="context-fill-opacity" viewBox="0 0 16 16">
    <path d="M12.25 5a.75.75 0 0 1 .75.75v5a.75.75 0 0 1-.75.75h-1.5a.75.75 0 0 1 0-1.5h.75V9h-.75a.75.75 0 0 1 0-1.5h.75v-1h-.75a.75.75 0 0 1 0-1.5zm-7 0a.75.75 0 0 1 .75.75v2a.75.75 0 0 1-.415.67L4.5 8.964V10h.75a.75.75 0 0 1 0 1.5h-1.5a.75.75 0 0 1-.75-.75V8.5a.75.75 0 0 1 .415-.67L4.5 7.285V6.5h-.75a.75.75 0 0 1 0-1.5z" />
    <path fill-rule="evenodd" d="M8 2c1.455 0 3.056.059 4.777.213l.746.072.258.04A2.76 2.76 0 0 1 16 5.024v5.95c0 1.4-1.049 2.59-2.454 2.737a53.6 53.6 0 0 1-11.068.003A2.76 2.76 0 0 1 0 10.975v-5.95c0-1.4 1.049-2.59 2.454-2.737A54 54 0 0 1 8 2m.75 10.494a52 52 0 0 0 4.64-.274 1.246 1.246 0 0 0 1.11-1.245v-5.95c0-.638-.49-1.18-1.133-1.248A52 52 0 0 0 8.75 3.51zm-1.5-8.99c-1.66.025-3.213.128-4.64.276A1.246 1.246 0 0 0 1.5 5.025v5.95c0 .639.49 1.18 1.133 1.248 1.653.171 3.2.247 4.617.267z" clip-rule="evenodd" />
</svg>
