<!-- This Source Code Form is subject to the terms of the Mozilla Public
   - License, v. 2.0. If a copy of the MPL was not distributed with this
   - file, You can obtain one at http://mozilla.org/MPL/2.0/. -->
<svg xmlns="http://www.w3.org/2000/svg" width="16" height="16" fill="context-fill" fill-opacity="context-fill-opacity" viewBox="0 0 16 16">
    <path d="M9 1a2 2 0 0 1 2 2v2.75H9.5V3a.5.5 0 0 0-.5-.5H2a.5.5 0 0 0-.5.5v11a.5.5 0 0 0 .5.5h7a.5.5 0 0 0 .5-.5v-2.75H11V14a2 2 0 0 1-2 2H2a2 2 0 0 1-2-2V3a2 2 0 0 1 2-2z" />
    <path d="M12.014 5.972c0-.42.508-.63.805-.333l2.528 2.528a.47.47 0 0 1 0 .666l-2.528 2.528a.471.471 0 0 1-.804-.333V9.25h-7v-1.5h6.999z" />
</svg>
