<!-- This Source Code Form is subject to the terms of the Mozilla Public
   - License, v. 2.0. If a copy of the MPL was not distributed with this
   - file, You can obtain one at http://mozilla.org/MPL/2.0/. -->
<svg xmlns="http://www.w3.org/2000/svg" width="16" height="16" fill="context-fill" fill-opacity="context-fill-opacity" viewBox="0 0 16 16">
    <path d="M8 2.5c-1.603 0-3.081.099-4.414.253A1.24 1.24 0 0 0 2.5 3.994v8.009c0 .635.48 1.174 1.11 1.246a38.5 38.5 0 0 0 8.805-.002 1.24 1.24 0 0 0 1.085-1.241V8H15v4.006c0 1.38-1.024 2.57-2.414 2.731a40 40 0 0 1-9.148.002A2.76 2.76 0 0 1 1 12.003V3.994c0-1.38 1.024-2.57 2.414-2.731A40 40 0 0 1 8 1z" />
    <path d="M14.519 1a.48.48 0 0 1 .48.48v3.64a.48.48 0 0 1-.82.338l-1.287-1.29-4.61 4.612A.75.75 0 0 1 7.22 7.72l4.61-4.61-1.289-1.29A.48.48 0 0 1 10.88 1z" />
</svg>
