<!-- This Source Code Form is subject to the terms of the Mozilla Public
   - License, v. 2.0. If a copy of the MPL was not distributed with this
   - file, You can obtain one at http://mozilla.org/MPL/2.0/. -->
   <svg width="20" height="20" fill="context-fill" fill-opacity="context-fill-opacity" xmlns="http://www.w3.org/2000/svg"><path fill-rule="evenodd" clip-rule="evenodd" d="M10.375 13.75c0 2.206 1.794 4 4 4s4-1.794 4-4-1.794-4-4-4-4 1.794-4 4zm4.625 0V11.5h-1.25v2.25H15zM15 16v-1.25h-1.25V16H15z" fill="#000"/><path d="M9.448 15.5H3.5A.501.501 0 0 1 3 15v-1.5h1.25A2.752 2.752 0 0 0 7 10.75 2.752 2.752 0 0 0 4.25 8H3V6.5c0-.275.225-.5.5-.5h2.75A.75.75 0 0 0 7 5.25v-1.5c0-.689.561-1.25 1.25-1.25s1.25.561 1.25 1.25v1.5c0 .414.336.75.75.75H13c.275 0 .5.225.5.5v2.089a5.15 5.15 0 0 1 .875-.089c.214 0 .418.038.625.063V6.5c0-1.103-.897-2-2-2h-2v-.75A2.752 2.752 0 0 0 8.25 1 2.752 2.752 0 0 0 5.5 3.75v.75h-2c-1.103 0-2 .897-2 2v2.25c0 .414.336.75.75.75h2c.689 0 1.25.561 1.25 1.25S4.939 12 4.25 12h-2a.75.75 0 0 0-.75.75V15c0 1.103.897 2 2 2h6.784a5.201 5.201 0 0 1-.836-1.5z"/></svg>