<!-- This Source Code Form is subject to the terms of the Mozilla Public
   - License, v. 2.0. If a copy of the MPL was not distributed with this
   - file, You can obtain one at http://mozilla.org/MPL/2.0/. -->
<svg width="16" height="16" fill="context-fill" fill-opacity="context-fill-opacity" xmlns="http://www.w3.org/2000/svg"><path d="M8 .011A2.75 2.75 0 0 0 5.5 2.75v.75h-2a2 2 0 0 0-2 2v2.25c0 .414.336.75.75.75h2a1.25 1.25 0 1 1 0 2.5h-2a.75.75 0 0 0-.75.75V14a2 2 0 0 0 2 2H13a2 2 0 0 0 2-2V6h-1.5v8a.5.5 0 0 1-.5.5H3.5A.5.5 0 0 1 3 14v-1.5h1.25a2.75 2.75 0 1 0 0-5.5H3V5.5a.5.5 0 0 1 .5-.5h2.75A.75.75 0 0 0 7 4.25v-1.5c0-.605.43-1.11 1-1.225V.011z"/></svg>