<!-- This Source Code Form is subject to the terms of the Mozilla Public
   - License, v. 2.0. If a copy of the MPL was not distributed with this
   - file, You can obtain one at http://mozilla.org/MPL/2.0/. -->
<svg width="16" height="16" fill="context-fill" fill-opacity="context-fill-opacity" xmlns="http://www.w3.org/2000/svg"><path fill-rule="evenodd" clip-rule="evenodd" d="M8.25 1.5C7.56 1.5 7 2.06 7 2.75v1.5a.75.75 0 0 1-.75.75H3.5a.5.5 0 0 0-.5.5V7h1.25a2.75 2.75 0 1 1 0 5.5H3V14a.5.5 0 0 0 .5.5H13a.5.5 0 0 0 .5-.5V5.5A.5.5 0 0 0 13 5h-2.75a.75.75 0 0 1-.75-.75v-1.5c0-.69-.56-1.25-1.25-1.25zM5.5 2.75a2.75 2.75 0 1 1 5.5 0v.75h2a2 2 0 0 1 2 2V14a2 2 0 0 1-2 2H3.5a2 2 0 0 1-2-2v-2.25a.75.75 0 0 1 .75-.75h2a1.25 1.25 0 1 0 0-2.5h-2a.75.75 0 0 1-.75-.75V5.5a2 2 0 0 1 2-2h2v-.75z"/></svg>