<!-- This Source Code Form is subject to the terms of the Mozilla Public
   - License, v. 2.0. If a copy of the MPL was not distributed with this
   - file, You can obtain one at http://mozilla.org/MPL/2.0/. -->
<svg xmlns="http://www.w3.org/2000/svg" width="16" height="16" fill="context-fill" fill-opacity="context-fill-opacity" viewBox="0 0 16 16">
    <path d="M13 16H4a2 2 0 0 1-2-2v-1.5a.5.5 0 0 1 .5-.5H4a2 2 0 1 0 0-4H2.5a.5.5 0 0 1-.5-.5V6a2 2 0 0 1 2-2h2.5V2.25a2.25 2.25 0 1 1 4.5 0V4h2a2 2 0 0 1 2 2v8a2 2 0 0 1-2 2" />
</svg>
