<!-- This Source Code Form is subject to the terms of the Mozilla Public
   - License, v. 2.0. If a copy of the MPL was not distributed with this
   - file, You can obtain one at http://mozilla.org/MPL/2.0/. -->
<svg xmlns="http://www.w3.org/2000/svg" width="20" height="20" fill="context-fill" fill-opacity="context-fill-opacity" viewBox="0 0 20 20">
    <path fill-rule="evenodd" d="M13.42 10.344a1.25 1.25 0 0 1 2.16 0l3.25 5.58c.446.768-.031 1.76-.914 1.867a28 28 0 0 1-6.816.002 1.25 1.25 0 0 1-.928-1.872zm1.08 5.406a.625.625 0 1 0 0 1.25.625.625 0 0 0 0-1.25m0-3.5a.625.625 0 0 0-.625.625v1.5a.625.625 0 0 0 1.25 0v-1.5a.625.625 0 0 0-.625-.625" clip-rule="evenodd" />
    <path d="M9.01 15.484a33 33 0 0 1-4.416-.218A1.25 1.25 0 0 1 3.5 14.022v-.52h.407c1.267 0 2.366-.898 2.56-2.087A2.498 2.498 0 0 0 4 8.502h-.5V7.98c0-.632.462-1.165 1.073-1.239a33 33 0 0 1 2.094-.186.75.75 0 0 0 .708-.749V4.502c0-.55.448-1 1-1h.25c.552 0 1 .45 1 1v1.305a.75.75 0 0 0 .708.749c.698.04 1.396.101 2.076.183A1.247 1.247 0 0 1 13.5 7.982v.721a2.5 2.5 0 0 1 1-.227c.172 0 .336.032.5.065v-.559a2.75 2.75 0 0 0-2.411-2.732 34 34 0 0 0-1.464-.144v-.603c0-1.378-1.121-2.5-2.5-2.5h-.25a2.503 2.503 0 0 0-2.5 2.5v.602q-.741.057-1.481.147A2.74 2.74 0 0 0 2 7.98v1.273c0 .414.336.75.75.75H4a1.004 1.004 0 0 1 .987 1.174c-.076.471-.54.827-1.079.827H2.751a.75.75 0 0 0-.75.75v1.271a2.75 2.75 0 0 0 2.414 2.733 34 34 0 0 0 4.086.246c.099 0 .199-.008.299-.009a2.5 2.5 0 0 1 .211-1.508z" />
</svg>
