<!-- This Source Code Form is subject to the terms of the Mozilla Public
   - License, v. 2.0. If a copy of the MPL was not distributed with this
   - file, You can obtain one at http://mozilla.org/MPL/2.0/. -->
<svg xmlns="http://www.w3.org/2000/svg" width="20" height="20" fill="context-fill" fill-opacity="context-fill-opacity" viewBox="0 0 20 20">
    <path d="m15.41 10.493 3.311 5.773c.445.775-.127 1.734-1.034 1.734h-6.623c-.908 0-1.48-.959-1.034-1.734l3.311-5.773c.454-.791 1.615-.791 2.069 0M15 12.5h-1.25v2.25H15zm0 3.25h-1.25V17H15z" />
    <path d="m8.945 15.644.082-.144H3.5A.5.5 0 0 1 3 15v-1.5h1.25A2.75 2.75 0 0 0 7 10.75 2.75 2.75 0 0 0 4.25 8H3V6.5c0-.275.225-.5.5-.5h2.75A.75.75 0 0 0 7 5.25v-1.5c0-.689.561-1.25 1.25-1.25s1.25.561 1.25 1.25v1.5c0 .414.336.75.75.75H13c.275 0 .5.225.5.5v2.328c.276-.105.565-.178.875-.178q.324.002.625.081V6.5c0-1.103-.897-2-2-2h-2v-.75A2.75 2.75 0 0 0 8.25 1 2.75 2.75 0 0 0 5.5 3.75v.75h-2c-1.103 0-2 .897-2 2v2.25c0 .414.336.75.75.75h2c.689 0 1.25.561 1.25 1.25S4.939 12 4.25 12h-2a.75.75 0 0 0-.75.75V15c0 1.103.897 2 2 2h5.145a2.36 2.36 0 0 1 .3-1.356" />
</svg>
