<!-- This Source Code Form is subject to the terms of the Mozilla Public
   - License, v. 2.0. If a copy of the MPL was not distributed with this
   - file, You can obtain one at http://mozilla.org/MPL/2.0/. -->
<svg xmlns="http://www.w3.org/2000/svg" width="20" height="20" fill="context-fill" fill-opacity="context-fill-opacity" viewBox="0 0 20 20">
    <path fill-rule="evenodd" d="M14.375 10.75c2.206 0 4 1.794 4 4s-1.794 4-4 4-4-1.794-4-4 1.794-4 4-4m0 5.125a.625.625 0 1 0 0 1.25.625.625 0 0 0 0-1.25m0-3.5a.625.625 0 0 0-.625.625v1.5a.625.625 0 1 0 1.25 0V13a.625.625 0 0 0-.625-.625" clip-rule="evenodd" />
    <path d="M9.199 15.478a33 33 0 0 1-4.605-.213A1.25 1.25 0 0 1 3.5 14.021V13.5h.407c1.267 0 2.366-.897 2.56-2.086A2.498 2.498 0 0 0 4 8.501h-.5v-.523c0-.632.462-1.165 1.073-1.239a33 33 0 0 1 2.094-.186.75.75 0 0 0 .708-.749V4.501c0-.551.448-1 1-1h.25c.552 0 1 .449 1 1v1.305a.75.75 0 0 0 .708.749c.698.04 1.396.101 2.076.183A1.247 1.247 0 0 1 13.5 7.981V9.59c.286-.048.575-.089.875-.089.214 0 .418.038.625.063V7.98a2.75 2.75 0 0 0-2.411-2.732 34 34 0 0 0-1.464-.144v-.603c0-1.378-1.121-2.5-2.5-2.5h-.25a2.503 2.503 0 0 0-2.5 2.5v.602q-.741.057-1.481.147A2.74 2.74 0 0 0 2 7.978v1.273c0 .414.336.75.75.75H4a1.004 1.004 0 0 1 .987 1.174c-.076.471-.54.827-1.079.827H2.751a.75.75 0 0 0-.75.75v1.271a2.75 2.75 0 0 0 2.414 2.733 34 34 0 0 0 4.086.246c.376 0 .755-.021 1.133-.034A5.2 5.2 0 0 1 9.2 15.48z" />
</svg>
