<svg width="20" height="20" viewBox="0 0 20 20" fill="none" xmlns="http://www.w3.org/2000/svg">
<path fill-rule="evenodd" clip-rule="evenodd" d="M15.41 10.493L18.721 16.266C19.166 17.041 18.594 18 17.687 18H11.064C10.156 18 9.58401 17.041 10.03 16.266L13.341 10.493C13.795 9.702 14.956 9.702 15.41 10.493ZM15 12.5H13.75V14.75H15V12.5ZM15 15.75H13.75V17H15V15.75Z" fill="black"/>
<path d="M8.945 15.644L9.027 15.5H3.5C3.225 15.5 3 15.275 3 15V13.5H4.25C5.767 13.5 7 12.267 7 10.75C7 9.233 5.767 8 4.25 8H3V6.5C3 6.225 3.225 6 3.5 6H6.25C6.664 6 7 5.664 7 5.25V3.75C7 3.061 7.561 2.5 8.25 2.5C8.939 2.5 9.5 3.061 9.5 3.75V5.25C9.5 5.664 9.836 6 10.25 6H13C13.275 6 13.5 6.225 13.5 6.5V8.828C13.776 8.723 14.065 8.65 14.375 8.65C14.59 8.65 14.8 8.679 15 8.731V6.5C15 5.397 14.103 4.5 13 4.5H11V3.75C11 2.233 9.767 1 8.25 1C6.733 1 5.5 2.233 5.5 3.75V4.5H3.5C2.397 4.5 1.5 5.397 1.5 6.5V8.75C1.5 9.164 1.836 9.5 2.25 9.5H4.25C4.939 9.5 5.5 10.061 5.5 10.75C5.5 11.439 4.939 12 4.25 12H2.25C1.836 12 1.5 12.336 1.5 12.75V15C1.5 16.103 2.397 17 3.5 17H8.645C8.612 16.536 8.702 16.068 8.945 15.644Z" fill="black"/>
</svg>
