<svg width="20" height="20" viewBox="0 0 20 20" fill="none" xmlns="http://www.w3.org/2000/svg">
<path fill-rule="evenodd" clip-rule="evenodd" d="M10.375 13.75C10.375 15.956 12.169 17.75 14.375 17.75C16.581 17.75 18.375 15.956 18.375 13.75C18.375 11.544 16.581 9.75 14.375 9.75C12.169 9.75 10.375 11.544 10.375 13.75ZM15 13.75V11.5H13.75V13.75H15ZM15 16V14.75H13.75V16H15Z" fill="black"/>
<path d="M9.448 15.5H3.5C3.225 15.5 3 15.275 3 15V13.5H4.25C5.767 13.5 7 12.267 7 10.75C7 9.233 5.767 8 4.25 8H3V6.5C3 6.225 3.225 6 3.5 6H6.25C6.664 6 7 5.664 7 5.25V3.75C7 3.061 7.561 2.5 8.25 2.5C8.939 2.5 9.5 3.061 9.5 3.75V5.25C9.5 5.664 9.836 6 10.25 6H13C13.275 6 13.5 6.225 13.5 6.5V8.589C13.786 8.54 14.075 8.5 14.375 8.5C14.589 8.5 14.793 8.538 15 8.563V6.5C15 5.397 14.103 4.5 13 4.5H11V3.75C11 2.233 9.767 1 8.25 1C6.733 1 5.5 2.233 5.5 3.75V4.5H3.5C2.397 4.5 1.5 5.397 1.5 6.5V8.75C1.5 9.164 1.836 9.5 2.25 9.5H4.25C4.939 9.5 5.5 10.061 5.5 10.75C5.5 11.439 4.939 12 4.25 12H2.25C1.836 12 1.5 12.336 1.5 12.75V15C1.5 16.103 2.397 17 3.5 17H10.284C9.927 16.552 9.644 16.05 9.448 15.5Z" fill="black"/>
</svg>
