<!-- This Source Code Form is subject to the terms of the Mozilla Public
   - License, v. 2.0. If a copy of the MPL was not distributed with this
   - file, You can obtain one at http://mozilla.org/MPL/2.0/. -->
<svg xmlns="http://www.w3.org/2000/svg" width="16" height="16" fill="context-fill" fill-opacity="context-fill-opacity" viewBox="0 0 16 16">
    <path fill-rule="evenodd" d="M8.625.001a2.5 2.5 0 0 1 2.5 2.5v.603q.708.054 1.463.143A2.75 2.75 0 0 1 15 5.98v6.045a2.76 2.76 0 0 1-2.445 2.734 34 34 0 0 1-7.581.06l-.56-.063A2.755 2.755 0 0 1 2 12.023V10.75a.75.75 0 0 1 .75-.75h1.157c.56 0 1.006-.382 1.078-.826l.013-.117A1 1 0 0 0 4 8H2.75a.75.75 0 0 1-.75-.75V5.977c0-1.369 1.009-2.56 2.393-2.728q.71-.087 1.482-.146V2.5a2.5 2.5 0 0 1 2.5-2.5zm-.25 1.5a1 1 0 0 0-1 1v1.303a.75.75 0 0 1-.708.749c-.737.04-1.436.105-2.093.185A1.24 1.24 0 0 0 3.5 5.977V6.5H4a2.5 2.5 0 0 1 2.467 2.914c-.208 1.275-1.376 2.086-2.56 2.086H3.5v.522c0 .631.475 1.168 1.094 1.243a32.6 32.6 0 0 0 7.783.003l.12-.021a1.255 1.255 0 0 0 1.003-1.224V5.98c0-.633-.474-1.169-1.09-1.243a33 33 0 0 0-2.077-.182.75.75 0 0 1-.708-.75V2.502a1 1 0 0 0-1-1z" clip-rule="evenodd" />
</svg>
