<svg width="16" height="16" viewBox="0 0 16 16" fill="none" xmlns="http://www.w3.org/2000/svg">
<path d="M8 0.0112C6.59802 0.137436 5.5 1.31506 5.5 2.75V3.5H3.5C2.39579 3.5 1.5 4.39579 1.5 5.5V7.75C1.5 8.16421 1.83579 8.5 2.25 8.5H4.25C4.94079 8.5 5.5 9.05921 5.5 9.75C5.5 10.4408 4.94079 11 4.25 11H2.25C1.83579 11 1.5 11.3358 1.5 11.75V14C1.5 15.1042 2.39579 16 3.5 16H13C14.1042 16 15 15.1042 15 14V6H13.5V14C13.5 14.2758 13.2758 14.5 13 14.5H3.5C3.22421 14.5 3 14.2758 3 14V12.5H4.25C5.76921 12.5 7 11.2692 7 9.75C7 8.23079 5.76921 7 4.25 7H3V5.5C3 5.22421 3.22421 5 3.5 5H6.25C6.66421 5 7 4.66421 7 4.25V2.75C7 2.14484 7.42917 1.64065 8 1.52496V0.0112Z" fill="black"/>
</svg>
