<!-- This Source Code Form is subject to the terms of the Mozilla Public
   - License, v. 2.0. If a copy of the MPL was not distributed with this
   - file, You can obtain one at http://mozilla.org/MPL/2.0/. -->
<svg xmlns="http://www.w3.org/2000/svg" width="16" height="16" fill="context-fill" fill-opacity="context-fill-opacity" viewBox="0 0 16 16">
    <path d="M8.125 1.001a2 2 0 0 1 2 2v1.07c.628.04 1.255.096 1.867.17A2.26 2.26 0 0 1 14 6.478v6.046c0 1.138-.861 2.1-2.004 2.237a33.6 33.6 0 0 1-8.006-.002A2.26 2.26 0 0 1 2 12.52V11.5a.25.25 0 0 1 .25-.25h1.5a1.75 1.75 0 0 0 0-3.5h-1.5A.25.25 0 0 1 2 7.5V6.477c0-1.137.84-2.097 1.953-2.23a34 34 0 0 1 1.922-.179V3.001a2 2 0 0 1 2-2z" />
</svg>
