<svg width="16" height="16" viewBox="0 0 16 16" fill="none" xmlns="http://www.w3.org/2000/svg">
<path d="M8.125 1.00098C9.23 1.00098 10.125 1.89598 10.125 3.00098V4.07031C10.753 4.11031 11.3802 4.16724 11.9922 4.24023C13.1339 4.37631 13.9998 5.32978 14 6.47949V12.5254C13.9998 13.6632 13.1389 14.6247 11.9961 14.7617C10.6731 14.9207 9.328 15.001 8 15.001C6.66307 15.001 5.31417 14.9187 3.99023 14.7598C2.85623 14.6228 2 13.6635 2 12.5205V11.5C2 11.362 2.112 11.25 2.25 11.25H3.75C4.71599 11.25 5.49999 10.466 5.5 9.5C5.5 8.533 4.716 7.75 3.75 7.75H2.25C2.11201 7.75 2.00001 7.63799 2 7.5V6.47656C2.0002 5.33974 2.84026 4.38008 3.95312 4.24609C4.59208 4.1681 5.23804 4.10936 5.875 4.06836V3.00098C5.875 1.89598 6.77 1.00098 7.875 1.00098H8.125Z" fill="black"/>
</svg>
