<!-- This Source Code Form is subject to the terms of the Mozilla Public
   - License, v. 2.0. If a copy of the MPL was not distributed with this
   - file, You can obtain one at http://mozilla.org/MPL/2.0/. -->
<svg xmlns="http://www.w3.org/2000/svg" width="16" height="16" fill="context-fill" fill-opacity="context-fill-opacity" viewBox="0 0 16 16">
    <g clip-path="url(#clip0_8069_32634)">
        <path fill-rule="evenodd" d="M8.05 11.83a3.256 3.256 0 0 1 3.782-3.78c1.273.224 2.319 1.248 2.593 2.51a3.2 3.2 0 0 1-.417 2.39l1.772 1.77a.75.75 0 1 1-1.06 1.06l-1.773-1.772a3.2 3.2 0 0 1-2.39.416c-1.262-.275-2.285-1.321-2.507-2.594m3.2-2.33c-.965 0-1.75.785-1.75 1.75S10.285 13 11.25 13 13 12.215 13 11.25s-.785-1.75-1.75-1.75" clip-rule="evenodd" />
        <path d="M6.803.016A2 2 0 0 1 8.16.6l3.245 3.245c.375.374.586.882.586 1.412l.002 1.557a5 5 0 0 0-.744-.065c-.255 0-.503.04-.75.082V5.5h-3a1 1 0 0 1-1-1V1.512c-.165-.004-.344-.013-.5-.013-1.146 0-2.3.074-3.432.219-.615.079-1.068.619-1.068 1.24v9.085c0 .629.462 1.162 1.075 1.24 1.572.201 3.175.252 4.764.174a4.55 4.55 0 0 0 1.255 1.411C7.732 14.948 6.864 15 6 15c-1.205 0-2.421-.076-3.614-.229A2.75 2.75 0 0 1 0 12.043V2.97C0 1.604 1.114.388 2.47.219A29 29 0 0 1 6 0c.168 0 .49.008.803.016" />
    </g>
</svg>
