<!-- This Source Code Form is subject to the terms of the Mozilla Public
   - License, v. 2.0. If a copy of the MPL was not distributed with this
   - file, You can obtain one at http://mozilla.org/MPL/2.0/. -->
<svg xmlns="http://www.w3.org/2000/svg" width="16" height="16" fill="context-fill" fill-opacity="context-fill-opacity" viewBox="0 0 16 16">
    <path d="M6.633.304c3.095-.783 6.544.499 8.201 3.049l-.002-.001c1.189 1.832 2.467 5.817-2.344 11.937l-.373.46a.743.743 0 0 1-1.3-.5c0-.17.066-.319.16-.445l.334-.445c3.138-3.99 3.943-7.609 2.266-10.19C12.258 2.14 9.488 1.13 7 1.757c-2.29.58-3.759 2.394-4.058 5a.75.75 0 0 1-1.497-.014C1.772 3.448 3.697 1.047 6.633.304" />
    <path d="M5.01 5.838C5.335 3.813 7.387 2.6 9.438 2.93c2.033.327 3.59 2.094 3.3 4.097l-.003.043-.015.218a10 10 0 0 1-.1.761c-.108.633-.312 1.5-.7 2.44-.775 1.885-2.304 4.095-5.274 5.257h-.001l-.439.19a.75.75 0 0 1-.595-1.377l.463-.2.013-.005.012-.005c2.485-.973 3.765-2.807 4.434-4.432a10 10 0 0 0 .693-2.765 5 5 0 0 0 .014-.206v-.008l.001-.049.009-.049c.17-1.053-.656-2.204-2.05-2.428-1.376-.221-2.506.586-2.7 1.619v1.218a3.25 3.25 0 0 1-3.25 3.25H.75a.75.75 0 0 1 0-1.5h2.5A1.75 1.75 0 0 0 5 7.25V5.897z" />
    <path d="M8.75 6.25A.75.75 0 0 1 9.5 7v.75a5.75 5.75 0 0 1-5.75 5.75h-3a.75.75 0 0 1 0-1.5h3A4.25 4.25 0 0 0 8 7.75V7a.75.75 0 0 1 .75-.75" />
</svg>
