<!-- This Source Code Form is subject to the terms of the Mozilla Public
   - License, v. 2.0. If a copy of the MPL was not distributed with this
   - file, You can obtain one at http://mozilla.org/MPL/2.0/. -->
<svg xmlns="http://www.w3.org/2000/svg" width="16" height="16" fill="context-fill" fill-opacity="context-fill-opacity" viewBox="0 0 16 16">
    <path d="M.22 1.22a.75.75 0 0 1 1.061 0l13.5 13.5a.75.75 0 0 1-.53 1.281h-.001a.75.75 0 0 1-.53-.221l-.91-.91q-.155.207-.32.42l-.373.46a.743.743 0 0 1-1.3-.5c0-.17.066-.319.16-.445l.333-.445q.223-.284.426-.564l-1.071-1.071c-.896 1.188-2.178 2.3-4.021 3.021l-.439.19a.747.747 0 0 1-.985-.39.75.75 0 0 1 .392-.986l.463-.2c1.636-.64 2.749-1.647 3.51-2.714l-.922-.923A5.74 5.74 0 0 1 3.75 13.5h-3a.75.75 0 0 1 0-1.5h3a4.23 4.23 0 0 0 3.804-2.386l-1.25-1.25A3.26 3.26 0 0 1 3.25 10.5H.75a.75.75 0 0 1 0-1.5h2.499c.965 0 1.75-.785 1.75-1.75L5 7.06 3.259 5.319q-.227.667-.317 1.437a.75.75 0 0 1-1.497-.013c.094-.94.322-1.801.664-2.574L.22 2.28a.75.75 0 0 1 0-1.059M6.633.304c3.095-.783 6.544.499 8.201 3.049.999 1.538 2.045 4.601-.49 9.164l-1.103-1.103c1.454-2.808 1.587-5.316.335-7.244C12.26 2.141 9.49 1.13 7.001 1.758a5.2 5.2 0 0 0-2.237 1.177L3.71 1.881A6.65 6.65 0 0 1 6.633.304" />
    <path d="M6.576 3.501c.83-.532 1.845-.734 2.86-.57 2.13.342 3.607 2.204 3.295 4.149.001.08-.057 1.456-.691 3.131l-1.183-1.183c.341-1.135.381-2.002.384-2.09.19-1.226-.73-2.315-2.042-2.525a2.6 2.6 0 0 0-1.814.352c-.164.105-.301.232-.424.367L5.9 4.071a3.6 3.6 0 0 1 .675-.57" />
    <path d="M8.75 6.25A.75.75 0 0 1 9.5 7v.671L8.267 6.438a.74.74 0 0 1 .483-.188" />
</svg>
