<!-- This Source Code Form is subject to the terms of the Mozilla Public
   - License, v. 2.0. If a copy of the MPL was not distributed with this
   - file, You can obtain one at http://mozilla.org/MPL/2.0/. -->
<svg xmlns="http://www.w3.org/2000/svg" width="16" height="16" fill="context-fill" fill-opacity="context-fill-opacity" viewBox="0 0 16 16">
    <g clip-path="url(#clip0_8069_32597)">
        <path d="m15.88 11.909-2.19-2.19a.408.408 0 0 0-.696.29v1a5.7 5.7 0 0 0-5.184 4.484c-.091.426.454.695.717.348a6.1 6.1 0 0 1 4.467-2.396v.94c0 .365.44.547.697.29l2.189-2.19a.41.41 0 0 0 0-.576M6.42 13.8c.138 0 .266-.014.399-.022a7.25 7.25 0 0 1 4.695-4.032 1.91 1.91 0 0 1 1.143-1.487c.005-.047.012-.097.014-.14.077-1.604-.197-3.072-1.354-4.122-.03-.027-.098-.052-.141-.015-.058.05-.034.103-.015.143.07.146.296.602.445 1.46-.037-.214-.638-1.219-.974-1.613-.393-.459-1.325-1.468-1.513-1.71-.376-.488-.567-.949-.683-1.164a.2.2 0 0 0-.121-.094.2.2 0 0 0-.153.031A6.6 6.6 0 0 0 6.85 2.28c-.485.626-.838 1.511-.805 2.012q.005.072.06.121c.039.033.095.05.141.046C6.619 4.435 8.09 4.416 9.143 6c-.072-.109-.501-.257-.655-.3-.137-.04-.368-.078-.415.084A.19.19 0 0 0 8.135 6c.319.276 1.015 1.24.792 2.394-.221 1.142-1.182 2.001-2.458 2.053A3.11 3.11 0 0 1 4.056 9.43c-.366-.407-.564-.933-.512-1.293.143-.974 1.888-1.07 2.14-1.052h.015c.238 0 .57-.42.652-.596q.043-.094-.004-.142c-.034-.034-.197-.047-.444-.18-.524-.28-1.395-.858-1.645-1.236-.076-.115-.1-.599-.06-1.263a.19.19 0 0 0-.081-.166.2.2 0 0 0-.193-.014c-.384.181-.78.578-1.042.84-.077.077-.162.163-.208.201-.126-.18-.193-.626-.184-1.237a.2.2 0 0 0-.098-.17.19.19 0 0 0-.194.001C.66 4.072-.145 6.185.021 8.393c.14 1.87 2.071 5.407 6.397 5.407z" />
    </g>
</svg>
