<!-- This Source Code Form is subject to the terms of the Mozilla Public
   - License, v. 2.0. If a copy of the MPL was not distributed with this
   - file, You can obtain one at http://mozilla.org/MPL/2.0/. -->
<svg xmlns="http://www.w3.org/2000/svg" width="16" height="16" fill="context-fill" fill-opacity="context-fill-opacity" viewBox="0 0 16 16">
    <g clip-path="url(#clip0_8069_32523)">
        <path d="m15.88 11.909-2.189-2.19a.408.408 0 0 0-.697.29v1a5.7 5.7 0 0 0-5.184 4.484c-.09.426.454.695.717.348a6.1 6.1 0 0 1 4.467-2.396v.94c0 .365.44.547.697.29l2.19-2.19a.41.41 0 0 0 0-.576M9.842 10.445a9.1 9.1 0 0 0 .7-3.262q.972.157 1.927.397a5.4 5.4 0 0 1-.176.887 1.9 1.9 0 0 1 1.114-.368c.168 0 .33.029.488.071.065-.382.106-.771.106-1.171 0-3.859-3.14-7-7-7S0 3.141 0 7c0 3.767 2.993 6.84 6.725 6.986a7.22 7.22 0 0 1 3.117-3.541M7 12.207A7.67 7.67 0 0 1 4.948 7v-.003a22.5 22.5 0 0 1 4.103 0v.004a7.66 7.66 0 0 1-2.052 5.207zm5.408-6.184a24 24 0 0 0-1.97-.378 9.2 9.2 0 0 0-1.473-3.776 5.51 5.51 0 0 1 3.443 4.154M7 1.793a7.67 7.67 0 0 1 1.894 3.681 24 24 0 0 0-3.788 0A7.66 7.66 0 0 1 7 1.793m-1.965.076a9.16 9.16 0 0 0-1.473 3.776 24 24 0 0 0-1.97.378 5.51 5.51 0 0 1 3.443-4.154M1.531 7.581a22 22 0 0 1 1.927-.397 9.15 9.15 0 0 0 1.577 4.947 5.51 5.51 0 0 1-3.504-4.55" />
    </g>
</svg>
