<!-- This Source Code Form is subject to the terms of the Mozilla Public
   - License, v. 2.0. If a copy of the MPL was not distributed with this
   - file, You can obtain one at http://mozilla.org/MPL/2.0/. -->
<svg xmlns="http://www.w3.org/2000/svg" width="16" height="16" fill="context-fill" fill-opacity="context-fill-opacity" viewBox="0 0 16 16">
    <g clip-path="url(#clip0_8069_32647)">
        <path d="M8 7a1 1 0 1 1 0 2 1 1 0 0 1 0-2" />
        <path fill-rule="evenodd" d="M8 .5a3.76 3.76 0 0 1 3.635 2.796l.089-.003c2.06 0 3.733 1.65 3.774 3.7l.004.076a3.74 3.74 0 0 1-1.379 2.9c.28.52.447 1.114.447 1.755a3.777 3.777 0 0 1-3.776 3.776A3.76 3.76 0 0 1 8 14.259 3.76 3.76 0 0 1 5.208 15.5a3.777 3.777 0 0 1-3.776-3.776c0-.64.167-1.235.446-1.755A3.74 3.74 0 0 1 .5 7.069a3.777 3.777 0 0 1 3.776-3.776q.045 0 .088.003A3.76 3.76 0 0 1 8 .5M8 2a2.27 2.27 0 0 0-2.263 2.17.75.75 0 0 1-.927.694 2.2 2.2 0 0 0-.534-.071A2.277 2.277 0 0 0 2 7.069c0 .882.51 1.644 1.26 2.022a.75.75 0 0 1 .231 1.159 2.25 2.25 0 0 0-.56 1.474 2.277 2.277 0 0 0 4.378.874l.05-.1a.75.75 0 0 1 1.334.1 2.276 2.276 0 0 0 4.377-.874c0-.558-.21-1.068-.56-1.474a.75.75 0 0 1 .232-1.16 2.26 2.26 0 0 0 1.259-2L14 7.07a2.277 2.277 0 0 0-2.276-2.277c-.17 0-.344.026-.537.072a.75.75 0 0 1-.924-.694A2.27 2.27 0 0 0 8 2" clip-rule="evenodd" />
    </g>
</svg>
