<!-- This Source Code Form is subject to the terms of the Mozilla Public
   - License, v. 2.0. If a copy of the MPL was not distributed with this
   - file, You can obtain one at http://mozilla.org/MPL/2.0/. -->
<svg xmlns="http://www.w3.org/2000/svg" width="16" height="16" fill="context-fill" fill-opacity="context-fill-opacity" viewBox="0 0 16 16">
    <path d="M0 12V3a2 2 0 0 1 2-2h3.643a2 2 0 0 1 1.486.662L8.334 3H14a2 2 0 0 1 2 2v7a2 2 0 0 1-2 2H2a2 2 0 0 1-2-2m1.5 0a.5.5 0 0 0 .5.5h12a.5.5 0 0 0 .5-.5V5a.5.5 0 0 0-.5-.5H8a.75.75 0 0 1-.558-.248L6.015 2.666l-.001-.001a.5.5 0 0 0-.371-.165H2a.5.5 0 0 0-.5.5z" />
</svg>
