<!-- This Source Code Form is subject to the terms of the Mozilla Public
   - License, v. 2.0. If a copy of the MPL was not distributed with this
   - file, You can obtain one at http://mozilla.org/MPL/2.0/. -->
<svg xmlns="http://www.w3.org/2000/svg" width="16" height="16" fill="context-fill" fill-opacity="context-fill-opacity" viewBox="0 0 16 16">
    <path fill-rule="evenodd" d="M5.309 1c.78 0 1.523.331 2.044.91l.983 1.092c1.364.008 2.851.069 4.441.21l.746.073.258.04A2.76 2.76 0 0 1 16 6.024v5.949c0 1.4-1.049 2.59-2.454 2.737a53.6 53.6 0 0 1-11.068.003A2.76 2.76 0 0 1 0 11.974V3.75A2.75 2.75 0 0 1 2.75 1zM2.75 2.5c-.69 0-1.25.56-1.25 1.25v8.224c0 .639.49 1.181 1.133 1.248a52 52 0 0 0 10.758-.003c.628-.066 1.109-.601 1.109-1.245v-5.95a1.26 1.26 0 0 0-1.133-1.247A52 52 0 0 0 8 4.5a.75.75 0 0 1-.558-.248L6.237 2.914A1.25 1.25 0 0 0 5.31 2.5z" clip-rule="evenodd" />
</svg>
