<!-- This Source Code Form is subject to the terms of the Mozilla Public
   - License, v. 2.0. If a copy of the MPL was not distributed with this
   - file, You can obtain one at http://mozilla.org/MPL/2.0/. -->
<svg xmlns="http://www.w3.org/2000/svg" width="16" height="16" fill="context-fill" fill-opacity="context-fill-opacity" viewBox="0 0 16 16">
    <path fill-rule="evenodd" d="M.22.221a.75.75 0 0 1 1.061 0l14.5 14.5a.75.75 0 0 1-1.06 1.06l-.918-.917a2.7 2.7 0 0 1-.967.833 2.8 2.8 0 0 1-1.277.304c-.366 0-.734-.07-1.084-.213-1.226-.499-1.905-1.864-1.581-3.176l.088-.352.48-1.335a10 10 0 0 1-.2-.602L6.72 7.78c-.068.222-.129.408-.18.548l.567 1.685c.325 1.314-.354 2.68-1.58 3.18-.35.143-.717.213-1.083.213-.44 0-.878-.102-1.277-.305a2.65 2.65 0 0 1-1.38-1.713l-.17-.883a7.4 7.4 0 0 0-.467-1.84C.15 6.14.097 5.748.077 5.602c-.222-1.654.057-2.946.594-3.871l-.45-.45a.75.75 0 0 1 0-1.06m10.13 12.75c-.147.593.15 1.207.691 1.428.363.149.771.135 1.114-.04a1.16 1.16 0 0 0 .554-.589l-1.66-1.66-.367-.098zm-7.3-2.943c.017.102.045.2.057.301l.038.332.1.369c.076.31.296.578.603.734a1.35 1.35 0 0 0 1.113.04c.54-.22.838-.834.692-1.428l-.087-.347-.225-.615zM1.796 2.856c-.26.642-.373 1.5-.233 2.547.006.039.088.455.982 2.71.059.149.097.305.148.457l2.394-.643c.077-.198.262-.717.408-1.372z" clip-rule="evenodd" />
    <path d="M8.973 6.127c.716-2.818 2.587-3.781 4.14-3.478 1.668.323 3.26 2.197 2.81 5.548-.02.159-.07.532-1.072 3.063-.074.188-.127.383-.186.576l-1.186-1.185c.852-2.158.948-2.591.959-2.655.306-2.28-.578-3.675-1.61-3.874a1.3 1.3 0 0 0-.253-.025c-.8 0-1.718.712-2.148 2.4a4.2 4.2 0 0 0-.11.99L8.97 6.14q0-.008.002-.014M2.89.054c1.552-.306 3.423.663 4.138 3.48.067.262.106.529.132.797L2.885.055z" />
</svg>
