<!-- This Source Code Form is subject to the terms of the Mozilla Public
   - License, v. 2.0. If a copy of the MPL was not distributed with this
   - file, You can obtain one at http://mozilla.org/MPL/2.0/. -->
<svg xmlns="http://www.w3.org/2000/svg" width="16" height="16" fill="context-fill" fill-opacity="context-fill-opacity" viewBox="0 0 16 16">
    <path fill-rule="evenodd" d="M10.717 3.236c.803-.603 1.76-.786 2.653-.527 1.808.525 2.937 2.64 2.555 5.487-.023.17-.09.396-.155.598-.072.223-.165.488-.267.766a72 72 0 0 1-.652 1.7 7.4 7.4 0 0 0-.466 1.84v.002l-.04.33-.005.047-.01.044-.115.46c-.395 1.592-2.18 2.44-3.74 1.804-1.296-.527-1.89-1.93-1.581-3.177l.085-.348.01-.039.014-.038.46-1.267c-.02-.056-.046-.119-.07-.19-.1-.289-.228-.698-.338-1.176-.216-.936-.387-2.225-.082-3.425.333-1.313.948-2.294 1.744-2.891m-.291 9.424-.076.309v.002c-.138.553.112 1.129.591 1.38l.099.048.146.05c.724.208 1.423-.223 1.573-.826l.1-.404.036-.297q.018-.153.042-.306l-2.275-.609zm2.526-8.51c-.414-.12-.886-.052-1.335.285-.457.343-.919.992-1.19 2.061-.218.857-.106 1.87.09 2.72a10 10 0 0 0 .396 1.306l2.378.636q.076-.227.165-.452c.2-.503.442-1.123.639-1.662.098-.27.184-.514.247-.71q.047-.148.073-.243c.018-.067.023-.096.024-.096.328-2.45-.679-3.61-1.487-3.844M2.63.115c.894-.26 1.85-.077 2.654.526.796.597 1.41 1.578 1.744 2.892.305 1.2.134 2.488-.082 3.424-.11.478-.237.887-.338 1.177q-.038.106-.07.19l.46 1.266.014.038.01.04.085.348c.29 1.17-.215 2.475-1.347 3.068l-.235.109c-1.56.635-3.344-.212-3.739-1.803l-.114-.462-.01-.044-.007-.046-.04-.332a7.4 7.4 0 0 0-.467-1.84 73 73 0 0 1-.652-1.7A22 22 0 0 1 .23 6.2a4 4 0 0 1-.155-.598C-.307 2.755.823.639 2.631.115m.432 9.906q.024.152.042.305l.035.288.103.415.037.118c.22.577.955.952 1.68.657.544-.22.839-.837.692-1.428v-.002l-.078-.31-.237-.652zm1.322-8.18c-.449-.338-.92-.405-1.335-.285-.809.234-1.816 1.394-1.487 3.845l.022.095q.026.096.073.244c.063.196.15.44.248.71.197.538.438 1.158.638 1.662q.089.224.164.45l2.38-.636q.04-.099.103-.282c.087-.252.199-.608.294-1.024.196-.85.308-1.861.09-2.718-.271-1.07-.733-1.719-1.19-2.062" clip-rule="evenodd" />
</svg>
