<svg width="16" height="16" viewBox="0 0 16 16" fill="none" xmlns="http://www.w3.org/2000/svg">
<path d="M7.88477 3.46804C8.17777 3.17504 8.65329 3.17504 8.94629 3.46804L12.4893 7.01101C13.1711 7.69291 13.1709 8.80262 12.4893 9.48562L8.94629 13.0286C8.80029 13.1746 8.60802 13.2493 8.41602 13.2493L8.41504 13.2503C8.22309 13.2503 8.03075 13.1775 7.88477 13.0305C7.5918 12.7376 7.59188 12.262 7.88477 11.969L10.8535 9.00027H1.75C1.33586 9.00027 1.00012 8.66438 1 8.25027C1 7.83605 1.33579 7.50027 1.75 7.50027H10.8555L7.88477 4.52859C7.59218 4.2356 7.59201 3.76093 7.88477 3.46804Z" fill="black"/>
</svg>
