<svg width="16" height="16" viewBox="0 0 16 16" fill="none" xmlns="http://www.w3.org/2000/svg">
<path d="M8.88379 2.21804C9.17679 1.92504 9.65231 1.92504 9.94531 2.21804L14.4883 6.76101C14.8192 7.091 15.001 7.53135 15.001 7.99831C15.0009 8.46506 14.819 8.90472 14.4883 9.23562L9.94531 13.7786C9.79931 13.9246 9.60704 13.9993 9.41504 13.9993L9.41406 14.0003C9.22211 14.0003 9.02978 13.9275 8.88379 13.7805C8.59083 13.4876 8.5909 13.012 8.88379 12.719L12.8525 8.75027H1.75C1.33586 8.75027 1.00012 8.41438 1 8.00027C1 7.58605 1.33579 7.25027 1.75 7.25027H12.8545L8.88379 3.27859C8.5912 2.9856 8.59103 2.51093 8.88379 2.21804Z" fill="black"/>
</svg>
