<svg width="16" height="16" viewBox="0 0 16 16" fill="none" xmlns="http://www.w3.org/2000/svg">
<path d="M14.5 1C14.776 1 15 1.224 15 1.5V2.05371L13.8281 3.22461L13.832 3.22852L3.40332 13.6572L3.39941 13.6533L2.05273 15H1.49805C1.22205 15 0.998047 14.776 0.998047 14.5V10.707C0.998047 10.261 1.53656 10.0385 1.85156 10.3535L3.21875 11.7197L11.7188 3.21973L10.3535 1.85352C10.0385 1.53852 10.2621 1.00002 10.707 1H14.5Z" fill="black"/>
<path d="M5.16211 13.6611L5.64746 14.1465C5.96183 14.4615 5.73777 15 5.29297 15H3.82227L5.16211 13.6611Z" fill="black"/>
<path d="M15 5.29199C15 5.73779 14.4615 5.96084 14.1465 5.64648L13.6611 5.16113L15 3.82227V5.29199Z" fill="black"/>
</svg>
