<!-- This Source Code Form is subject to the terms of the Mozilla Public
   - License, v. 2.0. If a copy of the MPL was not distributed with this
   - file, You can obtain one at http://mozilla.org/MPL/2.0/. -->
<svg xmlns="http://www.w3.org/2000/svg" width="16" height="16" fill="context-fill" fill-opacity="context-fill-opacity" viewBox="0 0 16 16"><path d="M7.5 9a.5.5 0 0 1 .5.5v3.793a.5.5 0 0 1-.854.355L5.78 12.28 2.062 16 1 14.94l3.719-3.72-1.366-1.366A.5.5 0 0 1 3.707 9zM16 2.06l-3.72 3.72 1.367 1.366a.5.5 0 0 1-.354.854H9.5a.5.5 0 0 1-.5-.5V3.707a.5.5 0 0 1 .854-.354l1.366 1.366L14.94 1z"/></svg>