<!-- This Source Code Form is subject to the terms of the Mozilla Public
   - License, v. 2.0. If a copy of the MPL was not distributed with this
   - file, You can obtain one at http://mozilla.org/MPL/2.0/. -->
<svg xmlns="http://www.w3.org/2000/svg" width="16" height="16" fill="context-fill" fill-opacity="context-fill-opacity" viewBox="0 0 16 16">
    <path d="M14.5 1a.5.5 0 0 1 .5.5v3.793a.5.5 0 0 1-.854.354L12.78 4.28l-8.499 8.5 1.366 1.367a.5.5 0 0 1-.353.853H1.5a.5.5 0 0 1-.5-.5v-3.793a.5.5 0 0 1 .854-.355L3.22 11.72l8.5-8.5-1.366-1.365A.5.5 0 0 1 10.708 1z" />
</svg>
