<!-- This Source Code Form is subject to the terms of the Mozilla Public
   - License, v. 2.0. If a copy of the MPL was not distributed with this
   - file, You can obtain one at http://mozilla.org/MPL/2.0/. -->
<svg xmlns="http://www.w3.org/2000/svg" width="16" height="16" fill="context-fill" fill-opacity="context-fill-opacity" viewBox="0 0 16 16">
    <g clip-path="url(#clip0_4707_1112)">
        <path fill-rule="evenodd" d="M8 .862A2.74 2.74 0 0 0 6 0h-.25A2.75 2.75 0 0 0 3.3 4h-.8a2 2 0 0 0-2 2v1a2 2 0 0 0 1 1.732V14a2 2 0 0 0 2 2h9a2 2 0 0 0 2-2V8.732A2 2 0 0 0 15.5 7V6a2 2 0 0 0-2-2h-.8a2.75 2.75 0 0 0-2.45-4H10c-.788 0-1.499.331-2 .862M5.75 1.5a1.25 1.25 0 1 0 0 2.5h1.5V2.75c0-.69-.56-1.25-1.25-1.25zm3 4v2h4.75A.5.5 0 0 0 14 7V6a.5.5 0 0 0-.5-.5zm1.5-1.5a1.25 1.25 0 1 0 0-2.5H10c-.69 0-1.25.56-1.25 1.25V4zM2.5 5.5h4.75v2H2.5A.5.5 0 0 1 2 7V6a.5.5 0 0 1 .5-.5M8.75 9H13v5a.5.5 0 0 1-.5.5H8.75zm-1.5 0v5.5H3.5A.5.5 0 0 1 3 14V9z" clip-rule="evenodd" />
    </g>
</svg>
