<!-- This Source Code Form is subject to the terms of the Mozilla Public
   - License, v. 2.0. If a copy of the MPL was not distributed with this
   - file, You can obtain one at http://mozilla.org/MPL/2.0/. -->
<svg xmlns="http://www.w3.org/2000/svg" width="16" height="16" fill="context-fill" fill-opacity="context-fill-opacity" viewBox="0 0 16 16">
    <g clip-path="url(#clip0_8069_32521)">
        <path fill-rule="evenodd" d="M6 0c.79 0 1.499.334 2 .866A2.74 2.74 0 0 1 10 0h.25A2.75 2.75 0 0 1 13 2.75c0 .499-.136.965-.368 1.368q.505.025 1 .055A1.996 1.996 0 0 1 15.5 6.17v1.157c0 .734-.4 1.384-1 1.734v3.958a2.754 2.754 0 0 1-2.414 2.732 34 34 0 0 1-8.14.005A2.76 2.76 0 0 1 1.5 13.023V9.065a2.01 2.01 0 0 1-1-1.737V6.172c0-1.054.824-1.937 1.88-2.001q.497-.029.987-.053A2.75 2.75 0 0 1 5.75 0zM3 13.023c0 .632.476 1.166 1.123 1.244l.9.095q1.056.1 2.227.128V9.493A92 92 0 0 1 3 9.361zM13 9.36a93 93 0 0 1-4.25.133v4.994a32 32 0 0 0 3.155-.225A1.255 1.255 0 0 0 13 13.02zM8.75 7.994a91 91 0 0 0 4.78-.163.506.506 0 0 0 .47-.503V6.171a.496.496 0 0 0-.46-.501 91 91 0 0 0-4.79-.164zm-1.5-2.49c-1.52.014-3.115.064-4.78.165a.506.506 0 0 0-.47.503v1.156c0 .273.208.486.46.502q2.284.142 4.79.163zM5.75 1.5a1.25 1.25 0 1 0 0 2.5h1.5V2.75c0-.69-.56-1.25-1.25-1.25zm4.25 0c-.69 0-1.25.56-1.25 1.25V4h1.5a1.25 1.25 0 1 0 0-2.5z" clip-rule="evenodd" />
    </g>
</svg>
