<!-- This Source Code Form is subject to the terms of the Mozilla Public
   - License, v. 2.0. If a copy of the MPL was not distributed with this
   - file, You can obtain one at http://mozilla.org/MPL/2.0/. -->
<svg xmlns="http://www.w3.org/2000/svg" width="16" height="16" fill="context-fill" fill-opacity="context-fill-opacity" viewBox="0 0 16 16">
    <g clip-path="url(#clip0_6596_1330)">
        <path d="m16.001 14.94-1.06 1.061-1.844-1.844A7.96 7.96 0 0 1 8 16c-4.411 0-8-3.589-8-8a7.96 7.96 0 0 1 1.842-5.098L0 1.061 1.06 0zM5.54 8.75A9 9 0 0 0 8 14.21a9 9 0 0 0 1.96-3.189L7.69 8.75zm-3.993 0a6.52 6.52 0 0 0 4.474 5.44A10.5 10.5 0 0 1 4.04 8.75zm9.564 3.422c-.3.711-.675 1.39-1.132 2.018a6.4 6.4 0 0 0 2.047-1.103zM2.917 3.978a6.4 6.4 0 0 0-1.37 3.272H4.04a10 10 0 0 1 .31-1.84zm2.69 2.69q-.043.29-.067.582h.65zM8 0c4.411 0 8 3.589 8 8 0 1.48-.412 2.865-1.115 4.056l-1.112-1.112c.345-.675.59-1.409.681-2.194h-2.493c-.008.113-.036.223-.048.335L10.078 7.25h.382A9 9 0 0 0 8 1.79a9 9 0 0 0-1.418 1.964L5.489 2.66c.17-.288.334-.58.532-.85-.338.108-.66.25-.972.41L3.944 1.116A7.95 7.95 0 0 1 8 0m1.979 1.81a10.5 10.5 0 0 1 1.981 5.44h2.493A6.52 6.52 0 0 0 9.98 1.81" />
    </g>
</svg>
