<!-- This Source Code Form is subject to the terms of the Mozilla Public
   - License, v. 2.0. If a copy of the MPL was not distributed with this
   - file, You can obtain one at http://mozilla.org/MPL/2.0/. -->
   <svg xmlns="http://www.w3.org/2000/svg" width="16" height="16" fill="context-fill" fill-opacity="context-fill-opacity"><g fill-rule="evenodd" clip-path="url(#a)" clip-rule="evenodd"><path d="M10.466 8.492c.454-.79 1.615-.79 2.07 0l3.31 5.774c.445.775-.127 1.734-1.034 1.734H8.188c-.906 0-1.478-.959-1.034-1.734l3.312-5.774ZM10.875 15h1.25v-1.25h-1.25v1.25Zm0-2.25h1.25v-2.25h-1.25v2.25Z"/><path d="M6.96.001c3.838 0 6.96 3.141 6.96 7 0 .449-.045.887-.126 1.313l-.252-.442a2.4 2.4 0 0 0-2.107-1.22c-.883 0-1.671.455-2.107 1.22l-.571 1.001c.093-.368.167-.741.204-1.122H4.96A7.686 7.686 0 0 0 6.9 12.13l-.864 1.514c-.049.086-.073.18-.111.27A6.993 6.993 0 0 1 0 7C0 3.141 3.122.001 6.96.001ZM1.549 7.75a5.5 5.5 0 0 0 3.458 4.38 9.2 9.2 0 0 1-1.538-4.38h-1.92Zm3.458-5.88a5.504 5.504 0 0 0-3.458 4.38h1.92a9.188 9.188 0 0 1 1.538-4.38Zm1.953-.077a7.687 7.687 0 0 0-2 4.457h4a7.693 7.693 0 0 0-2-4.457Zm1.954.076a9.193 9.193 0 0 1 1.54 4.381h1.919a5.503 5.503 0 0 0-3.459-4.38Z"/></g><defs><clipPath id="a"><path fill="#fff" d="M0 0h16v16H0z"/></clipPath></defs></svg>