<!-- This Source Code Form is subject to the terms of the Mozilla Public
   - License, v. 2.0. If a copy of the MPL was not distributed with this
   - file, You can obtain one at http://mozilla.org/MPL/2.0/. -->
<svg xmlns="http://www.w3.org/2000/svg" width="16" height="16" fill="context-fill" fill-opacity="context-fill-opacity" viewBox="0 0 16 16">
    <path fill-rule="evenodd" d="M8 0a8 8 0 1 1 0 16A8 8 0 0 1 8 0m0 7.75c-.728 0-1.568.033-2.497.122L5.5 8a8.97 8.97 0 0 0 2.499 6.22A8.97 8.97 0 0 0 10.501 8l-.004-.13A26 26 0 0 0 8 7.75m-4 .309c-.782.121-1.61.286-2.475.508a6.5 6.5 0 0 0 4.496 5.624A10.45 10.45 0 0 1 4 8.06m7.999 0a10.45 10.45 0 0 1-2.02 6.132 6.5 6.5 0 0 0 4.495-5.623 26 26 0 0 0-2.475-.508M9.98 1.809a10.45 10.45 0 0 1 1.918 4.72 28 28 0 0 1 2.527.485A6.51 6.51 0 0 0 9.98 1.808m-3.96 0A6.51 6.51 0 0 0 1.575 7.01c.885-.213 1.73-.37 2.529-.484a10.45 10.45 0 0 1 1.918-4.72M8 1.779a8.97 8.97 0 0 0-2.346 4.572 27.5 27.5 0 0 1 4.693 0A8.97 8.97 0 0 0 8 1.779" clip-rule="evenodd" />
</svg>
