<!-- This Source Code Form is subject to the terms of the Mozilla Public
   - License, v. 2.0. If a copy of the MPL was not distributed with this
   - file, You can obtain one at http://mozilla.org/MPL/2.0/. -->
<svg xmlns="http://www.w3.org/2000/svg" width="16" height="16" fill="context-fill" fill-opacity="context-fill-opacity" viewBox="0 0 16 16">
    <path d="M8 0a8 8 0 1 1 0 16A8 8 0 0 1 8 0M5.534 8.75A8.96 8.96 0 0 0 8 14.22a8.96 8.96 0 0 0 2.468-5.47zm-3.99 0a6.5 6.5 0 0 0 4.477 5.441A10.45 10.45 0 0 1 4.027 8.75zm10.43 0a10.45 10.45 0 0 1-1.995 5.441 6.5 6.5 0 0 0 4.477-5.441zM7.999 1.78a8.96 8.96 0 0 0-2.465 5.47h4.933a8.96 8.96 0 0 0-2.468-5.47m1.981.028a10.45 10.45 0 0 1 1.994 5.442h2.482A6.5 6.5 0 0 0 9.98 1.808m-3.96 0A6.5 6.5 0 0 0 1.545 7.25h2.483a10.45 10.45 0 0 1 1.994-5.442" />
</svg>
