<!-- This Source Code Form is subject to the terms of the Mozilla Public
   - License, v. 2.0. If a copy of the MPL was not distributed with this
   - file, You can obtain one at http://mozilla.org/MPL/2.0/. -->
<svg xmlns="http://www.w3.org/2000/svg" width="16" height="16" fill="context-fill" fill-opacity="context-fill-opacity" viewBox="0 0 16 16">
    <g fill-rule="evenodd" clip-path="url(#clip0_13802_57516)" clip-rule="evenodd">
        <path d="M10.42 7.344a1.25 1.25 0 0 1 2.16 0l3.25 5.579c.446.769-.031 1.76-.914 1.868a28 28 0 0 1-6.816.002 1.25 1.25 0 0 1-.928-1.872zm1.08 5.406a.625.625 0 1 0 0 1.25.625.625 0 0 0 0-1.25m0-3.5a.625.625 0 0 0-.625.625v1.5a.625.625 0 1 0 1.25 0v-1.5a.625.625 0 0 0-.625-.625" />
        <path d="M7-.001c3.859 0 7 3.14 7 7 0 .093-.01.183-.014.275l-.326-.56a2.47 2.47 0 0 0-1.352-1.093A5.5 5.5 0 0 0 8.965 1.87a9.2 9.2 0 0 1 1.473 3.777c.045.007.09.018.134.025A2.46 2.46 0 0 0 9.34 6.715l-.299.514c.002-.077.01-.152.01-.229v-.003a22.5 22.5 0 0 0-4.102 0V7a7.65 7.65 0 0 0 1.547 4.599l-.404.693a2.5 2.5 0 0 0-.303 1.596C2.506 13.312 0 10.446 0 7 0 3.14 3.141-.001 7-.001M3.458 7.184q-.972.155-1.927.397a5.51 5.51 0 0 0 3.504 4.55 9.16 9.16 0 0 1-1.577-4.947m1.577-5.315a5.51 5.51 0 0 0-3.443 4.154 24 24 0 0 1 1.97-.377 9.2 9.2 0 0 1 1.473-3.777M7 1.793a7.67 7.67 0 0 0-1.894 3.68c1.261-.098 2.527-.1 3.788 0A7.67 7.67 0 0 0 7 1.794" />
    </g>
</svg>
