<!-- This Source Code Form is subject to the terms of the Mozilla Public
   - License, v. 2.0. If a copy of the MPL was not distributed with this
   - file, You can obtain one at http://mozilla.org/MPL/2.0/. -->
<svg width="16" height="16" fill="context-fill" fill-opacity="context-fill-opacity" xmlns="http://www.w3.org/2000/svg"><path fill-rule="evenodd" clip-rule="evenodd" d="M8 0a8 8 0 1 1 0 16A8 8 0 0 1 8 0zM5.534 8.75A8.959 8.959 0 0 0 8 14.22a8.962 8.962 0 0 0 2.468-5.47H5.534zm-3.99 0a6.504 6.504 0 0 0 4.477 5.441A10.445 10.445 0 0 1 4.027 8.75H1.544zm10.43 0a10.447 10.447 0 0 1-1.995 5.441 6.504 6.504 0 0 0 4.477-5.441h-2.482zM7.999 1.78a8.96 8.96 0 0 0-2.465 5.47h4.933a8.96 8.96 0 0 0-2.468-5.47zm1.981.028a10.446 10.446 0 0 1 1.994 5.442h2.482A6.505 6.505 0 0 0 9.98 1.808zm-3.96 0A6.505 6.505 0 0 0 1.545 7.25h2.483a10.446 10.446 0 0 1 1.994-5.442z"/></svg>