<!-- This Source Code Form is subject to the terms of the Mozilla Public
   - License, v. 2.0. If a copy of the MPL was not distributed with this
   - file, You can obtain one at http://mozilla.org/MPL/2.0/. -->
<svg xmlns="http://www.w3.org/2000/svg" width="16" height="16" fill="context-fill" fill-opacity="context-fill-opacity" viewBox="0 0 16 16">
    <g fill-rule="evenodd" clip-path="url(#clip0_8069_32514)" clip-rule="evenodd">
        <path d="M.22.22a.75.75 0 0 1 1.06 0L2.9 1.84l.011-.009 1.08 1.08-.012.008.908.907.006-.012L6.048 4.97l-.005.013 1.31 1.31h.018l1.497 1.497h-.02l1.542 1.54.003-.015 1.276 1.276-.005.014 1.423 1.422.009-.008 1.071 1.072-.008.009 1.621 1.62a.75.75 0 1 1-1.06 1.061l-1.623-1.623A7.96 7.96 0 0 1 8 16c-4.411 0-8-3.589-8-8 0-1.935.693-3.712 1.842-5.098L.22 1.28a.75.75 0 0 1 0-1.06m6.523 7.584c-.412.018-.825.043-1.236.083-.001.038-.006.074-.006.112a9 9 0 0 0 2.5 6.21 9 9 0 0 0 1.96-3.186zM1.53 8.58a6.51 6.51 0 0 0 4.492 5.61 10.5 10.5 0 0 1-2.018-6.118q-1.248.196-2.474.508m9.592 3.602A10.5 10.5 0 0 1 9.98 14.19a6.5 6.5 0 0 0 2.05-1.101zM2.917 3.978a6.4 6.4 0 0 0-1.335 3.046 27 27 0 0 1 2.535-.494q.082-.57.228-1.125zM8 0c4.411 0 8 3.589 8 8a7.94 7.94 0 0 1-1.11 4.044l-1.112-1.113c.367-.72.618-1.507.693-2.35q-1.225-.315-2.474-.509c-.002.341-.027.679-.062 1.015L9.163 6.315c.393.017.786.017 1.178.05A9 9 0 0 0 8 1.79a9 9 0 0 0-1.406 1.957L5.49 2.643c.167-.283.337-.567.531-.833a6.5 6.5 0 0 0-.96.405L3.957 1.109A7.94 7.94 0 0 1 8 0m1.98 1.81a10.5 10.5 0 0 1 1.904 4.722c.852.121 1.697.293 2.535.494a6.51 6.51 0 0 0-4.44-5.215" />
    </g>
</svg>
