<svg width="16" height="16" viewBox="0 0 16 16" fill="none" xmlns="http://www.w3.org/2000/svg">
<path fill-rule="evenodd" clip-rule="evenodd" d="M6.25098 1.00083C7.53013 1.00389 8.72942 1.06522 9.83594 1.16294C10.5325 1.22449 11.162 1.55687 11.6172 2.06236L11.7754 2.23814H13.5V1.99986C13.5001 1.58576 13.8359 1.24986 14.25 1.24986C14.6641 1.24986 14.9999 1.58576 15 1.99986V7.49986C15 7.91407 14.6642 8.24986 14.25 8.24986C13.8358 8.24986 13.5 7.91407 13.5 7.49986V6.99693H11.9463L10.8447 7.64537C10.7789 7.68409 10.7072 7.71314 10.6328 7.73033C10.5872 7.74088 10.5398 7.74834 10.4922 7.75865L10.4785 13.7547C10.4755 14.9961 9.46906 15.9999 8.22852 15.9999H7.77148C6.60839 15.9996 5.65172 15.1163 5.53418 13.9842L5.52148 13.7547L5.50488 7.54966L4.55957 6.99693H1.75C1.33579 6.99693 1 6.66114 1 6.24693V4.78697C1.00007 2.77931 2.57341 1.10367 4.59375 1.02818L5.41113 1.00572C5.68718 1.00088 5.96717 0.999829 6.25098 1.00083ZM7.02148 13.7508L7.02637 13.828C7.06577 14.2055 7.38459 14.4996 7.77148 14.4999H8.22852C8.64193 14.4999 8.97751 14.1654 8.97852 13.7508L8.99219 7.97251C8.84503 7.98273 8.69365 7.99174 8.53809 7.99595L8.17773 7.99986C7.7579 7.99688 7.36603 7.96753 7.00586 7.92466L7.02148 13.7508ZM5.4375 2.50572L4.65039 2.5272C3.45296 2.57185 2.50007 3.56884 2.5 4.78697V5.49693H4.7627C4.89572 5.49693 5.02676 5.53233 5.1416 5.59947L6.32227 6.2899C6.82817 6.40014 7.4591 6.49364 8.1875 6.49888C8.97747 6.50408 9.65786 6.40522 10.1904 6.28892L11.3613 5.60044C11.4766 5.53261 11.6084 5.49693 11.7422 5.49693H13.5V3.73814H11.4424C11.2299 3.73814 11.027 3.64795 10.8848 3.49009L10.5029 3.06626C10.2882 2.82778 10.0035 2.68356 9.7041 2.65708C8.63664 2.56281 7.48088 2.5028 6.24805 2.49986C5.97448 2.49888 5.70361 2.50106 5.4375 2.50572Z" fill="black"/>
</svg>
