<!-- This Source Code Form is subject to the terms of the Mozilla Public
   - License, v. 2.0. If a copy of the MPL was not distributed with this
   - file, You can obtain one at http://mozilla.org/MPL/2.0/. -->
<svg xmlns="http://www.w3.org/2000/svg" width="16" height="16" fill="context-fill" fill-opacity="context-fill-opacity" viewBox="0 0 16 16">
    <path d="M5.251 1.491a.75.75 0 0 1 .75.75v6.942a.75.75 0 0 1-1.203.598L3.78 9.01a1 1 0 0 1-.077-.066.72.72 0 0 0-1.017 1.017l4.984 3.974c.521.362 1.176.568 1.857.568h.665a3.31 3.31 0 0 0 3.307-3.307V3.844a.75.75 0 0 1 1.5 0v7.35c0 1.36-.58 2.662-1.591 3.573A4.8 4.8 0 0 1 10.193 16h-.665c-.99 0-1.943-.3-2.755-.868l-5.085-4.058c-.927-.922-.927-2.33-.062-3.193a2.224 2.224 0 0 1 2.875-.225V2.241a.75.75 0 0 1 .75-.75" />
    <path d="M8.25 0A.75.75 0 0 1 9 .75v6.5a.75.75 0 0 1-1.5 0V.75A.75.75 0 0 1 8.25 0M11.25 1a.75.75 0 0 1 .75.75v5.5a.75.75 0 0 1-1.5 0v-5.5a.75.75 0 0 1 .75-.75" />
</svg>
