<!-- This Source Code Form is subject to the terms of the Mozilla Public
   - License, v. 2.0. If a copy of the MPL was not distributed with this
   - file, You can obtain one at http://mozilla.org/MPL/2.0/. -->
<svg xmlns="http://www.w3.org/2000/svg" width="16" height="16" fill="context-fill" fill-opacity="context-fill-opacity" viewBox="0 0 16 16">
    <g clip-path="url(#clip0_8069_32645)">
        <path d="M4.509 7.403a.75.75 0 0 1 1.056.089c.261.31.44.5.448.507a25 25 0 0 0 1.321 1.288.75.75 0 0 1-.502 1.307h.001a.74.74 0 0 1-.502-.194 25 25 0 0 1-1.405-1.368s-.206-.217-.507-.572a.75.75 0 0 1 .09-1.057" />
        <path fill-rule="evenodd" d="M4.65 1.008c1.291.08 2.485.775 3.346 1.93.835-1.119 1.983-1.797 3.233-1.903 1.354-.121 2.702.472 3.687 1.616a4.41 4.41 0 0 1 1.071 3.247q0 .029-.002.057c-.165 2.186-2.656 4.865-2.94 5.164-.262.276-.558.576-.888.89a22.6 22.6 0 0 1-2.549 2.075l-.02.014a2.76 2.76 0 0 1-1.593.506l.001-.002c-.555 0-1.11-.166-1.583-.5a22 22 0 0 1-2.054-1.614 26 26 0 0 1-1.407-1.37c-.285-.3-2.774-2.98-2.94-5.164a5 5 0 0 1 .173-1.688c.16-.528.415-1.02.76-1.459C1.91 1.578 3.255.923 4.65 1.008m-.095 1.496c-.9-.069-1.766.38-2.431 1.229a3 3 0 0 0-.505.967c0 .003-.156.543-.11 1.142.105 1.403 1.862 3.54 2.53 4.244.423.445.87.88 1.323 1.288.536.481 1.162.973 1.914 1.502a1.25 1.25 0 0 0 1.445-.002l.02-.014a21 21 0 0 0 2.382-1.939q.466-.444.835-.836c.656-.693 2.364-2.767 2.524-4.17l.003-.068a2.93 2.93 0 0 0-.707-2.219c-.676-.783-1.53-1.17-2.424-1.1-.937.08-1.807.68-2.385 1.644-.445.74-1.524.71-1.93.032-.612-1.02-1.518-1.64-2.484-1.7" clip-rule="evenodd" />
    </g>
</svg>
