<!-- This Source Code Form is subject to the terms of the Mozilla Public
   - License, v. 2.0. If a copy of the MPL was not distributed with this
   - file, You can obtain one at http://mozilla.org/MPL/2.0/. -->
<svg xmlns="http://www.w3.org/2000/svg" width="16" height="16" fill="context-fill" fill-opacity="context-fill-opacity" viewBox="0 0 16 16">
    <path d="M14.5 8a6.5 6.5 0 1 0-13 0 6.5 6.5 0 0 0 13 0M16 8A8 8 0 1 1 0 8a8 8 0 0 1 16 0" />
    <path d="M8.75 11h-1.5v1.5h1.5zm.31-4.78a1.06 1.06 0 0 0-2.12 0h-1.5a2.56 2.56 0 1 1 3.646 2.32h-.001c-.226.106-.334.293-.334.47v.739l-1.5.002v-.74c0-.778.45-1.423 1.072-1.765l.127-.064c.362-.171.61-.538.61-.961" />
</svg>
