<!-- This Source Code Form is subject to the terms of the Mozilla Public
   - License, v. 2.0. If a copy of the MPL was not distributed with this
   - file, You can obtain one at http://mozilla.org/MPL/2.0/. -->
<svg xmlns="http://www.w3.org/2000/svg" width="16" height="16" fill="context-fill" fill-opacity="context-fill-opacity" viewBox="0 0 16 16">
    <path d="M8 10.688a.875.875 0 1 1 0 1.75.875.875 0 0 1 0-1.75M5.524 5.47A2.563 2.563 0 0 1 8.46 3.603c1.164.204 2.033 1.232 2.099 2.384l.002.233c-.04 1.026-.675 1.63-1.154 2.007l-.027.02-.629.45v.49a.75.75 0 0 1-1.5 0V8.57c0-.404.196-.781.521-1.015l.706-.506c.387-.305.57-.542.584-.885l-.001-.096a1.1 1.1 0 0 0-.77-.966l-.09-.02a1.06 1.06 0 0 0-1.224.77.75.75 0 0 1-1.452-.381" />
    <path fill-rule="evenodd" d="M8 0a8 8 0 1 1 0 16A8 8 0 0 1 8 0m0 1.5a6.5 6.5 0 1 0 0 13 6.5 6.5 0 0 0 0-13" clip-rule="evenodd" />
</svg>
