<!-- This Source Code Form is subject to the terms of the Mozilla Public
   - License, v. 2.0. If a copy of the MPL was not distributed with this
   - file, You can obtain one at http://mozilla.org/MPL/2.0/. -->
<svg xmlns="http://www.w3.org/2000/svg" width="16" height="16" fill="context-fill" fill-opacity="context-fill-opacity" viewBox="0 0 16 16">
    <path fill-rule="evenodd" d="M8 0a8 8 0 1 1 0 16A8 8 0 0 1 8 0m0 10.887a.875.875 0 1 0 0 1.75.875.875 0 0 0 0-1.75m.459-7.335a2.563 2.563 0 0 0-2.935 1.867.75.75 0 0 0 1.452.38 1.06 1.06 0 0 1 1.223-.77l.09.02a1.1 1.1 0 0 1 .77.968l.002.095c-.014.343-.197.58-.584.885l-.706.506a1.25 1.25 0 0 0-.521 1.016v.618a.75.75 0 0 0 1.5 0v-.49l.629-.45.027-.021c.479-.377 1.115-.98 1.154-2.007l-.002-.232c-.066-1.153-.935-2.18-2.099-2.385" clip-rule="evenodd" />
</svg>
