<!-- This Source Code Form is subject to the terms of the Mozilla Public
   - License, v. 2.0. If a copy of the MPL was not distributed with this
   - file, You can obtain one at http://mozilla.org/MPL/2.0/. -->
<svg width="16" height="16" fill="context-fill" fill-opacity="context-fill-opacity" xmlns="http://www.w3.org/2000/svg"><path fill-rule="evenodd" clip-rule="evenodd" d="M8 0c4.411 0 8 3.589 8 8s-3.589 8-8 8-8-3.589-8-8 3.589-8 8-8zm-.75 11.25v1.5h1.5v-1.5h-1.5zM8 3.661a2.56 2.56 0 0 0-2.56 2.56h1.5a1.06 1.06 0 1 1 1.51.96l-.127.065c-.621.342-1.072.987-1.072 1.765v.74l1.501-.002-.001-.74c0-.176.109-.363.334-.468V8.54A2.562 2.562 0 0 0 8 3.661z"/></svg>