<svg width="16" height="16" viewBox="0 0 16 16" fill="none" xmlns="http://www.w3.org/2000/svg">
<path d="M8 10.6875C8.48325 10.6875 8.875 11.0793 8.875 11.5625C8.87474 12.0455 8.48309 12.4375 8 12.4375C7.51691 12.4375 7.12526 12.0455 7.125 11.5625C7.125 11.0793 7.51675 10.6875 8 10.6875Z" fill="black"/>
<path d="M5.52441 5.46973C5.8498 4.23185 7.08042 3.36059 8.45898 3.60254C9.62349 3.80727 10.4921 4.83465 10.5576 5.9873L10.5596 6.21973C10.5205 7.24619 9.88467 7.84977 9.40625 8.22656C9.39753 8.23343 9.38791 8.24061 9.37891 8.24707L8.75 8.69727V9.1875C8.74974 9.60149 8.41405 9.9375 8 9.9375C7.58595 9.9375 7.25026 9.60149 7.25 9.1875V8.56934C7.25002 8.16501 7.44574 7.78755 7.77148 7.55371L8.47656 7.04785C8.86387 6.74283 9.04736 6.50601 9.06055 6.16309L9.05957 6.06738C9.03229 5.62369 8.70439 5.2179 8.28906 5.10059L8.19922 5.08008C7.61803 4.97814 7.11039 5.33876 6.97559 5.85059C6.87017 6.25088 6.45996 6.49081 6.05957 6.38574C5.6591 6.28048 5.41938 5.8702 5.52441 5.46973Z" fill="black"/>
<path fill-rule="evenodd" clip-rule="evenodd" d="M8 0C12.4183 0 16 3.58172 16 8C16 12.4183 12.4183 16 8 16C3.58172 16 0 12.4183 0 8C0 3.58172 3.58172 0 8 0ZM8 1.5C4.41015 1.5 1.5 4.41015 1.5 8C1.5 11.5899 4.41015 14.5 8 14.5C11.5899 14.5 14.5 11.5899 14.5 8C14.5 4.41015 11.5899 1.5 8 1.5Z" fill="black"/>
</svg>
