<svg width="16" height="16" viewBox="0 0 16 16" fill="none" xmlns="http://www.w3.org/2000/svg">
<path d="M14.5 8C14.5 4.41015 11.5899 1.5 8 1.5C4.41015 1.5 1.5 4.41015 1.5 8C1.5 11.5899 4.41015 14.5 8 14.5C11.5899 14.5 14.5 11.5899 14.5 8ZM16 8C16 12.4183 12.4183 16 8 16C3.58172 16 0 12.4183 0 8C0 3.58172 3.58172 0 8 0C12.4183 0 16 3.58172 16 8Z" fill="black"/>
<path d="M8.75 11H7.25V12.5H8.75V11Z" fill="black"/>
<path d="M9.06012 6.22057C9.05989 5.63498 8.58521 5.161 7.99957 5.161C7.41413 5.16123 6.94023 5.63512 6.94 6.22057H5.44C5.44023 4.8067 6.5857 3.66123 7.99957 3.661C9.41364 3.661 10.5599 4.80655 10.5601 6.22057C10.5601 7.24871 9.95442 8.13225 9.08551 8.53991L9.08453 8.54088C8.85924 8.64613 8.7507 8.83319 8.75055 9.00963L8.75152 9.74889L7.25152 9.75084L7.25055 9.01061C7.25069 8.23327 7.70109 7.58774 8.32281 7.24596L8.44977 7.18151C8.81216 7.0109 9.06012 6.64393 9.06012 6.22057Z" fill="black"/>
</svg>
