<!-- This Source Code Form is subject to the terms of the Mozilla Public
   - License, v. 2.0. If a copy of the MPL was not distributed with this
   - file, You can obtain one at http://mozilla.org/MPL/2.0/. -->
<svg xmlns="http://www.w3.org/2000/svg" width="16" height="16" fill="context-fill" fill-opacity="context-fill-opacity" viewBox="0 0 16 16">
    <path d="M8 4a.75.75 0 0 1 .75.75v3.173c0 .088.048.171.126.217l2.04 1.178a.75.75 0 0 1-.75 1.3l-2.041-1.18h-.001a1.75 1.75 0 0 1-.874-1.515V4.75A.75.75 0 0 1 8 4" />
    <path fill-rule="evenodd" d="M8 0a8 8 0 1 1 0 16A8 8 0 0 1 8 0m0 1.5a6.5 6.5 0 1 0 0 13 6.5 6.5 0 0 0 0-13" clip-rule="evenodd" />
</svg>
