<!-- This Source Code Form is subject to the terms of the Mozilla Public
   - License, v. 2.0. If a copy of the MPL was not distributed with this
   - file, You can obtain one at http://mozilla.org/MPL/2.0/. -->
<svg xmlns="http://www.w3.org/2000/svg" width="16" height="16" fill="context-fill" fill-opacity="context-fill-opacity" viewBox="0 0 16 16">
    <path fill-rule="evenodd" d="M6.41 1.138a2.75 2.75 0 0 1 3.183 0 36 36 0 0 1 6.223 5.617.75.75 0 0 1-1.13.988q-.091-.104-.185-.207v4.5a2.75 2.75 0 0 1-2.435 2.735 36.2 36.2 0 0 1-8.102.003A2.76 2.76 0 0 1 1.5 12.038V7.536l-.185.207a.74.74 0 0 1-.563.255L.75 8a.75.75 0 0 1-.563-1.245A36.2 36.2 0 0 1 6.41 1.138M8 9.5c-.397 0-.753.053-1.057.125l-.288.078a.24.24 0 0 0-.155.233v3.527q1.5.064 3 0V9.94a.26.26 0 0 0-.1-.206l-.06-.03A4.6 4.6 0 0 0 8 9.5m.724-7.14a1.245 1.245 0 0 0-1.445 0A35 35 0 0 0 3 5.954v6.084c0 .638.486 1.172 1.131 1.246q.433.048.87.084V9.936c0-.74.467-1.436 1.214-1.666a6.1 6.1 0 0 1 3.566-.002c.745.23 1.22.928 1.22 1.67v3.432q.448-.039.897-.09A1.25 1.25 0 0 0 13 12.037V5.953q-.299-.295-.603-.583a35 35 0 0 0-3.674-3.01" clip-rule="evenodd" />
</svg>
