<!-- This Source Code Form is subject to the terms of the Mozilla Public
   - License, v. 2.0. If a copy of the MPL was not distributed with this
   - file, You can obtain one at http://mozilla.org/MPL/2.0/. -->
   <svg width="16" height="16" fill="context-fill" fill-opacity="context-fill-opacity" xmlns="http://www.w3.org/2000/svg"><path d="M6 8.25a1.5 1.5 0 0 1 1.5 1.5V11h-5V9.75A1.5 1.5 0 0 1 4 8.25h2zM13 10.5H9V9h4v1.5zM5 5a1.375 1.375 0 1 1 0 2.75A1.375 1.375 0 0 1 5 5zM13 7.5H9V6h4v1.5z" /><path fill-rule="evenodd" clip-rule="evenodd" d="M14 2a2 2 0 0 1 2 2v8a2 2 0 0 1-2 2H2a2 2 0 0 1-2-2V4a2 2 0 0 1 2-2h12zM2 3.5a.5.5 0 0 0-.5.5v8a.5.5 0 0 0 .5.5h12a.5.5 0 0 0 .5-.5V4a.5.5 0 0 0-.5-.5H2z" /></svg>