<svg width="16" height="16" viewBox="0 0 16 16" fill="none" xmlns="http://www.w3.org/2000/svg">
<path d="M4.25011 1.99975C4.66416 1.99985 4.99998 2.33571 5.00011 2.74975V11.3181H6.93175C7.3766 11.3181 7.60076 11.8566 7.28624 12.1716L4.60362 14.8542C4.4086 15.0489 4.0915 15.0491 3.89659 14.8542L1.21495 12.1716C0.900335 11.8567 1.12288 11.3185 1.56847 11.3181H3.50011V2.74975C3.50024 2.33565 3.83598 1.99975 4.25011 1.99975Z" fill="black"/>
<path d="M11.3956 1.14623C11.5906 0.951244 11.9076 0.951267 12.1026 1.14623L14.7853 3.82787C15.1001 4.14289 14.8767 4.68237 14.4308 4.68237H12.5001V13.2497C12.5001 13.6639 12.1642 13.9997 11.7501 13.9997C11.3359 13.9997 11.0001 13.664 11.0001 13.2497V4.68237H9.06749C8.6228 4.682 8.39908 4.14277 8.71398 3.82787L11.3956 1.14623Z" fill="black"/>
</svg>
