<!-- This Source Code Form is subject to the terms of the Mozilla Public
   - License, v. 2.0. If a copy of the MPL was not distributed with this
   - file, You can obtain one at http://mozilla.org/MPL/2.0/. -->
<svg width="16" height="16" fill="context-fill" fill-opacity="context-fill-opacity" xmlns="http://www.w3.org/2000/svg"><path d="M13.25 1a2 2 0 0 1 2 2v11a2 2 0 0 1-2 2h-7.5a2 2 0 0 1-2-2v-2.25h1.5V14a.5.5 0 0 0 .5.5h7.5a.5.5 0 0 0 .5-.5V3a.5.5 0 0 0-.5-.5h-7.5a.5.5 0 0 0-.5.5v2.25h-1.5V3a2 2 0 0 1 2-2h7.5z"/><path d="M7.015 5.972c0-.42.507-.63.804-.333l2.528 2.528a.47.47 0 0 1 0 .666l-2.528 2.528a.471.471 0 0 1-.804-.333V9.25h-7v-1.5h7V5.972z"/></svg>