<!-- This Source Code Form is subject to the terms of the Mozilla Public
   - License, v. 2.0. If a copy of the MPL was not distributed with this
   - file, You can obtain one at http://mozilla.org/MPL/2.0/. -->
<svg xmlns="http://www.w3.org/2000/svg" width="16" height="16" fill="context-fill" fill-opacity="context-fill-opacity" viewBox="0 0 16 16">
    <path d="M5.415 1.225c2.388-.301 4.825-.3 7.2.004A2.75 2.75 0 0 1 15 3.957v9.084a2.76 2.76 0 0 1-2.415 2.732 28.7 28.7 0 0 1-7.2-.003A2.75 2.75 0 0 1 3 13.04V11.5h1.5v1.541c0 .63.462 1.163 1.075 1.24 2.252.289 4.562.29 6.823.005A1.26 1.26 0 0 0 13.5 13.04V3.957c0-.628-.462-1.16-1.075-1.239a27 27 0 0 0-6.822-.004A1.26 1.26 0 0 0 4.5 3.956v1.542H3V3.956a2.76 2.76 0 0 1 2.415-2.731" />
    <path d="M6.53 5.972c0-.42.507-.63.804-.333l2.528 2.528a.47.47 0 0 1 0 .665l-2.528 2.529a.47.47 0 0 1-.804-.333V9.25H.75a.75.75 0 0 1 0-1.5h5.78z" />
</svg>
