<svg width="16" height="16" viewBox="0 0 16 16" fill="none" xmlns="http://www.w3.org/2000/svg">
<path fill-rule="evenodd" clip-rule="evenodd" d="M8 0C12.418 0 16 3.582 16 8C16 12.418 12.418 16 8 16C3.582 16 0 12.418 0 8C0 3.582 3.582 0 8 0ZM8 7C7.586 7 7.25 7.336 7.25 7.75V11.25C7.25 11.664 7.586 12 8 12C8.414 12 8.75 11.664 8.75 11.25V7.75C8.75 7.336 8.414 7 8 7ZM8 4C7.51675 4 7.125 4.39175 7.125 4.875C7.125 5.35825 7.51675 5.75 8 5.75C8.48325 5.75 8.875 5.35825 8.875 4.875C8.875 4.39175 8.48325 4 8 4Z" fill="black"/>
</svg>
