<svg width="16" height="16" viewBox="0 0 16 16" fill="none" xmlns="http://www.w3.org/2000/svg">
<path d="M8 7C8.414 7 8.75 7.336 8.75 7.75V11.25C8.75 11.664 8.414 12 8 12C7.586 12 7.25 11.664 7.25 11.25V7.75C7.25 7.336 7.586 7 8 7Z" fill="black"/>
<path d="M8 4C8.48325 4 8.875 4.39175 8.875 4.875C8.875 5.35825 8.48325 5.75 8 5.75C7.51675 5.75 7.125 5.35825 7.125 4.875C7.125 4.39175 7.51675 4 8 4Z" fill="black"/>
<path fill-rule="evenodd" clip-rule="evenodd" d="M8 0C12.4183 0 16 3.58172 16 8C16 12.4183 12.4183 16 8 16C3.58172 16 0 12.4183 0 8C0 3.58172 3.58172 0 8 0ZM8 1.5C4.41015 1.5 1.5 4.41015 1.5 8C1.5 11.5899 4.41015 14.5 8 14.5C11.5899 14.5 14.5 11.5899 14.5 8C14.5 4.41015 11.5899 1.5 8 1.5Z" fill="black"/>
</svg>
