<!-- This Source Code Form is subject to the terms of the Mozilla Public
   - License, v. 2.0. If a copy of the MPL was not distributed with this
   - file, You can obtain one at http://mozilla.org/MPL/2.0/. -->
<svg xmlns="http://www.w3.org/2000/svg" width="16" height="16" fill="context-fill" fill-opacity="context-fill-opacity" viewBox="0 0 16 16">
    <path fill-rule="evenodd" d="M12.25 1.001A2.753 2.753 0 0 1 15 3.751v4a6.74 6.74 0 0 1-6.76 6.747q-.717 0-1.435-.148a6.6 6.6 0 0 1-2.89-1.413q-.548.712-1.032 1.47a.75.75 0 0 1-.632.345l-.001-.002a.75.75 0 0 1-.63-1.154q.58-.91 1.248-1.757A6.6 6.6 0 0 1 1.65 9.195c-.424-2.038.07-4.115 1.36-5.7a6.73 6.73 0 0 1 5.24-2.494zm-4 1.499a5.24 5.24 0 0 0-4.076 1.94C3.17 5.673 2.787 7.294 3.119 8.887c.133.638.392 1.237.746 1.77q.366-.405.752-.79a22.2 22.2 0 0 1 3.73-2.998.751.751 0 0 1 .808 1.264 20.7 20.7 0 0 0-4.283 3.648c.64.537 1.406.925 2.24 1.099 1.593.33 3.214-.052 4.447-1.055A5.24 5.24 0 0 0 13.5 7.75v-4c0-.689-.56-1.25-1.25-1.25z" clip-rule="evenodd" />
</svg>
