<svg width="16" height="16" viewBox="0 0 16 16" fill="none" xmlns="http://www.w3.org/2000/svg">
<path d="M2.75 1C3.16421 1 3.5 1.33579 3.5 1.75V14.25C3.5 14.6642 3.16421 15 2.75 15C2.33579 15 2 14.6642 2 14.25V1.75C2 1.33579 2.33579 1 2.75 1Z" fill="black"/>
<path d="M5.75 4C6.16421 4 6.5 4.33579 6.5 4.75V14.25C6.5 14.6642 6.16421 15 5.75 15C5.33579 15 5 14.6642 5 14.25V4.75C5 4.33579 5.33579 4 5.75 4Z" fill="black"/>
<path d="M8.75 3C9.16421 3 9.5 3.33579 9.5 3.75V14.25C9.5 14.6642 9.16421 15 8.75 15C8.33579 15 8 14.6642 8 14.25V3.75C8 3.33579 8.33579 3 8.75 3Z" fill="black"/>
<path d="M11.5557 3.02539C11.9575 2.92143 12.3674 3.15493 12.4746 3.55469L15.2891 14.0547C15.3961 14.4547 15.1588 14.8666 14.7588 14.9736C14.694 14.9906 14.6293 14.999 14.5645 14.999C14.2335 14.999 13.9299 14.7792 13.8398 14.4443L11.0264 3.94434C10.9194 3.54449 11.1559 3.13258 11.5557 3.02539Z" fill="black"/>
</svg>
