<!-- This Source Code Form is subject to the terms of the Mozilla Public
   - License, v. 2.0. If a copy of the MPL was not distributed with this
   - file, You can obtain one at http://mozilla.org/MPL/2.0/. -->
<svg xmlns="http://www.w3.org/2000/svg" width="16" height="16" fill="context-fill" fill-opacity="context-fill-opacity" viewBox="0 0 16 16">
    <path d="M2.75 1a.75.75 0 0 1 .75.75v12.5a.75.75 0 0 1-1.5 0V1.75A.75.75 0 0 1 2.75 1m3 3a.75.75 0 0 1 .75.75v9.5a.75.75 0 0 1-1.5 0v-9.5A.75.75 0 0 1 5.75 4m3-1a.75.75 0 0 1 .75.75v10.5a.75.75 0 0 1-1.5 0V3.75A.75.75 0 0 1 8.75 3m2.806.025a.75.75 0 0 1 .919.53l2.814 10.5a.75.75 0 0 1-1.45.39l-2.813-10.5a.75.75 0 0 1 .53-.92" />
</svg>
