<svg width="16" height="16" viewBox="0 0 16 16" fill="none" xmlns="http://www.w3.org/2000/svg">
<path d="M2 12.75C2.55228 12.75 3 13.1977 3 13.75C3 14.3023 2.55228 14.75 2 14.75C1.44772 14.75 1 14.3023 1 13.75C1 13.1977 1.44772 12.75 2 12.75Z" fill="black"/>
<path d="M14.25 13C14.6642 13 15 13.3358 15 13.75C15 14.1642 14.6642 14.5 14.25 14.5H4.75C4.33579 14.5 4 14.1642 4 13.75C4 13.3358 4.33579 13 4.75 13H14.25Z" fill="black"/>
<path d="M5 8.75C5.55228 8.75 6 9.19772 6 9.75C6 10.3023 5.55228 10.75 5 10.75C4.44772 10.75 4 10.3023 4 9.75C4 9.19772 4.44772 8.75 5 8.75Z" fill="black"/>
<path d="M14.25 9C14.6642 9 15 9.33579 15 9.75C15 10.1642 14.6642 10.5 14.25 10.5H7.75C7.33579 10.5 7 10.1642 7 9.75C7 9.33579 7.33579 9 7.75 9H14.25Z" fill="black"/>
<path d="M2 4.75C2.55228 4.75 3 5.19772 3 5.75C3 6.30228 2.55228 6.75 2 6.75C1.44772 6.75 1 6.30228 1 5.75C1 5.19772 1.44772 4.75 2 4.75Z" fill="black"/>
<path d="M7.20996 5L8.70996 6.5H4.75C4.336 6.5 4 6.164 4 5.75C4 5.336 4.336 5 4.75 5H7.20996Z" fill="black"/>
<path d="M10.3047 1.02734C10.5617 0.770344 11 0.95243 11 1.31543V2.75H14.25C14.664 2.75 15 3.086 15 3.5C15 3.914 14.664 4.25 14.25 4.25H11V5.68457C11 6.04757 10.5607 6.22966 10.3047 5.97266L8.12012 3.78809C7.96112 3.62909 7.96112 3.37091 8.12012 3.21191L10.3047 1.02734Z" fill="black"/>
<path d="M2 0.75C2.55228 0.75 3 1.19772 3 1.75C3 2.30228 2.55228 2.75 2 2.75C1.44772 2.75 1 2.30228 1 1.75C1 1.19772 1.44772 0.75 2 0.75Z" fill="black"/>
<path d="M7.05859 2.15137C6.95178 2.25826 6.86497 2.37716 6.78906 2.5H4.75C4.336 2.5 4 2.164 4 1.75C4 1.336 4.336 1 4.75 1H8.20996L7.05859 2.15137Z" fill="black"/>
</svg>
