<svg width="16" height="16" viewBox="0 0 16 16" fill="none" xmlns="http://www.w3.org/2000/svg">
<path d="M2 12.75C2.55228 12.75 3 13.1977 3 13.75C3 14.3023 2.55228 14.75 2 14.75C1.44772 14.75 1 14.3023 1 13.75C1 13.1977 1.44772 12.75 2 12.75Z" fill="black"/>
<path d="M14.25 13C14.6642 13 15 13.3358 15 13.75C15 14.1642 14.6642 14.5 14.25 14.5H4.75C4.33579 14.5 4 14.1642 4 13.75C4 13.3358 4.33579 13 4.75 13H14.25Z" fill="black"/>
<path d="M5 8.75C5.55228 8.75 6 9.19772 6 9.75C6 10.3023 5.55228 10.75 5 10.75C4.44772 10.75 4 10.3023 4 9.75C4 9.19772 4.44772 8.75 5 8.75Z" fill="black"/>
<path d="M14.25 9C14.6642 9 15 9.33579 15 9.75C15 10.1642 14.6642 10.5 14.25 10.5H7.75C7.33579 10.5 7 10.1642 7 9.75C7 9.33579 7.33579 9 7.75 9H14.25Z" fill="black"/>
<path d="M2 4.75C2.55228 4.75 3 5.19772 3 5.75C3 6.30228 2.55228 6.75 2 6.75C1.44772 6.75 1 6.30228 1 5.75C1 5.19772 1.44772 4.75 2 4.75Z" fill="black"/>
<path d="M14.25 5C14.6642 5 15 5.33579 15 5.75C15 6.16421 14.6642 6.5 14.25 6.5H4.75C4.33579 6.5 4 6.16421 4 5.75C4 5.33579 4.33579 5 4.75 5H14.25Z" fill="black"/>
<path d="M2 0.75C2.55228 0.75 3 1.19772 3 1.75C3 2.30228 2.55228 2.75 2 2.75C1.44772 2.75 1 2.30228 1 1.75C1 1.19772 1.44772 0.75 2 0.75Z" fill="black"/>
<path d="M14.25 1C14.6642 1 15 1.33579 15 1.75C15 2.16421 14.6642 2.5 14.25 2.5H4.75C4.33579 2.5 4 2.16421 4 1.75C4 1.33579 4.33579 1 4.75 1H14.25Z" fill="black"/>
</svg>
