<!-- This Source Code Form is subject to the terms of the Mozilla Public
   - License, v. 2.0. If a copy of the MPL was not distributed with this
   - file, You can obtain one at http://mozilla.org/MPL/2.0/. -->
<svg xmlns="http://www.w3.org/2000/svg" width="16" height="16" fill="context-fill" fill-opacity="context-fill-opacity" viewBox="0 0 16 16">
    <path d="M2 12.75a1 1 0 1 1 0 2 1 1 0 0 1 0-2M14.25 13a.75.75 0 0 1 0 1.5h-9.5a.75.75 0 0 1 0-1.5zM5 8.75a1 1 0 1 1 0 2 1 1 0 0 1 0-2M14.25 9a.75.75 0 0 1 0 1.5h-6.5a.75.75 0 0 1 0-1.5zM2 4.75a1 1 0 1 1 0 2 1 1 0 0 1 0-2M7.21 5l1.5 1.5H4.75a.75.75 0 0 1 0-1.5zM10.305 1.027a.407.407 0 0 1 .695.288V2.75h3.25a.75.75 0 0 1 0 1.5H11v1.435c0 .363-.44.545-.695.288L8.12 3.788a.41.41 0 0 1 0-.576zM2 .75a1 1 0 1 1 0 2 1 1 0 0 1 0-2M7.059 2.151a2 2 0 0 0-.27.349H4.75a.75.75 0 0 1 0-1.5h3.46z" />
</svg>
