<!-- This Source Code Form is subject to the terms of the Mozilla Public
   - License, v. 2.0. If a copy of the MPL was not distributed with this
   - file, You can obtain one at http://mozilla.org/MPL/2.0/. -->
<svg xmlns="http://www.w3.org/2000/svg" width="16" height="16" fill="context-fill" fill-opacity="context-fill-opacity" viewBox="0 0 16 16">
    <path d="M6 11H4.25V9.25H6zm3.5 0H7.75V9.25H9.5z" />
    <path d="M14 6.5a2 2 0 0 1 2 2v4a2 2 0 0 1-2 2H3a2 2 0 0 1-2-2v-4a2 2 0 0 1 2-2h9.5V2H14zM3 8a.5.5 0 0 0-.5.5v4a.5.5 0 0 0 .5.5h11a.5.5 0 0 0 .5-.5v-4A.5.5 0 0 0 14 8z" />
    <path d="M5.334 3c.739 0 1.422.222 2.003.592L6.075 4.854A.5.5 0 0 1 5.722 5h-.775a.5.5 0 0 1-.354-.147L3.33 3.59A3.7 3.7 0 0 1 5.334 3m0-3c1.638 0 3.142.567 4.334 1.51L8.584 2.594A5.43 5.43 0 0 0 5.334 1.5a5.43 5.43 0 0 0-3.25 1.094L1 1.51A6.96 6.96 0 0 1 5.334 0" />
</svg>
