<!-- This Source Code Form is subject to the terms of the Mozilla Public
   - License, v. 2.0. If a copy of the MPL was not distributed with this
   - file, You can obtain one at http://mozilla.org/MPL/2.0/. -->
<svg xmlns="http://www.w3.org/2000/svg" width="16" height="16" fill="context-fill" fill-opacity="context-fill-opacity" viewBox="0 0 16 16"><path fill-rule="evenodd" d="M8 4a3 3 0 1 1 0 6 3 3 0 0 1 0-6m0 1.5a1.5 1.5 0 1 0 0 3 1.5 1.5 0 0 0 0-3" clip-rule="evenodd"/><path fill-rule="evenodd" d="M8 0a7 7 0 0 1 7 7c0 .828-.285 1.678-.685 2.475-.403.804-.951 1.608-1.539 2.358-1.175 1.499-2.561 2.846-3.427 3.64a1.99 1.99 0 0 1-2.699 0c-.866-.793-2.252-2.141-3.426-3.64-.588-.75-1.136-1.554-1.54-2.358C1.285 8.678 1 7.828 1 7a7 7 0 0 1 7-7m0 1.5A5.5 5.5 0 0 0 2.5 7c0 .5.178 1.11.525 1.803.344.685.828 1.401 1.38 2.104.826 1.055 1.774 2.041 2.551 2.793l.709.668a.49.49 0 0 0 .67 0l.709-.668c.777-.752 1.725-1.738 2.552-2.793.55-.703 1.035-1.42 1.379-2.104C13.322 8.11 13.5 7.5 13.5 7A5.5 5.5 0 0 0 8 1.5" clip-rule="evenodd"/></svg>