<!-- This Source Code Form is subject to the terms of the Mozilla Public
   - License, v. 2.0. If a copy of the MPL was not distributed with this
   - file, You can obtain one at http://mozilla.org/MPL/2.0/. -->
<svg xmlns="http://www.w3.org/2000/svg" width="16" height="16" fill="context-fill" fill-opacity="context-fill-opacity" viewBox="0 0 16 16"><path fill-rule="evenodd" d="m14.001 14.94-1.06 1.061-2.04-2.04a37 37 0 0 1-1.552 1.513c-.385.352-.867.529-1.349.529s-.965-.177-1.349-.53C4.541 13.54 1 9.867 1 7c0-.874.162-1.711.456-2.483L0 3.06 1.06 2zM2.656 5.717c-.1.412-.156.84-.156 1.283 0 1.649 1.931 4.404 5.165 7.368.192.176.48.176.67 0A33 33 0 0 0 9.839 12.9z" clip-rule="evenodd"/><path d="M8 0c3.859 0 7 3.141 7 7 0 1.531-1.013 3.29-2.276 4.895l-1.072-1.072C12.832 9.295 13.5 7.958 13.5 7c0-3.032-2.468-5.5-5.5-5.5a5.48 5.48 0 0 0-3.968 1.702l-1.06-1.06A6.97 6.97 0 0 1 8 0"/><path d="M8 4c1.654 0 3 1.346 3 3a2.98 2.98 0 0 1-.973 2.197l-1.06-1.06A1.49 1.49 0 0 0 9.5 7c0-.827-.673-1.5-1.5-1.5-.457 0-.862.21-1.137.533l-1.06-1.06A2.98 2.98 0 0 1 8 4"/></svg>