<!-- This Source Code Form is subject to the terms of the Mozilla Public
   - License, v. 2.0. If a copy of the MPL was not distributed with this
   - file, You can obtain one at http://mozilla.org/MPL/2.0/. -->
<svg xmlns="http://www.w3.org/2000/svg" width="16" height="16" fill="context-fill" fill-opacity="context-fill-opacity" viewBox="0 0 16 16">
    <g clip-path="url(#clip0_8069_30385)">
        <path d="M5 10a1 1 0 1 1 0 2 1 1 0 0 1 0-2M8.25 10a1 1 0 1 1 0 2 1 1 0 0 1 0-2" />
        <path fill-rule="evenodd" d="M.22.22a.75.75 0 0 1 1.06 0l14.5 14.5a.75.75 0 0 1-1.06 1.06l-.933-.932a91.898 91.898 0 0 1-10.92-.018 2 2 0 0 1-1.867-2V9.174c0-1.057.825-1.935 1.879-2a87 87 0 0 1 3.102-.132L.22 1.28a.75.75 0 0 1 0-1.06m7.228 8.289a91 91 0 0 0-4.477.16.51.51 0 0 0-.471.504v3.656c0 .266.2.486.459.502a91 91 0 0 0 9.396.085z" clip-rule="evenodd" />
        <path d="M13.25 3a.75.75 0 0 1 .75.75v3.415l.133.008A2 2 0 0 1 16 9.17v3.657c0 .107-.014.21-.03.314L14.5 11.67v-2.5a.497.497 0 0 0-.46-.501 87 87 0 0 0-2.664-.123L9.85 7.02q1.327.018 2.65.07V3.75a.75.75 0 0 1 .75-.75M5.59 2.76c.55.015 1.07.143 1.537.373a.506.506 0 0 1 .106.828l-.235.208zM3.255.426c1.903-.685 4.104-.483 5.81.638a.75.75 0 0 1-.824 1.254c-1.109-.729-2.492-.95-3.78-.685z" />
    </g>
</svg>
