<!-- This Source Code Form is subject to the terms of the Mozilla Public
   - License, v. 2.0. If a copy of the MPL was not distributed with this
   - file, You can obtain one at http://mozilla.org/MPL/2.0/. -->
   <svg width="16" height="16" fill="context-fill" fill-opacity="context-fill-opacity" xmlns="http://www.w3.org/2000/svg"><path fill-rule="evenodd" clip-rule="evenodd" d="M13.75 6.884c0-3.106-2.579-5.634-5.75-5.634S2.25 3.778 2.25 6.884c0 1.613 1.957 4.475 5.236 7.656.062.06.134.11.213.145h.602a.746.746 0 0 0 .213-.145c3.279-3.181 5.236-6.043 5.236-7.656zM1 6.884C1 3.082 4.134 0 8 0s7 3.082 7 6.884c0 2.718-3.575 6.574-5.615 8.553a1.985 1.985 0 0 1-2.77 0C4.575 13.458 1 9.601 1 6.884zM9.75 7c0-.965-.785-1.75-1.75-1.75S6.25 6.035 6.25 7 7.035 8.75 8 8.75 9.75 7.965 9.75 7zM6.852 4.228a3 3 0 1 1 2.296 5.544 3 3 0 0 1-2.296-5.544z"/></svg>