<!-- This Source Code Form is subject to the terms of the Mozilla Public
   - License, v. 2.0. If a copy of the MPL was not distributed with this
   - file, You can obtain one at http://mozilla.org/MPL/2.0/. -->
<svg xmlns="http://www.w3.org/2000/svg" width="16" height="16" fill="context-fill" fill-opacity="context-fill-opacity" viewBox="0 0 16 16">
    <path fill-rule="evenodd" d="M.22.22a.75.75 0 0 1 1.06 0l7.3 7.298-.003-.001 7.203 7.203a.75.75 0 1 1-1.06 1.06l-1.198-1.198a2.76 2.76 0 0 1-1.937 1.192 28.7 28.7 0 0 1-7.2-.002A2.75 2.75 0 0 1 2 13.042V8.958c0-1.239.836-2.305 2-2.64V5.061L.22 1.28A.75.75 0 0 1 .22.22m6.264 7.325c-.628.035-1.258.09-1.88.169A1.26 1.26 0 0 0 3.5 8.958v4.084c0 .629.462 1.162 1.075 1.24 2.25.288 4.563.29 6.822.004.475-.06.861-.381 1.022-.806z" clip-rule="evenodd" />
    <path d="M8 0c2.206 0 4 1.794 4 4v2.316c1.162.326 2 1.395 2 2.642v2.213l-1.5-1.5v-.713c0-.629-.462-1.162-1.075-1.24-.321-.041-.647-.064-.97-.093L8.881 6.053c.54.016 1.081.023 1.618.07V4c0-1.378-1.12-2.5-2.5-2.5-.992 0-1.843.585-2.247 1.424l-1.1-1.1A4 4 0 0 1 8 0" />
</svg>
