<!-- This Source Code Form is subject to the terms of the Mozilla Public
   - License, v. 2.0. If a copy of the MPL was not distributed with this
   - file, You can obtain one at http://mozilla.org/MPL/2.0/. -->
<svg xmlns="http://www.w3.org/2000/svg" width="16" height="16" fill="context-fill" fill-opacity="context-fill-opacity" viewBox="0 0 16 16">
    <path fill-rule="evenodd" d="M11.04 9.194a1.11 1.11 0 0 1 1.92 0l2.888 4.96c.397.683-.026 1.565-.81 1.661a25 25 0 0 1-6.06.001 1.11 1.11 0 0 1-.825-1.664zm.96 4.391a.625.625 0 1 0 0 1.25.625.625 0 0 0 0-1.25m0-2.875a.625.625 0 0 0-.625.625v1a.625.625 0 0 0 1.25 0v-1A.625.625 0 0 0 12 10.71M6.5 0C8.43 0 10 1.57 10 3.5v1.745a2.56 2.56 0 0 1 1.969 2.152 2.32 2.32 0 0 0-1.468.553v-.203c0-.533-.391-.985-.91-1.05a24.6 24.6 0 0 0-6.154-.005A1.07 1.07 0 0 0 2.5 7.747v3.505c0 .533.391.985.91 1.05 1.415.182 2.852.23 4.28.16l-.618 1.061h.002a2.4 2.4 0 0 0-.199.465c-.124.002-.25.012-.374.012a26 26 0 0 1-3.28-.209 2.56 2.56 0 0 1-2.22-2.539V7.747c0-1.202.843-2.236 1.998-2.499V3.5A3.505 3.505 0 0 1 6.5 0m0 1.5c-1.103 0-2 .897-2 2v1.58c1.33-.102 2.67-.102 4 0V3.5c0-1.103-.897-2-2-2" clip-rule="evenodd" />
</svg>
