<!-- This Source Code Form is subject to the terms of the Mozilla Public
   - License, v. 2.0. If a copy of the MPL was not distributed with this
   - file, You can obtain one at http://mozilla.org/MPL/2.0/. -->
<svg xmlns="http://www.w3.org/2000/svg" width="16" height="16" fill="context-fill" fill-opacity="context-fill-opacity" viewBox="0 0 16 16">
    <path fill-rule="evenodd" d="M12.5 8.999c.751 0 1.461.03 2.127.081.779.06 1.373.717 1.373 1.498v3.843c0 .785-.61 1.44-1.393 1.5a28.4 28.4 0 0 1-4.234-.002A1.496 1.496 0 0 1 9 14.42v-3.843c0-.785.61-1.44 1.393-1.5C11.143 9.022 11.849 9 12.5 9m-1.375 4.126a.625.625 0 0 0 0 1.25h2.75a.625.625 0 0 0 0-1.25zm0-2.5a.625.625 0 0 0 0 1.25h2.75a.625.625 0 0 0 0-1.25z" clip-rule="evenodd" />
    <path fill-rule="evenodd" d="M6 0a4 4 0 0 1 4 4v2.308c.77.216 1.389.765 1.725 1.471-.476.013-.952.018-1.425.054-.135.01-.264.04-.393.068a1.2 1.2 0 0 0-.482-.183 27 27 0 0 0-6.821-.004A1.26 1.26 0 0 0 1.5 8.958v4.084c0 .629.462 1.162 1.075 1.24 1.708.22 3.454.27 5.177.16v-.002c.004.536.165 1.04.437 1.465-.728.056-1.459.094-2.188.094-1.205 0-2.421-.078-3.614-.23A2.746 2.746 0 0 1 0 13.042V8.957A2.76 2.76 0 0 1 2 6.313V4a4 4 0 0 1 4-4m0 1.5A2.5 2.5 0 0 0 3.5 4v2.111a29 29 0 0 1 5 0V4A2.5 2.5 0 0 0 6 1.5" clip-rule="evenodd" />
</svg>
