<!-- This Source Code Form is subject to the terms of the Mozilla Public
   - License, v. 2.0. If a copy of the MPL was not distributed with this
   - file, You can obtain one at http://mozilla.org/MPL/2.0/. -->
<svg xmlns="http://www.w3.org/2000/svg" width="16" height="16" fill="context-fill" fill-opacity="context-fill-opacity" viewBox="0 0 16 16"><path fill-rule="evenodd" d="M8 0a4 4 0 0 1 4 4v3a2 2 0 0 1 2 2v5a2 2 0 0 1-2 2H4a2 2 0 0 1-2-2V9a2 2 0 0 1 2-2V4a4 4 0 0 1 4-4M4 8.5a.5.5 0 0 0-.5.5v5a.5.5 0 0 0 .5.5h8a.5.5 0 0 0 .5-.5V9a.5.5 0 0 0-.5-.5zm4-7A2.5 2.5 0 0 0 5.5 4v3h5V4A2.5 2.5 0 0 0 8 1.5" clip-rule="evenodd"/></svg>