<svg width="16" height="16" viewBox="0 0 16 16" fill="none" xmlns="http://www.w3.org/2000/svg">
<path fill-rule="evenodd" clip-rule="evenodd" d="M8 0C10.2092 0 12 1.79079 12 4V6.31152C13.1738 6.63827 14 7.72243 14 8.95801V13.042C14 14.4362 12.9615 15.6005 11.585 15.7744C10.5075 15.911 9.30603 16 8 16C6.94622 16 5.72798 15.941 4.38477 15.7695C3.01026 15.5944 2 14.4089 2 13.042V8.95801C2 7.70801 2.83532 6.64486 4 6.3125V4C4 1.79079 5.79079 0 8 0ZM8 7.5C6.76228 7.5 5.62393 7.5845 4.60352 7.71387C3.97003 7.79392 3.5 8.32625 3.5 8.95801V13.042C3.5 13.6728 3.96811 14.205 4.5752 14.2822C5.84789 14.4447 7.00184 14.5 8 14.5C9.23772 14.5 10.3761 14.4155 11.3965 14.2861C12.03 14.2061 12.5 13.6738 12.5 13.042V8.95801C12.5 8.32732 12.0327 7.79512 11.4258 7.71777C10.1531 7.55529 8.99816 7.5 8 7.5ZM8 1.5C6.61921 1.5 5.5 2.61921 5.5 4V6.11133C6.28156 6.04273 7.11679 6 8 6C8.75397 6 9.59211 6.03036 10.5 6.11035V4C10.5 2.61921 9.38079 1.5 8 1.5Z" fill="black"/>
</svg>
