<!-- This Source Code Form is subject to the terms of the Mozilla Public
   - License, v. 2.0. If a copy of the MPL was not distributed with this
   - file, You can obtain one at http://mozilla.org/MPL/2.0/. -->
<svg xmlns="http://www.w3.org/2000/svg" width="16" height="16" fill="context-fill" fill-opacity="context-fill-opacity" viewBox="0 0 16 16">
    <path fill-rule="evenodd" d="M4 4a4 4 0 0 1 3.92 3.203 43.3 43.3 0 0 1 7.412.177.75.75 0 1 1-.164 1.491A42 42 0 0 0 14 8.761V10.5a.75.75 0 0 1-1.5 0V8.665a41 41 0 0 0-1.262-.04 42 42 0 0 0-3.301.081A4 4 0 1 1 4 4m0 1.5a2.5 2.5 0 1 0 0 5 2.5 2.5 0 0 0 0-5" clip-rule="evenodd" />
</svg>
