<!-- This Source Code Form is subject to the terms of the Mozilla Public
   - License, v. 2.0. If a copy of the MPL was not distributed with this
   - file, You can obtain one at http://mozilla.org/MPL/2.0/. -->
<svg xmlns="http://www.w3.org/2000/svg" width="16" height="16" fill="context-fill" fill-opacity="context-fill-opacity" viewBox="0 0 16 16">
    <g fill-rule="evenodd" clip-rule="evenodd">
        <path d="M8 3.25a3.25 3.25 0 1 1 0 6.5 3.25 3.25 0 0 1 0-6.5m0 1.5a1.75 1.75 0 1 0 0 3.5 1.75 1.75 0 0 0 0-3.5" />
        <path d="M8 0a6.5 6.5 0 0 1 4.914 10.751h.586a2 2 0 0 1 2 2v.372a2.76 2.76 0 0 1-2.352 2.72l-.27.028a93 93 0 0 1-9.767 0A2.753 2.753 0 0 1 .5 13.12v-.371a2 2 0 0 1 2-1.999h.586A6.5 6.5 0 0 1 8 0M2.5 12.251a.5.5 0 0 0-.5.5v.37c0 .667.52 1.215 1.191 1.251a91 91 0 0 0 9.607.001l.125-.013A1.26 1.26 0 0 0 14 13.123v-.372a.5.5 0 0 0-.5-.5zM8 1.5a5 5 0 0 0-2.63 9.251h5.258A5 5 0 0 0 8 1.5" />
    </g>
</svg>
