<svg width="16" height="16" viewBox="0 0 16 16" fill="none" xmlns="http://www.w3.org/2000/svg">
<g clip-path="url(#clip0_8069_32635)">
<path fill-rule="evenodd" clip-rule="evenodd" d="M8 3.25C9.79493 3.25 11.25 4.70507 11.25 6.5C11.25 8.29493 9.79493 9.75 8 9.75C6.20507 9.75 4.75 8.29493 4.75 6.5C4.75 4.70507 6.20507 3.25 8 3.25ZM8 4.75C7.0335 4.75 6.25 5.5335 6.25 6.5C6.25 7.4665 7.0335 8.25 8 8.25C8.9665 8.25 9.75 7.4665 9.75 6.5C9.75 5.5335 8.9665 4.75 8 4.75Z" fill="black"/>
<path fill-rule="evenodd" clip-rule="evenodd" d="M8 0C11.5902 0 14.5 2.90979 14.5 6.5C14.5 8.12619 13.9005 9.61129 12.9141 10.751H13.5C14.6042 10.751 15.5 11.6468 15.5 12.751V13.123C15.5 14.5068 14.4766 15.6431 13.1475 15.8438L12.8779 15.8711C11.1763 15.9608 9.5477 16 8 16C6.29913 16 4.66688 15.9528 3.11133 15.8701C1.64996 15.792 0.500061 14.5904 0.5 13.1211V12.75C0.500528 11.6462 1.39611 10.751 2.5 10.751H3.08594C2.09956 9.61142 1.5 8.12655 1.5 6.5C1.5 2.90979 4.40979 0 8 0ZM2.5 12.251C2.22421 12.251 2 12.4752 2 12.751V13.1211C2.00006 13.7877 2.52085 14.3362 3.19141 14.3721C4.72182 14.4534 6.32692 14.5 8 14.5C9.5221 14.5 11.1237 14.4613 12.7979 14.373L12.9229 14.3604C13.5394 14.2677 14 13.7438 14 13.123V12.751C14 12.4752 13.7758 12.251 13.5 12.251H2.5ZM8 1.5C5.23821 1.5 3 3.73821 3 6.5C3 8.29513 3.94695 9.86836 5.37012 10.751H10.6279C12.0521 9.86831 13 8.29502 13 6.5C13 3.73821 10.7618 1.5 8 1.5Z" fill="black"/>
</g>
<defs>
<clipPath id="clip0_8069_32635">
<rect width="16" height="16" fill="white"/>
</clipPath>
</defs>
</svg>
