<!-- This Source Code Form is subject to the terms of the Mozilla Public
   - License, v. 2.0. If a copy of the MPL was not distributed with this
   - file, You can obtain one at http://mozilla.org/MPL/2.0/. -->
<svg xmlns="http://www.w3.org/2000/svg" width="16" height="16" fill="context-fill" fill-opacity="context-fill-opacity" viewBox="0 0 16 16">
    <g fill-rule="evenodd" clip-path="url(#clip0_8069_32635)" clip-rule="evenodd">
        <path d="M8 3.25a3.25 3.25 0 1 1 0 6.5 3.25 3.25 0 0 1 0-6.5m0 1.5a1.75 1.75 0 1 0 0 3.5 1.75 1.75 0 0 0 0-3.5" />
        <path d="M8 0a6.5 6.5 0 0 1 5.009 10.639q.314.015.624.034A1.996 1.996 0 0 1 15.5 12.67v.452a2.76 2.76 0 0 1-2.352 2.72l-.27.028a93 93 0 0 1-9.767 0A2.753 2.753 0 0 1 .5 13.12v-.45c0-1.053.824-1.936 1.88-2q.306-.017.61-.032A6.5 6.5 0 0 1 8 0m0 12c-1.742 0-3.59.05-5.53.169a.506.506 0 0 0-.47.503v.45c0 .666.52 1.214 1.191 1.25a91 91 0 0 0 9.607.001A1.26 1.26 0 0 0 14 13.123v-.452a.496.496 0 0 0-.46-.501A91 91 0 0 0 8 12M8 1.5a5 5 0 0 0-2.933 9.047 92 92 0 0 1 5.866 0A5 5 0 0 0 8 1.5" />
    </g>
</svg>
