<svg width="16" height="16" viewBox="0 0 16 16" fill="none" xmlns="http://www.w3.org/2000/svg">
<g clip-path="url(#clip0_8069_32635)">
<path fill-rule="evenodd" clip-rule="evenodd" d="M8 3.25C9.79493 3.25 11.25 4.70507 11.25 6.5C11.25 8.29493 9.79493 9.75 8 9.75C6.20507 9.75 4.75 8.29493 4.75 6.5C4.75 4.70507 6.20507 3.25 8 3.25ZM8 4.75C7.0335 4.75 6.25 5.5335 6.25 6.5C6.25 7.4665 7.0335 8.25 8 8.25C8.9665 8.25 9.75 7.4665 9.75 6.5C9.75 5.5335 8.9665 4.75 8 4.75Z" fill="black"/>
<path fill-rule="evenodd" clip-rule="evenodd" d="M8 0C11.5902 0 14.5 2.90979 14.5 6.5C14.5 8.07317 13.9386 9.5146 13.0088 10.6387C13.2182 10.6501 13.4262 10.6602 13.6328 10.6729C14.6955 10.7392 15.4999 11.6254 15.5 12.6709V13.123C15.5 14.5068 14.4766 15.6431 13.1475 15.8438L12.8779 15.8711C11.1763 15.9608 9.5477 16 8 16C6.29913 16 4.66688 15.9528 3.11133 15.8701C1.64995 15.792 0.500049 14.5904 0.5 13.1211V12.6719C0.500065 11.6177 1.32383 10.7351 2.37988 10.6709C2.58397 10.6585 2.78721 10.6496 2.98926 10.6387C2.05998 9.51475 1.5 8.07316 1.5 6.5C1.5 2.90979 4.40979 0 8 0ZM8 12C6.25755 12 4.41082 12.0509 2.4707 12.1689C2.21084 12.1847 2.00007 12.4062 2 12.6719V13.1211C2.00005 13.7877 2.52085 14.3362 3.19141 14.3721C4.72182 14.4534 6.32692 14.5 8 14.5C9.5221 14.5 11.1237 14.4613 12.7979 14.373C13.4761 14.3368 14 13.785 14 13.123V12.6709C13.9999 12.3985 13.7932 12.1857 13.54 12.1699C11.7918 12.0629 9.9415 12 8 12ZM8 1.5C5.23821 1.5 3 3.73821 3 6.5C3 8.16473 3.81407 9.63741 5.06738 10.5469C6.07406 10.5149 7.05216 10.5 8 10.5C9.00192 10.5 9.97994 10.5164 10.9326 10.5469C12.1859 9.63754 13 8.16418 13 6.5C13 3.73821 10.7618 1.5 8 1.5Z" fill="black"/>
</g>
<defs>
<clipPath id="clip0_8069_32635">
<rect width="16" height="16" fill="white"/>
</clipPath>
</defs>
</svg>
