<!-- This Source Code Form is subject to the terms of the Mozilla Public
   - License, v. 2.0. If a copy of the MPL was not distributed with this
   - file, You can obtain one at http://mozilla.org/MPL/2.0/. -->
<svg xmlns="http://www.w3.org/2000/svg" width="16" height="16" fill="context-fill" fill-opacity="context-fill-opacity" viewBox="0 0 16 16">
    <path d="M6.865 4.661a.68.68 0 0 1 1.267 0l.46 1.17 1.225.515c.262.103.431.353.431.634s-.169.531-.432.634l-1.167.461L8.132 9.3a.68.68 0 0 1-.634.431l.002.001a.68.68 0 0 1-.634-.431l-.46-1.17-1.225-.515a.68.68 0 0 1-.431-.634c0-.281.169-.531.432-.634l1.167-.461.056-.056z" />
    <path fill-rule="evenodd" d="M7.5 1c1.202 0 2.578.063 4.086.246A2.755 2.755 0 0 1 14 3.98v6.269c0 .588-.186 1.131-.5 1.578v2.204l.126-.02a.75.75 0 1 1 .248 1.48 37 37 0 0 1-11.06.179A2.09 2.09 0 0 1 1 13.594q0-.03.003-.058Q1 13.51 1 13.48V3.976a2.76 2.76 0 0 1 2.445-2.734A34 34 0 0 1 7.5 1M12 12.893a2.8 2.8 0 0 1-.749.105H8.753l-1.155.001h-.05l-.01.001-.048.002h-.1c-.08.002-.196.003-.336.004h-1.12c-.89 0-1.993-.001-2.843-.003a.59.59 0 0 0-.591.59c0 .3.218.55.513.59a35.6 35.6 0 0 0 8.987.062zm-4.18.034.01-.003v-.002zm-.664-1.343a1.3 1.3 0 0 0-.196.146 1.3 1.3 0 0 0-.21.52c.058-.286.31-.603.416-.67q-.004 0-.01.004M7.5 2.5c-1.057 0-2.052.052-2.977.137l-.9.094A1.26 1.26 0 0 0 2.5 3.976v7.612c.189-.055.388-.086.595-.085.849.002 1.95.004 2.839.004l1.113-.001.324-.002.072-.002.014-.001.027-.001.03-.001h.075a120 120 0 0 1 1.164-.002l2.499.001c.69 0 1.248-.558 1.248-1.25v-6.27c0-.631-.475-1.168-1.094-1.243A32 32 0 0 0 7.5 2.5m-.187 9.023.01-.002z" clip-rule="evenodd" />
</svg>
