<!-- This Source Code Form is subject to the terms of the Mozilla Public
   - License, v. 2.0. If a copy of the MPL was not distributed with this
   - file, You can obtain one at http://mozilla.org/MPL/2.0/. -->
<svg xmlns="http://www.w3.org/2000/svg" width="16" height="16" fill="context-fill" fill-opacity="context-fill-opacity" viewBox="0 0 16 16">
    <path d="m15.001 14.94-1.06 1.061-3.517-3.517a6 6 0 0 1-1.674.468V14.5H12V16H4v-1.5h3.25v-1.549A6.006 6.006 0 0 1 2 7h1.5c0 2.481 2.019 4.5 4.5 4.5a4.4 4.4 0 0 0 1.252-.187L7.937 9.998a3.003 3.003 0 0 1-2.936-2.936L0 2.06 1.06 1zM14 7a5.98 5.98 0 0 1-1.365 3.806l-1.08-1.08A4.46 4.46 0 0 0 12.5 7zM8 0c1.654 0 3 1.346 3 3v4c0 .615-.187 1.187-.507 1.664L9.39 7.56c.07-.174.111-.362.111-.56V3c0-.827-.673-1.5-1.5-1.5S6.5 2.173 6.5 3v1.67L5 3.17V3c0-1.654 1.346-3 3-3" />
</svg>
