<!-- This Source Code Form is subject to the terms of the Mozilla Public
   - License, v. 2.0. If a copy of the MPL was not distributed with this
   - file, You can obtain one at http://mozilla.org/MPL/2.0/. -->
<svg xmlns="http://www.w3.org/2000/svg" width="16" height="16" fill="context-fill" fill-opacity="context-fill-opacity" viewBox="0 0 16 16">
    <path d="M3.5 7a4.5 4.5 0 0 0 9 0H14a6 6 0 0 1-5.25 5.951V14.5H12V16H4v-1.5h3.25v-1.549A6 6 0 0 1 2 7z" />
    <path d="M8 0a3 3 0 0 1 3 3v4a3 3 0 1 1-6 0V3a3 3 0 0 1 3-3m0 1.5A1.5 1.5 0 0 0 6.5 3v4a1.5 1.5 0 1 0 3 0V3A1.5 1.5 0 0 0 8 1.5" />
</svg>
