<!-- This Source Code Form is subject to the terms of the Mozilla Public
   - License, v. 2.0. If a copy of the MPL was not distributed with this
   - file, You can obtain one at http://mozilla.org/MPL/2.0/. -->
<svg xmlns="http://www.w3.org/2000/svg" width="16" height="16" fill="context-fill" fill-opacity="context-fill-opacity" viewBox="0 0 16 16">
    <path fill-rule="evenodd" d="M10 .5c.98 0 1.9.05 2.754.133l.83.093.255.045a2.75 2.75 0 0 1 2.16 2.687l.003 9.534c0 .515-.224 1.036-.661 1.377l-.001.001a3 3 0 0 1-4.824-2.677l.018-.15C10.766 10.019 12.17 9 13.629 9h.872L14.5 5.937A55 55 0 0 0 10 5.75c-1.604 0-3.11.074-4.5.19v7.052a1.75 1.75 0 0 1-.673 1.387 3.02 3.02 0 0 1-2.71.493 2.96 2.96 0 0 1-1.952-1.874l-.055-.18A3.005 3.005 0 0 1 3 8.998h1v-5.54A2.754 2.754 0 0 1 6.414.727 29 29 0 0 1 10 .5m3.629 10c-.796 0-1.46.536-1.6 1.207l-.021.136a1.5 1.5 0 0 0 2.412 1.342.25.25 0 0 0 .082-.193L14.5 10.5zM3 10.499c-.963 0-1.718.906-1.443 1.93.127.472.514.867.979 1.003a1.52 1.52 0 0 0 1.375-.242l.033-.033A.27.27 0 0 0 4 12.992V10.5zM10 2a27 27 0 0 0-3.398.214A1.254 1.254 0 0 0 5.5 3.458v.976a56 56 0 0 1 9-.003v-.973c0-.631-.47-1.163-1.105-1.244A27 27 0 0 0 10 2" clip-rule="evenodd" />
</svg>
