<!-- This Source Code Form is subject to the terms of the Mozilla Public
   - License, v. 2.0. If a copy of the MPL was not distributed with this
   - file, You can obtain one at http://mozilla.org/MPL/2.0/. -->
<svg xmlns="http://www.w3.org/2000/svg" width="16" height="16" fill="context-fill" fill-opacity="context-fill-opacity" viewBox="0 0 16 16">
    <path d="M14 .5a2 2 0 0 1 2 2l.002 11.177-.167.207A3 3 0 1 1 13.5 9h1.001L14.5 5.5h-9v8.179l-.167.207A3 3 0 1 1 3 9h1V2.5a2 2 0 0 1 2-2zm-11 10a1.5 1.5 0 1 0 1 2.614V10.5zm10.5 0a1.5 1.5 0 1 0 1.001 2.613V10.5zM6 2a.5.5 0 0 0-.5.5V4h9V2.5A.5.5 0 0 0 14 2z" />
</svg>
