<!-- This Source Code Form is subject to the terms of the Mozilla Public
   - License, v. 2.0. If a copy of the MPL was not distributed with this
   - file, You can obtain one at http://mozilla.org/MPL/2.0/. -->
<svg xmlns="http://www.w3.org/2000/svg" width="16" height="16" fill="context-fill" fill-opacity="context-fill-opacity" viewBox="0 0 16 16">
    <path d="M9.5 7a.75.75 0 0 1 0 1.5H4.25a.75.75 0 0 1 0-1.5zm2.25-3.5a.75.75 0 0 1 0 1.5h-7.5a.75.75 0 0 1 0-1.5z" />
    <path fill-rule="evenodd" d="M8 0c1.455 0 3.056.059 4.777.213l.746.072.258.04A2.76 2.76 0 0 1 16 3.025v5.948c0 1.4-1.049 2.59-2.454 2.737q-.27.026-.546.05v1.486c0 1.533-1.83 2.324-2.947 1.276l-2.699-2.534a53 53 0 0 1-4.876-.275A2.76 2.76 0 0 1 0 8.974V3.025C0 1.625 1.049.435 2.454.288A54 54 0 0 1 8 0m0 1.5c-1.946 0-3.75.11-5.39.28A1.246 1.246 0 0 0 1.5 3.025v5.949c0 .639.49 1.181 1.133 1.248 1.363.14 2.648.219 3.852.253l1.176.02.14.014a.75.75 0 0 1 .369.19l2.91 2.73a.25.25 0 0 0 .42-.182v-2.17c0-.391.3-.717.69-.748q.614-.049 1.2-.11l.116-.018c.57-.115.994-.623.994-1.227V3.026c0-.64-.49-1.182-1.133-1.249A52 52 0 0 0 8 1.5" clip-rule="evenodd" />
</svg>
