<svg width="16" height="16" viewBox="0 0 16 16" fill="none" xmlns="http://www.w3.org/2000/svg">
<path fill-rule="evenodd" clip-rule="evenodd" d="M8 1C9.4553 1 11.0559 1.05884 12.7773 1.21289L13.5225 1.28516L13.7812 1.32422C15.0525 1.57884 16 2.69884 16 4.02539V9.97461C16 11.3741 14.9513 12.5653 13.5459 12.7119C11.8584 12.8874 10.0011 13 8 13C6.33683 13 4.48373 12.9228 2.47754 12.7148C1.07827 12.5696 0 11.3897 0 9.97461V4.02539C0 2.62588 1.04865 1.43465 2.4541 1.28809C4.14156 1.11265 5.99888 1 8 1ZM6 2.53906C4.80516 2.58518 3.67267 2.66973 2.60938 2.78027C1.9811 2.84597 1.5 3.38109 1.5 4.02539V9.97461C1.5 10.6135 1.99009 11.1559 2.63281 11.2227C4.58244 11.4247 6.3833 11.5 8 11.5C9.94487 11.5 11.7501 11.3903 13.3906 11.2197C14.0189 11.154 14.5 10.6189 14.5 9.97461V5H7C6.448 5 6 4.552 6 4V2.53906Z" fill="black"/>
</svg>
