<!-- This Source Code Form is subject to the terms of the Mozilla Public
   - License, v. 2.0. If a copy of the MPL was not distributed with this
   - file, You can obtain one at http://mozilla.org/MPL/2.0/. -->
<svg xmlns="http://www.w3.org/2000/svg" width="16" height="16" fill="context-fill" fill-opacity="context-fill-opacity" viewBox="0 0 16 16">
    <path fill-rule="evenodd" d="M8 1c1.455 0 3.056.059 4.777.213l.746.072.258.04A2.76 2.76 0 0 1 16 4.024v5.95c0 1.4-1.049 2.59-2.454 2.737a53.6 53.6 0 0 1-11.068.003A2.76 2.76 0 0 1 0 9.975v-5.95c0-1.4 1.049-2.59 2.454-2.737A54 54 0 0 1 8 1M6 2.54c-1.195.045-2.327.13-3.39.24A1.246 1.246 0 0 0 1.5 4.025v5.95c0 .639.49 1.18 1.133 1.248a52 52 0 0 0 10.758-.003A1.246 1.246 0 0 0 14.5 9.975V5H7a1 1 0 0 1-1-1z" clip-rule="evenodd" />
</svg>
