<!-- This Source Code Form is subject to the terms of the Mozilla Public
   - License, v. 2.0. If a copy of the MPL was not distributed with this
   - file, You can obtain one at http://mozilla.org/MPL/2.0/. -->
<svg xmlns="http://www.w3.org/2000/svg" width="16" height="16" fill="context-fill" fill-opacity="context-fill-opacity" viewBox="0 0 16 16">
    <path d="M10.25 9.5a.75.75 0 0 1 0 1.5h-2.5a.75.75 0 1 1 0-1.5zM10.25 6.5a.75.75 0 0 1 0 1.5h-2.5a.75.75 0 0 1 0-1.5z" />
    <path fill-rule="evenodd" d="M11.566 2.008a2.25 2.25 0 0 1 1.705.58c.464.427.73 1.033.73 1.665V13.5h.249a.75.75 0 0 1 0 1.5H1.75a.75.75 0 1 1 0-1.5H2v-4A1.5 1.5 0 0 1 3.5 8H4V5.89c0-1.14.725-2.18 1.804-2.583a21.8 21.8 0 0 1 5.762-1.3m.126 1.494A20.185 20.185 0 0 0 6.33 4.71c-.504.189-.83.652-.83 1.18V13.5h7V4.253a.75.75 0 0 0-.808-.751" clip-rule="evenodd" />
</svg>
