<!-- This Source Code Form is subject to the terms of the Mozilla Public
   - License, v. 2.0. If a copy of the MPL was not distributed with this
   - file, You can obtain one at http://mozilla.org/MPL/2.0/. -->
<svg xmlns="http://www.w3.org/2000/svg" width="16" height="16" fill="context-fill" fill-opacity="context-fill-opacity" viewBox="0 0 16 16">
    <path fill-rule="evenodd" d="M4.625 8.75c.245 0 .531.01.85.045a2 2 0 0 1 1.775 1.99v3.179a2.006 2.006 0 0 1-1.804 1.993 8 8 0 0 1-1.67-.002A2 2 0 0 1 2 13.965v-3.179C2 9.75 2.787 8.9 3.804 8.793q.382-.041.821-.043m0 1.5a6 6 0 0 0-.665.035.506.506 0 0 0-.46.501v3.179a.5.5 0 0 0 .437.498 6.4 6.4 0 0 0 1.353.002.506.506 0 0 0 .46-.501v-3.179a.5.5 0 0 0-.437-.498 6 6 0 0 0-.688-.037M11.375 8.75c.245 0 .531.01.85.045A2 2 0 0 1 14 10.785v3.179a2.006 2.006 0 0 1-1.804 1.993 8 8 0 0 1-1.67-.002 2 2 0 0 1-1.776-1.99v-3.179c0-1.037.787-1.887 1.804-1.993q.382-.041.821-.043m0 1.5a6 6 0 0 0-.665.035.506.506 0 0 0-.46.501v3.179a.5.5 0 0 0 .437.498 6.4 6.4 0 0 0 1.353.002.506.506 0 0 0 .46-.501v-3.179a.5.5 0 0 0-.437-.498 6 6 0 0 0-.688-.037M4.625 0c.245 0 .531.01.85.045a2 2 0 0 1 1.775 1.99v3.179a2.006 2.006 0 0 1-1.804 1.993 8 8 0 0 1-1.67-.002A2 2 0 0 1 2 5.215V2.036C2 1 2.787.15 3.804.043Q4.186.002 4.625 0m0 1.5q-.353.002-.665.035a.506.506 0 0 0-.46.501v3.179a.5.5 0 0 0 .437.498 6.4 6.4 0 0 0 1.353.002.506.506 0 0 0 .46-.501V2.035a.5.5 0 0 0-.437-.498 6 6 0 0 0-.688-.037M11.375 0c.245 0 .531.01.85.045A2 2 0 0 1 14 2.035v3.179a2.006 2.006 0 0 1-1.804 1.993 8 8 0 0 1-1.67-.002 2 2 0 0 1-1.776-1.99V2.036C8.75 1 9.537.15 10.554.043A8 8 0 0 1 11.375 0m0 1.5q-.353.002-.665.035a.506.506 0 0 0-.46.501v3.179a.5.5 0 0 0 .437.498 6.4 6.4 0 0 0 1.353.002.506.506 0 0 0 .46-.501V2.035a.5.5 0 0 0-.437-.498 6 6 0 0 0-.688-.037" clip-rule="evenodd" />
</svg>
