<!-- This Source Code Form is subject to the terms of the Mozilla Public
   - License, v. 2.0. If a copy of the MPL was not distributed with this
   - file, You can obtain one at http://mozilla.org/MPL/2.0/. -->
<svg xmlns="http://www.w3.org/2000/svg" width="16" height="16" fill="context-fill" fill-opacity="context-fill-opacity" viewBox="0 0 16 16">
    <g clip-path="url(#clip0_8069_32526)">
        <path d="M5 7a1 1 0 1 1 0 2 1 1 0 0 1 0-2" />
        <path fill-rule="evenodd" d="M4.924 3.076a4.91 4.91 0 0 1 4.35 2.64l4.102-.01c2.2-.006 3.426 2.547 2.038 4.259a2.615 2.615 0 0 1-3.374.594l-.147-.09-.232.233c-.61.61-1.602.61-2.213 0l-.259-.259a4.91 4.91 0 0 1-4.265 2.48 4.924 4.924 0 0 1 0-9.847m0 1.5a3.424 3.424 0 0 0 0 6.848 3.42 3.42 0 0 0 3.18-2.173l.05-.103a.75.75 0 0 1 .647-.372h.532l.147.015a.75.75 0 0 1 .383.205l.647.645a.064.064 0 0 0 .09 0l.647-.645.097-.082a.75.75 0 0 1 .82-.03l.649.39a1.11 1.11 0 0 0 1.435-.255c.59-.728.07-1.816-.868-1.813l-4.58.012a.75.75 0 0 1-.698-.474 3.42 3.42 0 0 0-3.178-2.168" clip-rule="evenodd" />
    </g>
</svg>
