<!-- This Source Code Form is subject to the terms of the Mozilla Public
   - License, v. 2.0. If a copy of the MPL was not distributed with this
   - file, You can obtain one at http://mozilla.org/MPL/2.0/. -->
   <svg width="16" height="16" fill="context-fill" fill-opacity="context-fill-opacity" xmlns="http://www.w3.org/2000/svg"><g clip-path="url(#a)"><path d="M4.5 7.25a1 1 0 1 1-.001 2 1 1 0 0 1 .001-2z"/><path fill-rule="evenodd" clip-rule="evenodd" d="M3.701 3.819a4.496 4.496 0 0 1 4.69 2.18h5.007c.223 0 .436.076.607.207l.071.06.007.005 1.603 1.506a1 1 0 0 1 .022 1.436l-2.187 2.188a1 1 0 0 1-1.415 0l-.469-.469-.469.469a1 1 0 0 1-1.414 0l-.901-.901H8.39a4.49 4.49 0 0 1-3.89 2.25A4.505 4.505 0 0 1 .12 7.198l.082-.306A4.487 4.487 0 0 1 3.491 3.86l.21-.041zM7.246 7.05a3.004 3.004 0 0 0-3.434-1.725 2.98 2.98 0 0 0-2.23 2.207A3.006 3.006 0 0 0 4.5 11.25c1.227 0 2.282-.74 2.746-1.801l.052-.098A.752.752 0 0 1 7.934 9h1.23c.198 0 .39.079.53.22l.767.767.646-.646a.752.752 0 0 1 1.06 0l.646.646 1.47-1.47L13.2 7.5H7.934a.75.75 0 0 1-.688-.45z"/></g><defs><clipPath id="a"><path fill="#fff" d="M0 0h16v16H0z"/></clipPath></defs></svg>