<!-- This Source Code Form is subject to the terms of the Mozilla Public
   - License, v. 2.0. If a copy of the MPL was not distributed with this
   - file, You can obtain one at http://mozilla.org/MPL/2.0/. -->
<svg xmlns="http://www.w3.org/2000/svg" width="16" height="16" fill="context-fill" fill-opacity="context-fill-opacity" viewBox="0 0 16 16">
    <path d="M4 2q.269-.001.592.022A1.51 1.51 0 0 1 6 3.522v8.955c0 .78-.592 1.437-1.37 1.498a8 8 0 0 1-1.222.002A1.51 1.51 0 0 1 2 12.48V3.521c0-.779.592-1.436 1.37-1.497Q3.67 2.001 4 2M12 2q.269-.001.592.022A1.51 1.51 0 0 1 14 3.522v8.955c0 .78-.592 1.437-1.37 1.498a8 8 0 0 1-1.222.002A1.51 1.51 0 0 1 10 12.48V3.521c0-.779.592-1.436 1.37-1.497q.3-.024.63-.025" />
</svg>
