<!-- This Source Code Form is subject to the terms of the Mozilla Public
   - License, v. 2.0. If a copy of the MPL was not distributed with this
   - file, You can obtain one at http://mozilla.org/MPL/2.0/. -->
<svg xmlns="http://www.w3.org/2000/svg" width="16" height="16" fill="context-fill" fill-opacity="context-fill-opacity" viewBox="0 0 16 16">
    <path fill-rule="evenodd" d="M8.001 5c1.14 0 2.162.686 2.628 1.73l.192.409c.47.94 1.077 1.799 1.8 2.548l.602.622c.5.516.777 1.206.777 1.924v.01a2.53 2.53 0 0 1-2.183 2.501 28.7 28.7 0 0 1-7.66-.004C2.903 14.57 2 13.485 2 12.247h.002c0-.723.277-1.42.777-1.938l.602-.622A10.3 10.3 0 0 0 5.373 6.73 2.89 2.89 0 0 1 8.001 5m0 1.5c-.528 0-1.025.318-1.258.84a11.8 11.8 0 0 1-2.284 3.39l-.6.622-.002-.001a1.3 1.3 0 0 0-.355.896H3.5c0 .514.375.941.858 1.007a27 27 0 0 0 7.26.004l.091-.017c.455-.105.79-.519.791-.998v-.01c0-.33-.127-.646-.355-.881l-.602-.623a11.8 11.8 0 0 1-2.284-3.387A1.39 1.39 0 0 0 8 6.5" clip-rule="evenodd" />
    <path d="M1.5 5C2.328 5 3 5.895 3 7s-.672 2-1.5 2S0 8.105 0 7s.672-2 1.5-2M14.5 5c.828 0 1.5.895 1.5 2s-.672 2-1.5 2S13 8.105 13 7s.672-2 1.5-2M5.5.5c.828 0 1.5.895 1.5 2s-.672 2-1.5 2S4 3.605 4 2.5s.672-2 1.5-2M10.5.5c.828 0 1.5.895 1.5 2s-.672 2-1.5 2S9 3.605 9 2.5s.672-2 1.5-2" />
</svg>
