<!-- This Source Code Form is subject to the terms of the Mozilla Public
   - License, v. 2.0. If a copy of the MPL was not distributed with this
   - file, You can obtain one at http://mozilla.org/MPL/2.0/. -->
<svg xmlns="http://www.w3.org/2000/svg" width="16" height="16" fill="context-fill" fill-opacity="context-fill-opacity" viewBox="0 0 16 16">
    <path d="M7 11H3V9.5h4z" />
    <path d="M14 2a2 2 0 0 1 2 2v8a2 2 0 0 1-2 2H2a2 2 0 0 1-2-2V4a2 2 0 0 1 2-2zM1.5 12a.5.5 0 0 0 .5.5h12a.5.5 0 0 0 .5-.5V7h-13zM2 3.5a.5.5 0 0 0-.5.5v1.5h13V4a.5.5 0 0 0-.5-.5z" />
</svg>
