<!-- This Source Code Form is subject to the terms of the Mozilla Public
   - License, v. 2.0. If a copy of the MPL was not distributed with this
   - file, You can obtain one at http://mozilla.org/MPL/2.0/. -->
<svg xmlns="http://www.w3.org/2000/svg" width="16" height="16" fill="context-fill" fill-opacity="context-fill-opacity" viewBox="0 0 16 16">
    <path fill-rule="evenodd" d="M8.803.016a2 2 0 0 1 1.36.585l3.244 3.245c.375.374.585.882.585 1.412L14 13.042a2.764 2.764 0 0 1-2.416 2.732 28.6 28.6 0 0 1-7.198-.002A2.75 2.75 0 0 1 2 13.042V2.97C2 1.604 3.114.388 4.47.219A29 29 0 0 1 8 0c.168 0 .49.008.803.016M8.5 4.5a1 1 0 0 0 1 1h3.4L8.5 1.1z" clip-rule="evenodd" />
    <path fill-rule="evenodd" d="M5.125 9.25c.621 0 1.125.504 1.125 1.125v.25c0 .621-.504 1.125-1.125 1.125H4.75v.875a.375.375 0 0 1-.75 0v-3c0-.207.168-.375.375-.375zM4.75 11h.375a.375.375 0 0 0 .375-.375v-.25A.375.375 0 0 0 5.125 10H4.75zM7.938 9.25c.758 0 1.375.616 1.375 1.375v1c0 .759-.617 1.375-1.376 1.375h-.625a.375.375 0 0 1-.375-.375v-3c0-.207.168-.375.375-.375zm-.25 3h.25c.344 0 .625-.28.625-.625v-1A.626.626 0 0 0 7.937 10h-.25z" clip-rule="evenodd" />
    <path d="M11.625 9.25a.375.375 0 0 1 0 .75h-.75v.875h.625a.375.375 0 0 1 0 .75h-.625v1a.375.375 0 0 1-.75 0v-3c0-.207.168-.375.375-.375z" />
</svg>
