<!-- This Source Code Form is subject to the terms of the Mozilla Public
   - License, v. 2.0. If a copy of the MPL was not distributed with this
   - file, You can obtain one at http://mozilla.org/MPL/2.0/. -->
<svg xmlns="http://www.w3.org/2000/svg" width="16" height="16" fill="context-fill" fill-opacity="context-fill-opacity" viewBox="0 0 16 16">
    <path fill-rule="evenodd" d="M2.412 8.056a3.006 3.006 0 0 1 3.532 3.532 3.01 3.01 0 0 1-2.356 2.356 3.006 3.006 0 0 1-3.531-3.532 3.01 3.01 0 0 1 2.355-2.356M3 9.5c-.827 0-1.5.673-1.5 1.5s.673 1.5 1.5 1.5 1.5-.673 1.5-1.5S3.827 9.5 3 9.5" clip-rule="evenodd" />
    <path d="M15.25 10.5a.75.75 0 0 1 0 1.5H7.12a4.2 4.2 0 0 0 .13-1c0-.171-.03-.334-.05-.5z" />
    <path fill-rule="evenodd" d="M10.057 5.588a3.006 3.006 0 0 1 3.53-3.532 3.01 3.01 0 0 1 2.357 2.356 3.007 3.007 0 0 1-3.532 3.532 3.01 3.01 0 0 1-2.355-2.356M13 3.5c-.827 0-1.5.673-1.5 1.5s.673 1.5 1.5 1.5 1.5-.673 1.5-1.5-.673-1.5-1.5-1.5" clip-rule="evenodd" />
    <path d="M8.8 4.5c-.02.166-.05.329-.05.5 0 .346.053.678.13 1H.75a.75.75 0 0 1 0-1.5z" />
</svg>
