<!-- This Source Code Form is subject to the terms of the Mozilla Public
   - License, v. 2.0. If a copy of the MPL was not distributed with this
   - file, You can obtain one at http://mozilla.org/MPL/2.0/. -->
<svg xmlns="http://www.w3.org/2000/svg" width="16" height="16" fill="context-fill" fill-opacity="context-fill-opacity" viewBox="0 0 16 16">
    <path d="M7.237 1.14a.75.75 0 0 1 .871 1.22q-.408.29-.786.583l2.423 2.421 2.69.236c.68.06 1.28.494 1.566 1.134.267.597.206 1.247-.162 1.737a27 27 0 0 1-1.878 2.217l-.098.097 3.918 3.936a.75.75 0 0 1-1.062 1.058l-3.92-3.936-.105.106a28 28 0 0 1-2.253 1.911 1.6 1.6 0 0 1-.957.315c-.244 0-.495-.054-.737-.162a1.93 1.93 0 0 1-1.145-1.581L5.366 9.74 2.944 7.321q-.31.402-.584.787a.75.75 0 0 1-1.22-.87 26 26 0 0 1 2.795-3.303l.343-.337a26 26 0 0 1 2.96-2.458" />
</svg>
