<!-- This Source Code Form is subject to the terms of the Mozilla Public
   - License, v. 2.0. If a copy of the MPL was not distributed with this
   - file, You can obtain one at http://mozilla.org/MPL/2.0/. -->
<svg xmlns="http://www.w3.org/2000/svg" width="16" height="16" fill="context-fill" fill-opacity="context-fill-opacity" viewBox="0 0 16 16">
    <path d="m13.208 5.288-3.104-.157-3-3 1.07-1.07L7.114 0 0 7.114l1.061 1.061 1.07-1.07 3 3 .157 3.104a1.48 1.48 0 0 0 .961 1.324 1.48 1.48 0 0 0 1.599-.339l2.643-2.643 4.45 4.45L16 14.939l-4.45-4.45 2.643-2.643a1.48 1.48 0 0 0 .339-1.599 1.48 1.48 0 0 0-1.324-.959" />
</svg>
