<!-- This Source Code Form is subject to the terms of the Mozilla Public
   - License, v. 2.0. If a copy of the MPL was not distributed with this
   - file, You can obtain one at http://mozilla.org/MPL/2.0/. -->
<svg xmlns="http://www.w3.org/2000/svg" width="16" height="16" fill="context-fill" fill-opacity="context-fill-opacity" viewBox="0 0 16 16">
    <path fill-rule="evenodd" d="M7.237 1.14a.75.75 0 0 1 .871 1.22 25 25 0 0 0-.383.28L9.97 4.883l2.51.22c.9.08 1.595.649 1.938 1.343.343.695.37 1.597-.179 2.327a26 26 0 0 1-1.913 2.26l-.009.008-.008.01-.091.09 3.563 3.58a.75.75 0 0 1-1.062 1.058l-3.565-3.58-.105.107-.009.009-.009.007c-.769.719-1.542 1.38-2.289 1.939-.733.55-1.633.505-2.317.153a2.43 2.43 0 0 1-1.319-1.936l-.22-2.51L2.64 7.724q-.145.195-.28.384a.75.75 0 0 1-1.22-.87 26 26 0 0 1 2.795-3.303l.343-.337a26 26 0 0 1 2.96-2.458M6.54 3.576q-.663.562-1.22 1.102l-.325.317c-.52.52-.992 1.038-1.418 1.544L6.14 9.1l.192.194.024.271.245 2.783c.028.316.23.589.51.733.28.143.547.12.733-.02a26 26 0 0 0 2.163-1.834l1.242-1.238a25 25 0 0 0 1.79-2.115l.05-.078c.104-.191.106-.437-.016-.685a.9.9 0 0 0-.724-.512l-2.783-.244-.271-.025-.193-.192z" clip-rule="evenodd" />
</svg>
