<!-- This Source Code Form is subject to the terms of the Mozilla Public
   - License, v. 2.0. If a copy of the MPL was not distributed with this
   - file, You can obtain one at http://mozilla.org/MPL/2.0/. -->
<svg xmlns="http://www.w3.org/2000/svg" width="16" height="16" fill="context-fill" fill-opacity="context-fill-opacity" viewBox="0 0 16 16">
    <g clip-path="url(#clip0_8069_32659)">
        <path fill-rule="evenodd" d="M11.242.864c.922-.924 2.46-1.199 3.607-.371l.128.097a2.75 2.75 0 0 1 .22 4.08l-1.461 1.462 1.224 4.576.035.148a2.27 2.27 0 0 1-.622 2.042l-1.047 1.05a1.258 1.258 0 0 1-2.018-.334A17 17 0 0 1 9.98 9.89l-1.925 1.927.194 1.593c.047.383-.084.766-.357 1.04l-1.253 1.254c-.453.453-1.273.395-1.6-.244l-.001-.002a12.7 12.7 0 0 1-1.15-3.356q-.391-.073-.82-.184l-.5-.142a12.7 12.7 0 0 1-2.027-.822H.54c-.638-.328-.696-1.148-.244-1.601L1.547 8.1l.109-.097a1.26 1.26 0 0 1 .927-.263h.005l1.59.195 1.926-1.929A17 17 0 0 1 4.9 5.683l-.425-.138a17 17 0 0 1-2.09-.869c-.76-.378-.954-1.398-.336-2.016l1.048-1.05a2.27 2.27 0 0 1 2.192-.586l4.568 1.224zm2.73.845c-.465-.334-1.187-.267-1.669.215l-1.69 1.692a.75.75 0 0 1-.725.194L4.9 2.472a.77.77 0 0 0-.741.198l-.806.807c.479.225 1.013.448 1.603.647l.387.126c.894.277 1.71.44 2.402.536A.75.75 0 0 1 8.17 6.06L4.98 9.255a.75.75 0 0 1-.622.214l-1.835-.224-.67.67c.35.151.735.3 1.155.43l.44.124c.432.113.835.192 1.2.246a.75.75 0 0 1 .633.653 11 11 0 0 0 .796 2.777l.668-.669-.223-1.838a.75.75 0 0 1 .214-.62l3.19-3.195a.75.75 0 0 1 1.274.426 15.4 15.4 0 0 0 1.306 4.396l.807-.806a.77.77 0 0 0 .197-.742l-1.336-4.994a.75.75 0 0 1 .195-.724l1.765-1.768a1.248 1.248 0 0 0-.164-1.9" clip-rule="evenodd" />
    </g>
</svg>
