<!-- This Source Code Form is subject to the terms of the Mozilla Public
   - License, v. 2.0. If a copy of the MPL was not distributed with this
   - file, You can obtain one at http://mozilla.org/MPL/2.0/. -->
<svg xmlns="http://www.w3.org/2000/svg" width="16" height="16" fill="context-fill" fill-opacity="context-fill-opacity" viewBox="0 0 16 16"><g fill="#000" clip-path="url(#clip0_1202_2704)"><path d="M8.5.5C12.636.5 16 3.864 16 8s-3.364 7.5-7.5 7.5c-3.796 0-6.934-2.837-7.425-6.5H2.59c.478 2.833 2.942 5 5.91 5 3.309 0 6-2.691 6-6s-2.691-6-6-6a5.99 5.99 0 0 0-5.09 2.836l1.36 1.36A.47.47 0 0 1 4.437 7H.862a.47.47 0 0 1-.471-.47V2.953c0-.42.508-.63.805-.333l1.132 1.133A7.48 7.48 0 0 1 8.5.5"/><path d="M10.75 6.5H8.5v1h1A1.5 1.5 0 0 1 11 9v1a1.5 1.5 0 0 1-1.5 1.5H7V10h2.5V9H7.75A.75.75 0 0 1 7 8.25v-2.5A.75.75 0 0 1 7.75 5h3z"/></g><defs><clipPath id="clip0_1202_2704"><path fill="#fff" d="M0 0h16v16H0z"/></clipPath></defs></svg>