<!-- This Source Code Form is subject to the terms of the Mozilla Public
   - License, v. 2.0. If a copy of the MPL was not distributed with this
   - file, You can obtain one at http://mozilla.org/MPL/2.0/. -->
<svg xmlns="http://www.w3.org/2000/svg" width="16" height="16" fill="context-fill" fill-opacity="context-fill-opacity" viewBox="0 0 16 16">
    <path d="M7.513 0a7.48 7.48 0 0 1 5.792 2.737l1.09-1.09a.5.5 0 0 1 .855.354V5.5a.5.5 0 0 1-.5.5h-3.499a.5.5 0 0 1-.354-.854l1.34-1.341A6 6 0 1 0 7.514 13.5a6 6 0 0 0 5.72-4.178.75.75 0 1 1 1.428.455A7.5 7.5 0 1 1 7.514 0" />
    <path d="M9.318 5.555H6.775l-.15 1.457h.033q.154-.216.463-.358t.693-.142q.525 0 .938.247.411.247.65.678.24.43.237.99.002.588-.273 1.045a1.93 1.93 0 0 1-.764.716q-.49.259-1.136.26v.001q-.602 0-1.074-.222a1.87 1.87 0 0 1-.744-.61 1.57 1.57 0 0 1-.287-.893h1.193a.73.73 0 0 0 .284.547q.264.21.628.211.29-.001.51-.128a.9.9 0 0 0 .35-.36q.128-.234.128-.535 0-.307-.131-.54a.93.93 0 0 0-.355-.364 1.05 1.05 0 0 0-.52-.134q-.256 0-.497.105a.9.9 0 0 0-.372.287l-1.094-.196.276-3.068h3.557z" />
</svg>
