<!-- This Source Code Form is subject to the terms of the Mozilla Public
   - License, v. 2.0. If a copy of the MPL was not distributed with this
   - file, You can obtain one at http://mozilla.org/MPL/2.0/. -->
<svg xmlns="http://www.w3.org/2000/svg" width="16" height="16" fill="context-fill" fill-opacity="context-fill-opacity" viewBox="0 0 16 16">
    <path d="M14 3a2 2 0 0 1 2 2v8a2 2 0 0 1-2 2H2a2 2 0 0 1-2-2V5a2 2 0 0 1 2-2h1V1.5a.5.5 0 0 1 .5-.5h3a.5.5 0 0 1 .5.5V3h2V1.5a.5.5 0 0 1 .5-.5h3a.5.5 0 0 1 .5.5V3zM2 4.5a.5.5 0 0 0-.5.5v8a.5.5 0 0 0 .5.5h12a.5.5 0 0 0 .5-.5V5a.5.5 0 0 0-.5-.5z" />
</svg>
