<!-- This Source Code Form is subject to the terms of the Mozilla Public
   - License, v. 2.0. If a copy of the MPL was not distributed with this
   - file, You can obtain one at http://mozilla.org/MPL/2.0/. -->
<svg xmlns="http://www.w3.org/2000/svg" width="16" height="16" fill="context-fill" fill-opacity="context-fill-opacity" viewBox="0 0 16 16">
    <g clip-path="url(#clip0_8069_32625)">
        <path fill-rule="evenodd" d="M8.249 1.008a2.8 2.8 0 0 0-.491 1.5 27 27 0 0 0-3.154.206A1.26 1.26 0 0 0 3.5 3.958v7.044h5.748c.965 0 1.75.785 1.75 1.75v.714a.73.73 0 0 0 .25.554c.156.136.348.2.56.18q.011-.003.02-.002h.002a.743.743 0 0 0 .669-.731v-4.64h.003c.492 0 .975-.134 1.397-.384h.001c.035-.02.067-.048.101-.069v5.09a2.237 2.237 0 0 1-1.983 2.22 40.3 40.3 0 0 1-10.032 0 2.27 2.27 0 0 1-1.985-2.237v-.698c0-.965.785-1.75 1.75-1.75h.25V3.957a2.76 2.76 0 0 1 2.415-2.731 29 29 0 0 1 3.833-.218M1.75 12.5a.25.25 0 0 0-.25.25v.698c0 .38.289.701.673.75 2.488.313 5.017.382 7.534.206a2.2 2.2 0 0 1-.207-.94v-.714a.25.25 0 0 0-.25-.25z" clip-rule="evenodd" />
        <path d="M9.866 7.5c.275.261.57.49.873.698.002.018.011.033.011.052A.75.75 0 0 1 10 9H6a.75.75 0 0 1 0-1.5z" />
        <path fill-rule="evenodd" d="M12.493-.002c.3 0 .6.089.86.268a9.5 9.5 0 0 0 1.725.94c.648.27 1.026.971.896 1.668l-.212 1.142c-.107.576-.3 1.078-.575 1.493a6.1 6.1 0 0 1-1.926 1.858 1.5 1.5 0 0 1-.759.208 1.5 1.5 0 0 1-.774-.213 6.1 6.1 0 0 1-1.915-1.85c-.276-.418-.469-.923-.575-1.5l-.213-1.158a1.516 1.516 0 0 1 .892-1.671A10 10 0 0 0 11.64.26c.26-.174.556-.261.852-.261zm0 1.251a.3.3 0 0 0-.158.05 11.3 11.3 0 0 1-1.939 1.038c-.1.042-.163.17-.141.289l.213 1.16c.076.412.207.762.39 1.04a4.8 4.8 0 0 0 1.512 1.463q.06.035.128.036z" clip-rule="evenodd" />
        <path d="M8.082 4.5q.19.831.585 1.5H6a.75.75 0 0 1 0-1.5z" />
    </g>
</svg>
