<!-- This Source Code Form is subject to the terms of the Mozilla Public
   - License, v. 2.0. If a copy of the MPL was not distributed with this
   - file, You can obtain one at http://mozilla.org/MPL/2.0/. -->
   <svg width="16" height="16" fill="context-fill" fill-opacity="context-fill-opacity" xmlns="http://www.w3.org/2000/svg"><g clip-path="url(#a)" ><path fill-rule="evenodd" clip-rule="evenodd" d="M8.21 2c-.026.234-.02.475.025.717l.145.783H4a.5.5 0 0 0-.5.5v7.5h5.75a.75.75 0 0 1 .75.75v1.5a.75.75 0 0 0 1.5 0V7.91c.076.04.147.088.224.123.32.145.656.217 1.003.217.092 0 .182-.02.273-.03v5.53A2.25 2.25 0 0 1 10.75 16h-8.5A2.25 2.25 0 0 1 0 13.75v-1.5a.75.75 0 0 1 .75-.75H2V4a2 2 0 0 1 2-2h4.21zM1.5 13.75c0 .414.337.75.75.75h6.379a2.221 2.221 0 0 1-.129-.75V13h-7v.75z"/><path d="M9.5 10h-4V8.5h4V10zM9.018 5.5c.075.137.134.285.222.413.08.116.173.22.26.33V7h-4V5.5h3.518z"/><path fill-rule="evenodd" clip-rule="evenodd" d="M12.705 0c.19 0 .38.047.554.142l2.142 1.14c.466.252.678.743.572 1.315l-.23 1.228a3.562 3.562 0 0 1-.558 1.378c-.507.74-1.207 1.34-1.97 1.69a1.163 1.163 0 0 1-.972.003c-.763-.348-1.464-.948-1.974-1.692A3.566 3.566 0 0 1 9.71 3.82l-.248-1.335a1.142 1.142 0 0 1 .588-1.22L12.157.138c.172-.092.36-.138.548-.138zm-1.999 2.333.234 1.259c.064.348.185.652.358.903.375.548.88.988 1.425 1.246l-.014-4.476-.004-.002-1.999 1.07z"/></g><defs><clipPath id="a"><path  d="M0 0h16v16H0z"/></clipPath></defs></svg>