<!-- This Source Code Form is subject to the terms of the Mozilla Public
   - License, v. 2.0. If a copy of the MPL was not distributed with this
   - file, You can obtain one at http://mozilla.org/MPL/2.0/. -->
<svg xmlns="http://www.w3.org/2000/svg" width="16" height="16" fill="context-fill" fill-opacity="context-fill-opacity" viewBox="0 0 16 16">
    <path d="M10.095 6.219a.75.75 0 0 1 1.061 1.06l-2.811 2.812a1.437 1.437 0 0 1-2.03 0l-1.471-1.47a.75.75 0 0 1 1.06-1.062l1.472 1.47z" />
    <path fill-rule="evenodd" d="M6.056.77a2.75 2.75 0 0 1 3.889 0l.732.733h1.035a2.75 2.75 0 0 1 2.75 2.75v1.035l.733.733a2.75 2.75 0 0 1 0 3.888l-.733.733v1.035a2.75 2.75 0 0 1-2.75 2.75h-1.035l-.732.732a2.75 2.75 0 0 1-3.89 0l-.732-.732H4.288a2.75 2.75 0 0 1-2.75-2.75v-1.035l-.732-.733a2.75 2.75 0 0 1 0-3.888l.732-.733V4.253a2.75 2.75 0 0 1 2.75-2.75h1.035zm2.828 1.061a1.25 1.25 0 0 0-1.768 0l-.952.952a.75.75 0 0 1-.53.22H4.288c-.69 0-1.25.56-1.25 1.25V5.6a.75.75 0 0 1-.22.53l-.952.952a1.25 1.25 0 0 0 0 1.768l.953.951c.14.14.22.332.22.531v1.346c0 .69.559 1.25 1.25 1.25h1.345l.147.015a.75.75 0 0 1 .383.205l.952.952a1.25 1.25 0 0 0 1.768 0l.951-.952.114-.094a.75.75 0 0 1 .418-.126h1.345c.69 0 1.25-.56 1.25-1.25v-1.346c0-.199.08-.39.22-.53l.952-.952a1.25 1.25 0 0 0 0-1.768l-.952-.952a.75.75 0 0 1-.22-.53V4.253c0-.69-.56-1.25-1.25-1.25h-1.345a.75.75 0 0 1-.532-.22z" clip-rule="evenodd" />
</svg>
