<svg width="16" height="16" viewBox="0 0 16 16" fill="none" xmlns="http://www.w3.org/2000/svg">
<path d="M8.5 11H5.5V9.5H8.5V11Z" fill="black"/>
<path d="M10.5 8H5.5V6.5H10.5V8Z" fill="black"/>
<path d="M10.5 5H5.5V3.5H10.5V5Z" fill="black"/>
<path fill-rule="evenodd" clip-rule="evenodd" d="M12 0C13.1042 0 14 0.895786 14 2V13C14 14.1042 13.1042 15 12 15H4C2.89579 15 2 14.1042 2 13V2C2 0.895786 2.89579 0 4 0H12ZM4 1.5C3.72421 1.5 3.5 1.72421 3.5 2V13C3.5 13.2758 3.72421 13.5 4 13.5H12C12.2758 13.5 12.5 13.2758 12.5 13V2C12.5 1.72421 12.2758 1.5 12 1.5H4Z" fill="black"/>
</svg>
