<!-- This Source Code Form is subject to the terms of the Mozilla Public
   - License, v. 2.0. If a copy of the MPL was not distributed with this
   - file, You can obtain one at http://mozilla.org/MPL/2.0/. -->
<svg width="16" height="16" fill="context-fill" fill-opacity="context-fill-opacity" xmlns="http://www.w3.org/2000/svg"><path d="M8.5 11h-3V9.5h3V11zM10.5 8h-5V6.5h5V8zM10.5 5h-5V3.5h5V5z"/><path fill-rule="evenodd" clip-rule="evenodd" d="M12 0a2 2 0 0 1 2 2v11a2 2 0 0 1-2 2H4a2 2 0 0 1-2-2V2a2 2 0 0 1 2-2h8zM4 1.5a.5.5 0 0 0-.5.5v11a.5.5 0 0 0 .5.5h8a.5.5 0 0 0 .5-.5V2a.5.5 0 0 0-.5-.5H4z"/></svg>