<!-- This Source Code Form is subject to the terms of the Mozilla Public
   - License, v. 2.0. If a copy of the MPL was not distributed with this
   - file, You can obtain one at http://mozilla.org/MPL/2.0/. -->
<svg xmlns="http://www.w3.org/2000/svg" width="16" height="16" fill="context-fill" fill-opacity="context-fill-opacity" viewBox="0 0 16 16">
    <path d="M.22.22a.75.75 0 0 1 1.06 0l1.397 1.396.009-.008L5.078 4h-.017l5.06 5.06.01-.006 1.06 1.058-.01.008 4.6 4.6a.75.75 0 0 1-1.061 1.06l-4.784-4.784A3.02 3.02 0 0 0 8.75 13.4v1.85a.75.75 0 0 1-1.5 0V13.4c0-1.358.627-2.59 1.636-3.454L4.75 5.81v.141h-1.5v-1.64L2.94 4H1.5a.5.5 0 0 1-.354-.853l.47-.47L.22 1.28a.75.75 0 0 1 0-1.06" />
    <path d="M4.8 7.27A2.96 2.96 0 0 0 6.35 9.4c.22.12.42.25.59.381.03.02.03.05.01.07l-.84 1.118c-.01.01-.02.022-.03.022h-.01c-.01 0-.02 0-.03-.01a2.6 2.6 0 0 0-.39-.25 4.6 4.6 0 0 1-1.31-1.05 4.53 4.53 0 0 1-1.03-2.202l1.483-.258zM11.648.648a.5.5 0 0 1 .706 0l2.499 2.5A.5.5 0 0 1 14.5 4h-1.75v2.734a4.4 4.4 0 0 1-.738 2.43l-1.095-1.095c.204-.41.333-.86.333-1.336V4H9.501a.5.5 0 0 1-.353-.853zM3.646.647a.5.5 0 0 1 .707 0l2.499 2.5a.496.496 0 0 1-.087.77L3.57.724z" />
</svg>
