<!-- This Source Code Form is subject to the terms of the Mozilla Public
   - License, v. 2.0. If a copy of the MPL was not distributed with this
   - file, You can obtain one at http://mozilla.org/MPL/2.0/. -->
   <svg xmlns="http://www.w3.org/2000/svg" width="16" height="16" fill="context-fill" fill-opacity="context-fill-opacity" viewBox="0 0 16 16"><g clip-path="url(#clip0_8355_1542)"><path d="M11.647.648a.5.5 0 0 1 .707 0l2.5 2.499A.5.5 0 0 1 14.5 4h-1.75v2.735a4.53 4.53 0 0 1-2.397 3.994A3.03 3.03 0 0 0 8.75 13.4V16h-1.5v-2.6c0-1.672.921-3.209 2.396-3.995a3.03 3.03 0 0 0 1.604-2.671V4H9.5a.5.5 0 0 1-.352-.853zM4.8 7.268A3 3 0 0 0 5.47 8.7c.25.29.55.528.88.698.22.12.42.25.59.38.03.02.03.051.01.07l-.84 1.12c-.01.01-.02.02-.03.02l-.01.003c-.01 0-.02-.001-.03-.012-.12-.09-.25-.18-.39-.25-.5-.27-.94-.62-1.31-1.05-.002 0-.01 0-.01-.01a4.53 4.53 0 0 1-1.019-2.192l1.482-.257zM3.646.647a.5.5 0 0 1 .707 0l2.5 2.499a.5.5 0 0 1-.354.853h-1.75v1.952h-1.5V3.999L1.502 4a.5.5 0 0 1-.353-.853z"/></g><defs><clipPath id="clip0_8355_1542"><path fill="#fff" d="M0 0h16v16H0z"/></clipPath></defs></svg>