<!-- This Source Code Form is subject to the terms of the Mozilla Public
   - License, v. 2.0. If a copy of the MPL was not distributed with this
   - file, You can obtain one at http://mozilla.org/MPL/2.0/. -->
<svg xmlns="http://www.w3.org/2000/svg" width="16" height="16" fill="context-fill" fill-opacity="context-fill-opacity" viewBox="0 0 16 16">
    <path fill-rule="evenodd" d="M8 5.25a3.5 3.5 0 1 1 0 7 3.5 3.5 0 0 1 0-7m0 1.5a2 2 0 1 0 0 4 2 2 0 0 0 0-4" clip-rule="evenodd" />
    <path fill-rule="evenodd" d="M8 1c.636 0 1.214.053 1.72.13l.221.043c.511.12.974.384 1.341.76L12.516 3.2q.5.04 1.014.091A2.75 2.75 0 0 1 16 6.028v5.947c0 1.4-1.049 2.59-2.454 2.737a53.6 53.6 0 0 1-10.33.074l-.746-.072A2.744 2.744 0 0 1 0 11.99v-5.98a2.727 2.727 0 0 1 2.447-2.719l.657-.063.384-.034 1.23-1.261v-.001c.424-.434.98-.714 1.575-.804A11.5 11.5 0 0 1 8 1m0 1.5c-.42 0-.922.027-1.482.111a1.3 1.3 0 0 0-.727.37L4.397 4.412a.75.75 0 0 1-.503.255q-.661.052-1.293.117c-.626.065-1.1.59-1.101 1.227v5.98c0 .63.482 1.164 1.124 1.23a52 52 0 0 0 10.767-.001c.628-.066 1.109-.601 1.109-1.245V6.028a1.25 1.25 0 0 0-1.12-1.245q-.644-.064-1.276-.113a.75.75 0 0 1-.518-.275L10.208 2.98a1.25 1.25 0 0 0-.613-.348l-.1-.02A10 10 0 0 0 8 2.5" clip-rule="evenodd" />
</svg>
