<svg width="16" height="16" viewBox="0 0 16 16" fill="none" xmlns="http://www.w3.org/2000/svg">
<path fill-rule="evenodd" clip-rule="evenodd" d="M7 1C10.3137 1 13 3.68629 13 7C13 8.38619 12.5277 9.66087 11.7383 10.6768L14.7812 13.7188C15.0743 14.0118 15.0743 14.4873 14.7812 14.7803C14.6353 14.9263 14.443 15 14.251 15C14.059 15 13.8657 14.9273 13.7197 14.7803L10.6777 11.7373C9.66167 12.5273 8.38668 13 7 13C3.68629 13 1 10.3137 1 7C1 3.68629 3.68629 1 7 1ZM7 2.5C4.51472 2.5 2.5 4.51472 2.5 7C2.5 9.48528 4.51472 11.5 7 11.5C9.48528 11.5 11.5 9.48528 11.5 7C11.5 4.51472 9.48528 2.5 7 2.5Z" fill="black"/>
</svg>
