<!-- This Source Code Form is subject to the terms of the Mozilla Public
   - License, v. 2.0. If a copy of the MPL was not distributed with this
   - file, You can obtain one at http://mozilla.org/MPL/2.0/. -->
<svg xmlns="http://www.w3.org/2000/svg" width="16" height="16" fill="context-fill" fill-opacity="context-fill-opacity" viewBox="0 0 16 16">
    <path d="M7.375 4.874a2.1 2.1 0 0 1 1.502.623c.4.4.623.935.623 1.502s-.221 1.102-.623 1.503c-.803.803-2.202.803-3.005 0a2.12 2.12 0 0 1-.623-1.503c0-.567.221-1.101.623-1.502.402-.4.936-.623 1.503-.623" />
    <path fill-rule="evenodd" d="M8 0a8 8 0 1 1 0 16A8 8 0 0 1 8 0m1.76 4.613c-1.273-1.274-3.497-1.274-4.77 0A3.35 3.35 0 0 0 4 7c0 .9.351 1.75.99 2.387a3.35 3.35 0 0 0 2.385.988c.596 0 1.168-.155 1.672-.443l1.886 1.885a.624.624 0 0 0 .884 0 .626.626 0 0 0 0-.883l-1.816-1.816A3.35 3.35 0 0 0 10.75 7c0-.9-.351-1.749-.99-2.386" clip-rule="evenodd" />
</svg>
