<svg width="16" height="16" viewBox="0 0 16 16" fill="none" xmlns="http://www.w3.org/2000/svg">
<path fill-rule="evenodd" clip-rule="evenodd" d="M6.25 1C9.1495 1 11.5 3.3505 11.5 6.25C11.5 7.42923 11.1105 8.51713 10.4541 9.39355L14.999 13.9385L13.9385 14.999L9.39355 10.4541C8.51713 11.1105 7.42923 11.5 6.25 11.5C3.3505 11.5 1 9.1495 1 6.25C1 3.3505 3.3505 1 6.25 1ZM6.25 2.5C4.17893 2.5 2.5 4.17893 2.5 6.25C2.5 8.32107 4.17893 10 6.25 10C8.32107 10 10 8.32107 10 6.25C10 4.17893 8.32107 2.5 6.25 2.5Z" fill="black"/>
</svg>
