<!-- This Source Code Form is subject to the terms of the Mozilla Public
   - License, v. 2.0. If a copy of the MPL was not distributed with this
   - file, You can obtain one at http://mozilla.org/MPL/2.0/. -->
<svg xmlns="http://www.w3.org/2000/svg" width="16" height="16" fill="context-fill" fill-opacity="context-fill-opacity" viewBox="0 0 16 16">
    <path d="M8.626 4.874c.567 0 1.1.222 1.502.623.402.4.623.935.623 1.502s-.222 1.102-.623 1.503c-.803.803-2.202.803-3.005 0A2.1 2.1 0 0 1 6.5 6.999c0-.567.222-1.101.623-1.502a2.1 2.1 0 0 1 1.503-.623" />
    <path fill-rule="evenodd" d="M8 0a8 8 0 1 1 0 16A8 8 0 0 1 8 0m3.01 4.613c-1.273-1.274-3.497-1.274-4.77 0A3.35 3.35 0 0 0 5.25 7c0 .78.264 1.52.748 2.118l-1.815 1.816a.626.626 0 0 0 .884.883l1.885-1.885a3.35 3.35 0 0 0 1.673.443c.9 0 1.749-.35 2.386-.988A3.35 3.35 0 0 0 12 7c0-.9-.351-1.749-.99-2.386" clip-rule="evenodd" />
</svg>
