<!-- This Source Code Form is subject to the terms of the Mozilla Public
   - License, v. 2.0. If a copy of the MPL was not distributed with this
   - file, You can obtain one at http://mozilla.org/MPL/2.0/. -->
<svg xmlns="http://www.w3.org/2000/svg" width="16" height="16" fill="context-fill" fill-opacity="context-fill-opacity" viewBox="0 0 16 16">
    <path fill-rule="evenodd" d="M8 5a3 3 0 1 1 0 6 3 3 0 0 1 0-6m0 1.5c-.827 0-1.5.673-1.5 1.5S7.173 9.5 8 9.5 9.5 8.827 9.5 8 8.826 6.5 8 6.5" clip-rule="evenodd" />
    <path fill-rule="evenodd" d="M6.575.337a3.18 3.18 0 0 1 2.848 0c.4.2.705.543.859.958l.056.181.284 1.135q.38.192.718.428l1.138-.326h.002a1.75 1.75 0 0 1 1.444.222A3.18 3.18 0 0 1 15.348 5.4l.002.19a1.75 1.75 0 0 1-.532 1.174l-.845.817c.015.131.027.274.027.419s-.013.287-.028.419l.846.818c.368.356.56.854.53 1.361v.002c-.06 1-.588 1.915-1.424 2.467a1.75 1.75 0 0 1-1.444.223l-.002-.001-1.139-.326c-.224.155-.463.3-.717.426l-.284 1.136a1.75 1.75 0 0 1-.914 1.14 3.18 3.18 0 0 1-2.68.08l-.17-.08a1.76 1.76 0 0 1-.858-.957l-.055-.183-.284-1.136a6 6 0 0 1-.72-.426l-1.137.326a1.75 1.75 0 0 1-1.28-.126l-.165-.096A3.19 3.19 0 0 1 .65 10.601l-.001-.191c.021-.443.21-.863.531-1.173l.846-.818A4 4 0 0 1 1.999 8c0-.144.011-.287.026-.418l-.845-.818a1.75 1.75 0 0 1-.53-1.362 3.19 3.19 0 0 1 1.425-2.468l.165-.096a1.75 1.75 0 0 1 1.28-.126l1.139.326q.337-.235.718-.427l.284-1.136c.124-.495.458-.91.914-1.14m2.177 1.34a1.68 1.68 0 0 0-1.505 0 .25.25 0 0 0-.131.164l-.371 1.485a.75.75 0 0 1-.445.513 4.5 4.5 0 0 0-1.037.616.75.75 0 0 1-.665.127l-1.491-.427a.25.25 0 0 0-.206.032 1.69 1.69 0 0 0-.753 1.305.25.25 0 0 0 .075.194l1.117 1.08a.75.75 0 0 1 .222.64c-.036.266-.063.422-.063.595 0 .172.027.328.063.594a.75.75 0 0 1-.222.64l-1.117 1.08a.25.25 0 0 0-.076.194h.001c.032.53.31 1.013.754 1.306q.07.045.152.041l.055-.01 1.49-.426a.75.75 0 0 1 .665.127c.331.257.673.467 1.037.617a.75.75 0 0 1 .444.512l.37 1.485.02.05a.25.25 0 0 0 .11.113c.415.207.895.234 1.326.078l.181-.078a.25.25 0 0 0 .131-.163l.371-1.485.027-.085a.75.75 0 0 1 .418-.427 4.5 4.5 0 0 0 1.037-.617l.073-.05a.75.75 0 0 1 .591-.077l1.49.426c.07.02.146.01.207-.03l.158-.12c.35-.295.568-.723.596-1.187a.25.25 0 0 0-.075-.194l-1.117-1.08a.75.75 0 0 1-.222-.64c.036-.266.063-.423.063-.595 0-.173-.027-.329-.063-.595a.75.75 0 0 1 .222-.64l1.117-1.079a.25.25 0 0 0 .075-.194 1.68 1.68 0 0 0-.753-1.305.25.25 0 0 0-.208-.033l.001.001-1.491.427a.75.75 0 0 1-.665-.128 4.5 4.5 0 0 0-1.036-.615.75.75 0 0 1-.445-.513l-.37-1.485-.02-.05a.26.26 0 0 0-.112-.115" clip-rule="evenodd" />
</svg>
