<!-- This Source Code Form is subject to the terms of the Mozilla Public
   - License, v. 2.0. If a copy of the MPL was not distributed with this
   - file, You can obtain one at http://mozilla.org/MPL/2.0/. -->
<svg xmlns="http://www.w3.org/2000/svg" width="16" height="16" fill="context-fill" fill-opacity="context-fill-opacity" viewBox="0 0 16 16">
    <path d="M14.25 10.25A.75.75 0 0 1 15 11v1.256c0 1.38-1.024 2.57-2.414 2.731a40 40 0 0 1-8.526.069l-.622-.067A2.76 2.76 0 0 1 1 12.253V11a.75.75 0 0 1 1.5 0v1.253c0 .635.48 1.174 1.11 1.246l.597.063a38.6 38.6 0 0 0 8.207-.065 1.24 1.24 0 0 0 1.086-1.241V11a.75.75 0 0 1 .75-.75" />
    <path d="M8.002 1c.334 0 .648.13.884.366l3.146 3.146a.75.75 0 0 1-1.061 1.061L8.75 3.352v7.898a.75.75 0 0 1-1.5 0V3.354l-2.219 2.22A.75.75 0 0 1 3.97 4.511l3.146-3.146C7.352 1.13 7.666 1 8 1z" />
</svg>
