<!-- This Source Code Form is subject to the terms of the Mozilla Public
   - License, v. 2.0. If a copy of the MPL was not distributed with this
   - file, You can obtain one at http://mozilla.org/MPL/2.0/. -->
<svg xmlns="http://www.w3.org/2000/svg" width="16" height="16" fill="context-fill" fill-opacity="context-fill-opacity" viewBox="0 0 16 16">
    <path d="M10.014 6.885a.75.75 0 1 1 1.06 1.06l-2.537 2.539c-.236.236-.55.366-.884.366s-.648-.13-.884-.366L5.514 9.229a.75.75 0 1 1 1.06-1.06l1.079 1.077z" />
    <path fill-rule="evenodd" d="M6.613 1.36a2.76 2.76 0 0 1 2.934.125l.403.268q.412.27.87.538l.469.264.502.266q.746.38 1.436.666l.219.102c.99.52 1.55 1.59 1.442 2.692l-.034.236-.443 2.386c-.19 1.027-.542 2.06-1.139 2.967h-.002c-1.022 1.55-2.395 2.868-3.89 3.754a2.73 2.73 0 0 1-2.779-.011c-1.487-.885-2.85-2.195-3.869-3.737-.6-.91-.95-1.95-1.14-2.982L1.144 6.47c-.215-1.168.337-2.372 1.398-2.93l.22-.104q.751-.31 1.559-.724a22 22 0 0 0 2.11-1.24zm2.085 1.36a1.26 1.26 0 0 0-1.262-.097l-.172.097c-.665.443-1.42.896-2.257 1.326q-.865.444-1.668.776c-.517.215-.826.788-.718 1.376l.446 2.425c.164.892.457 1.728.917 2.426.9 1.363 2.102 2.511 3.385 3.275.387.23.87.231 1.246.008 1.29-.764 2.5-1.918 3.404-3.289.459-.696.752-1.527.916-2.414h.001l.443-2.386a1.24 1.24 0 0 0-.631-1.327l-.097-.044A21.7 21.7 0 0 1 8.698 2.72" clip-rule="evenodd" />
</svg>
