<!-- This Source Code Form is subject to the terms of the Mozilla Public
   - License, v. 2.0. If a copy of the MPL was not distributed with this
   - file, You can obtain one at http://mozilla.org/MPL/2.0/. -->
<svg xmlns="http://www.w3.org/2000/svg" width="16" height="16" fill="context-fill" fill-opacity="context-fill-opacity" viewBox="0 0 16 16">
    <path fill-rule="evenodd" d="M.72 1.22a.75.75 0 0 1 1.06 0l1.826 1.826.004-.001 1.128 1.128h-.004l7.108 7.109.002-.002 1.072 1.07-.003.002 2.367 2.367a.75.75 0 1 1-1.06 1.061l-2.268-2.267c-.773.834-1.643 1.562-2.57 2.11-.423.252-.9.377-1.376.377a2.74 2.74 0 0 1-1.403-.387c-1.489-.885-2.864-2.213-3.87-3.737-.545-.826-.929-1.829-1.14-2.98L1.145 6.47A2.77 2.77 0 0 1 2.2 3.76L.72 2.28a.75.75 0 0 1 0-1.061m2.567 3.627c-.491.235-.77.793-.666 1.353l.446 2.424c.175.953.484 1.77.917 2.427.884 1.338 2.086 2.502 3.384 3.274a1.22 1.22 0 0 0 1.247.009 10.2 10.2 0 0 0 2.28-1.878z" clip-rule="evenodd" />
    <path d="M6.431 1.474a2.77 2.77 0 0 1 3.116.013 20.7 20.7 0 0 0 3.679 2.001 2.75 2.75 0 0 1 1.627 3.031l-.444 2.385a8.4 8.4 0 0 1-.796 2.378l-1.13-1.13c.194-.46.35-.964.452-1.522l.444-2.386a1.24 1.24 0 0 0-.729-1.372 21.6 21.6 0 0 1-3.951-2.15 1.26 1.26 0 0 0-.714-.221c-.25 0-.5.074-.72.22-.445.297-.905.574-1.372.84L4.79 2.457a21 21 0 0 0 1.642-.983" />
</svg>
