<!-- This Source Code Form is subject to the terms of the Mozilla Public
   - License, v. 2.0. If a copy of the MPL was not distributed with this
   - file, You can obtain one at http://mozilla.org/MPL/2.0/. -->
<svg width="16" height="16" fill="context-fill" fill-opacity="context-fill-opacity" xmlns="http://www.w3.org/2000/svg"><path d="M7.46 1.62 5.51 2.68 4.4 1.57 6.75.3c.74-.4 1.63-.4 2.37 0l4.85 2.61c.96.52 1.47 1.59 1.27 2.66l-.55 2.97c-.17.93-.45 1.76-.83 2.49L12.73 9.9c.21-.49.38-1.03.49-1.63l.55-2.98a1 1 0 0 0-.51-1.06L8.41 1.62a1.005 1.005 0 0 0-.95 0zM8.5 14.37c1.37-.77 2.63-1.96 3.59-3.34v-.02l1.07 1.07c-1.07 1.47-2.43 2.74-3.92 3.58-.38.21-.81.32-1.24.32-.43 0-.86-.1-1.24-.32-1.65-.93-3.16-2.36-4.26-4.03-.57-.86-.97-1.91-1.19-3.11L.75 5.5c-.19-1.07.31-2.13 1.27-2.65l1.23-.66L4.36 3.3l-1.62.88c-.38.2-.59.63-.51 1.06l.56 3.02c.19 1.01.51 1.87.97 2.56.97 1.47 2.3 2.74 3.74 3.55.31.18.69.17 1 0z"/><path d="m1.067.003-1.06 1.06 14.94 14.941 1.061-1.06L1.067.003z"/></svg>