<svg width="16" height="16" viewBox="0 0 16 16" fill="none" xmlns="http://www.w3.org/2000/svg">
<path fill-rule="evenodd" clip-rule="evenodd" d="M5.5 3C6.40705 3 7.47003 3.05287 8.64941 3.21191C9.68763 3.35188 10.5029 4.07157 10.8359 5H12.3457C13.3272 5 14.2344 5.52363 14.7256 6.37305L15.6299 7.93652C15.8719 8.35456 16 8.83043 16 9.31348V11.75C16 12.4265 15.4622 12.9754 14.791 12.9971C14.4057 13.8811 13.526 14.5 12.5 14.5C11.4602 14.5 10.5693 13.865 10.1924 12.9619C9.47916 12.9862 8.74797 13.001 8 13.001C7.29495 13.001 6.56363 12.9877 5.80664 12.9619C5.42966 13.8649 4.53962 14.5 3.5 14.5C2.40032 14.5 1.46839 13.7893 1.13379 12.8027C0.462777 12.48 0 11.7942 0 11V5.93555C0.000222147 4.55997 1.01247 3.39118 2.38281 3.20801C3.31659 3.08303 4.36181 3 5.5 3ZM3.5 11C2.94772 11 2.5 11.4477 2.5 12C2.5 12.5523 2.94772 13 3.5 13C4.05228 13 4.5 12.5523 4.5 12C4.5 11.4477 4.05228 11 3.5 11ZM12.5 11C11.9477 11 11.5 11.4477 11.5 12C11.5 12.5523 11.9477 13 12.5 13C13.0523 13 13.5 12.5523 13.5 12C13.5 11.4477 13.0523 11 12.5 11ZM5.5 4.5C4.4343 4.5 3.45521 4.57733 2.58105 4.69434C1.96185 4.77726 1.50022 5.30562 1.5 5.93555V10.5049C1.95596 9.89593 2.68073 9.5 3.5 9.5C4.69727 9.5 5.69663 10.3419 5.94141 11.4658C6.65109 11.489 7.33742 11.501 8 11.501C8.50805 11.501 9.00819 11.4931 9.5 11.4814V5.93359C9.4998 5.30462 9.04134 4.77817 8.44922 4.69824C7.3446 4.54928 6.34895 4.5 5.5 4.5ZM11 9H14.458C14.4434 8.94396 14.4265 8.88851 14.4043 8.83496L14.332 8.6875L13.4277 7.12402C13.2047 6.73802 12.7918 6.5 12.3457 6.5H11V9Z" fill="black"/>
</svg>
