<!-- This Source Code Form is subject to the terms of the Mozilla Public
   - License, v. 2.0. If a copy of the MPL was not distributed with this
   - file, You can obtain one at http://mozilla.org/MPL/2.0/. -->
<svg xmlns="http://www.w3.org/2000/svg" width="16" height="16" fill="context-fill" fill-opacity="context-fill-opacity" viewBox="0 0 16 16">
    <path fill-rule="evenodd" d="M8 5.25a2.75 2.75 0 1 1 0 5.5 2.75 2.75 0 0 1 0-5.5m0 1.5a1.25 1.25 0 1 0 0 2.5 1.25 1.25 0 0 0 0-2.5" clip-rule="evenodd" />
    <path fill-rule="evenodd" d="M8 2c3.35 0 6.23 1.926 7.688 4.72.417.8.417 1.76 0 2.56C14.23 12.073 11.35 14 8 14S1.77 12.074.313 9.28a2.77 2.77 0 0 1 0-2.56C1.769 3.927 4.65 2 8 2m0 1.5c-2.754 0-5.14 1.58-6.356 3.913l-.001.001c-.19.366-.19.806 0 1.172C2.859 10.919 5.246 12.5 8 12.5s5.141-1.58 6.357-3.913v-.001c.191-.366.191-.806 0-1.172C13.142 5.081 10.755 3.5 8 3.5" clip-rule="evenodd" />
</svg>
