<!-- This Source Code Form is subject to the terms of the Mozilla Public
   - License, v. 2.0. If a copy of the MPL was not distributed with this
   - file, You can obtain one at http://mozilla.org/MPL/2.0/. -->
<svg xmlns="http://www.w3.org/2000/svg" width="16" height="16" fill="context-fill" fill-opacity="context-fill-opacity" viewBox="0 0 16 16"><path fill-rule="evenodd" d="m16 13.94-1.06 1.061-2.53-2.53A8.35 8.35 0 0 1 8 13.746c-3.484 0-6.66-2.202-7.902-5.48a.75.75 0 0 1 0-.53 8.45 8.45 0 0 1 3.425-4.151L.999 1.061 2.06 0zM4.59 4.651A6.93 6.93 0 0 0 1.607 8c1.1 2.589 3.58 4.245 6.393 4.245 1.2 0 2.337-.303 3.333-.85L9.91 9.97a2.73 2.73 0 0 1-1.91.78A2.75 2.75 0 0 1 5.25 8c0-.743.297-1.416.779-1.91zm2.496 2.496A1.252 1.252 0 0 0 8 9.25c.33 0 .627-.13.85-.338z" clip-rule="evenodd"/><path d="M8 2.255c3.484 0 6.659 2.202 7.902 5.478a.75.75 0 0 1 0 .532 8.4 8.4 0 0 1-1.411 2.395l-1.057-1.056A7 7 0 0 0 14.393 8C13.293 5.411 10.814 3.755 8 3.755c-.13 0-.257.021-.387.028L6.286 2.457A8.2 8.2 0 0 1 8 2.255"/></svg>