<!-- This Source Code Form is subject to the terms of the Mozilla Public
   - License, v. 2.0. If a copy of the MPL was not distributed with this
   - file, You can obtain one at http://mozilla.org/MPL/2.0/. -->
<svg xmlns="http://www.w3.org/2000/svg" width="16" height="16" fill="context-fill" fill-opacity="context-fill-opacity" viewBox="0 0 16 16">
    <path fill-rule="evenodd" d="M1.222.22a.75.75 0 0 1 1.06 0l2.443 2.444.008-.003 1.17 1.17-.01.002 1.493 1.492.008-.002 3.285 3.284-.003.008 2.051 2.052.006-.005 1.06 1.06-.005.006 1.993 1.993a.75.75 0 1 1-1.06 1.06l-2.133-2.135a8.5 8.5 0 0 1-4.586 1.355c-3.224 0-6.17-1.809-7.689-4.72a2.77 2.77 0 0 1 0-2.56 8.8 8.8 0 0 1 3.023-3.326L1.222 1.28a.75.75 0 0 1 0-1.06m3.204 4.264a7.3 7.3 0 0 0-2.782 2.93 1.27 1.27 0 0 0 0 1.172C2.902 11 5.34 12.5 8.002 12.5a7 7 0 0 0 3.496-.943L9.912 9.97a2.73 2.73 0 0 1-1.91.779A2.75 2.75 0 0 1 5.252 8c0-.743.297-1.417.778-1.911zm2.663 2.663a1.252 1.252 0 0 0 .913 2.103c.329 0 .628-.129.851-.338z" clip-rule="evenodd" />
    <path d="M8 1.999c3.225 0 6.17 1.81 7.688 4.722.418.8.418 1.757 0 2.558a9 9 0 0 1-1.036 1.534L13.59 9.748c.285-.36.55-.742.77-1.162a1.27 1.27 0 0 0 0-1.172C13.1 5 10.664 3.5 8.001 3.5c-.208 0-.412.025-.617.043L6.078 2.237A8.5 8.5 0 0 1 8.001 2" />
</svg>
