<!-- This Source Code Form is subject to the terms of the Mozilla Public
   - License, v. 2.0. If a copy of the MPL was not distributed with this
   - file, You can obtain one at http://mozilla.org/MPL/2.0/. -->
<svg xmlns="http://www.w3.org/2000/svg" width="16" height="16" fill="context-fill" fill-opacity="context-fill-opacity" viewBox="0 0 16 16">
    <path d="M8 5.25a2.75 2.75 0 1 1 0 5.5 2.75 2.75 0 0 1 0-5.5m0 1.5a1.25 1.25 0 1 0 0 2.5 1.25 1.25 0 0 0 0-2.5" />
    <path d="M8 2.255c3.627 0 6.692 2.287 7.902 5.48a.75.75 0 0 1 0 .53c-1.21 3.193-4.275 5.48-7.902 5.48S1.308 11.458.1 8.265a.75.75 0 0 1 0-.53C1.309 4.541 4.373 2.254 8 2.254m0 1.5c-2.874 0-5.328 1.75-6.391 4.244C2.672 10.495 5.126 12.245 8 12.245s5.327-1.75 6.39-4.246C13.328 5.504 10.875 3.755 8 3.755" />
</svg>
