<!-- This Source Code Form is subject to the terms of the Mozilla Public
   - License, v. 2.0. If a copy of the MPL was not distributed with this
   - file, You can obtain one at http://mozilla.org/MPL/2.0/. -->
<svg xmlns="http://www.w3.org/2000/svg" width="16" height="16" fill="context-fill" fill-opacity="context-fill-opacity" viewBox="0 0 16 16">
    <path d="M5.25 9a.75.75 0 0 1 0 1.5h-1.5a.75.75 0 0 1 0-1.5zm0-3.5a.75.75 0 0 1 0 1.5h-1.5a.75.75 0 0 1 0-1.5z" />
    <path fill-rule="evenodd" d="M8 2c2.001 0 3.858.113 5.546.288A2.746 2.746 0 0 1 16 5.025v5.95a2.76 2.76 0 0 1-2.477 2.74 53.6 53.6 0 0 1-11.069-.003A2.746 2.746 0 0 1 0 10.975v-5.95a2.76 2.76 0 0 1 2.478-2.74A54 54 0 0 1 8 2m-.5 1.506a52 52 0 0 0-4.868.27v.001A1.26 1.26 0 0 0 1.5 5.025v5.95c0 .644.481 1.179 1.11 1.245 1.498.156 3.135.26 4.89.276zM9 12.487a52 52 0 0 0 4.367-.264 1.26 1.26 0 0 0 1.133-1.248v-5.95c0-.644-.481-1.179-1.11-1.245A52 52 0 0 0 9 3.51z" clip-rule="evenodd" />
</svg>
