<svg width="16" height="16" viewBox="0 0 16 16" fill="none" xmlns="http://www.w3.org/2000/svg">
<path fill-rule="evenodd" clip-rule="evenodd" d="M8 2C10.0011 2 11.8584 2.11265 13.5459 2.28809C14.9513 2.43465 16 3.62588 16 5.02539V10.9746C16 12.3897 14.9217 13.5696 13.5225 13.7148C11.5163 13.9228 9.66317 14 8 14C5.99888 14 4.14156 13.8874 2.4541 13.7119C1.04865 13.5653 0 12.3741 0 10.9746V5.02539C0 3.61027 1.07827 2.43044 2.47754 2.28516C4.48373 2.07723 6.33683 2 8 2ZM8 3.5C6.38317 3.5 4.58164 3.57429 2.63184 3.77637L2.63281 3.77734C1.99009 3.84407 1.5 4.38652 1.5 5.02539V10.9746C1.5 11.6189 1.9811 12.154 2.60938 12.2197C4.24992 12.3903 6.05512 12.5 8 12.5C9.23167 12.5 10.5702 12.4559 12 12.3457V3.6543C10.7464 3.5576 9.40991 3.5 8 3.5Z" fill="black"/>
</svg>
