<svg width="16" height="16" viewBox="0 0 16 16" fill="none" xmlns="http://www.w3.org/2000/svg">
<path d="M6 10.5H3V9H6V10.5Z" fill="black"/>
<path d="M6 7H3V5.5H6V7Z" fill="black"/>
<path fill-rule="evenodd" clip-rule="evenodd" d="M14 2C15.1042 2 16 2.89579 16 4V12C16 13.1042 15.1042 14 14 14H2C0.895786 14 0 13.1042 0 12V4C0 2.89579 0.895786 2 2 2H14ZM2 3.5C1.72421 3.5 1.5 3.72421 1.5 4V12C1.5 12.2758 1.72421 12.5 2 12.5H7.5V3.5H2ZM9 12.5H14C14.2758 12.5 14.5 12.2758 14.5 12V4C14.5 3.72421 14.2758 3.5 14 3.5H9V12.5Z" fill="black"/>
</svg>
