<!-- This Source Code Form is subject to the terms of the Mozilla Public
   - License, v. 2.0. If a copy of the MPL was not distributed with this
   - file, You can obtain one at http://mozilla.org/MPL/2.0/. -->
<svg xmlns="http://www.w3.org/2000/svg" width="16" height="16" fill="context-fill" fill-opacity="context-fill-opacity" viewBox="0 0 16 16">
    <path d="M3.75 11a.75.75 0 0 1 0 1.5h-2a.75.75 0 0 1 0-1.5zM9 11a.75.75 0 0 1 0 1.5H7A.75.75 0 0 1 7 11zM14.25 11a.75.75 0 0 1 0 1.5h-2a.75.75 0 0 1 0-1.5zM4.498 3.59c.537-1.414 2.525-1.168 2.83.201l.025.137.144 1.005q.184 1.175.37 1.892c.67-1.437 2.694-1.684 3.656-.34l.405.566.08.1c.202.219.493.349.803.35h1.439a.75.75 0 0 1 0 1.5h-1.44c-.833-.001-1.618-.4-2.102-1.077l-.404-.565a.632.632 0 0 0-1.065.075l-.037.085a8 8 0 0 1-.372.893c-.062.12-.142.26-.242.378-.05.06-.126.138-.228.205a.86.86 0 0 1-.495.146c-.527-.014-.829-.42-.963-.64-.16-.267-.291-.614-.404-1-.225-.772-.432-1.884-.624-3.311l-1.2 3.157A2.58 2.58 0 0 1 2.263 9h-.51a.75.75 0 0 1 0-1.5h.51c.455 0 .855-.278 1.01-.687z" />
</svg>
