<!-- This Source Code Form is subject to the terms of the Mozilla Public
   - License, v. 2.0. If a copy of the MPL was not distributed with this
   - file, You can obtain one at http://mozilla.org/MPL/2.0/. -->
<svg xmlns="http://www.w3.org/2000/svg" width="16" height="16" fill="context-fill" fill-opacity="context-fill-opacity" viewBox="0 0 16 16">
    <path d="M11 8.75a3 3 0 0 1 3 3V14a1 1 0 0 1-1 1H3a1 1 0 0 1-1-1v-2.25a3 3 0 0 1 3-3zm-6 1.5c-.827 0-1.5.673-1.5 1.5v1.75h9v-1.75c0-.827-.673-1.5-1.5-1.5zm3-9A3.125 3.125 0 1 1 8 7.5a3.125 3.125 0 0 1 0-6.25m0 1.5c-.896 0-1.625.729-1.625 1.625S7.104 6 8 6s1.625-.729 1.625-1.625S8.896 2.75 8 2.75" />
</svg>
