<!-- This Source Code Form is subject to the terms of the Mozilla Public
   - License, v. 2.0. If a copy of the MPL was not distributed with this
   - file, You can obtain one at http://mozilla.org/MPL/2.0/. -->
<svg xmlns="http://www.w3.org/2000/svg" width="16" height="16" fill="context-fill" fill-opacity="context-fill-opacity" viewBox="0 0 16 16">
    <path fill-rule="evenodd" d="M8 8.502c1.176 0 2.282.057 3.309.151 1.532.14 2.69 1.447 2.691 2.985v1.125c0 1.012-.76 1.872-1.765 1.99a36.3 36.3 0 0 1-8.494-.003C2.743 14.632 2 13.77 2 12.766V11.64a3.01 3.01 0 0 1 2.732-2.992A36 36 0 0 1 8 8.5zm0 1.496a35 35 0 0 0-3.133.142A1.515 1.515 0 0 0 3.5 11.638v1.126c0 .253.179.466.417.494a34.8 34.8 0 0 0 8.143.003.51.51 0 0 0 .44-.5v-1.125c0-.768-.584-1.423-1.328-1.491a35 35 0 0 0-2.379-.136zM8 1a3.125 3.125 0 1 1 0 6.25A3.125 3.125 0 0 1 8 1m0 1.5c-.896 0-1.625.729-1.625 1.625S7.104 5.75 8 5.75s1.625-.729 1.625-1.625S8.896 2.5 8 2.5" clip-rule="evenodd" />
</svg>
