<!-- This Source Code Form is subject to the terms of the Mozilla Public
   - License, v. 2.0. If a copy of the MPL was not distributed with this
   - file, You can obtain one at http://mozilla.org/MPL/2.0/. -->
<svg xmlns="http://www.w3.org/2000/svg" width="16" height="16" fill="context-fill" fill-opacity="context-fill-opacity" viewBox="0 0 16 16">
    <path d="M11.543 7.24a1.39 1.39 0 0 1 1.564.005 11.6 11.6 0 0 0 2.054 1.118c.59.246.932.885.815 1.52l-.245 1.316c-.113.613-.318 1.147-.608 1.586a6.6 6.6 0 0 1-2.101 2.03c-.213.125-.451.187-.69.187l.002-.002c-.243 0-.486-.065-.704-.194a6.6 6.6 0 0 1-2.09-2.02c-.29-.44-.495-.976-.61-1.593l-.246-1.337a1.38 1.38 0 0 1 .81-1.521q.443-.184.871-.404c.404-.207.8-.44 1.178-.692" />
    <path d="M2.415 1.263a40.3 40.3 0 0 1 9.146-.003A2.754 2.754 0 0 1 14 3.996v2.331c-.06-.04-.126-.073-.185-.114a2.6 2.6 0 0 0-1.315-.45V3.996c0-.638-.477-1.173-1.11-1.246a38.8 38.8 0 0 0-8.804.003A1.236 1.236 0 0 0 1.5 3.988v5.02a1.24 1.24 0 0 0 1.09 1.238c1.297.15 2.615.234 3.92.251.338.004.68-.015 1.02-.02l.173.943c.036.197.103.37.155.555-.287.006-.575.025-.862.025q-.252 0-.505-.003a40 40 0 0 1-4.073-.262A2.74 2.74 0 0 1 .001 9.007V3.988a2.736 2.736 0 0 1 2.414-2.725" />
</svg>
