<!-- This Source Code Form is subject to the terms of the Mozilla Public
   - License, v. 2.0. If a copy of the MPL was not distributed with this
   - file, You can obtain one at http://mozilla.org/MPL/2.0/. -->
<svg xmlns="http://www.w3.org/2000/svg" width="16" height="16" fill="context-fill" fill-opacity="context-fill-opacity" viewBox="0 0 16 16">
    <g clip-path="url(#clip0_13876_771)">
        <path d="M15.608 7.005c.675.6.485 1.8-.591 2.4-1.292.794-3.043.81-3.904 2.18-.611.914-.885 2.259-1.183 3.019-.2.58-.593 1.114-1.102 1.314-1.012.29-1.937-.2-2.328-1.12.734 0 1.301-.36 1.663-.799.03-.035.059-.075.088-.11.763-1.02.793-2.225 1.429-3.324.954-1.485 3.316-2 4.755-2.565.674-.262 1.146-.53 1.174-.92zM.394 7c-.035.435.46.72 1.173 1 .73.285 1.698.56 2.598.955q.168.06.328.135c.514.25 1.013.56 1.42.975.146.154.268.33.39.5l.01-.005c.261.377.87 2.227.88 2.258l-.112.12a1.7 1.7 0 0 1-1.243.545h-.122c-.377-1.184-.837-2.234-1.928-2.894-.87-.475-1.937-.66-2.803-1.19C-.09 8.8-.28 7.6.394 7M6.5 1.203c.391-.92 1.316-1.41 2.328-1.12.509.2.901.736 1.102 1.316.371 1.064.596 2.319 1.32 3.209l-.005.004c.944 1.165 3.503 1.845 3.503 1.845s-.299.32-.861.55q-.007.006-.015.005c-.758.31-1.624.25-2.362-.11-.65-.314-1.234-.71-1.65-1.23-.567-.695-.733-1.67-1.047-2.49a4.3 4.3 0 0 0-.562-1.069c-.03-.035-.059-.075-.088-.11-.362-.44-.93-.8-1.663-.8M6.084 2.5c.47 0 .92.2 1.242.545l.112.12c-.283.745-.44 1.53-.865 2.27-.41.64-1.086 1.1-1.83 1.46-.743.36-1.604.419-2.362.109q-.007.001-.015-.005c-.56-.23-.86-.548-.861-.55H1.5s2.837-.754 3.64-2.029c.371-.555.615-1.275.821-1.92z" />
    </g>
</svg>
