<svg width="16" height="16" viewBox="0 0 16 16" fill="none" xmlns="http://www.w3.org/2000/svg">
<g clip-path="url(#clip0_13876_766)">
<g clip-path="url(#paint0_diamond_13876_766_clip_path)" data-figma-skip-parse="true"><g transform="matrix(-0.0120774 0.0108988 -0.0955103 -0.0190964 11.3116 -2.29932)"><rect x="0" y="0" width="937.579" height="69.5831" fill="url(#paint0_diamond_13876_766)" opacity="1" shape-rendering="crispEdges"/><rect x="0" y="0" width="937.579" height="69.5831" transform="scale(1 -1)" fill="url(#paint0_diamond_13876_766)" opacity="1" shape-rendering="crispEdges"/><rect x="0" y="0" width="937.579" height="69.5831" transform="scale(-1 1)" fill="url(#paint0_diamond_13876_766)" opacity="1" shape-rendering="crispEdges"/><rect x="0" y="0" width="937.579" height="69.5831" transform="scale(-1)" fill="url(#paint0_diamond_13876_766)" opacity="1" shape-rendering="crispEdges"/></g></g><path d="M6.40212 1.20068C7.10217 1.20029 7.91641 1.70036 8.01615 2.00723C7.23325 3.60277 7.03711 4.60253 6.38743 5.6996C5.39244 7.33084 2.45483 8.02688 1.72709 7.99993H1.62728H1.52746C1.10212 7.90068 0.322211 7.47725 0.401487 7.00068C1.69166 6.10101 3.89688 6.24611 4.89047 4.69971C5.3668 3.9986 5.63271 3.18023 5.92391 2.39996C5.99687 2.15349 6.40212 1.20068 6.40212 1.20068Z" data-figma-gradient-fill="{&#34;type&#34;:&#34;GRADIENT_DIAMOND&#34;,&#34;stops&#34;:[{&#34;color&#34;:{&#34;r&#34;:0.60000002384185791,&#34;g&#34;:0.34901961684226990,&#34;b&#34;:1.0,&#34;a&#34;:1.0},&#34;position&#34;:0.061850726604461670},{&#34;color&#34;:{&#34;r&#34;:0.93092811107635498,&#34;g&#34;:0.28477951884269714,&#34;b&#34;:0.68062096834182739,&#34;a&#34;:1.0},&#34;position&#34;:0.33964389562606812},{&#34;color&#34;:{&#34;r&#34;:1.0,&#34;g&#34;:0.59258687496185303,&#34;b&#34;:0.15707632899284363,&#34;a&#34;:1.0},&#34;position&#34;:1.0}],&#34;stopsVar&#34;:[{&#34;color&#34;:{&#34;r&#34;:0.60000002384185791,&#34;g&#34;:0.34901961684226990,&#34;b&#34;:1.0,&#34;a&#34;:1.0},&#34;position&#34;:0.061850726604461670},{&#34;color&#34;:{&#34;r&#34;:0.93092811107635498,&#34;g&#34;:0.28477951884269714,&#34;b&#34;:0.68062096834182739,&#34;a&#34;:1.0},&#34;position&#34;:0.33964389562606812},{&#34;color&#34;:{&#34;r&#34;:1.0,&#34;g&#34;:0.59258687496185303,&#34;b&#34;:0.15707632899284363,&#34;a&#34;:1.0},&#34;position&#34;:1.0}],&#34;transform&#34;:{&#34;m00&#34;:-24.154808044433594,&#34;m01&#34;:-191.02064514160156,&#34;m02&#34;:118.89934539794922,&#34;m10&#34;:21.797586441040039,&#34;m11&#34;:-38.192829132080078,&#34;m12&#34;:5.8982992172241211},&#34;opacity&#34;:1.0,&#34;blendMode&#34;:&#34;NORMAL&#34;,&#34;visible&#34;:true}"/>
<g clip-path="url(#paint1_diamond_13876_766_clip_path)" data-figma-skip-parse="true"><g transform="matrix(-0.00958888 -0.0112989 0.0224012 -0.0840323 17.9876 11.6989)"><rect x="0" y="0" width="1167" height="90.1412" fill="url(#paint1_diamond_13876_766)" opacity="1" shape-rendering="crispEdges"/><rect x="0" y="0" width="1167" height="90.1412" transform="scale(1 -1)" fill="url(#paint1_diamond_13876_766)" opacity="1" shape-rendering="crispEdges"/><rect x="0" y="0" width="1167" height="90.1412" transform="scale(-1 1)" fill="url(#paint1_diamond_13876_766)" opacity="1" shape-rendering="crispEdges"/><rect x="0" y="0" width="1167" height="90.1412" transform="scale(-1)" fill="url(#paint1_diamond_13876_766)" opacity="1" shape-rendering="crispEdges"/></g></g><path d="M8.67532 0.0834552C7.64158 -0.207236 6.80029 0.284359 6.401 1.2C6.90129 1.19815 7.79938 1.60002 7.99817 2.00163L8.00266 2.0071C8.78627 3.60271 8.98251 4.60241 9.6328 5.69953C10.6287 7.33087 13.6635 8.02644 14.3917 7.99941C14.5915 7.89942 15.6966 7.60011 15.5968 7.00017C14.3055 6.10036 12.1256 6.24611 11.1311 4.69962C10.6543 3.99848 10.3882 3.18015 10.0967 2.39984C9.81827 1.54776 9.4955 0.402037 8.67532 0.0834552Z" data-figma-gradient-fill="{&#34;type&#34;:&#34;GRADIENT_DIAMOND&#34;,&#34;stops&#34;:[{&#34;color&#34;:{&#34;r&#34;:1.0,&#34;g&#34;:0.59258687496185303,&#34;b&#34;:0.15707632899284363,&#34;a&#34;:1.0},&#34;position&#34;:0.058322504162788391},{&#34;color&#34;:{&#34;r&#34;:0.93092811107635498,&#34;g&#34;:0.28477951884269714,&#34;b&#34;:0.68062096834182739,&#34;a&#34;:1.0},&#34;position&#34;:0.58618324995040894},{&#34;color&#34;:{&#34;r&#34;:0.60000002384185791,&#34;g&#34;:0.34901961684226990,&#34;b&#34;:1.0,&#34;a&#34;:1.0},&#34;position&#34;:1.0}],&#34;stopsVar&#34;:[{&#34;color&#34;:{&#34;r&#34;:1.0,&#34;g&#34;:0.59258687496185303,&#34;b&#34;:0.15707632899284363,&#34;a&#34;:1.0},&#34;position&#34;:0.058322504162788391},{&#34;color&#34;:{&#34;r&#34;:0.93092811107635498,&#34;g&#34;:0.28477951884269714,&#34;b&#34;:0.68062096834182739,&#34;a&#34;:1.0},&#34;position&#34;:0.58618324995040894},{&#34;color&#34;:{&#34;r&#34;:0.60000002384185791,&#34;g&#34;:0.34901961684226990,&#34;b&#34;:1.0,&#34;a&#34;:1.0},&#34;position&#34;:1.0}],&#34;transform&#34;:{&#34;m00&#34;:-19.177766799926758,&#34;m01&#34;:44.802429199218750,&#34;m02&#34;:5.1752352714538574,&#34;m10&#34;:-22.597860336303711,&#34;m11&#34;:-168.06459045410156,&#34;m12&#34;:107.03011322021484},&#34;opacity&#34;:1.0,&#34;blendMode&#34;:&#34;NORMAL&#34;,&#34;visible&#34;:true}"/>
<g clip-path="url(#paint2_diamond_13876_766_clip_path)" data-figma-skip-parse="true"><g transform="matrix(0.00899082 0.00838658 0.070821 -0.015578 0.00312789 7.8182)"><rect x="0" y="0" width="844.753" height="101.35" fill="url(#paint2_diamond_13876_766)" opacity="1" shape-rendering="crispEdges"/><rect x="0" y="0" width="844.753" height="101.35" transform="scale(1 -1)" fill="url(#paint2_diamond_13876_766)" opacity="1" shape-rendering="crispEdges"/><rect x="0" y="0" width="844.753" height="101.35" transform="scale(-1 1)" fill="url(#paint2_diamond_13876_766)" opacity="1" shape-rendering="crispEdges"/><rect x="0" y="0" width="844.753" height="101.35" transform="scale(-1)" fill="url(#paint2_diamond_13876_766)" opacity="1" shape-rendering="crispEdges"/></g></g><path d="M0.399815 7C0.38788 7.15223 0.443008 7.28683 0.544675 7.4095C0.740107 7.64376 1.12145 7.83469 1.60217 8.02275C3.06838 8.59632 5.47753 9.12473 6.45125 10.6446C7.10063 11.7679 7.21714 12.7573 7.9963 13.8C7.59649 14.5 6.6969 14.9 6.19713 14.8C5.65981 13.7435 5.655 12.6896 4.98797 11.6837C4.11089 10.2851 2.32265 10.2659 1.00394 9.45461C0.282232 9.05191 -0.0478698 8.38462 0.00558454 7.80022C0.0346331 7.47492 0.181499 7.18913 0.399815 7Z" data-figma-gradient-fill="{&#34;type&#34;:&#34;GRADIENT_DIAMOND&#34;,&#34;stops&#34;:[{&#34;color&#34;:{&#34;r&#34;:0.60000002384185791,&#34;g&#34;:0.34901961684226990,&#34;b&#34;:1.0,&#34;a&#34;:1.0},&#34;position&#34;:0.0},{&#34;color&#34;:{&#34;r&#34;:0.93092811107635498,&#34;g&#34;:0.28477951884269714,&#34;b&#34;:0.68062096834182739,&#34;a&#34;:1.0},&#34;position&#34;:0.37417411804199219},{&#34;color&#34;:{&#34;r&#34;:1.0,&#34;g&#34;:0.59258687496185303,&#34;b&#34;:0.15707632899284363,&#34;a&#34;:1.0},&#34;position&#34;:0.83350205421447754}],&#34;stopsVar&#34;:[{&#34;color&#34;:{&#34;r&#34;:0.60000002384185791,&#34;g&#34;:0.34901961684226990,&#34;b&#34;:1.0,&#34;a&#34;:1.0},&#34;position&#34;:0.0},{&#34;color&#34;:{&#34;r&#34;:0.93092811107635498,&#34;g&#34;:0.28477951884269714,&#34;b&#34;:0.68062096834182739,&#34;a&#34;:1.0},&#34;position&#34;:0.37417411804199219},{&#34;color&#34;:{&#34;r&#34;:1.0,&#34;g&#34;:0.59258687496185303,&#34;b&#34;:0.15707632899284363,&#34;a&#34;:1.0},&#34;position&#34;:0.83350205421447754}],&#34;transform&#34;:{&#34;m00&#34;:17.981641769409180,&#34;m01&#34;:141.64205932617188,&#34;m02&#34;:-79.808723449707031,&#34;m10&#34;:16.773151397705078,&#34;m11&#34;:-31.155927658081055,&#34;m12&#34;:15.009589195251465},&#34;opacity&#34;:1.0,&#34;blendMode&#34;:&#34;NORMAL&#34;,&#34;visible&#34;:true}"/>
<g clip-path="url(#paint3_diamond_13876_766_clip_path)" data-figma-skip-parse="true"><g transform="matrix(-0.00775164 0.00710009 -0.0619158 -0.0122677 15.4804 7.80001)"><rect x="0" y="0" width="1162.49" height="134.857" fill="url(#paint3_diamond_13876_766)" opacity="1" shape-rendering="crispEdges"/><rect x="0" y="0" width="1162.49" height="134.857" transform="scale(1 -1)" fill="url(#paint3_diamond_13876_766)" opacity="1" shape-rendering="crispEdges"/><rect x="0" y="0" width="1162.49" height="134.857" transform="scale(-1 1)" fill="url(#paint3_diamond_13876_766)" opacity="1" shape-rendering="crispEdges"/><rect x="0" y="0" width="1162.49" height="134.857" transform="scale(-1)" fill="url(#paint3_diamond_13876_766)" opacity="1" shape-rendering="crispEdges"/></g></g><path d="M15.5935 7C16.2979 7.59931 16.0884 8.80003 14.9659 9.40003C13.62 10.1933 11.7948 10.2121 10.8996 11.5796C10.2656 12.4954 9.9775 13.842 9.66672 14.6001C9.4565 15.1777 9.0493 15.7156 8.52127 15.9165C7.46569 16.2072 6.6056 15.7156 6.19788 14.7999C6.96226 14.8043 7.44894 14.4403 7.82981 13.9983C7.86124 13.9619 7.89179 13.9247 7.92205 13.8874C8.71731 12.8679 8.74654 11.6619 9.40934 10.5635C10.4032 9.07745 12.862 8.56084 14.3585 8.00001C15.1061 7.71984 15.629 7.43309 15.5935 7Z" data-figma-gradient-fill="{&#34;type&#34;:&#34;GRADIENT_DIAMOND&#34;,&#34;stops&#34;:[{&#34;color&#34;:{&#34;r&#34;:1.0,&#34;g&#34;:0.59258687496185303,&#34;b&#34;:0.15707632899284363,&#34;a&#34;:1.0},&#34;position&#34;:0.16649794578552246},{&#34;color&#34;:{&#34;r&#34;:0.93092811107635498,&#34;g&#34;:0.28477951884269714,&#34;b&#34;:0.68062096834182739,&#34;a&#34;:1.0},&#34;position&#34;:0.62582588195800781},{&#34;color&#34;:{&#34;r&#34;:0.60000002384185791,&#34;g&#34;:0.34901961684226990,&#34;b&#34;:1.0,&#34;a&#34;:1.0},&#34;position&#34;:1.0}],&#34;stopsVar&#34;:[{&#34;color&#34;:{&#34;r&#34;:1.0,&#34;g&#34;:0.59258687496185303,&#34;b&#34;:0.15707632899284363,&#34;a&#34;:1.0},&#34;position&#34;:0.16649794578552246},{&#34;color&#34;:{&#34;r&#34;:0.93092811107635498,&#34;g&#34;:0.28477951884269714,&#34;b&#34;:0.68062096834182739,&#34;a&#34;:1.0},&#34;position&#34;:0.62582588195800781},{&#34;color&#34;:{&#34;r&#34;:0.60000002384185791,&#34;g&#34;:0.34901961684226990,&#34;b&#34;:1.0,&#34;a&#34;:1.0},&#34;position&#34;:1.0}],&#34;transform&#34;:{&#34;m00&#34;:-15.503273963928223,&#34;m01&#34;:-123.83153533935547,&#34;m02&#34;:85.147850036621094,&#34;m10&#34;:14.200181007385254,&#34;m11&#34;:-24.535333633422852,&#34;m12&#34;:12.967585563659668},&#34;opacity&#34;:1.0,&#34;blendMode&#34;:&#34;NORMAL&#34;,&#34;visible&#34;:true}"/>
</g>
<defs>
<clipPath id="paint0_diamond_13876_766_clip_path"><path d="M6.40212 1.20068C7.10217 1.20029 7.91641 1.70036 8.01615 2.00723C7.23325 3.60277 7.03711 4.60253 6.38743 5.6996C5.39244 7.33084 2.45483 8.02688 1.72709 7.99993H1.62728H1.52746C1.10212 7.90068 0.322211 7.47725 0.401487 7.00068C1.69166 6.10101 3.89688 6.24611 4.89047 4.69971C5.3668 3.9986 5.63271 3.18023 5.92391 2.39996C5.99687 2.15349 6.40212 1.20068 6.40212 1.20068Z"/></clipPath><clipPath id="paint1_diamond_13876_766_clip_path"><path d="M8.67532 0.0834552C7.64158 -0.207236 6.80029 0.284359 6.401 1.2C6.90129 1.19815 7.79938 1.60002 7.99817 2.00163L8.00266 2.0071C8.78627 3.60271 8.98251 4.60241 9.6328 5.69953C10.6287 7.33087 13.6635 8.02644 14.3917 7.99941C14.5915 7.89942 15.6966 7.60011 15.5968 7.00017C14.3055 6.10036 12.1256 6.24611 11.1311 4.69962C10.6543 3.99848 10.3882 3.18015 10.0967 2.39984C9.81827 1.54776 9.4955 0.402037 8.67532 0.0834552Z"/></clipPath><clipPath id="paint2_diamond_13876_766_clip_path"><path d="M0.399815 7C0.38788 7.15223 0.443008 7.28683 0.544675 7.4095C0.740107 7.64376 1.12145 7.83469 1.60217 8.02275C3.06838 8.59632 5.47753 9.12473 6.45125 10.6446C7.10063 11.7679 7.21714 12.7573 7.9963 13.8C7.59649 14.5 6.6969 14.9 6.19713 14.8C5.65981 13.7435 5.655 12.6896 4.98797 11.6837C4.11089 10.2851 2.32265 10.2659 1.00394 9.45461C0.282232 9.05191 -0.0478698 8.38462 0.00558454 7.80022C0.0346331 7.47492 0.181499 7.18913 0.399815 7Z"/></clipPath><clipPath id="paint3_diamond_13876_766_clip_path"><path d="M15.5935 7C16.2979 7.59931 16.0884 8.80003 14.9659 9.40003C13.62 10.1933 11.7948 10.2121 10.8996 11.5796C10.2656 12.4954 9.9775 13.842 9.66672 14.6001C9.4565 15.1777 9.0493 15.7156 8.52127 15.9165C7.46569 16.2072 6.6056 15.7156 6.19788 14.7999C6.96226 14.8043 7.44894 14.4403 7.82981 13.9983C7.86124 13.9619 7.89179 13.9247 7.92205 13.8874C8.71731 12.8679 8.74654 11.6619 9.40934 10.5635C10.4032 9.07745 12.862 8.56084 14.3585 8.00001C15.1061 7.71984 15.629 7.43309 15.5935 7Z"/></clipPath><linearGradient id="paint0_diamond_13876_766" x1="0" y1="0" x2="500" y2="500" gradientUnits="userSpaceOnUse">
<stop offset="0.0618507" stop-color="#9959FF"/>
<stop offset="0.339644" stop-color="#ED49AE"/>
<stop offset="1" stop-color="#FF9728"/>
</linearGradient>
<linearGradient id="paint1_diamond_13876_766" x1="0" y1="0" x2="500" y2="500" gradientUnits="userSpaceOnUse">
<stop offset="0.0583225" stop-color="#FF9728"/>
<stop offset="0.586183" stop-color="#ED49AE"/>
<stop offset="1" stop-color="#9959FF"/>
</linearGradient>
<linearGradient id="paint2_diamond_13876_766" x1="0" y1="0" x2="500" y2="500" gradientUnits="userSpaceOnUse">
<stop stop-color="#9959FF"/>
<stop offset="0.374174" stop-color="#ED49AE"/>
<stop offset="0.833502" stop-color="#FF9728"/>
</linearGradient>
<linearGradient id="paint3_diamond_13876_766" x1="0" y1="0" x2="500" y2="500" gradientUnits="userSpaceOnUse">
<stop offset="0.166498" stop-color="#FF9728"/>
<stop offset="0.625826" stop-color="#ED49AE"/>
<stop offset="1" stop-color="#9959FF"/>
</linearGradient>
<clipPath id="clip0_13876_766">
<rect width="16" height="16" fill="white"/>
</clipPath>
</defs>
</svg>
