<!-- This Source Code Form is subject to the terms of the Mozilla Public
   - License, v. 2.0. If a copy of the MPL was not distributed with this
   - file, You can obtain one at http://mozilla.org/MPL/2.0/. -->
<svg xmlns="http://www.w3.org/2000/svg" width="16" height="16" fill="context-fill" fill-opacity="context-fill-opacity" viewBox="0 0 16 16">
    <g clip-path="url(#clip0_13876_766)">
        <g clip-path="url(#paint0_diamond_13876_766_clip_path)" data-figma-skip-parse="true" shape-rendering="crispEdges">
            <path d="M11.312-2.3-.012 7.92l-6.646-1.33L4.666-3.628z" />
            <path d="M11.312-2.3-.012 7.92l6.646 1.328L17.957-.971zM11.312-2.3l11.323-10.218-6.646-1.329L4.666-3.628z" />
            <path d="m11.312-2.3 11.323-10.218 6.646 1.329L17.957-.971z" />
        </g>
        <path d="M6.402 1.2c.7 0 1.514.5 1.614.807-.783 1.596-.979 2.596-1.629 3.693-.995 1.63-3.932 2.327-4.66 2.3h-.2C1.102 7.9.322 7.477.401 7c1.29-.899 3.496-.754 4.49-2.3.476-.701.742-1.52 1.033-2.3.073-.247.478-1.2.478-1.2" data-figma-gradient-fill="{&quot;type&quot;:&quot;GRADIENT_DIAMOND&quot;,&quot;stops&quot;:[{&quot;color&quot;:{&quot;r&quot;:0.60000002384185791,&quot;g&quot;:0.34901961684226990,&quot;b&quot;:1.0,&quot;a&quot;:1.0},&quot;position&quot;:0.061850726604461670},{&quot;color&quot;:{&quot;r&quot;:0.93092811107635498,&quot;g&quot;:0.28477951884269714,&quot;b&quot;:0.68062096834182739,&quot;a&quot;:1.0},&quot;position&quot;:0.33964389562606812},{&quot;color&quot;:{&quot;r&quot;:1.0,&quot;g&quot;:0.59258687496185303,&quot;b&quot;:0.15707632899284363,&quot;a&quot;:1.0},&quot;position&quot;:1.0}],&quot;stopsVar&quot;:[{&quot;color&quot;:{&quot;r&quot;:0.60000002384185791,&quot;g&quot;:0.34901961684226990,&quot;b&quot;:1.0,&quot;a&quot;:1.0},&quot;position&quot;:0.061850726604461670},{&quot;color&quot;:{&quot;r&quot;:0.93092811107635498,&quot;g&quot;:0.28477951884269714,&quot;b&quot;:0.68062096834182739,&quot;a&quot;:1.0},&quot;position&quot;:0.33964389562606812},{&quot;color&quot;:{&quot;r&quot;:1.0,&quot;g&quot;:0.59258687496185303,&quot;b&quot;:0.15707632899284363,&quot;a&quot;:1.0},&quot;position&quot;:1.0}],&quot;transform&quot;:{&quot;m00&quot;:-24.154808044433594,&quot;m01&quot;:-191.02064514160156,&quot;m02&quot;:118.89934539794922,&quot;m10&quot;:21.797586441040039,&quot;m11&quot;:-38.192829132080078,&quot;m12&quot;:5.8982992172241211},&quot;opacity&quot;:1.0,&quot;blendMode&quot;:&quot;NORMAL&quot;,&quot;visible&quot;:true}" />
        <g clip-path="url(#paint1_diamond_13876_766_clip_path)" data-figma-skip-parse="true" shape-rendering="crispEdges">
            <path d="M17.988 11.699 6.798-1.487l2.019-7.575 11.19 13.186z" />
            <path d="M17.988 11.699 6.798-1.487l-2.02 7.575 11.19 13.186zM17.988 11.699l11.19 13.186 2.02-7.575L20.006 4.124z" />
            <path d="m17.988 11.699 11.19 13.186-2.02 7.574-11.19-13.185z" />
        </g>
        <path d="M8.675.083C7.642-.207 6.8.284 6.401 1.2c.5-.002 1.398.4 1.597.802l.005.005c.783 1.596.98 2.595 1.63 3.693.996 1.63 4.03 2.326 4.759 2.3.2-.1 1.305-.4 1.205-1-1.291-.9-3.471-.754-4.466-2.3-.477-.702-.743-1.52-1.034-2.3C9.818 1.548 9.496.402 8.675.083" data-figma-gradient-fill="{&quot;type&quot;:&quot;GRADIENT_DIAMOND&quot;,&quot;stops&quot;:[{&quot;color&quot;:{&quot;r&quot;:1.0,&quot;g&quot;:0.59258687496185303,&quot;b&quot;:0.15707632899284363,&quot;a&quot;:1.0},&quot;position&quot;:0.058322504162788391},{&quot;color&quot;:{&quot;r&quot;:0.93092811107635498,&quot;g&quot;:0.28477951884269714,&quot;b&quot;:0.68062096834182739,&quot;a&quot;:1.0},&quot;position&quot;:0.58618324995040894},{&quot;color&quot;:{&quot;r&quot;:0.60000002384185791,&quot;g&quot;:0.34901961684226990,&quot;b&quot;:1.0,&quot;a&quot;:1.0},&quot;position&quot;:1.0}],&quot;stopsVar&quot;:[{&quot;color&quot;:{&quot;r&quot;:1.0,&quot;g&quot;:0.59258687496185303,&quot;b&quot;:0.15707632899284363,&quot;a&quot;:1.0},&quot;position&quot;:0.058322504162788391},{&quot;color&quot;:{&quot;r&quot;:0.93092811107635498,&quot;g&quot;:0.28477951884269714,&quot;b&quot;:0.68062096834182739,&quot;a&quot;:1.0},&quot;position&quot;:0.58618324995040894},{&quot;color&quot;:{&quot;r&quot;:0.60000002384185791,&quot;g&quot;:0.34901961684226990,&quot;b&quot;:1.0,&quot;a&quot;:1.0},&quot;position&quot;:1.0}],&quot;transform&quot;:{&quot;m00&quot;:-19.177766799926758,&quot;m01&quot;:44.802429199218750,&quot;m02&quot;:5.1752352714538574,&quot;m10&quot;:-22.597860336303711,&quot;m11&quot;:-168.06459045410156,&quot;m12&quot;:107.03011322021484},&quot;opacity&quot;:1.0,&quot;blendMode&quot;:&quot;NORMAL&quot;,&quot;visible&quot;:true}" />
        <g clip-path="url(#paint2_diamond_13876_766_clip_path)" data-figma-skip-parse="true" shape-rendering="crispEdges">
            <path d="m.003 7.818 7.595 7.085 7.178-1.579L7.18 6.239z" />
            <path d="m.003 7.818 7.595 7.085L.42 16.482l-7.595-7.085zM.003 7.818-7.592.734l7.178-1.58L7.18 6.24z" />
            <path d="M.003 7.818-7.592.734l-7.178 1.578 7.595 7.085z" />
        </g>
        <path d="M.4 7a.56.56 0 0 0 .145.41c.195.234.576.425 1.057.613 1.466.573 3.876 1.102 4.85 2.622.649 1.123.765 2.112 1.544 3.155-.4.7-1.3 1.1-1.799 1-.537-1.057-.542-2.11-1.209-3.116-.877-1.399-2.665-1.418-3.984-2.23C.282 9.053-.048 8.385.006 7.8.035 7.475.18 7.19.4 7" data-figma-gradient-fill="{&quot;type&quot;:&quot;GRADIENT_DIAMOND&quot;,&quot;stops&quot;:[{&quot;color&quot;:{&quot;r&quot;:0.60000002384185791,&quot;g&quot;:0.34901961684226990,&quot;b&quot;:1.0,&quot;a&quot;:1.0},&quot;position&quot;:0.0},{&quot;color&quot;:{&quot;r&quot;:0.93092811107635498,&quot;g&quot;:0.28477951884269714,&quot;b&quot;:0.68062096834182739,&quot;a&quot;:1.0},&quot;position&quot;:0.37417411804199219},{&quot;color&quot;:{&quot;r&quot;:1.0,&quot;g&quot;:0.59258687496185303,&quot;b&quot;:0.15707632899284363,&quot;a&quot;:1.0},&quot;position&quot;:0.83350205421447754}],&quot;stopsVar&quot;:[{&quot;color&quot;:{&quot;r&quot;:0.60000002384185791,&quot;g&quot;:0.34901961684226990,&quot;b&quot;:1.0,&quot;a&quot;:1.0},&quot;position&quot;:0.0},{&quot;color&quot;:{&quot;r&quot;:0.93092811107635498,&quot;g&quot;:0.28477951884269714,&quot;b&quot;:0.68062096834182739,&quot;a&quot;:1.0},&quot;position&quot;:0.37417411804199219},{&quot;color&quot;:{&quot;r&quot;:1.0,&quot;g&quot;:0.59258687496185303,&quot;b&quot;:0.15707632899284363,&quot;a&quot;:1.0},&quot;position&quot;:0.83350205421447754}],&quot;transform&quot;:{&quot;m00&quot;:17.981641769409180,&quot;m01&quot;:141.64205932617188,&quot;m02&quot;:-79.808723449707031,&quot;m10&quot;:16.773151397705078,&quot;m11&quot;:-31.155927658081055,&quot;m12&quot;:15.009589195251465},&quot;opacity&quot;:1.0,&quot;blendMode&quot;:&quot;NORMAL&quot;,&quot;visible&quot;:true}" />
        <g clip-path="url(#paint3_diamond_13876_766_clip_path)" data-figma-skip-parse="true" shape-rendering="crispEdges">
            <path d="m15.48 7.8-9.01 8.254-8.35-1.655 9.01-8.253z" />
            <path d="m15.48 7.8-9.01 8.254 8.349 1.654 9.011-8.254zM15.48 7.8l9.012-8.254-8.35-1.654L7.13 6.146z" />
            <path d="m15.48 7.8 9.012-8.254 8.35 1.655-9.012 8.253z" />
        </g>
        <path d="M15.594 7c.704.6.494 1.8-.628 2.4-1.346.793-3.171.812-4.066 2.18-.634.915-.923 2.262-1.233 3.02-.21.578-.618 1.116-1.146 1.316-1.055.291-1.915-.2-2.323-1.116.764.004 1.25-.36 1.632-.802l.092-.11c.795-1.02.825-2.226 1.487-3.325.994-1.486 3.453-2.002 4.95-2.563.747-.28 1.27-.567 1.235-1" data-figma-gradient-fill="{&quot;type&quot;:&quot;GRADIENT_DIAMOND&quot;,&quot;stops&quot;:[{&quot;color&quot;:{&quot;r&quot;:1.0,&quot;g&quot;:0.59258687496185303,&quot;b&quot;:0.15707632899284363,&quot;a&quot;:1.0},&quot;position&quot;:0.16649794578552246},{&quot;color&quot;:{&quot;r&quot;:0.93092811107635498,&quot;g&quot;:0.28477951884269714,&quot;b&quot;:0.68062096834182739,&quot;a&quot;:1.0},&quot;position&quot;:0.62582588195800781},{&quot;color&quot;:{&quot;r&quot;:0.60000002384185791,&quot;g&quot;:0.34901961684226990,&quot;b&quot;:1.0,&quot;a&quot;:1.0},&quot;position&quot;:1.0}],&quot;stopsVar&quot;:[{&quot;color&quot;:{&quot;r&quot;:1.0,&quot;g&quot;:0.59258687496185303,&quot;b&quot;:0.15707632899284363,&quot;a&quot;:1.0},&quot;position&quot;:0.16649794578552246},{&quot;color&quot;:{&quot;r&quot;:0.93092811107635498,&quot;g&quot;:0.28477951884269714,&quot;b&quot;:0.68062096834182739,&quot;a&quot;:1.0},&quot;position&quot;:0.62582588195800781},{&quot;color&quot;:{&quot;r&quot;:0.60000002384185791,&quot;g&quot;:0.34901961684226990,&quot;b&quot;:1.0,&quot;a&quot;:1.0},&quot;position&quot;:1.0}],&quot;transform&quot;:{&quot;m00&quot;:-15.503273963928223,&quot;m01&quot;:-123.83153533935547,&quot;m02&quot;:85.147850036621094,&quot;m10&quot;:14.200181007385254,&quot;m11&quot;:-24.535333633422852,&quot;m12&quot;:12.967585563659668},&quot;opacity&quot;:1.0,&quot;blendMode&quot;:&quot;NORMAL&quot;,&quot;visible&quot;:true}" />
    </g>
</svg>
