<!-- This Source Code Form is subject to the terms of the Mozilla Public
   - License, v. 2.0. If a copy of the MPL was not distributed with this
   - file, You can obtain one at http://mozilla.org/MPL/2.0/. -->
<svg xmlns="http://www.w3.org/2000/svg" width="16" height="16" fill="context-fill" fill-opacity="context-fill-opacity" viewBox="0 0 16 16">
    <path d="M7.706 6.214a.5.5 0 0 1 .59 0L9.81 7.315c.176.127.25.353.182.559l-.579 1.781a.5.5 0 0 1-.476.345H7.064a.5.5 0 0 1-.476-.345L6.01 7.874a.5.5 0 0 1 .182-.559z" />
    <path fill-rule="evenodd" d="M8 0a8 8 0 1 1 0 16A8 8 0 0 1 8 0m.293 3.687a.5.5 0 0 1-.588 0L5.425 2.03a6.5 6.5 0 0 0-2.148 1.506L4.32 6.254a.5.5 0 0 1-.152.568L1.567 8.928c.11.777.358 1.511.72 2.174l2.503-.13a.5.5 0 0 1 .493.32l1.159 3.018a6.5 6.5 0 0 0 3.175-.014l.749-2.788a.5.5 0 0 1 .456-.37l2.952-.156a6.5 6.5 0 0 0 .681-2.236l-2.5-1.624a.5.5 0 0 1-.21-.549l.849-3.172a6.5 6.5 0 0 0-2.021-1.372z" clip-rule="evenodd" />
</svg>
