<!-- This Source Code Form is subject to the terms of the Mozilla Public
   - License, v. 2.0. If a copy of the MPL was not distributed with this
   - file, You can obtain one at http://mozilla.org/MPL/2.0/. -->
<svg xmlns="http://www.w3.org/2000/svg" width="16" height="16" fill="context-fill" fill-opacity="context-fill-opacity" viewBox="0 0 16 16">
    <path d="m16.001 14.94-1.06 1.061L10.94 12H10v2.5A1.5 1.5 0 0 1 8.5 16h-.003a.69.69 0 0 1-.655-.472l-.76-2.28a2 2 0 0 0-.225-.465L5.25 10.331v-4.02L4 5.06v5.44a.5.5 0 0 1-.5.5h-2a.5.5 0 0 1-.5-.5v-8c0-.123.045-.234.118-.321L0 1.06 1.06 0zM12.332 3c.861 0 1.624.551 1.896 1.368l1.668 5c.352 1.06-.234 2.134-1.204 2.495L5.83 3z" />
</svg>
