<!-- This Source Code Form is subject to the terms of the Mozilla Public
   - License, v. 2.0. If a copy of the MPL was not distributed with this
   - file, You can obtain one at http://mozilla.org/MPL/2.0/. -->
<svg xmlns="http://www.w3.org/2000/svg" width="16" height="16" fill="context-fill" fill-opacity="context-fill-opacity" viewBox="0 0 16 16">
    <path d="M12.332 3c.861 0 1.624.551 1.895 1.368l1.668 5A2 2 0 0 1 13.998 12H10v2.5A1.5 1.5 0 0 1 8.5 16h-.003a.69.69 0 0 1-.655-.472l-.76-2.28a2 2 0 0 0-.225-.465L5.25 10.331V3zM3.5 2a.5.5 0 0 1 .5.5v8a.5.5 0 0 1-.5.5h-2a.5.5 0 0 1-.5-.5v-8a.5.5 0 0 1 .5-.5z" />
</svg>
