<!-- This Source Code Form is subject to the terms of the Mozilla Public
   - License, v. 2.0. If a copy of the MPL was not distributed with this
   - file, You can obtain one at http://mozilla.org/MPL/2.0/. -->
<svg xmlns="http://www.w3.org/2000/svg" width="16" height="16" fill="context-fill" fill-opacity="context-fill-opacity" viewBox="0 0 16 16">
    <path fill-rule="evenodd" d="M6.127 2.252c.697-1.67 3.047-1.67 3.743 0l.253.637c.266.705.474 1.378.636 2a.52.52 0 0 0 .386.356 19.5 19.5 0 0 1 2.593.876c1.67.7 1.69 3.047.005 3.754q-.387.162-.802.315v.001c-.629.233-1.231.417-1.797.564a.53.53 0 0 0-.364.297l-.02.058a20 20 0 0 1-.893 2.645c-.694 1.66-3.041 1.66-3.735 0l-.204-.505-.207-.562a20 20 0 0 1-.483-1.578l-.001-.001a.51.51 0 0 0-.382-.352 20 20 0 0 1-2.6-.882C.567 9.168.591 6.82 2.26 6.12l.437-.177q.222-.087.45-.17a20 20 0 0 1 1.705-.53.52.52 0 0 0 .387-.357 20 20 0 0 1 .888-2.635m2.359.577a.524.524 0 0 0-.935-.077l-.039.077a17 17 0 0 0-.233.59l-.001.002q-.276.733-.467 1.406l-.121.44c-.192.734-.776 1.25-1.46 1.428q-.558.146-1.163.348l-.407.141q-.428.155-.818.32a.53.53 0 0 0-.009.988 18 18 0 0 0 2.4.813c.68.178 1.264.692 1.456 1.425l.129.469q.138.479.318.991l.191.519.189.467.039.076a.522.522 0 0 0 .928-.076l.187-.466c.271-.702.478-1.368.639-1.98l.041-.135a2.02 2.02 0 0 1 1.411-1.289h.002a18 18 0 0 0 1.66-.522l.376-.145q.186-.072.364-.147a.53.53 0 0 0-.005-.988h-.002a16 16 0 0 0-.4-.163l-.418-.157a18 18 0 0 0-1.572-.488A2.02 2.02 0 0 1 9.348 5.4l-.04-.135a18 18 0 0 0-.588-1.845z" clip-rule="evenodd" />
</svg>
