<svg width="16" height="16" viewBox="0 0 16 16" fill="none" xmlns="http://www.w3.org/2000/svg">
<path d="M8 1C8.41421 1 8.75 1.33579 8.75 1.75V2.01855C10.3484 2.03682 11.9432 2.12213 13.5225 2.28516C14.9342 2.43137 16 3.61055 16 5.02539V10.9746C16 12.3896 14.9439 13.5659 13.5449 13.7119C11.956 13.877 10.3469 13.9705 8.75 13.9932V14.25C8.75 14.6642 8.41421 15 8 15C7.58579 15 7.25 14.6642 7.25 14.25V1.75C7.25 1.33579 7.58579 1 8 1Z" fill="black"/>
<path d="M5.75 3.55859C4.70111 3.60459 3.65125 3.67229 2.61035 3.78027C1.97735 3.84627 1.5 4.38139 1.5 5.02539V10.9746C1.5 11.6195 1.98593 12.1556 2.63184 12.2227C3.66584 12.3297 4.707 12.3974 5.75 12.4424V13.9424C4.655 13.8964 3.56054 13.8268 2.47754 13.7148C1.06577 13.5686 0 12.3895 0 10.9746V5.02539C0 3.61039 1.05608 2.43409 2.45508 2.28809C3.54906 2.17409 4.64802 2.10557 5.75 2.05957V3.55859Z" fill="black"/>
</svg>
