<!-- This Source Code Form is subject to the terms of the Mozilla Public
   - License, v. 2.0. If a copy of the MPL was not distributed with this
   - file, You can obtain one at http://mozilla.org/MPL/2.0/. -->
   <svg width="16" height="16" fill="context-fill" fill-opacity="context-fill-opacity" xmlns="http://www.w3.org/2000/svg"><path d="M8.75 2H14c1.103 0 2 .897 2 2v8c0 1.103-.897 2-2 2H8.75v1h-1.5V1h1.5v1zM5.75 3.5H2a.5.5 0 0 0-.5.5v8a.5.5 0 0 0 .5.5h3.75V14H2a2 2 0 0 1-2-2V4a2 2 0 0 1 2-2h3.75v1.5z" /></svg>