<!-- This Source Code Form is subject to the terms of the Mozilla Public
   - License, v. 2.0. If a copy of the MPL was not distributed with this
   - file, You can obtain one at http://mozilla.org/MPL/2.0/. -->
<svg xmlns="http://www.w3.org/2000/svg" width="16" height="16" fill="context-fill" fill-opacity="context-fill-opacity" viewBox="0 0 16 16"><path d="M5 8v2H3V8z"/><path fill-rule="evenodd" d="M14 4a2 2 0 0 1 2 2v6a2 2 0 0 1-2 2H2a2 2 0 0 1-2-2V6a2 2 0 0 1 2-2zM2 5.5a.5.5 0 0 0-.5.5v6a.5.5 0 0 0 .5.5h12a.5.5 0 0 0 .5-.5V6a.5.5 0 0 0-.5-.5z" clip-rule="evenodd"/></svg>