<!-- This Source Code Form is subject to the terms of the Mozilla Public
   - License, v. 2.0. If a copy of the MPL was not distributed with this
   - file, You can obtain one at http://mozilla.org/MPL/2.0/. -->
<svg xmlns="http://www.w3.org/2000/svg" width="16" height="16" fill="context-fill" fill-opacity="context-fill-opacity" viewBox="0 0 16 16">
    <g clip-path="url(#clip0_16611_12413)">
        <path d="M8 13a.75.75 0 0 1 .75.75v1.5a.75.75 0 0 1-1.5 0v-1.5A.75.75 0 0 1 8 13m-4.597-1.464a.751.751 0 0 1 1.062 1.06l-1.062 1.062a.751.751 0 0 1-1.06-1.061zm8.133 0a.75.75 0 0 1 1.06 0l1.062 1.06a.752.752 0 0 1-1.061 1.062l-1.06-1.061a.75.75 0 0 1 0-1.06" />
        <path fill-rule="evenodd" d="M8 4.203a3.797 3.797 0 1 1 0 7.594 3.797 3.797 0 0 1 0-7.594m0 1.5a2.297 2.297 0 1 0 0 4.594 2.297 2.297 0 0 0 0-4.594" clip-rule="evenodd" />
        <path d="M2.25 7.25a.75.75 0 0 1 0 1.5H.75a.75.75 0 0 1 0-1.5zm13 0a.75.75 0 0 1 0 1.5h-1.5a.75.75 0 0 1 0-1.5zM2.343 2.343a.75.75 0 0 1 1.06 0l1.062 1.06a.751.751 0 0 1-1.062 1.062l-1.06-1.062a.75.75 0 0 1 0-1.06m10.254 0a.751.751 0 0 1 1.061 1.06l-1.061 1.062a.75.75 0 0 1-1.06-1.062zM8 0a.75.75 0 0 1 .75.75v1.5a.75.75 0 0 1-1.5 0V.75A.75.75 0 0 1 8 0" />
    </g>
</svg>
