<svg width="16" height="16" viewBox="0 0 16 16" fill="none" xmlns="http://www.w3.org/2000/svg">
<g clip-path="url(#clip0_16611_12413)">
<path d="M8 13C8.41421 13 8.75 13.3358 8.75 13.75V15.25C8.75 15.6642 8.41421 16 8 16C7.58579 16 7.25 15.6642 7.25 15.25V13.75C7.25 13.3358 7.58579 13 8 13Z" fill="black"/>
<path d="M3.40332 11.5361C3.69621 11.2432 4.17195 11.2432 4.46484 11.5361C4.75711 11.829 4.7573 12.3039 4.46484 12.5967L3.40332 13.6582C3.11057 13.9504 2.63555 13.9504 2.34277 13.6582C2.04995 13.3654 2.05009 12.8896 2.34277 12.5967L3.40332 11.5361Z" fill="black"/>
<path d="M11.5361 11.5361C11.829 11.2432 12.3038 11.2432 12.5967 11.5361L13.6582 12.5967C13.9506 12.8896 13.9509 13.3655 13.6582 13.6582C13.3655 13.9509 12.8896 13.9506 12.5967 13.6582L11.5361 12.5967C11.2432 12.3038 11.2433 11.829 11.5361 11.5361Z" fill="black"/>
<path fill-rule="evenodd" clip-rule="evenodd" d="M8 4.20312C10.0969 4.20319 11.7968 5.90307 11.7969 8C11.7969 10.097 10.097 11.7968 8 11.7969C5.90303 11.7968 4.20312 10.097 4.20312 8C4.20319 5.90307 5.90307 4.20319 8 4.20312ZM8 5.70312C6.7315 5.70319 5.70319 6.7315 5.70312 8C5.70312 9.26856 6.73146 10.2968 8 10.2969C9.26854 10.2968 10.2969 9.26856 10.2969 8C10.2968 6.7315 9.2685 5.70319 8 5.70312Z" fill="black"/>
<path d="M2.25 7.25C2.66421 7.25 3 7.58579 3 8C3 8.41421 2.66421 8.75 2.25 8.75H0.75C0.335786 8.75 0 8.41421 0 8C0 7.58579 0.335786 7.25 0.75 7.25H2.25Z" fill="black"/>
<path d="M15.25 7.25C15.6642 7.25 16 7.58579 16 8C16 8.41421 15.6642 8.75 15.25 8.75H13.75C13.3358 8.75 13 8.41421 13 8C13 7.58579 13.3358 7.25 13.75 7.25H15.25Z" fill="black"/>
<path d="M2.34277 2.34277C2.63567 2.04991 3.11044 2.04989 3.40332 2.34277L4.46484 3.40332C4.75766 3.69621 4.75768 4.17197 4.46484 4.46484C4.17197 4.75772 3.69622 4.75767 3.40332 4.46484L2.34277 3.40332C2.04988 3.11043 2.04988 2.63567 2.34277 2.34277Z" fill="black"/>
<path d="M12.5967 2.34277C12.8896 2.05009 13.3654 2.04995 13.6582 2.34277C13.9505 2.63555 13.9505 3.11055 13.6582 3.40332L12.5967 4.46484C12.3039 4.75732 11.829 4.75717 11.5361 4.46484C11.2432 4.17195 11.2432 3.69621 11.5361 3.40332L12.5967 2.34277Z" fill="black"/>
<path d="M8 0C8.41421 0 8.75 0.335786 8.75 0.75V2.25C8.75 2.66421 8.41421 3 8 3C7.58579 3 7.25 2.66421 7.25 2.25V0.75C7.25 0.335786 7.58579 0 8 0Z" fill="black"/>
</g>
<defs>
<clipPath id="clip0_16611_12413">
<rect width="16" height="16" fill="white"/>
</clipPath>
</defs>
</svg>
