<!-- This Source Code Form is subject to the terms of the Mozilla Public
   - License, v. 2.0. If a copy of the MPL was not distributed with this
   - file, You can obtain one at http://mozilla.org/MPL/2.0/. -->
<svg xmlns="http://www.w3.org/2000/svg" width="16" height="16" fill="context-fill" fill-opacity="context-fill-opacity" viewBox="0 0 16 16">
    <path fill-rule="evenodd" d="M12.5 5.999c.717 0 1.377.048 1.969.122l.163.028A1.75 1.75 0 0 1 16 7.861v6.277c0 .905-.688 1.636-1.556 1.743a16 16 0 0 1-3.456.046l-.457-.05A1.75 1.75 0 0 1 9 14.137V7.859c0-.905.688-1.636 1.556-1.742a16 16 0 0 1 1.944-.118m0 1.5c-.388 0-.819.015-1.284.056l-.478.051a.264.264 0 0 0-.238.253v5.64h4V7.862a.25.25 0 0 0-.173-.242l-.044-.01A15 15 0 0 0 12.5 7.5" clip-rule="evenodd" />
    <path d="M3.415.264a40.2 40.2 0 0 1 9.147-.003A2.75 2.75 0 0 1 15 2.997V4.5h-1.5V2.997c0-.638-.477-1.174-1.11-1.246a38.6 38.6 0 0 0-8.804.004A1.24 1.24 0 0 0 2.5 2.994v5.012c0 .636.47 1.17 1.09 1.242 1.287.15 2.602.235 3.91.252v3H.75a.75.75 0 0 1 0-1.5h6.74a40 40 0 0 1-4.073-.262A2.743 2.743 0 0 1 1 8.006V2.994A2.74 2.74 0 0 1 3.415.264" />
</svg>
