<!-- This Source Code Form is subject to the terms of the Mozilla Public
   - License, v. 2.0. If a copy of the MPL was not distributed with this
   - file, You can obtain one at http://mozilla.org/MPL/2.0/. -->
<svg width="16" height="16" fill="context-fill" fill-opacity="context-fill-opacity" xmlns="http://www.w3.org/2000/svg"><path d="M13 3a2 2 0 0 1 2 2v7a2 2 0 0 1-2 2h3v1.5H0V14h3a2 2 0 0 1-2-2V8.5h1.5V12a.5.5 0 0 0 .5.5h10a.5.5 0 0 0 .5-.5V5a.5.5 0 0 0-.5-.5h-1.5V3H13z"/><path fill-rule="evenodd" clip-rule="evenodd" d="M8 0a2 2 0 0 1 2 2v3a2 2 0 0 1-2 2H2a2 2 0 0 1-2-2V2a2 2 0 0 1 2-2h6zM2 1.5a.5.5 0 0 0-.5.5v3a.5.5 0 0 0 .5.5h5.5v-4H2z"/></svg>