<svg width="16" height="16" viewBox="0 0 16 16" fill="none" xmlns="http://www.w3.org/2000/svg">
<path fill-rule="evenodd" clip-rule="evenodd" d="M10.25 1.05762C11.345 1.10362 12.4385 1.17216 13.5225 1.28516C14.9362 1.43237 16 2.61055 16 4.02539V11.9736C16 13.3886 14.9439 14.5649 13.5449 14.7109C11.7149 14.9019 9.84898 14.999 8 14.999C6.162 14.999 4.30354 14.9029 2.47754 14.7139C1.06377 14.5667 0 13.3885 0 11.9736V4.02539C0 2.61039 1.05608 1.43409 2.45508 1.28809C3.54506 1.17409 4.64602 1.10459 5.75 1.05859V2.55859C4.69811 2.60359 3.64825 2.67229 2.61035 2.78027C1.97735 2.84527 1.5 3.38039 1.5 4.02539V10.5H14.5V4.02539C14.5 3.38146 14.0131 2.84444 13.3672 2.77734C12.3352 2.67034 11.293 2.60262 10.25 2.55762V1.05762ZM1.50098 12C1.51389 12.6323 1.99564 13.1555 2.63281 13.2217C6.1917 13.5897 9.84075 13.5887 13.3896 13.2188C14.0141 13.1546 14.4864 12.6333 14.499 12H1.50098Z" fill="black"/>
<path d="M8 0C8.41421 0 8.75 0.335786 8.75 0.75V5.99902H10.5283C10.948 5.99929 11.1578 6.50674 10.8613 6.80371L8.33301 9.33203C8.14901 9.51603 7.85099 9.51603 7.66699 9.33203L5.13867 6.80371C4.84221 6.50774 5.05204 6.00025 5.47168 6L7.25 5.99902V0.75C7.25 0.335786 7.58579 0 8 0Z" fill="black"/>
</svg>
