<!-- This Source Code Form is subject to the terms of the Mozilla Public
   - License, v. 2.0. If a copy of the MPL was not distributed with this
   - file, You can obtain one at http://mozilla.org/MPL/2.0/. -->
<svg xmlns="http://www.w3.org/2000/svg" width="16" height="16" fill="context-fill" fill-opacity="context-fill-opacity" viewBox="0 0 16 16">
    <path fill-rule="evenodd" d="M10.25 1.058c1.095.046 2.188.114 3.273.227A2.75 2.75 0 0 1 16 4.025v7.949a2.74 2.74 0 0 1-2.455 2.737 53.6 53.6 0 0 1-11.067.003A2.75 2.75 0 0 1 0 11.974V4.025a2.74 2.74 0 0 1 2.455-2.737 53 53 0 0 1 3.295-.23v1.5a52 52 0 0 0-3.14.222c-.633.065-1.11.6-1.11 1.245V10.5h13V4.025c0-.644-.487-1.18-1.133-1.248a52 52 0 0 0-3.117-.22zM1.501 12a1.255 1.255 0 0 0 1.132 1.222c3.559.368 7.208.367 10.757-.003A1.24 1.24 0 0 0 14.499 12z" clip-rule="evenodd" />
    <path d="M8 0a.75.75 0 0 1 .75.75v5.249h1.778c.42 0 .63.508.333.805L8.333 9.332a.47.47 0 0 1-.666 0L5.139 6.804A.47.47 0 0 1 5.472 6l1.778-.001V.75A.75.75 0 0 1 8 0" />
</svg>
