<svg width="16" height="16" viewBox="0 0 16 16" fill="none" xmlns="http://www.w3.org/2000/svg">
<path d="M7.66699 3.66797C7.85099 3.48401 8.14902 3.484 8.33301 3.66797L10.8613 6.19629C11.1578 6.49325 10.948 7.00071 10.5283 7.00098L8.75 7V8.75C8.74987 9.1641 8.41413 9.5 8 9.5C7.58587 9.5 7.25013 9.1641 7.25 8.75V7H5.47168C5.05203 6.99975 4.84218 6.49226 5.13867 6.19629L7.66699 3.66797Z" fill="black"/>
<path fill-rule="evenodd" clip-rule="evenodd" d="M8 1C9.4553 1 11.0559 1.05884 12.7773 1.21289L13.5225 1.28516L13.7812 1.32422C15.0525 1.57884 16 2.69884 16 4.02539V11.9746C16 13.3741 14.9513 14.5653 13.5459 14.7119C11.8584 14.8874 10.0011 15 8 15C6.33683 15 4.48373 14.9228 2.47754 14.7148C1.07827 14.5696 0 13.3897 0 11.9746V4.02539C0 2.62588 1.04865 1.43465 2.4541 1.28809C4.14156 1.11265 5.99888 1 8 1ZM1.50098 12C1.51376 12.6278 1.99863 13.1568 2.63281 13.2227C4.58244 13.4247 6.3833 13.5 8 13.5C9.94487 13.5 11.7501 13.3903 13.3906 13.2197C14.0106 13.1549 14.4866 12.6329 14.499 12H1.50098ZM8 2.5C6.05512 2.5 4.24992 2.60971 2.60938 2.78027C1.9811 2.84597 1.5 3.38109 1.5 4.02539V10.5H14.5V4.02539C14.5 3.38652 14.0099 2.84407 13.3672 2.77734C11.4176 2.5753 9.6167 2.5 8 2.5Z" fill="black"/>
</svg>
