<svg width="16" height="16" viewBox="0 0 16 16" fill="none" xmlns="http://www.w3.org/2000/svg">
<path fill-rule="evenodd" clip-rule="evenodd" d="M8 0C9.05378 0 10.272 0.0589724 11.6152 0.230469L11.8682 0.274414C13.1113 0.554422 14 1.67555 14 2.95801V8.28711C13.9999 9.34731 13.2591 10.2652 12.2207 10.4873L10.5 10.8555V13.75C10.5 14.9922 9.49221 16 8.25 16H7.75C6.50779 16 5.5 14.9922 5.5 13.75V10.8555L3.7793 10.4873C2.74118 10.2653 2.00005 9.34861 2 8.28711V2.95801C2 1.56377 3.03853 0.399533 4.41504 0.225586C5.49247 0.0889979 6.69397 0 8 0ZM3.5 7.5V8.28711C3.50005 8.64148 3.74701 8.94651 4.09277 9.02051L6.40723 9.5166C6.753 9.59073 7 9.89637 7 10.25V13.75C7 14.1638 7.33621 14.5 7.75 14.5H8.25C8.66379 14.5 9 14.1638 9 13.75V10.25C9 9.89637 9.247 9.59073 9.59277 9.5166L11.9072 9.02051C12.2527 8.94657 12.4999 8.64078 12.5 8.28711V7.5H3.5ZM4.60352 1.71387C3.97003 1.79392 3.5 2.32625 3.5 2.95801V6H12.5V2.95801C12.5 2.36722 12.0896 1.86229 11.5371 1.7373L11.4248 1.71777C11.3344 1.70623 11.2445 1.69603 11.1553 1.68555L10.9453 1.88574L9.96973 2.79785C9.67372 3.07479 9.21274 3.06723 8.92676 2.78125L8.03223 1.88574H7.36719L6.75098 2.39941C6.441 2.6572 5.98284 2.62409 5.71289 2.32422L5.1123 1.65625C4.93969 1.67479 4.76993 1.69277 4.60352 1.71387Z" fill="black"/>
</svg>
