<svg width="16" height="16" viewBox="0 0 16 16" fill="none" xmlns="http://www.w3.org/2000/svg">
<path d="M4 8.99902C4.49689 8.99902 5.04673 9.01925 5.64258 9.07422C6.41058 9.14422 7 9.80029 7 10.5713V13.4307C7 14.1956 6.42701 14.8528 5.66504 14.9229C5.14904 14.9709 4.592 15 4 15C3.50311 15 2.95327 14.9798 2.35742 14.9248C1.58942 14.8548 1 14.1987 1 13.4277V10.5684C1 9.80338 1.57299 9.1462 2.33496 9.07617C2.85096 9.02817 3.408 8.99902 4 8.99902Z" fill="black"/>
<path d="M12 8.99902C12.4969 8.99902 13.0467 9.01925 13.6426 9.07422C14.4106 9.14422 15 9.80029 15 10.5713V13.4307C15 14.1956 14.427 14.8528 13.665 14.9229C13.149 14.9709 12.592 15 12 15C11.5031 15 10.9533 14.9798 10.3574 14.9248C9.58942 14.8548 9 14.1987 9 13.4277V10.5684C9 9.80338 9.57299 9.1462 10.335 9.07617C10.851 9.02817 11.408 8.99902 12 8.99902Z" fill="black"/>
<path d="M4 0.999023C4.49689 0.999023 5.04673 1.01925 5.64258 1.07422C6.41058 1.14422 7 1.80029 7 2.57129V5.43066C7 6.19565 6.42701 6.85283 5.66504 6.92285C5.14904 6.97085 4.592 7 4 7C3.50311 7 2.95327 6.97978 2.35742 6.9248C1.58942 6.8548 1 6.19873 1 5.42773V2.56836C1 1.80338 1.57299 1.1462 2.33496 1.07617C2.85096 1.02817 3.408 0.999023 4 0.999023Z" fill="black"/>
<path d="M12 0.999023C12.4969 0.999023 13.0467 1.01925 13.6426 1.07422C14.4106 1.14422 15 1.80029 15 2.57129V5.43066C15 6.19565 14.427 6.85283 13.665 6.92285C13.149 6.97085 12.592 7 12 7C11.5031 7 10.9533 6.97978 10.3574 6.9248C9.58942 6.8548 9 6.19873 9 5.42773V2.56836C9 1.80338 9.57299 1.1462 10.335 1.07617C10.851 1.02817 11.408 0.999023 12 0.999023Z" fill="black"/>
</svg>
