<!-- This Source Code Form is subject to the terms of the Mozilla Public
   - License, v. 2.0. If a copy of the MPL was not distributed with this
   - file, You can obtain one at http://mozilla.org/MPL/2.0/. -->
<svg xmlns="http://www.w3.org/2000/svg" width="16" height="16" fill="context-fill" fill-opacity="context-fill-opacity" viewBox="0 0 16 16">
    <path d="M10 10a1 1 0 1 1 0 2 1 1 0 0 1 0-2M5 8.25a1.25 1.25 0 1 1 0 2.5 1.25 1.25 0 0 1 0-2.5M7 4a1 1 0 1 1 0 2 1 1 0 0 1 0-2" />
    <path fill-rule="evenodd" d="M8 0c.483 0 .948.05 1.393.128a.75.75 0 0 1 .62.756q-.002.063-.007.102L10 1.022a3 3 0 0 0 2.533 2.942.75.75 0 0 1 .549.392l.281.537a.75.75 0 0 1-.005.706C13.131 6.019 13 6.494 13 7c0 1.309.847 2.415 2.03 2.822a.75.75 0 0 1 .458.972C14.355 13.829 11.437 16 8 16A8 8 0 0 1 8 0m0 1.5a6.5 6.5 0 0 0 0 13 6.49 6.49 0 0 0 5.804-3.593A4.47 4.47 0 0 1 11.5 7c0-.59.117-1.147.324-1.657a4.5 4.5 0 0 1-3.293-3.818A6 6 0 0 0 8 1.5" clip-rule="evenodd" />
</svg>
