<!-- This Source Code Form is subject to the terms of the Mozilla Public
   - License, v. 2.0. If a copy of the MPL was not distributed with this
   - file, You can obtain one at http://mozilla.org/MPL/2.0/. -->
<svg xmlns="http://www.w3.org/2000/svg" width="20" height="20" fill="context-fill" fill-opacity="context-fill-opacity" viewBox="0 0 20 20">
    <path fill-rule="evenodd" d="M7.751 1.999v1.5l.044.02a40 40 0 0 1 5.206.42v1.515a39 39 0 0 0-1.987-.252l-.431 1.213A12.4 12.4 0 0 1 8.044 10.6a10.8 10.8 0 0 0 3.263 2.2c.004 0 .01.008.01.01l1.848-4.353a.75.75 0 0 1 .69-.457h.829a.75.75 0 0 1 .69.457L19.001 17h-1.63l-1.061-2.5h-4.08L11.169 17h-1.63l1.195-2.815a12.3 12.3 0 0 1-3.77-2.543A12.3 12.3 0 0 1 3 13.902v-1.58a10.8 10.8 0 0 0 2.963-1.786 12.4 12.4 0 0 1-1.978-3.553L3.814 6.5h1.594a10.9 10.9 0 0 0 1.636 2.97 10.9 10.9 0 0 0 2.125-3.557l.299-.84A38.8 38.8 0 0 0 1 5.454V3.94a40 40 0 0 1 5.286-.423L6.25 3.5V2zM12.866 13h2.806l-1.403-3.306z" clip-rule="evenodd" />
</svg>
