<!-- This Source Code Form is subject to the terms of the Mozilla Public
   - License, v. 2.0. If a copy of the MPL was not distributed with this
   - file, You can obtain one at http://mozilla.org/MPL/2.0/. -->
<svg xmlns="http://www.w3.org/2000/svg" width="16" height="16" fill="context-fill" fill-opacity="context-fill-opacity" viewBox="0 0 16 16">
    <path d="M8.5 9a3 3 0 0 1 3 3v2a1 1 0 0 1-1 1H1a1 1 0 0 1-1-1v-2a3 3 0 0 1 3-3zM3 10.5c-.827 0-1.5.673-1.5 1.5v1.5H10V12c0-.827-.673-1.5-1.5-1.5zM16 3.404l-1.768 1.767L16 6.939 14.94 8l-1.768-1.768L11.404 8l-1.06-1.06 1.766-1.77-1.766-1.766 1.06-1.061 1.768 1.767 1.768-1.767zM5.75 1.75a3 3 0 1 1 0 6 3 3 0 0 1 0-6m0 1.5c-.827 0-1.5.673-1.5 1.5s.673 1.5 1.5 1.5 1.5-.673 1.5-1.5-.673-1.5-1.5-1.5" />
</svg>
