<svg width="16" height="16" viewBox="0 0 16 16" fill="none" xmlns="http://www.w3.org/2000/svg">
<path fill-rule="evenodd" clip-rule="evenodd" d="M8 0C12.4183 0 16 3.58172 16 8C16 12.4183 12.4183 16 8 16C3.58172 16 0 12.4183 0 8C0 3.58172 3.58172 0 8 0ZM9.05957 4.42383C8.49354 3.8582 7.50437 3.85803 6.93848 4.42383L4.21875 7.14355C3.92597 7.43637 3.92633 7.91107 4.21875 8.2041C4.51174 8.49709 4.98629 8.49707 5.2793 8.2041L7.25 6.2334V11.25C7.25026 11.6637 7.58628 11.9999 8 12C8.41373 11.9999 8.74974 11.6637 8.75 11.25V6.23438L10.7197 8.2041C10.8657 8.35103 11.0581 8.42474 11.25 8.4248C11.4419 8.42475 11.6334 8.35003 11.7793 8.2041C12.0722 7.9111 12.0723 7.43653 11.7793 7.14355L9.05957 4.42383Z" fill="black"/>
</svg>
