<svg width="16" height="16" viewBox="0 0 16 16" fill="none" xmlns="http://www.w3.org/2000/svg">
<path d="M8 1C8.467 1 8.9073 1.1817 9.2373 1.5127L13.7812 6.05469C14.0742 6.34768 14.0742 6.82321 13.7812 7.11621C13.4882 7.40921 13.0127 7.40921 12.7197 7.11621L8.75 3.14648V14.25C8.74997 14.6642 8.41419 15 8 15C7.58581 15 7.25003 14.6642 7.25 14.25V3.14648L3.28125 7.11621C2.98825 7.40921 2.51273 7.40921 2.21973 7.11621C2.07275 6.97021 2 6.77792 2 6.58594C2.00002 6.39396 2.07374 6.20165 2.21973 6.05566L6.76172 1.5127C7.09272 1.1817 7.53301 1 8 1Z" fill="black"/>
</svg>
