<!-- This Source Code Form is subject to the terms of the Mozilla Public
   - License, v. 2.0. If a copy of the MPL was not distributed with this
   - file, You can obtain one at http://mozilla.org/MPL/2.0/. -->
   <svg width="16" height="16" fill="context-fill" fill-opacity="context-fill-opacity" xmlns="http://www.w3.org/2000/svg"><path fill-rule="evenodd" clip-rule="evenodd" d="M8.5 9a3 3 0 0 1 3 3v2a1 1 0 0 1-1 1H1a1 1 0 0 1-1-1v-2a3 3 0 0 1 3-3h5.5zM3 10.5c-.827 0-1.5.673-1.5 1.5v1.5H10V12c0-.827-.673-1.5-1.5-1.5H3z" fill="#000"/><path d="M13 9a3 3 0 0 1 3 3v2a1 1 0 0 1-1 1h-2.212c.135-.307.212-.644.212-1v-.5h1.5V12c0-.827-.673-1.5-1.5-1.5h-.277a4.479 4.479 0 0 0-.894-1.5H13z" /><path fill-rule="evenodd" clip-rule="evenodd" d="M5.75 1.75a3 3 0 1 1 0 6 3 3 0 0 1 0-6zm0 1.5c-.827 0-1.5.673-1.5 1.5s.673 1.5 1.5 1.5 1.5-.673 1.5-1.5-.673-1.5-1.5-1.5z" /><path d="M10.25 1.75a3 3 0 1 1 0 6c-.358 0-.697-.074-1.015-.188.322-.398.575-.848.747-1.34.087.017.176.028.268.028.827 0 1.5-.673 1.5-1.5s-.673-1.5-1.5-1.5c-.092 0-.18.011-.268.027a4.468 4.468 0 0 0-.747-1.339 2.972 2.972 0 0 1 1.015-.188z" /></svg>