<!-- This Source Code Form is subject to the terms of the Mozilla Public
   - License, v. 2.0. If a copy of the MPL was not distributed with this
   - file, You can obtain one at http://mozilla.org/MPL/2.0/. -->
<svg xmlns="http://www.w3.org/2000/svg" width="16" height="16" fill="context-fill" fill-opacity="context-fill-opacity" viewBox="0 0 16 16">
    <path d="M11.543 8.991c.678.022 1.339.057 1.958.114 1.422.131 2.498 1.344 2.498 2.772V13c0 1.105-.893 2-1.997 2h-2.094c.341-.43.582-.94.68-1.5h1.414a.5.5 0 0 0 .497-.5v-1.123c0-.658-.498-1.22-1.135-1.277-.314-.03-.631-.046-.948-.066a4.3 4.3 0 0 0-.873-1.543" />
    <path fill-rule="evenodd" d="M5.573 8.962c1.092 0 2.12.054 3.073.14 1.422.13 2.498 1.345 2.498 2.773v1.045a1.863 1.863 0 0 1-1.64 1.848 33.5 33.5 0 0 1-7.887-.002A1.85 1.85 0 0 1 0 12.924v-1.045A2.793 2.793 0 0 1 2.536 9.1a34 34 0 0 1 3.035-.137zm-.003 1.5c-.965 0-1.94.045-2.9.132a1.3 1.3 0 0 0-1.172 1.284v1.045c0 .179.129.334.293.353a32.3 32.3 0 0 0 7.537.003.36.36 0 0 0 .314-.358v-1.045c0-.658-.498-1.22-1.135-1.278a32 32 0 0 0-2.202-.125zM5.57 2a2.902 2.902 0 1 1 0 5.803A2.902 2.902 0 0 1 5.57 2m0 1.5c-.773 0-1.402.63-1.402 1.402 0 .773.63 1.402 1.402 1.402.773 0 1.401-.629 1.402-1.402S6.343 3.5 5.57 3.5" clip-rule="evenodd" />
    <path d="M10.427 2a2.902 2.902 0 1 1 0 5.804c-.472 0-.912-.124-1.306-.324.293-.402.51-.856.653-1.345.196.104.416.169.653.169.773 0 1.402-.629 1.402-1.402S11.2 3.5 10.427 3.5c-.237 0-.457.065-.653.169a4.4 4.4 0 0 0-.653-1.345c.394-.2.834-.324 1.306-.324" />
</svg>
