<!-- This Source Code Form is subject to the terms of the Mozilla Public
   - License, v. 2.0. If a copy of the MPL was not distributed with this
   - file, You can obtain one at http://mozilla.org/MPL/2.0/. -->
<svg xmlns="http://www.w3.org/2000/svg" width="16" height="16" fill="context-fill" fill-opacity="context-fill-opacity" viewBox="0 0 16 16">
    <path d="M8.5 9a3 3 0 0 1 3 3v2a1 1 0 0 1-1 1H1a1 1 0 0 1-1-1v-2a3 3 0 0 1 3-3zM3 10.5c-.827 0-1.5.673-1.5 1.5v1.5H10V12c0-.827-.673-1.5-1.5-1.5zM13 9a3 3 0 0 1 3 3v2a1 1 0 0 1-1 1h-2.212c.135-.307.212-.644.212-1v-.5h1.5V12c0-.827-.673-1.5-1.5-1.5h-.277a4.5 4.5 0 0 0-.894-1.5zM5.75 1.75a3 3 0 1 1 0 6 3 3 0 0 1 0-6m0 1.5c-.827 0-1.5.673-1.5 1.5s.673 1.5 1.5 1.5 1.5-.673 1.5-1.5-.673-1.5-1.5-1.5M10.25 1.75a3 3 0 1 1 0 6c-.358 0-.697-.074-1.015-.188a4.5 4.5 0 0 0 .747-1.34q.13.027.268.028c.827 0 1.5-.673 1.5-1.5s-.673-1.5-1.5-1.5q-.137.002-.268.027a4.5 4.5 0 0 0-.747-1.339 3 3 0 0 1 1.015-.188" />
</svg>
