<!-- This Source Code Form is subject to the terms of the Mozilla Public
   - License, v. 2.0. If a copy of the MPL was not distributed with this
   - file, You can obtain one at http://mozilla.org/MPL/2.0/. -->
<svg xmlns="http://www.w3.org/2000/svg" width="16" height="16" fill="context-fill" fill-opacity="context-fill-opacity" viewBox="0 0 16 16">
    <path d="M4.415 13.224c2.387-.301 4.827-.3 7.2.003A2.74 2.74 0 0 1 13.826 15h-1.795a1.2 1.2 0 0 0-.606-.283 27.2 27.2 0 0 0-6.821-.004 1.24 1.24 0 0 0-.625.287H2.175a2.77 2.77 0 0 1 2.24-1.776" />
    <path fill-rule="evenodd" d="M8 4.25c1.054 0 2.271.059 3.616.23l-.002.001C12.99 4.656 14 5.841 14 7.208v1.584a2.755 2.755 0 0 1-2.415 2.732 28.5 28.5 0 0 1-7.2-.004C3.011 11.344 2 10.159 2 8.792V7.208a2.755 2.755 0 0 1 2.415-2.732A29 29 0 0 1 8 4.25m0 1.5c-1.237 0-2.376.085-3.396.214A1.255 1.255 0 0 0 3.5 7.208v1.584c0 .63.468 1.163 1.075 1.24a27 27 0 0 0 6.822.004A1.255 1.255 0 0 0 12.5 8.792V7.208c0-.63-.467-1.163-1.074-1.24A27 27 0 0 0 8 5.75" clip-rule="evenodd" />
    <path d="M3.971 1c.173.142.372.252.605.282 2.251.288 4.562.29 6.82.004.24-.03.447-.142.624-.286h1.805a2.77 2.77 0 0 1-2.239 1.774 28.7 28.7 0 0 1-7.199-.003A2.74 2.74 0 0 1 2.175 1z" />
</svg>
