<!-- This Source Code Form is subject to the terms of the Mozilla Public
   - License, v. 2.0. If a copy of the MPL was not distributed with this
   - file, You can obtain one at http://mozilla.org/MPL/2.0/. -->
<svg xmlns="http://www.w3.org/2000/svg" width="16" height="16" fill="context-fill" fill-opacity="context-fill-opacity" viewBox="0 0 16 16">
    <path d="M5.75 4.875c.345 0 .625.28.625.625v.375h.375a.625.625 0 0 1 0 1.25h-.375V7.5a.625.625 0 0 1-1.25 0v-.375H4.75a.625.625 0 0 1 0-1.25h.375V5.5c0-.345.28-.625.625-.625m4.75.625a1 1 0 1 1 0 2 1 1 0 0 1 0-2" />
    <path fill-rule="evenodd" d="M8 1.999c1.484 0 2.831.12 4.009.29a2.74 2.74 0 0 1 2.18 1.804l.061.192 1.64 5.98.054.207a2.5 2.5 0 0 1-1.194 2.693v.001a2.5 2.5 0 0 1-3.416-.916l-.003-.006-.635-1.123-.137-.24a27.644 27.644 0 0 1-5.114-.001l-.19.335-.528.927c-.568.995-1.79 1.607-2.96 1.249l-.233-.085A2.5 2.5 0 0 1 .11 10.273H.107l1.151-4.195.486-1.79a2.74 2.74 0 0 1 2.242-2C5.166 2.118 6.513 2 7.999 2m0 1.5c-1.055 0-2.037.063-2.932.162l-.867.111a1.24 1.24 0 0 0-1.01.91l-.487 1.792v.002l-1.15 4.193-.008.028a1 1 0 0 0 .572 1.226l.082.03c.419.126.951-.077 1.224-.556l.528-.925.431-.757a.75.75 0 0 1 .737-.373 26.4 26.4 0 0 0 5.772-.001l.111-.004a.75.75 0 0 1 .624.38l1.01 1.787a1 1 0 0 0 1.82-.797q-.004-.011-.006-.023l-1.646-6.003-.062-.176a1.24 1.24 0 0 0-.773-.694l-.175-.039A26.5 26.5 0 0 0 8 3.5" clip-rule="evenodd" />
</svg>
