<svg width="16" height="16" viewBox="0 0 16 16" fill="none" xmlns="http://www.w3.org/2000/svg">
<g clip-path="url(#clip0_13802_57508)">
<path fill-rule="evenodd" clip-rule="evenodd" d="M8 0C12.418 0 16 3.582 16 8C16 12.418 12.418 16 8 16C3.582 16 0 12.418 0 8C0 3.582 3.582 0 8 0ZM8 10.25C7.51675 10.25 7.125 10.6418 7.125 11.125C7.125 11.6082 7.51675 12 8 12C8.48325 12 8.875 11.6082 8.875 11.125C8.875 10.6418 8.48325 10.25 8 10.25ZM8 4C7.586 4 7.25 4.336 7.25 4.75V8.25C7.25 8.664 7.586 9 8 9C8.414 9 8.75 8.664 8.75 8.25V4.75C8.75 4.336 8.414 4 8 4Z" fill="black"/>
</g>
<defs>
<clipPath id="clip0_13802_57508">
<rect width="16" height="16" fill="white"/>
</clipPath>
</defs>
</svg>
