<!-- This Source Code Form is subject to the terms of the Mozilla Public
   - License, v. 2.0. If a copy of the MPL was not distributed with this
   - file, You can obtain one at http://mozilla.org/MPL/2.0/. -->
<svg xmlns="http://www.w3.org/2000/svg" width="16" height="16" fill="context-fill" fill-opacity="context-fill-opacity" viewBox="0 0 16 16">
    <path d="M8 10.25A.875.875 0 1 1 8 12a.875.875 0 0 1 0-1.75M8 5a.75.75 0 0 1 .75.75v2.5a.75.75 0 0 1-1.5 0v-2.5A.75.75 0 0 1 8 5" />
    <path fill-rule="evenodd" d="M7.974 1c1.025 0 2.05.514 2.622 1.542l4.387 7.888c1.074 1.932-.24 4.34-2.446 4.454a88 88 0 0 1-9.035 0c-2.218-.114-3.556-2.497-2.488-4.443l4.33-7.885A2.97 2.97 0 0 1 7.974 1m0 1.5c-.267 0-.93.076-1.315.778l-4.33 7.885a1.47 1.47 0 0 0 .004 1.45c.258.464.713.746 1.246.773a86 86 0 0 0 8.88 0 1.46 1.46 0 0 0 1.213-.761 1.49 1.49 0 0 0 0-1.466L9.285 3.271a1.47 1.47 0 0 0-1.31-.771" clip-rule="evenodd" />
</svg>
