<!-- This Source Code Form is subject to the terms of the Mozilla Public
   - License, v. 2.0. If a copy of the MPL was not distributed with this
   - file, You can obtain one at http://mozilla.org/MPL/2.0/. -->
   <svg width="16" height="16" fill="context-fill" fill-opacity="context-fill-opacity" xmlns="http://www.w3.org/2000/svg"><g clip-path="url(#a)" ><path d="M13.27 7.004a.12.12 0 0 1 .076.06c.072.134.193.421.427.726.118.152.7.783.946 1.07.21.245.586.873.61 1.007-.095-.536-.236-.82-.28-.912-.011-.025-.026-.058.01-.089.028-.023.07-.008.09.009.722.657.893 1.574.845 2.576-.05 1.006-1.061 3.549-3.908 3.549-2.705 0-3.911-2.21-4-3.379-.103-1.38.4-2.7 1.36-3.293a.117.117 0 0 1 .121 0 .119.119 0 0 1 .06.105c-.004.382.037.66.116.773a2.28 2.28 0 0 0 .13-.126c.164-.164.411-.412.651-.525a.12.12 0 0 1 .12.01.118.118 0 0 1 .051.103c-.024.415-.01.717.038.789.157.236.7.598 1.028.773.155.083.257.092.278.113.019.02.02.05.002.089-.051.11-.26.373-.408.373h-.108c-.315.012-1.16.125-1.238.658-.033.225.091.554.32.809.38.421.936.654 1.508.634.797-.032 1.398-.569 1.536-1.283.14-.72-.295-1.324-.495-1.496a.117.117 0 0 1-.039-.134c.03-.1.173-.077.259-.053.097.027.364.12.41.188-.658-.99-1.577-.978-1.81-.963a.13.13 0 0 1-.088-.03.11.11 0 0 1-.037-.075c-.021-.314.2-.866.502-1.258.3-.388.675-.673.82-.778a.123.123 0 0 1 .097-.02z"/><path fill-rule="evenodd" clip-rule="evenodd" d="M12 1c1.103 0 2 .897 2.001 2v2.985a1.374 1.374 0 0 0-.444-.2l-.141-.033-.165-.003h-.006a1.38 1.38 0 0 0-.744.228c-.014.009-.029.012-.042.021L12.456 6H1.5v4c0 .275.225.5.5.5h4.883c-.053.394-.073.8-.042 1.215.007.092.021.188.036.285H2c-1.103 0-2-.897-2-2V3c0-1.103.897-2 2-2h10zM2 2.5c-.275 0-.5.225-.5.5v1.5h11V3c0-.275-.225-.5-.5-.5H2z"/></g><defs><clipPath id="a"><path d="M0 0h16v16H0z"/></clipPath></defs></svg>