<!-- This Source Code Form is subject to the terms of the Mozilla Public
   - License, v. 2.0. If a copy of the MPL was not distributed with this
   - file, You can obtain one at http://mozilla.org/MPL/2.0/. -->
<svg xmlns="http://www.w3.org/2000/svg" width="16" height="16" fill="context-fill" fill-opacity="context-fill-opacity" viewBox="0 0 16 16">
    <path d="M13.27 7.005a.12.12 0 0 1 .077.06c.072.134.193.421.427.726.118.152.7.783.946 1.07.21.245.586.873.61 1.007-.095-.536-.236-.82-.28-.912-.011-.025-.026-.058.01-.089.027-.023.07-.008.09.01.722.656.893 1.573.845 2.575-.049 1.008-1.06 3.551-3.906 3.551L12.086 15c-2.704 0-3.91-2.21-3.998-3.379-.104-1.38.4-2.7 1.36-3.293a.12.12 0 0 1 .12 0 .12.12 0 0 1 .06.107c-.004.381.037.66.116.772.03-.024.082-.077.13-.126.164-.164.411-.411.651-.524a.12.12 0 0 1 .171.112c-.024.415-.01.717.038.79.156.235.7.597 1.028.773.154.082.257.091.278.112q.029.03.002.09c-.051.11-.26.373-.408.373h-.108c-.315.012-1.16.124-1.238.657-.033.225.091.554.32.809.38.421.936.654 1.508.634.797-.032 1.398-.569 1.536-1.283.14-.72-.295-1.324-.495-1.496a.12.12 0 0 1-.039-.134c.03-.1.173-.076.259-.052.097.027.364.12.41.187-.658-.99-1.577-.978-1.81-.963a.13.13 0 0 1-.088-.03.1.1 0 0 1-.037-.074c-.021-.314.2-.867.503-1.26.3-.387.674-.672.82-.776a.12.12 0 0 1 .095-.021" />
    <path fill-rule="evenodd" d="M2.208 1.246a46.7 46.7 0 0 1 9.564-.002A2.475 2.475 0 0 1 14 3.71v2.278a1.4 1.4 0 0 0-.444-.2l-.141-.033-.17-.003c-.267 0-.522.083-.745.228V5.5h-11v3.792c0 .503.38.922.883.974a45 45 0 0 0 4.5.233 6 6 0 0 0-.042 1.219c.007.09.021.187.036.282a47 47 0 0 1-4.648-.243A2.474 2.474 0 0 1 0 9.291v-5.58c0-1.274.95-2.333 2.208-2.465m9.41 1.491a45 45 0 0 0-9.254.002.97.97 0 0 0-.864.971V4h11v-.29a.98.98 0 0 0-.883-.973" clip-rule="evenodd" />
</svg>
