<!-- This Source Code Form is subject to the terms of the Mozilla Public
   - License, v. 2.0. If a copy of the MPL was not distributed with this
   - file, You can obtain one at http://mozilla.org/MPL/2.0/. -->
<svg xmlns="http://www.w3.org/2000/svg" width="16" height="16" fill="context-fill" fill-opacity="context-fill-opacity" viewBox="0 0 16 16">
    <path d="M3.039 13.041a10.5 10.5 0 0 1 1.922 0c1.047.092 1.878.929 2.011 1.958h-1.53a.74.74 0 0 0-.611-.463 9.3 9.3 0 0 0-1.663 0 .73.73 0 0 0-.613.464l-1.53-.001a2.22 2.22 0 0 1 2.014-1.958M10.64 13.041a10.5 10.5 0 0 1 1.923 0c1.046.092 1.876.929 2.009 1.958h-1.53a.73.73 0 0 0-.61-.463 9.3 9.3 0 0 0-1.663 0 .73.73 0 0 0-.614.464l-1.529-.001a2.22 2.22 0 0 1 2.013-1.958" />
    <path fill-rule="evenodd" d="M4 4.001q.436-.002.962.042C6.128 4.145 7 5.137 7 6.284v3.43c0 1.151-.868 2.14-2.039 2.243l.001.001a11 11 0 0 1-1.923 0c-1.167-.102-2.04-1.094-2.04-2.241v-3.43c0-1.151.869-2.14 2.04-2.243Q3.494 4.002 4 4m0 1.5q-.439 0-.828.036H3.17a.744.744 0 0 0-.67.75v3.43c0 .393.3.715.667.747a10 10 0 0 0 1.662 0h.002a.745.745 0 0 0 .67-.75v-3.43c0-.393-.3-.714-.668-.747A10 10 0 0 0 4 5.501M11.6 4.001q.436-.002.962.042c1.166.102 2.038 1.094 2.038 2.241v3.43c0 1.151-.868 2.14-2.039 2.243l.001.001a11 11 0 0 1-1.924 0C9.472 11.856 8.6 10.864 8.6 9.717v-3.43c0-1.151.868-2.14 2.038-2.243q.456-.042.962-.043m0 1.5q-.44 0-.828.036h-.002a.744.744 0 0 0-.67.75v3.43c0 .393.3.715.667.747a10 10 0 0 0 1.661 0h.002a.744.744 0 0 0 .67-.75v-3.43c0-.393-.3-.715-.667-.747a10 10 0 0 0-.833-.036" clip-rule="evenodd" />
    <path d="M5.445 1.001h1.53A2.22 2.22 0 0 1 4.96 2.959a11 11 0 0 1-1.923 0c-1.047-.092-1.877-.93-2.01-1.958h1.53a.74.74 0 0 0 .611.463 9 9 0 0 0 1.663 0A.73.73 0 0 0 5.445 1M12.945 1.001h1.53a2.22 2.22 0 0 1-2.014 1.958 11 11 0 0 1-1.923 0c-1.047-.092-1.877-.93-2.01-1.958h1.53a.74.74 0 0 0 .611.463 9 9 0 0 0 1.662 0A.73.73 0 0 0 12.946 1" />
</svg>
