<!-- This Source Code Form is subject to the terms of the Mozilla Public
   - License, v. 2.0. If a copy of the MPL was not distributed with this
   - file, You can obtain one at http://mozilla.org/MPL/2.0/. -->
<svg xmlns="http://www.w3.org/2000/svg" width="16" height="16" fill="context-fill" fill-opacity="context-fill-opacity" viewBox="0 0 16 16"><path d="M12.5 7h-9V5.5h9z"/><path fill-rule="evenodd" d="M14 2.5a2 2 0 0 1 2 2V11a2 2 0 0 1-2 2h-2.915a2 2 0 0 1-1.537-.72l-1.164-1.398a.5.5 0 0 0-.687-.078l-.082.078-1.163 1.397A2 2 0 0 1 4.915 13H2a2 2 0 0 1-2-2V4.5a2 2 0 0 1 2-2zM2 4a.5.5 0 0 0-.5.5V11a.5.5 0 0 0 .5.5h2.915a.5.5 0 0 0 .383-.18l1.165-1.398.157-.17a2 2 0 0 1 2.916.17l1.165 1.398a.5.5 0 0 0 .384.18H14a.5.5 0 0 0 .5-.5V4.5A.5.5 0 0 0 14 4z" clip-rule="evenodd"/></svg>