<!-- This Source Code Form is subject to the terms of the Mozilla Public
   - License, v. 2.0. If a copy of the MPL was not distributed with this
   - file, You can obtain one at http://mozilla.org/MPL/2.0/. -->
<svg xmlns="http://www.w3.org/2000/svg" width="16" height="16" fill="context-fill" fill-opacity="context-fill-opacity" viewBox="0 0 16 16">
    <path fill-rule="evenodd" d="M8 0a8 8 0 1 1 0 16A8 8 0 0 1 8 0m0 4a.75.75 0 0 0-.75.75v2.5h-2.5a.75.75 0 0 0 0 1.5h2.5v2.5a.75.75 0 0 0 1.5 0v-2.5h2.5a.75.75 0 0 0 0-1.5h-2.5v-2.5A.75.75 0 0 0 8 4" clip-rule="evenodd" />
</svg>
