<!-- This Source Code Form is subject to the terms of the Mozilla Public
   - License, v. 2.0. If a copy of the MPL was not distributed with this
   - file, You can obtain one at http://mozilla.org/MPL/2.0/. -->
<svg xmlns="http://www.w3.org/2000/svg" width="16" height="16" fill="context-fill" fill-opacity="context-fill-opacity" viewBox="0 0 16 16">
    <path d="M1.628 12.999a1.25 1.25 0 0 0 1.004.723 52.2 52.2 0 0 0 10.759-.002c.445-.046.804-.333.983-.72l1.576-.001a2.74 2.74 0 0 1-2.404 2.212A54 54 0 0 1 8 15.499c-1.838 0-3.696-.096-5.522-.285A2.75 2.75 0 0 1 .05 12.999z" />
    <path fill-rule="evenodd" d="M8 0c1.455 0 3.056.059 4.778.213l.745.072.258.04a2.76 2.76 0 0 1 2.22 2.7v5.95c0 1.399-1.05 2.59-2.455 2.737a53.6 53.6 0 0 1-11.068.003A2.76 2.76 0 0 1 0 8.975v-5.95C0 1.625 1.05.435 2.454.288A54 54 0 0 1 8 0m0 1.5c-1.945 0-3.75.11-5.39.28A1.246 1.246 0 0 0 1.5 3.025v5.95c0 .638.49 1.18 1.133 1.248a52 52 0 0 0 10.758-.003 1.247 1.247 0 0 0 1.11-1.245v-5.95c0-.638-.491-1.18-1.134-1.248A52 52 0 0 0 8 1.5" clip-rule="evenodd" />
</svg>
