<!-- This Source Code Form is subject to the terms of the Mozilla Public
   - License, v. 2.0. If a copy of the MPL was not distributed with this
   - file, You can obtain one at http://mozilla.org/MPL/2.0/. -->
<svg xmlns="http://www.w3.org/2000/svg" width="16" height="16" fill="context-fill" fill-opacity="context-fill-opacity" viewBox="0 0 16 16">
    <path fill-rule="evenodd" d="M10.5 4c2.577 0 4.75 1.97 4.75 4.5 0 1.188-.494 2.993-1.253 4.49-.383.757-.858 1.484-1.414 2.032-.55.542-1.256.978-2.083.978a4.85 4.85 0 0 1-2.062-.459 1.05 1.05 0 0 0-.876 0 4.85 4.85 0 0 1-2.062.46c-.827 0-1.532-.437-2.083-.98-.556-.547-1.03-1.274-1.414-2.03C1.244 11.493.75 9.688.75 8.5.75 5.97 2.923 4 5.5 4c.569 0 1.111.097 1.614.275l.219.067a2.63 2.63 0 0 0 1.553-.067l.19-.063A4.8 4.8 0 0 1 10.5 4m0 1.5c-.395 0-.769.069-1.115.19a4.14 4.14 0 0 1-2.769 0A3.3 3.3 0 0 0 5.5 5.5c-1.841 0-3.25 1.389-3.25 3 0 .884.402 2.454 1.09 3.813.341.672.728 1.245 1.129 1.64.406.4.754.547 1.031.547.514 0 .996-.116 1.427-.317l.128-.056a2.55 2.55 0 0 1 2.02.056c.43.201.91.317 1.425.317.277 0 .625-.148 1.031-.547.4-.395.788-.968 1.128-1.64.689-1.359 1.09-2.929 1.091-3.813 0-1.611-1.409-3-3.25-3" clip-rule="evenodd" />
    <path d="M7.63.631A2.2 2.2 0 0 1 9.827.096a.5.5 0 0 1 .328.328c.234.792.032 1.628-.535 2.195s-1.403.769-2.195.535a.5.5 0 0 1-.328-.328A2.2 2.2 0 0 1 7.63.63" />
</svg>
