<!-- This Source Code Form is subject to the terms of the Mozilla Public
   - License, v. 2.0. If a copy of the MPL was not distributed with this
   - file, You can obtain one at http://mozilla.org/MPL/2.0/. -->
<svg xmlns="http://www.w3.org/2000/svg" width="16" height="16" fill="context-fill" fill-opacity="context-fill-opacity" viewBox="0 0 16 16">
    <path fill-rule="evenodd" d="M.22 1.22a.75.75 0 0 1 1.06 0l1.113 1.11h.001L3.46 3.396v.001l9.163 9.164h.002l1.06 1.06h-.002l1.098 1.098a.75.75 0 0 1-1.06 1.06l-1.192-1.191c-1.755 1.21-4.014 1.74-6.393 1.2a7.9 7.9 0 0 1-5.549-4.755c-1.061-2.684-.609-5.452.838-7.549L.22 2.28a.75.75 0 0 1 0-1.06m2.292 3.352a6.4 6.4 0 0 0-.887 4.702c.607 3.062 3.454 5.317 6.574 5.223a6.45 6.45 0 0 0 3.248-.99l-3.13-3.13-.862.493a.97.97 0 0 1-1.45-.84V8.064z" clip-rule="evenodd" />
    <path d="M8.852.045C12.864.47 16 3.876 16 8a7.95 7.95 0 0 1-1.512 4.656l-1.07-1.07A6.46 6.46 0 0 0 14.5 8c0-3.365-2.571-6.14-5.851-6.468A.736.736 0 0 1 8 .792a.76.76 0 0 1 .852-.747" />
    <path d="M6.84 5.018a.94.94 0 0 1 .615.11l3.552 2.031a.968.968 0 0 1 0 1.682l-.218.125zM5.5 0a.5.5 0 0 1 .5.5v3.499c0 .05-.027.085-.04.129L1.873.04C1.916.028 1.952 0 2 0z" />
</svg>
