<!-- This Source Code Form is subject to the terms of the Mozilla Public
   - License, v. 2.0. If a copy of the MPL was not distributed with this
   - file, You can obtain one at http://mozilla.org/MPL/2.0/. -->
<svg xmlns="http://www.w3.org/2000/svg" width="16" height="16" fill="context-fill" fill-opacity="context-fill-opacity" viewBox="0 0 16 16">
    <path fill-rule="evenodd" d="M10.05 2a1.75 1.75 0 0 1 1.698 1.326l.878 3.524h.023A3.355 3.355 0 0 1 16 10.2a3.354 3.354 0 0 1-3.35 3.35 3.354 3.354 0 0 1-3.351-3.35c0-1.315.762-2.456 1.867-3.004l-.022-.089a11 11 0 0 0-2.755-.357c-1.2 0-2.206.2-2.94.406l-.138.33A3.348 3.348 0 0 1 3.35 13.55 3.353 3.353 0 0 1 0 10.2a3.354 3.354 0 0 1 3.93-3.3l.078-.185-.014-2.03a8 8 0 0 1-.601-.096.5.5 0 0 1-.393-.49V3.4a.5.5 0 0 1 .405-.492 8.1 8.1 0 0 1 2.825-.064c.443.068.77.457.77.906a.92.92 0 0 1-.787.91 8 8 0 0 1-.719.072l.006.86a12.4 12.4 0 0 1 2.889-.342c.622 0 1.427.05 2.348.228l-.445-1.789a.25.25 0 0 0-.242-.189h-.8a.75.75 0 0 1 0-1.5zM3.316 8.35A1.85 1.85 0 0 0 1.5 10.2c0 1.02.83 1.85 1.85 1.85s1.85-.83 1.85-1.85c0-.489-.192-.932-.503-1.263l-.657 1.555a.75.75 0 0 1-1.38-.584zm10.062 1.516a.75.75 0 0 1-1.456.364l-.377-1.512a1.848 1.848 0 0 0 1.104 3.332c1.02 0 1.85-.83 1.851-1.85 0-.897-.642-1.646-1.491-1.814z" clip-rule="evenodd" />
</svg>
