<!-- This Source Code Form is subject to the terms of the Mozilla Public
   - License, v. 2.0. If a copy of the MPL was not distributed with this
   - file, You can obtain one at http://mozilla.org/MPL/2.0/. -->
<svg xmlns="http://www.w3.org/2000/svg" width="16" height="16" fill="context-fill" fill-opacity="context-fill-opacity" viewBox="0 0 16 16">
    <path fill-rule="evenodd" d="M12.5 8c1.93 0 3.5 1.57 3.5 3.5S14.43 15 12.5 15 9 13.43 9 11.5 10.57 8 12.5 8m-1.085 5.47c.322.177.692.28 1.085.28a2.253 2.253 0 0 0 1.97-3.335zM12.5 9.25a2.252 2.252 0 0 0-1.97 3.335l3.055-3.055a2.24 2.24 0 0 0-1.085-.28" clip-rule="evenodd" />
    <path d="M2.415 1.264a40.2 40.2 0 0 1 9.147-.003A2.75 2.75 0 0 1 14 3.996v3.02a4.7 4.7 0 0 0-1.5-.266V4.5h-11v4.507c0 .634.47 1.167 1.09 1.238 1.3.15 2.619.235 3.92.252.452.005.906-.017 1.36-.027-.074.333-.12.676-.12 1.03v.002c0 .163.032.318.048.477-.268.005-.536.023-.803.023q-.253 0-.505-.004a40 40 0 0 1-4.073-.261A2.74 2.74 0 0 1 0 9.008V3.99a2.736 2.736 0 0 1 2.415-2.726" />
</svg>
