<!-- This Source Code Form is subject to the terms of the Mozilla Public
   - License, v. 2.0. If a copy of the MPL was not distributed with this
   - file, You can obtain one at http://mozilla.org/MPL/2.0/. -->
<svg xmlns="http://www.w3.org/2000/svg" width="16" height="16" fill="context-fill" fill-opacity="context-fill-opacity" viewBox="0 0 16 16">
    <path fill-rule="evenodd" d="M.22.22a.75.75 0 0 1 1.06 0l1.93 1.93h.003l1.393 1.394h-.002L15.78 14.72a.75.75 0 1 1-1.06 1.06l-3.194-3.193a2.72 2.72 0 0 1-1.91 1.184 28.7 28.7 0 0 1-7.2.003 2.76 2.76 0 0 1-2.415-2.732V4.958a2.76 2.76 0 0 1 1.46-2.436L.22 1.28a.75.75 0 0 1 0-1.06m2.356 3.497a1.244 1.244 0 0 0-1.075 1.24v6.084a1.26 1.26 0 0 0 1.103 1.244c2.246.284 4.567.284 6.82-.004.463-.059.839-.378.996-.8L2.647 3.707z" clip-rule="evenodd" />
    <path d="M4.867 2.036a29 29 0 0 1 4.718.189 2.77 2.77 0 0 1 2.3 1.949l.274-.273a2.22 2.22 0 0 1 2.452-.488A2.215 2.215 0 0 1 16 5.493v5.015c0 .726-.333 1.362-.884 1.78l-1.084-1.085.005-.002a.74.74 0 0 0 .463-.693V5.492a.74.74 0 0 0-.463-.693.74.74 0 0 0-.817.163l-1.439 1.44a.75.75 0 0 1-1.28-.53v-.914a1.26 1.26 0 0 0-1.104-1.244 27 27 0 0 0-3.056-.203z" />
</svg>
