<!-- This Source Code Form is subject to the terms of the Mozilla Public
   - License, v. 2.0. If a copy of the MPL was not distributed with this
   - file, You can obtain one at http://mozilla.org/MPL/2.0/. -->
<svg xmlns="http://www.w3.org/2000/svg" width="16" height="16" fill="context-fill" fill-opacity="context-fill-opacity" viewBox="0 0 16 16">
    <path d="M14.72 11.22a.75.75 0 0 1 1.06 1.06l-1.22 1.22 1.22 1.22a.75.75 0 0 1-1.06 1.06l-1.22-1.22-1.22 1.22a.75.75 0 1 1-1.06-1.06l1.22-1.22-1.22-1.22a.75.75 0 0 1 1.06-1.06l1.22 1.22z" />
    <path d="M2.415 2.264a40.2 40.2 0 0 1 9.147-.003A2.75 2.75 0 0 1 14 4.997V9h-1.5V6H7a1 1 0 0 1-1-1V3.513c-1.143.03-2.287.11-3.414.242A1.24 1.24 0 0 0 1.5 4.994v5.01c0 .638.478 1.173 1.11 1.245a39 39 0 0 0 6.39.193v1.5c-.667.034-1.334.058-2 .058a40 40 0 0 1-4.562-.261A2.75 2.75 0 0 1 0 10.004v-5.01a2.74 2.74 0 0 1 2.415-2.73" />
</svg>
