<!-- This Source Code Form is subject to the terms of the Mozilla Public
   - License, v. 2.0. If a copy of the MPL was not distributed with this
   - file, You can obtain one at http://mozilla.org/MPL/2.0/. -->
<svg xmlns="http://www.w3.org/2000/svg" width="16" height="16" fill="context-fill" fill-opacity="context-fill-opacity" viewBox="0 0 16 16">
    <path fill-rule="evenodd" d="M4.125 8.75c.324 0 .686.013 1.081.048A2.253 2.253 0 0 1 7.25 11.04v1.666a2.25 2.25 0 0 1-1.831 2.216l-.216.03a12 12 0 0 1-2.159 0A2.25 2.25 0 0 1 1 12.708v-1.666a2.25 2.25 0 0 1 2.047-2.245l.522-.035q.27-.013.556-.013m0 1.5q-.5.002-.945.042a.75.75 0 0 0-.68.751v1.666c0 .39.299.715.677.749l.497.032a11 11 0 0 0 1.396-.032l.14-.026a.75.75 0 0 0 .54-.725V11.04a.754.754 0 0 0-.54-.723l-.137-.026a11 11 0 0 0-.948-.042" clip-rule="evenodd" />
    <path d="M11.184 9.307c.225-.576 1.158-.576 1.383 0l.502 1.284 1.336.567a.75.75 0 0 1 .471.697c0 .31-.185.583-.472.697l-1.273.506-.563 1.344a.74.74 0 0 1-.691.474l-.002-.001a.74.74 0 0 1-.691-.473l-.502-1.284-1.336-.567a.75.75 0 0 1-.471-.697c0-.31.185-.583.472-.697l1.273-.506.062-.061z" />
    <path fill-rule="evenodd" d="M4.125 1c.324 0 .686.013 1.081.048A2.253 2.253 0 0 1 7.25 3.29v1.666a2.25 2.25 0 0 1-1.831 2.216l-.216.03a12 12 0 0 1-2.159 0A2.253 2.253 0 0 1 1 4.958V3.293a2.25 2.25 0 0 1 2.047-2.245l.522-.035Q3.84 1 4.125 1m0 1.5q-.5.002-.945.042a.75.75 0 0 0-.68.751v1.666c0 .39.299.715.677.749l.497.032a11 11 0 0 0 1.396-.032l.14-.026a.75.75 0 0 0 .54-.725V3.291a.754.754 0 0 0-.54-.723l-.137-.026q-.52-.043-.948-.042m7.75-1.5c.324 0 .686.013 1.081.048A2.253 2.253 0 0 1 15 3.29v1.666a2.25 2.25 0 0 1-1.831 2.216l-.216.03a12 12 0 0 1-2.16 0A2.253 2.253 0 0 1 8.75 4.958V3.293a2.25 2.25 0 0 1 2.047-2.245l.522-.035Q11.59 1 11.875 1m0 1.5q-.5.002-.945.042a.75.75 0 0 0-.68.751v1.666c0 .39.299.715.677.749l.497.032a11 11 0 0 0 1.396-.032l.14-.026a.75.75 0 0 0 .54-.725V3.291a.754.754 0 0 0-.54-.723l-.137-.026q-.52-.043-.948-.042" clip-rule="evenodd" />
</svg>
