<!-- This Source Code Form is subject to the terms of the Mozilla Public
   - License, v. 2.0. If a copy of the MPL was not distributed with this
   - file, You can obtain one at http://mozilla.org/MPL/2.0/. -->
<svg xmlns="http://www.w3.org/2000/svg" width="16" height="16" fill="context-fill" fill-opacity="context-fill-opacity" viewBox="0 0 16 16">
    <path d="M6.25 6.5a.75.75 0 0 1 .75.75v4.5a.75.75 0 0 1-1.5 0v-4.5a.75.75 0 0 1 .75-.75m3.5 0a.75.75 0 0 1 .75.75v4.5a.75.75 0 0 1-1.5 0v-4.5a.75.75 0 0 1 .75-.75" />
    <path fill-rule="evenodd" d="M8 0c.624 0 1.205.037 1.735.095 1.026.111 1.765.989 1.765 1.988v1.071a40 40 0 0 1 2.87.356.75.75 0 1 1-.24 1.48L14 4.97v8.072a2.754 2.754 0 0 1-2.415 2.731 28.5 28.5 0 0 1-7.2-.003C3.01 15.594 2 14.409 2 13.042V4.97l-.13.02a.75.75 0 1 1-.24-1.48 40 40 0 0 1 2.87-.357V2.085A2.01 2.01 0 0 1 6.292.091 16 16 0 0 1 8 0m0 4.5c-1.637 0-3.145.105-4.5.265v8.277c0 .63.467 1.162 1.074 1.24a27 27 0 0 0 6.823.003 1.255 1.255 0 0 0 1.103-1.243V4.764A39 39 0 0 0 8 4.5m0-3c-.46 0-.98.022-1.548.083A.51.51 0 0 0 6 2.085v.967a40 40 0 0 1 4-.001v-.968c0-.233-.15-.42-.342-.48l-.085-.017A15 15 0 0 0 8 1.5" clip-rule="evenodd" />
</svg>
