<!-- This Source Code Form is subject to the terms of the Mozilla Public
   - License, v. 2.0. If a copy of the MPL was not distributed with this
   - file, You can obtain one at http://mozilla.org/MPL/2.0/. -->
<svg xmlns="http://www.w3.org/2000/svg" width="16" height="16" fill="context-fill" fill-opacity="context-fill-opacity" viewBox="0 0 16 16">
    <path fill-rule="evenodd" d="M8.777.555a.75.75 0 1 1 1.446.392L10.21 1h.481c.93 0 1.799.47 2.306 1.251l.161.25h2.094a.75.75 0 0 1 .75.75v2A2.75 2.75 0 0 1 13.251 8h-.714l-.374 1.466v.001A5.2 5.2 0 0 0 12 10.763v3.45c0 .868-.642 1.615-1.507 1.736h-.002a5.5 5.5 0 0 1-1.463.002A1.76 1.76 0 0 1 7.5 14.213v-1.668a24 24 0 0 1-2 0v1.668c0 .868-.642 1.614-1.507 1.735h-.002a5.5 5.5 0 0 1-1.463.003A1.76 1.76 0 0 1 1 14.213V7.786A2.72 2.72 0 0 1-.001 5.667V3.75a.75.75 0 0 1 1.5 0v1.917c0 .795.735 1.391 1.531 1.22l.747-.172q.38-.093.773-.205l.759-.228a24 24 0 0 0 2.03-.75.24.24 0 0 0 .134-.163l.499-1.844V3.52zM7.235 7.192a25.6 25.6 0 0 1-3.891 1.163q-.431.088-.844.049v5.81c0 .12.089.232.23.251a3.8 3.8 0 0 0 1.055-.002l.043-.01a.26.26 0 0 0 .172-.24V11.77q0-.04.002-.077a.757.757 0 0 1 .806-.69c1.11.087 2.26.088 3.385 0a.76.76 0 0 1 .806.69 1 1 0 0 1 0 .09l.001.002v2.43c0 .12.089.232.23.251a3.8 3.8 0 0 0 1.055-.002l.043-.01a.26.26 0 0 0 .172-.24v-3.45c0-.547.066-1.092.198-1.623zM9.423 3.9l-.003.016-.5 1.844q-.076.282-.24.523l2.402 1.35.145-.57.042-.118a.75.75 0 0 1 .685-.446h1.297c.69 0 1.25-.56 1.25-1.25V4h-1.75a.75.75 0 0 1-.629-.34l-.384-.59a1.25 1.25 0 0 0-1.048-.57h-.887z" clip-rule="evenodd" />
</svg>
