<!-- This Source Code Form is subject to the terms of the Mozilla Public
   - License, v. 2.0. If a copy of the MPL was not distributed with this
   - file, You can obtain one at http://mozilla.org/MPL/2.0/. -->
<svg xmlns="http://www.w3.org/2000/svg" width="16" height="16" fill="context-fill" fill-opacity="context-fill-opacity" viewBox="0 0 16 16">
    <path d="M8 3a.75.75 0 0 1 .75.75v.333c.668.157 1.259.521 1.637 1.046a.75.75 0 0 1-1.217.877c-.191-.265-.612-.509-1.17-.509-.886 0-1.296.544-1.296.875 0 .155.075.341.25.505l.08.068.001.001c.264.204.594.262 1.2.32.596.056 1.21.266 1.692.643.494.386.869.97.869 1.714 0 1.195-.95 2.021-2.046 2.284v.343a.75.75 0 0 1-1.5 0v-.34c-.791-.185-1.48-.66-1.826-1.357a.75.75 0 0 1 1.344-.667c.146.295.588.612 1.232.612.886 0 1.296-.544 1.296-.875 0-.193-.087-.37-.294-.532-.22-.171-.547-.298-.91-.332-.559-.053-1.319-.121-1.972-.624-.527-.405-.916-1.034-.916-1.763 0-1.195.95-2.022 2.046-2.285V3.75A.75.75 0 0 1 8 3" />
    <path fill-rule="evenodd" d="M8 0a8 8 0 1 1 0 16A8 8 0 0 1 8 0m0 1.5a6.5 6.5 0 1 0 0 13 6.5 6.5 0 0 0 0-13" clip-rule="evenodd" />
</svg>
