<svg width="16" height="16" viewBox="0 0 16 16" fill="none" xmlns="http://www.w3.org/2000/svg">
<g clip-path="url(#clip0_22907_1045)">
<path d="M0.218751 7.50491C0.511751 7.21191 0.987274 7.21191 1.28027 7.50491L4.00293 10.2285C4.09589 10.3214 4.20539 10.3886 4.32031 10.4336L5.66211 11.7774C5.34416 11.9213 5.00408 12 4.66113 12C4.03822 12 3.41636 11.763 2.94238 11.2891L0.218751 8.56643C-0.0742341 8.27344 -0.0742038 7.79791 0.218751 7.50491Z" fill="black"/>
<path d="M14.7188 4.82717C15.0118 4.53417 15.4873 4.53417 15.7803 4.82717C16.073 5.12008 16.0729 5.59475 15.7803 5.88772L10.3789 11.2891C9.90494 11.763 9.28307 12 8.66113 12C8.03821 12 7.41636 11.763 6.94238 11.2891L4.21875 8.56643C3.92576 8.27344 3.92579 7.79791 4.21875 7.50491C4.51175 7.21191 4.98727 7.21191 5.28027 7.50491L8.00293 10.2285C8.36593 10.5903 8.95542 10.5924 9.31836 10.2285L14.7188 4.82717Z" fill="black"/>
<path d="M10.7188 4.82717C11.0118 4.53417 11.4873 4.53417 11.7803 4.82717C12.073 5.12008 12.0729 5.59474 11.7803 5.88772L8.60547 9.0635L7.54395 8.00198L10.7188 4.82717Z" fill="black"/>
</g>
<defs>
<clipPath id="clip0_22907_1045">
<rect width="16" height="16" fill="white"/>
</clipPath>
</defs>
</svg>
