<!-- This Source Code Form is subject to the terms of the Mozilla Public
   - License, v. 2.0. If a copy of the MPL was not distributed with this
   - file, You can obtain one at http://mozilla.org/MPL/2.0/. -->
<svg xmlns="http://www.w3.org/2000/svg" width="16" height="16" fill="context-fill" fill-opacity="context-fill-opacity" viewBox="0 0 16 16">
    <path d="M8.24 13.25c.863 0 1.69.264 2.392.763a2.6 2.6 0 0 0 1.522.487h.26a2.6 2.6 0 0 0 1.522-.487l.879-.625a.75.75 0 0 1 .87 1.224l-.88.625a4.1 4.1 0 0 1-2.392.764V16h-.26a4.1 4.1 0 0 1-2.39-.764 2.6 2.6 0 0 0-1.523-.486h-.48a2.6 2.6 0 0 0-1.522.486c-.703.5-1.53.764-2.393.764h-.26a4.1 4.1 0 0 1-2.392-.764l-.878-.624a.75.75 0 0 1 .87-1.224l.878.625c.447.318.973.487 1.522.487h.26c.55 0 1.076-.169 1.523-.487a4.1 4.1 0 0 1 2.392-.763z" />
    <path fill-rule="evenodd" d="M9.534.553a2.31 2.31 0 0 1 3.132.125l.657.656a2.31 2.31 0 0 1 .262 2.956l-.137.177a58 58 0 0 1-7.346 7.194A1.5 1.5 0 0 1 5.15 12h-2.4a.75.75 0 0 1-.75-.75v-2.4c0-.338.112-.678.34-.954A58 58 0 0 1 9.533.553m-.867 2.784a56 56 0 0 0-1.615 1.566l-.505.517a56 56 0 0 0-3.045 3.424v1.655h1.653a56 56 0 0 0 5.508-5.167zm2.939-1.599a.81.81 0 0 0-.972-.134l-.127.09q-.361.308-.728.633L11.67 4.22q.326-.366.636-.727l.089-.127a.81.81 0 0 0-.134-.972z" clip-rule="evenodd" />
</svg>
