<!-- This Source Code Form is subject to the terms of the Mozilla Public
   - License, v. 2.0. If a copy of the MPL was not distributed with this
   - file, You can obtain one at http://mozilla.org/MPL/2.0/. -->
<svg xmlns="http://www.w3.org/2000/svg" width="16" height="16" fill="context-fill" fill-opacity="context-fill-opacity" viewBox="0 0 16 16">
    <path fill-rule="evenodd" d="M2.545 1.766a2.606 2.606 0 0 1 3.537-.142l.588.508a68.5 68.5 0 0 1 7.958 8.218c.246.3.372.668.372 1.044v2.857a.75.75 0 0 1-.75.75h-2.857c-.376 0-.745-.125-1.044-.37a69 69 0 0 1-3.646-3.208l-.535-.51a68 68 0 0 1-4.544-4.83 2.606 2.606 0 0 1 .141-3.537zM4.63 7.203a67 67 0 0 0 5.67 5.431l1 .835a.14.14 0 0 0 .093.032H13.5v-2.107q-.001-.06-.03-.093h-.002a67 67 0 0 0-6.265-6.67zm.478-4.438a1.106 1.106 0 0 0-1.502.062l-.78.78a1.106 1.106 0 0 0-.062 1.502q.416.487.857.982l2.47-2.47q-.496-.44-.983-.856" clip-rule="evenodd" />
</svg>
