<!-- This Source Code Form is subject to the terms of the Mozilla Public
   - License, v. 2.0. If a copy of the MPL was not distributed with this
   - file, You can obtain one at http://mozilla.org/MPL/2.0/. -->
<svg xmlns="http://www.w3.org/2000/svg" width="16" height="16" fill="context-fill" fill-opacity="context-fill-opacity" viewBox="0 0 16 16">
    <g fill-rule="evenodd" clip-rule="evenodd">
        <path d="M11.107 6.791a1.705 1.705 0 0 1 1.922.008 10.7 10.7 0 0 0 1.936 1.053 1.7 1.7 0 0 1 1.007 1.873l-.238 1.281c-.12.646-.337 1.209-.645 1.675a6.84 6.84 0 0 1-2.162 2.085 1.7 1.7 0 0 1-.852.233c-.3 0-.6-.079-.867-.238a6.8 6.8 0 0 1-2.15-2.076c-.31-.47-.526-1.036-.646-1.684L8.172 9.7a1.7 1.7 0 0 1 1.002-1.875q.396-.164.821-.381c.382-.196.757-.416 1.112-.653m.958.96a.47.47 0 0 0-.265.082 13 13 0 0 1-2.146 1.149.446.446 0 0 0-.253.494l.24 1.3c.089.483.243.895.46 1.223a5.54 5.54 0 0 0 1.745 1.69.45.45 0 0 0 .225.061zm1.98 4.242v.003l.079-.129a2 2 0 0 1-.078.126" />
        <path d="M2.139 2.262a28.7 28.7 0 0 1 7.697-.003A2.51 2.51 0 0 1 12 4.741v.513a2.95 2.95 0 0 0-1.5.448v-.961c0-.05-.02-.093-.026-.14L7.762 6.86a2.75 2.75 0 0 1-3.522 0L1.525 4.6c-.007.046-.025.089-.025.137v3.522c0 .501.372.93.866.996a27 27 0 0 0 4.533.214q.004.228.044.458h.002l.19 1.034c-.378.015-.756.04-1.134.04-1.275 0-2.565-.088-3.835-.26A2.51 2.51 0 0 1 .001 8.259V4.737c0-1.244.919-2.308 2.138-2.475M6 3.5c-1.071 0-2.147.075-3.208.202L5.2 5.709a1.25 1.25 0 0 0 1.6 0l2.409-2.007A27 27 0 0 0 6 3.5" />
    </g>
</svg>
