<!-- This Source Code Form is subject to the terms of the Mozilla Public
   - License, v. 2.0. If a copy of the MPL was not distributed with this
   - file, You can obtain one at http://mozilla.org/MPL/2.0/. -->
<svg xmlns="http://www.w3.org/2000/svg" width="16" height="16" fill="context-fill" fill-opacity="context-fill-opacity" viewBox="0 0 16 16">
    <path fill-rule="evenodd" d="M8 2c1.455 0 3.056.059 4.777.213l.746.072.258.04A2.76 2.76 0 0 1 16 5.024v5.95c0 1.4-1.049 2.59-2.454 2.737a53.6 53.6 0 0 1-11.068.003A2.76 2.76 0 0 1 0 10.975v-5.95c0-1.4 1.049-2.59 2.454-2.737A54 54 0 0 1 8 2M1.5 5.025v5.95c0 .639.49 1.18 1.133 1.248a52 52 0 0 0 10.758-.003 1.246 1.246 0 0 0 1.109-1.245V5.17q-.182.187-.365.371a54 54 0 0 1-4.27 3.835A2.8 2.8 0 0 1 8.118 10 2.74 2.74 0 0 1 6.4 9.39a54 54 0 0 1-4.895-4.468 1 1 0 0 0-.005.103M8 3.5c-1.945 0-3.75.11-5.39.28a1 1 0 0 0-.109.016 52 52 0 0 0 4.84 4.427 1.256 1.256 0 0 0 1.582-.014 52 52 0 0 0 4.765-4.355 1.3 1.3 0 0 0-.32-.077A52 52 0 0 0 8 3.5" clip-rule="evenodd" />
</svg>
