<!-- This Source Code Form is subject to the terms of the Mozilla Public
   - License, v. 2.0. If a copy of the MPL was not distributed with this
   - file, You can obtain one at http://mozilla.org/MPL/2.0/. -->
<svg xmlns="http://www.w3.org/2000/svg" width="16" height="16" fill="context-fill" fill-opacity="context-fill-opacity" viewBox="0 0 16 16">
    <path fill-rule="evenodd" d="M12.33 9.203c.516-1.036.916-1.281 1.37-1.187.398.082.639.797.77 1.11.257.605.474 1.213.598 1.856.086.443.316.77.766.77l.003.001c.114.002.192.12.152.227-.096.257-.392.421-.64.516.113.03.445-.036.459.13.01.135-.336.271-.43.317-.872.42-1.674 1.174-2.707 1.04-.449-.058-.776-.375-1.144-.57a.6.6 0 0 0-.557 0c-.368.195-.695.512-1.144.57-1.032.134-1.835-.62-2.708-1.04-.093-.044-.44-.182-.428-.318.015-.166.346-.1.457-.129-.247-.095-.543-.259-.64-.516-.04-.107.038-.227.153-.227.452-.001.68-.327.767-.77.124-.644.34-1.25.596-1.856.132-.31.374-1.028.772-1.11.453-.094.855.15 1.371 1.187.425.853.712 1.451.712 1.451v.005l.292-.003h.154l.292.002v-.006c.004-.008.29-.6.713-1.45m-1.685 3.327c-.21-.674-1.075-.93-1.727-.82-.11.017-.412.124-.398.263.293.726 1.526 1.103 2.125.557m2.93-.82c-.652-.109-1.515.145-1.726.818.598.548 1.828.17 2.124-.555.013-.14-.29-.246-.399-.264" clip-rule="evenodd" />
    <path fill-rule="evenodd" d="M2.139 2.26a28.7 28.7 0 0 1 7.697-.002A2.514 2.514 0 0 1 12 4.74V7.1a4 4 0 0 0-.755.953 4 4 0 0 0-.745-.946V4.74a1 1 0 0 0-.013-.151L7.762 6.863a2.75 2.75 0 0 1-3.522 0L1.512 4.59q-.01.072-.011.148V8.26c0 .5.372.929.866.996 1.096.148 2.754.224 3.93.237a21 21 0 0 0-.44 1.49c-1.153-.02-2.61-.095-3.691-.242A2.514 2.514 0 0 1 .001 8.258V4.736c0-1.243.919-2.308 2.138-2.475M6 3.5a27 27 0 0 0-3.222.192L5.201 5.71a1.25 1.25 0 0 0 1.6 0l2.42-2.018A27 27 0 0 0 6 3.5" clip-rule="evenodd" />
</svg>
