<!-- This Source Code Form is subject to the terms of the Mozilla Public
   - License, v. 2.0. If a copy of the MPL was not distributed with this
   - file, You can obtain one at http://mozilla.org/MPL/2.0/. -->
<svg xmlns="http://www.w3.org/2000/svg" width="16" height="16" fill="context-fill" fill-opacity="context-fill-opacity" viewBox="0 0 16 16">
    <path d="M2.415 1.225c2.388-.301 4.825-.3 7.2.004A2.75 2.75 0 0 1 12 3.957V4.5h-1.5v-.542c0-.628-.462-1.16-1.075-1.239a27 27 0 0 0-6.822-.004A1.26 1.26 0 0 0 1.5 3.957v9.085c0 .63.462 1.162 1.075 1.24 2.252.288 4.563.29 6.822.004a1.26 1.26 0 0 0 1.103-1.244V12.5H12v.541a2.76 2.76 0 0 1-2.415 2.733 28.7 28.7 0 0 1-7.2-.003A2.75 2.75 0 0 1 0 13.04V3.957a2.76 2.76 0 0 1 2.415-2.731" />
    <path d="M12.53 5.972c0-.42.507-.63.804-.333l2.528 2.528a.47.47 0 0 1 0 .665l-2.528 2.529a.47.47 0 0 1-.804-.333V9.25H6.75a.75.75 0 0 1 0-1.5h5.78z" />
</svg>
