<!-- This Source Code Form is subject to the terms of the Mozilla Public
   - License, v. 2.0. If a copy of the MPL was not distributed with this
   - file, You can obtain one at http://mozilla.org/MPL/2.0/. -->
<svg xmlns="http://www.w3.org/2000/svg" width="16" height="16" fill="context-fill" fill-opacity="context-fill-opacity" viewBox="0 0 16 16">
    <path fill-rule="evenodd" d="M11.858 2.067a.75.75 0 0 1 .72.054l2.08 1.348a.75.75 0 0 1 .342.629v8.859a2.003 2.003 0 0 1-1.815 1.995 11 11 0 0 1-2.076-.004 1.93 1.93 0 0 1-1.032-.425 2 2 0 0 1-1.06.43 11 11 0 0 1-2.075-.005 1.93 1.93 0 0 1-1.03-.425c-.296.236-.66.391-1.06.43a11 11 0 0 1-2.076-.005c-1.034-.102-1.775-.993-1.775-1.988V4.1c0-.255.13-.491.343-.63L3.43 2.12l.095-.053a.75.75 0 0 1 .72.054L5.92 3.205 7.596 2.12l.095-.053a.75.75 0 0 1 .72.054l1.674 1.084 1.678-1.085zm-9.357 2.44v8.453a.49.49 0 0 0 .419.495 9.3 9.3 0 0 0 1.79.003.5.5 0 0 0 .457-.501V4.506l-1.331-.863zm4.166 0v8.453a.49.49 0 0 0 .419.495 9.3 9.3 0 0 0 1.79.003.5.5 0 0 0 .457-.501V4.506l-1.331-.863zm4.167 0v8.453a.49.49 0 0 0 .419.495 9.3 9.3 0 0 0 1.79.003.5.5 0 0 0 .457-.501V4.506l-1.331-.863z" clip-rule="evenodd" />
</svg>
