<!-- This Source Code Form is subject to the terms of the Mozilla Public
   - License, v. 2.0. If a copy of the MPL was not distributed with this
   - file, You can obtain one at http://mozilla.org/MPL/2.0/. -->
<svg xmlns="http://www.w3.org/2000/svg" width="16" height="16" fill="context-fill" fill-opacity="context-fill-opacity" viewBox="0 0 16 16">
    <path d="M7.389.221c2.86-.759 6.055.488 7.591 2.967 1.081 1.746 2.262 5.516-1.971 11.16l-.286.354a.73.73 0 0 1-.583.3.75.75 0 0 1-.75-.75c0-.16.061-.3.147-.423l.273-.382c3.7-4.93 2.776-8.05 1.896-9.47-1.196-1.93-3.69-2.899-5.932-2.305-2.141.568-3.54 2.457-3.74 5.053l-.004.025a.75.75 0 0 1-1.5 0l.006-.138C2.787 3.35 4.602.96 7.39.22" />
    <path d="M5.666 5.977c.296-1.84 2.175-3.067 4.184-2.751 2.012.324 3.407 2.084 3.11 3.925.004.147-.223 5.437-4.986 7.79l-.001-.001a.75.75 0 0 1-.59-1.378c3.893-1.983 4.082-6.359 4.088-6.554.174-1.12-.664-2.11-1.859-2.302-1.175-.19-2.262.461-2.455 1.455v1.14a3.084 3.084 0 0 1-3.08 3.08H1.75a.75.75 0 0 1 0-1.5h2.326a1.583 1.583 0 0 0 1.58-1.58z" />
    <path d="M9.25 6a.75.75 0 0 1 .75.75v.516a5.91 5.91 0 0 1-5.91 5.91H1.75a.751.751 0 0 1 0-1.502h2.34a4.41 4.41 0 0 0 4.41-4.41V6.75A.75.75 0 0 1 9.25 6" />
</svg>
