<!-- This Source Code Form is subject to the terms of the Mozilla Public
   - License, v. 2.0. If a copy of the MPL was not distributed with this
   - file, You can obtain one at http://mozilla.org/MPL/2.0/. -->
<svg xmlns="http://www.w3.org/2000/svg" width="16" height="16" fill="context-fill" fill-opacity="context-fill-opacity" viewBox="0 0 16 16">
    <path d="M1.22 1.22a.75.75 0 0 1 1.06 0l13.5 13.5a.75.75 0 1 1-1.06 1.06l-1.595-1.594-.116.16-.286.354a.73.73 0 0 1-.583.3.75.75 0 0 1-.75-.75c0-.16.061-.3.147-.423l.273-.381q.125-.168.243-.332l-.89-.89a8.5 8.5 0 0 1-3.191 2.716.75.75 0 0 1-.985-.394.75.75 0 0 1 .394-.985 7.04 7.04 0 0 0 2.705-2.414l-.901-.902a5.89 5.89 0 0 1-5.094 2.93H1.75a.75.75 0 0 1 0-1.5h2.34a4.39 4.39 0 0 0 3.982-2.542L7.047 8.108a3.084 3.084 0 0 1-2.97 2.272H1.75a.75.75 0 0 1 0-1.5h2.326c.871 0 1.58-.709 1.58-1.58l.004-.579-1.38-1.38a7 7 0 0 0-.246 1.384l-.003.025a.75.75 0 0 1-1.5 0l.006-.138c.069-.893.26-1.717.555-2.46L1.22 2.282a.75.75 0 0 1 0-1.061m6.169-1c2.86-.759 6.055.488 7.593 2.966.91 1.467 1.876 4.372-.352 8.613l-1.114-1.113c1.615-3.356.892-5.577.19-6.711-1.196-1.93-3.69-2.899-5.932-2.305a4.7 4.7 0 0 0-2.09 1.185L4.62 1.79A6.2 6.2 0 0 1 7.39.221" />
    <path d="M6.84 4.012a3.83 3.83 0 0 1 3.009-.788c2.01.324 3.407 2.084 3.111 3.925.002.062-.042 1.12-.495 2.487l-1.212-1.212c.188-.785.215-1.35.217-1.417.174-1.12-.664-2.11-1.859-2.302a2.35 2.35 0 0 0-1.71.368z" />
    <path d="M9.25 6a.75.75 0 0 1 .75.75v.421L8.916 6.087A.74.74 0 0 1 9.25 6" />
</svg>
