<!-- This Source Code Form is subject to the terms of the Mozilla Public
   - License, v. 2.0. If a copy of the MPL was not distributed with this
   - file, You can obtain one at http://mozilla.org/MPL/2.0/. -->
<svg xmlns="http://www.w3.org/2000/svg" width="16" height="16" fill="context-fill" fill-opacity="context-fill-opacity" viewBox="0 0 16 16">
    <path d="M5.309 1c.777 0 1.523.332 2.044.91l.147.164v2.22c-.017-.016-.04-.024-.057-.042L6.238 2.915a1.25 1.25 0 0 0-.93-.415H2.75c-.689 0-1.25.561-1.25 1.25v8.225c0 .644.487 1.181 1.132 1.248 3.555.37 7.195.37 10.759-.003a1.243 1.243 0 0 0 1.109-1.245v-5.95c0-.644-.487-1.181-1.132-1.248-.287-.03-.579-.042-.868-.067V3.205c.34.029.684.045 1.023.08A2.75 2.75 0 0 1 16 6.025v5.95a2.74 2.74 0 0 1-2.455 2.737A54 54 0 0 1 8 15.001c-1.838 0-3.696-.097-5.522-.286A2.75 2.75 0 0 1 0 11.975V3.75A2.75 2.75 0 0 1 2.75 1z" />
    <path d="M10 .015a.75.75 0 0 1 .75.75V7.53h1.778c.42 0 .63.509.333.805l-2.528 2.528a.47.47 0 0 1-.666 0L7.139 8.334a.471.471 0 0 1 .333-.804H9.25V.765a.75.75 0 0 1 .75-.75" />
</svg>
