<!-- This Source Code Form is subject to the terms of the Mozilla Public
   - License, v. 2.0. If a copy of the MPL was not distributed with this
   - file, You can obtain one at http://mozilla.org/MPL/2.0/. -->
<svg xmlns="http://www.w3.org/2000/svg" width="16" height="16" fill="context-fill" fill-opacity="context-fill-opacity" viewBox="0 0 16 16">
    <path fill-rule="evenodd" d="M6 0c.79 0 1.499.334 2 .866A2.74 2.74 0 0 1 10 0h.25A2.75 2.75 0 0 1 13 2.75c0 .499-.136.965-.368 1.368q.505.025 1 .055A1.996 1.996 0 0 1 15.5 6.17V7.25c0 .74-.403 1.383-1 1.73v4.041a2.755 2.755 0 0 1-2.414 2.733 34 34 0 0 1-8.14.004A2.76 2.76 0 0 1 1.5 13.024V8.98c-.597-.346-1-.99-1-1.729V6.172c0-1.054.824-1.937 1.88-2.001q.497-.029.987-.053A2.75 2.75 0 0 1 5.75 0zM3 13.024c0 .633.476 1.167 1.123 1.245l.9.095q1.056.1 2.227.127V9.25H3zM8.75 9.25v5.24a32 32 0 0 0 3.155-.225A1.255 1.255 0 0 0 13 13.02V9.25zm-1.5-3.745c-1.52.013-3.115.063-4.78.164a.506.506 0 0 0-.47.503V7.25a.5.5 0 0 0 .5.5h4.75zm1.5 2.245h4.75a.5.5 0 0 0 .5-.5V6.17a.496.496 0 0 0-.46-.5 91 91 0 0 0-4.79-.164zm-3-6.25a1.25 1.25 0 1 0 0 2.5h1.5V2.75c0-.69-.56-1.25-1.25-1.25zm4.25 0c-.69 0-1.25.56-1.25 1.25V4h1.5a1.25 1.25 0 1 0 0-2.5z" clip-rule="evenodd" />
</svg>
