<!-- This Source Code Form is subject to the terms of the Mozilla Public
   - License, v. 2.0. If a copy of the MPL was not distributed with this
   - file, You can obtain one at http://mozilla.org/MPL/2.0/. -->
<svg xmlns="http://www.w3.org/2000/svg" width="16" height="16" fill="context-fill" fill-opacity="context-fill-opacity" viewBox="0 0 16 16">
    <path fill-rule="evenodd" d="M11.8 2.002q.89.06 1.774.15c1.386.146 2.427 1.341 2.427 2.735L16 12.463a2.486 2.486 0 0 1-2.262 2.482h.001a14 14 0 0 1-2.48 0A2.49 2.49 0 0 1 9 12.467v-.908a9 9 0 0 0-2 0v.905a2.486 2.486 0 0 1-2.262 2.482h.001a14 14 0 0 1-2.48 0A2.49 2.49 0 0 1 0 12.467V4.888c0-1.394 1.04-2.59 2.426-2.735q.884-.091 1.774-.15A.75.75 0 1 1 4.298 3.5q-.85.054-1.695.142A1.246 1.246 0 0 0 1.5 4.888v3.361q.355-.155.76-.193a14 14 0 0 1 2.481-.001c1.118.1 2.002.938 2.211 1.998a10.4 10.4 0 0 1 2.095 0 2.48 2.48 0 0 1 2.214-1.997 14 14 0 0 1 2.48-.001c.269.024.524.093.76.195V4.887c0-.634-.473-1.178-1.103-1.244a46 46 0 0 0-1.696-.143.75.75 0 0 1-.702-.746c0-.434.367-.78.8-.752M3.5 9.5q-.586.001-1.104.049a.987.987 0 0 0-.896.988v1.929c0 .511.392.94.892.985l.58.038a12.5 12.5 0 0 0 1.633-.038.986.986 0 0 0 .895-.988v-1.929a.99.99 0 0 0-.8-.972l-.092-.013A13 13 0 0 0 3.5 9.5m9 0q-.587.001-1.104.049a.987.987 0 0 0-.896.988v1.929c0 .511.393.94.892.985l.58.038a12.5 12.5 0 0 0 1.633-.038.986.986 0 0 0 .895-.988v-1.929a.99.99 0 0 0-.8-.972l-.092-.013A13 13 0 0 0 12.5 9.5" clip-rule="evenodd" />
</svg>
