<!-- This Source Code Form is subject to the terms of the Mozilla Public
   - License, v. 2.0. If a copy of the MPL was not distributed with this
   - file, You can obtain one at http://mozilla.org/MPL/2.0/. -->
<svg xmlns="http://www.w3.org/2000/svg" width="16" height="16" fill="context-fill" fill-opacity="context-fill-opacity" viewBox="0 0 16 16">
    <path fill-rule="evenodd" d="M6.251 1c1.28.004 2.478.065 3.585.163a2.72 2.72 0 0 1 1.781.9l.158.175H13.5V2A.75.75 0 0 1 15 2v5.5a.75.75 0 0 1-1.5 0v-.503h-1.554l-1.101.648a.8.8 0 0 1-.212.085l-.14.029-.014 5.996A2.25 2.25 0 0 1 8.229 16H7.77a2.25 2.25 0 0 1-2.237-2.016l-.013-.23-.016-6.204-.945-.553H1.75a.75.75 0 0 1-.75-.75v-1.46c0-2.008 1.573-3.683 3.594-3.759l.817-.022q.414-.007.84-.005m.77 12.75.005.078a.75.75 0 0 0 .745.672h.458a.75.75 0 0 0 .75-.75l.013-5.777q-.22.016-.454.023L8.178 8a11 11 0 0 1-1.172-.075zM5.438 2.507l-.788.021C3.453 2.572 2.5 3.57 2.5 4.787v.71h2.263c.133 0 .264.035.379.102l1.18.69a9.1 9.1 0 0 0 3.868 0l1.171-.689a.75.75 0 0 1 .381-.103H13.5V3.738h-2.058a.75.75 0 0 1-.557-.248l-.382-.424a1.22 1.22 0 0 0-.799-.409 40 40 0 0 0-4.267-.151" clip-rule="evenodd" />
</svg>
