<!-- This Source Code Form is subject to the terms of the Mozilla Public
   - License, v. 2.0. If a copy of the MPL was not distributed with this
   - file, You can obtain one at http://mozilla.org/MPL/2.0/. -->
<svg xmlns="http://www.w3.org/2000/svg" width="16" height="16" fill="context-fill" fill-opacity="context-fill-opacity" viewBox="0 0 16 16">
    <path d="M10.25 10a.75.75 0 0 1 0 1.5h-4.5a.75.75 0 0 1 0-1.5zM4.125 7.5a.5.5 0 0 1 .5.5v.5a.5.5 0 0 1-.5.5h-.5a.5.5 0 0 1-.5-.5V8a.5.5 0 0 1 .5-.5zm2.75 0a.5.5 0 0 1 .5.5v.5a.5.5 0 0 1-.5.5h-.5a.5.5 0 0 1-.5-.5V8a.5.5 0 0 1 .5-.5zm2.75 0a.5.5 0 0 1 .5.5v.5a.5.5 0 0 1-.5.5h-.5a.5.5 0 0 1-.5-.5V8a.5.5 0 0 1 .5-.5zm2.75 0a.5.5 0 0 1 .5.5v.5a.5.5 0 0 1-.5.5h-.5a.5.5 0 0 1-.5-.5V8a.5.5 0 0 1 .5-.5zM4.125 5a.5.5 0 0 1 .5.5V6a.5.5 0 0 1-.5.5h-.5a.5.5 0 0 1-.5-.5v-.5a.5.5 0 0 1 .5-.5zm2.75 0a.5.5 0 0 1 .5.5V6a.5.5 0 0 1-.5.5h-.5a.5.5 0 0 1-.5-.5v-.5a.5.5 0 0 1 .5-.5zm2.75 0a.5.5 0 0 1 .5.5V6a.5.5 0 0 1-.5.5h-.5a.5.5 0 0 1-.5-.5v-.5a.5.5 0 0 1 .5-.5zm2.75 0a.5.5 0 0 1 .5.5V6a.5.5 0 0 1-.5.5h-.5a.5.5 0 0 1-.5-.5v-.5a.5.5 0 0 1 .5-.5z" />
    <path fill-rule="evenodd" d="M8 2.25c2.001 0 3.858.113 5.546.288A2.746 2.746 0 0 1 16 5.275v5.95a2.76 2.76 0 0 1-2.477 2.74 53.6 53.6 0 0 1-11.069-.003A2.746 2.746 0 0 1 0 11.225v-5.95a2.76 2.76 0 0 1 2.478-2.74A54 54 0 0 1 8 2.25m0 1.5c-1.617 0-3.418.074-5.368.276v.001A1.26 1.26 0 0 0 1.5 5.275v5.95c0 .644.481 1.179 1.11 1.245a52 52 0 0 0 10.757.003 1.26 1.26 0 0 0 1.133-1.248v-5.95c0-.644-.481-1.179-1.11-1.245-1.64-.17-3.445-.28-5.39-.28" clip-rule="evenodd" />
</svg>
