<!-- This Source Code Form is subject to the terms of the Mozilla Public
   - License, v. 2.0. If a copy of the MPL was not distributed with this
   - file, You can obtain one at http://mozilla.org/MPL/2.0/. -->
<svg xmlns="http://www.w3.org/2000/svg" width="16" height="16" fill="context-fill" fill-opacity="context-fill-opacity" viewBox="0 0 16 16">
    <path fill-rule="evenodd" d="M4.637 1.259a22 22 0 0 1 6.73 0 .75.75 0 0 1-.114 1.491h-.002a1 1 0 0 1-.115-.009L11 2.721v4.564c0 .187.07.367.196.505l3.024 3.325c1.28 1.407.347 3.661-1.553 3.763A84 84 0 0 1 8.144 15h-.13a83 83 0 0 1-4.686-.139c-1.891-.109-2.826-2.342-1.56-3.751l3.039-3.384a.75.75 0 0 0 .192-.501V2.722l-.133.02a.75.75 0 1 1-.229-1.482M9.5 2.555a21 21 0 0 0-3 0v4.957a1.5 1.5 0 0 1-.384 1.002l-1.56 1.736h6.85L9.89 8.584a1.5 1.5 0 0 1-.39-1.009z" clip-rule="evenodd" />
</svg>
