<!-- This Source Code Form is subject to the terms of the Mozilla Public
   - License, v. 2.0. If a copy of the MPL was not distributed with this
   - file, You can obtain one at http://mozilla.org/MPL/2.0/. -->
<svg xmlns="http://www.w3.org/2000/svg" width="16" height="16" fill="context-fill" fill-opacity="context-fill-opacity" viewBox="0 0 16 16">
    <path d="M1.077 10.383a.75.75 0 0 1 1.02-.288l5.29 2.962a1.26 1.26 0 0 0 1.223 0l5.256-2.941a.75.75 0 1 1 .732 1.308l-5.255 2.942a2.75 2.75 0 0 1-1.344.348 2.74 2.74 0 0 1-1.344-.348l-5.29-2.963a.75.75 0 0 1-.288-1.02" />
    <path fill-rule="evenodd" d="M6.656 2.348a2.76 2.76 0 0 1 2.688 0l4.632 2.595A1.98 1.98 0 0 1 15 6.688c0 .734-.384 1.387-1.024 1.745l-4.632 2.595A2.75 2.75 0 0 1 8 11.376a2.74 2.74 0 0 1-1.344-.348L2.022 8.433A1.98 1.98 0 0 1 1 6.688c0-.734.382-1.387 1.022-1.745zM8 3.499a1.26 1.26 0 0 0-.612.158L2.756 6.252a.5.5 0 0 0-.256.437c0 .088.025.307.256.437l4.632 2.595c.377.21.847.21 1.224 0l4.633-2.595c.23-.13.256-.35.256-.437a.49.49 0 0 0-.256-.437L8.612 3.657A1.26 1.26 0 0 0 8 3.5" clip-rule="evenodd" />
</svg>
