<!-- This Source Code Form is subject to the terms of the Mozilla Public
   - License, v. 2.0. If a copy of the MPL was not distributed with this
   - file, You can obtain one at http://mozilla.org/MPL/2.0/. -->
<svg xmlns="http://www.w3.org/2000/svg" width="16" height="16" fill="context-fill" fill-opacity="context-fill-opacity" viewBox="0 0 16 16">
    <path d="M2.962 7.824a2.38 2.38 0 0 1 3.366 0l-1.06 1.06a.88.88 0 0 0-1.246 0l-1.266 1.268a.89.89 0 0 0-.093 1.14v.002a12 12 0 0 0 3.044 3.043.894.894 0 0 0 1.141-.092l1.268-1.267a.88.88 0 0 0 0-1.245l1.06-1.06c.93.93.93 2.436 0 3.366L7.91 15.306a2.39 2.39 0 0 1-2.875.378l-.18-.114a13.5 13.5 0 0 1-3.422-3.423 2.39 2.39 0 0 1 .263-3.055z" />
    <path d="M10.203 5.737a.75.75 0 0 1 1.06 1.06l-4.465 4.467a.75.75 0 0 1-1.061-1.061z" />
    <path d="M9.091 1.695a2.39 2.39 0 0 1 3.057-.264 13.5 13.5 0 0 1 3.422 3.422l.113.181a2.39 2.39 0 0 1-.378 2.875L14.04 9.177a2.38 2.38 0 0 1-3.367 0l1.061-1.06a.88.88 0 0 0 1.245 0l1.267-1.269a.894.894 0 0 0 .092-1.141 12 12 0 0 0-3.043-3.043l-.001-.001a.89.89 0 0 0-1.141.093L8.884 4.022a.88.88 0 0 0 0 1.245l-1.06 1.061a2.38 2.38 0 0 1 0-3.366z" />
</svg>
