<!-- This Source Code Form is subject to the terms of the Mozilla Public
   - License, v. 2.0. If a copy of the MPL was not distributed with this
   - file, You can obtain one at http://mozilla.org/MPL/2.0/. -->
<svg xmlns="http://www.w3.org/2000/svg" width="16" height="16" fill="context-fill" fill-opacity="context-fill-opacity" viewBox="0 0 16 16">
    <path fill-rule="evenodd" d="M8 4.01a3 3 0 1 1 0 6 3 3 0 0 1 0-6m0 1.5a1.5 1.5 0 1 0 0 3 1.5 1.5 0 0 0 0-3" clip-rule="evenodd" />
    <path fill-rule="evenodd" d="M8 0c3.867 0 7 3.139 7 7.009 0 1.447-.876 3.06-1.857 4.447-1.01 1.426-2.247 2.773-3.182 3.72a2.75 2.75 0 0 1-3.922 0c-.935-.947-2.173-2.294-3.182-3.72C1.876 10.07 1 8.456 1 7.01 1 3.139 4.133 0 8 0m0 1.5a5.504 5.504 0 0 0-5.5 5.509c0 .938.613 2.212 1.582 3.58.941 1.332 2.115 2.613 3.024 3.534l.097.088a1.246 1.246 0 0 0 1.69-.088l.724-.754c.758-.811 1.595-1.781 2.301-2.78.969-1.368 1.582-2.642 1.582-3.58A5.504 5.504 0 0 0 8 1.5" clip-rule="evenodd" />
</svg>
