<!-- This Source Code Form is subject to the terms of the Mozilla Public
   - License, v. 2.0. If a copy of the MPL was not distributed with this
   - file, You can obtain one at http://mozilla.org/MPL/2.0/. -->
<svg xmlns="http://www.w3.org/2000/svg" width="16" height="16" fill="context-fill" fill-opacity="context-fill-opacity" viewBox="0 0 16 16">
    <path fill-rule="evenodd" d="M.22 1.48a.75.75 0 0 1 1.06 0l13.25 13.24a.749.749 0 0 1-.529 1.28v-.001a.75.75 0 0 1-.531-.22l-2.11-2.108c-.468.527-.94 1.032-1.398 1.496a2.74 2.74 0 0 1-1.96.823 2.74 2.74 0 0 1-1.962-.823c-2.299-2.328-5.039-5.634-5.039-8.162a6.9 6.9 0 0 1 .683-3.004L.22 2.538a.75.75 0 0 1 0-1.059m2.607 3.664A5.4 5.4 0 0 0 2.5 7.005c0 1.553 1.679 4.145 4.606 7.11a1.28 1.28 0 0 0 1.787 0c.51-.516.974-1.021 1.401-1.51L7.67 9.985a3.004 3.004 0 0 1-2.653-2.652z" clip-rule="evenodd" />
    <path d="M8 0c3.86 0 7 3.143 7 7.005 0 1.372-.81 2.974-1.917 4.524l-1.08-1.08c.962-1.389 1.497-2.58 1.497-3.444A5.51 5.51 0 0 0 8 1.5a5.47 5.47 0 0 0-3.6 1.352l-1.06-1.06A6.96 6.96 0 0 1 8 0" />
    <path d="M8 4.007c1.654 0 3 1.345 3 2.998 0 .685-.24 1.309-.628 1.814L9.297 7.745a1.5 1.5 0 0 0 .203-.74c0-.826-.673-1.499-1.5-1.499-.27 0-.521.077-.74.203L6.185 4.635A2.97 2.97 0 0 1 8 4.007" />
</svg>
