<!-- This Source Code Form is subject to the terms of the Mozilla Public
   - License, v. 2.0. If a copy of the MPL was not distributed with this
   - file, You can obtain one at http://mozilla.org/MPL/2.0/. -->
<svg xmlns="http://www.w3.org/2000/svg" width="16" height="16" fill-opacity="context-fill-opacity" viewBox="0 0 16 16">
    <path fill="context-fill" d="M5.5 4.44v1.683c.537-.047 1.076-.053 1.614-.07L8.58 7.518C8.386 7.514 8.192 7.5 8 7.5a27 27 0 0 0-3.396.214A1.26 1.26 0 0 0 3.5 8.958v4.084c0 .629.462 1.162 1.075 1.24 2.25.288 4.563.29 6.821.004a1.26 1.26 0 0 0 1.104-1.244V11.44l1.5 1.5v.102a2.76 2.76 0 0 1-2.415 2.732 28.7 28.7 0 0 1-7.2-.002A2.75 2.75 0 0 1 2 13.042V8.958c0-1.239.836-2.305 2-2.64V4c0-.325.05-.636.123-.938zM8 0c2.206 0 4 1.794 4 4v2.316c1.162.326 2 1.395 2 2.642v2.213l-1.5-1.5v-.713c0-.629-.462-1.162-1.075-1.24-.321-.041-.647-.064-.97-.093L8.881 6.053c.54.016 1.081.023 1.618.07V4c0-1.378-1.121-2.5-2.5-2.5-.992 0-1.843.585-2.247 1.424l-1.1-1.1A4 4 0 0 1 8 0" />
    <path fill="context-stroke" d="M.22.22a.75.75 0 0 1 1.06 0l14.5 14.5a.75.75 0 1 1-1.06 1.06L.22 1.28a.75.75 0 0 1 0-1.06" />
</svg>
