<!-- This Source Code Form is subject to the terms of the Mozilla Public
   - License, v. 2.0. If a copy of the MPL was not distributed with this
   - file, You can obtain one at http://mozilla.org/MPL/2.0/. -->
<svg xmlns="http://www.w3.org/2000/svg" width="16" height="16" fill="context-fill" fill-opacity="context-fill-opacity" viewBox="0 0 16 16">
    <path fill-rule="evenodd" d="M10 .5c.979 0 1.9.05 2.753.133l.831.093.254.045A2.75 2.75 0 0 1 16 3.458l.002 9.534c0 .515-.223 1.036-.66 1.377l-.002.001a3 3 0 0 1-4.824-2.677l.018-.15C10.767 10.019 12.17 9 13.629 9h.872V6h-9v6.992c0 .524-.232 1.047-.674 1.387a3.02 3.02 0 0 1-2.708.493 2.96 2.96 0 0 1-1.954-1.874l-.054-.18A3.005 3.005 0 0 1 3 8.998h1v-5.54A2.754 2.754 0 0 1 6.412.727 29 29 0 0 1 10 .5m3.628 10c-.795 0-1.46.536-1.6 1.207l-.02.136a1.5 1.5 0 0 0 2.411 1.342.25.25 0 0 0 .082-.193V10.5zM3 10.499c-.962 0-1.717.906-1.442 1.93.127.472.513.867.978 1.003a1.52 1.52 0 0 0 1.375-.242l.034-.033a.27.27 0 0 0 .054-.165V10.5zM10 2c-1.238 0-2.378.084-3.398.214a1.254 1.254 0 0 0-1.103 1.244V4.5h9V3.458c0-.631-.47-1.163-1.104-1.244A27 27 0 0 0 9.999 2" clip-rule="evenodd" />
</svg>
