<!-- This Source Code Form is subject to the terms of the Mozilla Public
   - License, v. 2.0. If a copy of the MPL was not distributed with this
   - file, You can obtain one at http://mozilla.org/MPL/2.0/. -->
<svg xmlns="http://www.w3.org/2000/svg" width="16" height="16" fill="context-fill" fill-opacity="context-fill-opacity" viewBox="0 0 16 16">
    <path fill-rule="evenodd" d="M8 1c1.354 0 2.888.068 4.562.26A2.76 2.76 0 0 1 15 3.998v8.009c0 1.38-1.024 2.57-2.414 2.731a40 40 0 0 1-9.148.002A2.76 2.76 0 0 1 1 12.003V3.994c0-1.38 1.024-2.57 2.414-2.731A40 40 0 0 1 8 1m3 5.65a1.25 1.25 0 0 1-1.857 1.092L8 7.107l-1.143.635A1.25 1.25 0 0 1 5 6.65V2.617q-.732.057-1.414.136A1.24 1.24 0 0 0 2.5 3.994v8.009c0 .635.48 1.174 1.11 1.246a38.5 38.5 0 0 0 8.805-.002 1.24 1.24 0 0 0 1.085-1.241V3.997c0-.635-.48-1.174-1.11-1.246q-.713-.082-1.39-.134zM8 2.5q-.77 0-1.5.03v3.695l.893-.496.144-.069a1.25 1.25 0 0 1 1.07.07l.893.495V2.532A39 39 0 0 0 8 2.5" clip-rule="evenodd" />
</svg>
