<!-- This Source Code Form is subject to the terms of the Mozilla Public
   - License, v. 2.0. If a copy of the MPL was not distributed with this
   - file, You can obtain one at http://mozilla.org/MPL/2.0/. -->
<svg xmlns="http://www.w3.org/2000/svg" width="16" height="16" fill="context-fill" fill-opacity="context-fill-opacity" viewBox="0 0 16 16">
    <path d="M14.12 10a.48.48 0 0 1 .339.819l-1.4 1.399 2.72 2.572a.683.683 0 0 1 0 1.003.77.77 0 0 1-.53.208.77.77 0 0 1-.53-.208l-2.69-2.545-1.209 1.21a.48.48 0 0 1-.819-.34V10.48a.48.48 0 0 1 .48-.48z" />
    <path d="M2.415.263A40.3 40.3 0 0 1 11.562.26 2.753 2.753 0 0 1 14 2.997V8.5h-1.5V2.997c0-.638-.476-1.174-1.11-1.246a38.6 38.6 0 0 0-8.804.002A1.24 1.24 0 0 0 1.5 2.993v8.01c0 .638.476 1.174 1.11 1.246a39 39 0 0 0 5.89.207v1.501C8 13.977 7.499 14 7 14c-1.52 0-3.054-.089-4.562-.262A2.75 2.75 0 0 1 0 11.003v-8.01A2.74 2.74 0 0 1 2.415.263" />
    <path d="M8 3a1 1 0 0 1 1 1v3a1 1 0 0 1-1 1H4a1 1 0 0 1-1-1V4a1 1 0 0 1 1-1z" />
</svg>
