<svg width="16" height="16" viewBox="0 0 16 16" fill="none" xmlns="http://www.w3.org/2000/svg">
<g clip-path="url(#clip0_22031_1029)">
<path d="M8 0C9.29492 0 10.5157 0.316296 11.5986 0.865234L10.4727 1.99121C9.70972 1.67627 8.87492 1.5 8 1.5C4.416 1.5 1.5 4.416 1.5 8C1.5 11.584 4.416 14.5 8 14.5C11.584 14.5 14.5 11.584 14.5 8C14.5 7.12409 14.3228 6.29028 14.0078 5.52734L15.1348 4.40137C15.6837 5.48432 16 6.70508 16 8C16 12.411 12.411 16 8 16C3.589 16 0 12.411 0 8C0 3.589 3.589 0 8 0Z" fill="black"/>
<path d="M6.68555 7.11621C7.29655 6.45821 12.0109 2.45348 12.6689 3.06348C13.3259 3.67533 9.67862 8.67071 9.06836 9.32812C8.45836 9.98513 7.42851 10.0241 6.77051 9.41309C6.11283 8.80216 6.07493 7.77415 6.68555 7.11621Z" fill="black"/>
</g>
<defs>
<clipPath id="clip0_22031_1029">
<rect width="16" height="16" fill="white"/>
</clipPath>
</defs>
</svg>
