<!-- This Source Code Form is subject to the terms of the Mozilla Public
   - License, v. 2.0. If a copy of the MPL was not distributed with this
   - file, You can obtain one at http://mozilla.org/MPL/2.0/. -->
<svg xmlns="http://www.w3.org/2000/svg" width="16" height="16" fill="context-fill" fill-opacity="context-fill-opacity" viewBox="0 0 16 16">
    <path fill-rule="evenodd" d="M.22.22a.75.75 0 0 1 1.06 0l14.5 14.5a.75.75 0 1 1-1.06 1.06l-1.992-1.991c-1.572.139-3.162.21-4.728.21-1.838 0-3.696-.096-5.522-.285A2.75 2.75 0 0 1 0 10.974v-3.95a2.74 2.74 0 0 1 2.454-2.737c.181-.018.364-.025.546-.042V4.06L.22 1.28a.75.75 0 0 1 0-1.06m4.342 5.402q-.98.057-1.953.158A1.243 1.243 0 0 0 1.5 7.025v3.95c0 .643.486 1.18 1.132 1.248 2.874.298 5.8.352 8.697.167z" clip-rule="evenodd" />
    <path d="M11 1.999c.327 0 .72.02 1.161.083.484.07.839.5.839.988v1.166q.263.023.523.05a2.75 2.75 0 0 1 2.478 2.74v3.95c0 .617-.209 1.183-.552 1.644l-1.09-1.09c.082-.17.142-.352.142-.554v-3.95c0-.644-.486-1.18-1.132-1.248a52 52 0 0 0-5.031-.27v.003L4.837 2.008c.056-.001.108-.006.165-.006.327 0 .72.019 1.161.083.485.07.839.5.839.988v.956A59 59 0 0 1 9 4.025v-.952a1 1 0 0 1 .86-.993A8 8 0 0 1 11 1.999" />
</svg>
