<!-- This Source Code Form is subject to the terms of the Mozilla Public
   - License, v. 2.0. If a copy of the MPL was not distributed with this
   - file, You can obtain one at http://mozilla.org/MPL/2.0/. -->
<svg xmlns="http://www.w3.org/2000/svg" width="16" height="16" fill="context-fill" fill-opacity="context-fill-opacity" viewBox="0 0 16 16">
    <circle cx="8" cy="8" r="8" />
    <path d="M14.112 8.67c-.6 0-.906-.435-1.021-1.026-.166-.856-.454-1.666-.796-2.474-.176-.415-.498-1.37-1.029-1.479-.604-.125-1.137.201-1.826 1.583-.567 1.14-.95 1.933-.95 1.933v.008l-.39-.004h-.195s-.01 0-.01.002l-.389.004v-.008s-.383-.796-.95-1.933C5.87 3.892 5.335 3.568 4.73 3.693c-.531.11-.853 1.066-1.029 1.48-.342.807-.63 1.615-.796 2.473-.114.591-.418 1.025-1.02 1.026-.155 0-.257.16-.204.303.128.343.523.562.853.689-.148.039-.59-.051-.61.171-.016.182.446.365.57.424 1.164.56 2.234 1.565 3.61 1.387.599-.078 1.035-.5 1.525-.76a.8.8 0 0 1 .742 0c.49.26.926.682 1.525.76 1.376.178 2.446-.827 3.61-1.387.124-.06.584-.242.57-.424-.018-.22-.46-.132-.61-.171.33-.127.725-.346.853-.69a.225.225 0 0 0-.203-.302zm-9.75.295c-.017-.185.386-.328.532-.351.869-.144 2.02.195 2.3 1.095-.797.727-2.44.226-2.831-.742zM8.8 9.71c.28-.9 1.431-1.24 2.3-1.095.146.023.55.166.532.351-.393.968-2.034 1.471-2.832.742z" />
    <path d="M14.112 8.67c-.6 0-.906-.435-1.021-1.026-.166-.856-.454-1.666-.796-2.474-.176-.415-.498-1.37-1.029-1.479-.604-.125-1.137.201-1.826 1.583-.567 1.14-.95 1.933-.95 1.933v.008l-.39-.004h-.195s-.01 0-.01.002l-.389.004v-.008s-.383-.796-.95-1.933C5.87 3.892 5.335 3.568 4.73 3.693c-.531.11-.853 1.066-1.029 1.48-.342.807-.63 1.615-.796 2.473-.114.591-.418 1.025-1.02 1.026-.155 0-.257.16-.204.303.128.343.523.562.853.689-.148.039-.59-.051-.61.171-.016.182.446.365.57.424 1.164.56 2.234 1.565 3.61 1.387.599-.078 1.035-.5 1.525-.76a.8.8 0 0 1 .742 0c.49.26.926.682 1.525.76 1.376.178 2.446-.827 3.61-1.387.124-.06.584-.242.57-.424-.018-.22-.46-.132-.61-.171.33-.127.725-.346.853-.69a.225.225 0 0 0-.203-.302zm-9.75.295c-.017-.185.386-.328.532-.351.869-.144 2.02.195 2.3 1.095-.797.727-2.44.226-2.831-.742zM8.8 9.71c.28-.9 1.431-1.24 2.3-1.095.146.023.55.166.532.351-.393.968-2.034 1.471-2.832.742z" />
</svg>
