<!-- This Source Code Form is subject to the terms of the Mozilla Public
   - License, v. 2.0. If a copy of the MPL was not distributed with this
   - file, You can obtain one at http://mozilla.org/MPL/2.0/. -->
<svg xmlns="http://www.w3.org/2000/svg" width="16" height="16" fill="context-fill" fill-opacity="context-fill-opacity" viewBox="0 0 16 16">
    <path d="M15.72 9.283c-.758 0-1.145-.556-1.29-1.312-.209-1.095-.573-2.13-1.005-3.163-.222-.531-.628-1.75-1.3-1.89-.762-.16-1.436.257-2.306 2.023-.716 1.456-1.2 2.472-1.2 2.472v.01l-.492-.005H7.88s-.012 0-.012.002l-.492.005v-.01s-.483-1.018-1.2-2.472C5.31 3.175 4.634 2.76 3.87 2.92c-.67.14-1.077 1.362-1.3 1.89-.43 1.034-.795 2.066-1.004 3.164-.145.756-.53 1.31-1.29 1.312-.195 0-.324.204-.257.386.162.44.661.719 1.078.881-.188.05-.746-.065-.771.22-.02.232.564.466.72.54 1.47.717 2.822 2.001 4.56 1.774.756-.1 1.308-.638 1.926-.973a.99.99 0 0 1 .938 0c.619.335 1.17.874 1.926.973 1.738.227 3.09-1.057 4.56-1.773.157-.078.738-.31.72-.541-.022-.282-.58-.17-.77-.22.416-.162.915-.442 1.077-.88.068-.183-.065-.385-.257-.387zM3.405 9.66c-.022-.237.487-.42.671-.449 1.098-.185 2.552.25 2.906 1.4-1.007.93-3.083.289-3.577-.949zm5.605.95c.355-1.15 1.809-1.584 2.906-1.399.185.03.694.212.671.449-.496 1.237-2.569 1.88-3.577.948z" />
</svg>
