<!-- This Source Code Form is subject to the terms of the Mozilla Public
   - License, v. 2.0. If a copy of the MPL was not distributed with this
   - file, You can obtain one at http://mozilla.org/MPL/2.0/. -->
<svg xmlns="http://www.w3.org/2000/svg" width="16" height="16" fill="context-fill" fill-opacity="context-fill-opacity" viewBox="0 0 16 16">
    <path d="M15 12.007a2.74 2.74 0 0 1-2.414 2.73c-.69.08-1.387.136-2.086.18v-1.505a38 38 0 0 0 1.914-.166 1.24 1.24 0 0 0 1.086-1.24V10.5H15zm-12.5-.004c0 .638.476 1.174 1.11 1.246.626.072 1.258.121 1.89.162v1.505a40 40 0 0 1-2.062-.177A2.753 2.753 0 0 1 1 12.003V10.5h1.5z" />
    <path d="M5.515 11.75a.25.25 0 0 1-.25.25h-1.1a.25.25 0 0 1-.25-.25v-1.1a.25.25 0 0 1 .25-.25h1.35zm3.2 0a.25.25 0 0 1-.25.25h-1.1a.25.25 0 0 1-.25-.25V10.4h1.6zm2.95-1.35a.25.25 0 0 1 .25.25v1.1a.25.25 0 0 1-.25.25h-1.1a.25.25 0 0 1-.25-.25V10.4zm-4.8-1.6a.25.25 0 0 1 .25.25v1.35h-1.6V9.05a.25.25 0 0 1 .25-.25zm3.45 1.6h-1.6V9.05a.25.25 0 0 1 .25-.25h1.35zm1.35-3.2a.25.25 0 0 1 .25.25v1.1a.25.25 0 0 1-.25.25h-1.35V7.2zM6.5 4a.75.75 0 0 1 .75.75V6.5a.75.75 0 0 1-.75.75H4.75A.75.75 0 0 1 4 6.5V4.75A.75.75 0 0 1 4.75 4zm3.815 3.2h-1.35a.25.25 0 0 1-.25-.25v-1.1a.25.25 0 0 1 .25-.25h1.35zm1.35-3.2a.25.25 0 0 1 .25.25v1.1a.25.25 0 0 1-.25.25h-1.35V4.25a.25.25 0 0 1 .25-.25zM5.5 2.588a39 39 0 0 0-1.914.166A1.24 1.24 0 0 0 2.5 3.994V5.5L1 5.499V3.993a2.74 2.74 0 0 1 2.414-2.73 39 39 0 0 1 2.086-.18zm5-1.503c.69.043 1.379.098 2.062.176A2.753 2.753 0 0 1 15 3.997V5.5h-1.5V3.997c0-.638-.476-1.174-1.11-1.246a38 38 0 0 0-1.89-.162z" />
</svg>
