<!-- This Source Code Form is subject to the terms of the Mozilla Public
   - License, v. 2.0. If a copy of the MPL was not distributed with this
   - file, You can obtain one at http://mozilla.org/MPL/2.0/. -->
<svg xmlns="http://www.w3.org/2000/svg" width="16" height="16" fill="context-fill" fill-opacity="context-fill-opacity" viewBox="0 0 16 16">
    <path d="M8.5 1C12.636 1 16 4.364 16 8.5S12.636 16 8.5 16a7.475 7.475 0 0 1-7.148-5.223.75.75 0 0 1 1.429-.455A5.98 5.98 0 0 0 8.499 14.5c3.31 0 6-2.691 6-6s-2.69-6-6-6a5.98 5.98 0 0 0-4.725 2.305l1.342 1.341A.5.5 0 0 1 4.762 7H1.264a.5.5 0 0 1-.5-.5V3.001a.5.5 0 0 1 .854-.354l1.086 1.088A7.48 7.48 0 0 1 8.5 1" />
    <path d="M8.535 5a.75.75 0 0 1 .75.75v2.663c0 .088.047.171.126.217l1.68.97a.75.75 0 0 1-.75 1.3L8.66 9.928l-.001-.001a1.75 1.75 0 0 1-.874-1.515V5.75a.75.75 0 0 1 .75-.75" />
</svg>
