<!-- This Source Code Form is subject to the terms of the Mozilla Public
   - License, v. 2.0. If a copy of the MPL was not distributed with this
   - file, You can obtain one at http://mozilla.org/MPL/2.0/. -->
<svg xmlns="http://www.w3.org/2000/svg" width="16" height="16" fill="context-fill" fill-opacity="context-fill-opacity" viewBox="0 0 16 16">
    <path d="M8.51 2a6.5 6.5 0 1 1-6.195 8.474.75.75 0 0 1 1.43-.455 5 5 0 1 0 1.33-5.15l1.278 1.277A.5.5 0 0 1 5.999 7H2.5a.5.5 0 0 1-.5-.5V3.001a.5.5 0 0 1 .854-.354l1.16 1.16A6.48 6.48 0 0 1 8.51 2" />
    <path d="M8.646 5a.75.75 0 0 1 .75.75v2.736c0 .041.021.077.055.097l1.608.929a.75.75 0 0 1-.75 1.298L8.7 9.884a1.61 1.61 0 0 1-.805-1.397V5.75a.75.75 0 0 1 .75-.75" />
</svg>
