<!-- This Source Code Form is subject to the terms of the Mozilla Public
   - License, v. 2.0. If a copy of the MPL was not distributed with this
   - file, You can obtain one at http://mozilla.org/MPL/2.0/. -->
<svg xmlns="http://www.w3.org/2000/svg" width="16" height="16" fill="context-fill" fill-opacity="context-fill-opacity" viewBox="0 0 16 16">
    <path d="M11.647.648a.5.5 0 0 1 .707 0l2.499 2.499a.5.5 0 0 1-.354.853H12.75v2.733c0 1.696-.975 3.196-2.454 4.025A3.03 3.03 0 0 0 8.75 13.4v1.85a.75.75 0 0 1-1.5 0V13.4c0-1.696.975-3.197 2.453-4.026a3.02 3.02 0 0 0 1.547-2.641V4H9.501a.5.5 0 0 1-.353-.853zM4.8 7.268a2.96 2.96 0 0 0 1.55 2.13c.22.12.42.25.59.38.03.02.03.051.01.07l-.84 1.12c-.01.01-.02.02-.03.02l-.01.002c-.01 0-.02 0-.03-.011a2.6 2.6 0 0 0-.39-.25c-.5-.27-.94-.62-1.31-1.05 0 0-.01 0-.01-.01a4.53 4.53 0 0 1-1.02-2.192l1.483-.258zM3.646.647a.5.5 0 0 1 .707 0l2.499 2.499a.5.5 0 0 1-.354.853H4.75v1.95h-1.5V4H1.501a.5.5 0 0 1-.353-.852z" />
</svg>
