<!-- This Source Code Form is subject to the terms of the Mozilla Public
   - License, v. 2.0. If a copy of the MPL was not distributed with this
   - file, You can obtain one at http://mozilla.org/MPL/2.0/. -->
<svg xmlns="http://www.w3.org/2000/svg" width="20" height="20" fill="context-fill" fill-opacity="context-fill-opacity" viewBox="0 0 20 20">
    <path fill-rule="evenodd" d="M5.5 3c.597 0 1.319.036 2.13.151l.25.048A2.76 2.76 0 0 1 10 5.88v8.244c0 1.395-1.038 2.537-2.394 2.729a15 15 0 0 1-3.645.069l-.592-.072A2.76 2.76 0 0 1 1 14.12V5.877C1 4.482 2.038 3.34 3.394 3.148 4.028 3.06 4.734 3 5.5 3m-.625 11.375a.625.625 0 0 0 0 1.25h1.25a.625.625 0 0 0 0-1.25zM5.5 4.5c-.69 0-1.326.053-1.897.134-.64.09-1.103.62-1.103 1.243V13h6V5.879a1.26 1.26 0 0 0-.967-1.22l-.114-.022A14 14 0 0 0 5.5 4.5" clip-rule="evenodd" />
    <path d="M13.705 7.622a.417.417 0 0 1 .711.295l.001-.001V9.25h2.833a.75.75 0 0 1 0 1.5h-2.833v1.331a.416.416 0 0 1-.71.295l-2.084-2.083a.416.416 0 0 1 0-.589z" />
</svg>
