<!-- This Source Code Form is subject to the terms of the Mozilla Public
   - License, v. 2.0. If a copy of the MPL was not distributed with this
   - file, You can obtain one at http://mozilla.org/MPL/2.0/. -->
<svg xmlns="http://www.w3.org/2000/svg" width="16" height="16" fill="context-fill" fill-opacity="context-fill-opacity" viewBox="0 0 16 16">
    <path fill-rule="evenodd" d="M4 2c.52 0 1.152.031 1.861.133l.226.043A2.49 2.49 0 0 1 8 4.595v6.812a2.49 2.49 0 0 1-1.935 2.421l-.225.042a13 13 0 0 1-3.185.06l-.516-.063A2.49 2.49 0 0 1 0 11.405V4.593C0 3.333.937 2.3 2.16 2.129A13 13 0 0 1 4 2m-.625 9.5a.625.625 0 0 0 0 1.25h1.25a.625.625 0 0 0 0-1.25zM4 3.5c-.593 0-1.139.045-1.63.114a.995.995 0 0 0-.87.979V10h5V4.595a.99.99 0 0 0-.85-.978A12 12 0 0 0 4 3.5" clip-rule="evenodd" />
    <path d="M11.705 5.622a.417.417 0 0 1 .711.295l.001-.001V7.25h2.833a.75.75 0 0 1 0 1.5h-2.833v1.331a.417.417 0 0 1-.71.295L9.622 8.293a.416.416 0 0 1 0-.589z" />
</svg>
