<svg width="16" height="16" viewBox="0 0 16 16" fill="none" xmlns="http://www.w3.org/2000/svg">
<path d="M7 2.50005C5.39691 2.50005 3.91858 2.59903 2.58594 2.75298C1.97247 2.82415 1.50006 3.35601 1.5 3.99419V12.003C1.5 12.6376 1.97988 13.1766 2.60938 13.2491C4.21967 13.4344 5.69621 13.5 7 13.5C8.60309 13.5 10.0814 13.4011 11.4141 13.2471C12.0276 13.1759 12.5 12.6441 12.5 12.0059V9.00005H14V12.0059C14 13.3856 12.9763 14.5764 11.5859 14.7374C10.2006 14.8974 8.66484 15 7 15C5.64586 15 4.11208 14.9319 2.43848 14.7393C1.05012 14.5797 0 13.3983 0 12.003V3.99419C6.03823e-05 2.61458 1.02375 1.4237 2.41406 1.26274C3.79937 1.10271 5.33516 1.00005 7 1.00005V2.50005Z" fill="black"/>
<path d="M12.5 1.22173C12.5004 0.8022 13.0078 0.592383 13.3037 0.888722L15.832 3.41704C16.016 3.60102 16.016 3.89905 15.832 4.08306L13.3037 6.61138C13.0067 6.90794 12.4992 6.69811 12.499 6.27837V4.50005H10.75C9.50904 4.50005 8.50007 5.51011 8.5 6.75005V9.75005C8.5 10.164 8.164 10.5 7.75 10.5C7.336 10.5 7 10.164 7 9.75005V6.75005C7.00007 4.68311 8.68204 3.00005 10.75 3.00005H12.5V1.22173Z" fill="black"/>
</svg>
