<!-- This Source Code Form is subject to the terms of the Mozilla Public
   - License, v. 2.0. If a copy of the MPL was not distributed with this
   - file, You can obtain one at http://mozilla.org/MPL/2.0/. -->
<svg xmlns="http://www.w3.org/2000/svg" width="16" height="16" fill="context-fill" fill-opacity="context-fill-opacity" viewBox="0 0 16 16">
    <path d="M7 2.5c-1.603 0-3.081.099-4.414.253A1.24 1.24 0 0 0 1.5 3.994v8.009c0 .635.48 1.174 1.11 1.246a38.4 38.4 0 0 0 8.804-.002 1.24 1.24 0 0 0 1.086-1.241V9H14v3.006c0 1.38-1.024 2.57-2.414 2.731a40 40 0 0 1-9.148.002A2.76 2.76 0 0 1 0 12.003V3.994c0-1.38 1.024-2.57 2.414-2.731A40 40 0 0 1 7 1z" />
    <path d="M12.5 1.222c0-.42.508-.63.804-.333l2.528 2.528a.47.47 0 0 1 0 .666l-2.528 2.528a.471.471 0 0 1-.805-.333V4.5H10.75A2.253 2.253 0 0 0 8.5 6.75v3a.75.75 0 0 1-1.5 0v-3A3.755 3.755 0 0 1 10.75 3h1.75z" />
</svg>
