<!-- This Source Code Form is subject to the terms of the Mozilla Public
   - License, v. 2.0. If a copy of the MPL was not distributed with this
   - file, You can obtain one at http://mozilla.org/MPL/2.0/. -->
<svg xmlns="http://www.w3.org/2000/svg" width="16" height="16" fill-opacity="context-fill-opacity" viewBox="0 0 16 16">
    <path fill="context-fill" d="M4.737 4.173c-.456.228-.921.452-1.397.65-.524.218-.826.797-.719 1.377l.446 2.424c.175.952.484 1.77.917 2.426.884 1.338 2.086 2.503 3.384 3.275.39.23.867.234 1.246.009 1.23-.728 2.36-1.81 3.23-3.054l1.072 1.07c-.97 1.326-2.198 2.482-3.535 3.274A2.7 2.7 0 0 1 8.005 16c-.484 0-.97-.13-1.402-.387-1.49-.885-2.864-2.213-3.87-3.737-.545-.826-.929-1.83-1.141-2.98L1.146 6.47c-.234-1.268.447-2.545 1.618-3.032.288-.12.564-.261.846-.393zM6.43 1.474a2.77 2.77 0 0 1 3.117.013 20.2 20.2 0 0 0 3.678 2.001 2.75 2.75 0 0 1 1.628 3.031l-.444 2.385a8.4 8.4 0 0 1-.796 2.378l-1.13-1.13c.194-.46.349-.964.452-1.522l.444-2.386a1.24 1.24 0 0 0-.73-1.372 22 22 0 0 1-2.08-1c-.63-.343-1.26-.73-1.87-1.149a1.26 1.26 0 0 0-.713-.222c-.25 0-.501.073-.722.22-.444.296-.904.574-1.371.84L4.789 2.457c.561-.306 1.114-.63 1.642-.983" />
    <path fill="context-stroke" d="M.72 1.22a.75.75 0 0 1 1.06 0l13.5 13.5a.75.75 0 1 1-1.06 1.06L.72 2.28a.75.75 0 0 1 0-1.06" />
</svg>
