<!-- This Source Code Form is subject to the terms of the Mozilla Public
   - License, v. 2.0. If a copy of the MPL was not distributed with this
   - file, You can obtain one at http://mozilla.org/MPL/2.0/. -->
<svg xmlns="http://www.w3.org/2000/svg" width="16" height="16" fill="context-fill" fill-opacity="context-fill-opacity" viewBox="0 0 16 16">
    <path d="M6.75 13a1 1 0 1 1 0 2 1 1 0 0 1 0-2M13 13a1 1 0 1 1 0 2 1 1 0 0 1 0-2" />
    <path fill-rule="evenodd" d="M1.824 1c1.243 0 2.336.84 2.656 2.04l.362 1.35a34 34 0 0 1 9.199-.144 2.22 2.22 0 0 1 1.571.964c.368.543.48 1.216.312 1.848l-.719 2.682a2.78 2.78 0 0 1-2.217 2.005 18.1 18.1 0 0 1-6.047 0 2.78 2.78 0 0 1-2.22-2.006L3.574 5.451l-.009-.031-.534-1.993A1.25 1.25 0 0 0 1.823 2.5H.75a.75.75 0 0 1 0-1.5zm12.034 4.735a32.5 32.5 0 0 0-8.627.114l.939 3.503c.126.472.527.83 1.021.915a16.6 16.6 0 0 0 5.544 0 1.26 1.26 0 0 0 1.02-.914l.719-2.682a.76.76 0 0 0-.105-.621.73.73 0 0 0-.51-.315" clip-rule="evenodd" />
</svg>
