<!-- This Source Code Form is subject to the terms of the Mozilla Public
   - License, v. 2.0. If a copy of the MPL was not distributed with this
   - file, You can obtain one at http://mozilla.org/MPL/2.0/. -->
<svg xmlns="http://www.w3.org/2000/svg" width="16" height="16" fill="context-fill" fill-opacity="context-fill-opacity" viewBox="0 0 16 16">
    <path d="M5 6a1 1 0 1 1 0 2 1 1 0 0 1 0-2" />
    <path fill-rule="evenodd" d="M7.288 3c.462 0 .908.183 1.237.513l4.665 4.664c.97.97 1.094 2.525.237 3.624a20.8 20.8 0 0 1-3.631 3.629 2.74 2.74 0 0 1-3.43-.068l-.188-.172-4.665-4.665A1.75 1.75 0 0 1 1 9.288V4.75C1 3.784 1.784 3 2.75 3zM2.75 4.5a.25.25 0 0 0-.25.25v4.538c0 .066.027.13.073.177l4.664 4.664a1.246 1.246 0 0 0 1.544.184l.093-.067a20 20 0 0 0 1.717-1.51l.463-.473c.446-.473.841-.938 1.19-1.385a1.243 1.243 0 0 0-.115-1.64L7.465 4.572h-.002a.25.25 0 0 0-.175-.073z" clip-rule="evenodd" />
    <path d="M8.903 0c.461 0 .91.187 1.237.513l4.64 4.64a.75.75 0 0 1-1.06 1.06l-4.64-4.64a.25.25 0 0 0-.177-.073H4.75a.75.75 0 0 1 0-1.5z" />
</svg>
