<!-- This Source Code Form is subject to the terms of the Mozilla Public
   - License, v. 2.0. If a copy of the MPL was not distributed with this
   - file, You can obtain one at http://mozilla.org/MPL/2.0/. -->
<svg xmlns="http://www.w3.org/2000/svg" width="16" height="16" fill="context-fill" fill-opacity="context-fill-opacity" viewBox="0 0 16 16">
    <path d="M6.803.016c.51.014.997.223 1.36.585l3.245 3.245c.374.374.585.882.586 1.412v.787q-.767.692-1.493 1.425V5.5h-3a1 1 0 0 1-1-1V1.513c-.165-.004-.344-.013-.5-.013-1.146 0-2.3.073-3.432.218-.615.079-1.068.619-1.068 1.24v10.083c0 .629.462 1.162 1.075 1.24 2.266.29 4.6.29 6.857 0 .034-.004.061-.023.094-.031h2.182a2.76 2.76 0 0 1-2.125 1.524 28.6 28.6 0 0 1-7.198-.002A2.75 2.75 0 0 1 0 13.042V2.97C0 1.603 1.114.388 2.47.219A29 29 0 0 1 6 0c.168 0 .49.008.803.016" />
    <path d="M5.454 8.986c.479.055.841.413.903.891.063.473.122.84.177 1.121.205-.194.469-.324.76-.365.19-.027.37.011.546.07-.054.182-.088.37-.088.562l-.001-.001v.898l-.17-.24a.11.11 0 0 0-.116-.052.13.13 0 0 0-.107.089c-.154.44-.367 1.04-.92 1.041H6.42c-.604-.017-.912-.53-1.176-2.1l-.363.967a1.63 1.63 0 0 1-1.52 1.054h-.237a.625.625 0 0 1 0-1.25h.236a.38.38 0 0 0 .352-.243l.67-1.787a1.016 1.016 0 0 1 1.072-.655m9.046.771q-.56.593-1.143 1.157a36 36 0 0 1-2.166 1.925.7.7 0 0 1-.454.161H9.252a.25.25 0 0 1-.25-.25v-1.485a.72.72 0 0 1 .161-.455 35 35 0 0 1 3.083-3.309zm-.908-3.466a1.22 1.22 0 0 1 1.648.066l.406.406h.002c.444.446.473 1.17.064 1.65-.174.203-.36.4-.54.6L12.99 6.832c.201-.18.398-.366.602-.54" />
</svg>
