<!-- This Source Code Form is subject to the terms of the Mozilla Public
   - License, v. 2.0. If a copy of the MPL was not distributed with this
   - file, You can obtain one at http://mozilla.org/MPL/2.0/. -->
<svg xmlns="http://www.w3.org/2000/svg" width="16" height="16" fill="context-fill" fill-opacity="context-fill-opacity" viewBox="0 0 16 16">
    <path d="M.22.22a.75.75 0 0 1 1.06 0l14.5 14.5a.75.75 0 1 1-1.06 1.06l-3.822-3.822a29 29 0 0 1-.898-.062v2.943a1.162 1.162 0 0 1-2.265.367l-.653-1.959a2 2 0 0 0-.225-.464L5.25 10.331v-4.02L4 5.06v4.902c0 .507-.378.927-.88.995a4.6 4.6 0 0 1-1.259-.002 1.006 1.006 0 0 1-.86-.993V3.037a1 1 0 0 1 .281-.694L.22 1.28a.75.75 0 0 1 0-1.06M9.216 3a37 37 0 0 1 3.157.144 2.01 2.01 0 0 1 1.569.971 16.5 16.5 0 0 1 2.028 5.506c.174.984-.417 1.89-1.31 2.208L5.971 3.142c1.01-.086 2.08-.146 3.244-.142" />
</svg>
