<!-- This Source Code Form is subject to the terms of the Mozilla Public
   - License, v. 2.0. If a copy of the MPL was not distributed with this
   - file, You can obtain one at http://mozilla.org/MPL/2.0/. -->
<svg xmlns="http://www.w3.org/2000/svg" width="16" height="16" fill="context-fill" fill-opacity="context-fill-opacity" viewBox="0 0 16 16">
    <path d="M12.831 5.974c.329 0 .602.213.705.507.135.485.214.992.214 1.519A5.756 5.756 0 0 1 8 13.75a5.7 5.7 0 0 1-1-.09v1.838a.5.5 0 0 1-.854.354l-2.499-2.499a.5.5 0 0 1 0-.707l2.499-2.499a.5.5 0 0 1 .854.354v1.625q.48.122 1 .124A4.254 4.254 0 0 0 12.25 8c0-.37-.032-.687-.125-1.028a.7.7 0 0 1-.049-.243c0-.417.338-.755.755-.755M9 .5a.5.5 0 0 1 .854-.353l2.499 2.5a.5.5 0 0 1 0 .706l-2.5 2.5A.5.5 0 0 1 9 5.497V3.874a4 4 0 0 0-.999-.124A4.254 4.254 0 0 0 3.751 8c0 .375.055.736.151 1.08L3.9 9.073c-.006-.021.025.105.025.194a.755.755 0 0 1-.755.755.75.75 0 0 1-.702-.493A5.7 5.7 0 0 1 2.25 8c0-3.171 2.58-5.75 5.75-5.75l.001-.001q.51.002.999.09z" />
</svg>
