<!-- This Source Code Form is subject to the terms of the Mozilla Public
   - License, v. 2.0. If a copy of the MPL was not distributed with this
   - file, You can obtain one at http://mozilla.org/MPL/2.0/. -->
<svg xmlns="http://www.w3.org/2000/svg" width="16" height="16" fill="context-fill" fill-opacity="context-fill-opacity" viewBox="0 0 16 16">
    <path fill-rule="evenodd" d="M9.5 3c1.3 0 2.683.037 4.137.127h-.001A2.51 2.51 0 0 1 16 5.626v5.748c0 1.245-.906 2.28-2.107 2.472l-.245.026a67 67 0 0 1-8.285.002A2.51 2.51 0 0 1 3 11.375V5.627a2.503 2.503 0 0 1 2.352-2.498A67 67 0 0 1 9.5 3m0 1.5c-1.42 0-2.774.046-4.056.125A1.003 1.003 0 0 0 4.5 5.627v5.748c0 .492.364.911.855.99l.101.01a65 65 0 0 0 8.099-.001c.534-.033.945-.47.945-1.001V7h-4a1 1 0 0 1-1-1z" clip-rule="evenodd" />
    <path d="M8 0c.201 0-.229.005.262.01.41.004.738.337.738.747a.744.744 0 0 1-.745.747 99 99 0 0 0-5.81.144 1 1 0 0 0-.945 1V8.5a.75.75 0 1 1-1.5 0V2.646A2.504 2.504 0 0 1 2.379.15 107 107 0 0 1 8 0" />
</svg>
