<!-- This Source Code Form is subject to the terms of the Mozilla Public
   - License, v. 2.0. If a copy of the MPL was not distributed with this
   - file, You can obtain one at http://mozilla.org/MPL/2.0/. -->
<svg xmlns="http://www.w3.org/2000/svg" width="16" height="16" fill="context-fill" fill-opacity="context-fill-opacity" viewBox="0 0 16 16">
    <path d="M4 8.999c.497 0 1.047.02 1.643.075C6.41 9.144 7 9.8 7 10.571v2.86c0 .765-.573 1.422-1.335 1.492a18 18 0 0 1-3.308.002A1.504 1.504 0 0 1 1 13.428v-2.86c0-.765.573-1.422 1.335-1.492A18 18 0 0 1 4 9m8-.001c.497 0 1.047.02 1.643.075.768.07 1.357.726 1.357 1.497v2.86c0 .765-.573 1.422-1.335 1.492a18 18 0 0 1-3.308.002A1.504 1.504 0 0 1 9 13.428v-2.86c0-.765.573-1.422 1.335-1.492A18 18 0 0 1 12 9M4 .999c.497 0 1.047.02 1.643.075C6.41 1.144 7 1.8 7 2.571v2.86c0 .765-.573 1.422-1.335 1.492a18 18 0 0 1-3.308.002A1.504 1.504 0 0 1 1 5.428v-2.86c0-.765.573-1.422 1.335-1.492A18 18 0 0 1 4 1m8-.001c.497 0 1.047.02 1.643.075C14.41 1.144 15 1.8 15 2.571v2.86c0 .765-.573 1.422-1.335 1.492a18 18 0 0 1-3.308.002A1.504 1.504 0 0 1 9 5.428v-2.86c0-.765.573-1.422 1.335-1.492A18 18 0 0 1 12 1" />
</svg>
