<!-- This Source Code Form is subject to the terms of the Mozilla Public
   - License, v. 2.0. If a copy of the MPL was not distributed with this
   - file, You can obtain one at http://mozilla.org/MPL/2.0/. -->
<svg xmlns="http://www.w3.org/2000/svg" width="16" height="16" fill="context-fill" fill-opacity="context-fill-opacity" viewBox="0 0 16 16">
    <path d="M5 8.253a1.25 1.25 0 1 1 0 2.5 1.25 1.25 0 0 1 0-2.5" />
    <path fill-rule="evenodd" d="M.22.223a.75.75 0 0 1 1.06 0l14.5 14.5a.75.75 0 0 1-1.06 1.06l-1.638-1.637A7.96 7.96 0 0 1 8 16.003c-4.411 0-8-3.59-8-8a7.96 7.96 0 0 1 1.842-5.098L.22 1.283a.75.75 0 0 1 0-1.06m2.69 3.75a6.45 6.45 0 0 0-1.41 4.03c0 3.584 2.916 6.5 6.5 6.5 1.49 0 2.895-.527 4.018-1.422l-1.343-1.343a1 1 0 0 1-1.411-1.411z" clip-rule="evenodd" />
    <path d="M8 0c.446 0 .902.042 1.394.129a.75.75 0 0 1 .619.771 2 2 0 0 1-.014.137C10 2.467 11.09 3.74 12.534 3.965a.75.75 0 0 1 .549.393l.281.536a.75.75 0 0 1-.005.706C13.121 6.039 13 6.51 13 7c0 1.27.815 2.404 2.03 2.822a.75.75 0 0 1 .459.97 8 8 0 0 1-.611 1.257l-1.098-1.098.024-.04c-.064-.036-.121-.08-.183-.119l-1.451-1.45a4.45 4.45 0 0 1-.67-2.34c0-.573.108-1.128.322-1.655a4.47 4.47 0 0 1-3.293-3.82A6 6 0 0 0 8 1.503a6.45 6.45 0 0 0-2.953.717v-.003l-1.1-1.1A7.94 7.94 0 0 1 8 0" />
</svg>
