<!-- This Source Code Form is subject to the terms of the Mozilla Public
   - License, v. 2.0. If a copy of the MPL was not distributed with this
   - file, You can obtain one at http://mozilla.org/MPL/2.0/. -->
<svg xmlns="http://www.w3.org/2000/svg" width="20" height="20" fill="context-fill" fill-opacity="context-fill-opacity" viewBox="0 0 20 20">
    <path fill-rule="evenodd" d="M7 2.002a.75.75 0 0 1 .75.75v.75l.044.02c1.484.028 2.977.14 4.445.329a.742.742 0 0 1 0 1.484l-1.225-.132-.43 1.213a12.4 12.4 0 0 1-2.54 4.185 10.8 10.8 0 0 0 3.263 2.2c.005 0 .009.008.01.01l1.848-4.353a.75.75 0 0 1 .69-.457h.83a.75.75 0 0 1 .69.457l3.186 7.509.023.063q.009.027.015.055.02.083.02.173a.742.742 0 0 1-1.418.3l-.003.003-.892-2.057h-4.08l-.832 1.952-.037.09a.75.75 0 1 1-1.383-.575l.756-1.783a12.3 12.3 0 0 1-3.77-2.543 12.3 12.3 0 0 1-2.928 1.848.742.742 0 0 1-1.036-.68c0-.291.172-.538.417-.659l.052-.03a10.8 10.8 0 0 0 2.497-1.585 12.4 12.4 0 0 1-1.978-3.553l-.172-.483h1.594c.38 1.066.942 2.07 1.636 2.97a10.9 10.9 0 0 0 2.125-3.557l.3-.84a39 39 0 0 0-7.619.252l-.062.006a.74.74 0 0 1-.002-1.481 41 41 0 0 1 4.502-.334l-.036-.017v-.75a.75.75 0 0 1 .75-.75M12.866 13h2.806L14.27 9.694z" clip-rule="evenodd" />
</svg>
