<!-- This Source Code Form is subject to the terms of the Mozilla Public
   - License, v. 2.0. If a copy of the MPL was not distributed with this
   - file, You can obtain one at http://mozilla.org/MPL/2.0/. -->
<svg xmlns="http://www.w3.org/2000/svg" width="16" height="16" fill="context-fill" fill-opacity="context-fill-opacity" viewBox="0 0 16 16">
    <path fill-rule="evenodd" d="M5.442.5a.75.75 0 0 1 .75.75v.762a23.5 23.5 0 0 1 4.213.504.75.75 0 0 1-.31 1.467q-.428-.09-.86-.164l-.21.595A12.4 12.4 0 0 1 6.485 8.6a10.9 10.9 0 0 0 2.745 1.957l1.315-3.097a.75.75 0 0 1 .69-.457h.829a.75.75 0 0 1 .69.457l3.187 7.509.023.063.015.055q.02.083.02.173a.742.742 0 0 1-1.418.3l-.892-2.058h-4.08l-.832 1.952-.037.09a.75.75 0 1 1-1.383-.575L8.64 11.94a12.4 12.4 0 0 1-3.24-2.3 12.3 12.3 0 0 1-2.926 1.85.743.743 0 0 1-1.038-.68c0-.292.172-.539.417-.66l.053-.03a10.8 10.8 0 0 0 2.497-1.585 13 13 0 0 1-.462-.626l-.072-.102a12.4 12.4 0 0 1-1.437-2.808H4.05a11.2 11.2 0 0 0 1.434 2.47A10.9 10.9 0 0 0 7.61 3.913l.105-.299a22.2 22.2 0 0 0-6.81.37.75.75 0 1 1-.312-1.467 23.5 23.5 0 0 1 4.099-.5V1.25a.75.75 0 0 1 .75-.75M10.246 12h2.806L11.65 8.694z" clip-rule="evenodd" />
</svg>
