<!-- This Source Code Form is subject to the terms of the Mozilla Public
   - License, v. 2.0. If a copy of the MPL was not distributed with this
   - file, You can obtain one at http://mozilla.org/MPL/2.0/. -->
<svg xmlns="http://www.w3.org/2000/svg" width="16" height="16" fill="context-fill" fill-opacity="context-fill-opacity" viewBox="0 0 16 16">
    <path d="M1.5 9.782c0 2.264 1.674 4.175 3.895 4.457l.033.005h.013l.04.006c.38.048.756.08 1.131.11l.21.016.222.022q.21.024.42.037a33 33 0 0 0 2.036.066c.189 0 .556-.008.91-.018q.099-.003.198-.017h.001a36 36 0 0 0 1.956-.121 3 3 0 0 1-2.181 1.412 31 31 0 0 1-2.902.213c-.038.003-.074.014-.11.014a36 36 0 0 1-.871.017q-.97 0-1.941-.062c-.206-.013-.41-.04-.615-.057-.424-.035-.85-.066-1.27-.118l-.02-.005-.07-.007A2.976 2.976 0 0 1 0 12.796v-6.59c0-1.1.6-2.072 1.5-2.588zm10.855-1.964h-1.449l.725-1.698z" />
    <path fill-rule="evenodd" d="M10.37.018c.038 0 .075.011.111.014a31 31 0 0 1 2.902.213A2.99 2.99 0 0 1 16 3.205l-.001.003-.007 3.295L16 9.798a2.99 2.99 0 0 1-2.617 2.96 31 31 0 0 1-2.902.213c-.037.003-.074.014-.11.014a36 36 0 0 1-.871.017q-.97 0-1.941-.062c-.206-.013-.41-.04-.615-.057-.424-.035-.85-.066-1.27-.118l-.02-.005-.07-.007a2.976 2.976 0 0 1-2.585-2.956V3.206A2.974 2.974 0 0 1 5.583.25l.07-.007.022-.005c.423-.053.852-.084 1.28-.119.2-.016.4-.043.604-.056A31 31 0 0 1 9.5 0c.182 0 .532.008.87.017M8.006 2.002a.51.51 0 0 0-.512.509v.257c-.703.028-1.405.099-2.089.244a.514.514 0 1 0 .217 1.006 11.6 11.6 0 0 1 3.316-.198l-.04.113a5.4 5.4 0 0 1-.97 1.67 5.5 5.5 0 0 1-.498-.846H6.31a6.5 6.5 0 0 0 .88 1.573q-.54.436-1.177.724l-.022.012a.503.503 0 0 0 .428.913 6.5 6.5 0 0 0 1.454-.896 6.5 6.5 0 0 0 1.846 1.224l-.421.988a.506.506 0 0 0 .47.706.51.51 0 0 0 .474-.315l.416-.973H12.6l.427.984a.509.509 0 0 0 .958-.32h.001l-1.67-3.94a.51.51 0 0 0-.472-.31h-.428a.51.51 0 0 0-.473.31l-.823 1.932a5.4 5.4 0 0 1-1.509-.995 6.5 6.5 0 0 0 1.254-2.1l.114-.319c.131.023.266.034.396.062a.52.52 0 0 0 .611-.395.514.514 0 0 0-.396-.61 12.5 12.5 0 0 0-2.072-.243V2.51A.513.513 0 0 0 8.006 2" clip-rule="evenodd" />
</svg>
