<!-- This Source Code Form is subject to the terms of the Mozilla Public
   - License, v. 2.0. If a copy of the MPL was not distributed with this
   - file, You can obtain one at http://mozilla.org/MPL/2.0/. -->
<svg xmlns="http://www.w3.org/2000/svg" width="24" height="24" fill="none" viewBox="0 0 24 24">
    <path fill="#000" d="M6.51 9.655a.78.78 0 0 1 .892-.645c3.055.364 6.142.364 9.197 0a.778.778 0 1 1 .248 1.537 40 40 0 0 1-3.276.25v2.538l1.07 4a.785.785 0 0 1-1.517.397l-.943-3.524a.19.19 0 0 0-.18-.126.19.19 0 0 0-.179.126l-.943 3.52a.784.784 0 1 1-1.519-.395l1.069-3.988h.002V10.8a40 40 0 0 1-3.277-.251.78.78 0 0 1-.643-.894M12 5.438a1.561 1.561 0 1 1 0 3.123 1.561 1.561 0 0 1 0-3.123" />
    <path fill="#000" fill-rule="evenodd" d="M12 2c5.523 0 10 4.477 10 10s-4.477 10-10 10S2 17.523 2 12 6.477 2 12 2m0 1.75a8.25 8.25 0 1 0 0 16.5 8.25 8.25 0 0 0 0-16.5" clip-rule="evenodd" />
</svg>
