<!-- This Source Code Form is subject to the terms of the Mozilla Public
   - License, v. 2.0. If a copy of the MPL was not distributed with this
   - file, You can obtain one at http://mozilla.org/MPL/2.0/. -->
<svg width="24" height="24" fill="none" xmlns="http://www.w3.org/2000/svg"><path fill-rule="evenodd" clip-rule="evenodd" d="M6.25 4.5A.75.75 0 0 1 7 3.75h10a.75.75 0 0 1 .75.75V5h1.75v-.5A2.5 2.5 0 0 0 17 2H7a2.5 2.5 0 0 0-2.5 2.5v15A2.5 2.5 0 0 0 7 22h10a2.5 2.5 0 0 0 2.5-2.5v-6h-1.75V17H6.25V4.5zM10 20.25h4v-1.5h-4v1.5z" fill="#000"/><path d="M13 13.5h-2v2h2v-2zM11 10.25h2v2h-2v-2zM16.25 13.5h-2v2h2v-2zM7.75 13.5h2v2h-2v-2zM15.53 7.483a.75.75 0 0 0-1.28.53V11.5c0 .414.336.75.75.75h3.487a.75.75 0 0 0 .53-1.28l-1.125-1.125L22 5.738 20.762 4.5l-4.107 4.108-1.125-1.125z" fill="#000"/></svg>
