<!-- This Source Code Form is subject to the terms of the Mozilla Public
   - License, v. 2.0. If a copy of the MPL was not distributed with this
   - file, You can obtain one at http://mozilla.org/MPL/2.0/. -->
<svg xmlns="http://www.w3.org/2000/svg" width="24" height="24" fill="none" viewBox="0 0 24 24">
    <path fill="#000" fill-rule="evenodd" d="M6.589 2.398a30.6 30.6 0 0 1 9.78-.008 3.11 3.11 0 0 1 2.298 1.704L17.25 5.51v-.033c0-.678-.488-1.25-1.161-1.359a28.8 28.8 0 0 0-9.218.006c-.64.105-1.12.685-1.121 1.352V16.25h11.5V13.5H19v5.024c0 1.54-1.09 2.834-2.589 3.078a30.6 30.6 0 0 1-9.78.007A3.12 3.12 0 0 1 4 18.52V5.477c0-1.54 1.09-2.835 2.589-3.078M10.25 18a.75.75 0 0 0 0 1.5h2.5a.75.75 0 0 0 0-1.5z" clip-rule="evenodd" />
    <path fill="#000" d="M8.75 13a.5.5 0 0 1 .5.5v1a.5.5 0 0 1-.5.5h-1a.5.5 0 0 1-.5-.5v-1a.5.5 0 0 1 .5-.5zM12 13a.5.5 0 0 1 .5.5v1a.5.5 0 0 1-.5.5h-1a.5.5 0 0 1-.5-.5v-1a.5.5 0 0 1 .5-.5zm3.25 0a.5.5 0 0 1 .5.5v1a.5.5 0 0 1-.5.5h-1a.5.5 0 0 1-.5-.5v-1a.5.5 0 0 1 .5-.5zm4.256-7.743a.875.875 0 1 1 1.238 1.238l-3.101 3.1 1.124 1.125a.75.75 0 0 1-.53 1.28H14.75a.75.75 0 0 1-.75-.75V7.763a.75.75 0 0 1 1.28-.53l1.124 1.124zM12 9.75a.5.5 0 0 1 .5.5v1a.5.5 0 0 1-.5.5h-1a.5.5 0 0 1-.5-.5v-1a.5.5 0 0 1 .5-.5z" />
</svg>
