<svg width="24" height="24" viewBox="0 0 24 24" fill="none" xmlns="http://www.w3.org/2000/svg">
<path d="M19.125 16C19.608 16 20 16.392 20 16.875C20 17.358 19.608 17.75 19.125 17.75H4.875C4.392 17.75 4 17.358 4 16.875C4 16.392 4.392 16 4.875 16H19.125Z" fill="black"/>
<path d="M19.125 11C19.608 11 20 11.392 20 11.875C20 12.358 19.608 12.75 19.125 12.75H4.875C4.392 12.75 4 12.358 4 11.875C4 11.392 4.392 11 4.875 11H19.125Z" fill="black"/>
<path d="M19.125 6C19.608 6 20 6.392 20 6.875C20 7.358 19.608 7.75 19.125 7.75H4.875C4.392 7.75 4 7.358 4 6.875C4 6.392 4.392 6 4.875 6H19.125Z" fill="black"/>
</svg>
