<svg width="24" height="24" viewBox="0 0 24 24" fill="none" xmlns="http://www.w3.org/2000/svg">
<path d="M15.124 4.99971C15.608 4.99972 16 5.39367 16 5.87666C15.9987 6.35939 15.6078 6.75166 15.125 6.75166H7.98828L18.7441 17.5075C19.0858 17.8485 19.0858 18.4019 18.7441 18.7439C18.4032 19.0858 17.8488 19.0858 17.5068 18.7439L6.75098 7.98799V15.1267C6.74966 15.6094 6.35878 16.0017 5.87598 16.0017C5.63402 16.0017 5.41583 15.9018 5.25684 15.7439C5.09801 15.5859 5.00003 15.3665 5 15.1247V7.62471C5.00012 6.92403 5.27286 6.26509 5.76855 5.76924C6.26455 5.27325 6.92399 4.99972 7.62598 4.99971H15.124Z" fill="black"/>
</svg>
