<svg width="24" height="24" viewBox="0 0 24 24" fill="none" xmlns="http://www.w3.org/2000/svg">
<path d="M17.5068 5.25569C17.8478 4.91369 18.4021 4.91369 18.7441 5.25569C19.0858 5.59663 19.0858 6.15106 18.7441 6.493L7.98828 17.2498H15.126C15.609 17.2508 16.001 17.6418 16.001 18.1248C16.0008 18.3665 15.9019 18.5841 15.7441 18.743C15.5861 18.902 15.367 19.0008 15.125 19.0008H7.625C6.924 19.0008 6.26455 18.7273 5.76855 18.2313C5.27283 17.7354 5.00012 17.0765 5 16.3748V8.87581C5 8.39182 5.39299 7.99984 5.87598 7.99983C6.35898 8.00083 6.75098 8.39183 6.75098 8.87483V16.0116L17.5068 5.25569Z" fill="black"/>
</svg>
