<svg width="24" height="24" viewBox="0 0 24 24" fill="none" xmlns="http://www.w3.org/2000/svg">
<path d="M16.3755 4.9998C17.0762 4.99993 17.7351 5.27263 18.231 5.76836C18.727 6.26435 19.0005 6.92379 19.0005 7.62578V15.1238C19.0005 15.6078 18.6066 15.9998 18.1236 15.9998C17.6408 15.9985 17.2486 15.6076 17.2486 15.1248V7.98808L6.49271 18.7439C6.15177 19.0856 5.59832 19.0856 5.25638 18.7439C4.91438 18.4029 4.91438 17.8486 5.25638 17.5066L16.0122 6.75078H8.87357C8.39078 6.74952 7.99857 6.35862 7.99857 5.87578C7.99857 5.63379 8.09838 5.41563 8.25638 5.25664C8.41436 5.09779 8.63365 4.9998 8.87552 4.9998H16.3755Z" fill="black"/>
</svg>
