<!-- This Source Code Form is subject to the terms of the Mozilla Public
   - License, v. 2.0. If a copy of the MPL was not distributed with this
   - file, You can obtain one at http://mozilla.org/MPL/2.0/. -->
<svg xmlns="http://www.w3.org/2000/svg" width="24" height="24" fill="none" viewBox="0 0 24 24">
    <path fill="#000" d="M21.25 6a.75.75 0 0 1 .75.75v4.541a.75.75 0 0 1-1.285.526l-1.62-1.648-5.922 5.924a.877.877 0 0 1-1.238 0L8.805 12.96l-5.566 5.566L2 17.29l6.186-6.185.064-.058a.875.875 0 0 1 1.173.057l3.13 3.131 5.315-5.314-1.615-1.645A.75.75 0 0 1 16.788 6z" />
</svg>
