<!-- This Source Code Form is subject to the terms of the Mozilla Public
   - License, v. 2.0. If a copy of the MPL was not distributed with this
   - file, You can obtain one at http://mozilla.org/MPL/2.0/. -->
<svg xmlns="http://www.w3.org/2000/svg" width="24" height="24" fill="none" viewBox="0 0 24 24">
    <path fill="#000" d="M10.927 2.186A.629.629 0 0 1 12 2.63v2.387q.25-.015.501-.015c5.246 0 9.397 4.778 8.332 10.209-.649 3.308-3.316 5.975-6.626 6.623a8.517 8.517 0 0 1-10.15-7.35.883.883 0 0 1 .874-.983.86.86 0 0 1 .861.749 6.76 6.76 0 0 0 6.808 6c3.58-.052 6.598-3.067 6.65-6.648.056-3.768-2.993-6.851-6.749-6.851q-.252.001-.5.02v2.6a.63.63 0 0 1-1.074.445l-3.37-3.37a.63.63 0 0 1 0-.889z" />
</svg>
