<!-- This Source Code Form is subject to the terms of the Mozilla Public
   - License, v. 2.0. If a copy of the MPL was not distributed with this
   - file, You can obtain one at http://mozilla.org/MPL/2.0/. -->
<svg width="24" height="24" viewBox="0 0 24 24" fill="none" xmlns="http://www.w3.org/2000/svg">
    <path d="M11 9.246V6.69834C11.326 6.65003 11.6599 6.625 12 6.625C15.7278 6.625 18.75 9.64725 18.75 13.375C18.75 17.1028 15.7278 20.125 12 20.125C8.27225 20.125 5.25 17.1028 5.25 13.375H3.5C3.5 18.0692 7.30575 21.875 12 21.875C16.6942 21.875 20.5 18.0692 20.5 13.375C20.5 8.68075 16.6942 4.875 12 4.875C11.6619 4.875 11.3282 4.89475 11 4.93321V2.505C11 1.945 10.323 1.66399 9.92704 2.061L6.55704 5.431C6.31204 5.677 6.31204 6.075 6.55704 6.31999L9.92704 9.68999C10.323 10.086 11 9.80599 11 9.246Z" fill="black" />
</svg>
