<!-- This Source Code Form is subject to the terms of the Mozilla Public
   - License, v. 2.0. If a copy of the MPL was not distributed with this
   - file, You can obtain one at http://mozilla.org/MPL/2.0/. -->
<svg xmlns="http://www.w3.org/2000/svg" width="24" height="24" fill="none" viewBox="0 0 24 24">
    <path fill="#000" d="M21.25 6a.75.75 0 0 1 .75.75v4.541a.75.75 0 0 1-1.285.526l-1.584-1.612-3.908 3.91c-1.089 1.085-2.981 1.086-4.066 0l-.921-.92a1.13 1.13 0 0 0-1.592 0l-4.15 4.15a.874.874 0 1 1-1.238-1.239l4.15-4.15a2.884 2.884 0 0 1 4.067 0l.92.92a1.15 1.15 0 0 0 1.592 0l3.919-3.92-1.65-1.68A.75.75 0 0 1 16.787 6z" />
</svg>
