<svg width="24" height="25" viewBox="0 0 24 25" fill="none" xmlns="http://www.w3.org/2000/svg">
<path d="M11 10.121V7.57334C11.326 7.52503 11.6599 7.5 12 7.5C15.7278 7.5 18.75 10.5222 18.75 14.25C18.75 17.9778 15.7278 21 12 21C8.27225 21 5.25 17.9778 5.25 14.25H3.5C3.5 18.9442 7.30575 22.75 12 22.75C16.6942 22.75 20.5 18.9442 20.5 14.25C20.5 9.55575 16.6942 5.75 12 5.75C11.6619 5.75 11.3282 5.76975 11 5.80821V3.38C11 2.82 10.323 2.53899 9.92704 2.936L6.55704 6.306C6.31204 6.552 6.31204 6.95 6.55704 7.19499L9.92704 10.565C10.323 10.961 11 10.681 11 10.121Z" fill="black"/>
</svg>
