<!-- This Source Code Form is subject to the terms of the Mozilla Public
   - License, v. 2.0. If a copy of the MPL was not distributed with this
   - file, You can obtain one at http://mozilla.org/MPL/2.0/. -->
<svg xmlns="http://www.w3.org/2000/svg" width="24" height="24" fill="none" viewBox="0 0 24 24">
    <path fill="#000" d="M11.366 4.024A7.98 7.98 0 0 1 17.802 6.5l1.631-1.629a.624.624 0 0 1 1.067.442v4.374c0 .345-.28.625-.625.625H15.5a.625.625 0 0 1-.442-1.067l1.504-1.505a6.22 6.22 0 0 0-4.561-1.992 6.257 6.257 0 0 0-6.204 7.018c.324 2.704 2.458 4.95 5.145 5.394a6.26 6.26 0 0 0 7.001-4.233c.117-.359.428-.617.805-.617h.073c.56 0 .97.547.803 1.082-1.02 3.244-4.048 5.606-7.624 5.606-4.49 0-8.126-3.716-7.997-8.233.115-4.02 3.353-7.431 7.362-7.742" />
</svg>
