<!-- This Source Code Form is subject to the terms of the Mozilla Public
   - License, v. 2.0. If a copy of the MPL was not distributed with this
   - file, You can obtain one at http://mozilla.org/MPL/2.0/. -->
<svg xmlns="http://www.w3.org/2000/svg" width="24" height="24" fill="none" viewBox="0 0 24 24">
    <path fill="#000" d="M14.566 3.468a.87.87 0 0 1 1.14-.477 9.7 9.7 0 0 1 6.045 9.01 9.7 9.7 0 0 1-6.046 9.008.875.875 0 0 1-1.139-.477.874.874 0 0 1 .477-1.14A7.96 7.96 0 0 0 20.003 12a7.96 7.96 0 0 0-4.96-7.393.873.873 0 0 1-.477-1.139M7.791 5.146C8.929 3.134 12 3.94 12 6.252v11.495c0 2.311-3.071 3.118-4.209 1.106l-1.77-3.13c-.152.004-.338.023-.481.023-.603 0-1.17-.032-1.695-.085C2.79 15.555 2 14.647 2 13.587v-3.18c0-1.037.853-1.972 1.887-2.074.607-.06 1.162-.08 1.653-.08.168 0 .324.009.486.014z" />
    <path fill="#000" d="M14.786 7.554a.5.5 0 0 1 .44-.002C16.867 8.368 18 10.044 18 12s-1.133 3.633-2.773 4.448a.5.5 0 0 1-.433 0 .43.43 0 0 1-.294-.404V7.958c0-.19.126-.348.286-.404" />
</svg>
