<svg width="24" height="24" viewBox="0 0 24 24" fill="none" xmlns="http://www.w3.org/2000/svg">
<path d="M12 2C12.483 2 12.875 2.392 12.875 2.875V21.125C12.875 21.608 12.483 22 12 22C11.517 22 11.125 21.608 11.125 21.125V2.875C11.125 2.392 11.517 2 12 2Z" fill="black"/>
<path d="M7.44043 5C7.92321 5.00026 8.31445 5.39216 8.31445 5.875V18.125C8.31445 18.6078 7.92321 18.9997 7.44043 19C6.95743 19 6.56543 18.608 6.56543 18.125V5.875C6.56543 5.392 6.95743 5 7.44043 5Z" fill="black"/>
<path d="M16.5596 5C17.0426 5 17.4346 5.392 17.4346 5.875V18.125C17.4346 18.608 17.0426 19 16.5596 19C16.0768 18.9997 15.6855 18.6078 15.6855 18.125V5.875C15.6855 5.39216 16.0768 5.00026 16.5596 5Z" fill="black"/>
<path d="M2.875 8C3.358 8 3.75 8.392 3.75 8.875V15.125C3.75 15.608 3.358 16 2.875 16C2.392 16 2 15.608 2 15.125V8.875C2 8.392 2.392 8 2.875 8Z" fill="black"/>
<path d="M21.125 8C21.608 8 22 8.392 22 8.875V15.125C22 15.608 21.608 16 21.125 16C20.642 16 20.25 15.608 20.25 15.125V8.875C20.25 8.392 20.642 8 21.125 8Z" fill="black"/>
</svg>
