<!-- This Source Code Form is subject to the terms of the Mozilla Public
   - License, v. 2.0. If a copy of the MPL was not distributed with this
   - file, You can obtain one at http://mozilla.org/MPL/2.0/. -->
<svg xmlns="http://www.w3.org/2000/svg" width="24" height="24" fill="none" viewBox="0 0 24 24">
    <path fill="#000" fill-rule="evenodd" d="M2.256 2.256a.876.876 0 0 1 1.238 0l18.25 18.25a.876.876 0 0 1-1.238 1.238l-1.944-1.943a9.45 9.45 0 0 1-6.365 2.194c-5.064-.159-9.22-4.472-9.196-9.539a9.4 9.4 0 0 1 2.203-6.014L2.256 3.494a.876.876 0 0 1 0-1.238m4.183 5.422A7.7 7.7 0 0 0 4.75 12.5c0 4.35 3.602 7.874 7.98 7.747 1.708-.05 3.296-.688 4.57-1.71l-3.642-3.642-1.669.955a1.13 1.13 0 0 1-1.691-.98v-3.335z" clip-rule="evenodd" />
    <path fill="#000" d="M13.5 4.03a.837.837 0 0 1 1.018-.813C18.79 4.145 22 7.954 22 12.5a9.43 9.43 0 0 1-1.325 4.818l-1.298-1.299c.49-.938.8-1.982.861-3.084.214-3.885-2.454-7.192-6.054-7.993-.392-.088-.684-.412-.684-.814zm2.634 7.488c.604.344.719 1.105.362 1.62l-3.297-3.297zM10.375 2c.345 0 .625.28.625.625v4.373c0 .188-.08.34-.196.45L5.552 2.195A.6.6 0 0 1 6 2z" />
</svg>
