<!-- This Source Code Form is subject to the terms of the Mozilla Public
   - License, v. 2.0. If a copy of the MPL was not distributed with this
   - file, You can obtain one at http://mozilla.org/MPL/2.0/. -->
<svg width="24" height="24" fill="none" xmlns="http://www.w3.org/2000/svg">
    <path d="M12.751 4.819V3.068C17.363 3.452 21 7.321 21 12.03c0 4.963-4.037 9-9 9s-9-4.037-9-9c0-3.245 1.73-6.087 4.313-7.669L5.891 2.939A.55.55 0 0 1 6.28 2h4.17a.55.55 0 0 1 .55.55v4.17a.55.55 0 0 1-.939.389L8.609 5.657C6.323 6.876 4.75 9.262 4.75 12.03c0 3.998 3.252 7.25 7.25 7.25s7.25-3.252 7.25-7.25c0-3.745-2.853-6.834-6.499-7.211z" fill="#000" />
    <path d="M9.5 9.055v5.89a.803.803 0 0 0 1.202.697l5.154-2.945a.803.803 0 0 0 0-1.395l-5.154-2.945a.804.804 0 0 0-1.202.698z" fill="#000" />
</svg>
