<!-- This Source Code Form is subject to the terms of the Mozilla Public
   - License, v. 2.0. If a copy of the MPL was not distributed with this
   - file, You can obtain one at http://mozilla.org/MPL/2.0/. -->
<svg width="24" height="24" fill="none" xmlns="http://www.w3.org/2000/svg"><path d="M12 6.72a.55.55 0 0 1-.936.391L6.89 2.936A.549.549 0 0 1 7.28 2h4.17a.55.55 0 0 1 .55.55v4.17zM19.395 15.44a7.21 7.21 0 0 0 .855-3.41c0-3.744-2.852-6.834-6.499-7.211V3.068C18.363 3.452 22 7.321 22 12.03a8.93 8.93 0 0 1-1.33 4.685l-1.275-1.275zM16.726 12.772l.13-.074a.803.803 0 0 0 0-1.395l-3.734-2.134 3.604 3.603z" fill="#000"/><path fill-rule="evenodd" clip-rule="evenodd" d="M22.25 20.762 3.488 2 2.25 3.238l3.5 3.499A8.87 8.87 0 0 0 4 12.03c0 4.963 4.037 9 9 9a8.92 8.92 0 0 0 5.301-1.741l2.711 2.71 1.238-1.237zM5.75 12.03c0-1.502.465-2.888 1.255-4.037l3.495 3.495v3.457a.804.804 0 0 0 1.202.698l1.88-1.074 3.465 3.466A7.18 7.18 0 0 1 13 19.28c-3.998 0-7.25-3.252-7.25-7.25z" fill="#000"/></svg>
