<!-- This Source Code Form is subject to the terms of the Mozilla Public
   - License, v. 2.0. If a copy of the MPL was not distributed with this
   - file, You can obtain one at http://mozilla.org/MPL/2.0/. -->
<svg xmlns="http://www.w3.org/2000/svg" width="24" height="24" fill="none" viewBox="0 0 24 24">
    <path fill="#000" d="M10.375 2c.345 0 .625.28.625.625v4.374a.625.625 0 0 1-1.067.442l-1.52-1.52A7.75 7.75 0 0 0 4.75 12.5c0 4.35 3.602 7.874 7.98 7.747 3.958-.114 7.291-3.357 7.508-7.312.214-3.884-2.453-7.19-6.053-7.992-.392-.088-.685-.413-.685-.815v-.099a.837.837 0 0 1 1.019-.812C18.79 4.145 22 7.954 22 12.5c0 5.339-4.428 9.664-9.804 9.495-5.064-.159-9.219-4.472-9.196-9.539a9.48 9.48 0 0 1 4.153-7.794L5.56 3.067A.625.625 0 0 1 6 2z" />
    <path fill="#000" d="M10.297 10.132a1.13 1.13 0 0 1 1.691-.982l4.145 2.368a1.13 1.13 0 0 1 0 1.963l-4.145 2.368a1.13 1.13 0 0 1-1.691-.98z" />
</svg>
