<!-- This Source Code Form is subject to the terms of the Mozilla Public
   - License, v. 2.0. If a copy of the MPL was not distributed with this
   - file, You can obtain one at http://mozilla.org/MPL/2.0/. -->
<svg xmlns="http://www.w3.org/2000/svg" width="24" height="24" fill="none" viewBox="0 0 24 24">
    <path fill="#000" d="M12.001 13.25c1.27 0 2.438.094 3.479.237a2.47 2.47 0 0 1 1.819 1.247c.217.388.166.887-.104 1.24-1.197 1.566-3.073 2.586-5.194 2.587-2.12 0-3.997-1.02-5.194-2.587a1.15 1.15 0 0 1-.104-1.24 2.47 2.47 0 0 1 1.82-1.247A26 26 0 0 1 12 13.25M12 7a2.5 2.5 0 0 1 2.5 2.5 2.505 2.505 0 0 1-3.166 2.414 2.47 2.47 0 0 1-1.748-1.748A2.505 2.505 0 0 1 12 7" />
    <path fill="#000" fill-rule="evenodd" d="M12 2c5.523 0 10 4.477 10 10s-4.477 10-10 10S2 17.523 2 12 6.477 2 12 2m0 1.75c-4.549 0-8.25 3.701-8.25 8.25s3.701 8.25 8.25 8.25 8.25-3.701 8.25-8.25S16.549 3.75 12 3.75" clip-rule="evenodd" />
</svg>
