<!-- This Source Code Form is subject to the terms of the Mozilla Public
   - License, v. 2.0. If a copy of the MPL was not distributed with this
   - file, You can obtain one at http://mozilla.org/MPL/2.0/. -->
<svg xmlns="http://www.w3.org/2000/svg" width="24" height="24" fill="none">
    <path fill="#000" d="M12 6a3.006 3.006 0 0 0-2.897 3.799 2.97 2.97 0 0 0 2.098 2.098A3.006 3.006 0 0 0 15 9a3 3 0 0 0-3-3" />
    <path fill="#000" d="M12 3.75c4.549 0 8.25 3.701 8.25 8.25s-3.701 8.25-8.25 8.25S3.75 16.549 3.75 12 7.451 3.75 12 3.75M12 2C6.477 2 2 6.477 2 12s4.477 10 10 10 10-4.477 10-10S17.523 2 12 2" />
    <path fill="#000" d="M12 18.75a6.75 6.75 0 0 0 5.908-3.492A2.49 2.49 0 0 0 15.75 14h-7.5c-.926 0-1.726.51-2.158 1.258A6.75 6.75 0 0 0 12 18.75" />
</svg>
