<svg width="24" height="24" fill="none" xmlns="http://www.w3.org/2000/svg"><path d="M12 6a3.006 3.006 0 0 0-2.897 3.799 2.967 2.967 0 0 0 2.098 2.098A3.006 3.006 0 0 0 15 9a3 3 0 0 0-3-3z" fill="#000"/><path d="M12 3.75c4.549 0 8.25 3.701 8.25 8.25 0 4.549-3.701 8.25-8.25 8.25-4.549 0-8.25-3.701-8.25-8.25 0-4.549 3.701-8.25 8.25-8.25zM12 2C6.477 2 2 6.477 2 12s4.477 10 10 10 10-4.477 10-10S17.523 2 12 2z" fill="#000"/><path d="M12 18.75a6.753 6.753 0 0 0 5.908-3.492A2.491 2.491 0 0 0 15.75 14h-7.5c-.926 0-1.726.51-2.158 1.258A6.753 6.753 0 0 0 12 18.75z" fill="#000"/></svg>