<!-- This Source Code Form is subject to the terms of the Mozilla Public
   - License, v. 2.0. If a copy of the MPL was not distributed with this
   - file, You can obtain one at http://mozilla.org/MPL/2.0/. -->
<svg xmlns="http://www.w3.org/2000/svg" width="24" height="24" fill="none" viewBox="0 0 24 24">
    <path fill="#c52d4f" fill-rule="evenodd" d="M17.18 12.75c.59-1 2.051-1 2.64 0l3.97 6.74a1.506 1.506 0 0 1-1.114 2.258 35 35 0 0 1-8.332.002c-1.091-.132-1.688-1.322-1.134-2.262zM18.5 19a.75.75 0 1 0 0 1.5.75.75 0 0 0 0-1.5m0-4.5a.75.75 0 0 0-.75.75V17a.75.75 0 0 0 1.5 0v-1.75a.75.75 0 0 0-.75-.75" clip-rule="evenodd" />
    <path fill="#000" d="M11 1C5.477 1 1 5.477 1 11s4.477 10 10 10c.202 0 .4-.018.6-.03a2.98 2.98 0 0 1 .318-2.243l.902-1.531-.069.117a6.4 6.4 0 0 1-1.751.249c-2.121 0-3.997-1.02-5.195-2.588a1.15 1.15 0 0 1-.104-1.24 2.47 2.47 0 0 1 1.819-1.247 25.6 25.6 0 0 1 6.958 0c.337.046.641.171.917.336l.492-.834a3 3 0 0 1 2.612-1.488c1.002 0 1.894.489 2.46 1.293.021-.262.04-.525.04-.793 0-5.523-4.477-10-10-10zm-.666 9.414a2.47 2.47 0 0 1-1.748-1.748A2.505 2.505 0 0 1 11 5.5 2.5 2.5 0 0 1 13.5 8a2.505 2.505 0 0 1-3.166 2.414" />
</svg>
