<!-- This Source Code Form is subject to the terms of the Mozilla Public
   - License, v. 2.0. If a copy of the MPL was not distributed with this
   - file, You can obtain one at http://mozilla.org/MPL/2.0/. -->
<svg width="24" height="24" fill="none" xmlns="http://www.w3.org/2000/svg"><path fill-rule="evenodd" clip-rule="evenodd" d="M1 11C1 5.486 5.486 1 11 1s10 4.486 10 10c0 .631-.066 1.246-.178 1.845a6.464 6.464 0 0 0-2.072-.345 6.47 6.47 0 0 0-4.149 1.502v-.001l.002-.001H7.25a2.492 2.492 0 0 0-2.369 1.738A7.732 7.732 0 0 0 11 18.75c.434 0 .855-.048 1.269-.117a9.483 9.483 0 0 1-.007.107 3.72 3.72 0 0 0-.012.26 6.5 6.5 0 0 0 .277 1.871A9.976 9.976 0 0 1 11 21C5.486 21 1 16.514 1 11zm7.103-1.201a2.967 2.967 0 0 0 2.098 2.098A3.006 3.006 0 0 0 14 9a3 3 0 0 0-3-3 3.006 3.006 0 0 0-2.897 3.799z" fill="#000"/><path fill-rule="evenodd" clip-rule="evenodd" d="M18.75 24c-2.757 0-5-2.243-5-5s2.243-5 5-5 5 2.243 5 5-2.243 5-5 5zm.75-8v1.5H18V16h1.5zm0 2.75V22H18v-3.25h1.5z" fill="#000"/></svg>
