<!-- This Source Code Form is subject to the terms of the Mozilla Public
   - License, v. 2.0. If a copy of the MPL was not distributed with this
   - file, You can obtain one at http://mozilla.org/MPL/2.0/. -->
<svg xmlns="http://www.w3.org/2000/svg" width="24" height="24" fill="none" viewBox="0 0 24 24">
    <path fill="#15141a" fill-rule="evenodd" d="M11 18.75c.28 0 .553-.024.825-.054l-.177.308a2.96 2.96 0 0 0-.336 1.98q-.067.002-.135.008-.088.007-.177.008C5.477 21 1 16.523 1 11S5.477 1 11 1s10 4.477 10 10c0 .388-.027.77-.07 1.146l-.078-.136a2.97 2.97 0 0 0-2.602-1.51 2.97 2.97 0 0 0-2.602 1.51L14.51 14H7.25a2.49 2.49 0 0 0-2.369 1.738A7.73 7.73 0 0 0 11 18.75M8.103 9.799A3.006 3.006 0 0 1 11 6a3 3 0 0 1 3 3 3.006 3.006 0 0 1-3.8 2.897 2.97 2.97 0 0 1-2.097-2.098" clip-rule="evenodd" />
    <path fill="#c50042" d="M16.95 12.755a1.496 1.496 0 0 1 2.6 0l4 6.994c.573 1.002-.15 2.251-1.3 2.251h-8c-1.151 0-1.872-1.25-1.298-2.251zM17.5 19v1.5H19V19zm0-4v2.75H19V15z" />
</svg>
