<svg width="24" height="24" fill="none" xmlns="http://www.w3.org/2000/svg"><path fill-rule="evenodd" clip-rule="evenodd" d="M10.979 21.948a10.074 10.074 0 0 0 2.48-.054 9.958 9.958 0 0 0 4.791-2.095v.002A9.986 9.986 0 0 0 22 12c0-5.514-4.486-10-10-10S2 6.486 2 12a9.986 9.986 0 0 0 3.75 7.8V19.8a9.951 9.951 0 0 0 5.229 2.15zM9.103 10.8A3.006 3.006 0 0 1 12 7a3 3 0 0 1 3 3 3.006 3.006 0 0 1-3.8 2.897 2.967 2.967 0 0 1-2.097-2.098zM12 19.75c2.488 0 4.7-1.183 6.119-3.012A2.492 2.492 0 0 0 15.75 15h-7.5a2.492 2.492 0 0 0-2.369 1.738A7.732 7.732 0 0 0 12 19.75z" fill="#000"/></svg>