<!-- This Source Code Form is subject to the terms of the Mozilla Public
   - License, v. 2.0. If a copy of the MPL was not distributed with this
   - file, You can obtain one at http://mozilla.org/MPL/2.0/. -->
<svg xmlns="http://www.w3.org/2000/svg" width="24" height="24" fill="none" viewBox="0 0 24 24">
    <path fill="#000" fill-rule="evenodd" d="M12 2c5.523 0 10 4.477 10 10s-4.477 10-10 10S2 17.523 2 12 6.477 2 12 2m.001 11.25c-1.27 0-2.439.095-3.48.237a2.47 2.47 0 0 0-1.819 1.247 1.15 1.15 0 0 0 .105 1.24C8.004 17.54 9.88 18.56 12 18.56s3.996-1.02 5.194-2.587c.27-.353.322-.852.105-1.24a2.47 2.47 0 0 0-1.82-1.247 26 26 0 0 0-3.478-.237M12 6.5a2.506 2.506 0 0 0-2.414 3.166 2.47 2.47 0 0 0 1.748 1.748A2.505 2.505 0 0 0 14.5 9 2.5 2.5 0 0 0 12 6.5" clip-rule="evenodd" />
</svg>
