<!-- This Source Code Form is subject to the terms of the Mozilla Public
   - License, v. 2.0. If a copy of the MPL was not distributed with this
   - file, You can obtain one at http://mozilla.org/MPL/2.0/. -->
<svg xmlns="http://www.w3.org/2000/svg" width="24" height="24" fill="none">
    <path fill="#000" fill-rule="evenodd" d="M10.979 21.948a10 10 0 0 0 2.48-.054 9.96 9.96 0 0 0 4.791-2.095v.002A9.99 9.99 0 0 0 22 12c0-5.514-4.486-10-10-10S2 6.486 2 12a9.99 9.99 0 0 0 3.75 7.8 9.95 9.95 0 0 0 5.229 2.15zM9.103 10.8A3.006 3.006 0 0 1 12 7a3 3 0 0 1 3 3 3.006 3.006 0 0 1-3.8 2.897 2.97 2.97 0 0 1-2.097-2.098zM12 19.75c2.488 0 4.7-1.183 6.119-3.012A2.49 2.49 0 0 0 15.75 15h-7.5a2.49 2.49 0 0 0-2.369 1.738A7.73 7.73 0 0 0 12 19.75" clip-rule="evenodd" />
</svg>
