<!-- This Source Code Form is subject to the terms of the Mozilla Public
   - License, v. 2.0. If a copy of the MPL was not distributed with this
   - file, You can obtain one at http://mozilla.org/MPL/2.0/. -->
<svg xmlns="http://www.w3.org/2000/svg" width="24" height="24" fill="none">
    <path fill="#000" fill-rule="evenodd" d="M1 11C1 5.486 5.486 1 11 1s10 4.486 10 10c0 .631-.066 1.246-.178 1.845a6.5 6.5 0 0 0-2.072-.345 6.47 6.47 0 0 0-4.149 1.502v-.001l.002-.001H7.25a2.49 2.49 0 0 0-2.369 1.738A7.73 7.73 0 0 0 11 18.75c.434 0 .855-.048 1.269-.117l-.007.107a4 4 0 0 0-.012.26 6.5 6.5 0 0 0 .277 1.871A10 10 0 0 1 11 21C5.486 21 1 16.514 1 11m7.103-1.201a2.97 2.97 0 0 0 2.098 2.098A3.006 3.006 0 0 0 14 9a3 3 0 0 0-3-3 3.006 3.006 0 0 0-2.897 3.799" clip-rule="evenodd" />
    <path fill="#000" fill-rule="evenodd" d="M18.75 24c-2.757 0-5-2.243-5-5s2.243-5 5-5 5 2.243 5 5-2.243 5-5 5m.75-8v1.5H18V16zm0 2.75V22H18v-3.25z" clip-rule="evenodd" />
</svg>
