<!-- This Source Code Form is subject to the terms of the Mozilla Public
   - License, v. 2.0. If a copy of the MPL was not distributed with this
   - file, You can obtain one at http://mozilla.org/MPL/2.0/. -->
<svg xmlns="http://www.w3.org/2000/svg" width="24" height="24" fill="none" viewBox="0 0 24 24">
    <path fill="#000" fill-rule="evenodd" d="M18.75 14c2.757 0 5 2.243 5 5s-2.243 5-5 5-5-2.243-5-5 2.243-5 5-5m0 4.75a.75.75 0 0 0-.75.75v1.75a.75.75 0 0 0 1.5 0V19.5a.75.75 0 0 0-.75-.75m0-2.75a.75.75 0 1 0 0 1.5.75.75 0 0 0 0-1.5" clip-rule="evenodd" />
    <path fill="#000" fill-rule="evenodd" d="M10.999 1.001c5.523 0 10 4.477 10 10 0 .63-.065 1.246-.177 1.845a6.5 6.5 0 0 0-2.073-.345c-1.037 0-2.014.25-2.885.684a2.43 2.43 0 0 0-1.387-.697 25.7 25.7 0 0 0-6.957 0c-.794.11-1.45.588-1.819 1.247-.217.388-.166.887.104 1.24 1.198 1.568 3.074 2.589 5.195 2.589.502 0 .99-.063 1.459-.171A6.5 6.5 0 0 0 12.25 19c0 .65.098 1.278.277 1.871A10 10 0 0 1 11 21C5.477 21 1 16.523 1 11S5.477 1 11 1zM11 5.5a2.505 2.505 0 0 0-2.414 3.166 2.47 2.47 0 0 0 1.748 1.748A2.505 2.505 0 0 0 13.5 8 2.5 2.5 0 0 0 11 5.5" clip-rule="evenodd" />
</svg>
