<svg width="24" height="24" viewBox="0 0 24 24" fill="none" xmlns="http://www.w3.org/2000/svg">
<path d="M9.15625 5.25732C9.49823 4.91534 10.0515 4.91539 10.3936 5.25732C10.7346 5.59932 10.7346 6.15265 10.3936 6.49365L5.2627 11.6255H20.125C20.608 11.6255 21 12.0175 21 12.5005C20.9997 12.9833 20.6078 13.3755 20.125 13.3755H5.26172L10.3936 18.5073C10.7346 18.8493 10.7346 19.4026 10.3936 19.7436C10.2227 19.9145 9.99824 19.9994 9.77539 19.9995C9.55139 19.9995 9.32725 19.9146 9.15625 19.7436L3.76758 14.356C3.27273 13.86 2.99902 13.2004 2.99902 12.4995C2.99915 11.7988 3.27183 11.1399 3.76855 10.644L9.15625 5.25732Z" fill="black"/>
</svg>
