<!-- This Source Code Form is subject to the terms of the Mozilla Public
   - License, v. 2.0. If a copy of the MPL was not distributed with this
   - file, You can obtain one at http://mozilla.org/MPL/2.0/. -->
<svg xmlns="http://www.w3.org/2000/svg" width="24" height="24" fill="none" viewBox="0 0 24 24">
    <path fill="#000" fill-rule="evenodd" d="M12 2c5.523 0 10 4.477 10 10s-4.477 10-10 10S2 17.523 2 12 6.477 2 12 2M8.946 12.875a7.14 7.14 0 0 1-2.835 4.901 8.22 8.22 0 0 0 5.014 2.426v-7.327zm3.929 0v7.327a8.22 8.22 0 0 0 5.013-2.426 7.14 7.14 0 0 1-2.835-4.901zm-9.078 0a8.2 8.2 0 0 0 1.226 3.526 5.4 5.4 0 0 0 2.155-3.526zm13.024 0a5.4 5.4 0 0 0 2.155 3.526 8.2 8.2 0 0 0 1.227-3.526zM5.023 7.598a8.2 8.2 0 0 0-1.226 3.527h3.38a5.4 5.4 0 0 0-2.154-3.527m6.102-3.801a8.22 8.22 0 0 0-5.014 2.426 7.15 7.15 0 0 1 2.835 4.902h2.179zm1.75 7.328h2.178a7.16 7.16 0 0 1 2.835-4.902 8.22 8.22 0 0 0-5.013-2.426zm6.1-3.527a5.42 5.42 0 0 0-2.153 3.527h3.381a8.2 8.2 0 0 0-1.227-3.527" clip-rule="evenodd" />
</svg>
