<!-- This Source Code Form is subject to the terms of the Mozilla Public
   - License, v. 2.0. If a copy of the MPL was not distributed with this
   - file, You can obtain one at http://mozilla.org/MPL/2.0/. -->
<svg width="24" height="24" fill="none" xmlns="http://www.w3.org/2000/svg"><path d="M7.23 21.5c-.44 0-.89-.14-1.26-.41a2.13 2.13 0 0 1-.82-2.27l1.06-4.15-3.3-2.74c-.68-.57-.95-1.48-.67-2.32.27-.84 1.02-1.43 1.91-1.48l4.28-.28 1.58-3.98a2.15 2.15 0 0 1 2-1.36c.89 0 1.67.53 2 1.36l1.58 3.98 4.28.28c.88.06 1.63.64 1.91 1.48.27.84.01 1.76-.67 2.32l-3.3 2.74 1.06 4.15c.22.86-.1 1.75-.82 2.27s-1.67.55-2.42.08l-3.62-2.29-3.62 2.29c-.35.22-.75.34-1.15.34l-.01-.01zM12 4.25c-.1 0-.29.03-.37.25L9.84 9c-.12.31-.42.53-.76.55l-4.83.31c-.24.02-.33.18-.36.28-.03.08-.06.28.13.44l3.72 3.09c.26.22.37.56.29.89l-1.19 4.69c-.06.23.07.37.15.43.08.06.25.14.45.01l4.09-2.59c.29-.18.65-.18.93 0l4.09 2.59c.2.13.37.05.45-.01.08-.06.21-.2.15-.43l-1.2-4.69c-.08-.33.03-.67.29-.89l3.72-3.09c.19-.16.15-.36.13-.43a.386.386 0 0 0-.36-.28l-4.83-.31a.886.886 0 0 1-.76-.55l-1.79-4.5a.378.378 0 0 0-.37-.25l.02-.01z" fill="#000"/></svg>
