<!-- This Source Code Form is subject to the terms of the Mozilla Public
   - License, v. 2.0. If a copy of the MPL was not distributed with this
   - file, You can obtain one at http://mozilla.org/MPL/2.0/. -->
<svg xmlns="http://www.w3.org/2000/svg" width="24" height="24" fill="none" viewBox="0 0 24 24">
    <path fill="#000" d="M19.125 16c.483 0 .875.392.875.875v.45a3.3 3.3 0 0 1-2.775 3.256 32.8 32.8 0 0 1-10.497-.009C5.132 20.312 4 18.912 4 17.327v-.452a.875.875 0 0 1 1.75 0v.452c0 .76.542 1.401 1.26 1.519a31 31 0 0 0 9.935.008 1.55 1.55 0 0 0 1.305-1.53v-.449c0-.483.392-.875.875-.875" />
    <path fill="#000" fill-rule="evenodd" d="M12 2.001c.726 0 1.368.436 1.637 1.11l1.038 2.607 3.168.205c.7.045 1.31.503 1.55 1.167s.074 1.375-.436 1.857q-.304.291-.654.585c-.61.512-1.263.977-1.948 1.385l.746 2.924a1.73 1.73 0 0 1-.631 1.828 1.78 1.78 0 0 1-1.951.137A16.7 16.7 0 0 1 12 14.076a17 17 0 0 1-2.519 1.73 1.8 1.8 0 0 1-.872.23h-.002c-.382 0-.762-.124-1.078-.367a1.73 1.73 0 0 1-.63-1.828l.744-2.924a14.7 14.7 0 0 1-2.603-1.97 1.72 1.72 0 0 1-.436-1.857 1.78 1.78 0 0 1 1.552-1.167l3.168-.205 1.037-2.606A1.76 1.76 0 0 1 12 2.001m-.225 2.295-1.028 2.58a.87.87 0 0 1-.756.55l-3.72.241c.156.18.348.351.552.522.693.583 1.45 1.095 2.247 1.521.355.19.535.598.436.988l-.91 3.572c.406-.203.793-.441 1.186-.71q.692-.474 1.33-1.028a1.35 1.35 0 0 1 .89-.335l-.002.001c.316 0 .632.112.89.336a15 15 0 0 0 2.483 1.744l-.284-1.248-.594-2.33c-.1-.39.08-.799.436-.99a13 13 0 0 0 2.821-2.034l-3.742-.25a.87.87 0 0 1-.756-.55l-1.244-3.12z" clip-rule="evenodd" />
</svg>
