<!-- This Source Code Form is subject to the terms of the Mozilla Public
   - License, v. 2.0. If a copy of the MPL was not distributed with this
   - file, You can obtain one at http://mozilla.org/MPL/2.0/. -->
<svg xmlns="http://www.w3.org/2000/svg" width="24" height="24" fill="none" viewBox="0 0 24 24">
    <path fill="#000" d="M19.125 16c.483 0 .875.392.875.875v.45a3.3 3.3 0 0 1-2.775 3.256 32.8 32.8 0 0 1-10.497-.008C5.132 20.312 4 18.912 4 17.327v-.452a.875.875 0 0 1 1.75 0v.452c0 .76.542 1.402 1.26 1.519a31 31 0 0 0 9.935.008 1.55 1.55 0 0 0 1.305-1.53v-.449c0-.483.392-.875.875-.875" />
    <path fill="#000" d="M12.002 2.47c.5 0 .928.29 1.114.755l1.254 3.152 3.778.244c.485.033.89.338 1.056.798.162.45.05.93-.293 1.255q-.31.295-.662.592a15 15 0 0 1-2.405 1.652l.914 3.587c.12.471-.044.948-.427 1.242-.39.301-.903.335-1.335.093a17 17 0 0 1-2.829-1.987.24.24 0 0 0-.33 0A17 17 0 0 1 9.01 15.84a1.2 1.2 0 0 1-1.336-.093 1.18 1.18 0 0 1-.427-1.242l.914-3.587a15 15 0 0 1-3.067-2.244A1.16 1.16 0 0 1 4.8 7.42a1.19 1.19 0 0 1 1.057-.798l3.777-.244 1.254-3.152a1.18 1.18 0 0 1 1.114-.755" />
</svg>
