<!-- This Source Code Form is subject to the terms of the Mozilla Public
   - License, v. 2.0. If a copy of the MPL was not distributed with this
   - file, You can obtain one at http://mozilla.org/MPL/2.0/. -->
<svg xmlns="http://www.w3.org/2000/svg" width="24" height="24" fill="none" viewBox="0 0 24 24">
    <path fill="#000" d="M12 3.001a1.62 1.62 0 0 1 1.53 1.038l1.725 4.332 5.192.336A1.64 1.64 0 0 1 21.9 9.804a1.6 1.6 0 0 1-.403 1.726 20.7 20.7 0 0 1-4.217 3.084l1.256 4.93a1.62 1.62 0 0 1-.587 1.707 1.65 1.65 0 0 1-1.835.128 23.5 23.5 0 0 1-3.888-2.732.33.33 0 0 0-.452 0 23.6 23.6 0 0 1-3.888 2.732 1.65 1.65 0 0 1-1.835-.128 1.62 1.62 0 0 1-.588-1.707l1.257-4.93a20.7 20.7 0 0 1-4.217-3.084A1.6 1.6 0 0 1 2.1 9.804a1.64 1.64 0 0 1 1.453-1.097l5.192-.336 1.724-4.332A1.62 1.62 0 0 1 12 3.001" />
</svg>
