<!-- This Source Code Form is subject to the terms of the Mozilla Public
   - License, v. 2.0. If a copy of the MPL was not distributed with this
   - file, You can obtain one at http://mozilla.org/MPL/2.0/. -->
<svg xmlns="http://www.w3.org/2000/svg" width="24" height="24" fill="none" viewBox="0 0 24 24">
    <path fill="#000" fill-rule="evenodd" d="M2.756 2.756a.876.876 0 0 1 1.238 0l18.25 18.25a.876.876 0 0 1-1.238 1.238l-2.337-2.337a2.11 2.11 0 0 1-1.995 1.426c-.357 0-.716-.089-1.042-.271a23 23 0 0 1-3.63-2.53 22.5 22.5 0 0 1-3.63 2.528 2.12 2.12 0 0 1-2.326-.162 2.06 2.06 0 0 1-.75-2.175l1.088-4.269a20 20 0 0 1-3.736-2.792 2.04 2.04 0 0 1-.52-2.208 2.11 2.11 0 0 1 1.849-1.39L6.65 7.89 2.756 3.994a.876.876 0 0 1 0-1.238M4.088 9.81a.35.35 0 0 0-.314.238.3.3 0 0 0 .077.342q.376.359.806.721a18.3 18.3 0 0 0 3.153 2.134.87.87 0 0 1 .435.987l-1.254 4.922a.32.32 0 0 0 .12.354c.056.044.21.132.406.024a21 21 0 0 0 3.476-2.443c.291-.253.65-.38 1.008-.38.359 0 .717.127 1.009.38a21 21 0 0 0 3.476 2.444.36.36 0 0 0 .406-.025.32.32 0 0 0 .119-.354l-.31-1.217-8.402-8.4z" clip-rule="evenodd" />
    <path fill="#000" d="M12 2.664c.864 0 1.63.518 1.948 1.321l1.506 3.783 4.572.297c.835.055 1.56.6 1.847 1.39a2.04 2.04 0 0 1-.517 2.207q-.418.395-.887.791a20 20 0 0 1-2.734 1.927l-1.287-1.287c1.023-.57 2-1.225 2.895-1.979.288-.24.557-.484.81-.722a.305.305 0 0 0 .074-.341.35.35 0 0 0-.313-.239L14.79 9.48a.87.87 0 0 1-.756-.55l-1.71-4.297A.33.33 0 0 0 12 4.414a.33.33 0 0 0-.321.218l-1.051 2.64-1.347-1.348.772-1.94A2.085 2.085 0 0 1 12 2.664" />
</svg>
