<!-- This Source Code Form is subject to the terms of the Mozilla Public
   - License, v. 2.0. If a copy of the MPL was not distributed with this
   - file, You can obtain one at http://mozilla.org/MPL/2.0/. -->
<svg width="24" height="24" fill="none" xmlns="http://www.w3.org/2000/svg"><path d="M6.84 21.5c-.322 0-.642-.101-.916-.3a1.55 1.55 0 0 1-.594-1.647l1.263-4.959-3.938-3.27a1.552 1.552 0 0 1-.487-1.681A1.553 1.553 0 0 1 3.55 8.568l5.108-.331 1.893-4.755A1.551 1.551 0 0 1 12 2.5c.643 0 1.211.386 1.449.983l1.893 4.755 5.107.331a1.552 1.552 0 0 1 1.383 1.076 1.55 1.55 0 0 1-.489 1.681l-3.936 3.269 1.263 4.96a1.551 1.551 0 0 1-.595 1.647c-.519.377-1.205.4-1.75.057L12 18.522l-4.326 2.735a1.565 1.565 0 0 1-.834.243z" fill="#000"/></svg>
