<!-- This Source Code Form is subject to the terms of the Mozilla Public
   - License, v. 2.0. If a copy of the MPL was not distributed with this
   - file, You can obtain one at http://mozilla.org/MPL/2.0/. -->
<svg width="24" height="24" fill="none" xmlns="http://www.w3.org/2000/svg">
    <path fill-rule="evenodd" clip-rule="evenodd" d="M3.238 1.99 22 20.752l-1.238 1.238-1.95-1.95c-.14.41-.404.776-.773 1.044a2.142 2.142 0 0 1-2.416.078L12 18.873l-3.624 2.288a2.144 2.144 0 0 1-2.416-.078 2.142 2.142 0 0 1-.82-2.272l1.059-4.153-3.297-2.738a2.139 2.139 0 0 1-.673-2.321 2.143 2.143 0 0 1 1.909-1.483l2.583-.167-4.72-4.721L3.237 1.99zm5.13 7.605-4.117.267a.382.382 0 0 0-.357.277.383.383 0 0 0 .126.434l3.722 3.092a.872.872 0 0 1 .289.889l-1.195 4.689a.383.383 0 0 0 .154.426.387.387 0 0 0 .451.015l4.091-2.585a.87.87 0 0 1 .936 0l4.091 2.585a.385.385 0 0 0 .451-.015.384.384 0 0 0 .154-.426l-.291-1.143-8.505-8.505z" fill="#000" />
    <path d="M21.771 9.599a2.138 2.138 0 0 0-1.908-1.482l-4.277-.277L14 3.857A2.14 2.14 0 0 0 12 2.5a2.14 2.14 0 0 0-2 1.357l-.792 1.991 1.347 1.347 1.071-2.691A.382.382 0 0 1 12 4.25c.103 0 .286.033.375.254l1.789 4.495a.874.874 0 0 0 .756.55l4.829.313a.384.384 0 0 1 .357.277.385.385 0 0 1-.126.435l-3.304 2.743 1.243 1.243 3.178-2.639a2.143 2.143 0 0 0 .674-2.322z" fill="#000" />
</svg>
