<!-- This Source Code Form is subject to the terms of the Mozilla Public
   - License, v. 2.0. If a copy of the MPL was not distributed with this
   - file, You can obtain one at http://mozilla.org/MPL/2.0/. -->
<svg xmlns="http://www.w3.org/2000/svg" width="24" height="24" fill="none" viewBox="0 0 24 24">
    <path fill="#000" fill-rule="evenodd" d="M12 3c.864 0 1.628.52 1.948 1.322l1.506 3.783 4.573.296c.835.054 1.56.6 1.846 1.391a2.04 2.04 0 0 1-.517 2.206q-.415.395-.887.792a20 20 0 0 1-2.852 2.002l1.088 4.268a2.06 2.06 0 0 1-.75 2.174 2.13 2.13 0 0 1-2.326.163A22.6 22.6 0 0 1 12 18.869a23 23 0 0 1-3.628 2.53 2.12 2.12 0 0 1-2.327-.164 2.06 2.06 0 0 1-.75-2.174l1.088-4.268a20 20 0 0 1-3.738-2.794 2.04 2.04 0 0 1-.517-2.206 2.11 2.11 0 0 1 1.846-1.39l4.573-.297 1.506-3.784A2.09 2.09 0 0 1 12 3m-.001 1.75a.33.33 0 0 0-.322.218L9.966 9.266a.88.88 0 0 1-.756.55l-5.125.332a.35.35 0 0 0-.314.239.3.3 0 0 0 .076.34q.378.36.808.723a18.3 18.3 0 0 0 3.152 2.133c.355.19.535.598.436.988l-1.253 4.92a.32.32 0 0 0 .12.354.36.36 0 0 0 .405.025 21 21 0 0 0 3.476-2.443 1.53 1.53 0 0 1 2.017 0 21 21 0 0 0 3.477 2.443.36.36 0 0 0 .407-.025.32.32 0 0 0 .118-.354l-1.254-4.92a.874.874 0 0 1 .436-.988 18.2 18.2 0 0 0 3.96-2.856.3.3 0 0 0 .075-.34.35.35 0 0 0-.314-.24l-5.125-.332a.88.88 0 0 1-.756-.55l-1.71-4.296a.33.33 0 0 0-.323-.219" clip-rule="evenodd" />
</svg>
