<!-- This Source Code Form is subject to the terms of the Mozilla Public
   - License, v. 2.0. If a copy of the MPL was not distributed with this
   - file, You can obtain one at http://mozilla.org/MPL/2.0/. -->
<svg xmlns="http://www.w3.org/2000/svg" width="24" height="24" fill="none" viewBox="0 0 24 24">
    <path fill="#000" fill-rule="evenodd" d="M1.756 2.256a.876.876 0 0 1 1.238 0l18.25 18.25a.876.876 0 0 1-1.238 1.238L16.43 18.17a3.36 3.36 0 0 1-2.409 1.54 36 36 0 0 1-4.54.29c-1.497 0-3.013-.096-4.504-.284A3.41 3.41 0 0 1 2 16.338V8.66c0-1.321.758-2.485 1.877-3.045l-2.121-2.12a.876.876 0 0 1 0-1.24m3.408 4.77c-.807.102-1.414.805-1.414 1.635v7.678c0 .83.623 1.535 1.45 1.64a34 34 0 0 0 8.6-.005 1.62 1.62 0 0 0 1.329-1.107L5.273 7.012z" clip-rule="evenodd" />
    <path fill="#000" d="M7.907 5.052a36 36 0 0 1 6.08.233 3.415 3.415 0 0 1 2.87 2.522l.427-.428a2.71 2.71 0 0 1 3.008-.602A2.72 2.72 0 0 1 22 9.335v6.33c0 .942-.451 1.77-1.201 2.277l-1.3-1.3c.048-.012.098-.026.124-.037a1 1 0 0 0 .627-.94v-6.33a1 1 0 0 0-.627-.94.995.995 0 0 0-1.102.221l-1.812 1.816a.874.874 0 0 1-1.494-.619V8.661a1.66 1.66 0 0 0-1.45-1.642 34 34 0 0 0-4.156-.265z" />
</svg>
