<!-- This Source Code Form is subject to the terms of the Mozilla Public
   - License, v. 2.0. If a copy of the MPL was not distributed with this
   - file, You can obtain one at http://mozilla.org/MPL/2.0/. -->
<svg xmlns="http://www.w3.org/2000/svg" width="24" height="24" fill="none" viewBox="0 0 24 24">
    <path fill="#000" fill-rule="evenodd" d="M9.483 4.999c1.641 0 3.15.113 4.503.285a3.4 3.4 0 0 1 2.867 2.524l.43-.43C19.025 5.63 22 6.877 22 9.337v6.329c0 2.46-2.974 3.705-4.718 1.956l-.428-.43c-.338 1.307-1.43 2.34-2.83 2.52a35.7 35.7 0 0 1-9.045.004A3.403 3.403 0 0 1 2 16.338V8.66c0-1.688 1.246-3.154 2.941-3.37a36 36 0 0 1 4.542-.291m0 1.75a34 34 0 0 0-3.724.204l-.595.071c-.798.102-1.414.803-1.414 1.636v7.678c0 .835.618 1.534 1.448 1.64a34 34 0 0 0 8.603-.002l.147-.027a1.65 1.65 0 0 0 1.267-1.61v-1.151a.875.875 0 0 1 1.494-.619l1.813 1.816c.634.636 1.728.191 1.728-.72v-6.33c0-.911-1.095-1.357-1.729-.72L16.71 10.43a.875.875 0 0 1-1.494-.618V8.661c0-.835-.619-1.535-1.45-1.64a34 34 0 0 0-4.282-.272" clip-rule="evenodd" />
</svg>
