<!-- This Source Code Form is subject to the terms of the Mozilla Public
   - License, v. 2.0. If a copy of the MPL was not distributed with this
   - file, You can obtain one at http://mozilla.org/MPL/2.0/. -->
<svg width="24" height="24" fill="none" xmlns="http://www.w3.org/2000/svg">
    <path fill-rule="evenodd" clip-rule="evenodd" d="M1.238 1.99 20 20.752l-1.238 1.238-2.66-2.66a2.443 2.443 0 0 1-.852.153H5.5a2.502 2.502 0 0 1-2.5-2.5V7.018c0-.24.035-.472.1-.69L0 3.228 1.238 1.99zM4.75 7.977v9.006c0 .413.337.75.75.75h9.005L4.75 7.977z" fill="#000" />
    <path d="M21.457 5.747a2.463 2.463 0 0 0-2.726.542l-.981.982v-.253c0-1.38-1.121-2.5-2.5-2.5H5.876l1.749 1.75h7.625c.413 0 .75.337.75.75v2.366a.876.876 0 0 0 1.494.619l2.475-2.476a.738.738 0 0 1 .818-.162.736.736 0 0 1 .463.692v7.887a.734.734 0 0 1-.463.692.74.74 0 0 1-.817-.161l-2.476-2.477a.875.875 0 0 0-1.494.618v.362l2.737 2.737c.729.726 1.772.93 2.72.538A2.461 2.461 0 0 0 23 15.943V8.057a2.461 2.461 0 0 0-1.543-2.31z" fill="#000" />
</svg>
