<!-- This Source Code Form is subject to the terms of the Mozilla Public
   - License, v. 2.0. If a copy of the MPL was not distributed with this
   - file, You can obtain one at http://mozilla.org/MPL/2.0/. -->
<svg xmlns="http://www.w3.org/2000/svg" width="24" height="24" fill="none">
    <path fill="#000" fill-rule="evenodd" d="M8.75 10.25h6.5V12h-6.5zm0 4h3.972V16H8.75z" clip-rule="evenodd" />
    <path fill="#000" fill-rule="evenodd" d="M17 3h-1.535A4 4 0 0 0 12 1c-1.48 0-2.773.804-3.465 2H7a2.5 2.5 0 0 0-2.5 2.5v14A2.5 2.5 0 0 0 7 22h10a2.5 2.5 0 0 0 2.5-2.5v-14A2.5 2.5 0 0 0 17 3M9.5 8A1.5 1.5 0 0 1 8 6.5V5q0-.126.008-.25H7a.75.75 0 0 0-.75.75v14c0 .414.336.75.75.75h10a.75.75 0 0 0 .75-.75v-14a.75.75 0 0 0-.75-.75h-1.008Q16 4.874 16 5v1.5A1.5 1.5 0 0 1 14.5 8zM11 5.5v-2h2v2z" clip-rule="evenodd" />
</svg>
