<!-- This Source Code Form is subject to the terms of the Mozilla Public
   - License, v. 2.0. If a copy of the MPL was not distributed with this
   - file, You can obtain one at http://mozilla.org/MPL/2.0/. -->
<svg width="24" height="24" fill="none" xmlns="http://www.w3.org/2000/svg"><path fill-rule="evenodd" clip-rule="evenodd" d="M8.75 10.25h6.5V12h-6.5v-1.75zM8.75 14.25h3.972V16H8.75v-1.75z" fill="#000"/><path fill-rule="evenodd" clip-rule="evenodd" d="M17 3h-1.535A3.999 3.999 0 0 0 12 1c-1.48 0-2.773.804-3.465 2H7a2.5 2.5 0 0 0-2.5 2.5v14A2.5 2.5 0 0 0 7 22h10a2.5 2.5 0 0 0 2.5-2.5v-14A2.5 2.5 0 0 0 17 3zM9.5 8A1.5 1.5 0 0 1 8 6.5V5c0-.084.003-.167.008-.25H7a.75.75 0 0 0-.75.75v14c0 .414.336.75.75.75h10a.75.75 0 0 0 .75-.75v-14a.75.75 0 0 0-.75-.75h-1.008c.005.083.008.166.008.25v1.5A1.5 1.5 0 0 1 14.5 8h-5zM11 5.5v-2h2v2h-2z" fill="#000"/></svg>
