<!-- This Source Code Form is subject to the terms of the Mozilla Public
   - License, v. 2.0. If a copy of the MPL was not distributed with this
   - file, You can obtain one at http://mozilla.org/MPL/2.0/. -->
<svg xmlns="http://www.w3.org/2000/svg" width="24" height="24" fill="none" viewBox="0 0 24 24">
    <path fill="#000" d="M12.125 14.5a.875.875 0 0 1 0 1.75h-2.25a.875.875 0 0 1 0-1.75zm3-3.5a.875.875 0 0 1 0 1.75h-5.25a.875.875 0 0 1 0-1.75z" />
    <path fill="#000" fill-rule="evenodd" d="M12.5 1c1.574 0 2.936.911 3.589 2.234.426.05.856.087 1.28.155A3.12 3.12 0 0 1 20 6.478v12.004a3.14 3.14 0 0 1-2.63 3.12 30.1 30.1 0 0 1-9.783-.007C6.088 21.35 5 20.042 5 18.486V6.474c0-1.54 1.09-2.834 2.589-3.078.437-.07.88-.11 1.321-.162A4 4 0 0 1 12.5 1m4 5.5A1.5 1.5 0 0 1 15 8h-5a1.5 1.5 0 0 1-1.5-1.5V5.046c-.209.03-.42.043-.629.077-.64.105-1.12.685-1.121 1.352v12.01c0 .684.482 1.28 1.122 1.385a28.6 28.6 0 0 0 9.215.007 1.4 1.4 0 0 0 1.163-1.395V6.477c0-.68-.488-1.252-1.161-1.36-.195-.032-.393-.043-.589-.071zm-4-3a1 1 0 1 0 0 2 1 1 0 0 0 0-2" clip-rule="evenodd" />
</svg>
