<!-- This Source Code Form is subject to the terms of the Mozilla Public
   - License, v. 2.0. If a copy of the MPL was not distributed with this
   - file, You can obtain one at http://mozilla.org/MPL/2.0/. -->
<svg xmlns="http://www.w3.org/2000/svg" width="24" height="24" fill="none" viewBox="0 0 24 24">
    <path fill="#000" fill-rule="evenodd" d="M12.774 4.999c3.194 0 5.824 2.527 5.824 5.693v.712c1.926.38 3.402 2.043 3.402 4.072 0 2.067-1.55 3.82-3.621 4.107a44 44 0 0 1-11.416.085l-.635-.083C3.868 19.245 2 17.195 2 14.724c0-2.732 2.27-4.906 5.017-4.907h.002C7.45 7.073 9.88 5 12.774 5m0 1.75c-2.272 0-4.074 1.788-4.074 3.943a.875.875 0 0 1-.875.875h-.808c-1.826 0-3.267 1.435-3.267 3.157 0 1.555 1.181 2.901 2.817 3.128a42.2 42.2 0 0 0 11.571-.002l.226-.042c1.108-.258 1.886-1.231 1.886-2.332 0-1.305-1.094-2.403-2.492-2.403h-.035a.875.875 0 0 1-.875-.875v-1.506c0-2.155-1.802-3.943-4.074-3.943" clip-rule="evenodd" />
</svg>
