<!-- This Source Code Form is subject to the terms of the Mozilla Public
   - License, v. 2.0. If a copy of the MPL was not distributed with this
   - file, You can obtain one at http://mozilla.org/MPL/2.0/. -->
<svg xmlns="http://www.w3.org/2000/svg" width="24" height="24" fill="none">
    <path fill="#000" d="M16.75 13.5h-9.5v-1.75h9.5zm-9.5 4h9.5v-1.75h-9.5z" />
    <path fill="#000" fill-rule="evenodd" d="M8.057 2c-.887 0-1.71.47-2.157 1.237l-2.53 4.32A.9.9 0 0 0 3.25 8v11.5a2.5 2.5 0 0 0 2.5 2.5h12.5a2.5 2.5 0 0 0 2.5-2.5V8a.9.9 0 0 0-.12-.442L18.1 3.236A2.5 2.5 0 0 0 15.944 2zM7.41 4.12a.75.75 0 0 1 .647-.37h7.886c.266 0 .513.142.648.372l1.831 3.128H5.578zM5 9v10.5c0 .414.336.75.75.75h12.5a.75.75 0 0 0 .75-.75V9z" clip-rule="evenodd" />
</svg>
