<!-- This Source Code Form is subject to the terms of the Mozilla Public
   - License, v. 2.0. If a copy of the MPL was not distributed with this
   - file, You can obtain one at http://mozilla.org/MPL/2.0/. -->
<svg xmlns="http://www.w3.org/2000/svg" width="24" height="24" fill="none" viewBox="0 0 24 24">
    <path fill="#000" d="M15.125 15.75a.875.875 0 0 1 0 1.75h-6.25a.875.875 0 0 1 0-1.75zm0-4a.875.875 0 0 1 0 1.75h-6.25a.875.875 0 0 1 0-1.75z" />
    <path fill="#000" fill-rule="evenodd" d="M12 3c1.524 0 2.89.14 4.056.333.843.14 1.588.616 2.07 1.32l.007.012 1.673 2.44a5.4 5.4 0 0 1 .943 3.041v8.323a3.134 3.134 0 0 1-2.683 3.098A42.6 42.6 0 0 1 5.9 21.561c-1.54-.223-2.651-1.558-2.651-3.09v-8.326c0-1.086.328-2.146.942-3.04l1.685-2.457a3.08 3.08 0 0 1 2.02-1.306A25 25 0 0 1 12 3m0 6c-2.648 0-4.995.258-6.96.598q-.04.27-.041.547v8.327c0 .687.498 1.263 1.152 1.358l.656.09a40.8 40.8 0 0 0 11.01-.085A1.384 1.384 0 0 0 19 18.469v-8.323q0-.275-.042-.546A41 41 0 0 0 12 9m0-4.25a23 23 0 0 0-3.815.317c-.336.056-.653.26-.866.57L5.912 7.689A42.6 42.6 0 0 1 12 7.25c1.75 0 3.806.11 6.085.44l-1.403-2.047-.005-.01a1.37 1.37 0 0 0-.907-.573A23 23 0 0 0 12 4.75" clip-rule="evenodd" />
</svg>
