<!-- This Source Code Form is subject to the terms of the Mozilla Public
   - License, v. 2.0. If a copy of the MPL was not distributed with this
   - file, You can obtain one at http://mozilla.org/MPL/2.0/. -->
<svg xmlns="http://www.w3.org/2000/svg" width="24" height="24" fill="none">
    <path fill="#000" fill-rule="evenodd" d="M5.793 3.875c0-.483.392-.875.875-.875h10.664c.483 0 .875.392.875.875v2.123h2.918c.483 0 .875.392.875.875v3.146c0 2.53-2.022 4.59-4.539 4.65a6.21 6.21 0 0 1-4.586 3.193v2.388h4.143V22H6.982v-1.75h4.143v-2.388a6.21 6.21 0 0 1-4.586-3.193A4.65 4.65 0 0 1 2 10.019V6.873c0-.483.392-.875.875-.875h2.918zm12.316 8.944a2.9 2.9 0 0 0 2.141-2.8V7.748h-2.043v3.968q-.001.566-.098 1.103M5.793 11.716q.001.566.098 1.103a2.9 2.9 0 0 1-2.141-2.8V7.748h2.043zm1.75-6.966v6.966a4.457 4.457 0 1 0 8.914 0V4.75z" clip-rule="evenodd" />
</svg>
