<!-- This Source Code Form is subject to the terms of the Mozilla Public
   - License, v. 2.0. If a copy of the MPL was not distributed with this
   - file, You can obtain one at http://mozilla.org/MPL/2.0/. -->
<svg xmlns="http://www.w3.org/2000/svg" width="24" height="24" fill="none" viewBox="0 0 24 24">
    <path fill="#000" d="M8.5 12.25a1.5 1.5 0 1 1 0 3 1.5 1.5 0 0 1 0-3" />
    <path fill="#000" fill-rule="evenodd" d="M2.256 2.256a.876.876 0 0 1 1.238 0l18.25 18.25a.876.876 0 0 1-1.238 1.238l-2.097-2.096A9.98 9.98 0 0 1 12.003 22c-5.514 0-10-4.486-10-10 0-2.442.882-4.68 2.342-6.417l-2.09-2.089a.876.876 0 0 1 0-1.238m3.33 4.568A8.2 8.2 0 0 0 3.752 12c0 4.549 3.7 8.25 8.25 8.25a8.2 8.2 0 0 0 5.158-1.852l-1.906-1.906a1.25 1.25 0 1 1-1.747-1.747z" clip-rule="evenodd" />
    <path fill="#000" d="M12.002 1.999a10 10 0 0 1 1.741.161c.43.076.739.455.723.892-.001.03-.012.14-.016.17 0 1.845 1.396 3.48 3.248 3.767.274.042.51.212.64.457l.354.674a.88.88 0 0 1-.006.825 3.7 3.7 0 0 0-.46 1.796 3.84 3.84 0 0 0 2.603 3.618.87.87 0 0 1 .534 1.133 10 10 0 0 1-.828 1.687l-1.287-1.287c.047-.088.106-.167.15-.257a5.58 5.58 0 0 1-2.922-4.894c0-.739.145-1.453.431-2.129a5.55 5.55 0 0 1-4.176-4.826 8 8 0 0 0-.73-.036 8.2 8.2 0 0 0-3.907.987L6.82 3.463a9.9 9.9 0 0 1 5.182-1.464" />
    <path fill="#000" d="M10.75 7c.69 0 1.25.56 1.25 1.25 0 .116-.036.22-.066.327l-1.511-1.51c.106-.03.211-.067.327-.067" />
</svg>
