<!-- This Source Code Form is subject to the terms of the Mozilla Public
   - License, v. 2.0. If a copy of the MPL was not distributed with this
   - file, You can obtain one at http://mozilla.org/MPL/2.0/. -->
<svg xmlns="http://www.w3.org/2000/svg" width="24" height="24" fill="none" viewBox="0 0 24 24">
    <path fill="#000" d="M14.25 14.5a1.25 1.25 0 1 1 0 2.5 1.25 1.25 0 0 1 0-2.5M8.5 12.25a1.5 1.5 0 1 1 0 3 1.5 1.5 0 0 1 0-3M10.75 7a1.25 1.25 0 1 1 0 2.5 1.25 1.25 0 0 1 0-2.5" />
    <path fill="#000" fill-rule="evenodd" d="M12.003 2.001c.603 0 1.185.062 1.742.16a.876.876 0 0 1 .713 1.01l-.007.044a3.846 3.846 0 0 0 3.247 3.773c.272.042.511.21.642.458l.353.674a.87.87 0 0 1-.006.824 3.75 3.75 0 0 0-.46 1.797c0 1.678 1.085 3.096 2.601 3.617a.876.876 0 0 1 .535 1.134C19.946 19.287 16.298 22 12.002 22c-5.523 0-10-4.477-10-10s4.477-10 10-9.999m0 1.75a8.25 8.25 0 1 0 0 16.499 8.24 8.24 0 0 0 7.395-4.617c-1.733-.944-2.921-2.768-2.921-4.892 0-.759.159-1.477.434-2.13a5.6 5.6 0 0 1-4.178-4.824 8 8 0 0 0-.369-.027z" clip-rule="evenodd" />
</svg>
