<!-- This Source Code Form is subject to the terms of the Mozilla Public
   - License, v. 2.0. If a copy of the MPL was not distributed with this
   - file, You can obtain one at http://mozilla.org/MPL/2.0/. -->
<svg xmlns="http://www.w3.org/2000/svg" width="24" height="24" fill="none">
    <path fill="#000" d="M21.976 11.488a8.8 8.8 0 0 1-1.976.34V13h-2.5v-1.347c-3.905-.877-6.833-4.366-6.833-8.532 0-.365.03-.724.073-1.077C5.82 2.667 2 6.87 2 11.956c0 5.514 4.486 10 10 10s10-4.486 10-10c0-.158-.016-.312-.024-.468M6.5 13H4v-2.5h2.5zm3.5 5.5H7.5V16H10zM10 8H7.5V5.5H10zm3.5 5H11v-2.5h2.5zm3.5 5.5h-2.5V16H17z" />
</svg>
