<!-- This Source Code Form is subject to the terms of the Mozilla Public
   - License, v. 2.0. If a copy of the MPL was not distributed with this
   - file, You can obtain one at http://mozilla.org/MPL/2.0/. -->
<svg xmlns="http://www.w3.org/2000/svg" width="24" height="24" fill="none">
    <path fill="#000" d="M5.379 4.487 7.5 6.609V5.5H10V8H8.891l10.58 10.58A9.95 9.95 0 0 0 22 11.956q-.002-.157-.014-.313l-.01-.155a8.8 8.8 0 0 1-1.976.34V13h-2.5v-1.347c-3.905-.877-6.833-4.366-6.833-8.532 0-.365.03-.724.073-1.077a9.97 9.97 0 0 0-5.361 2.443" />
    <path fill="#000" fill-rule="evenodd" d="M3.304 7.041A9.9 9.9 0 0 0 2 11.956c0 5.514 4.486 10 10 10a9.93 9.93 0 0 0 4.92-1.299L19.262 23l1.238-1.238-2.117-2.117.018-.015L4.333 5.562l-.015.018L1.738 3 .5 4.238 3.304 7.04zM6.5 13H4v-2.5h2.5zm3.5 5.5H7.5V16H10z" clip-rule="evenodd" />
</svg>
