<!-- This Source Code Form is subject to the terms of the Mozilla Public
   - License, v. 2.0. If a copy of the MPL was not distributed with this
   - file, You can obtain one at http://mozilla.org/MPL/2.0/. -->
<svg xmlns="http://www.w3.org/2000/svg" width="24" height="24" fill="none" viewBox="0 0 24 24">
    <path fill="#000" fill-rule="evenodd" d="M14 7c1.21 0 2.695.085 4.37.367 1.5.253 2.63 1.541 2.63 3.087v7.09a3.12 3.12 0 0 1-2.595 3.084 26.3 26.3 0 0 1-8.81 0A3.12 3.12 0 0 1 7 17.545v-7.09a3.12 3.12 0 0 1 2.595-3.082A26 26 0 0 1 14 7m0 1.75c-1.537 0-2.92.146-4.112.348a1.37 1.37 0 0 0-1.138 1.358v7.089a1.37 1.37 0 0 0 1.138 1.357 24.5 24.5 0 0 0 8.224 0 1.37 1.37 0 0 0 1.138-1.357v-7.091a1.39 1.39 0 0 0-1.172-1.361A24.5 24.5 0 0 0 14 8.75" clip-rule="evenodd" />
    <path fill="#000" d="M5.595 3.37a26.4 26.4 0 0 1 8.775-.006 3.14 3.14 0 0 1 2.447 2.044 28 28 0 0 0-2.245-.133 1.4 1.4 0 0 0-.492-.185 24.6 24.6 0 0 0-8.191.006A1.37 1.37 0 0 0 4.75 6.454v7.09c0 .42.2.786.5 1.04v1.953A3.11 3.11 0 0 1 3 13.544v-7.09A3.115 3.115 0 0 1 5.594 3.37" />
</svg>
