<!-- This Source Code Form is subject to the terms of the Mozilla Public
   - License, v. 2.0. If a copy of the MPL was not distributed with this
   - file, You can obtain one at http://mozilla.org/MPL/2.0/. -->
<svg xmlns="http://www.w3.org/2000/svg" width="24" height="24" fill="none">
    <path fill="#000" d="M9 13.125H6v1.75h3z" />
    <path fill="#000" fill-rule="evenodd" d="M2 6.5A2.5 2.5 0 0 1 4.5 4h15A2.5 2.5 0 0 1 22 6.5v10a2.5 2.5 0 0 1-2.5 2.5h-15A2.5 2.5 0 0 1 2 16.5zm2.5-.75a.75.75 0 0 0-.75.75v1.75h16.5V6.5a.75.75 0 0 0-.75-.75zM3.75 16.5V10h16.5v6.5a.75.75 0 0 1-.75.75h-15a.75.75 0 0 1-.75-.75" clip-rule="evenodd" />
</svg>
