<!-- This Source Code Form is subject to the terms of the Mozilla Public
   - License, v. 2.0. If a copy of the MPL was not distributed with this
   - file, You can obtain one at http://mozilla.org/MPL/2.0/. -->
<svg xmlns="http://www.w3.org/2000/svg" width="24" height="24" fill="none" viewBox="0 0 24 24">
    <path fill="#000" fill-rule="evenodd" d="M6.532 3c.655 0 1.31.228 1.837.691a96 96 0 0 1 8.69 8.69 2.805 2.805 0 0 1-.135 3.833l-.235.234 4.055 4.056a.876.876 0 1 1-1.238 1.238l-.001.001-4.056-4.055-.233.234a2.82 2.82 0 0 1-1.996.827c-.655 0-1.31-.229-1.837-.691a96 96 0 0 1-8.69-8.69 2.805 2.805 0 0 1 .135-3.833l1.708-1.708A2.82 2.82 0 0 1 6.532 3m0 1.75c-.287 0-.555.112-.758.315L4.066 6.773a1.056 1.056 0 0 0-.06 1.44 94 94 0 0 0 8.533 8.532c.24.21.503.255.68.255.287 0 .556-.112.758-.315l1.708-1.708a1.056 1.056 0 0 0 .06-1.44 94 94 0 0 0-8.532-8.532 1.02 1.02 0 0 0-.68-.255M18.5 2C20.43 2 22 3.57 22 5.5S20.43 9 18.5 9 15 7.43 15 5.5 16.57 2 18.5 2m0 1.75c-.965 0-1.75.785-1.75 1.75s.785 1.75 1.75 1.75 1.75-.785 1.75-1.75-.785-1.75-1.75-1.75" clip-rule="evenodd" />
</svg>
