<svg width="24" height="24" viewBox="0 0 24 24" fill="none" xmlns="http://www.w3.org/2000/svg">
<path fill-rule="evenodd" clip-rule="evenodd" d="M12 2C17.514 2 22 6.486 22 12C22 17.514 17.514 22 12 22C6.486 22 2 17.514 2 12C2 6.486 6.486 2 12 2ZM12 15C11.4477 15 11 15.4477 11 16C11 16.5523 11.4477 17 12 17C12.5523 17 13 16.5523 13 16C13 15.4477 12.5523 15 12 15ZM12 7C11.517 7 11.125 7.392 11.125 7.875V12.625C11.125 13.108 11.517 13.5 12 13.5C12.483 13.5 12.875 13.108 12.875 12.625V7.875C12.875 7.392 12.483 7 12 7Z" fill="black"/>
</svg>
