<svg width="24" height="24" viewBox="0 0 24 24" fill="none" xmlns="http://www.w3.org/2000/svg">
<path fill-rule="evenodd" clip-rule="evenodd" d="M12 2C17.514 2 22 6.486 22 12C22 17.514 17.514 22 12 22C6.486 22 2 17.514 2 12C2 6.486 6.486 2 12 2ZM15.4941 8.50586C15.1524 8.16416 14.5976 8.16418 14.2559 8.50586L12 10.7617L9.74414 8.50586C9.40244 8.16416 8.84757 8.16418 8.50586 8.50586C8.16415 8.84757 8.16415 9.40243 8.50586 9.74414L10.7617 12L8.50586 14.2559C8.16415 14.5976 8.16415 15.1524 8.50586 15.4941C8.84757 15.8358 9.40244 15.8358 9.74414 15.4941L12 13.2383L14.2559 15.4941C14.5976 15.8358 15.1524 15.8358 15.4941 15.4941C15.8358 15.1524 15.8358 14.5976 15.4941 14.2559L13.2383 12L15.4941 9.74414C15.8358 9.40244 15.8358 8.84756 15.4941 8.50586Z" fill="black"/>
</svg>
