<svg width="24" height="24" viewBox="0 0 24 24" fill="none" xmlns="http://www.w3.org/2000/svg">
<path d="M14.2559 8.50586C14.5976 8.16415 15.1524 8.16415 15.4941 8.50586C15.8358 8.84757 15.8358 9.40243 15.4941 9.74414L13.2383 12L15.4941 14.2559C15.8358 14.5976 15.8358 15.1524 15.4941 15.4941C15.1524 15.8358 14.5976 15.8358 14.2559 15.4941L12 13.2383L9.74414 15.4941C9.40243 15.8358 8.84757 15.8358 8.50586 15.4941C8.16415 15.1524 8.16415 14.5976 8.50586 14.2559L10.7617 12L8.50586 9.74414C8.16415 9.40243 8.16415 8.84757 8.50586 8.50586C8.84757 8.16415 9.40243 8.16415 9.74414 8.50586L12 10.7617L14.2559 8.50586Z" fill="black"/>
<path fill-rule="evenodd" clip-rule="evenodd" d="M12 2C17.5228 2 22 6.47715 22 12C22 17.5228 17.5228 22 12 22C6.47715 22 2 17.5228 2 12C2 6.47715 6.47715 2 12 2ZM12 3.75C7.44365 3.75 3.75 7.44365 3.75 12C3.75 16.5563 7.44365 20.25 12 20.25C16.5563 20.25 20.25 16.5563 20.25 12C20.25 7.44365 16.5563 3.75 12 3.75Z" fill="black"/>
</svg>
