<svg width="24" height="24" viewBox="0 0 24 24" fill="none" xmlns="http://www.w3.org/2000/svg">
<path d="M17.5058 5.25585C17.8475 4.91415 18.4024 4.91415 18.7441 5.25585C19.0858 5.59756 19.0858 6.15243 18.7441 6.49414L13.2382 12L18.7441 17.5059C19.0858 17.8476 19.0858 18.4024 18.7441 18.7441C18.4024 19.0858 17.8475 19.0858 17.5058 18.7441L11.9999 13.2383L6.49407 18.7441C6.15237 19.0858 5.5975 19.0858 5.25579 18.7441C4.91408 18.4024 4.91408 17.8476 5.25579 17.5059L10.7617 12L5.25579 6.49414C4.91408 6.15243 4.91408 5.59756 5.25579 5.25585C5.5975 4.91415 6.15237 4.91415 6.49407 5.25585L11.9999 10.7617L17.5058 5.25585Z" fill="black"/>
</svg>
