<!-- This Source Code Form is subject to the terms of the Mozilla Public
   - License, v. 2.0. If a copy of the MPL was not distributed with this
   - file, You can obtain one at http://mozilla.org/MPL/2.0/. -->
<svg xmlns="http://www.w3.org/2000/svg" width="24" height="24" fill="none" viewBox="0 0 24 24">
    <path fill="#000" d="M14.256 8.506a.876.876 0 0 1 1.238 1.238L13.238 12l2.256 2.256a.876.876 0 0 1-1.238 1.238L12 13.238l-2.256 2.256a.876.876 0 0 1-1.238-1.238L10.762 12 8.506 9.744a.876.876 0 0 1 1.238-1.238L12 10.762z" />
    <path fill="#000" fill-rule="evenodd" d="M12 2c5.523 0 10 4.477 10 10s-4.477 10-10 10S2 17.523 2 12 6.477 2 12 2m0 1.75a8.25 8.25 0 1 0 0 16.5 8.25 8.25 0 0 0 0-16.5" clip-rule="evenodd" />
</svg>
