<!-- This Source Code Form is subject to the terms of the Mozilla Public
   - License, v. 2.0. If a copy of the MPL was not distributed with this
   - file, You can obtain one at http://mozilla.org/MPL/2.0/. -->
<svg xmlns="http://www.w3.org/2000/svg" width="24" height="24" fill="none" viewBox="0 0 24 24">
    <path fill="#000" fill-rule="evenodd" d="M8.618 9.96c-1.57.196-3.131.506-4.649.974a1.519 1.519 0 0 1-1.916-1.85v-.001c.8-2.994 3.239-5.322 6.217-5.928.102-.022.206-.035.31-.055a2.65 2.65 0 0 1 1.63-.953c1.21-.2 2.443-.196 3.633.01.65.112 1.206.46 1.591.95.092.017.187.024.28.043 2.987.606 5.434 2.935 6.233 5.934l.002-.001a1.53 1.53 0 0 1-.415 1.493c-.398.38-.975.517-1.503.354a27 27 0 0 0-4.648-.983 2.6 2.6 0 0 1-.384.37l-.018 8.988A2.705 2.705 0 0 1 12.28 22h-.557a2.707 2.707 0 0 1-2.702-2.694L9 10.328a2.6 2.6 0 0 1-.383-.367m4.63.966Q12.623 11 12 11q-.626-.001-1.248-.074l.019 8.375c.002.523.43.949.952.949h.557c.523 0 .95-.426.95-.949zM12 3.75c-.498 0-1.005.042-1.503.124a.884.884 0 0 0-.747.869v3.514c0 .422.303.792.704.86a9.2 9.2 0 0 0 3.05.009.884.884 0 0 0 .746-.87V4.743a.87.87 0 0 0-.704-.86A9 9 0 0 0 12 3.75M8 5.04c-1.919.61-3.48 2.14-4.137 4.098A29 29 0 0 1 8 8.252zm7.91-.98q.089.328.09.682v3.515l.001-.002v-.003c1.396.195 2.778.486 4.136.883-.658-1.954-2.217-3.484-4.136-4.096V4.74q-.002-.354-.09-.68" clip-rule="evenodd" />
</svg>
