<svg width="24" height="24" fill="none" xmlns="http://www.w3.org/2000/svg"><path fill-rule="evenodd" clip-rule="evenodd" d="M6.63 19.94c1.39 1.37 3.23 2.05 5.06 2.05l-.01-.01c1.84 0 3.68-.68 5.08-2.05 1.75-1.76 2.71-4.12 2.71-6.67 0-1.73-.48-3.42-1.39-4.9a.873.873 0 0 0-.74-.42c-.3 0-.58.16-.74.42a7.56 7.56 0 0 1-1.24 1.53c-.43-3.58-2.92-6.65-6.46-7.85a.864.864 0 0 0-.89.2c-.23.23-.32.58-.22.89.78 2.5.2 5.24-1.5 7.23l-.09.09c-.03.04-.09.11-.09.11l-.05.06a.265.265 0 0 0-.025.03c-.007.01-.015.02-.025.03-2.17 2.76-1.93 6.77.62 9.26zm1.22-1.25c-1.94-1.89-2.12-4.85-.45-6.95v-.02a9.416 9.416 0 0 0 2.42-7.36c2.36 1.38 3.86 3.89 3.86 6.64 0 .19-.01.38-.02.57-.02.33.14.64.42.81.28.18.63.17.91 0 .83-.52 1.58-1.16 2.21-1.9.35.88.53 1.82.53 2.78 0 2.08-.78 4.01-2.19 5.43a5.413 5.413 0 0 1-1.298.937c.162-.486.258-1.01.258-1.557 0-1.78-.87-3.37-2.24-4.01a.593.593 0 0 0-.52 0c-1.37.64-2.24 2.23-2.24 4.01 0 .665.134 1.294.362 1.864A5.424 5.424 0 0 1 7.85 18.69z" fill="#000"/></svg>