<!-- This Source Code Form is subject to the terms of the Mozilla Public
   - License, v. 2.0. If a copy of the MPL was not distributed with this
   - file, You can obtain one at http://mozilla.org/MPL/2.0/. -->
<svg xmlns="http://www.w3.org/2000/svg" width="24" height="24" fill="none" viewBox="0 0 24 24">
    <path fill="#000" fill-rule="evenodd" d="M7.542 2.08c.355.042.711.117 1.05.236 3.457 1.21 5.734 3.739 6.422 6.829l1.475-1.267a.873.873 0 0 1 1.25.114c2.89 3.58 3.026 8.636.315 11.305-1.266 1.569-3.286 2.52-5.694 2.68a11 11 0 0 1-.706.023c-2.428 0-4.762-.828-6.217-2.233-1.989-1.921-2.673-4.3-1.926-6.698.266-.853 1.282-2.689 1.908-3.45C6.97 7.54 6.568 4.956 5.952 3.16a.874.874 0 0 1 .828-1.159s.377.032.761.078m.442 1.828c.464 2.047.468 4.572-1.188 6.79-.508.618-1.414 2.248-1.614 2.89-.693 2.224.417 3.903 1.47 4.92.634.612 1.52 1.084 2.524 1.382-.04-.381-.066-.75-.066-1.082 0-2.795.86-4.716 2.227-5.72a.44.44 0 0 1 .26-.086V13h.006v.002q.137 0 .26.087c1.368 1.003 2.227 2.925 2.227 5.719 0 .34-.026.716-.068 1.105 1.127-.343 2.056-.938 2.697-1.748q.036-.046.078-.087c1.91-1.844 1.907-5.459.11-8.253l-2.005 1.724a.875.875 0 0 1-1.446-.664c0-3.001-2.175-5.743-5.472-6.977" clip-rule="evenodd" />
</svg>
