<!-- This Source Code Form is subject to the terms of the Mozilla Public
   - License, v. 2.0. If a copy of the MPL was not distributed with this
   - file, You can obtain one at http://mozilla.org/MPL/2.0/. -->
<svg xmlns="http://www.w3.org/2000/svg" width="24" height="24" fill="none" viewBox="0 0 24 24">
    <path fill="#000" d="M15.484 2 14.11 4.382A6 6 0 0 0 12 4c-.742 0-1.453.135-2.109.383L8.516 2 7 2.876l1.36 2.356a6 6 0 0 0-2.144 3.169L4.75 7.508V4H3v4c0 .306.16.589.42.748L6 10.318v5.364l-2.58 1.57A.88.88 0 0 0 3 18v4h1.75v-3.508l1.466-.893A6.01 6.01 0 0 0 12 22a6.01 6.01 0 0 0 5.784-4.4l1.466.892V22H21v-4a.88.88 0 0 0-.42-.747L18 15.683v-5.365l2.58-1.57A.88.88 0 0 0 21 8V4h-1.75v3.508l-1.466.893a6 6 0 0 0-2.145-3.169l1.36-2.357z" />
    <path fill="#fff" d="M15.05 12.914c-.16-.26-.587-.26-.748 0a4 4 0 0 1-.623.77c-.218-1.797-1.467-3.341-3.244-3.942a.44.44 0 0 0-.56.546 3.83 3.83 0 0 1-.753 3.628q-.023.02-.044.044l-.046.054-.027.032-.024.03a3.48 3.48 0 0 0-.732 1.926A3.75 3.75 0 0 0 15.75 16v-.624c0-.87-.242-1.722-.7-2.462" />
</svg>
