<!-- This Source Code Form is subject to the terms of the Mozilla Public
   - License, v. 2.0. If a copy of the MPL was not distributed with this
   - file, You can obtain one at http://mozilla.org/MPL/2.0/. -->
<svg xmlns="http://www.w3.org/2000/svg" width="24" height="24" fill="none">
    <path fill="#000" d="M10.75 10v8H9v-8zM15 10v8h-1.75v-8z" />
    <path fill="#000" fill-rule="evenodd" d="M10.5 2A2.5 2.5 0 0 0 8 4.5V6H3.25v1.75H4.5V19.5A2.5 2.5 0 0 0 7 22h10a2.5 2.5 0 0 0 2.5-2.5V7.75h1.25V6H16V4.5A2.5 2.5 0 0 0 13.5 2zm3.75 4V4.5a.75.75 0 0 0-.75-.75h-3a.75.75 0 0 0-.75.75V6zm3.5 1.75H6.25V19.5c0 .414.336.75.75.75h10a.75.75 0 0 0 .75-.75z" clip-rule="evenodd" />
</svg>
