<!-- This Source Code Form is subject to the terms of the Mozilla Public
   - License, v. 2.0. If a copy of the MPL was not distributed with this
   - file, You can obtain one at http://mozilla.org/MPL/2.0/. -->
<svg xmlns="http://www.w3.org/2000/svg" width="24" height="24" fill="none" viewBox="0 0 24 24">
    <path fill="#000" d="M9.875 10c.483 0 .875.392.875.875v6.25a.875.875 0 1 1-1.75 0v-6.25c0-.483.392-.875.875-.875m4.25 0c.483 0 .875.392.875.875v6.25a.875.875 0 1 1-1.75 0v-6.25c0-.483.392-.875.875-.875" />
    <path fill="#000" fill-rule="evenodd" d="M12 2c.79 0 1.499.085 2.105.205C15.23 2.426 16 3.424 16 4.535v1.644c1.339.118 2.773.304 4.285.586a.875.875 0 0 1-.32 1.72q-.234-.042-.465-.08V18.52a3.13 3.13 0 0 1-2.633 3.09 30.6 30.6 0 0 1-9.78-.008C5.573 21.355 4.5 20.025 4.5 18.523V8.403l-.465.082a.875.875 0 0 1-.32-1.72A45 45 0 0 1 8 6.18V4.534c0-1.147.821-2.121 1.936-2.337A11 11 0 0 1 12 2m0 5.75c-2.113 0-4.042.156-5.75.384v10.39c0 .677.484 1.247 1.12 1.351a28.7 28.7 0 0 0 9.218.007l.124-.027a1.376 1.376 0 0 0 1.038-1.335V8.13A43.5 43.5 0 0 0 12 7.75m0-4c-.34 0-.76.019-1.237.084l-.495.081a.636.636 0 0 0-.518.62v1.52a45 45 0 0 1 4.5.004V4.534a.615.615 0 0 0-.482-.611A9 9 0 0 0 12 3.75" clip-rule="evenodd" />
</svg>
