<!-- This Source Code Form is subject to the terms of the Mozilla Public
   - License, v. 2.0. If a copy of the MPL was not distributed with this
   - file, You can obtain one at http://mozilla.org/MPL/2.0/. -->
<svg width="24" height="24" fill="none" xmlns="http://www.w3.org/2000/svg"><path fill-rule="evenodd" clip-rule="evenodd" d="M7 2a2.5 2.5 0 0 0-2.5 2.5v15A2.5 2.5 0 0 0 7 22h10a2.5 2.5 0 0 0 2.5-2.5v-15A2.5 2.5 0 0 0 17 2H7zm-.75 2.5A.75.75 0 0 1 7 3.75h10a.75.75 0 0 1 .75.75V17H6.25V4.5zM10 20.25h4v-1.5h-4v1.5z" fill="#000"/></svg>
