<!-- This Source Code Form is subject to the terms of the Mozilla Public
   - License, v. 2.0. If a copy of the MPL was not distributed with this
   - file, You can obtain one at http://mozilla.org/MPL/2.0/. -->
<svg xmlns="http://www.w3.org/2000/svg" width="24" height="24" fill="none" viewBox="0 0 24 24">
    <path fill="#000" d="M13 5c1.822 0 3.95.11 6.305.441A3.136 3.136 0 0 1 22 8.541v6.92a3.13 3.13 0 0 1-1.482 2.664h1.607a.875.875 0 0 1 0 1.75H3.875a.875.875 0 0 1 0-1.75h1.622A3.13 3.13 0 0 1 4 15.459V14.25h1.75v1.209c0 .684.51 1.27 1.188 1.366a43.5 43.5 0 0 0 12.153-.004 1.365 1.365 0 0 0 1.159-1.36v-6.92c0-.684-.51-1.27-1.189-1.366a43.5 43.5 0 0 0-12.152.004 1.365 1.365 0 0 0-1.159 1.36V9.75H4V8.538c0-1.537 1.119-2.874 2.664-3.093A45 45 0 0 1 13 5" />
    <path fill="#000" d="M8.302 9.702a.7.7 0 0 1 1.194-.495l2.299 2.299a.7.7 0 0 1 0 .99l-2.299 2.298a.7.7 0 0 1-1.194-.495V12.75H2.75a.75.75 0 0 1 0-1.5h5.552z" />
</svg>
