<!-- This Source Code Form is subject to the terms of the Mozilla Public
   - License, v. 2.0. If a copy of the MPL was not distributed with this
   - file, You can obtain one at http://mozilla.org/MPL/2.0/. -->
<svg xmlns="http://www.w3.org/2000/svg" width="24" height="24" fill="none" viewBox="0 0 24 24">
    <path fill="#000" d="M20.125 17c.483 0 .875.392.875.875v.587c0 1.537-1.12 2.874-2.664 3.093a45.2 45.2 0 0 1-12.64.004A3.136 3.136 0 0 1 3 18.459v-.584a.875.875 0 0 1 1.75 0v.584c0 .684.51 1.27 1.188 1.366a43.5 43.5 0 0 0 12.153-.004 1.365 1.365 0 0 0 1.159-1.36v-.586c0-.483.392-.875.875-.875" />
    <path fill="#000" d="M12 3c.483 0 .875.392.875.875v10.653l3.13-3.129a.876.876 0 0 1 1.238 1.238l-3.741 3.74a2.1 2.1 0 0 1-1.503.622 2.1 2.1 0 0 1-1.502-.621l-3.741-3.741A.875.875 0 0 1 7.994 11.4l3.131 3.13V3.874c0-.483.392-.875.875-.875" />
</svg>
