<!-- This Source Code Form is subject to the terms of the Mozilla Public
   - License, v. 2.0. If a copy of the MPL was not distributed with this
   - file, You can obtain one at http://mozilla.org/MPL/2.0/. -->
<svg xmlns="http://www.w3.org/2000/svg" width="24" height="24" fill="none" viewBox="0 0 24 24">
    <path fill="#000" fill-rule="evenodd" d="M4.98 3.966a3.29 3.29 0 0 1 4.338-.28l.124.101.764.66A89 89 0 0 1 20.541 15.12c.303.37.46.826.46 1.293v3.714a.875.875 0 0 1-.876.875h-3.714c-.466 0-.922-.155-1.294-.459a89 89 0 0 1-4.736-4.165l-.693-.661a89 89 0 0 1-5.242-5.509l-.66-.764a3.29 3.29 0 0 1 .178-4.462zm2.5 6.996a87 87 0 0 0 8.745 8.226h.002q.072.061.184.063h2.84v-2.839a.3.3 0 0 0-.064-.184 87 87 0 0 0-4.732-5.325 87 87 0 0 0-3.494-3.422zm.826-5.844a1.537 1.537 0 0 0-2.088.085L5.201 6.218a1.54 1.54 0 0 0-.084 2.089q.575.673 1.184 1.358l3.362-3.362a88 88 0 0 0-1.357-1.185" clip-rule="evenodd" />
</svg>
