<!-- This Source Code Form is subject to the terms of the Mozilla Public
   - License, v. 2.0. If a copy of the MPL was not distributed with this
   - file, You can obtain one at http://mozilla.org/MPL/2.0/. -->
<svg xmlns="http://www.w3.org/2000/svg" width="24" height="24" fill="none">
    <path fill="#000" fill-rule="evenodd" d="M5.277 2.732a2.5 2.5 0 0 1 3.536 0l12.93 12.931a.88.88 0 0 1 .257.619v4.843a.875.875 0 0 1-.875.875h-4.843a.88.88 0 0 1-.619-.256L2.733 8.813a2.5 2.5 0 0 1 0-3.536zM6.515 3.97a.75.75 0 0 1 1.06 0l1.768 1.767-3.606 3.606L3.97 7.575a.75.75 0 0 1 0-1.06zm.46 6.61 9.67 9.67h3.605v-3.606l-9.67-9.67z" clip-rule="evenodd" />
</svg>
