<!-- This Source Code Form is subject to the terms of the Mozilla Public
   - License, v. 2.0. If a copy of the MPL was not distributed with this
   - file, You can obtain one at http://mozilla.org/MPL/2.0/. -->
<svg xmlns="http://www.w3.org/2000/svg" width="24" height="24" fill="none">
    <path fill="#000" fill-rule="evenodd" d="m8.549 14.264.001-.014H3.913a.166.166 0 0 1-.163-.169V7.809l4.95 3.997a.88.88 0 0 0 1.1 0l4.95-3.997v4.406c.444.238.87.512 1.249.862.111-.104.233-.191.355-.279q.075-.052.146-.106V6.919A1.92 1.92 0 0 0 14.587 5H3.913A1.92 1.92 0 0 0 2 6.919v7.161C2 15.139 2.858 16 3.913 16h4.628c-.044-.634-.054-1.275.006-1.721q0-.008.002-.014zM9.25 10 5.224 6.75h8.052z" clip-rule="evenodd" />
    <path fill="#000" fill-rule="evenodd" d="M20.996 13.113c.58.134.982.675.952 1.282.157.607-.08 2.803-.21 3.15-.26 1.401-1.382 2.455-2.726 2.455a2.6 2.6 0 0 1-1.652-.613v.002l-.439-.372a1.44 1.44 0 0 0-1.884.015l-.293.256c-.481.438-1.089.712-1.76.712-1.344 0-2.465-1.054-2.727-2.456-.129-.347-.358-2.553-.21-3.15v-.003a1.246 1.246 0 0 1 .952-1.278H11a4.39 4.39 0 0 1 4.024 1.107l.181.172c.215.205.499.319.793.319s.577-.114.792-.318l.185-.175a4.39 4.39 0 0 1 4.021-1.105m-6.75 3.99q.246-.147.428-.355a.54.54 0 0 0 0-.693 1.8 1.8 0 0 0-1.374-.607 1.85 1.85 0 0 0-1.272.5q-.054.051-.102.107a.54.54 0 0 0 0 .693c.32.369.816.607 1.374.607.349 0 .673-.093.946-.253zm5.828-.355c-.32.369-.816.607-1.374.607a1.81 1.81 0 0 1-1.374-.607.54.54 0 0 1 0-.693c.32-.369.816-.607 1.374-.607a1.8 1.8 0 0 1 1.374.607.54.54 0 0 1 0 .693" clip-rule="evenodd" />
</svg>
