<!-- This Source Code Form is subject to the terms of the Mozilla Public
   - License, v. 2.0. If a copy of the MPL was not distributed with this
   - file, You can obtain one at http://mozilla.org/MPL/2.0/. -->
<svg xmlns="http://www.w3.org/2000/svg" width="24" height="24" fill="none" viewBox="0 0 24 24">
    <path fill="#000" fill-rule="evenodd" d="M17.378 11c.396.002.79.121 1.133.357a12.5 12.5 0 0 0 2.266 1.232 2.01 2.01 0 0 1 1.189 2.214l-.28 1.502a5.5 5.5 0 0 1-.627 1.762 4 4 0 0 1-.131.21c-.66 1-1.561 1.87-2.54 2.45A1.97 1.97 0 0 1 17.38 21a2 2 0 0 1-1.024-.283c-.97-.578-1.869-1.444-2.525-2.438-.362-.55-.618-1.216-.76-1.98l-.28-1.525c-.171-.928.327-1.86 1.184-2.216.306-.128.629-.275.959-.446a13 13 0 0 0 1.303-.764c.348-.234.745-.35 1.14-.348m-.009 1.5a.53.53 0 0 0-.299.094c-.465.309-.952.597-1.449.85-.366.19-.725.354-1.068.498a.504.504 0 0 0-.287.56l.28 1.525c.104.564.286 1.044.537 1.425.534.808 1.258 1.51 2.041 1.975.078.046.167.07.256.07l-.002-6.998h-.01z" clip-rule="evenodd" />
    <path fill="#000" fill-rule="evenodd" d="M4.63 5.391a30.7 30.7 0 0 1 9.781.008 3.08 3.08 0 0 1 2.54 2.533l.007.011-.005.002q.046.26.046.532v1.051a3.5 3.5 0 0 0-1.597.573c-.049.033-.103.058-.153.09V8.997l-4.11 2.535a3.12 3.12 0 0 1-3.279 0L3.75 8.996v3.528c0 .667.481 1.248 1.12 1.352 2.107.344 4.267.434 6.41.302a3.4 3.4 0 0 0 .037.868v-.001l.16.875c-.66.043-1.32.08-1.977.08-1.642 0-3.295-.133-4.912-.398C3.089 15.359 2 14.064 2 12.524V8.48q0-.273.046-.535l-.004-.002.006-.01A3.12 3.12 0 0 1 4.63 5.39M9.5 6.751c-1.532 0-3.076.124-4.589.369a1.4 1.4 0 0 0-.536.206l4.404 2.716c.445.275.998.275 1.443 0l4.407-2.719a1.3 1.3 0 0 0-.5-.197A29 29 0 0 0 9.5 6.75" clip-rule="evenodd" />
</svg>
