<!-- This Source Code Form is subject to the terms of the Mozilla Public
   - License, v. 2.0. If a copy of the MPL was not distributed with this
   - file, You can obtain one at http://mozilla.org/MPL/2.0/. -->
<svg width="24" height="24" fill="none" xmlns="http://www.w3.org/2000/svg">
    <path fill-rule="evenodd" clip-rule="evenodd" d="M11.05 14.83c-.04-.2-.05-.39-.05-.58H3.91c-.09 0-.16-.08-.16-.17V7.809L8.7 11.81c.16.13.36.19.55.19v-.01c.19 0 .39-.06.55-.19l4.94-3.985v2.575l.98-.51c.24-.13.51-.22.77-.29V6.92c0-1.06-.86-1.92-1.91-1.92H3.91C2.86 5 2 5.86 2 6.92v7.16C2 15.14 2.86 16 3.91 16h7.36l-.22-1.17zM9.25 10 5.224 6.75h8.051L9.25 10z" fill="#000" />
    <path fill-rule="evenodd" clip-rule="evenodd" d="M17.26 21.01c-.24 0-.48-.05-.7-.15-1.11-.5-2.12-1.36-2.86-2.42-.4-.57-.67-1.23-.81-1.98l-.36-1.9c-.13-.71.21-1.42.86-1.76l3.04-1.61c.5-.26 1.09-.26 1.59 0l3.1 1.63c.68.36.99 1.07.84 1.9l-.33 1.75c-.14.74-.41 1.4-.81 1.97-.73 1.06-1.75 1.92-2.85 2.42-.23.1-.46.15-.71.15zm-.04-8.52s-.06 0-.09.02l-3.04 1.61c-.07.04-.1.1-.09.16l.36 1.9c.1.54.29 1.01.57 1.4.59.84 1.38 1.52 2.24 1.91l.08.02h.007l-.024-7.027a.107.107 0 0 0-.023-.003l.01.01z" fill="#000" />
</svg>
