<!-- This Source Code Form is subject to the terms of the Mozilla Public
   - License, v. 2.0. If a copy of the MPL was not distributed with this
   - file, You can obtain one at http://mozilla.org/MPL/2.0/. -->
<svg xmlns="http://www.w3.org/2000/svg" width="24" height="24" fill="none" viewBox="0 0 24 24">
    <path fill="#000" fill-rule="evenodd" d="M17.517 14.418c.652-1.308 1.158-1.617 1.73-1.499.503.104.808 1.008.975 1.402.323.765.596 1.532.754 2.343.108.56.399.973.967.973l.004.002a.212.212 0 0 1 .193.286c-.122.325-.497.532-.809.652.142.037.561-.045.578.163.013.172-.421.343-.54.4-1.102.531-2.117 1.484-3.42 1.315-.568-.074-.981-.473-1.445-.72a.75.75 0 0 0-.703 0c-.464.247-.878.646-1.445.72-1.304.169-2.317-.783-3.42-1.314-.117-.055-.555-.229-.54-.4.018-.211.437-.127.578-.164-.313-.12-.687-.327-.809-.652-.05-.135.048-.286.193-.286.57-.002.859-.413.967-.973.157-.813.43-1.578.754-2.344.167-.391.472-1.297.975-1.4.572-.12 1.08.188 1.731 1.498.537 1.078.9 1.832.9 1.832v.007l.369-.003.009-.002h.185l.368.003v-.007s.364-.752.9-1.832m-2.128 4.202c-.266-.852-1.357-1.174-2.18-1.037-.139.023-.52.157-.503.332v.002c.37.917 1.927 1.392 2.683.703m3.7-1.037c-.822-.136-1.912.184-2.179 1.035.756.692 2.31.214 2.683-.703.016-.175-.365-.31-.503-.332" clip-rule="evenodd" />
    <path fill="#000" fill-rule="evenodd" d="M4.632 5.39a30.7 30.7 0 0 1 9.78.009 3.08 3.08 0 0 1 2.541 2.535l.005.009-.004.002q.046.26.046.532v3.583c-.33.342-.606.755-.85 1.197-.255-.464-.547-.897-.9-1.248V8.995l-4.111 2.537a3.1 3.1 0 0 1-1.64.467 3.1 3.1 0 0 1-1.639-.468L3.75 8.997v3.527c0 .667.481 1.247 1.12 1.351a28.6 28.6 0 0 0 4.285.36h1.072c-.21.544-.397 1.118-.539 1.727-1.335-.041-3.792-.145-5.1-.36C3.089 15.36 2 14.064 2 12.525V8.48q0-.273.046-.534l-.005-.003.007-.013a3.12 3.12 0 0 1 2.584-2.54M9.5 6.75c-1.532 0-3.076.123-4.589.368a1.4 1.4 0 0 0-.537.207l4.404 2.717c.445.275.998.275 1.443 0l4.409-2.72a1.3 1.3 0 0 0-.5-.198A29 29 0 0 0 9.5 6.75" clip-rule="evenodd" />
</svg>
