<!-- This Source Code Form is subject to the terms of the Mozilla Public
   - License, v. 2.0. If a copy of the MPL was not distributed with this
   - file, You can obtain one at http://mozilla.org/MPL/2.0/. -->
<svg xmlns="http://www.w3.org/2000/svg" width="24" height="24" fill="none" viewBox="0 0 24 24">
    <path fill="#000" d="M7.75 16a1.25 1.25 0 1 1 0 2.5 1.25 1.25 0 0 1 0-2.5" />
    <path fill="#000" fill-rule="evenodd" d="M12.5 9.5a3 3 0 1 1 0 6 3 3 0 0 1 0-6m0 1.75a1.25 1.25 0 1 0 0 2.5 1.25 1.25 0 0 0 0-2.5" clip-rule="evenodd" />
    <path fill="#000" d="M17.25 6.5a1.25 1.25 0 1 1 0 2.5 1.25 1.25 0 0 1 0-2.5" />
    <path fill="#000" fill-rule="evenodd" d="M14.883 3.464c2.52-.814 4.618-.552 5.912.74 1.292 1.293 1.555 3.392.74 5.912a14 14 0 0 1-1.047 2.384c.436.799.793 1.6 1.047 2.384.815 2.52.55 4.62-.74 5.912-.799.8-1.908 1.205-3.234 1.205-.817 0-1.717-.155-2.678-.465a14 14 0 0 1-2.384-1.047c-.799.436-1.6.793-2.383 1.047-.961.31-1.862.465-2.68.465-1.325 0-2.433-.407-3.233-1.206-1.291-1.292-1.555-3.392-.74-5.91.254-.786.611-1.586 1.047-2.385-.436-.8-.793-1.6-1.047-2.384-.815-2.52-.55-4.62.74-5.912 1.293-1.292 3.392-1.553 5.913-.74.784.254 1.585.611 2.383 1.047.8-.436 1.6-.793 2.384-1.047m4.52 10.776a21.4 21.4 0 0 1-5.163 5.163c.397.18.793.342 1.183.468 1.834.594 3.342.481 4.135-.313.792-.792.907-2.3.313-4.135a12 12 0 0 0-.467-1.183m-1.855-9.488c-.629 0-1.347.125-2.124.376-.389.126-.785.288-1.182.468.32.226.634.482.95.732a2.5 2.5 0 0 0-.395 1.93 18.5 18.5 0 0 0-2.295-1.722 19 19 0 0 0-3.304 2.657 19 19 0 0 0-2.659 3.306 18.5 18.5 0 0 0 1.729 2.305 2.48 2.48 0 0 0-1.933.39c-.252-.317-.51-.632-.736-.955-.18.397-.342.793-.468 1.183-.594 1.835-.48 3.343.314 4.135.792.793 2.298.907 4.134.313.39-.126.785-.288 1.183-.468-.322-.228-.638-.485-.955-.736a2.48 2.48 0 0 0 .39-1.933c.75.654 1.524 1.238 2.305 1.729a19 19 0 0 0 3.305-2.658 19 19 0 0 0 2.657-3.305 18.6 18.6 0 0 0-1.726-2.302 2.5 2.5 0 0 0 1.927-.396c.252.318.51.636.739.96.18-.398.341-.794.467-1.184l.001-.001c.594-1.835.48-3.343-.313-4.135-.457-.458-1.152-.69-2.01-.69m-10.095 0c-.859 0-1.554.232-2.011.69l-.001.001c-.792.792-.907 2.3-.313 4.135.126.389.288.785.468 1.183a21.4 21.4 0 0 1 5.164-5.164 11 11 0 0 0-1.183-.468c-.775-.251-1.494-.376-2.124-.376" clip-rule="evenodd" />
</svg>
