<!-- This Source Code Form is subject to the terms of the Mozilla Public
   - License, v. 2.0. If a copy of the MPL was not distributed with this
   - file, You can obtain one at http://mozilla.org/MPL/2.0/. -->
<svg xmlns="http://www.w3.org/2000/svg" width="24" height="24" fill="none">
    <path fill="#000" d="M16.75 6a1.25 1.25 0 1 0 0 2.5 1.25 1.25 0 0 0 0-2.5" />
    <path fill="#000" fill-rule="evenodd" d="M12 9.125a2.875 2.875 0 1 0 0 5.75 2.875 2.875 0 0 0 0-5.75M10.875 12a1.125 1.125 0 1 1 2.25 0 1.125 1.125 0 0 1-2.25 0" clip-rule="evenodd" />
    <path fill="#000" d="M6 16.75a1.25 1.25 0 1 0 2.5 0 1.25 1.25 0 0 0-2.5 0" />
    <path fill="#000" fill-rule="evenodd" d="M21.035 9.616A14 14 0 0 1 19.988 12c.436.799.793 1.599 1.049 2.384.815 2.52.55 4.62-.74 5.912-.8.8-1.908 1.205-3.234 1.205-.817 0-1.717-.155-2.678-.465A14 14 0 0 1 12 19.989c-.8.436-1.6.793-2.384 1.047-.961.311-1.861.465-2.678.465-1.326 0-2.434-.406-3.234-1.205-1.292-1.293-1.555-3.393-.74-5.912.254-.785.61-1.585 1.047-2.384a14 14 0 0 1-1.047-2.384c-.815-2.519-.552-4.619.74-5.911 1.292-1.293 3.39-1.555 5.91-.74.786.254 1.586.611 2.385 1.047a14 14 0 0 1 2.383-1.048c2.52-.814 4.618-.552 5.912.74 1.292 1.293 1.555 3.392.74 5.912zM6.953 4.253c-.86 0-1.554.231-2.011.689-.792.792-.906 2.3-.314 4.136.126.389.288.785.468 1.183a21.4 21.4 0 0 1 5.164-5.164c-.397-.18-.793-.342-1.183-.468-.776-.251-1.494-.376-2.124-.376m7.97 15.118c1.834.594 3.342.481 4.135-.313.792-.792.906-2.3.314-4.136a12 12 0 0 0-.468-1.183 21.3 21.3 0 0 1-2.36 2.803l-.001.001a21.4 21.4 0 0 1-2.803 2.36c.397.18.793.342 1.183.468m3.98-9.111c.18-.397.342-.793.468-1.183.593-1.835.479-3.343-.314-4.136-.457-.458-1.152-.689-2.011-.689-.63 0-1.347.125-2.124.376-.39.126-.785.288-1.183.468.264.186.524.393.784.6l.167.132a2.49 2.49 0 0 0-.395 1.929A18.5 18.5 0 0 0 12 6.036a19 19 0 0 0-3.306 2.658A19 19 0 0 0 6.036 12a18.6 18.6 0 0 0 1.73 2.305 2.48 2.48 0 0 0-1.933.39l-.116-.146a17 17 0 0 1-.62-.809c-.18.397-.342.793-.468 1.183-.594 1.835-.48 3.343.313 4.135.792.793 2.298.907 4.135.313.389-.126.785-.288 1.183-.468-.268-.19-.532-.4-.796-.61l-.16-.126a2.48 2.48 0 0 0 .392-1.933c.75.654 1.524 1.238 2.305 1.729a19 19 0 0 0 3.305-2.657v-.001A19 19 0 0 0 17.965 12a18.6 18.6 0 0 0-1.727-2.302 2.48 2.48 0 0 0 1.928-.397q.06.077.122.153c.212.267.425.534.616.806z" clip-rule="evenodd" />
</svg>
