<!-- This Source Code Form is subject to the terms of the Mozilla Public
   - License, v. 2.0. If a copy of the MPL was not distributed with this
   - file, You can obtain one at http://mozilla.org/MPL/2.0/. -->
<svg xmlns="http://www.w3.org/2000/svg" width="24" height="24" fill="none" viewBox="0 0 24 24">
    <path fill="#000" d="M11.371 19.238a41.5 41.5 0 0 1-5.394-.294 1.41 1.41 0 0 1-1.228-1.4v-.949h.955a3.12 3.12 0 0 0 3.117-3.111 3.12 3.12 0 0 0-3.117-3.111H4.75v-.884a1.415 1.415 0 0 1 1.248-1.402 41 41 0 0 1 2.635-.235.875.875 0 0 0 .825-.874v-1.69a1.54 1.54 0 0 1 1.543-1.535 1.54 1.54 0 0 1 1.542 1.535V7.02c0 .463.363.847.826.873 1.004.057 1.839.123 2.626.21a1.41 1.41 0 0 1 1.254 1.403v2.021c.166-.013.331-.025.5-.025.428 0 .845.044 1.25.123V9.506a3.157 3.157 0 0 0-2.812-3.144 48 48 0 0 0-1.893-.166v-.91a3.293 3.293 0 0 0-6.586.001v.872q-.963.074-1.923.191a3.17 3.17 0 0 0-2.786 3.141l.002 1.758c0 .482.393.874.875.874h1.828c.754 0 1.367.61 1.367 1.361s-.613 1.361-1.367 1.361H3.876a.876.876 0 0 0-.875.874l-.002 1.823a3.16 3.16 0 0 0 2.765 3.139c1.731.213 3.493.32 5.236.32.324 0 .649-.023.974-.03a6.5 6.5 0 0 1-.604-1.732z" />
    <path fill="#000" fill-rule="evenodd" d="M17.75 13c2.757 0 5 2.243 5 5s-2.243 5-5 5-5-2.243-5-5 2.243-5 5-5m0 4.75a.75.75 0 0 0-.75.75v1.75a.75.75 0 0 0 1.5 0V18.5a.75.75 0 0 0-.75-.75m0-2.75a.75.75 0 1 0 0 1.5.75.75 0 0 0 0-1.5" clip-rule="evenodd" />
</svg>
