<svg width="24" height="24" viewBox="0 0 24 24" fill="none" xmlns="http://www.w3.org/2000/svg">
<path fill-rule="evenodd" clip-rule="evenodd" d="M18.5499 12.755L22.5489 19.749C23.1219 20.751 22.4009 22 21.2499 22H13.2509C12.0989 22 11.3779 20.751 11.9519 19.749L15.9509 12.755C16.5259 11.748 17.9739 11.748 18.5499 12.755ZM18 15H16.5V17.75H18V15ZM18 19H16.5V20.5H18V19Z" fill="black"/>
<path d="M10.548 19.25H3.5C3.087 19.25 2.75 18.914 2.75 18.5V17H4.25C6.18 17 7.75 15.43 7.75 13.5C7.75 11.57 6.18 10 4.25 10H2.75V8.5C2.75 8.086 3.087 7.75 3.5 7.75H6.875C7.358 7.75 7.75 7.358 7.75 6.875V4.5C7.75 3.535 8.535 2.75 9.5 2.75C10.465 2.75 11.25 3.535 11.25 4.5V6.875C11.25 7.358 11.642 7.75 12.125 7.75H15.5C15.913 7.75 16.25 8.086 16.25 8.5V10.69C16.567 10.578 16.898 10.5 17.25 10.5C17.508 10.5 17.759 10.537 18 10.598V8.5C18 7.122 16.879 6 15.5 6H13V4.5C13 2.57 11.43 1 9.5 1C7.57 1 6 2.57 6 4.5V6H3.5C2.121 6 1 7.122 1 8.5V10.875C1 11.358 1.392 11.75 1.875 11.75H4.25C5.215 11.75 6 12.535 6 13.5C6 14.465 5.215 15.25 4.25 15.25H1.875C1.392 15.25 1 15.642 1 16.125V18.5C1 19.878 2.121 21 3.5 21H10.314C10.212 20.411 10.289 19.809 10.548 19.25Z" fill="black"/>
</svg>
