<!-- This Source Code Form is subject to the terms of the Mozilla Public
   - License, v. 2.0. If a copy of the MPL was not distributed with this
   - file, You can obtain one at http://mozilla.org/MPL/2.0/. -->
<svg xmlns="http://www.w3.org/2000/svg" width="24" height="24" fill="none" viewBox="0 0 24 24">
    <path fill="#000" fill-rule="evenodd" d="M12.001 3.001a3.29 3.29 0 0 1 3.292 3.284v.913c.607.042 1.24.092 1.893.164A3.165 3.165 0 0 1 20 10.505v8.042c0 1.575-1.163 2.937-2.752 3.133a43 43 0 0 1-10.483 0A3.16 3.16 0 0 1 4 18.542l.003-1.824.005-.09a.875.875 0 0 1 .87-.784h1.828c.758 0 1.368-.612 1.368-1.36 0-.75-.61-1.362-1.368-1.362H4.877a.875.875 0 0 1-.875-.874L4 10.49a3.163 3.163 0 0 1 2.787-3.14l.657-.076Q8.06 7.21 8.71 7.16v-.873a3.29 3.29 0 0 1 3.292-3.285m0 1.75c-.854 0-1.542.69-1.542 1.535v1.69a.875.875 0 0 1-.824.874 42 42 0 0 0-2.005.165L7 9.088a1.41 1.41 0 0 0-1.249 1.401l.001.884h.954c1.72 0 3.118 1.39 3.118 3.111s-1.398 3.11-3.118 3.11h-.954l-.002.95c0 .712.53 1.315 1.228 1.4l.688.08a41.2 41.2 0 0 0 9.368-.08l.127-.022a1.4 1.4 0 0 0 1.089-1.374v-8.042c0-.672-.478-1.25-1.122-1.383l-.132-.02a50 50 0 0 0-2.628-.211.875.875 0 0 1-.824-.874V6.285c0-.844-.688-1.534-1.542-1.534" clip-rule="evenodd" />
</svg>
