<!-- This Source Code Form is subject to the terms of the Mozilla Public
   - License, v. 2.0. If a copy of the MPL was not distributed with this
   - file, You can obtain one at http://mozilla.org/MPL/2.0/. -->
<svg xmlns="http://www.w3.org/2000/svg" width="24" height="24" fill="none" viewBox="0 0 24 24">
    <path fill="#000" d="m10.918 19.727.304-.516a41.6 41.6 0 0 1-6.244-.268 1.41 1.41 0 0 1-1.228-1.4v-.949h.955a3.12 3.12 0 0 0 3.117-3.111 3.12 3.12 0 0 0-3.117-3.111h-.954v-.884a1.415 1.415 0 0 1 1.248-1.402 41 41 0 0 1 2.635-.235.875.875 0 0 0 .825-.874v-1.69a1.54 1.54 0 0 1 1.543-1.535 1.54 1.54 0 0 1 1.542 1.535v1.732c0 .463.363.847.826.873 1.004.057 1.839.123 2.626.21a1.41 1.41 0 0 1 1.254 1.403v2.286a3 3 0 0 1 1.25-.29c.172 0 .335.037.5.064v-2.06a3.157 3.157 0 0 0-2.812-3.144 48 48 0 0 0-1.893-.166v-.91a3.293 3.293 0 0 0-6.586.001v.872q-.963.074-1.923.191A3.17 3.17 0 0 0 2 9.49l.002 1.758c0 .482.393.874.875.874h1.828c.754 0 1.367.61 1.367 1.361s-.613 1.361-1.367 1.361H2.877a.876.876 0 0 0-.875.874L2 17.541a3.16 3.16 0 0 0 2.765 3.139c1.731.213 3.493.32 5.236.32.175 0 .351-.014.527-.016.039-.436.16-.866.39-1.257" />
    <path fill="#000" fill-rule="evenodd" d="M16.18 13.75c.59-1 2.051-1 2.64 0l3.97 6.74a1.506 1.506 0 0 1-1.115 2.258 34.8 34.8 0 0 1-8.33.002c-1.093-.132-1.689-1.322-1.135-2.262zM17.5 20a.75.75 0 1 0 0 1.5.75.75 0 0 0 0-1.5m0-4.5a.75.75 0 0 0-.75.75V18a.75.75 0 0 0 1.5 0v-1.75a.75.75 0 0 0-.75-.75" clip-rule="evenodd" />
</svg>
