<!-- This Source Code Form is subject to the terms of the Mozilla Public
   - License, v. 2.0. If a copy of the MPL was not distributed with this
   - file, You can obtain one at http://mozilla.org/MPL/2.0/. -->
<svg xmlns="http://www.w3.org/2000/svg" width="24" height="24" fill="none" viewBox="0 0 24 24">
    <path fill="#000" d="M12.5 2.999a2.5 2.5 0 0 1 2.5 2.5v1.575c.947.055 1.893.134 2.83.252a2.76 2.76 0 0 1 2.419 2.718l.001-.002v7.9l-.001.015-.014.254a2.764 2.764 0 0 1-2.405 2.462 41.8 41.8 0 0 1-10.441-.004A2.746 2.746 0 0 1 5 17.94V16.5a.5.5 0 0 1 .5-.5h2c1.088 0 2-.882 2-1.97v-.06c0-1.088-.912-1.97-2-1.97h-2a.5.5 0 0 1-.5-.5v-1.441A2.746 2.746 0 0 1 7.389 7.33Q8.688 7.164 10 7.082V5.499a2.5 2.5 0 0 1 2.5-2.5" />
</svg>
