<!-- This Source Code Form is subject to the terms of the Mozilla Public
   - License, v. 2.0. If a copy of the MPL was not distributed with this
   - file, You can obtain one at http://mozilla.org/MPL/2.0/. -->
<svg width="24" height="24" fill="none" xmlns="http://www.w3.org/2000/svg"><path d="M18.5 22h-12A2.5 2.5 0 0 1 4 19.5v-2.125c0-.483.392-.875.875-.875H7A2.25 2.25 0 1 0 7 12H4.875A.875.875 0 0 1 4 11.125V9.5A2.5 2.5 0 0 1 6.5 7H10V4.875a2.875 2.875 0 1 1 5.75 0V7h2.75A2.5 2.5 0 0 1 21 9.5v10a2.5 2.5 0 0 1-2.5 2.5z" fill="#000"/></svg>
