<!-- This Source Code Form is subject to the terms of the Mozilla Public
   - License, v. 2.0. If a copy of the MPL was not distributed with this
   - file, You can obtain one at http://mozilla.org/MPL/2.0/. -->
<svg width="24" height="24" fill="none" xmlns="http://www.w3.org/2000/svg"><path d="M5.5 4A2.5 2.5 0 0 0 3 6.5v12A2.5 2.5 0 0 0 5.5 21h12a2.5 2.5 0 0 0 2.5-2.5V12h-1.75v6.5a.75.75 0 0 1-.75.75h-12a.75.75 0 0 1-.75-.75v-12a.75.75 0 0 1 .75-.75H12V4H5.5z" fill="#000"/><path d="M14.788 4h4.462a.75.75 0 0 1 .75.75v4.541a.75.75 0 0 1-1.285.526l-1.633-1.662L12.238 13 11 11.762l4.856-4.855-1.603-1.631A.75.75 0 0 1 14.788 4z" fill="#000"/></svg>