<svg width="24" height="24" fill="none" xmlns="http://www.w3.org/2000/svg"><path d="M3.5 19.25h7.986a2.424 2.424 0 0 0 .176 1.75H3.5A2.503 2.503 0 0 1 1 18.5v-2.375c0-.483.392-.875.875-.875H4.25c.965 0 1.75-.785 1.75-1.75s-.785-1.75-1.75-1.75H1.875A.875.875 0 0 1 1 10.875V8.5C1 7.122 2.121 6 3.5 6H6V4.5C6 2.57 7.57 1 9.5 1S13 2.57 13 4.5V6h2.5C16.879 6 18 7.122 18 8.5V11h-.439c-.478 0-.928.149-1.311.398V8.5a.75.75 0 0 0-.75-.75h-3.375a.875.875 0 0 1-.875-.875V4.5c0-.965-.785-1.75-1.75-1.75s-1.75.785-1.75 1.75v2.375a.875.875 0 0 1-.875.875H3.5a.75.75 0 0 0-.75.75V10h1.5c1.93 0 3.5 1.57 3.5 3.5S6.18 17 4.25 17h-1.5v1.5c0 .414.337.75.75.75z" fill="#000"/><path fill-rule="evenodd" clip-rule="evenodd" d="m22.022 18.397.835.881a.92.92 0 0 1 .129 1.089l-.441.764a.924.924 0 0 1-1.015.431l-1.155-.288a4.037 4.037 0 0 1-.714.43l-.338 1.14a.923.923 0 0 1-.879.656h-.883a.92.92 0 0 1-.881-.664l-.324-1.127a4.005 4.005 0 0 1-.73-.435l-1.154.288a.92.92 0 0 1-1.015-.431l-.441-.764a.921.921 0 0 1 .129-1.09l.834-.879-.004-.03a2.62 2.62 0 0 1-.033-.367c0-.136.018-.267.036-.398l.003-.019-.829-.858a.92.92 0 0 1-.135-1.095l.442-.764a.923.923 0 0 1 1.007-.433l1.174.282c.244-.178.48-.318.716-.424l.324-1.127a.921.921 0 0 1 .881-.664h.883c.403 0 .764.27.879.656l.338 1.14c.227.104.453.238.699.418l1.174-.282a.923.923 0 0 1 1.008.433l.441.764a.922.922 0 0 1-.134 1.095l-.829.858.003.019a2.9 2.9 0 0 1 .036.398c0 .118-.015.233-.03.347l-.007.05zM16.5 18a1.5 1.5 0 1 0 3.001-.001A1.5 1.5 0 0 0 16.5 18z" fill="#000"/></svg>