<!-- This Source Code Form is subject to the terms of the Mozilla Public
   - License, v. 2.0. If a copy of the MPL was not distributed with this
   - file, You can obtain one at http://mozilla.org/MPL/2.0/. -->
<svg xmlns="http://www.w3.org/2000/svg" width="24" height="24" fill="none" viewBox="0 0 24 24">
    <path fill="#000" d="M12.001 4.75a44 44 0 0 0-6.09.429 1.37 1.37 0 0 0-1.16 1.36v10.92c0 .683.51 1.271 1.188 1.367 4.018.564 8.137.561 12.152-.005a1.37 1.37 0 0 0 1.159-1.36V12h1.751v5.462c0 1.549-1.145 2.878-2.665 3.092A45 45 0 0 1 12 21c-2.099 0-4.22-.148-6.306-.441A3.144 3.144 0 0 1 3 17.459V6.539c0-1.55 1.145-2.879 2.665-3.093A45 45 0 0 1 12 3.003z" />
    <path fill="#000" d="M20.25 3a.75.75 0 0 1 .75.75v4.541a.75.75 0 0 1-1.285.526l-1.633-1.66-5.225 5.225a.876.876 0 1 1-1.238-1.24l5.236-5.236-1.602-1.63A.75.75 0 0 1 15.788 3z" />
</svg>
