<svg width="24" height="24" viewBox="0 0 24 24" fill="none" xmlns="http://www.w3.org/2000/svg">
<path d="M10.918 19.727L11.222 19.211C9.136 19.272 7.042 19.195 4.978 18.943C4.278 18.856 3.749 18.255 3.75 17.543V16.594H4.705C6.424 16.594 7.822 15.198 7.822 13.483C7.822 11.768 6.424 10.372 4.705 10.372H3.751V9.48801C3.749 8.77601 4.286 8.17401 4.999 8.08601C5.875 7.98001 6.762 7.89901 7.634 7.85101C8.097 7.82501 8.459 7.44101 8.459 6.97701V5.28701C8.459 4.44001 9.151 3.75201 10.002 3.75201C10.853 3.75201 11.544 4.44001 11.544 5.28701V7.01901C11.544 7.48201 11.907 7.86601 12.37 7.89201C13.374 7.94901 14.209 8.01501 14.996 8.10201C15.711 8.18001 16.25 8.78401 16.25 9.50501V11.791C16.637 11.616 17.054 11.501 17.5 11.501C17.672 11.501 17.835 11.538 18 11.565V9.50501C18 7.88901 16.791 6.53801 15.188 6.36101C14.596 6.29701 13.981 6.24201 13.295 6.19501V5.28501C13.295 3.47401 11.816 2.00101 10.001 2.00101C8.186 2.00101 6.709 3.47501 6.709 5.28601V6.15801C6.068 6.20701 5.425 6.27101 4.786 6.34901C3.196 6.54401 1.999 7.89401 2 9.49001L2.002 11.248C2.002 11.73 2.395 12.122 2.877 12.122H4.705C5.459 12.122 6.072 12.732 6.072 13.483C6.072 14.234 5.459 14.844 4.705 14.844H2.877C2.395 14.844 2.003 15.236 2.002 15.718L2 17.541C2 19.137 3.187 20.486 4.765 20.68C6.496 20.893 8.258 21 10.001 21C10.176 21 10.352 20.986 10.528 20.984C10.567 20.548 10.688 20.118 10.918 19.727Z" fill="black"/>
<path fill-rule="evenodd" clip-rule="evenodd" d="M16.1803 13.75C16.7704 12.7502 18.231 12.7501 18.82 13.75L22.7907 20.4902C23.3386 21.4202 22.7554 22.6171 21.6754 22.748C20.1276 22.935 18.7215 23 17.4997 23C15.9899 23 14.5982 22.901 13.3444 22.75C12.2525 22.618 11.656 21.4282 12.2096 20.4883L16.1803 13.75ZM17.4997 20C17.0856 20.0002 16.7497 20.3359 16.7497 20.75C16.7497 21.1641 17.0856 21.4998 17.4997 21.5C17.9139 21.5 18.2497 21.1642 18.2497 20.75C18.2497 20.3358 17.9139 20 17.4997 20ZM17.4997 15.5C17.0856 15.5002 16.7497 15.8359 16.7497 16.25V18C16.7497 18.4141 17.0856 18.7498 17.4997 18.75C17.9139 18.75 18.2497 18.4142 18.2497 18V16.25C18.2497 15.8358 17.9139 15.5 17.4997 15.5Z" fill="black"/>
</svg>
