<!-- This Source Code Form is subject to the terms of the Mozilla Public
   - License, v. 2.0. If a copy of the MPL was not distributed with this
   - file, You can obtain one at http://mozilla.org/MPL/2.0/. -->
<svg xmlns="http://www.w3.org/2000/svg" width="24" height="24" fill="none" viewBox="0 0 24 24">
    <path fill="#000" fill-rule="evenodd" d="M17.068 13.218a2.1 2.1 0 0 1 1.864 0c.279.14.482.393.557.695l.221.885q.315.149.629.374l.889-.254c.3-.086.62-.037.88.135.543.359.892.962.931 1.613.02.311-.1.613-.324.83l-.663.64c.016.12.028.24.028.364s-.012.244-.028.363l.663.642c.224.216.342.518.323.829a2.1 2.1 0 0 1-.932 1.613c-.26.173-.58.221-.88.135l-.89-.254q-.312.224-.628.374l-.22.885a1.07 1.07 0 0 1-.557.695 2.1 2.1 0 0 1-1.862 0 1.07 1.07 0 0 1-.558-.695l-.221-.885q-.315-.149-.629-.374l-.888.254c-.298.087-.62.036-.881-.134a2.1 2.1 0 0 1-.932-1.614c-.019-.311.1-.613.324-.83l.663-.64a3 3 0 0 1-.028-.364c0-.124.012-.244.028-.363l-.663-.642a1.06 1.06 0 0 1-.323-.829c.039-.65.388-1.254.932-1.613.259-.173.58-.222.88-.135l.89.254q.313-.225.628-.374l.22-.885c.076-.302.28-.555.557-.695m.933 3.507a1.776 1.776 0 0 0 0 3.55 1.775 1.775 0 0 0 0-3.55" clip-rule="evenodd" />
    <path fill="#000" d="M11 2.001a3.294 3.294 0 0 1 3.294 3.284v.91a48 48 0 0 1 1.893.166A3.157 3.157 0 0 1 19 9.505v2.156a3.6 3.6 0 0 0-1-.16 3.6 3.6 0 0 0-.75.087V9.505c0-.721-.539-1.325-1.254-1.403a49 49 0 0 0-2.626-.21.876.876 0 0 1-.826-.873V5.287a1.54 1.54 0 0 0-1.542-1.535 1.54 1.54 0 0 0-1.543 1.535v1.69a.875.875 0 0 1-.825.874c-.872.048-1.759.129-2.635.235-.713.088-1.25.69-1.248 1.402v.884h.954a3.12 3.12 0 0 1 3.117 3.111 3.12 3.12 0 0 1-3.117 3.11H4.75v.95a1.41 1.41 0 0 0 1.228 1.4c1.89.231 3.805.316 5.715.284a2.56 2.56 0 0 0-.23 1.197c.01.19.06.375.1.56-.186.001-.375.016-.562.016-1.743 0-3.505-.107-5.236-.32A3.16 3.16 0 0 1 3 17.541l.002-1.823a.877.877 0 0 1 .875-.874h1.828c.754 0 1.367-.61 1.367-1.36 0-.752-.613-1.362-1.367-1.362H3.876a.876.876 0 0 1-.875-.874L2.999 9.49a3.17 3.17 0 0 1 2.786-3.14 43 43 0 0 1 1.923-.19v-.873A3.293 3.293 0 0 1 11 2.001" />
</svg>
