<!-- This Source Code Form is subject to the terms of the Mozilla Public
   - License, v. 2.0. If a copy of the MPL was not distributed with this
   - file, You can obtain one at http://mozilla.org/MPL/2.0/. -->
<svg xmlns="http://www.w3.org/2000/svg" width="24" height="24" fill="none" viewBox="0 0 24 24">
    <path fill="#000" fill-rule="evenodd" d="M22.25 17a5 5 0 1 1-10 0 5 5 0 0 1 10 0M18 17v-2.75h-1.5V17zm0 2.75v-1.5h-1.5v1.5z" clip-rule="evenodd" />
    <path fill="#000" d="M11.16 19.25H3.5a.75.75 0 0 1-.75-.75V17h1.5c1.93 0 3.5-1.57 3.5-3.5S6.18 10 4.25 10h-1.5V8.5a.75.75 0 0 1 .75-.75h3.375a.875.875 0 0 0 .875-.875V4.5c0-.965.785-1.75 1.75-1.75s1.75.785 1.75 1.75v2.375c0 .483.392.875.875.875H15.5a.75.75 0 0 1 .75.75v2.085a6.5 6.5 0 0 1 1-.085q.38.002.75.047V8.5C18 7.122 16.879 6 15.5 6H13V4.5C13 2.57 11.43 1 9.5 1S6 2.57 6 4.5V6H3.5A2.503 2.503 0 0 0 1 8.5v2.375c0 .483.392.875.875.875H4.25c.965 0 1.75.785 1.75 1.75s-.785 1.75-1.75 1.75H1.875a.875.875 0 0 0-.875.875V18.5C1 19.878 2.121 21 3.5 21h8.637a6.5 6.5 0 0 1-.977-1.75" />
</svg>
