<!-- This Source Code Form is subject to the terms of the Mozilla Public
   - License, v. 2.0. If a copy of the MPL was not distributed with this
   - file, You can obtain one at http://mozilla.org/MPL/2.0/. -->
<svg xmlns="http://www.w3.org/2000/svg" width="24" height="24" fill="none" viewBox="0 0 24 24">
    <path fill="#000" fill-rule="evenodd" d="M12 8a3.5 3.5 0 1 1 0 7.001 3.5 3.5 0 0 1 0-7m0 1.75a1.75 1.75 0 1 0 0 3.5 1.75 1.75 0 0 0 0-3.5" clip-rule="evenodd" />
    <path fill="#000" fill-rule="evenodd" d="M12 4.017c4.188 0 7.791 2.407 9.614 5.903a3.43 3.43 0 0 1 0 3.159c-1.823 3.496-5.426 5.903-9.614 5.903s-7.791-2.407-9.614-5.903a3.43 3.43 0 0 1 0-3.159C4.21 6.424 7.811 4.017 12 4.017m0 1.75c-3.493 0-6.52 2.006-8.062 4.963-.25.48-.25 1.06 0 1.54l.149.274c1.582 2.807 4.529 4.688 7.913 4.688 3.493 0 6.52-2.005 8.062-4.962.25-.48.25-1.06 0-1.54l-.148-.274C18.33 7.649 15.384 5.767 12 5.767" clip-rule="evenodd" />
</svg>
