<!-- This Source Code Form is subject to the terms of the Mozilla Public
   - License, v. 2.0. If a copy of the MPL was not distributed with this
   - file, You can obtain one at http://mozilla.org/MPL/2.0/. -->
<svg width="24" height="24" fill="none" xmlns="http://www.w3.org/2000/svg"><path fill-rule="evenodd" clip-rule="evenodd" d="M12 9a3.375 3.375 0 1 0 0 6.75A3.375 3.375 0 0 0 12 9zm-1.625 3.375a1.625 1.625 0 1 1 3.25 0 1.625 1.625 0 0 1-3.25 0z" fill="#000"/><path fill-rule="evenodd" clip-rule="evenodd" d="M12 5.269c-4.497 0-8.3 2.837-9.8 6.796a.875.875 0 0 0 0 .62c1.5 3.96 5.303 6.796 9.8 6.796 4.497 0 8.3-2.837 9.8-6.796a.874.874 0 0 0 0-.62C20.3 8.105 16.497 5.27 12 5.27zm0 12.462c-3.62 0-6.71-2.21-8.04-5.356C5.29 9.228 8.38 7.019 12 7.019c3.62 0 6.71 2.21 8.04 5.356-1.33 3.147-4.42 5.356-8.04 5.356z" fill="#000"/></svg>
