<!-- This Source Code Form is subject to the terms of the Mozilla Public
   - License, v. 2.0. If a copy of the MPL was not distributed with this
   - file, You can obtain one at http://mozilla.org/MPL/2.0/. -->
<svg xmlns="http://www.w3.org/2000/svg" width="24" height="24" fill="none" viewBox="0 0 24 24">
    <path fill="#000" fill-rule="evenodd" d="M1.256 2.256a.876.876 0 0 1 1.238 0l18.25 18.25a.876.876 0 0 1-1.238 1.238l-3.53-3.53c-1.246.5-2.591.768-3.978.768-4.032 0-7.717-2.262-9.614-5.904a3.4 3.4 0 0 1 0-3.157 11 11 0 0 1 2.299-3L1.256 3.494a.876.876 0 0 1 0-1.238M5.913 8.15a9.4 9.4 0 0 0-1.976 2.58 1.66 1.66 0 0 0 0 1.537C5.533 15.33 8.622 17.232 12 17.232c.895 0 1.766-.141 2.596-.4l-1.907-1.905A3.4 3.4 0 0 1 12 15c-1.93 0-3.5-1.57-3.5-3.5q.001-.356.071-.691z" clip-rule="evenodd" />
    <path fill="#000" d="M12 4.018c4.032 0 7.717 2.262 9.614 5.904a3.4 3.4 0 0 1 0 3.158 11.1 11.1 0 0 1-2.76 3.418l-1.246-1.246a9.3 9.3 0 0 0 2.454-2.982 1.67 1.67 0 0 0 0-1.538C18.467 7.67 15.378 5.768 12 5.768a8.9 8.9 0 0 0-3.246.63L7.42 5.065A10.7 10.7 0 0 1 12 4.018" />
    <path fill="#000" d="M12 8a3.504 3.504 0 0 1 3.222 4.866l-1.484-1.484a1.74 1.74 0 0 0-1.62-1.62l-1.484-1.484C11.054 8.1 11.516 8 12 8" />
</svg>
