<!-- This Source Code Form is subject to the terms of the Mozilla Public
   - License, v. 2.0. If a copy of the MPL was not distributed with this
   - file, You can obtain one at http://mozilla.org/MPL/2.0/. -->
<svg xmlns="http://www.w3.org/2000/svg" width="24" height="24" fill="none">
    <path fill="#000" fill-rule="evenodd" d="m8.227 5.99-3.74-3.74L3.25 3.488 6.573 6.81A10.55 10.55 0 0 0 2.2 12.065a.9.9 0 0 0 0 .621c1.54 4.064 5.479 6.795 9.8 6.795a10.4 10.4 0 0 0 5.595-1.648l2.917 2.917 1.238-1.238-2.75-2.75.004-.003-1.221-1.22-.004.003-2.475-2.476.001-.006-3.99-3.99-.006.001-1.71-1.71h.006L8.232 5.986l-.005.002zm4.988 7.463-2.293-2.293a1.62 1.62 0 0 0-.547 1.215 1.623 1.623 0 0 0 2.84 1.078m-4.59-1.078a3.36 3.36 0 0 1 1.06-2.453L7.838 8.077a8.7 8.7 0 0 0-3.88 4.298C5.337 15.64 8.457 17.731 12 17.731c1.57 0 3.054-.411 4.342-1.152l-1.889-1.888A3.37 3.37 0 0 1 12 15.75a3.38 3.38 0 0 1-3.375-3.375" clip-rule="evenodd" />
    <path fill="#000" d="m11.427 7.061.203-.018c.122-.012.245-.024.37-.024 3.544 0 6.664 2.091 8.04 5.356a9 9 0 0 1-1.233 2.066l1.236 1.236a10.5 10.5 0 0 0 1.757-2.992.9.9 0 0 0 0-.621C20.26 8 16.321 5.269 12 5.269c-.726 0-1.439.083-2.134.231z" />
    <path fill="#000" d="M14.526 10.16a3 3 0 0 0-.311-.311z" />
</svg>
