<!-- This Source Code Form is subject to the terms of the Mozilla Public
   - License, v. 2.0. If a copy of the MPL was not distributed with this
   - file, You can obtain one at http://mozilla.org/MPL/2.0/. -->
<svg width="24" height="24" fill="none" xmlns="http://www.w3.org/2000/svg"><path fill-rule="evenodd" clip-rule="evenodd" d="m8.227 5.99-3.74-3.74L3.25 3.488 6.573 6.81A10.552 10.552 0 0 0 2.2 12.065a.885.885 0 0 0 0 .621C3.74 16.75 7.679 19.481 12 19.481c2.018 0 3.95-.598 5.595-1.648l2.917 2.917 1.238-1.238-2.75-2.75.004-.003-1.221-1.22-.004.003-2.475-2.476.001-.006-3.99-3.99-.006.001-1.71-1.71h.006L8.232 5.986l-.005.002zm4.988 7.463-2.293-2.293a1.622 1.622 0 0 0-.547 1.215c0 .896.729 1.625 1.625 1.625.483 0 .917-.212 1.215-.547zm-4.59-1.078c0-.966.407-1.838 1.06-2.453L7.838 8.077a8.7 8.7 0 0 0-3.88 4.298C5.337 15.64 8.457 17.731 12 17.731c1.57 0 3.054-.411 4.342-1.152l-1.889-1.888A3.365 3.365 0 0 1 12 15.75a3.379 3.379 0 0 1-3.375-3.375z" fill="#000"/><path d="M11.427 7.061c.068-.005.135-.011.203-.018.122-.012.245-.024.37-.024 3.544 0 6.664 2.091 8.04 5.356a8.909 8.909 0 0 1-1.233 2.066l1.236 1.236a10.466 10.466 0 0 0 1.757-2.992.885.885 0 0 0 0-.621C20.26 8 16.321 5.269 12 5.269c-.726 0-1.439.083-2.134.231l1.561 1.561z" fill="#000"/><path d="M14.526 10.16a3.381 3.381 0 0 0-.311-.311l.311.311z" fill="#000"/></svg>
