<!-- This Source Code Form is subject to the terms of the Mozilla Public
   - License, v. 2.0. If a copy of the MPL was not distributed with this
   - file, You can obtain one at http://mozilla.org/MPL/2.0/. -->
<svg xmlns="http://www.w3.org/2000/svg" width="24" height="24" fill="none" viewBox="0 0 24 24">
    <path fill="#000" fill-rule="evenodd" d="M16 13c2.206 0 4 1.794 4 4 0 .786-.236 1.514-.629 2.133L22 21.762 20.762 23l-2.63-2.629A3.97 3.97 0 0 1 16 21c-2.206 0-4-1.794-4-4s1.794-4 4-4m0 1.75c-1.24 0-2.25 1.01-2.25 2.25s1.01 2.25 2.25 2.25 2.25-1.01 2.25-2.25-1.01-2.25-2.25-2.25" clip-rule="evenodd" />
    <path fill="#000" d="M11.5 2a.88.88 0 0 1 .62.256l4.624 4.625A.88.88 0 0 1 17 7.5v4.096a5.5 5.5 0 0 0-1-.096 6 6 0 0 0-.75.057V8.5H11.5a1 1 0 0 1-1-1V3.75h-6a.75.75 0 0 0-.75.75v14c0 .413.337.75.75.75h6.487a5.5 5.5 0 0 0 1.25 1.75H4.5A2.5 2.5 0 0 1 2 18.5v-14C2 3.121 3.121 2 4.5 2z" />
</svg>
