<!-- This Source Code Form is subject to the terms of the Mozilla Public
   - License, v. 2.0. If a copy of the MPL was not distributed with this
   - file, You can obtain one at http://mozilla.org/MPL/2.0/. -->
<svg xmlns="http://www.w3.org/2000/svg" width="24" height="24" fill="none" viewBox="0 0 24 24">
    <path fill="#000" fill-rule="evenodd" d="M12.64 18.03c-.76-3 1.9-5.66 4.9-4.9 1.32.33 2.4 1.39 2.79 2.7.36 1.23.12 2.38-.46 3.3l2.01 2.01.01-.01c.34.34.34.9 0 1.24a.88.88 0 0 1-1.24 0l-2.01-2.01c-.92.58-2.07.82-3.3.46-1.31-.38-2.37-1.46-2.7-2.79m6.04-.47a2.252 2.252 0 0 0-2.74-2.74c-.78.19-1.43.83-1.62 1.62a2.253 2.253 0 0 0 2.74 2.74c.78-.19 1.43-.83 1.62-1.62" clip-rule="evenodd" />
    <path fill="#000" d="M11 1.01h.23c.62 0 1.21.24 1.65.68l4.43 4.42c.44.44.69 1.04.69 1.66v3.95c-.03-.01-.07-.03-.1-.03-.46-.12-.93-.18-1.4-.18-.08 0-.17.01-.25.01V7.49H12c-.55 0-1-.45-1-1V2.76c-1.72-.03-3.44.07-5.13.35-.64.1-1.12.68-1.12 1.35v13.02c0 .69.48 1.28 1.12 1.39 1.84.3 3.72.4 5.59.34v-.01c.28.65.68 1.22 1.17 1.71-.71.05-1.42.09-2.13.09-1.64 0-3.29-.13-4.91-.4C4.09 20.36 3 19.05 3 17.49V4.47c0-1.54 1.09-2.84 2.59-3.08 1.78-.3 3.59-.41 5.41-.38" />
</svg>
