<svg width="24" height="24" viewBox="0 0 24 24" fill="none" xmlns="http://www.w3.org/2000/svg">
<path fill-rule="evenodd" clip-rule="evenodd" d="M16 13C18.206 13 20 14.794 20 17C20 17.7859 19.764 18.5139 19.3711 19.1328L22 21.7617L20.7617 23L18.1328 20.3711C17.5139 20.764 16.7859 21 16 21C13.794 21 12 19.206 12 17C12 14.794 13.794 13 16 13ZM16 14.75C14.76 14.75 13.75 15.76 13.75 17C13.75 18.24 14.76 19.25 16 19.25C17.24 19.25 18.25 18.24 18.25 17C18.25 15.76 17.24 14.75 16 14.75Z" fill="black"/>
<path d="M11.5 2C11.732 2 11.9551 2.09186 12.1191 2.25586L16.7441 6.88086C16.9081 7.04486 17 7.268 17 7.5V11.5957C16.675 11.5357 16.342 11.5 16 11.5C15.745 11.5 15.496 11.5236 15.25 11.5566V8.5H11.5C10.948 8.5 10.5 8.052 10.5 7.5V3.75H4.5C4.087 3.75 3.75 4.087 3.75 4.5V18.5C3.75 18.913 4.087 19.25 4.5 19.25H10.9873C11.2863 19.914 11.7133 20.507 12.2373 21H4.5C3.121 21 2 19.879 2 18.5V4.5C2 3.121 3.121 2 4.5 2H11.5Z" fill="black"/>
</svg>
