<!-- This Source Code Form is subject to the terms of the Mozilla Public
   - License, v. 2.0. If a copy of the MPL was not distributed with this
   - file, You can obtain one at http://mozilla.org/MPL/2.0/. -->
<svg width="24" height="24" fill="none" xmlns="http://www.w3.org/2000/svg"><path d="M10.439 2.284c3.823-.958 8.078.618 10.116 3.76 2.536 3.902 1.498 9.15-2.925 14.773l-1.375-1.082c3.923-4.988 4.929-9.51 2.833-12.738-1.645-2.533-5.102-3.802-8.221-3.015-2.965.751-4.826 3.16-5.103 6.607L5.73 11H3.976l.045-.552c.342-4.24 2.681-7.216 6.418-8.164z" fill="#000"/><path d="m11.253 21.173-.891-1.506.753-.445a9.99 9.99 0 0 0 .69-.448c4.12-2.935 4.307-8.107 4.308-8.159l.011-.115c.232-1.445-.94-2.839-2.614-3.108-.97-.158-1.996.103-2.694.67-.327.267-.724.72-.754 1.363V11c0 2.206-1.794 4-4 4H2v-1.75h4.062c1.24 0 2.25-1.01 2.25-2.25V9.384c.048-1.048.544-1.986 1.399-2.681 1.091-.887 2.614-1.272 4.076-1.041 2.607.42 4.423 2.682 4.073 5.06-.03.672-.418 6.186-5.041 9.478-.26.184-.529.36-.813.527l-.753.446z" fill="#000"/><path d="M12.062 10v1.625A5.38 5.38 0 0 1 6.687 17H2v1.75h4.688a7.133 7.133 0 0 0 7.125-7.125V10h-1.751z" fill="#000"/></svg>
