<!-- This Source Code Form is subject to the terms of the Mozilla Public
   - License, v. 2.0. If a copy of the MPL was not distributed with this
   - file, You can obtain one at http://mozilla.org/MPL/2.0/. -->
<svg xmlns="http://www.w3.org/2000/svg" width="24" height="24" fill="none" viewBox="0 0 24 24">
    <path fill="#000" d="M8.422 9.65c.386-2.396 2.83-4.003 5.464-3.583 2.606.42 4.422 2.682 4.073 5.059-.034.789-.543 8.027-7.48 10.804a.877.877 0 0 1-1.15-.457.876.876 0 0 1 .456-1.15v-.001c6.142-2.45 6.417-9.027 6.426-9.306l.01-.112c.233-1.445-.939-2.84-2.613-3.108-1.659-.271-3.18.661-3.447 2.068v1.541c0 2.206-1.794 4-4 4H2.877a.876.876 0 0 1 0-1.75H6.16c1.24 0 2.25-1.01 2.25-2.25z" />
    <path fill="#000" d="M10.454 2.283c3.862-.97 8.151.609 10.2 3.766 2.577 3.97 1.43 9.423-3.234 15.354l-.205.26a.875.875 0 1 1-1.376-1.08l.205-.262c4.165-5.297 5.28-10.027 3.142-13.32-1.654-2.547-5.143-3.823-8.303-3.022-2.952.748-4.807 3.176-5.086 6.66l-.052.554v.002a.89.89 0 0 1-.942.802c-.481-.04-.837-.42-.802-.86l.052-.638c.343-4.277 2.677-7.271 6.401-8.216" />
    <path fill="#000" d="M13.125 10c.483 0 .875.392.875.875v1A7.133 7.133 0 0 1 6.875 19h-4a.875.875 0 0 1 0-1.75h4a5.38 5.38 0 0 0 5.375-5.375v-1c0-.483.392-.875.875-.875" />
</svg>
