<!-- This Source Code Form is subject to the terms of the Mozilla Public
   - License, v. 2.0. If a copy of the MPL was not distributed with this
   - file, You can obtain one at http://mozilla.org/MPL/2.0/. -->
<svg width="24" height="24" fill="none" xmlns="http://www.w3.org/2000/svg"><path fill-rule="evenodd" clip-rule="evenodd" d="M4.5 5.25a.75.75 0 0 0-.75.75v12c0 .414.336.75.75.75h15a.75.75 0 0 0 .75-.75V9a.75.75 0 0 0-.75-.75h-6.83a.875.875 0 0 1-.62-.258L9.543 5.471a.748.748 0 0 0-.532-.221H4.5zM2 6a2.5 2.5 0 0 1 2.5-2.5h4.511c.666 0 1.303.265 1.773.737l2.25 2.263H19.5A2.5 2.5 0 0 1 22 9v9a2.5 2.5 0 0 1-2.5 2.5h-15A2.5 2.5 0 0 1 2 18V6z" fill="#000"/></svg>
