<!-- This Source Code Form is subject to the terms of the Mozilla Public
   - License, v. 2.0. If a copy of the MPL was not distributed with this
   - file, You can obtain one at http://mozilla.org/MPL/2.0/. -->
<svg xmlns="http://www.w3.org/2000/svg" width="24" height="24" fill="none" viewBox="0 0 24 24">
    <path fill="#000" d="M20 15c.483 0 .875.392.875.875v2.25h2.25a.875.875 0 1 1 0 1.75h-2.25v2.25a.875.875 0 0 1-1.75 0v-2.25h-2.25a.875.875 0 0 1 0-1.75h2.25v-2.25c0-.483.392-.875.875-.875M7.612 2.502c.96 0 1.879.41 2.52 1.124l1.258 1.396c2.18.012 4.383.133 6.553.359A3.395 3.395 0 0 1 21 8.763V13h-1.75V8.763c0-.85-.638-1.554-1.486-1.642A66 66 0 0 0 11 6.77a.87.87 0 0 1-.65-.29L8.834 4.794a1.65 1.65 0 0 0-1.22-.544H4.392c-.906 0-1.643.738-1.643 1.645v10.362c0 .848.64 1.555 1.487 1.643a66 66 0 0 0 9.763.27l-.001.003v1.75a69 69 0 0 1-3 .079c-2.314 0-4.65-.121-6.944-.36A3.396 3.396 0 0 1 .999 16.26V5.897a3.397 3.397 0 0 1 3.393-3.395z" />
</svg>
