<!-- This Source Code Form is subject to the terms of the Mozilla Public
   - License, v. 2.0. If a copy of the MPL was not distributed with this
   - file, You can obtain one at http://mozilla.org/MPL/2.0/. -->
<svg xmlns="http://www.w3.org/2000/svg" width="24" height="24" fill="none">
    <path fill="#000" d="M3.5 4.75a.75.75 0 0 0-.75.75v12c0 .414.336.75.75.75h11V20h-11A2.5 2.5 0 0 1 1 17.5v-12A2.5 2.5 0 0 1 3.5 3h4.511a2.5 2.5 0 0 1 1.773.737L12.034 6H18.5A2.5 2.5 0 0 1 21 8.5v5.125h-1.75V8.5a.75.75 0 0 0-.75-.75h-6.83a.88.88 0 0 1-.62-.258L8.543 4.971a.75.75 0 0 0-.532-.221z" />
    <path fill="#000" d="M19.125 20H16v-1.75h3.125v-3.125h1.75v3.125H24V20h-3.125v3.125h-1.75z" />
</svg>
