<!-- This Source Code Form is subject to the terms of the Mozilla Public
   - License, v. 2.0. If a copy of the MPL was not distributed with this
   - file, You can obtain one at http://mozilla.org/MPL/2.0/. -->
<svg xmlns="http://www.w3.org/2000/svg" width="24" height="24" fill="none" viewBox="0 0 24 24">
    <path fill="#000" d="M3.75 5.5a.75.75 0 0 1 .75-.75h4.511c.2 0 .391.08.532.221l2.507 2.521a.88.88 0 0 0 .62.258h6.83a.75.75 0 0 1 .75.75v9a.75.75 0 0 1-.75.75h-15a.75.75 0 0 1-.75-.75v-3.25H2v3.25A2.5 2.5 0 0 0 4.5 20h15a2.5 2.5 0 0 0 2.5-2.5v-9A2.5 2.5 0 0 0 19.5 6h-6.466l-2.25-2.263A2.5 2.5 0 0 0 9.01 3H4.5A2.5 2.5 0 0 0 2 5.5v3.75h1.75z" />
    <path fill="#000" d="M8 14.216a.75.75 0 0 0 1.28.53l2.466-2.466a.75.75 0 0 0 0-1.061L9.28 8.754a.75.75 0 0 0-1.28.53V11H1v1.5h7z" />
</svg>
