<!-- This Source Code Form is subject to the terms of the Mozilla Public
   - License, v. 2.0. If a copy of the MPL was not distributed with this
   - file, You can obtain one at http://mozilla.org/MPL/2.0/. -->
<svg xmlns="http://www.w3.org/2000/svg" width="24" height="24" fill="none" viewBox="0 0 24 24">
    <path fill="#000" d="M9.612 4.501c.96 0 1.879.41 2.52 1.124l1.258 1.396c2.18.012 4.383.133 6.553.359v.002a3.395 3.395 0 0 1 3.056 3.382v7.497a3.38 3.38 0 0 1-3.026 3.379 67.3 67.3 0 0 1-13.918.002 3.396 3.396 0 0 1-3.056-3.382v-.758h1.75v.758c0 .848.64 1.555 1.487 1.643a66 66 0 0 0 13.555-.003 1.636 1.636 0 0 0 1.458-1.64v-7.496c0-.85-.638-1.554-1.486-1.642A66 66 0 0 0 13 8.771a.87.87 0 0 1-.65-.29l-1.517-1.686a1.65 1.65 0 0 0-1.22-.544H6.391c-.906 0-1.643.738-1.643 1.645V11.5h-1.75V7.896A3.397 3.397 0 0 1 6.392 4.5z" />
    <path fill="#000" d="M10 12.033a.75.75 0 0 1 1.28-.53l2.466 2.466a.75.75 0 0 1 0 1.061l-2.466 2.466a.75.75 0 0 1-1.28-.53V15.25H1.75a.75.75 0 0 1 0-1.5H10z" />
</svg>
