<!-- This Source Code Form is subject to the terms of the Mozilla Public
   - License, v. 2.0. If a copy of the MPL was not distributed with this
   - file, You can obtain one at http://mozilla.org/MPL/2.0/. -->
<svg xmlns="http://www.w3.org/2000/svg" width="24" height="24" fill="none">
    <path fill="#000" fill-rule="evenodd" d="M4.5 5.25a.75.75 0 0 0-.75.75v12c0 .414.336.75.75.75h15a.75.75 0 0 0 .75-.75V9a.75.75 0 0 0-.75-.75h-6.83a.88.88 0 0 1-.62-.258L9.543 5.471a.75.75 0 0 0-.532-.221zM2 6a2.5 2.5 0 0 1 2.5-2.5h4.511a2.5 2.5 0 0 1 1.773.737l2.25 2.263H19.5A2.5 2.5 0 0 1 22 9v9a2.5 2.5 0 0 1-2.5 2.5h-15A2.5 2.5 0 0 1 2 18z" clip-rule="evenodd" />
</svg>
