<!-- This Source Code Form is subject to the terms of the Mozilla Public
   - License, v. 2.0. If a copy of the MPL was not distributed with this
   - file, You can obtain one at http://mozilla.org/MPL/2.0/. -->
<svg xmlns="http://www.w3.org/2000/svg" width="24" height="24" fill="none" viewBox="0 0 24 24">
    <path fill="#000" d="m15.499 10.74-4.76 4.759-1.238-1.237 4.76-4.761z" />
    <path fill="#000" fill-rule="evenodd" d="M18.125 3A3.875 3.875 0 0 1 22 6.875v3.017C22 16.579 16.579 22 9.892 22H6.875A3.875 3.875 0 0 1 3 18.125v-3.017C3 8.421 8.421 3 15.108 3zM4.75 18.125c0 1.174.951 2.125 2.125 2.125h2.481L4.75 15.644zm8.744-13.25a10.365 10.365 0 0 0-8.589 8.448l6.77 6.77a10.36 10.36 0 0 0 8.449-8.59zm6.756 4.28v-2.28a2.125 2.125 0 0 0-2.125-2.125h-2.28z" clip-rule="evenodd" />
</svg>
