<svg width="24" height="24" viewBox="0 0 24 24" fill="none" xmlns="http://www.w3.org/2000/svg">
<path d="M13.5059 10.2559C13.8476 9.91415 14.4024 9.91415 14.7441 10.2559C15.0858 10.5976 15.0858 11.1524 14.7441 11.4941L11.4941 14.7441C11.1524 15.0858 10.5976 15.0858 10.2559 14.7441C9.91415 14.4024 9.91415 13.8476 10.2559 13.5059L13.5059 10.2559Z" fill="black"/>
<path fill-rule="evenodd" clip-rule="evenodd" d="M18.125 3C20.2652 3 22 4.73475 22 6.875V9.8916C22 16.5789 16.5789 22 9.8916 22H6.875C4.73475 22 3 20.2652 3 18.125V15.1084C3 8.42115 8.42115 3 15.1084 3H18.125ZM4.75 18.125C4.75 19.2988 5.70125 20.25 6.875 20.25H9.35645L4.75 15.6436V18.125ZM13.4941 4.875C9.12332 5.55897 5.66051 8.97646 4.90527 13.3232L11.6748 20.0938C16.023 19.339 19.4406 15.8761 20.124 11.5039L13.4941 4.875ZM20.25 9.1543V6.875C20.25 5.70125 19.2988 4.75 18.125 4.75H15.8457L20.25 9.1543Z" fill="black"/>
</svg>
