<!-- This Source Code Form is subject to the terms of the Mozilla Public
   - License, v. 2.0. If a copy of the MPL was not distributed with this
   - file, You can obtain one at http://mozilla.org/MPL/2.0/. -->
<svg xmlns="http://www.w3.org/2000/svg" width="24" height="24" fill="none">
    <path fill="#000" fill-rule="evenodd" d="M12 2c5.523 0 10 4.477 10 10s-4.477 10-10 10S2 17.523 2 12 6.477 2 12 2m4.936 10.906a13.03 13.03 0 0 1-2.666 7.025 8.25 8.25 0 0 0 5.93-7.025zm-13.135 0a8.25 8.25 0 0 0 5.869 7.007 13.02 13.02 0 0 1-2.61-7.007H3.8zm5.013 0a11.3 11.3 0 0 0 3.157 7.004 11.3 11.3 0 0 0 3.21-7.004zm3.213-8.82a11.3 11.3 0 0 0-3.214 7.07h6.377a11.3 11.3 0 0 0-3.163-7.07m2.301-.001a13.03 13.03 0 0 1 2.616 7.071h3.263a8.255 8.255 0 0 0-5.879-7.071M9.73 4.068a8.255 8.255 0 0 0-5.937 7.088H7.06a13.03 13.03 0 0 1 2.67-7.088" clip-rule="evenodd" />
</svg>
