<!-- This Source Code Form is subject to the terms of the Mozilla Public
   - License, v. 2.0. If a copy of the MPL was not distributed with this
   - file, You can obtain one at http://mozilla.org/MPL/2.0/. -->
<svg xmlns="http://www.w3.org/2000/svg" width="24" height="24" fill="none" viewBox="0 0 24 24">
    <path fill="#000" fill-rule="evenodd" d="M12 2c5.523 0 10 4.477 10 10s-4.477 10-10 10S2 17.523 2 12 6.477 2 12 2M7.063 12.002a33 33 0 0 0-3.283.678 8.25 8.25 0 0 0 5.97 7.256 13 13 0 0 1-2.687-7.934m9.874 0a13 13 0 0 1-2.689 7.934 8.25 8.25 0 0 0 5.97-7.255 33 33 0 0 0-3.282-.679M12 11.625c-.927 0-1.999.04-3.185.156l-.002.22A11.27 11.27 0 0 0 12 19.866 11.27 11.27 0 0 0 15.188 12q-.001-.11-.004-.219A33 33 0 0 0 12 11.625m2.248-7.562a13 13 0 0 1 2.567 6.152c1.24.175 2.364.406 3.355.648a8.26 8.26 0 0 0-5.922-6.8m-4.497 0a8.26 8.26 0 0 0-5.922 6.798c1.176-.288 2.3-.498 3.355-.647A13 13 0 0 1 9.75 4.063m2.248.07a11.3 11.3 0 0 0-3.01 5.874 34.4 34.4 0 0 1 6.022 0 11.27 11.27 0 0 0-3.012-5.874" clip-rule="evenodd" />
</svg>
