<!-- This Source Code Form is subject to the terms of the Mozilla Public
   - License, v. 2.0. If a copy of the MPL was not distributed with this
   - file, You can obtain one at http://mozilla.org/MPL/2.0/. -->
<svg xmlns="http://www.w3.org/2000/svg" width="24" height="24" fill="none" viewBox="0 0 24 24">
    <path fill="#000" d="M12.567 18a14 14 0 0 1 3.658.51c.463.129.775.557.775 1.037a1.08 1.08 0 0 1-1.08 1.079h-2.17v1.625a.75.75 0 0 1-.75.75h-1a.75.75 0 0 1-.75-.75v-1.625H9.08A1.08 1.08 0 0 1 8 19.546c0-.48.312-.907.775-1.036a14 14 0 0 1 3.792-.51m-1.902-9.25a1.125 1.125 0 1 1 0 2.25 1.125 1.125 0 0 1 0-2.25m3.75 0a1.125 1.125 0 1 1 0 2.25 1.125 1.125 0 0 1 0-2.25M12.54 6a1.125 1.125 0 1 1 0 2.25 1.125 1.125 0 0 1 0-2.25" />
    <path fill="#000" fill-rule="evenodd" d="M12.54 2.5a7 7 0 1 1 0 14 7 7 0 0 1 0-14m0 1.75a5.25 5.25 0 1 0 0 10.5 5.25 5.25 0 0 0 0-10.5" clip-rule="evenodd" />
</svg>
