<!-- This Source Code Form is subject to the terms of the Mozilla Public
   - License, v. 2.0. If a copy of the MPL was not distributed with this
   - file, You can obtain one at http://mozilla.org/MPL/2.0/. -->
<svg xmlns="http://www.w3.org/2000/svg" width="24" height="24" fill="none" viewBox="0 0 24 24">
    <path fill="#000" d="M16.125 18c.207 0 .376.168.376.375V19.5a.375.375 0 0 1-.375.375h-1.188a2 2 0 0 0-2 2v.75a.376.376 0 0 1-.375.375h-1.125a.375.375 0 0 1-.375-.375v-.75a2 2 0 0 0-2-2H7.875A.375.375 0 0 1 7.5 19.5v-1.125c0-.207.168-.375.375-.375zm-6-10.25a1.125 1.125 0 1 1 0 2.25 1.125 1.125 0 0 1 0-2.25m3.75 0a1.125 1.125 0 1 1 0 2.25 1.125 1.125 0 0 1 0-2.25M12 4.75A1.125 1.125 0 1 1 12 7a1.125 1.125 0 0 1 0-2.25" />
    <path fill="#000" fill-rule="evenodd" d="M12 1.5a7.5 7.5 0 1 1 0 15 7.5 7.5 0 0 1 0-15m0 1.75a5.75 5.75 0 1 0 0 11.5 5.75 5.75 0 0 0 0-11.5" clip-rule="evenodd" />
</svg>
