<!-- This Source Code Form is subject to the terms of the Mozilla Public
   - License, v. 2.0. If a copy of the MPL was not distributed with this
   - file, You can obtain one at http://mozilla.org/MPL/2.0/. -->
<svg xmlns="http://www.w3.org/2000/svg" width="24" height="24" fill="none">
    <path fill="#000" fill-rule="evenodd" d="M3 5.5A2.5 2.5 0 0 1 5.5 3h3A2.5 2.5 0 0 1 11 5.5v3A2.5 2.5 0 0 1 8.5 11h-3A2.5 2.5 0 0 1 3 8.5zm2.5-.75a.75.75 0 0 0-.75.75v3c0 .414.336.75.75.75h3a.75.75 0 0 0 .75-.75v-3a.75.75 0 0 0-.75-.75zm7.25.75a2.5 2.5 0 0 1 2.5-2.5h3a2.5 2.5 0 0 1 2.5 2.5v3a2.5 2.5 0 0 1-2.5 2.5h-3a2.5 2.5 0 0 1-2.5-2.5zm2.5-.75a.75.75 0 0 0-.75.75v3c0 .414.336.75.75.75h3A.75.75 0 0 0 19 8.5v-3a.75.75 0 0 0-.75-.75zm-9.75 8a2.5 2.5 0 0 0-2.5 2.5v3a2.5 2.5 0 0 0 2.5 2.5h3a2.5 2.5 0 0 0 2.5-2.5v-3a2.5 2.5 0 0 0-2.5-2.5zm-.75 2.5a.75.75 0 0 1 .75-.75h3a.75.75 0 0 1 .75.75v3a.75.75 0 0 1-.75.75h-3a.75.75 0 0 1-.75-.75z" clip-rule="evenodd" />
    <path fill="#000" d="M15.875 15.875V13h1.75v2.875H20.5v1.75h-2.875V20.5h-1.75v-2.875H13v-1.75z" />
</svg>
