<!-- This Source Code Form is subject to the terms of the Mozilla Public
   - License, v. 2.0. If a copy of the MPL was not distributed with this
   - file, You can obtain one at http://mozilla.org/MPL/2.0/. -->
<svg xmlns="http://www.w3.org/2000/svg" width="24" height="24" fill="none" viewBox="0 0 24 24">
    <path fill="#000" fill-rule="evenodd" d="M7 12.75c.655 0 1.255.06 1.788.148A2.63 2.63 0 0 1 11 15.493v2.515c0 1.252-.891 2.368-2.157 2.585a10.8 10.8 0 0 1-3.632.008A2.63 2.63 0 0 1 3 18.006V15.49c0-1.251.891-2.368 2.157-2.585A11 11 0 0 1 7 12.749m0 1.75a9 9 0 0 0-1.108.067l-.44.065a.87.87 0 0 0-.702.86v2.514c0 .427.31.796.749.869l.346.05a9.1 9.1 0 0 0 2.703-.058l.142-.038a.875.875 0 0 0 .56-.821v-2.515a.88.88 0 0 0-.59-.828l-.159-.041A9 9 0 0 0 7 14.5" clip-rule="evenodd" />
    <path fill="#000" d="M16.75 12.875c.483 0 .875.392.875.875v2.125h2.125a.875.875 0 0 1 0 1.75h-2.125v2.125a.875.875 0 0 1-1.75 0v-2.125H13.75a.875.875 0 0 1 0-1.75h2.125V13.75c0-.483.392-.875.875-.875" />
    <path fill="#000" fill-rule="evenodd" d="M7 3c.655 0 1.255.06 1.788.148A2.63 2.63 0 0 1 11 5.743v2.515c0 1.252-.891 2.368-2.157 2.585a10.8 10.8 0 0 1-3.632.008A2.63 2.63 0 0 1 3 8.256V5.74c0-1.252.891-2.368 2.157-2.585A11 11 0 0 1 7 3m0 1.75a9 9 0 0 0-1.108.067l-.44.065a.87.87 0 0 0-.702.86v2.514c0 .427.31.796.749.869l.346.05a9.1 9.1 0 0 0 2.703-.058l.142-.038a.875.875 0 0 0 .56-.821V5.743a.88.88 0 0 0-.59-.828l-.159-.041A9 9 0 0 0 7 4.75M16.75 3c.655 0 1.255.06 1.788.148a2.63 2.63 0 0 1 2.212 2.595v2.515c0 1.252-.891 2.368-2.157 2.585a10.8 10.8 0 0 1-3.632.008 2.63 2.63 0 0 1-2.211-2.595V5.74c0-1.252.891-2.368 2.157-2.585A11 11 0 0 1 16.75 3m0 1.75a9 9 0 0 0-1.108.067l-.44.065a.87.87 0 0 0-.702.86v2.514c0 .427.31.796.749.869l.346.05a9.1 9.1 0 0 0 2.703-.058l.142-.038a.875.875 0 0 0 .56-.821V5.743a.88.88 0 0 0-.59-.828l-.159-.041a9 9 0 0 0-1.501-.124" clip-rule="evenodd" />
</svg>
