<svg width="24" height="24" fill="none" xmlns="http://www.w3.org/2000/svg"><path fill-rule="evenodd" clip-rule="evenodd" d="M3 5.5A2.5 2.5 0 0 1 5.5 3h3A2.5 2.5 0 0 1 11 5.5v3A2.5 2.5 0 0 1 8.5 11h-3A2.5 2.5 0 0 1 3 8.5v-3zm2.5-.75a.75.75 0 0 0-.75.75v3c0 .414.336.75.75.75h3a.75.75 0 0 0 .75-.75v-3a.75.75 0 0 0-.75-.75h-3zM12.75 5.5a2.5 2.5 0 0 1 2.5-2.5h3a2.5 2.5 0 0 1 2.5 2.5v3a2.5 2.5 0 0 1-2.5 2.5h-3a2.5 2.5 0 0 1-2.5-2.5v-3zm2.5-.75a.75.75 0 0 0-.75.75v3c0 .414.336.75.75.75h3A.75.75 0 0 0 19 8.5v-3a.75.75 0 0 0-.75-.75h-3zM5.5 12.75a2.5 2.5 0 0 0-2.5 2.5v3a2.5 2.5 0 0 0 2.5 2.5h3a2.5 2.5 0 0 0 2.5-2.5v-3a2.5 2.5 0 0 0-2.5-2.5h-3zm-.75 2.5a.75.75 0 0 1 .75-.75h3a.75.75 0 0 1 .75.75v3a.75.75 0 0 1-.75.75h-3a.75.75 0 0 1-.75-.75v-3z" fill="#000"/><path d="M15.875 15.875V13h1.75v2.875H20.5v1.75h-2.875V20.5h-1.75v-2.875H13v-1.75h2.875z" fill="#000"/></svg>