<svg width="24" height="24" fill="none" xmlns="http://www.w3.org/2000/svg"><path d="M13 16h-1.75v1.75H13V16zM11.25 13.27v.98H13v-.98c0-.27.18-.52.46-.65a3.165 3.165 0 0 0 1.82-2.86 3.15 3.15 0 1 0-6.3 0h1.75c0-.77.63-1.4 1.4-1.4.77 0 1.4.63 1.4 1.4 0 .54-.32 1.04-.81 1.27-.91.42-1.47 1.28-1.47 2.24z" fill="#000"/><path fill-rule="evenodd" clip-rule="evenodd" d="M12 22C6.49 22 2 17.51 2 12S6.49 2 12 2s10 4.49 10 10-4.49 10-10 10zm0-18.25c-4.55 0-8.25 3.7-8.25 8.25s3.7 8.25 8.25 8.25 8.25-3.7 8.25-8.25-3.7-8.25-8.25-8.25z" fill="#000"/></svg>