<!-- This Source Code Form is subject to the terms of the Mozilla Public
   - License, v. 2.0. If a copy of the MPL was not distributed with this
   - file, You can obtain one at http://mozilla.org/MPL/2.0/. -->
<svg xmlns="http://www.w3.org/2000/svg" width="24" height="24" fill="none">
    <path fill="#000" d="M13 16h-1.75v1.75H13zm-1.75-2.73v.98H13v-.98c0-.27.18-.52.46-.65a3.17 3.17 0 0 0 1.82-2.86 3.15 3.15 0 1 0-6.3 0h1.75c0-.77.63-1.4 1.4-1.4s1.4.63 1.4 1.4c0 .54-.32 1.04-.81 1.27-.91.42-1.47 1.28-1.47 2.24" />
    <path fill="#000" fill-rule="evenodd" d="M12 22C6.49 22 2 17.51 2 12S6.49 2 12 2s10 4.49 10 10-4.49 10-10 10m0-18.25c-4.55 0-8.25 3.7-8.25 8.25s3.7 8.25 8.25 8.25 8.25-3.7 8.25-8.25-3.7-8.25-8.25-8.25" clip-rule="evenodd" />
</svg>
