<svg width="24" height="24" viewBox="0 0 24 24" fill="none" xmlns="http://www.w3.org/2000/svg">
<g clip-path="url(#clip0_6653_1276)">
<path fill-rule="evenodd" clip-rule="evenodd" d="M22 2.1416L9.37891 24H3.99902C1.78982 24 -0.000910599 22.2092 -0.000976562 20C-0.000921936 17.7908 1.78981 16 3.99902 16H11.9775L20.4844 1.2666L22 2.1416ZM3.99902 17.75C2.75631 17.75 1.74908 18.7573 1.74902 20C1.74909 21.2427 2.75631 22.25 3.99902 22.25H4.25V17.75H3.99902ZM6 22.25H8.36914L10.9668 17.75H6V22.25Z" fill="black"/>
<path fill-rule="evenodd" clip-rule="evenodd" d="M20 16C22.206 16 24.001 17.794 24.001 20C24.001 22.206 22.207 24 20.001 24H14.6211L12.8711 20.9688L13.8809 19.2188L15.6309 22.25H18.001V17.75H14.7295L15.7393 16H20ZM19.75 17.75V22.25H20C21.24 22.25 22.25 21.24 22.25 20C22.25 18.76 21.24 17.75 20 17.75H19.75Z" fill="black"/>
<path d="M11.1562 14.5H9.13477L2 2.1416L3.51562 1.2666L11.1562 14.5Z" fill="black"/>
</g>
<defs>
<clipPath id="clip0_6653_1276">
<rect width="24" height="24" fill="white"/>
</clipPath>
</defs>
</svg>
