<!-- This Source Code Form is subject to the terms of the Mozilla Public
   - License, v. 2.0. If a copy of the MPL was not distributed with this
   - file, You can obtain one at http://mozilla.org/MPL/2.0/. -->
<svg xmlns="http://www.w3.org/2000/svg" width="24" height="24" fill="none" viewBox="0 0 24 24">
    <path fill="#000" fill-rule="evenodd" d="M19.5 14.001c1.93 0 3.5 1.57 3.5 3.5s-1.57 3.5-3.5 3.5h-3.797c-.668 0-1.29-.36-1.624-.937l-1.218-2.11 1.011-1.75 1.723 2.985a.13.13 0 0 0 .108.061H17v-3.5h-2.866l1.01-1.75zm-.75 5.249h.75c.965 0 1.75-.785 1.75-1.75s-.785-1.75-1.75-1.75h-.75zm-.062-14.372-6.206 10.747v.125h-.07L9.92 20.063l-.001.002A1.88 1.88 0 0 1 8.297 21H4.5a3.5 3.5 0 0 1 0-7h6.9l5.772-9.997zM4.5 15.75a1.75 1.75 0 0 0 0 3.5h.75v-3.5zm2.5 3.5h1.297a.13.13 0 0 0 .11-.064l1.983-3.436H7z" clip-rule="evenodd" />
    <path fill="#000" d="M11.734 12.5H9.713l-4.4-7.623 1.514-.875z" />
</svg>
