<!-- This Source Code Form is subject to the terms of the Mozilla Public
   - License, v. 2.0. If a copy of the MPL was not distributed with this
   - file, You can obtain one at http://mozilla.org/MPL/2.0/. -->
<svg xmlns="http://www.w3.org/2000/svg" width="24" height="24" fill="none" viewBox="0 0 24 24">
    <path fill="#000" fill-rule="evenodd" d="M17.172 4.376a.875.875 0 0 1 1.515.875l-8.226 14.252a2.88 2.88 0 0 1-2.3 1.431l-.191.006-3.403-.002a3.695 3.695 0 0 1-3.693-3.695 3.7 3.7 0 0 1 3.355-3.683l.627-.054a26.4 26.4 0 0 1 6.817.393zM7 19.188l.97.001c.403 0 .775-.214.975-.561l1.798-3.117A24.6 24.6 0 0 0 7 15.188zm-1.75-3.952q-.438.027-.852.066a1.946 1.946 0 0 0-.03 3.876l.2.01h.682zm12.502-1.796c.687.014 1.39.056 2.092.125 1.87.189 3.281 1.769 3.281 3.676 0 2.04-1.66 3.699-3.698 3.699H16.03a2.88 2.88 0 0 1-2.49-1.439l-.684-1.185 1.01-1.75 1.189 2.06c.2.348.575.564.975.564H17v-4.006q-1.216.012-2.424.149l1.06-1.838a27 27 0 0 1 2.116-.055m.998 5.75h.677a1.95 1.95 0 0 0 1.948-1.95c0-.988-.75-1.837-1.706-1.934q-.46-.045-.919-.074z" clip-rule="evenodd" />
    <path fill="#000" d="M5.632 4.055a.876.876 0 0 1 1.195.32l4.502 7.797H9.31L5.313 5.25a.873.873 0 0 1 .319-1.195" />
</svg>
