<!-- This Source Code Form is subject to the terms of the Mozilla Public
   - License, v. 2.0. If a copy of the MPL was not distributed with this
   - file, You can obtain one at http://mozilla.org/MPL/2.0/. -->
<svg xmlns="http://www.w3.org/2000/svg" width="24" height="24" fill="none" viewBox="0 0 24 24">
    <path fill="#000" fill-rule="evenodd" d="M10.143 3.614a3.12 3.12 0 0 1 3.713 0 56.6 56.6 0 0 1 7.91 7.07.874.874 0 1 1-1.283 1.188l-.233-.25v5.864a3.145 3.145 0 0 1-2.656 3.094c-1.847.278-3.73.42-5.594.42a38 38 0 0 1-5.568-.415 3.12 3.12 0 0 1-2.682-3.096v-5.866l-.234.249a.875.875 0 1 1-1.283-1.189 56.3 56.3 0 0 1 7.91-7.07M12 13.75a7.6 7.6 0 0 0-1.276.107.875.875 0 0 0-.724.866v4.467c1.332.074 2.669.074 4 0v-4.472c0-.435-.306-.787-.681-.853a7.7 7.7 0 0 0-1.32-.115m.817-8.729a1.37 1.37 0 0 0-1.635 0A55 55 0 0 0 5.5 9.84v7.649c0 .688.501 1.261 1.19 1.364q.777.116 1.56.196v-4.325c0-1.275.914-2.375 2.181-2.59a9.4 9.4 0 0 1 2.726-.062l.465.07c1.265.222 2.128 1.347 2.128 2.577v4.33q.794-.081 1.583-.2a1.384 1.384 0 0 0 1.167-1.363V9.841a54.5 54.5 0 0 0-5.683-4.819" clip-rule="evenodd" />
</svg>
