<!-- This Source Code Form is subject to the terms of the Mozilla Public
   - License, v. 2.0. If a copy of the MPL was not distributed with this
   - file, You can obtain one at http://mozilla.org/MPL/2.0/. -->
<svg width="24" height="24" fill="none" xmlns="http://www.w3.org/2000/svg">
    <path fill-rule="evenodd" clip-rule="evenodd" d="m2.445 11.78.805-.698V18.5a2.5 2.5 0 0 0 2.5 2.5h12.5a2.5 2.5 0 0 0 2.5-2.5v-7.419l.806.7 1.146-1.323-9.042-7.842a2.533 2.533 0 0 0-3.32 0L1.3 10.458l1.146 1.322zm10.069-7.842a.783.783 0 0 0-1.026 0L5 9.564V18.5c0 .414.336.75.75.75h2.5v-4.5a2.5 2.5 0 0 1 2.5-2.5h2.5a2.5 2.5 0 0 1 2.5 2.5v4.5h2.5a.75.75 0 0 0 .75-.75V9.564l-6.486-5.626zM14 19.25v-4.5a.75.75 0 0 0-.75-.75h-2.5a.75.75 0 0 0-.75.75v4.5h4z" fill="#000" />
</svg>
