<!-- This Source Code Form is subject to the terms of the Mozilla Public
   - License, v. 2.0. If a copy of the MPL was not distributed with this
   - file, You can obtain one at http://mozilla.org/MPL/2.0/. -->
<svg xmlns="http://www.w3.org/2000/svg" width="24" height="24" fill="none" viewBox="0 0 24 24">
    <path fill="#000" fill-rule="evenodd" d="M2.256 2.256a.876.876 0 0 1 1.238 0l18.25 18.25a.876.876 0 0 1-1.238 1.238L19.1 20.34q-.36.156-.765.215A45 45 0 0 1 12 21c-2.099 0-4.22-.148-6.306-.442A3.144 3.144 0 0 1 3 17.458V6.539c0-.646.2-1.252.545-1.754l-1.29-1.29a.876.876 0 0 1 0-1.238M4.832 6.07a1.4 1.4 0 0 0-.081.468v10.92c0 .684.51 1.272 1.188 1.368 3.869.542 7.83.56 11.703.054l-1.965-1.965a1.9 1.9 0 0 1-.55.085h-6.25a1.873 1.873 0 0 1-1.875-1.872v-.589c0-.534.171-1.054.49-1.483l1.764-2.385q.038-.05.079-.098z" clip-rule="evenodd" />
    <path fill="#000" d="M6.694 3.337c3.848-.453 7.77-.436 11.612.104A3.144 3.144 0 0 1 21 6.541v10.922c0 .056-.012.11-.015.166l-1.735-1.736V6.541c0-.683-.51-1.271-1.188-1.367A44 44 0 0 0 12 4.75c-1.236 0-2.477.072-3.716.178z" />
    <path fill="#000" d="M15.75 8.5a1.25 1.25 0 1 1 0 2.5 1.25 1.25 0 0 1 0-2.5" />
</svg>
