<!-- This Source Code Form is subject to the terms of the Mozilla Public
   - License, v. 2.0. If a copy of the MPL was not distributed with this
   - file, You can obtain one at http://mozilla.org/MPL/2.0/. -->
<svg xmlns="http://www.w3.org/2000/svg" width="24" height="24" fill="none" viewBox="0 0 24 24">
    <path fill="#000" d="M9.254 10.67a1.66 1.66 0 0 1 2.676.01l1.974 2.706.083-.15c.59-1.07 2.123-1.08 2.727-.02.187.328.285.699.285 1.077v.835A1.873 1.873 0 0 1 15.124 17H8.875A1.873 1.873 0 0 1 7 15.128v-.589c0-.534.172-1.054.49-1.483zM15.75 8.5a1.25 1.25 0 1 1 0 2.5 1.25 1.25 0 0 1 0-2.5" />
    <path fill="#000" fill-rule="evenodd" d="M12 3c1.822 0 3.95.11 6.305.441A3.136 3.136 0 0 1 21 6.541v10.92c0 1.538-1.12 2.875-2.664 3.094a45.2 45.2 0 0 1-12.64.004A3.136 3.136 0 0 1 3 17.459V6.539C3 5 4.119 3.663 5.664 3.444A45 45 0 0 1 12 3m0 1.75a43.5 43.5 0 0 0-6.09.429c-.66.093-1.16.67-1.16 1.36v10.92c0 .684.51 1.27 1.188 1.366a43.5 43.5 0 0 0 12.153-.004 1.365 1.365 0 0 0 1.159-1.36V6.542c0-.684-.51-1.27-1.189-1.366A43.5 43.5 0 0 0 12 4.75" clip-rule="evenodd" />
</svg>
