<!-- This Source Code Form is subject to the terms of the Mozilla Public
   - License, v. 2.0. If a copy of the MPL was not distributed with this
   - file, You can obtain one at http://mozilla.org/MPL/2.0/. -->
<svg xmlns="http://www.w3.org/2000/svg" width="24" height="24" fill="none">
    <path fill="#000" d="M18.25 20.75H5.75a2.503 2.503 0 0 1-2.5-2.5V5.75c0-1.379 1.122-2.5 2.5-2.5h12.5c1.379 0 2.5 1.121 2.5 2.5v12.5c0 1.379-1.121 2.5-2.5 2.5M5.75 5a.75.75 0 0 0-.75.75v12.5c0 .413.336.75.75.75h12.5c.413 0 .75-.337.75-.75V5.75a.75.75 0 0 0-.75-.75z" />
    <path fill="#000" d="M16.5 17.25h-9a.75.75 0 0 1-.75-.75v-2.301c0-.264.105-.518.291-.705l2.783-2.799a1 1 0 0 1 1.415-.004L14 13.439l.792-.747a1 1 0 0 1 1.396.023l.773.779c.186.187.29.44.29.704V16.5a.75.75 0 0 1-.751.75M17.25 8h-2.5v2.5h2.5z" />
</svg>
