<!-- This Source Code Form is subject to the terms of the Mozilla Public
   - License, v. 2.0. If a copy of the MPL was not distributed with this
   - file, You can obtain one at http://mozilla.org/MPL/2.0/. -->
<svg xmlns="http://www.w3.org/2000/svg" width="24" height="24" fill="none" viewBox="0 0 24 24">
    <path fill="#000" d="M9.63 3.366c2.9-.49 5.89-.485 8.775.006A3.116 3.116 0 0 1 21 6.455v12.09c0 1.53-1.09 2.826-2.594 3.083a26.3 26.3 0 0 1-8.811 0A3.116 3.116 0 0 1 7 18.545V15.5h1.75v3.045a1.37 1.37 0 0 0 1.138 1.358 24.7 24.7 0 0 0 8.224 0 1.37 1.37 0 0 0 1.138-1.358V6.455a1.37 1.37 0 0 0-1.138-1.358A24.6 24.6 0 0 0 14 4.75c-1.36 0-2.733.115-4.08.342a1.39 1.39 0 0 0-1.17 1.362V9.5H7V6.454a3.13 3.13 0 0 1 2.63-3.088" />
    <path fill="#000" d="M11.999 9.25a.75.75 0 0 1 1.28-.53l3.25 3.25a.75.75 0 0 1 0 1.06l-3.249 3.248a.75.75 0 0 1-1.28-.53l-.001-.001v-2.372H3.875a.875.875 0 0 1 0-1.75h8.124z" />
</svg>
