<svg width="24" height="24" viewBox="0 0 24 24" fill="none" xmlns="http://www.w3.org/2000/svg">
<path fill-rule="evenodd" clip-rule="evenodd" d="M12 2C17.514 2 22 6.486 22 12C22 17.514 17.514 22 12 22C6.486 22 2 17.514 2 12C2 6.486 6.486 2 12 2ZM12 10.5C11.517 10.5 11.125 10.892 11.125 11.375V16.125C11.125 16.608 11.517 17 12 17C12.483 17 12.875 16.608 12.875 16.125V11.375C12.875 10.892 12.483 10.5 12 10.5ZM12 7C11.4477 7 11 7.44772 11 8C11 8.55228 11.4477 9 12 9C12.5523 9 13 8.55228 13 8C13 7.44772 12.5523 7 12 7Z" fill="black"/>
</svg>
