<!-- This Source Code Form is subject to the terms of the Mozilla Public
   - License, v. 2.0. If a copy of the MPL was not distributed with this
   - file, You can obtain one at http://mozilla.org/MPL/2.0/. -->
<svg xmlns="http://www.w3.org/2000/svg" width="24" height="24" fill="none" viewBox="0 0 24 24">
    <path fill="#000" fill-rule="evenodd" d="M12 2c5.514 0 10 4.486 10 10s-4.486 10-10 10S2 17.514 2 12 6.486 2 12 2m0 8.5a.875.875 0 0 0-.875.875v4.75a.875.875 0 0 0 1.75 0v-4.75A.875.875 0 0 0 12 10.5M12 7a1 1 0 1 0 0 2 1 1 0 0 0 0-2" clip-rule="evenodd" />
</svg>
