<!-- This Source Code Form is subject to the terms of the Mozilla Public
   - License, v. 2.0. If a copy of the MPL was not distributed with this
   - file, You can obtain one at http://mozilla.org/MPL/2.0/. -->
<svg xmlns="http://www.w3.org/2000/svg" width="24" height="24" fill="none" viewBox="0 0 24 24">
    <path fill="#000" fill-rule="evenodd" d="M7.665 3.523a18.2 18.2 0 0 1 8.668 0 .876.876 0 0 1-.418 1.7l-.17-.039v4.533l4.236 4.657a3.86 3.86 0 0 1 .718 4.09 3.82 3.82 0 0 1-3.346 2.388c-1.765.098-3.56.147-5.334.147l.004.001c-1.793 0-3.604-.051-5.384-.15a3.82 3.82 0 0 1-3.342-2.379 3.86 3.86 0 0 1 .697-4.08l4.254-4.732V5.185l-.165.038a.877.877 0 0 1-.418-1.7m6.33 1.35a16.6 16.6 0 0 0-3.997 0v5.12a.88.88 0 0 1-.224.585L5.799 15h12.386l-3.961-4.356a.88.88 0 0 1-.229-.589z" clip-rule="evenodd" />
</svg>
