<!-- This Source Code Form is subject to the terms of the Mozilla Public
   - License, v. 2.0. If a copy of the MPL was not distributed with this
   - file, You can obtain one at http://mozilla.org/MPL/2.0/. -->
<svg xmlns="http://www.w3.org/2000/svg" width="24" height="24" fill="none" viewBox="0 0 24 24">
    <path fill="#000" fill-rule="evenodd" d="M9.764 3.269a12.7 12.7 0 0 1 4.71-.093 2.38 2.38 0 0 1 1.684 1.194c.367.655.416 1.43.137 2.124l-.87 2.173c1.116.004 2.145.065 3.224.189a2.43 2.43 0 0 1 1.983 1.528 2.47 2.47 0 0 1-.417 2.51l-7.027 8.24a2.43 2.43 0 0 1-1.856.864l.002.001c-.347 0-.7-.074-1.035-.23a2.44 2.44 0 0 1-1.396-2.621l.694-4.34a23 23 0 0 1-2.552-.252 2.4 2.4 0 0 1-1.7-1.162 2.46 2.46 0 0 1-.194-2.098l2.152-5.874A3.36 3.36 0 0 1 9.764 3.27m4.416 1.634a10.9 10.9 0 0 0-4.056.08 1.62 1.62 0 0 0-1.18 1.043L6.793 11.9a.7.7 0 0 0 .058.607c.06.103.201.28.464.32 1.09.17 2.162.245 3.302.251h.003a.877.877 0 0 1 .865 1.013l-.853 5.333a.684.684 0 0 0 .4.757c.114.051.506.191.827-.184l7.027-8.239a.72.72 0 0 0 .118-.733.67.67 0 0 0-.552-.43 27 27 0 0 0-3.161-.178q-.581.001-1.138.02a.875.875 0 0 1-.843-1.2l1.361-3.393a.71.71 0 0 0-.04-.617.63.63 0 0 0-.45-.324" clip-rule="evenodd" />
</svg>
