<!-- This Source Code Form is subject to the terms of the Mozilla Public
   - License, v. 2.0. If a copy of the MPL was not distributed with this
   - file, You can obtain one at http://mozilla.org/MPL/2.0/. -->
<svg xmlns="http://www.w3.org/2000/svg" width="24" height="24" fill="none" viewBox="0 0 24 24">
    <path fill="#000" fill-rule="evenodd" d="M11.838 2.126a8 8 0 0 1 1.774.167c2.83.592 5.112 2.865 5.714 5.693l.055.282A7.5 7.5 0 0 1 17 15.212v3.402a3.38 3.38 0 0 1-2.833 3.335 13.6 13.6 0 0 1-4.4-.011c-1.63-.271-2.765-1.714-2.765-3.317L7 15.213a7.5 7.5 0 0 1 4.837-13.087m3.413 14.039a9.4 9.4 0 0 1-2.847.577L12 16.75a9.4 9.4 0 0 1-3.249-.583l.002 2.452.007.149c.064.73.603 1.328 1.295 1.443a11.8 11.8 0 0 0 3.835.01l.143-.03a1.63 1.63 0 0 0 1.218-1.577zm-3.375-12.29a5.75 5.75 0 0 0-5.625 5.75c0 1.797.825 3.402 2.12 4.457a7.7 7.7 0 0 0 2.754.866v-3.21L8.881 9.494a.875.875 0 0 1 1.238-1.237L12 10.137l1.88-1.882a.875.875 0 0 1 1.24 1.238l-2.245 2.244v3.21a7.7 7.7 0 0 0 2.757-.869 5.75 5.75 0 0 0 2.024-5.51l-.042-.219c-.443-2.083-2.1-3.784-4.16-4.298l-.2-.046a6 6 0 0 0-1.378-.13" clip-rule="evenodd" />
</svg>
