<!-- This Source Code Form is subject to the terms of the Mozilla Public
   - License, v. 2.0. If a copy of the MPL was not distributed with this
   - file, You can obtain one at http://mozilla.org/MPL/2.0/. -->
<svg xmlns="http://www.w3.org/2000/svg" width="24" height="24" fill="none" viewBox="0 0 24 24">
    <path fill="#000" d="M9.367 3.257a12.2 12.2 0 0 1 4.523-.09 1.89 1.89 0 0 1 1.33.948c.293.52.333 1.14.11 1.692L14.182 8.67a30 30 0 0 1 3.909.18 1.9 1.9 0 0 1 1.575 1.215c.268.68.141 1.447-.332 2.001l-7.027 8.24a1.91 1.91 0 0 1-2.3.507 1.92 1.92 0 0 1-1.111-2.09l.783-4.9a22 22 0 0 1-3.057-.264 1.9 1.9 0 0 1-1.35-.92 1.96 1.96 0 0 1-.152-1.673l2.152-5.873a2.86 2.86 0 0 1 2.095-1.836" />
</svg>
