<!-- This Source Code Form is subject to the terms of the Mozilla Public
   - License, v. 2.0. If a copy of the MPL was not distributed with this
   - file, You can obtain one at http://mozilla.org/MPL/2.0/. -->
<svg xmlns="http://www.w3.org/2000/svg" width="24" height="24" fill="none" viewBox="0 0 24 24">
    <path fill="#000" d="M7.589 7a2.944 2.944 0 0 1 2.944 2.944h-1.75c0-.66-.534-1.194-1.194-1.194H5.185a1.2 1.2 0 0 0-1.177.974 15.1 15.1 0 0 0 0 5.552 1.2 1.2 0 0 0 1.177.974h2.404c.66 0 1.194-.535 1.194-1.194h1.75A2.944 2.944 0 0 1 7.59 18H5.185a2.95 2.95 0 0 1-2.897-2.402 16.9 16.9 0 0 1 0-6.196A2.95 2.95 0 0 1 5.185 7zm11.226 0a2.95 2.95 0 0 1 2.897 2.402 16.9 16.9 0 0 1 0 6.196A2.95 2.95 0 0 1 18.814 18h-2.403a2.944 2.944 0 0 1-2.944-2.944h1.75c0 .66.534 1.194 1.194 1.194h2.403a1.2 1.2 0 0 0 1.178-.974 15.1 15.1 0 0 0 0-5.552 1.2 1.2 0 0 0-1.178-.974h-2.403c-.66 0-1.194.535-1.194 1.194h-1.75A2.944 2.944 0 0 1 16.41 7z" />
    <path fill="#000" d="M16.125 11.625a.875.875 0 0 1 0 1.75h-8.25a.875.875 0 0 1 0-1.75z" />
</svg>
