<!-- This Source Code Form is subject to the terms of the Mozilla Public
   - License, v. 2.0. If a copy of the MPL was not distributed with this
   - file, You can obtain one at http://mozilla.org/MPL/2.0/. -->
<svg width="24" height="24" fill="none" xmlns="http://www.w3.org/2000/svg">
    <path d="M5.37 13.28c.48.48 1.1.72 1.73.72l.01.01c.62 0 1.25-.24 1.73-.72l.38-.38-1.24-1.24-.38.38c-.26.27-.72.27-.99 0L3.97 9.41a.754.754 0 0 1 0-1.06l4.38-4.38c.29-.29.77-.29 1.06 0l2.64 2.64c.14.13.21.3.21.49s-.08.37-.21.5l-.38.38 1.24 1.24.38-.38c.96-.96.96-2.51 0-3.47l-2.64-2.64c-.98-.97-2.56-.97-3.54 0L2.73 7.1c-.97.98-.97 2.56 0 3.54l2.64 2.64z" fill="#000" />
    <path d="M9.066 7.821 7.829 9.06l7.106 7.106 1.237-1.237L9.066 7.82z" fill="#000" />
    <path d="M15.12 22c-.64 0-1.28-.24-1.77-.73l-2.64-2.64a2.45 2.45 0 0 1 0-3.47l.38-.38 1.24 1.24-.38.38c-.13.13-.21.31-.21.5s.07.36.21.49l2.64 2.64c.29.29.77.29 1.06 0l4.38-4.38c.29-.29.29-.77 0-1.06l-2.64-2.64c-.26-.27-.73-.26-.99 0l-.38.38-1.24-1.24.38-.38a2.45 2.45 0 0 1 3.47 0l2.64 2.64c.97.98.97 2.56 0 3.54l-4.38 4.38c-.49.49-1.13.73-1.77.73z" fill="#000" />
</svg>
