<!-- This Source Code Form is subject to the terms of the Mozilla Public
   - License, v. 2.0. If a copy of the MPL was not distributed with this
   - file, You can obtain one at http://mozilla.org/MPL/2.0/. -->
<svg xmlns="http://www.w3.org/2000/svg" width="24" height="24" fill="none" viewBox="0 0 24 24">
    <path fill="#000" d="M5.42 10.658a2.95 2.95 0 0 1 4.165 0l-1.237 1.237a1.197 1.197 0 0 0-1.69 0l-1.7 1.7a1.2 1.2 0 0 0-.142 1.522 15.1 15.1 0 0 0 3.925 3.925 1.2 1.2 0 0 0 1.522-.143l1.7-1.7a1.197 1.197 0 0 0 0-1.69l1.237-1.236a2.95 2.95 0 0 1 0 4.164l-1.7 1.7a2.95 2.95 0 0 1-3.747.35 16.8 16.8 0 0 1-4.381-4.381 2.95 2.95 0 0 1 .35-3.748z" />
    <path fill="#000" d="M14.726 7.893a.876.876 0 0 1 1.239 1.238l-5.833 5.833a.876.876 0 0 1-1.239-1.238z" />
    <path fill="#000" d="M13.358 2.72a2.95 2.95 0 0 1 3.747-.349 16.8 16.8 0 0 1 4.381 4.381 2.95 2.95 0 0 1-.35 3.747l-1.7 1.7a2.95 2.95 0 0 1-4.164 0l1.237-1.237a1.196 1.196 0 0 0 1.689 0l1.7-1.7a1.2 1.2 0 0 0 .143-1.522 15 15 0 0 0-1.78-2.145 15 15 0 0 0-2.145-1.78 1.2 1.2 0 0 0-1.521.143l-1.7 1.7a1.196 1.196 0 0 0 0 1.689l-1.238 1.237a2.95 2.95 0 0 1 0-4.164l.001.001z" />
</svg>
