<!-- This Source Code Form is subject to the terms of the Mozilla Public
   - License, v. 2.0. If a copy of the MPL was not distributed with this
   - file, You can obtain one at http://mozilla.org/MPL/2.0/. -->
<svg xmlns="http://www.w3.org/2000/svg" width="24" height="24" fill="none" viewBox="0 0 24 24">
    <path fill="#000" fill-rule="evenodd" d="M2.256 3.257a.876.876 0 0 1 1.238 0l17.25 17.25a.874.874 0 0 1-.62 1.493.87.87 0 0 1-.618-.256l-3.005-3.005c-.69.797-1.4 1.556-2.082 2.245A3.38 3.38 0 0 1 12 22a3.4 3.4 0 0 1-2.42-1.016c-2.888-2.92-6.33-7.066-6.33-10.232a8.7 8.7 0 0 1 1.074-4.19L2.256 4.496a.877.877 0 0 1 0-1.238m3.37 4.608A6.9 6.9 0 0 0 5 10.752c0 1.978 2.123 5.259 5.824 9.002.633.64 1.72.64 2.35 0 .769-.776 1.46-1.53 2.083-2.258l-3.006-3.006q-.124.01-.25.01a3.754 3.754 0 0 1-3.741-4.001z" clip-rule="evenodd" />
    <path fill="#000" d="M12 2c4.825 0 8.75 3.926 8.75 8.752 0 1.653-.94 3.572-2.249 5.445l-1.265-1.264C18.373 13.253 19 11.812 19 10.752c0-3.861-3.141-7.002-7-7.002a6.97 6.97 0 0 0-4.39 1.556L6.368 4.064A8.7 8.7 0 0 1 12 2" />
    <path fill="#000" d="M12 7a3.754 3.754 0 0 1 3.75 3.75c0 .765-.232 1.475-.627 2.07l-1.284-1.285a2.002 2.002 0 0 0-2.624-2.624L9.931 7.627A3.7 3.7 0 0 1 12 7" />
</svg>
