<!-- This Source Code Form is subject to the terms of the Mozilla Public
   - License, v. 2.0. If a copy of the MPL was not distributed with this
   - file, You can obtain one at http://mozilla.org/MPL/2.0/. -->
<svg xmlns="http://www.w3.org/2000/svg" width="24" height="24" fill="none">
    <path fill="#000" d="M7.128 5.737A6.97 6.97 0 0 1 12 3.752a7.005 7.005 0 0 1 6.997 6.997c0 1.181-.777 2.806-2.186 4.67l1.246 1.246c1.506-1.952 2.69-4.07 2.69-5.916 0-4.823-3.924-8.747-8.747-8.747A8.7 8.7 0 0 0 5.891 4.5z" />
    <path fill="#000" fill-rule="evenodd" d="M15.85 16.612 6.153 6.915l.013-.02-1.253-1.252-.014.019L3.238 4 2 5.238l1.997 1.997a8.6 8.6 0 0 0-.744 3.514c0 3.57 4.423 8.168 7.061 10.59a2.5 2.5 0 0 0 1.687.663c.604 0 1.206-.221 1.687-.662a46 46 0 0 0 2.227-2.187L18.762 22 20 20.762l-2.909-2.908.016-.02-1.242-1.24zm-1.173 1.303a43 43 0 0 1-2.174 2.136.74.74 0 0 1-1.006 0c-4.066-3.736-6.494-7.213-6.494-9.302 0-.756.121-1.483.344-2.164z" clip-rule="evenodd" />
    <path fill="#000" d="M10.537 9.146A2 2 0 0 1 12 8.5c1.103 0 2 .897 2 2a2 2 0 0 1-.646 1.463l1.237 1.237a3.73 3.73 0 0 0 1.159-2.7A3.755 3.755 0 0 0 12 6.75a3.73 3.73 0 0 0-2.7 1.16z" />
</svg>
