<!-- This Source Code Form is subject to the terms of the Mozilla Public
   - License, v. 2.0. If a copy of the MPL was not distributed with this
   - file, You can obtain one at http://mozilla.org/MPL/2.0/. -->
<svg xmlns="http://www.w3.org/2000/svg" width="24" height="24" fill="none" viewBox="0 0 24 24">
    <path fill="#000" d="M7.25 14.25a1.25 1.25 0 1 1 0 2.5 1.25 1.25 0 0 1 0-2.5m5 0a1.25 1.25 0 1 1 0 2.5 1.25 1.25 0 0 1 0-2.5" />
    <path fill="#000" fill-rule="evenodd" d="M18.125 5c.483 0 .875.392.875.875v4.56q.13.014.263.032A3.14 3.14 0 0 1 22 13.572v3.858a3.12 3.12 0 0 1-2.708 3.1 56.8 56.8 0 0 1-14.555.004A3.14 3.14 0 0 1 2 17.43v-3.86a3.12 3.12 0 0 1 2.708-3.1 56.8 56.8 0 0 1 12.542-.227V5.875c0-.483.392-.875.875-.875M12 11.751c-2.597 0-4.967.184-7.066.456a1.37 1.37 0 0 0-1.184 1.364v3.858c0 .69.519 1.28 1.21 1.369a55 55 0 0 0 14.106-.004 1.37 1.37 0 0 0 1.184-1.364v-3.858c0-.69-.519-1.28-1.21-1.369a55 55 0 0 0-7.04-.452" clip-rule="evenodd" />
    <path fill="#000" d="M9.615 5.75c.697 0 1.356.16 1.944.444.315.151.39.567.143.814l-.218.218h-.002a2.64 2.64 0 0 1-3.736 0l-.218-.218a.507.507 0 0 1 .143-.814 4.5 4.5 0 0 1 1.944-.444m.001-3.5c1.523 0 2.95.407 4.187 1.114.495.283.574.97.17 1.372a.85.85 0 0 1-1.02.153A6.7 6.7 0 0 0 9.616 4a6.7 6.7 0 0 0-3.337.889.85.85 0 0 1-1.021-.153c-.403-.403-.324-1.089.17-1.372A8.4 8.4 0 0 1 9.617 2.25" />
</svg>
