<!-- This Source Code Form is subject to the terms of the Mozilla Public
   - License, v. 2.0. If a copy of the MPL was not distributed with this
   - file, You can obtain one at http://mozilla.org/MPL/2.0/. -->
<svg xmlns="http://www.w3.org/2000/svg" width="24" height="24" fill="none" viewBox="0 0 24 24">
    <path fill="#000" d="M9.5 16.25H7.25V14H9.5z" />
    <path fill="#000" fill-rule="evenodd" d="M10.737 10.5h.008l1.75 1.75h-.008l1.75 1.75h.013v.012l4.737 4.738h.008l1.526 1.527-.004.001L22 21.763l-.62.618-.617.619-2.5-2.5H5.5A2.5 2.5 0 0 1 3 18v-5c0-1.379 1.121-2.5 2.5-2.5h2.763L2 4.238 3.238 3zM5.5 12.25a.75.75 0 0 0-.75.75v5c0 .413.337.75.75.75h11.013l-2.5-2.5H12v-2.013l-1.987-1.987z" clip-rule="evenodd" />
    <path fill="#000" d="M19 10.5h.5c1.379 0 2.5 1.121 2.5 2.5v5c0 .467-.137.9-.361 1.274l-1.389-1.39V13a.75.75 0 0 0-.75-.75h-4.884l-1.75-1.75h4.384V5H19zm-9.884-4a4.47 4.47 0 0 1 2.548.796l-1 1-1.78-1.778c.078-.004.153-.018.232-.018m0-3.5c1.922 0 3.691.649 5.116 1.729l-1.248 1.248A6.7 6.7 0 0 0 9.116 4.75c-.608 0-1.19.098-1.75.25L5.98 3.613A8.4 8.4 0 0 1 9.116 3" />
</svg>
