<!-- This Source Code Form is subject to the terms of the Mozilla Public
   - License, v. 2.0. If a copy of the MPL was not distributed with this
   - file, You can obtain one at http://mozilla.org/MPL/2.0/. -->
<svg xmlns="http://www.w3.org/2000/svg" width="24" height="24" fill="none" viewBox="0 0 24 24">
    <path fill="#000" d="M9.5 16.25H7.25V14H9.5zm4.75 0H12V14h2.25z" />
    <path fill="#000" fill-rule="evenodd" d="M19 10.5h.5A2.5 2.5 0 0 1 22 13v5a2.5 2.5 0 0 1-2.5 2.5h-14A2.5 2.5 0 0 1 3 18v-5a2.5 2.5 0 0 1 2.5-2.5h11.75V5H19zM5.5 12.25a.75.75 0 0 0-.75.75v5c0 .414.336.75.75.75h14a.75.75 0 0 0 .75-.75v-5a.75.75 0 0 0-.75-.75z" clip-rule="evenodd" />
    <path fill="#000" d="M9.116 6.5c.947 0 1.824.296 2.549.795L10.43 8.53a.75.75 0 0 1-.53.22H8.332a.75.75 0 0 1-.53-.22L6.567 7.296a4.47 4.47 0 0 1 2.55-.796M9.116 3c1.922 0 3.691.649 5.116 1.729l-1.248 1.248a6.71 6.71 0 0 0-7.736-.001L4 4.728A8.45 8.45 0 0 1 9.116 3" />
</svg>
