<!-- This Source Code Form is subject to the terms of the Mozilla Public
   - License, v. 2.0. If a copy of the MPL was not distributed with this
   - file, You can obtain one at http://mozilla.org/MPL/2.0/. -->
<svg xmlns="http://www.w3.org/2000/svg" width="24" height="24" fill="none" viewBox="0 0 24 24">
    <path fill="#000" fill-rule="evenodd" d="M2 18h3.5A2.5 2.5 0 0 1 3 15.5v-8A2.5 2.5 0 0 1 5.5 5h13A2.5 2.5 0 0 1 21 7.5v8a2.5 2.5 0 0 1-2.5 2.5H22v1.75H2zM5.5 6.75a.75.75 0 0 0-.75.75v8c0 .414.336.75.75.75h13a.75.75 0 0 0 .75-.75v-8a.75.75 0 0 0-.75-.75z" clip-rule="evenodd" />
</svg>
