<svg width="24" height="24" viewBox="0 0 24 24" fill="none" xmlns="http://www.w3.org/2000/svg">
<path d="M9.5 16.25H7.25V14H9.5V16.25Z" fill="black"/>
<path fill-rule="evenodd" clip-rule="evenodd" d="M10.7373 10.5H10.7451L12.4951 12.25H12.4873L14.2373 14H14.25V14.0117L18.9873 18.75H18.9951L20.5215 20.2773L20.5166 20.2783L22 21.7627L21.3809 22.3809L20.7627 23L18.2627 20.5H5.5C4.121 20.5 3 19.379 3 18V13C3 11.621 4.121 10.5 5.5 10.5H8.2627L2 4.23828L3.23828 3L10.7373 10.5ZM5.5 12.25C5.087 12.25 4.75 12.587 4.75 13V18C4.75 18.413 5.087 18.75 5.5 18.75H16.5127L14.0127 16.25H12V14.2373L10.0127 12.25H5.5Z" fill="black"/>
<path d="M19 10.5H19.5C20.879 10.5 22 11.621 22 13V18C22 18.467 21.8627 18.8994 21.6387 19.2744L20.25 17.8838V13C20.25 12.587 19.913 12.25 19.5 12.25H14.6162L12.8662 10.5H17.25V5H19V10.5Z" fill="black"/>
<path d="M9.11621 6.5C10.0631 6.50004 10.9401 6.79594 11.6641 7.2959L10.6631 8.29688L8.88379 6.51758C8.96179 6.51358 9.03721 6.5 9.11621 6.5Z" fill="black"/>
<path d="M9.11621 3C11.0381 3.00005 12.8075 3.64855 14.2324 4.72852L12.9844 5.97656C11.8874 5.2056 10.5551 4.75004 9.11621 4.75C8.50828 4.75 7.92615 4.84803 7.36621 5L5.97949 3.61328C6.9504 3.22236 8.00633 3 9.11621 3Z" fill="black"/>
</svg>
