<!-- This Source Code Form is subject to the terms of the Mozilla Public
   - License, v. 2.0. If a copy of the MPL was not distributed with this
   - file, You can obtain one at http://mozilla.org/MPL/2.0/. -->
<svg width="24" height="24" viewBox="0 0 24 24" fill="none" xmlns="http://www.w3.org/2000/svg">
    <path fill-rule="evenodd" clip-rule="evenodd" d="M5.26172 5.02344C5.26398 5.02322 5.2663 5.02365 5.26855 5.02344L6.99512 6.75H6.98828L16.4873 16.25H16.4951L19.9951 19.75H19.9873L22 21.7627L21.3809 22.3809L20.7627 23L17.5127 19.75H2V18H5.5C4.12102 18 3.00003 16.879 3 15.5V7.5C3 6.86998 3.23555 6.29736 3.62207 5.86035L2 4.23828L3.23828 3L5.26172 5.02344ZM4.86523 7.10352C4.79289 7.2188 4.75 7.35439 4.75 7.5V15.5C4.75003 15.913 5.08702 16.25 5.5 16.25H14.0127L4.86523 7.10352Z" fill="black" />
    <path d="M22 18V19.6338L20.3662 18H22Z" fill="black" />
    <path d="M18.5 5C19.879 5.00002 21 6.12101 21 7.5V15.5C21 16.351 20.5709 17.1017 19.9189 17.5527L18.5957 16.2305C18.9617 16.1815 19.25 15.879 19.25 15.5V7.5C19.25 7.08701 18.913 6.75002 18.5 6.75H9.11621L7.36621 5H18.5Z" fill="black" />
</svg>
