<!-- This Source Code Form is subject to the terms of the Mozilla Public
   - License, v. 2.0. If a copy of the MPL was not distributed with this
   - file, You can obtain one at http://mozilla.org/MPL/2.0/. -->
<svg xmlns="http://www.w3.org/2000/svg" width="24" height="24" fill="none" viewBox="0 0 24 24">
    <path fill="#000" fill-rule="evenodd" d="M5.262 5.023h.007L6.995 6.75h-.007l9.5 9.5h.007l3.5 3.5h-.008L22 21.763l-.62.618-.617.619-3.25-3.25H2V18h3.5A2.5 2.5 0 0 1 3 15.5v-8c0-.63.236-1.203.622-1.64L2 4.238 3.238 3zm-.397 2.08a.74.74 0 0 0-.115.397v8c0 .413.337.75.75.75h8.513z" clip-rule="evenodd" />
    <path fill="#000" d="M22 18v1.634L20.366 18zM18.5 5C19.879 5 21 6.121 21 7.5v8c0 .851-.43 1.602-1.081 2.053l-1.323-1.323a.74.74 0 0 0 .654-.73v-8a.75.75 0 0 0-.75-.75H9.116L7.366 5z" />
</svg>
