<!-- This Source Code Form is subject to the terms of the Mozilla Public
   - License, v. 2.0. If a copy of the MPL was not distributed with this
   - file, You can obtain one at http://mozilla.org/MPL/2.0/. -->
<svg xmlns="http://www.w3.org/2000/svg" width="24" height="24" fill="none" viewBox="0 0 24 24">
    <path fill="#000" d="M7.25 14.25a1.25 1.25 0 1 1-.001 2.5 1.25 1.25 0 0 1 0-2.5m5.001 0a1.25 1.25 0 1 1-.001 2.5 1.25 1.25 0 0 1 0-2.5" />
    <path fill="#000" fill-rule="evenodd" d="M2.255 2.255a.877.877 0 0 1 1.239 0l18.25 18.25a.876.876 0 0 1-1.239 1.239l-1.215-1.216a57 57 0 0 1-14.553.003A3.14 3.14 0 0 1 2 17.426v-3.858c0-1.567 1.164-2.9 2.708-3.1a55 55 0 0 1 4.145-.377L2.255 3.494a.876.876 0 0 1 0-1.239m8.276 9.514c-1.871.05-3.748.195-5.597.435a1.374 1.374 0 0 0-1.185 1.365v3.858a1.39 1.39 0 0 0 1.213 1.37 55.3 55.3 0 0 0 12.75.153z" clip-rule="evenodd" />
    <path fill="#000" d="M18.125 5c.482 0 .874.392.875.875v4.56l.263.032A3.14 3.14 0 0 1 22 13.572v3.858c0 .361-.068.707-.182 1.032l-1.568-1.568v-3.322a1.39 1.39 0 0 0-1.212-1.37 55 55 0 0 0-3.834-.354l-1.823-1.824a58 58 0 0 1 3.869.222V5.875c0-.483.392-.875.875-.875m-8.51.75c.697 0 1.356.16 1.944.444.315.151.39.567.143.814l-.218.218a2.6 2.6 0 0 1-.513.389L9.133 5.778q.237-.027.482-.028m0-3.5c1.523 0 2.951.407 4.187 1.114.495.283.574.969.171 1.372a.854.854 0 0 1-1.021.153A6.7 6.7 0 0 0 9.615 4a6.7 6.7 0 0 0-1.957.303L6.293 2.94a8.4 8.4 0 0 1 3.322-.69" />
</svg>
