<!-- This Source Code Form is subject to the terms of the Mozilla Public
   - License, v. 2.0. If a copy of the MPL was not distributed with this
   - file, You can obtain one at http://mozilla.org/MPL/2.0/. -->
<svg width="24" height="24" viewBox="0 0 24 24" fill="none" xmlns="http://www.w3.org/2000/svg">
    <path d="M12.75 16.25H10.25V13.75H12.75V16.25Z" fill="black" />
    <path d="M17.75 16.25H15.25V13.75H17.75V16.25Z" fill="black" />
    <path fill-rule="evenodd" clip-rule="evenodd" d="M19 9.5H19.5C20.8802 9.5 22 10.6198 22 12V18C22 19.3802 20.8802 20.5 19.5 20.5H4.5C3.11975 20.5 2 19.3802 2 18V12C2 10.6198 3.11975 9.5 4.5 9.5H17.25V4H19V9.5ZM4.5 11.25C4.08625 11.25 3.75 11.5862 3.75 12V18C3.75 18.4138 4.08625 18.75 4.5 18.75H19.5C19.9138 18.75 20.25 18.4138 20.25 18V12C20.25 11.5862 19.9138 11.25 19.5 11.25H4.5Z" fill="black" />
    <path d="M8.11621 5.5C9.06313 5.50004 9.94009 5.79596 10.665 6.29492L9.42969 7.53027C9.28881 7.671 9.09911 7.7499 8.90039 7.75H7.33203C7.13303 7.75 6.94276 7.67127 6.80176 7.53027L5.56738 6.2959C6.29233 5.79602 7.16934 5.5 8.11621 5.5Z" fill="black" />
    <path d="M8.11621 2C10.0381 2.00005 11.8075 2.64856 13.2324 3.72852L11.9844 4.97656C10.8874 4.2056 9.55513 3.75004 8.11621 3.75C6.67731 3.75 5.345 4.20568 4.24805 4.97559L3 3.72754C4.42496 2.64864 6.19431 2 8.11621 2Z" fill="black" />
</svg>
