<!-- This Source Code Form is subject to the terms of the Mozilla Public
   - License, v. 2.0. If a copy of the MPL was not distributed with this
   - file, You can obtain one at http://mozilla.org/MPL/2.0/. -->
<svg xmlns="http://www.w3.org/2000/svg" width="24" height="24" fill="none" viewBox="0 0 24 24">
    <path fill="#000" fill-rule="evenodd" d="M12 7a3.754 3.754 0 0 1 3.75 3.75A3.754 3.754 0 0 1 12 14.5a3.754 3.754 0 0 1-3.75-3.75A3.754 3.754 0 0 1 12 7m0 1.75c-1.103 0-2 .897-2 2s.897 2 2 2 2-.897 2-2-.897-2-2-2" clip-rule="evenodd" />
    <path fill="#000" fill-rule="evenodd" d="M11.999 2a8.75 8.75 0 0 1 8.751 8.752c0 1.799-1.091 3.813-2.327 5.559-1.268 1.79-2.825 3.482-4.003 4.673a3.394 3.394 0 0 1-4.84 0c-1.178-1.19-2.735-2.883-4.003-4.674-1.236-1.745-2.328-3.76-2.328-5.558A8.75 8.75 0 0 1 11.999 2m0 1.75c-3.866 0-7 3.135-7 7.002 0 1.204.785 2.823 2.006 4.547 1.19 1.679 2.671 3.294 3.818 4.455l.127.116a1.643 1.643 0 0 0 2.226-.116l.444-.456c1.069-1.11 2.334-2.53 3.374-4C18.215 13.576 19 11.957 19 10.753a7 7 0 0 0-7.001-7.002" clip-rule="evenodd" />
</svg>
