<!-- This Source Code Form is subject to the terms of the Mozilla Public
   - License, v. 2.0. If a copy of the MPL was not distributed with this
   - file, You can obtain one at http://mozilla.org/MPL/2.0/. -->
<svg xmlns="http://www.w3.org/2000/svg" width="24" height="24" fill="none" viewBox="0 0 24 24">
    <path fill="#000" fill-rule="evenodd" d="M2.256 2.756a.876.876 0 0 1 1.238 0l18.25 18.25a.876.876 0 0 1-1.238 1.238l-2.309-2.308H2.876a.875.875 0 0 1 0-1.75h1.637A3.14 3.14 0 0 1 3 15.52V8.6a3.14 3.14 0 0 1 1.312-2.547L2.256 3.994a.876.876 0 0 1 0-1.238M5.59 7.328a1.38 1.38 0 0 0-.84 1.27v6.922a1.39 1.39 0 0 0 1.19 1.367c3.128.44 6.325.526 9.484.275z" clip-rule="evenodd" />
    <path fill="#000" d="M8.105 5.25a45.5 45.5 0 0 1 10.2.253 3.145 3.145 0 0 1 2.694 3.1v6.921c0 .726-.272 1.387-.698 1.922l-1.25-1.249a1.35 1.35 0 0 0 .199-.673V8.602c0-.683-.51-1.27-1.189-1.366-2-.28-4.04-.424-6.061-.424-.75 0-1.502.04-2.253.079z" />
</svg>
