<!-- This Source Code Form is subject to the terms of the Mozilla Public
   - License, v. 2.0. If a copy of the MPL was not distributed with this
   - file, You can obtain one at http://mozilla.org/MPL/2.0/. -->
<svg width="24" height="24" fill="none" xmlns="http://www.w3.org/2000/svg"><path fill-rule="evenodd" clip-rule="evenodd" d="M5 7v2h-.25c-.69 0-1.25.56-1.25 1.25v4.5c0 .69.56 1.25 1.25 1.25h5.442l2.308-4.039V10.25c0-.69-.56-1.25-1.25-1.25H11V7a3 3 0 1 0-6 0zm3-1.75A1.75 1.75 0 0 0 6.25 7v2h3.5V7A1.75 1.75 0 0 0 8 5.25zM19.537 20.436h-8.574a1.25 1.25 0 0 1-1.085-1.87l4.285-7.499a1.252 1.252 0 0 1 2.174 0l4.285 7.499a1.25 1.25 0 0 1-1.085 1.87zM14.5 13.5H16v2.75h-1.5V13.5zm0 4H16V19h-1.5v-1.5z" fill="#000"/></svg>