<!-- This Source Code Form is subject to the terms of the Mozilla Public
   - License, v. 2.0. If a copy of the MPL was not distributed with this
   - file, You can obtain one at http://mozilla.org/MPL/2.0/. -->
<svg width="24" height="24" fill="none" xmlns="http://www.w3.org/2000/svg"><path d="M15 11h.25c.69 0 1.25.56 1.25 1.25v2.592L12.658 11h1.092V9a1.745 1.745 0 0 0-3.455-.363l-.967-.967A2.988 2.988 0 0 1 12 6c1.654 0 3 1.346 3 3v2zM7.5 12.25c0-.69.56-1.25 1.25-1.25h2.138l5.612 5.612v.138c0 .69-.56 1.25-1.25 1.25h-6.5c-.69 0-1.25-.56-1.25-1.25v-4.5z" fill="#000"/><path fill-rule="evenodd" clip-rule="evenodd" d="m6.385 6.501 12.114 12.114-.884.884L5.501 7.385l.884-.884z" fill="#000"/></svg>