<!-- This Source Code Form is subject to the terms of the Mozilla Public
   - License, v. 2.0. If a copy of the MPL was not distributed with this
   - file, You can obtain one at http://mozilla.org/MPL/2.0/. -->
<svg xmlns="http://www.w3.org/2000/svg" width="24" height="24" fill="none" viewBox="0 0 24 24">
    <path fill="#000" d="M8.749 7.514v2.125c.011 0 .45.469.434.51a36 36 0 0 1 2.09-.11l1.753 1.753c-.343-.012-.685-.042-1.027-.042a31 31 0 0 0-4.945.398 1.54 1.54 0 0 0-1.305 1.528v4.65c0 .748.542 1.402 1.26 1.519a31 31 0 0 0 9.936.007 1.54 1.54 0 0 0 1.305-1.529h-.001v-1.31l1.714 1.714a3.28 3.28 0 0 1-2.74 2.853 32.7 32.7 0 0 1-10.497-.009C5.147 21.313 4 19.95 4 18.326v-4.65a3.29 3.29 0 0 1 2.775-3.258c.075-.012.151-.015.225-.027V6.999c0-.38.05-.747.132-1.103zM12 2.001c2.757 0 5 2.243 5 5v3.394c.09.014.182.018.271.033h.002c1.581.259 2.728 1.623 2.728 3.246v2.97l-1.75-1.75v-1.22c0-.748-.542-1.402-1.26-1.519-.557-.09-1.122-.145-1.685-.205l-1.895-1.895c.614.026 1.228.065 1.839.126V7A3.254 3.254 0 0 0 12 3.751a3.25 3.25 0 0 0-2.964 1.93L7.752 4.397C8.632 2.967 10.2 2.001 12 2.001" />
    <path fill="#000" d="M2.256 2.256a.876.876 0 0 1 1.238 0l18.25 18.25a.876.876 0 0 1-1.238 1.238L2.256 3.494a.876.876 0 0 1 0-1.238" />
</svg>
