<!-- This Source Code Form is subject to the terms of the Mozilla Public
   - License, v. 2.0. If a copy of the MPL was not distributed with this
   - file, You can obtain one at http://mozilla.org/MPL/2.0/. -->
<svg xmlns="http://www.w3.org/2000/svg" width="24" height="24" fill="none">
    <path fill="#000" d="M18 13v3.166L12.834 11H14.5V8c0-1.379-1.122-2.5-2.5-2.5a2.495 2.495 0 0 0-2.47 2.196L8.306 6.472A4.005 4.005 0 0 1 12 4c2.206 0 4 1.794 4 4v3c1.103 0 2 .897 2 2m-8.5-2h1.565L18 17.935V18c0 1.103-.897 2-2 2H8c-1.103 0-2-.897-2-2v-5c0-1.103.897-2 2-2V8l.003-.03.003-.029L9.5 9.435z" />
    <path fill="#000" fill-rule="evenodd" d="m5.28 5.22 14.5 14.5-1.06 1.06-14.5-14.5z" clip-rule="evenodd" />
</svg>
