<!-- This Source Code Form is subject to the terms of the Mozilla Public
   - License, v. 2.0. If a copy of the MPL was not distributed with this
   - file, You can obtain one at http://mozilla.org/MPL/2.0/. -->
<svg xmlns="http://www.w3.org/2000/svg" width="24" height="24" fill="none" viewBox="0 0 24 24">
    <path fill="#000" fill-rule="evenodd" d="m18.8 13.755 3.999 6.994c.573 1.002-.148 2.251-1.3 2.251h-7.998c-1.152 0-1.873-1.249-1.3-2.251l4-6.994a1.496 1.496 0 0 1 2.599 0M18.25 16h-1.5v2.75h1.5zm0 4h-1.5v1.5h1.5z" clip-rule="evenodd" />
    <path fill="#000" d="m10.899 20.004.431-.754H5a.75.75 0 0 1-.75-.75v-6c0-.413.337-.75.75-.75h10c.289 0 .533.17.658.41a2.93 2.93 0 0 1 1.644-.634A2.5 2.5 0 0 0 15 10V6c0-2.757-2.243-5-5-5S5 3.243 5 6v4a2.5 2.5 0 0 0-2.5 2.5v6C2.5 19.879 3.621 21 5 21h5.563c.059-.342.155-.68.336-.996M6.75 6A3.254 3.254 0 0 1 10 2.75 3.254 3.254 0 0 1 13.25 6v4h-6.5z" />
</svg>
