<!-- This Source Code Form is subject to the terms of the Mozilla Public
   - License, v. 2.0. If a copy of the MPL was not distributed with this
   - file, You can obtain one at http://mozilla.org/MPL/2.0/. -->
<svg xmlns="http://www.w3.org/2000/svg" width="24" height="24" fill="none" viewBox="0 0 24 24">
    <path fill="#000" fill-rule="evenodd" d="M16.18 12.75c.59-1 2.051-1 2.64 0l3.97 6.74a1.506 1.506 0 0 1-1.115 2.258 35 35 0 0 1-8.33.002c-1.093-.132-1.689-1.322-1.135-2.262zM17.5 19a.75.75 0 1 0 0 1.5.75.75 0 0 0 0-1.5m0-4.5a.75.75 0 0 0-.75.75V17a.75.75 0 0 0 1.5 0v-1.75a.75.75 0 0 0-.75-.75M9 1a5 5 0 0 1 5 5v3.384l.273.042c.876.144 1.61.635 2.098 1.314-.557.223-1.036.6-1.379 1.115-.226-.357-.574-.63-1.003-.7A31 31 0 0 0 9 10.75c-1.651 0-3.315.134-4.945.398a1.544 1.544 0 0 0-1.305 1.528v4.651c0 .749.542 1.402 1.26 1.519 2.21.36 4.47.458 6.712.334v-.001a2.97 2.97 0 0 0-.133 1.757c-.53.026-1.06.064-1.588.064a33 33 0 0 1-5.272-.427c-1.581-.259-2.728-1.623-2.728-3.246v-4.651a3.29 3.29 0 0 1 2.775-3.257L4 9.385V6a5 5 0 0 1 5-5m0 1.75A3.25 3.25 0 0 0 5.75 6v3.162a33 33 0 0 1 6.5 0V6A3.25 3.25 0 0 0 9 2.75" clip-rule="evenodd" />
</svg>
