<!-- This Source Code Form is subject to the terms of the Mozilla Public
   - License, v. 2.0. If a copy of the MPL was not distributed with this
   - file, You can obtain one at http://mozilla.org/MPL/2.0/. -->
<svg xmlns="http://www.w3.org/2000/svg" width="24" height="24" fill="none">
    <path fill="#000" d="M21.334 8.852a5.5 5.5 0 0 0-2.008-2.457c.491.92.833 1.913 1.014 2.941v.021c-1.125-2.731-3.051-3.832-4.624-6.228l-.236-.375a3 3 0 0 1-.11-.201 1.7 1.7 0 0 1-.154-.396l-.011-.01a.03.03 0 0 0-.024 0h-.007a7.04 7.04 0 0 0-3.443 5.383c.117-.007.234-.017.352-.017a5.08 5.08 0 0 1 4.387 2.479 3.54 3.54 0 0 0-2.413-.566 3.996 3.996 0 0 1 1.971 4.745 4.004 4.004 0 0 1-4.327 2.77 4.55 4.55 0 0 1-1.765-.443 4.1 4.1 0 0 1-2.359-3.165s.461-1.667 3.308-1.667a2.4 2.4 0 0 0 1.205-1.071 16 16 0 0 1-2.426-1.397c-.363-.349-.536-.516-.69-.641a3 3 0 0 0-.259-.19A4.36 4.36 0 0 1 8.688 6a7.4 7.4 0 0 0-2.41 1.802 5.1 5.1 0 0 1-.345-2.427 2 2 0 0 0-.334.173 7 7 0 0 0-.979.811 8.7 8.7 0 0 0-.934 1.084 8.1 8.1 0 0 0-1.35 2.934c0 .011-.095.406-.164.893l-.031.227a6 6 0 0 0-.06.555v.029q-.01.14-.02.322v.05a9.853 9.853 0 0 0 10.008 9.686 9.926 9.926 0 0 0 9.873-8.048l.045-.375a9.63 9.63 0 0 0-.653-4.864" />
</svg>
