<!-- This Source Code Form is subject to the terms of the Mozilla Public
   - License, v. 2.0. If a copy of the MPL was not distributed with this
   - file, You can obtain one at http://mozilla.org/MPL/2.0/. -->
<svg xmlns="http://www.w3.org/2000/svg" width="24" height="24" fill="none" viewBox="0 0 24 24">
    <path fill="#000" d="M5 16.75c0 1.214.888 2.238 1.988 2.238L12 19v2H7.1A4.1 4.1 0 0 1 3 16.9v-2.4h2zM18.009 16a2 2 0 1 1 0 4 2 2 0 0 1 0-4m-6-6a3 3 0 1 1 0 6 3 3 0 0 1 0-6" />
    <path fill="#000" d="m14 3 1.5 2h1.4A4.1 4.1 0 0 1 21 9.1V13h-2V9.25C19 8.036 18.1 7 17 7H7C5.9 7 5 8.036 5 9.25v2.25H3V9.1A4.1 4.1 0 0 1 7.1 5h1.4L10 3z" />
</svg>
