<!-- This Source Code Form is subject to the terms of the Mozilla Public
   - License, v. 2.0. If a copy of the MPL was not distributed with this
   - file, You can obtain one at http://mozilla.org/MPL/2.0/. -->
<svg xmlns="http://www.w3.org/2000/svg" width="24" height="24" fill="none" viewBox="0 0 24 24">
    <path fill="#000" fill-rule="evenodd" d="M15.118 7.164c.476-.231 1.1-.256 1.537.188.428.434.407 1.05.187 1.517l-.004.008-2.304 4.73-.008.016a1.96 1.96 0 0 1-.916.9h.001l-4.738 2.32-.003.003c-.485.235-1.094.224-1.516-.197-.42-.421-.43-1.03-.196-1.515l.001-.003 2.32-4.74.002-.005c.183-.367.429-.64.765-.838l.15-.08zm-4.193 3.738a.6.6 0 0 0-.1.153l-2.038 4.16 4.165-2.04.01-.004a.4.4 0 0 0 .134-.097z" clip-rule="evenodd" />
    <path fill="#000" fill-rule="evenodd" d="M12 2c5.523 0 10 4.477 10 10s-4.477 10-10 10S2 17.523 2 12 6.477 2 12 2m0 1.75c-4.549 0-8.25 3.701-8.25 8.25s3.701 8.25 8.25 8.25 8.25-3.701 8.25-8.25S16.549 3.75 12 3.75" clip-rule="evenodd" />
</svg>
