<svg width="24" height="24" fill="none" xmlns="http://www.w3.org/2000/svg"><path d="M21.334 8.852a5.478 5.478 0 0 0-2.008-2.457c.491.92.833 1.913 1.014 2.941v.021c-1.125-2.731-3.051-3.832-4.624-6.228l-.236-.375a3.38 3.38 0 0 1-.11-.201 1.692 1.692 0 0 1-.154-.396.035.035 0 0 0-.011-.01.033.033 0 0 0-.024 0h-.007a7.04 7.04 0 0 0-3.443 5.383c.117-.007.234-.017.352-.017a5.078 5.078 0 0 1 4.387 2.479 3.543 3.543 0 0 0-2.413-.566 3.996 3.996 0 0 1 1.971 4.745 4.004 4.004 0 0 1-4.327 2.77 4.55 4.55 0 0 1-1.765-.443 4.093 4.093 0 0 1-2.359-3.165s.461-1.667 3.308-1.667a2.386 2.386 0 0 0 1.205-1.071 15.96 15.96 0 0 1-2.426-1.397c-.363-.349-.536-.516-.69-.641a2.947 2.947 0 0 0-.259-.19A4.356 4.356 0 0 1 8.688 6a7.386 7.386 0 0 0-2.41 1.802 5.12 5.12 0 0 1-.345-2.427 1.956 1.956 0 0 0-.334.173 7.23 7.23 0 0 0-.979.811 8.682 8.682 0 0 0-.934 1.084 8.076 8.076 0 0 0-1.35 2.934c0 .011-.095.406-.164.893l-.031.227a6.357 6.357 0 0 0-.06.555v.029c-.006.095-.014.2-.02.322v.05a9.853 9.853 0 0 0 10.008 9.686 9.926 9.926 0 0 0 9.873-8.048l.045-.375a9.634 9.634 0 0 0-.653-4.864z" fill="#15141A"/></svg>