<!-- This Source Code Form is subject to the terms of the Mozilla Public
   - License, v. 2.0. If a copy of the MPL was not distributed with this
   - file, You can obtain one at http://mozilla.org/MPL/2.0/. -->
<svg xmlns="http://www.w3.org/2000/svg" width="24" height="24" fill="none" viewBox="0 0 24 24">
    <path fill="#000" d="M14.989 2.507c.08.02.15.072.19.147.18.335.479 1.056 1.066 1.816.294.38 1.751 1.955 2.364 2.673.525.614 1.464 2.184 1.523 2.52-.234-1.34-.587-2.051-.696-2.28-.03-.063-.067-.146.024-.224.067-.058.173-.019.22.023 1.808 1.641 2.236 3.935 2.115 6.44-.122 2.52-2.65 8.878-9.766 8.878-6.76 0-9.776-5.525-9.996-8.448-.26-3.45.998-6.754 3.397-8.233a.304.304 0 0 1 .457.264c-.014.955.09 1.65.288 1.933a6 6 0 0 0 .325-.314c.41-.41 1.029-1.03 1.627-1.313a.3.3 0 0 1 .301.02.29.29 0 0 1 .127.26c-.06 1.037-.024 1.793.094 1.973.39.59 1.751 1.492 2.57 1.932.387.208.642.229.695.282q.072.075.005.222c-.128.275-.648.931-1.02.931h-.27c-.79.031-2.901.313-3.096 1.644-.082.562.227 1.383.8 2.02a4.87 4.87 0 0 0 3.77 1.59c1.994-.082 3.496-1.424 3.84-3.209.35-1.803-.736-3.31-1.235-3.741-.066-.057-.151-.151-.098-.335.073-.253.433-.193.648-.132.242.068.91.3 1.024.469-1.645-2.475-3.942-2.444-4.525-2.407a.32.32 0 0 1-.22-.073.28.28 0 0 1-.093-.188c-.052-.784.499-2.166 1.257-3.145.75-.971 1.684-1.684 2.05-1.946a.3.3 0 0 1 .238-.049" />
</svg>
