<!-- This Source Code Form is subject to the terms of the Mozilla Public
   - License, v. 2.0. If a copy of the MPL was not distributed with this
   - file, You can obtain one at http://mozilla.org/MPL/2.0/. -->
<svg xmlns="http://www.w3.org/2000/svg" width="24" height="24" fill="none" viewBox="0 0 24 24">
    <path fill="#000" fill-rule="evenodd" d="M12 2c5.523 0 10 4.477 10 10s-4.477 10-10 10S2 17.523 2 12 6.477 2 12 2m2.894 7.251a3.98 3.98 0 0 1 .41 5.001l-3.46 5.993.156.005c4.549 0 8.25-3.701 8.25-8.25a8.2 8.2 0 0 0-.473-2.749zm-9.96-1.506A8.2 8.2 0 0 0 3.75 12c0 4.03 2.906 7.391 6.731 8.106l2.439-4.222c-.296.07-.601.116-.919.116a4 4 0 0 1-3.339-1.803H8.66zM12 9.25A2.754 2.754 0 0 0 9.249 12c0 .565.172 1.091.466 1.528l.006.01A2.75 2.75 0 0 0 14.75 12a2.754 2.754 0 0 0-2.751-2.75M12 3.75a8.23 8.23 0 0 0-6.262 2.887l2.444 4.234A3.98 3.98 0 0 1 12 8h7.212A8.26 8.26 0 0 0 12 3.75" clip-rule="evenodd" />
</svg>
