<!-- This Source Code Form is subject to the terms of the Mozilla Public
   - License, v. 2.0. If a copy of the MPL was not distributed with this
   - file, You can obtain one at http://mozilla.org/MPL/2.0/. -->
<svg width="24" height="24" fill="none" xmlns="http://www.w3.org/2000/svg"><path fill-rule="evenodd" clip-rule="evenodd" d="M2 12C2 6.477 6.477 2 12 2s10 4.477 10 10-4.477 10-10 10S2 17.523 2 12zm17.214-4A8.257 8.257 0 0 0 12 3.75a8.235 8.235 0 0 0-6.264 2.886l2.446 4.235C8.671 9.215 10.186 8 12 8h7.214zm.565 1.25h-4.886a3.978 3.978 0 0 1 .411 5.002l-3.462 5.996c.052.002.105.002.158.002 4.549 0 8.25-3.701 8.25-8.25 0-.964-.166-1.89-.471-2.75zm-9.3 10.86 2.44-4.226c-.296.07-.601.116-.919.116a3.995 3.995 0 0 1-3.339-1.804l-.002.001-3.725-6.452A8.2 8.2 0 0 0 3.75 12c0 4.03 2.904 7.394 6.73 8.11zM12 14.75A2.754 2.754 0 0 0 14.75 12 2.754 2.754 0 0 0 12 9.25 2.754 2.754 0 0 0 9.25 12c0 .565.172 1.091.465 1.528l.006.01A2.75 2.75 0 0 0 12 14.75z" fill="#000"/></svg>
