<!-- This Source Code Form is subject to the terms of the Mozilla Public
   - License, v. 2.0. If a copy of the MPL was not distributed with this
   - file, You can obtain one at http://mozilla.org/MPL/2.0/. -->
<svg xmlns="http://www.w3.org/2000/svg" width="24" height="24" fill="none" viewBox="0 0 24 24">
    <path fill="#000" d="M2.256 2.256a.876.876 0 0 1 1.238 0l18.25 18.25a.876.876 0 0 1-1.238 1.238l-5.029-5.028a7.1 7.1 0 0 1-2.602.857v2.677h3.25a.875.875 0 1 1 0 1.75h-8.25a.875.875 0 0 1 0-1.75h3.25v-2.675a7.11 7.11 0 0 1-6.103-5.503.874.874 0 0 1 .658-1.048.873.873 0 0 1 1.048.657A5.38 5.38 0 0 0 12 15.878c.775 0 1.51-.166 2.177-.463l-1.48-1.48a3.948 3.948 0 0 1-4.65-3.729 52 52 0 0 1-.031-.952l-5.76-5.76a.876.876 0 0 1 0-1.238m15.016 9.424a.875.875 0 0 1 1.705.392 7.2 7.2 0 0 1-1.091 2.458l-1.261-1.261c.29-.483.516-1.012.647-1.588m-5.273-9.682a3.95 3.95 0 0 1 3.955 3.794 52 52 0 0 1 .001 4.389 4 4 0 0 1-.56 1.856l-1.31-1.31a2.2 2.2 0 0 0 .122-.616 53 53 0 0 0-.001-4.246 2.204 2.204 0 0 0-2.207-2.116c-1.188 0-2.157.94-2.206 2.138-.008.187-.006.355-.01.538l-1.57-1.569C8.698 3.198 10.202 2 12 2" />
</svg>
