<!-- This Source Code Form is subject to the terms of the Mozilla Public
   - License, v. 2.0. If a copy of the MPL was not distributed with this
   - file, You can obtain one at http://mozilla.org/MPL/2.0/. -->
<svg width="24" height="24" fill="none" xmlns="http://www.w3.org/2000/svg"><path d="M10 7.636V5.75c0-1.103.897-2 2-2s2 .897 2 2v4.75c0 .328-.087.634-.228.908l1.269 1.269a3.718 3.718 0 0 0 .709-2.177V5.75A3.755 3.755 0 0 0 12 2a3.755 3.755 0 0 0-3.75 3.75v.136L10 7.636zM17.529 15.166a7.216 7.216 0 0 0 1.721-4.679H17.5c0 1.3-.456 2.494-1.213 3.436l1.242 1.243zM8.25 8.013 3.238 3 2 4.238l6.25 6.25v.012A3.755 3.755 0 0 0 12 14.25h.012l1.519 1.518c-.486.143-1 .219-1.531.219a5.507 5.507 0 0 1-5.5-5.5H4.75c0 3.702 2.788 6.764 6.375 7.197v2.566H7V22h10v-1.75h-4.125v-2.566a7.157 7.157 0 0 0 2.018-.554l4.87 4.87L21 20.762l-4.558-4.558.003-.002-1.248-1.248-.003.002-1.26-1.26.003-.002-1.306-1.306-.004.001L10 9.763v-.006l-1.75-1.75v.006z" fill="#000"/></svg>
