<!-- This Source Code Form is subject to the terms of the Mozilla Public
   - License, v. 2.0. If a copy of the MPL was not distributed with this
   - file, You can obtain one at http://mozilla.org/MPL/2.0/. -->
<svg xmlns="http://www.w3.org/2000/svg" width="24" height="24" fill="none" viewBox="0 0 24 24">
    <path fill="#000" d="M17.273 11.68a.87.87 0 0 1 1.047-.657.875.875 0 0 1 .658 1.048 7.11 7.11 0 0 1-6.103 5.503v2.676h3.25a.875.875 0 1 1 0 1.75h-8.25a.875.875 0 0 1 0-1.75h3.25v-2.676a7.11 7.11 0 0 1-6.103-5.503.875.875 0 0 1 1.706-.391A5.38 5.38 0 0 0 12 15.877a5.38 5.38 0 0 0 5.273-4.197" />
    <path fill="#000" fill-rule="evenodd" d="M12 2a3.956 3.956 0 0 1 3.955 3.794l.034 1.085a54 54 0 0 1-.033 3.306C15.87 12.303 14.138 14 12.001 14a3.956 3.956 0 0 1-3.942-3.597l-.013-.197a53 53 0 0 1-.001-4.39C8.132 3.695 9.863 2 12 2m0 1.75a2.22 2.22 0 0 0-2.207 2.138 51 51 0 0 0 .001 4.246l.02.218a2.205 2.205 0 0 0 2.187 1.898 2.22 2.22 0 0 0 2.207-2.139 51 51 0 0 0 .031-3.195l-.032-1.05A2.206 2.206 0 0 0 12 3.75" clip-rule="evenodd" />
</svg>
