<svg width="24" height="24" viewBox="0 0 24 24" fill="none" xmlns="http://www.w3.org/2000/svg">
<path d="M12.5 17C13.3284 17 14 17.6716 14 18.5C14 19.3284 13.3284 20 12.5 20C11.6716 20 11 19.3284 11 18.5C11 17.6716 11.6716 17 12.5 17Z" fill="black"/>
<path d="M12.5 10.5C13.3284 10.5 14 11.1716 14 12C14 12.8284 13.3284 13.5 12.5 13.5C11.6716 13.5 11 12.8284 11 12C11 11.1716 11.6716 10.5 12.5 10.5Z" fill="black"/>
<path d="M12.5 4C13.3284 4 14 4.67157 14 5.5C14 6.32843 13.3284 7 12.5 7C11.6716 7 11 6.32843 11 5.5C11 4.67157 11.6716 4 12.5 4Z" fill="black"/>
</svg>
