<svg width="24" height="24" viewBox="0 0 24 24" fill="none" xmlns="http://www.w3.org/2000/svg">
<path d="M5.5 11C6.32843 11 7 11.6716 7 12.5C7 13.3284 6.32843 14 5.5 14C4.67157 14 4 13.3284 4 12.5C4 11.6716 4.67157 11 5.5 11Z" fill="black"/>
<path d="M12 11C12.8284 11 13.5 11.6716 13.5 12.5C13.5 13.3284 12.8284 14 12 14C11.1716 14 10.5 13.3284 10.5 12.5C10.5 11.6716 11.1716 11 12 11Z" fill="black"/>
<path d="M18.5 11C19.3284 11 20 11.6716 20 12.5C20 13.3284 19.3284 14 18.5 14C17.6716 14 17 13.3284 17 12.5C17 11.6716 17.6716 11 18.5 11Z" fill="black"/>
</svg>
