<!-- This Source Code Form is subject to the terms of the Mozilla Public
   - License, v. 2.0. If a copy of the MPL was not distributed with this
   - file, You can obtain one at http://mozilla.org/MPL/2.0/. -->
<svg width="24" height="24" viewBox="0 0 24 24" fill="none" xmlns="http://www.w3.org/2000/svg">
    <path d="M6.5 12C6.5 12.8284 5.82843 13.5 5 13.5C4.17157 13.5 3.5 12.8284 3.5 12C3.5 11.1716 4.17157 10.5 5 10.5C5.82843 10.5 6.5 11.1716 6.5 12Z" fill="black" />
    <path d="M13.5 12C13.5 12.8284 12.8284 13.5 12 13.5C11.1716 13.5 10.5 12.8284 10.5 12C10.5 11.1716 11.1716 10.5 12 10.5C12.8284 10.5 13.5 11.1716 13.5 12Z" fill="black" />
    <path d="M20.5 12C20.5 12.8284 19.8284 13.5 19 13.5C18.1716 13.5 17.5 12.8284 17.5 12C17.5 11.1716 18.1716 10.5 19 10.5C19.8284 10.5 20.5 11.1716 20.5 12Z" fill="black" />
</svg>
