<!-- This Source Code Form is subject to the terms of the Mozilla Public
   - License, v. 2.0. If a copy of the MPL was not distributed with this
   - file, You can obtain one at http://mozilla.org/MPL/2.0/. -->
<svg xmlns="http://www.w3.org/2000/svg" width="24" height="24" fill="none" viewBox="0 0 24 24">
    <path fill="#000" d="M16.625 15a.875.875 0 0 1 0 1.75h-9.25a.875.875 0 0 1 0-1.75zM9.75 7.25c.69 0 1.25.56 1.25 1.25v3.125c0 .69-.56 1.25-1.25 1.25h-2c-.69 0-1.25-.56-1.25-1.25V8.5c0-.69.56-1.25 1.25-1.25zm6.875 3.875a.875.875 0 0 1 0 1.75h-3.25a.875.875 0 0 1 0-1.75zm0-3.875a.875.875 0 0 1 0 1.75h-3.25a.875.875 0 0 1 0-1.75z" />
    <path fill="#000" fill-rule="evenodd" d="M12 3c1.878 0 4.083.118 6.525.474l.26.05A2.89 2.89 0 0 1 21 6.323v11.353a2.87 2.87 0 0 1-2.443 2.846 45.3 45.3 0 0 1-13.082.004A2.89 2.89 0 0 1 3 17.676V6.323a2.87 2.87 0 0 1 2.443-2.845A45 45 0 0 1 12 3m0 1.75c-2.34 0-4.459.188-6.303.458l.001.001c-.54.08-.948.55-.948 1.114v11.353c0 .556.415 1.037.978 1.119a43.5 43.5 0 0 0 12.574-.004l.1-.02a1.12 1.12 0 0 0 .848-1.094V6.324c0-.556-.415-1.037-.977-1.119A43.5 43.5 0 0 0 12 4.75" clip-rule="evenodd" />
</svg>
