<!-- This Source Code Form is subject to the terms of the Mozilla Public
   - License, v. 2.0. If a copy of the MPL was not distributed with this
   - file, You can obtain one at http://mozilla.org/MPL/2.0/. -->
<svg xmlns="http://www.w3.org/2000/svg" width="24" height="24" fill="none" viewBox="0 0 24 24">
    <path fill="#000" d="M10.291 4.045a1.13 1.13 0 0 1 1.103.277c.3.288.422.7.327 1.104a7.6 7.6 0 0 0-.201 1.72 7.64 7.64 0 0 0 6.197 7.501 7.6 7.6 0 0 0 1.527.184c.415.007.786.226.99.589a1.13 1.13 0 0 1-.003 1.137 8.6 8.6 0 0 1-1.215 1.629 8.56 8.56 0 0 1-6.368 2.813V21q-.46 0-.929-.048c-4.17-.434-7.484-3.927-7.707-8.126a8.6 8.6 0 0 1 6.28-8.781" />
</svg>
