<!-- This Source Code Form is subject to the terms of the Mozilla Public
   - License, v. 2.0. If a copy of the MPL was not distributed with this
   - file, You can obtain one at http://mozilla.org/MPL/2.0/. -->
<svg xmlns="http://www.w3.org/2000/svg" width="24" height="24" fill="none" viewBox="0 0 24 24">
    <path fill="#000" fill-rule="evenodd" d="M10.51 3.45a1.5 1.5 0 0 1 1.457.364c.395.378.554.92.43 1.452a7 7 0 0 0-.189 1.62 7.2 7.2 0 0 0 5.84 7.07c.489.108.968.166 1.453.175.544.01 1.03.298 1.3.774a1.49 1.49 0 0 1-.004 1.5 9 9 0 0 1-1.217 1.64l-.035.041A8.86 8.86 0 0 1 12.955 21q-.479 0-.964-.051c-4.318-.45-7.748-4.065-7.978-8.412C3.79 8.33 6.462 4.592 10.51 3.45m.1 1.801a7.16 7.16 0 0 0-4.85 7.195c.182 3.437 2.999 6.408 6.413 6.763 2.286.238 4.482-.584 6.033-2.254q.027-.033.056-.064.453-.476.812-1.025a9 9 0 0 1-1.38-.194c-4.183-.799-7.237-4.496-7.237-8.786 0-.545.051-1.094.153-1.635" clip-rule="evenodd" />
</svg>
