<!-- This Source Code Form is subject to the terms of the Mozilla Public
   - License, v. 2.0. If a copy of the MPL was not distributed with this
   - file, You can obtain one at http://mozilla.org/MPL/2.0/. -->
<svg xmlns="http://www.w3.org/2000/svg" width="24" height="24" fill="none">
    <path fill="#000" fill-rule="evenodd" d="M18.237 17 22 20.762 20.762 22 18 19.237v1.888a.876.876 0 0 1-1.494.619L11.763 17H4.5A2.5 2.5 0 0 1 2 14.5v-10c0-.37.081-.72.227-1.036L1 2.238 2.238 1l1.23 1.23.001-.001L4.99 3.75h-.003l6.5 6.5h.003L13 11.76v.003l3.648 3.647.002-.001L18.24 17zm-9.224-6.75H6V12h4.763l5.487 5.487v1.526l-3.506-3.507a.88.88 0 0 0-.619-.256H4.5a.75.75 0 0 1-.75-.75V4.987z" clip-rule="evenodd" />
    <path fill="#000" d="M7.111 3.75H19.5c.413 0 .75.337.75.75v10c0 .413-.337.75-.75.75h-.889l1.626 1.626A2.49 2.49 0 0 0 22 14.5v-10C22 3.121 20.879 2 19.5 2H5.361z" />
    <path fill="#000" d="M11.361 8H18V6.25H9.611z" />
</svg>
