<!-- This Source Code Form is subject to the terms of the Mozilla Public
   - License, v. 2.0. If a copy of the MPL was not distributed with this
   - file, You can obtain one at http://mozilla.org/MPL/2.0/. -->
<svg xmlns="http://www.w3.org/2000/svg" width="24" height="24" fill="none" viewBox="0 0 24 24">
    <path fill="#000" d="M13.251 19.902a8 8 0 0 1-2.502 0l.271-1.728a6.3 6.3 0 0 0 1.96 0zm-5.184-3.045a6.3 6.3 0 0 0 1.693.98l-.315.816-.313.818a8 8 0 0 1-2.167-1.254zm8.968 1.36a8 8 0 0 1-2.167 1.254l-.313-.818-.315-.816a6.2 6.2 0 0 0 1.693-.98zM6.163 14.24a6.3 6.3 0 0 0 .98 1.693l-1.36 1.102a8 8 0 0 1-1.254-2.167l.818-.313zm12.49.315.818.313a8 8 0 0 1-1.254 2.167l-1.36-1.102a6.3 6.3 0 0 0 .98-1.693zM5.826 11.02a6.3 6.3 0 0 0 0 1.96l-1.728.271a8 8 0 0 1 0-2.502zm14.076-.271a8 8 0 0 1 0 2.502l-1.728-.271a6.3 6.3 0 0 0 0-1.96zM7.143 8.067a6.2 6.2 0 0 0-.98 1.693l-.816-.315-.818-.313a8 8 0 0 1 1.254-2.167zm11.074-1.102c.524.646.95 1.376 1.254 2.167l-.818.313-.816.315a6.2 6.2 0 0 0-.98-1.693zM9.445 5.347l.315.816a6.2 6.2 0 0 0-1.693.98l-1.102-1.36A8 8 0 0 1 9.132 4.53zm5.423-.817a8 8 0 0 1 2.167 1.253l-1.102 1.36a6.2 6.2 0 0 0-1.693-.98l.315-.816zM12 4q.638.001 1.251.098l-.271 1.728a6.3 6.3 0 0 0-1.96 0l-.271-1.728A8 8 0 0 1 12 4" />
</svg>
