<!-- This Source Code Form is subject to the terms of the Mozilla Public
   - License, v. 2.0. If a copy of the MPL was not distributed with this
   - file, You can obtain one at http://mozilla.org/MPL/2.0/. -->
<svg xmlns="http://www.w3.org/2000/svg" width="24" height="24" fill="none" viewBox="0 0 24 24">
    <path fill="#000" d="M13.125 12.25a.875.875 0 0 1 0 1.75h-5.25a.875.875 0 0 1 0-1.75zm3-4.25a.875.875 0 0 1 0 1.75h-8.25a.875.875 0 1 1 0-1.75z" />
    <path fill="#000" fill-rule="evenodd" d="M12 3.501c2.13 0 4.576.12 7.263.466A3.14 3.14 0 0 1 22 7.072v7.858a3.12 3.12 0 0 1-2.42 3.049l-.288.05q-.63.082-1.292.15v1.692c0 1.86-2.224 2.822-3.58 1.549l-3.114-2.925a57 57 0 0 1-6.569-.46A3.14 3.14 0 0 1 2 14.928V7.07a3.12 3.12 0 0 1 2.708-3.1A57 57 0 0 1 12 3.502m0 1.75c-2.597 0-4.967.184-7.066.456A1.37 1.37 0 0 0 3.75 7.071v7.858c0 .69.52 1.28 1.21 1.369 2.156.278 4.152.407 5.945.442l.756.01.082.004a.88.88 0 0 1 .512.233l3.363 3.157c.24.225.632.054.632-.273V17.39c0-.452.345-.83.795-.871q1.047-.097 2.02-.225a1.37 1.37 0 0 0 1.185-1.364V7.072c0-.646-.456-1.205-1.083-1.346l-.128-.023A55 55 0 0 0 12 5.251" clip-rule="evenodd" />
</svg>
