<!-- This Source Code Form is subject to the terms of the Mozilla Public
   - License, v. 2.0. If a copy of the MPL was not distributed with this
   - file, You can obtain one at http://mozilla.org/MPL/2.0/. -->
<svg xmlns="http://www.w3.org/2000/svg" width="24" height="24" fill="none" viewBox="0 0 24 24">
    <path fill="#000" fill-rule="evenodd" d="M2.256 1.256a.876.876 0 0 1 1.238 0l18.25 18.25a.876.876 0 0 1-1.238 1.238l-2.508-2.508v.635c0 .861-.491 1.608-1.281 1.95a2.1 2.1 0 0 1-2.297-.4l-3.114-2.924a57 57 0 0 1-6.568-.462A3.144 3.144 0 0 1 2 13.93V6.072c0-1.034.508-1.965 1.297-2.537l-1.041-1.04a.876.876 0 0 1 0-1.24m2.313 3.552a1.38 1.38 0 0 0-.82 1.264v7.858c0 .69.522 1.28 1.213 1.369a55 55 0 0 0 6.7.45.87.87 0 0 1 .593.238l3.363 3.158a.36.36 0 0 0 .405.07.36.36 0 0 0 .227-.345v-2.382l-3.5-3.499a1 1 0 0 1-.125.01h-4.75a.875.875 0 1 1 0-1.75h3.137l-2.5-2.5h-.637a.875.875 0 0 1-.727-1.362z" clip-rule="evenodd" />
    <path fill="#000" d="M7.077 2.72a57 57 0 0 1 12.186.246A3.144 3.144 0 0 1 22 6.07v7.858a3.13 3.13 0 0 1-1.232 2.483l-1.261-1.262c.442-.229.743-.693.743-1.221V6.07c0-.69-.521-1.28-1.212-1.369A55 55 0 0 0 12 4.25c-1.094 0-2.194.035-3.291.101z" />
    <path fill="#000" d="M16.125 7a.875.875 0 0 1 0 1.75h-3.019L11.356 7z" />
</svg>
