<!-- This Source Code Form is subject to the terms of the Mozilla Public
   - License, v. 2.0. If a copy of the MPL was not distributed with this
   - file, You can obtain one at http://mozilla.org/MPL/2.0/. -->
<svg xmlns="http://www.w3.org/2000/svg" width="24" height="24" fill="none" viewBox="0 0 24 24">
    <path fill="#000" fill-rule="evenodd" d="m19.747 12.885-.427.427 1.41 1.41 1.313.029a1.167 1.167 0 0 1 .8 1.993l-1.107 1.108L24 20.116l-.885.884-2.263-2.264-1.108 1.108a1.168 1.168 0 0 1-1.994-.8l-.03-1.314-1.41-1.41-.427.428-.883-.884 2.991-2.99.003-.005.005-.003.866-.866zm-2.552 2.55 1.764 1.766.036 1.624 2.831-2.83-1.624-.036-1.766-1.764z" clip-rule="evenodd" />
    <path fill="#000" d="M18.275 4c1.38 0 2.5 1.122 2.5 2.5v5.29l-.85-.85-.9-.902V6.5a.75.75 0 0 0-.75-.75H4.75A.75.75 0 0 0 4 6.5v9.75c0 .414.337.75.75.75h9.264l.808.808.94.942L17.01 20H0v-1.75h3.256a2.5 2.5 0 0 1-1.006-2V6.5c0-1.378 1.121-2.5 2.5-2.5z" />
</svg>
