<!-- This Source Code Form is subject to the terms of the Mozilla Public
   - License, v. 2.0. If a copy of the MPL was not distributed with this
   - file, You can obtain one at http://mozilla.org/MPL/2.0/. -->
<svg xmlns="http://www.w3.org/2000/svg" width="24" height="24" fill="none" viewBox="0 0 24 24">
    <g fill="#000">
        <path fill-rule="evenodd" d="M18.663 13.115a.626.626 0 0 1 .726 1.018l-.035.025 1.077 1.076 1.37.121a1.58 1.58 0 0 1 1.27.879c.222.452.245 1.05-.12 1.538-.36.48-.713.881-1.047 1.24l1.914 1.922a.625.625 0 0 1-.885.882l-1.914-1.92c-.424.392-.85.758-1.264 1.066-.492.368-1.091.334-1.536.105a1.59 1.59 0 0 1-.862-1.267l-.12-1.37-1.078-1.078-.025.035a.625.625 0 1 1-1.018-.725 15.2 15.2 0 0 1 3.547-3.547m-.298 1.824q-.405.351-.739.686-.372.374-.687.74l1.503 1.502.02.226.14 1.597.018.08a.35.35 0 0 0 .17.186c.107.055.18.033.217.006l.296-.23c.3-.24.612-.514.928-.81l.71-.707c.329-.352.665-.736 1.008-1.193.034-.045.055-.127.001-.235a.32.32 0 0 0-.259-.187l-1.596-.14-.226-.02-.161-.16z" clip-rule="evenodd" />
        <path d="M3.666 4.448a45.4 45.4 0 0 1 12.64-.005 3.145 3.145 0 0 1 2.695 3.1v3.962a2.1 2.1 0 0 0-1.206.39c-.187.132-.363.281-.544.422V7.542a1.39 1.39 0 0 0-1.187-1.368A44 44 0 0 0 10 5.751a44 44 0 0 0-6.09.428 1.37 1.37 0 0 0-1.16 1.36v6.92c0 .684.51 1.272 1.188 1.368 3.236.454 6.537.522 9.796.243a2.106 2.106 0 0 0 .657 2.686v.002c.073.051.159.077.237.119H.875a.875.875 0 0 1 0-1.75h1.638A3.14 3.14 0 0 1 1 14.46V7.54c0-1.55 1.145-2.878 2.665-3.092" />
    </g>
</svg>
