<!-- This Source Code Form is subject to the terms of the Mozilla Public
   - License, v. 2.0. If a copy of the MPL was not distributed with this
   - file, You can obtain one at http://mozilla.org/MPL/2.0/. -->
<svg xmlns="http://www.w3.org/2000/svg" width="24" height="24" fill="none">
    <path fill="#000" fill-rule="evenodd" d="M5.5 3A2.5 2.5 0 0 0 3 5.5v13A2.5 2.5 0 0 0 5.5 21h13a2.5 2.5 0 0 0 2.5-2.5v-13A2.5 2.5 0 0 0 18.5 3zm-.75 2.5a.75.75 0 0 1 .75-.75H8v6.754a.875.875 0 0 0 1.3.765l2.7-1.5 2.7 1.5a.875.875 0 0 0 1.3-.765V4.75h2.5a.75.75 0 0 1 .75.75v13a.75.75 0 0 1-.75.75h-13a.75.75 0 0 1-.75-.75zm9.5-.75h-4.5v5.267l1.825-1.014a.88.88 0 0 1 .85 0l1.825 1.014z" clip-rule="evenodd" />
</svg>
