<!-- This Source Code Form is subject to the terms of the Mozilla Public
   - License, v. 2.0. If a copy of the MPL was not distributed with this
   - file, You can obtain one at http://mozilla.org/MPL/2.0/. -->
<svg xmlns="http://www.w3.org/2000/svg" width="24" height="24" fill="none" viewBox="0 0 24 24">
    <path fill="#000" fill-rule="evenodd" d="M12.5 2.005h.234c.618 0 1.212.245 1.65.682l4.427 4.415c.44.439.689 1.036.689 1.658v9.72a3.144 3.144 0 0 1-2.63 3.124 30.1 30.1 0 0 1-9.783-.007C5.587 21.35 4.5 20.04 4.5 18.483V5.463c0-1.543 1.089-2.839 2.589-3.082a30.5 30.5 0 0 1 5.411-.376m0 1.75a29 29 0 0 0-5.129.353c-.64.105-1.121.685-1.121 1.353v13.022c0 .684.482 1.28 1.122 1.386a28.5 28.5 0 0 0 9.215.007 1.4 1.4 0 0 0 1.163-1.396V8.488H13.5a1 1 0 0 1-1-1.001z" clip-rule="evenodd" />
</svg>
