<!-- This Source Code Form is subject to the terms of the Mozilla Public
   - License, v. 2.0. If a copy of the MPL was not distributed with this
   - file, You can obtain one at http://mozilla.org/MPL/2.0/. -->
<svg xmlns="http://www.w3.org/2000/svg" width="24" height="24" fill="none" viewBox="0 0 24 24">
    <path fill="#000" fill-rule="evenodd" d="M6.5 2A2.5 2.5 0 0 0 4 4.5v14A2.5 2.5 0 0 0 6.5 21h10a2.5 2.5 0 0 0 2.5-2.5v-11a.88.88 0 0 0-.256-.619l-4.625-4.625A.88.88 0 0 0 13.5 2zm-.75 2.5a.75.75 0 0 1 .75-.75h6V7.5a1 1 0 0 0 1 1h3.75v10a.75.75 0 0 1-.75.75h-10a.75.75 0 0 1-.75-.75z" clip-rule="evenodd" />
</svg>
