<!-- This Source Code Form is subject to the terms of the Mozilla Public
   - License, v. 2.0. If a copy of the MPL was not distributed with this
   - file, You can obtain one at http://mozilla.org/MPL/2.0/. -->
<svg xmlns="http://www.w3.org/2000/svg" width="24" height="24" fill="none" viewBox="0 0 24 24">
    <path fill="#000" d="M14 7a4 4 0 1 1-8 0 4 4 0 0 1 8 0" />
    <path fill="#000" fill-rule="evenodd" d="M19.375 15.883a3.505 3.505 0 0 0 2.505-4.315 3.46 3.46 0 0 0-2.447-2.447A3.7 3.7 0 0 0 18.5 9a3.5 3.5 0 0 0-3.5 3.5 3.49 3.49 0 0 0 2.625 3.376V22h1.75v-1H21v-2.5h-1.625zM16.75 12.5c0-.965.785-1.75 1.75-1.75q.244 0 .495.065a1.7 1.7 0 0 1 1.191 1.191 1.77 1.77 0 0 1-.3 1.564 1.752 1.752 0 0 1-3.136-1.07" clip-rule="evenodd" />
    <path fill="#000" d="M16.375 16.736a4.73 4.73 0 0 1-2.607-3.986H6.75A4.75 4.75 0 0 0 2 17.5V21h14.375z" />
</svg>
