<!-- This Source Code Form is subject to the terms of the Mozilla Public
   - License, v. 2.0. If a copy of the MPL was not distributed with this
   - file, You can obtain one at http://mozilla.org/MPL/2.0/. -->
<svg xmlns="http://www.w3.org/2000/svg" width="24" height="24" fill="none" viewBox="0 0 24 24">
    <path fill="#000" fill-rule="evenodd" d="M18.5 11.001q.454-.001.927.12a3.44 3.44 0 0 1 2.453 2.45 3.505 3.505 0 0 1-2.505 4.312V19.5h.875c.414 0 .75.337.75.751v1a.75.75 0 0 1-.75.75h-.875v.125a.875.875 0 0 1-1.75 0v-4.249A3.49 3.49 0 0 1 15 14.501a3.5 3.5 0 0 1 3.5-3.5m0 1.749c-.965 0-1.75.785-1.75 1.75a1.753 1.753 0 0 0 3.136 1.07 1.77 1.77 0 0 0 .3-1.564 1.7 1.7 0 0 0-1.19-1.19 2 2 0 0 0-.496-.066" clip-rule="evenodd" />
    <path fill="#000" d="M10.001 11c1.539 0 2.982.078 4.315.206.134.013.261.048.391.075-.742.872-1.207 1.987-1.207 3.219 0 1.75.923 3.32 2.352 4.216a2 2 0 0 1-.32.07 45.3 45.3 0 0 1-11.035.003 2.26 2.26 0 0 1-1.996-2.237v-1.858c0-1.795 1.362-3.313 3.15-3.485A46 46 0 0 1 10 11m0-9a3.5 3.5 0 1 1 0 7 3.5 3.5 0 0 1 0-7" />
</svg>
