<!-- This Source Code Form is subject to the terms of the Mozilla Public
   - License, v. 2.0. If a copy of the MPL was not distributed with this
   - file, You can obtain one at http://mozilla.org/MPL/2.0/. -->
<svg xmlns="http://www.w3.org/2000/svg" width="24" height="24" fill="none" viewBox="0 0 24 24">
    <path fill="#000" d="M13.84 10.03a.75.75 0 0 1 1.061 0l1.409 1.41 1.409-1.409a.75.75 0 0 1 1.06 1.06L17.37 12.5l1.41 1.41a.75.75 0 1 1-1.061 1.06l-1.41-1.41-1.408 1.41a.75.75 0 1 1-1.06-1.06l1.408-1.41-1.408-1.41a.75.75 0 0 1 0-1.06" />
    <path fill="#000" fill-rule="evenodd" d="M12 5.001c2.13 0 4.575.12 7.263.466A3.14 3.14 0 0 1 22 8.572v7.858a3.12 3.12 0 0 1-2.708 3.1 56.8 56.8 0 0 1-14.555.004A3.14 3.14 0 0 1 2 16.43V8.57a3.12 3.12 0 0 1 2.708-3.1A57 57 0 0 1 12 5.002m0 13.249c2.597 0 4.967-.184 7.066-.456a1.37 1.37 0 0 0 1.184-1.364V8.572c0-.69-.519-1.28-1.21-1.369A55 55 0 0 0 12 6.751zm-1.84-7.812a.75.75 0 0 0-1.061 0l-2.532 2.533-1.287-1.287a.75.75 0 0 0-1.06 1.06l1.817 1.818a.747.747 0 0 0 1.06 0l3.063-3.064a.75.75 0 0 0 0-1.06" clip-rule="evenodd" />
</svg>
