<svg width="24" height="24" viewBox="0 0 24 24" fill="none" xmlns="http://www.w3.org/2000/svg">
<path fill-rule="evenodd" clip-rule="evenodd" d="M6.75 12C8.51965 12 10.0022 13.2261 10.3965 14.875H20.125C20.608 14.875 21 15.267 21 15.75C21 16.233 20.608 16.625 20.125 16.625H10.3965C10.0022 18.2739 8.51965 19.5 6.75 19.5C4.679 19.5 3 17.821 3 15.75C3 13.679 4.679 12 6.75 12ZM6.75 13.75C5.647 13.75 4.75 14.647 4.75 15.75C4.75 16.853 5.647 17.75 6.75 17.75C7.853 17.75 8.75 16.853 8.75 15.75C8.75 14.647 7.853 13.75 6.75 13.75Z" fill="black"/>
<path fill-rule="evenodd" clip-rule="evenodd" d="M17.25 5C19.321 5 21 6.679 21 8.75C21 10.821 19.321 12.5 17.25 12.5C15.4804 12.5 13.9978 11.2739 13.6035 9.625H3.875C3.392 9.625 3 9.233 3 8.75C3 8.267 3.392 7.875 3.875 7.875H13.6035C13.9978 6.22612 15.4804 5 17.25 5ZM17.25 6.75C16.147 6.75 15.25 7.647 15.25 8.75C15.25 9.853 16.147 10.75 17.25 10.75C18.353 10.75 19.25 9.853 19.25 8.75C19.25 7.647 18.353 6.75 17.25 6.75Z" fill="black"/>
</svg>
