<!-- This Source Code Form is subject to the terms of the Mozilla Public
   - License, v. 2.0. If a copy of the MPL was not distributed with this
   - file, You can obtain one at http://mozilla.org/MPL/2.0/. -->
<svg xmlns="http://www.w3.org/2000/svg" width="24" height="24" fill="none" viewBox="0 0 24 24">
    <path fill="#000" fill-rule="evenodd" d="M6.75 12a3.75 3.75 0 0 1 3.646 2.875h9.729a.875.875 0 0 1 0 1.75h-9.728A3.75 3.75 0 1 1 6.75 12m0 1.75c-1.103 0-2 .897-2 2s.897 2 2 2 2-.897 2-2-.897-2-2-2M17.25 5a3.75 3.75 0 1 1-3.646 4.625H3.875a.875.875 0 0 1 0-1.75h9.729A3.75 3.75 0 0 1 17.25 5m0 1.75c-1.103 0-2 .897-2 2s.897 2 2 2 2-.897 2-2-.897-2-2-2" clip-rule="evenodd" />
</svg>
