<!-- This Source Code Form is subject to the terms of the Mozilla Public
   - License, v. 2.0. If a copy of the MPL was not distributed with this
   - file, You can obtain one at http://mozilla.org/MPL/2.0/. -->
<svg xmlns="http://www.w3.org/2000/svg" width="24" height="24" fill="none">
    <path fill="#000" fill-rule="evenodd" d="M15 8.5a3.5 3.5 0 1 1 7 0 3.5 3.5 0 0 1-7 0m5.25 0c0-.965-.785-1.75-1.75-1.75s-1.75.785-1.75 1.75.785 1.75 1.75 1.75 1.75-.785 1.75-1.75M2 15.5a3.5 3.5 0 1 1 7 0 3.5 3.5 0 0 1-7 0m5.25 0c0-.965-.785-1.75-1.75-1.75s-1.75.785-1.75 1.75.785 1.75 1.75 1.75 1.75-.785 1.75-1.75" clip-rule="evenodd" />
    <path fill="#000" d="M13.339 7.625H2v1.75h11.338a5 5 0 0 1-.088-.875c0-.3.04-.589.089-.875m-2.678 7H22v1.75H10.662c.048-.286.088-.575.088-.875s-.04-.589-.089-.875" />
</svg>
