<!-- This Source Code Form is subject to the terms of the Mozilla Public
   - License, v. 2.0. If a copy of the MPL was not distributed with this
   - file, You can obtain one at http://mozilla.org/MPL/2.0/. -->
<svg xmlns="http://www.w3.org/2000/svg" width="24" height="24" fill="none" viewBox="0 0 24 24">
    <path fill="#000" fill-rule="evenodd" d="M10.937 3.162a.875.875 0 0 1 1.015 1.426q-.291.207-.57.415l2.957 2.953 3.238.285.206.026c1.019.161 1.803.833 2.203 1.644s.452 1.844-.101 2.715l-.12.172a34 34 0 0 1-2.438 2.879l-.01.011-.011.011-.175.174 4.614 4.635a.876.876 0 0 1-1.24 1.234l-4.614-4.634-.204.204-.011.01a36 36 0 0 1-2.917 2.472c-.907.679-2.023.625-2.874.188-.85-.438-1.543-1.304-1.64-2.408l-.285-3.239-2.956-2.954q-.216.29-.417.571a.875.875 0 1 1-1.424-1.016 33.3 33.3 0 0 1 7.774-7.774m-.935 2.936A31.4 31.4 0 0 0 6.097 10l3.326 3.324.225.225.029.317.311 3.555c.038.436.317.808.697 1.004s.756.17 1.025-.031a34 34 0 0 0 2.76-2.342l1.591-1.584a32 32 0 0 0 2.305-2.72c.213-.285.24-.678.05-1.062a1.24 1.24 0 0 0-.991-.702l-3.556-.312-.316-.027-.226-.225z" clip-rule="evenodd" />
</svg>
