<!-- This Source Code Form is subject to the terms of the Mozilla Public
   - License, v. 2.0. If a copy of the MPL was not distributed with this
   - file, You can obtain one at http://mozilla.org/MPL/2.0/. -->
<svg width="24" height="24" fill="none" xmlns="http://www.w3.org/2000/svg"><path d="M2 10.933 10.933 2l1.238 1.238-1.39 1.39 2.793 2.795-1.237 1.238-2.794-2.794-3.676 3.676 2.795 2.794-1.238 1.238-2.795-2.794-1.391 1.39L2 10.933z" fill="#000"/><path fill-rule="evenodd" clip-rule="evenodd" d="m12.163 19.328 2.963-2.963L20.761 22l1.238-1.238-5.635-5.635 2.966-2.966a2.103 2.103 0 0 0 .47-2.301 2.102 2.102 0 0 0-1.931-1.336l-.774-.017 4.52-4.52-1.238-1.237-5.703 5.703h-.008l-1.268 1.268.004.004-3.676 3.676-.004-.004-1.268 1.268v.008l-6.34 6.34 1.238 1.237 5.156-5.156.017.774c.02.867.531 1.606 1.337 1.93a2.108 2.108 0 0 0 2.301-.47zm-1.942-3.947.054 2.448a.362.362 0 0 0 .238.345c.089.036.257.07.411-.084l7.167-7.167a.362.362 0 0 0 .084-.411.362.362 0 0 0-.345-.238l-2.448-.054-5.161 5.161z" fill="#000"/></svg>
