<!-- This Source Code Form is subject to the terms of the Mozilla Public
   - License, v. 2.0. If a copy of the MPL was not distributed with this
   - file, You can obtain one at http://mozilla.org/MPL/2.0/. -->
<svg xmlns="http://www.w3.org/2000/svg" width="24" height="24" fill="none" viewBox="0 0 24 24">
    <path fill="#000" d="M21.006 2.756a.876.876 0 0 1 1.238 1.238l-4.518 4.518a2.75 2.75 0 0 1 2.082 1.608c.387.866.297 1.811-.24 2.528a34 34 0 0 1-2.422 2.859l-.191.19 4.79 4.81a.876.876 0 0 1-1.24 1.235l-4.79-4.81-.193.193a36 36 0 0 1-2.912 2.47c-.41.307-.899.463-1.404.463a2.6 2.6 0 0 1-1.067-.232 2.78 2.78 0 0 1-1.623-2.104l-4.522 4.522a.876.876 0 0 1-1.238-1.238zm-10.069.406a.875.875 0 0 1 1.015 1.426q-.395.283-.77.568l2.653 2.65-6.023 6.029-2.656-2.654q-.298.392-.57.771a.875.875 0 1 1-1.423-1.017 33.3 33.3 0 0 1 7.774-7.773" />
</svg>
