<!-- This Source Code Form is subject to the terms of the Mozilla Public
   - License, v. 2.0. If a copy of the MPL was not distributed with this
   - file, You can obtain one at http://mozilla.org/MPL/2.0/. -->
<svg xmlns="http://www.w3.org/2000/svg" width="24" height="24" fill="none" viewBox="0 0 24 24">
    <path fill="#000" d="M10.937 3.162a.875.875 0 0 1 1.015 1.426q-.395.284-.77.568L14.229 8.2l3.328.292c.979.086 1.842.71 2.252 1.63.387.865.297 1.811-.241 2.528a34 34 0 0 1-2.422 2.858l-.19.19 4.79 4.81a.876.876 0 0 1-1.24 1.235l-4.79-4.81-.193.193a36 36 0 0 1-2.912 2.47c-.412.307-.9.464-1.405.464a2.773 2.773 0 0 1-2.71-2.506l-.292-3.328-3.048-3.045q-.299.393-.569.772a.875.875 0 1 1-1.424-1.016 33.3 33.3 0 0 1 7.774-7.774" />
</svg>
