<!-- This Source Code Form is subject to the terms of the Mozilla Public
   - License, v. 2.0. If a copy of the MPL was not distributed with this
   - file, You can obtain one at http://mozilla.org/MPL/2.0/. -->
<svg xmlns="http://www.w3.org/2000/svg" width="24" height="24" fill="none" viewBox="0 0 24 24">
    <path fill="#000" fill-rule="evenodd" d="M21.006 2.756a.876.876 0 0 1 1.238 1.238L17.94 8.297a3 3 0 0 1 2.098 1.72c.423.95.322 1.99-.271 2.78a33 33 0 0 1-2.439 2.88l-.197.196 4.614 4.635a.876.876 0 0 1-1.24 1.234l-4.613-4.634-.194.194q-1.596 1.49-2.938 2.493c-.456.34-.996.513-1.554.513-.39 0-.788-.084-1.172-.255a3.03 3.03 0 0 1-1.733-2.117l-4.307 4.308a.876.876 0 0 1-1.238-1.238zM9.894 16.343l.095 1.079c.046.533.423.883.76 1.034.166.074.59.216.962-.062a34 34 0 0 0 2.772-2.351l1.59-1.583a32 32 0 0 0 2.293-2.711c.298-.397.15-.843.071-1.017-.148-.33-.491-.7-1.012-.747l-1.078-.094z" clip-rule="evenodd" />
    <path fill="#000" d="M10.937 3.162a.875.875 0 0 1 1.015 1.426q-.291.207-.57.415l2.63 2.628-1.237 1.238-2.773-2.771A31.4 31.4 0 0 0 6.097 10l2.773 2.77-1.235 1.24-2.631-2.628q-.216.29-.417.57a.875.875 0 1 1-1.424-1.017 33.3 33.3 0 0 1 7.774-7.773" />
</svg>
