<!-- This Source Code Form is subject to the terms of the Mozilla Public
   - License, v. 2.0. If a copy of the MPL was not distributed with this
   - file, You can obtain one at http://mozilla.org/MPL/2.0/. -->
<svg xmlns="http://www.w3.org/2000/svg" width="24" height="24" fill="none" viewBox="0 0 24 24">
    <path fill="#000" d="m13.57 7.42-1.23 1.24-4.92 4.92-2.79-2.8-1.39 1.39L2 10.93 10.93 2l1.24 1.24-1.39 1.39zm2.79 7.7L22 20.76h.01L20.77 22l-5.64-5.64-2.96 2.96c-.42.41-.95.63-1.5.63-.27 0-.55-.05-.81-.16a2.09 2.09 0 0 1-1.34-1.93l-.02-.77-5.15 5.15L2.11 21l6.34-6.35 1.27-1.26L20.37 2.74l1.24 1.24-4.52 4.52.77.02c.87.02 1.61.54 1.93 1.34s.14 1.69-.47 2.3z" />
</svg>
