<!-- This Source Code Form is subject to the terms of the Mozilla Public
   - License, v. 2.0. If a copy of the MPL was not distributed with this
   - file, You can obtain one at http://mozilla.org/MPL/2.0/. -->
<svg width="24" height="24" fill="none" xmlns="http://www.w3.org/2000/svg">
    <path d="M12.172 3.238 10.78 4.629l3.823 3.823 3.864.086a1.85 1.85 0 0 1 1.698 1.176 1.847 1.847 0 0 1-.414 2.024l-3.388 3.388L22 20.762 20.762 22l-5.636-5.637-3.389 3.389a1.853 1.853 0 0 1-2.024.414 1.871 1.871 0 0 1-1.177-1.698l-.085-3.864-3.822-3.823-1.391 1.39L2 10.935 10.934 2l1.238 1.238z" fill="#000" />
</svg>
