<!-- This Source Code Form is subject to the terms of the Mozilla Public
   - License, v. 2.0. If a copy of the MPL was not distributed with this
   - file, You can obtain one at http://mozilla.org/MPL/2.0/. -->
<svg xmlns="http://www.w3.org/2000/svg" width="24" height="24" fill="none" viewBox="0 0 24 24">
    <path fill="#000" fill-rule="evenodd" d="M16.25 4c.327 0 .79.025 1.332.138.685.143 1.168.765 1.168 1.465v1.802l.513.062A3.14 3.14 0 0 1 22 10.572v5.858a3.12 3.12 0 0 1-2.708 3.1 56.8 56.8 0 0 1-14.555.004A3.14 3.14 0 0 1 2 16.43v-5.86a3.12 3.12 0 0 1 2.708-3.1l.542-.066v-1.8c0-.716.501-1.331 1.203-1.474a6.5 6.5 0 0 1 2.629.007c.685.143 1.168.765 1.168 1.465v1.426a57 57 0 0 1 3.5 0V5.604c0-.716.501-1.331 1.203-1.474.38-.077.816-.131 1.297-.131M12 8.751c-2.597 0-4.967.184-7.066.456a1.37 1.37 0 0 0-1.184 1.364v5.858c0 .69.519 1.28 1.21 1.369a55 55 0 0 0 14.106-.004 1.37 1.37 0 0 0 1.184-1.364v-5.858c0-.69-.519-1.28-1.21-1.369A55 55 0 0 0 12 8.751" clip-rule="evenodd" />
</svg>
