<!-- This Source Code Form is subject to the terms of the Mozilla Public
   - License, v. 2.0. If a copy of the MPL was not distributed with this
   - file, You can obtain one at http://mozilla.org/MPL/2.0/. -->
<svg width="24" height="24" fill="none" xmlns="http://www.w3.org/2000/svg">
    <path fill-rule="evenodd" clip-rule="evenodd" d="M10.25 6V4a1 1 0 0 0-1-1h-3a1 1 0 0 0-1 1v2H4.5A2.5 2.5 0 0 0 2 8.5v10A2.5 2.5 0 0 0 4.5 21h15a2.5 2.5 0 0 0 2.5-2.5v-10A2.5 2.5 0 0 0 19.5 6h-.75V4a1 1 0 0 0-1-1h-3a1 1 0 0 0-1 1v2h-3.5zm-6.5 2.5a.75.75 0 0 1 .75-.75h15a.75.75 0 0 1 .75.75v10a.75.75 0 0 1-.75.75h-15a.75.75 0 0 1-.75-.75v-10z" fill="#000" />
</svg>
