<!-- This Source Code Form is subject to the terms of the Mozilla Public
   - License, v. 2.0. If a copy of the MPL was not distributed with this
   - file, You can obtain one at http://mozilla.org/MPL/2.0/. -->
<svg xmlns="http://www.w3.org/2000/svg" width="24" height="24" fill="none">
    <path fill="#000" d="m9.317 7.637-1.591 1.59-1.591-1.59 1.59-1.591z" />
    <path fill="#000" fill-rule="evenodd" d="M2.75 2a.875.875 0 0 0-.875.875v8.584c0 .232.092.455.256.619l8.18 8.179a2.5 2.5 0 0 0 3.535 0l6.285-6.285a2.5 2.5 0 0 0 0-3.536l-8.18-8.18A.88.88 0 0 0 11.334 2zm.875 9.097V3.75h7.345l7.923 7.924a.75.75 0 0 1 0 1.06l-6.285 6.285a.75.75 0 0 1-1.06 0z" clip-rule="evenodd" />
</svg>
