<!-- This Source Code Form is subject to the terms of the Mozilla Public
   - License, v. 2.0. If a copy of the MPL was not distributed with this
   - file, You can obtain one at http://mozilla.org/MPL/2.0/. -->
<svg xmlns="http://www.w3.org/2000/svg" width="24" height="24" fill="none">
    <path fill="#000" fill-rule="evenodd" d="M7 3.5A2.5 2.5 0 0 1 9.5 1h5A2.5 2.5 0 0 1 17 3.5V7h2.5A2.5 2.5 0 0 1 22 9.5v6a2.5 2.5 0 0 1-2.5 2.5H17v1.5a2.5 2.5 0 0 1-2.5 2.5h-5A2.5 2.5 0 0 1 7 19.5V18H4.5A2.5 2.5 0 0 1 2 15.5v-6A2.5 2.5 0 0 1 4.5 7H7zM8.75 7h6.5V3.5a.75.75 0 0 0-.75-.75h-5a.75.75 0 0 0-.75.75zm0 7v5.5c0 .414.336.75.75.75h5a.75.75 0 0 0 .75-.75V14zM19 10h-2v2h2z" clip-rule="evenodd" />
</svg>
