<!-- This Source Code Form is subject to the terms of the Mozilla Public
   - License, v. 2.0. If a copy of the MPL was not distributed with this
   - file, You can obtain one at http://mozilla.org/MPL/2.0/. -->
<svg xmlns="http://www.w3.org/2000/svg" width="24" height="24" fill="none" viewBox="0 0 24 24">
    <path fill="#000" fill-rule="evenodd" d="M12 1c.917 0 1.743.1 2.46.243l.27.066A3.134 3.134 0 0 1 17 4.315v2.872q1.453.106 3.003.292A2.26 2.26 0 0 1 22 9.717v5.563c0 1.138-.842 2.1-1.972 2.236-.96.116-1.978.21-3.028.289v.88a3.14 3.14 0 0 1-2.54 3.072 12.6 12.6 0 0 1-5.012-.018C7.993 21.438 7 20.13 7 18.687v-.882a67 67 0 0 1-3.003-.285A2.26 2.26 0 0 1 2 15.28V9.718c0-1.138.84-2.1 1.97-2.236A68 68 0 0 1 7 7.187V4.313c0-1.443.993-2.75 2.448-3.052A12.6 12.6 0 0 1 12 1M8.75 18.688c0 .656.452 1.213 1.053 1.337a10.9 10.9 0 0 0 4.316.016 1.39 1.39 0 0 0 1.131-1.355v-3.687h-6.5zm9-8.688a1.25 1.25 0 1 0 0 2.5 1.25 1.25 0 0 0 0-2.5M12 2.75c-.554 0-1.315.042-2.197.225-.601.124-1.053.682-1.053 1.338V7.08a67 67 0 0 1 6.5.001V4.315c0-.655-.466-1.223-1.13-1.356A11 11 0 0 0 12 2.75" clip-rule="evenodd" />
</svg>
