<!-- This Source Code Form is subject to the terms of the Mozilla Public
   - License, v. 2.0. If a copy of the MPL was not distributed with this
   - file, You can obtain one at http://mozilla.org/MPL/2.0/. -->
<svg xmlns="http://www.w3.org/2000/svg" width="24" height="24" fill="none" viewBox="0 0 24 24">
    <path fill="#000" d="M21.65 13.584c-.947 0-1.43-.687-1.612-1.62-.262-1.353-.717-2.631-1.256-3.906-.278-.657-.786-2.163-1.625-2.336-.954-.197-1.796.318-2.884 2.499-.895 1.799-1.5 3.053-1.5 3.053v.012l-.614-.006h-.309l-.015.003-.614.006v-.012s-.605-1.257-1.5-3.053C8.636 6.04 7.79 5.528 6.837 5.725c-.839.173-1.347 1.682-1.625 2.336-.54 1.275-.994 2.55-1.256 3.906-.181.933-.661 1.617-1.612 1.62-.244 0-.406.253-.322.478.203.542.827.887 1.347 1.087-.233.062-.932-.08-.963.272-.025.286.705.576.901.668 1.837.884 3.527 2.47 5.7 2.19.945-.123 1.634-.788 2.407-1.201a1.25 1.25 0 0 1 1.172 0c.774.413 1.463 1.078 2.407 1.201 2.174.28 3.864-1.306 5.7-2.19.197-.095.923-.382.901-.668-.028-.349-.726-.21-.963-.272.52-.2 1.144-.545 1.347-1.087a.355.355 0 0 0-.321-.478zm-15.393.466c-.028-.293.608-.518.838-.555 1.372-.228 3.19.308 3.633 1.728-1.26 1.15-3.854.358-4.471-1.17zm7.006 1.173c.443-1.42 2.26-1.956 3.632-1.728.231.037.867.262.84.555-.621 1.527-3.212 2.322-4.472 1.17z" />
</svg>
