<!-- This Source Code Form is subject to the terms of the Mozilla Public
   - License, v. 2.0. If a copy of the MPL was not distributed with this
   - file, You can obtain one at http://mozilla.org/MPL/2.0/. -->
<svg width="24" height="24" fill="none" xmlns="http://www.w3.org/2000/svg"><path fill-rule="evenodd" clip-rule="evenodd" d="M19.589 6h-2.593c-1.408 0-2.74.64-3.616 1.737a1.767 1.767 0 0 1-2.76 0A4.627 4.627 0 0 0 7.004 6H4.411A2.406 2.406 0 0 0 2 8.4v3.989a5.992 5.992 0 0 0 2.685 4.993l.324.215A2.42 2.42 0 0 0 6.347 18h.679c.506 0 .999-.158 1.41-.453l2.252-1.616c.3-.215.66-.331 1.03-.331h.563c.37 0 .73.116 1.03.331l2.252 1.616c.412.295.905.453 1.411.453h.679c.476 0 .941-.14 1.337-.403l.324-.215A5.993 5.993 0 0 0 22 12.389V8.4C22 7.075 20.92 6 19.589 6zM9.29 12.258c-.533.6-1.36.986-2.29.986-.93 0-1.757-.386-2.29-.986a.858.858 0 0 1 0-1.125c.533-.6 1.36-.986 2.29-.986.93 0 1.757.386 2.29.986.28.315.28.81 0 1.125zm7.71.986c-.93 0-1.757-.386-2.29-.986a.858.858 0 0 1 0-1.125c.533-.6 1.36-.986 2.29-.986.93 0 1.757.386 2.29.986.28.315.28.81 0 1.125-.533.6-1.36.986-2.29.986z" fill="#000"/></svg>
