<!-- This Source Code Form is subject to the terms of the Mozilla Public
   - License, v. 2.0. If a copy of the MPL was not distributed with this
   - file, You can obtain one at http://mozilla.org/MPL/2.0/. -->
<svg width="24" height="24" fill="none" xmlns="http://www.w3.org/2000/svg">
    <path d="M12 22C6.486 22 2 17.514 2 12S6.486 2 12 2s10 4.486 10 10-4.486 10-10 10z" fill="#000" />
    <path d="M18.196 10.053a1.275 1.275 0 0 0-.992-1.308 4.642 4.642 0 0 0-4.189 1.127l-.192.179a1.208 1.208 0 0 1-1.651-.001l-.188-.175a4.643 4.643 0 0 0-4.192-1.13 1.277 1.277 0 0 0-.992 1.304v.004c-.154.609.084 2.859.219 3.213.271 1.429 1.439 2.505 2.84 2.505.699 0 1.332-.279 1.833-.726l.305-.261a1.524 1.524 0 0 1 1.962-.016l.458.379v-.002a2.734 2.734 0 0 0 1.72.626c1.4 0 2.569-1.075 2.841-2.505.134-.354.38-2.594.218-3.213zm-7.593 2.471A2.072 2.072 0 0 1 9 13.267c-.651 0-1.23-.291-1.603-.743a.685.685 0 0 1 0-.848A2.072 2.072 0 0 1 9 10.933c.65 0 1.23.291 1.603.743a.685.685 0 0 1 0 .848zm6 0a2.072 2.072 0 0 1-1.603.743c-.651 0-1.23-.291-1.603-.743a.685.685 0 0 1 0-.848A2.072 2.072 0 0 1 15 10.933c.651 0 1.23.291 1.603.743a.685.685 0 0 1 0 .848z" fill="#fff" />
</svg>
