<!-- This Source Code Form is subject to the terms of the Mozilla Public
   - License, v. 2.0. If a copy of the MPL was not distributed with this
   - file, You can obtain one at http://mozilla.org/MPL/2.0/. -->
<svg xmlns="http://www.w3.org/2000/svg" width="24" height="24" fill="none">
    <path fill="#000" d="M9 13.267c.65 0 1.23-.291 1.603-.743a.685.685 0 0 0 0-.848A2.07 2.07 0 0 0 9 10.933c-.651 0-1.23.291-1.603.743a.685.685 0 0 0 0 .848c.373.452.952.743 1.603.743m6 0c.651 0 1.23-.291 1.603-.743a.685.685 0 0 0 0-.848A2.07 2.07 0 0 0 15 10.933c-.651 0-1.23.291-1.603.743a.685.685 0 0 0 0 .848c.373.452.952.743 1.603.743" />
    <path fill="#000" fill-rule="evenodd" d="M2 12c0 5.514 4.486 10 10 10s10-4.486 10-10S17.514 2 12 2 2 6.486 2 12m15.204-3.255c.605.137 1.023.689.992 1.308.163.619-.084 2.859-.218 3.213-.272 1.43-1.44 2.505-2.84 2.505a2.73 2.73 0 0 1-1.721-.626v.002l-.458-.379a1.524 1.524 0 0 0-1.962.016l-.305.261c-.501.447-1.134.726-1.833.726-1.401 0-2.569-1.076-2.84-2.505-.135-.354-.373-2.604-.22-3.213v-.004a1.28 1.28 0 0 1 .993-1.304 4.64 4.64 0 0 1 4.192 1.13l.188.175a1.21 1.21 0 0 0 1.651.001l.192-.179a4.64 4.64 0 0 1 4.189-1.127" clip-rule="evenodd" />
</svg>
