<!-- This Source Code Form is subject to the terms of the Mozilla Public
   - License, v. 2.0. If a copy of the MPL was not distributed with this
   - file, You can obtain one at http://mozilla.org/MPL/2.0/. -->
<svg width="24" height="24" fill="none" xmlns="http://www.w3.org/2000/svg">
    <path d="M7.5 10.445c.935 0 1.803.377 2.384 1.032a.992.992 0 0 1 0 1.297c-.58.655-1.449 1.031-2.384 1.032-.935 0-1.803-.376-2.384-1.032a.965.965 0 0 1 0-1.297c.58-.656 1.45-1.032 2.384-1.032zM16.5 10.445c.935 0 1.803.377 2.384 1.032a.992.992 0 0 1 0 1.297c-.58.655-1.449 1.031-2.384 1.032-.935 0-1.803-.376-2.384-1.032a.965.965 0 0 1 0-1.297c.58-.656 1.45-1.032 2.384-1.032z" fill="#000" />
    <path fill-rule="evenodd" clip-rule="evenodd" d="M3.88 5.955a8.161 8.161 0 0 1 7.123 2.041l.296.274a1.027 1.027 0 0 0 1.4 0l.302-.28.188-.169a8.16 8.16 0 0 1 7.17-1.814l.002-.001.05.011.006.001.245.068a2.832 2.832 0 0 1 1.961 2.575v.24c-.04.936-.096 2.124-.16 3.127-.032.5-.066.963-.102 1.326-.018.181-.037.347-.058.485a2.622 2.622 0 0 1-.071.338c-.514 2.573-2.65 4.588-5.305 4.588-1.237 0-2.356-.456-3.25-1.175l.475-.591-.486.586-.717-.596a1.517 1.517 0 0 0-1.954.015h.001l-.48.41c-.923.819-2.113 1.35-3.446 1.35-2.655 0-4.791-2.014-5.305-4.587a2.6 2.6 0 0 1-.071-.338c-.02-.138-.04-.304-.058-.486-.036-.364-.069-.825-.1-1.326-.032-.501-.062-1.05-.088-1.59l-.07-1.539A2.83 2.83 0 0 1 3.582 6.02l.048-.011h.002l.247-.053zm16.099 1.759a6.411 6.411 0 0 0-5.487 1.297l-.3.26-.301.282a2.78 2.78 0 0 1-3.585.168l-.2-.17-.295-.275a6.413 6.413 0 0 0-5.79-1.563l-.047.011-.002.001c-.515.118-.868.58-.846 1.1l.07 1.526c.026.534.055 1.073.086 1.566.03.493.063.931.096 1.265a8.341 8.341 0 0 0 .063.493l.016.044.015.076c.359 1.887 1.876 3.22 3.598 3.22.855 0 1.648-.34 2.296-.918l.006-.006.486-.416.233-.182a3.267 3.267 0 0 1 3.975.15l.706.584h.002c.62.498 1.359.788 2.153.788 1.722 0 3.24-1.332 3.599-3.22l.014-.076.015-.04c.002-.007.008-.037.018-.099.014-.097.03-.23.046-.398.034-.333.067-.772.098-1.265.063-.984.118-2.158.158-3.09a1.083 1.083 0 0 0-.845-1.102l-.045-.01-.006-.001z" fill="#000" />
</svg>
