<!-- This Source Code Form is subject to the terms of the Mozilla Public
   - License, v. 2.0. If a copy of the MPL was not distributed with this
   - file, You can obtain one at http://mozilla.org/MPL/2.0/. -->
<svg xmlns="http://www.w3.org/2000/svg" width="24" height="24" fill="none" viewBox="0 0 24 24">
    <path fill="#000" d="M7.097 13.045c1.372-.229 3.19.308 3.633 1.728-1.26 1.15-3.854.357-4.471-1.17v-.004c-.028-.293.608-.518.838-.555m6.168 1.726c.445-1.418 2.261-1.953 3.632-1.726.231.037.867.262.84.555-.621 1.528-3.212 2.322-4.472 1.171" />
    <path fill="#000" fill-rule="evenodd" d="M14.078 5.353c.862-.696 1.838-.894 2.8-.696v-.001c.69.142 1.18.528 1.486.845.309.319.534.674.692.96.299.537.548 1.2.615 1.359.48 1.133.916 2.34 1.182 3.647h.002l.19.094c1.212.356 1.89 1.703 1.44 2.907l.001.001c-.06.163-.136.311-.217.449.034.863-.466 1.421-.642 1.598a3 3 0 0 1-.62.47c-.257.152-.666.334-.597.3l-.006.004c-.313.15-.638.34-1.035.577-.374.223-.828.498-1.298.738-.955.488-2.21.96-3.709.767h-.002c-.795-.104-1.418-.43-1.845-.688-.189-.113-.38-.241-.516-.33-.136.089-.328.217-.516.33-.427.258-1.05.584-1.845.688h-.002c-1.5.193-2.754-.279-3.71-.767-.47-.24-.923-.515-1.296-.738-.391-.233-.712-.42-1.02-.57a7 7 0 0 1-.62-.31 3 3 0 0 1-.623-.475c-.175-.177-.672-.735-.638-1.594a3 3 0 0 1-.216-.448c-.458-1.225.262-2.687 1.618-2.957.266-1.327.707-2.545 1.191-3.69l.001-.004c.065-.153.316-.818.613-1.354.159-.285.383-.64.692-.96.305-.316.795-.703 1.484-.845.96-.198 1.938-.004 2.803.694.732.591 1.302 1.48 1.81 2.502l.27.548.272-.549.001-.003c.51-1.02 1.079-1.908 1.81-2.499m2.415 1.177c-.831-.172-1.566.276-2.514 2.177l-1.306 2.66v.01q-.676-.004-1.353.003v-.01c-.005-.01-.136-.283-.36-.743l-.947-1.917C9.069 6.807 8.332 6.36 7.5 6.532l-.133.042c-.652.27-1.056 1.46-1.283 1.993-.47 1.111-.867 2.223-1.095 3.404-.158.813-.576 1.41-1.404 1.412-.212 0-.354.22-.28.416.176.473.72.774 1.173.949-.204.053-.81-.07-.839.235-.02.25.613.502.785.583 1.55.746 2.981 2.067 4.79 1.927l.176-.019c.823-.107 1.425-.687 2.098-1.047a1.1 1.1 0 0 1 1.023 0c.673.36 1.274.94 2.096 1.047 1.775.229 3.181-.97 4.668-1.757l.299-.151c.171-.083.804-.334.786-.583-.025-.303-.632-.182-.84-.235.454-.175.997-.476 1.173-.949a.31.31 0 0 0-.28-.416l-.004-.003c-.826 0-1.248-.598-1.405-1.412-.229-1.178-.625-2.293-1.095-3.404-.227-.536-.63-1.723-1.282-1.993z" clip-rule="evenodd" />
</svg>
