<!-- This Source Code Form is subject to the terms of the Mozilla Public
   - License, v. 2.0. If a copy of the MPL was not distributed with this
   - file, You can obtain one at http://mozilla.org/MPL/2.0/. -->
<svg xmlns="http://www.w3.org/2000/svg" width="24" height="24" fill="none">
    <path fill="#000" d="M21.914 8.849c.05-.99-.62-1.873-1.587-2.093a7.43 7.43 0 0 0-6.702 1.804l-.308.286a1.94 1.94 0 0 1-2.643-.001l-.301-.28a7.43 7.43 0 0 0-6.707-1.808h-.002A2.04 2.04 0 0 0 2.08 8.844v.006c-.247.975.134 4.575.35 5.141.434 2.287 2.303 4.007 4.543 4.007 1.12 0 2.132-.447 2.933-1.161l.488-.418a2.436 2.436 0 0 1 3.139-.025l.734.606v-.003c.772.621 1.718 1.001 2.754 1.001 2.24 0 4.109-1.72 4.543-4.007.216-.567.611-4.152.35-5.142M9.79 12.69c-.533.603-1.36.991-2.29.991s-1.757-.388-2.29-.991a.866.866 0 0 1 0-1.131c.533-.603 1.36-.991 2.29-.991s1.757.388 2.29.991c.28.317.28.815 0 1.131m9 0c-.533.603-1.36.991-2.29.991s-1.757-.388-2.29-.991a.866.866 0 0 1 0-1.131c.533-.603 1.36-.991 2.29-.991s1.757.388 2.29.991c.28.317.28.815 0 1.131" />
</svg>
