<!-- This Source Code Form is subject to the terms of the Mozilla Public
   - License, v. 2.0. If a copy of the MPL was not distributed with this
   - file, You can obtain one at http://mozilla.org/MPL/2.0/. -->
<svg xmlns="http://www.w3.org/2000/svg" width="20" height="20" fill="none">
    <path fill="#000" d="M7.5 11.148c.558 0 1.054-.25 1.374-.637a.586.586 0 0 0 0-.726A1.78 1.78 0 0 0 7.5 9.148c-.558 0-1.054.249-1.374.636a.59.59 0 0 0 0 .727c.32.388.816.637 1.374.637m5 0c.558 0 1.054-.25 1.374-.637a.59.59 0 0 0 0-.727 1.78 1.78 0 0 0-1.374-.637c-.558 0-1.054.25-1.374.637a.59.59 0 0 0 0 .727c.32.388.816.637 1.374.637" />
    <path fill="#000" fill-rule="evenodd" d="M2 10c0 4.411 3.589 8 8 8s8-3.589 8-8-3.589-8-8-8-8 3.589-8 8m12.164-2.536c.483.109.818.551.793 1.046.13.495-.067 2.287-.174 2.57-.217 1.144-1.152 2.004-2.272 2.004a2.2 2.2 0 0 1-1.377-.5v.002l-.366-.303a1.22 1.22 0 0 0-1.57.012l-.244.209a2.2 2.2 0 0 1-1.467.58c-1.12 0-2.055-.86-2.272-2.003-.108-.284-.298-2.083-.175-2.571v-.003a1.02 1.02 0 0 1 .794-1.043 3.71 3.71 0 0 1 3.354.905l.15.14a.97.97 0 0 0 1.321 0l.154-.143a3.71 3.71 0 0 1 3.351-.902" clip-rule="evenodd" />
</svg>
