<!-- This Source Code Form is subject to the terms of the Mozilla Public
   - License, v. 2.0. If a copy of the MPL was not distributed with this
   - file, You can obtain one at http://mozilla.org/MPL/2.0/. -->
<svg xmlns="http://www.w3.org/2000/svg" width="24" height="24" fill="none" viewBox="0 0 24 24">
    <path fill="#000" d="M8.112 12.769c1.086-.18 2.524.244 2.875 1.368-.997.91-3.05.283-3.539-.927v-.002c-.022-.231.482-.41.664-.44m4.882 1.367c.352-1.123 1.79-1.546 2.876-1.366.183.03.686.208.664.44-.491 1.209-2.543 1.838-3.54.926" />
    <path fill="#000" fill-rule="evenodd" d="M12 2c5.523 0 10 4.476 10 10 0 5.522-4.477 10-10 10S2 17.521 2 12C2 6.475 6.477 2 12 2m4.078 4.615c-.755-.156-1.423.252-2.284 1.979-.708 1.424-1.187 2.417-1.187 2.417v.01l-.486-.005h-.245c-.002 0-.01 0-.012.002l-.486.005v-.01a202 202 0 0 0-1.188-2.417c-.859-1.729-1.527-2.134-2.283-1.978-.664.137-1.066 1.332-1.286 1.849-.427 1.01-.788 2.02-.995 3.093-.143.739-.523 1.28-1.275 1.282-.193 0-.322.2-.255.378.16.43.654.703 1.066.861-.185.049-.738-.063-.763.215-.019.227.559.456.714.53 1.454.7 2.792 1.955 4.512 1.733.748-.098 1.294-.625 1.906-.951a.99.99 0 0 1 .928 0c.612.326 1.158.853 1.905.95 1.72.223 3.06-1.033 4.513-1.733.155-.075.73-.302.713-.529-.022-.275-.575-.166-.763-.215.412-.158.906-.432 1.067-.861a.28.28 0 0 0-.254-.378l-.005-.002c-.75 0-1.133-.544-1.277-1.283-.207-1.07-.568-2.083-.995-3.093-.22-.52-.621-1.712-1.285-1.849" clip-rule="evenodd" />
</svg>
