<!-- This Source Code Form is subject to the terms of the Mozilla Public
   - License, v. 2.0. If a copy of the MPL was not distributed with this
   - file, You can obtain one at http://mozilla.org/MPL/2.0/. -->
<svg width="24" height="24" fill="none" xmlns="http://www.w3.org/2000/svg"><path d="M10.593 12.233c-.4.452-1.02.743-1.717.743-.697 0-1.317-.291-1.718-.743a.65.65 0 0 1 0-.848c.4-.452 1.02-.743 1.718-.743.697 0 1.317.291 1.717.743a.652.652 0 0 1 0 .848zm4.531.743c-.697 0-1.317-.291-1.717-.743a.652.652 0 0 1 0-.848c.4-.452 1.02-.743 1.717-.743.698 0 1.318.291 1.718.743a.65.65 0 0 1 0 .848c-.401.452-1.021.743-1.718.743z" fill="#000"/><path fill-rule="evenodd" clip-rule="evenodd" d="M2 12c0 5.514 4.486 10 10 10s10-4.486 10-10S17.514 2 12 2 2 6.486 2 12zm13.122-3.768h1.621c.832 0 1.507.675 1.505 1.507v2.505c0 1.26-.629 2.436-1.678 3.135l-.202.135a1.507 1.507 0 0 1-.836.253h-.424c-.316 0-.624-.099-.881-.284l-1.408-1.015a1.104 1.104 0 0 0-.644-.208h-.352c-.231 0-.456.073-.644.208l-1.408 1.015a1.512 1.512 0 0 1-.881.284h-.424c-.298 0-.588-.088-.836-.253l-.202-.135a3.767 3.767 0 0 1-1.678-3.135V9.74c0-.832.675-1.507 1.507-1.507h1.621c.88 0 1.712.402 2.26 1.091a1.1 1.1 0 0 0 1.724 0 2.888 2.888 0 0 1 2.26-1.09z" fill="#000"/></svg>
