<svg width="24" height="24" viewBox="0 0 24 24" fill="none" xmlns="http://www.w3.org/2000/svg">
<path d="M4.74902 17.6763C4.74916 18.233 5.16886 18.7143 5.72559 18.7954C6.82859 18.9564 7.95241 19.0749 9.06641 19.1499V20.896L8.94922 20.897C7.78922 20.819 6.61963 20.6939 5.47363 20.5269C4.06292 20.3217 2.99916 19.096 2.99902 17.6763V15.0005H4.74902V17.6763Z" fill="black"/>
<path d="M21 17.6772C20.9999 19.0951 19.9486 20.319 18.5566 20.522C17.3988 20.6909 16.2196 20.817 15.0518 20.897H14.9355V19.1509C16.0573 19.0749 17.191 18.9535 18.3027 18.7905C18.8427 18.7115 19.2499 18.2331 19.25 17.6772V15.0005H21V17.6772Z" fill="black"/>
<path d="M9 16.7505C8.99974 16.8883 8.88784 17.0005 8.75 17.0005H7.25C7.11216 17.0005 7.00026 16.8883 7 16.7505V15.2505C7 15.1125 7.112 15.0005 7.25 15.0005H9V16.7505Z" fill="black"/>
<path d="M13 16.7505C12.9997 16.8883 12.8878 17.0005 12.75 17.0005H11.25C11.1122 17.0005 11.0003 16.8883 11 16.7505V15.0005H13V16.7505Z" fill="black"/>
<path d="M16.75 15.0005C16.888 15.0005 17 15.1125 17 15.2505V16.7505C16.9997 16.8883 16.8878 17.0005 16.75 17.0005H15.25C15.1122 17.0005 15.0003 16.8883 15 16.7505V15.0005H16.75Z" fill="black"/>
<path d="M10.75 13.0005C10.888 13.0005 11 13.1125 11 13.2505V15.0005H9V13.2505C9 13.1125 9.112 13.0005 9.25 13.0005H10.75Z" fill="black"/>
<path d="M15 15.0005H13V13.2505C13 13.1125 13.112 13.0005 13.25 13.0005H15V15.0005Z" fill="black"/>
<path d="M16.75 11.0005C16.888 11.0005 17 11.1125 17 11.2505V12.7505C16.9997 12.8883 16.8878 13.0005 16.75 13.0005H15V11.0005H16.75Z" fill="black"/>
<path d="M10 7.00049C10.5523 7.00049 11 7.4482 11 8.00049V10.0005C10.9997 10.5525 10.5521 11.0005 10 11.0005H8C7.44788 11.0005 7.00026 10.5525 7 10.0005V8.00049C7 7.4482 7.44772 7.00049 8 7.00049H10Z" fill="black"/>
<path d="M15 11.0005H13.25C13.1122 11.0005 13.0003 10.8883 13 10.7505V9.25049C13 9.11249 13.112 9.00049 13.25 9.00049H15V11.0005Z" fill="black"/>
<path d="M9.05859 4.8501C7.94179 4.9261 6.81007 5.04751 5.69727 5.20947C5.15735 5.28846 4.75012 5.76686 4.75 6.32275V9.00049H3V6.32275C3.00012 4.90486 4.05144 3.68102 5.44336 3.47803C6.60225 3.30905 7.77955 3.183 8.94043 3.104H9.05859V4.8501Z" fill="black"/>
<path d="M16.75 7.00049C16.888 7.00049 17 7.11249 17 7.25049V8.75049C16.9997 8.88826 16.8878 9.00049 16.75 9.00049H15V7.25049C15 7.11249 15.112 7.00049 15.25 7.00049H16.75Z" fill="black"/>
<path d="M15.0498 3.104C16.2098 3.182 17.3794 3.30712 18.5254 3.47412C19.9361 3.67929 20.9999 4.90497 21 6.32471V9.00049H19.25V6.32373C19.2499 5.76697 18.8302 5.28574 18.2734 5.20459C17.1704 5.04359 16.0466 4.9251 14.9326 4.8501V3.104H15.0498Z" fill="black"/>
</svg>
