<!-- This Source Code Form is subject to the terms of the Mozilla Public
   - License, v. 2.0. If a copy of the MPL was not distributed with this
   - file, You can obtain one at http://mozilla.org/MPL/2.0/. -->
<svg xmlns="http://www.w3.org/2000/svg" width="24" height="24" fill="none" viewBox="0 0 24 24">
    <path fill="#000" d="M4.749 17.676c0 .557.42 1.038.977 1.12a43 43 0 0 0 3.34.354v1.746l-.117.001a45 45 0 0 1-3.475-.37 2.9 2.9 0 0 1-2.475-2.85V15h1.75zM21 17.677c0 1.418-1.051 2.642-2.443 2.845a46 46 0 0 1-3.505.375h-.117v-1.746a44 44 0 0 0 3.368-.36c.54-.08.947-.558.947-1.114v-2.676H21zM9 16.75a.25.25 0 0 1-.25.25h-1.5a.25.25 0 0 1-.25-.25v-1.5a.25.25 0 0 1 .25-.25H9zm4 0a.25.25 0 0 1-.25.25h-1.5a.25.25 0 0 1-.25-.25V15h2zM16.75 15a.25.25 0 0 1 .25.25v1.5a.25.25 0 0 1-.25.25h-1.5a.25.25 0 0 1-.25-.25V15zm-6-2a.25.25 0 0 1 .25.25V15H9v-1.75a.25.25 0 0 1 .25-.25zM15 15h-2v-1.75a.25.25 0 0 1 .25-.25H15zm1.75-4a.25.25 0 0 1 .25.25v1.5a.25.25 0 0 1-.25.25H15v-2zM10 7a1 1 0 0 1 1 1v2a1 1 0 0 1-1 1H8a1 1 0 0 1-1-1V8a1 1 0 0 1 1-1zm5 4h-1.75a.25.25 0 0 1-.25-.25v-1.5a.25.25 0 0 1 .25-.25H15zM9.059 4.85a44 44 0 0 0-3.362.36c-.54.078-.947.557-.947 1.113V9H3V6.323C3 4.905 4.051 3.68 5.443 3.478a46 46 0 0 1 3.497-.374h.119zM16.75 7a.25.25 0 0 1 .25.25v1.5a.25.25 0 0 1-.25.25H15V7.25a.25.25 0 0 1 .25-.25zm-1.7-3.896c1.16.078 2.33.203 3.475.37A2.9 2.9 0 0 1 21 6.324V9h-1.75V6.324c0-.557-.42-1.038-.977-1.12a43 43 0 0 0-3.34-.354V3.104z" />
</svg>
