<!-- This Source Code Form is subject to the terms of the Mozilla Public
   - License, v. 2.0. If a copy of the MPL was not distributed with this
   - file, You can obtain one at http://mozilla.org/MPL/2.0/. -->
<svg width="24" height="24" fill="none" xmlns="http://www.w3.org/2000/svg"><path d="m12.042 13.996 3.457-3.46L14.262 9.3l-2.84 2.84-1.685-1.685L8.5 11.692l2.305 2.304a.875.875 0 0 0 1.237 0z" fill="#000"/><path fill-rule="evenodd" clip-rule="evenodd" d="M13.732 2.674a2.449 2.449 0 0 0-3.463 0L8.774 4.17H6.66a2.448 2.448 0 0 0-2.448 2.448v2.114l-1.495 1.494a2.449 2.449 0 0 0 0 3.463l1.495 1.494v2.114a2.448 2.448 0 0 0 2.448 2.448h2.114l1.494 1.495a2.449 2.449 0 0 0 3.463 0l1.494-1.495h2.114a2.448 2.448 0 0 0 2.448-2.448v-2.114l1.494-1.494a2.446 2.446 0 0 0 .002-3.463l-1.495-1.494V6.617a2.448 2.448 0 0 0-2.448-2.448h-2.114l-1.494-1.495zm-2.225 1.238a.7.7 0 0 1 .987 0l1.751 1.75a.875.875 0 0 0 .619.257h2.476c.386 0 .698.312.698.698v2.476c0 .232.092.455.256.619l1.751 1.75a.696.696 0 0 1 0 .987l-1.752 1.752a.875.875 0 0 0-.256.619v2.476a.698.698 0 0 1-.698.698h-2.476a.875.875 0 0 0-.619.256l-1.75 1.751a.7.7 0 0 1-.988 0l-1.751-1.75a.875.875 0 0 0-.619-.257H6.66a.698.698 0 0 1-.698-.698V14.82a.875.875 0 0 0-.256-.619l-1.751-1.75a.7.7 0 0 1 0-.988l1.75-1.751a.875.875 0 0 0 .257-.619V6.617c0-.386.312-.698.698-.698h2.476a.875.875 0 0 0 .619-.256l1.752-1.751z" fill="#000"/></svg>
