<!-- This Source Code Form is subject to the terms of the Mozilla Public
   - License, v. 2.0. If a copy of the MPL was not distributed with this
   - file, You can obtain one at http://mozilla.org/MPL/2.0/. -->
<svg xmlns="http://www.w3.org/2000/svg" width="24" height="24" fill="none" viewBox="0 0 24 24">
    <path fill="#000" d="M14.563 8.25v3l-3-.75v-3z" />
    <path fill="#000" fill-rule="evenodd" d="M4.875 2c.483 0 .875.392.875.875V3.6l2.945-.475a9.95 9.95 0 0 1 4.286.255l.804.23a8.1 8.1 0 0 0 4.541-.022l.625-.186a2.36 2.36 0 0 1 2.097.375c.605.452.953 1.146.953 1.902v6.633a2.88 2.88 0 0 1-2.049 2.744l-1.129.334a9.9 9.9 0 0 1-2.803.407l-.001-.001a10 10 0 0 1-2.715-.38l-.804-.23a8.15 8.15 0 0 0-3.527-.209l-3.223.52v5.628a.875.875 0 0 1-1.75 0V2.875C4 2.392 4.392 2 4.875 2m6.688 5.5h-3V4.919l-2.813.454v2.83L8.563 7.5v3l-2.813.703v2.52l2.813-.453V10.5h3v2.713q.722.093 1.418.29l.804.23q.386.11.777.18V11.25h3v2.646q.386-.074.764-.184l1.13-.334a1.12 1.12 0 0 0 .794-1.066v-1.734l-2.687.672v-3l2.687-.672v-1.9a.625.625 0 0 0-.803-.6l-.624.187a10 10 0 0 1-1.26.283V8.25h-3V5.562a10 10 0 0 1-1.26-.27l-.803-.23a8 8 0 0 0-.937-.207z" clip-rule="evenodd" />
</svg>
