<!-- This Source Code Form is subject to the terms of the Mozilla Public
   - License, v. 2.0. If a copy of the MPL was not distributed with this
   - file, You can obtain one at http://mozilla.org/MPL/2.0/. -->
<svg xmlns="http://www.w3.org/2000/svg" width="24" height="24" fill="none" viewBox="0 0 24 24">
    <path fill="#000" d="M10.125 15a.875.875 0 0 1 0 1.75h-3.75a.875.875 0 0 1 0-1.75zm0-3.5a.875.875 0 0 1 0 1.75h-3.75a.875.875 0 0 1 0-1.75zm0-3.5a.875.875 0 0 1 0 1.75h-3.75a.875.875 0 0 1 0-1.75z" />
    <path fill="#000" fill-rule="evenodd" d="m16.805 3.447-.001.001q.523.014 1.072.054h.002q.373.028.73.067l.695.083v.001A3.12 3.12 0 0 1 22 6.753v10.494a3.12 3.12 0 0 1-2.696 3.099q-.68.095-1.427.15v.001c-.58.044-1.137.063-1.66.065h-.002a5.4 5.4 0 0 0-2.921.89 2.38 2.38 0 0 1-2.589 0c-.77-.5-1.64-.805-2.536-.875l-.385-.015a23 23 0 0 1-3.088-.215A3.124 3.124 0 0 1 2 17.247V6.753a3.124 3.124 0 0 1 2.695-3.1q.68-.095 1.43-.15l.542-.035q.268-.014.528-.02c1.597-.044 3.148.431 4.465 1.288a.63.63 0 0 0 .68 0c1.317-.856 2.869-1.333 4.466-1.289m-.05 1.75c-1.214-.034-2.42.329-3.461 1.005a2.38 2.38 0 0 1-2.589 0c-1.042-.677-2.247-1.04-3.462-1.006q-.239.007-.487.02l-.505.031q-.689.052-1.317.14A1.375 1.375 0 0 0 3.75 6.753v10.494c0 .692.505 1.271 1.182 1.366q.631.086 1.322.14.807.059 1.535.059l.26.005a7.17 7.17 0 0 1 3.61 1.168.63.63 0 0 0 .682 0 7.15 7.15 0 0 1 3.87-1.173l.75-.015q.384-.015.786-.045h.002q.69-.05 1.318-.139a1.374 1.374 0 0 0 1.184-1.366V6.753c0-.693-.506-1.273-1.184-1.366a22 22 0 0 0-2.31-.19" clip-rule="evenodd" />
</svg>
