<!-- This Source Code Form is subject to the terms of the Mozilla Public
   - License, v. 2.0. If a copy of the MPL was not distributed with this
   - file, You can obtain one at http://mozilla.org/MPL/2.0/. -->
<svg xmlns="http://www.w3.org/2000/svg" width="24" height="24" fill="none" viewBox="0 0 24 24">
    <path fill="#000" fill-rule="evenodd" d="M2.256 2.256a.877.877 0 0 1 1.238 0l18.25 18.25a.876.876 0 0 1-1.238 1.238l-1.773-1.773q-.416.048-.855.081-.875.065-1.663.065a5.4 5.4 0 0 0-2.921.89 2.37 2.37 0 0 1-2.588 0 5.4 5.4 0 0 0-2.921-.89 23 23 0 0 1-3.089-.214A3.14 3.14 0 0 1 2 16.803V6.307c0-.84.34-1.611.893-2.176l-.637-.638a.877.877 0 0 1 0-1.238M6.376 14.5a.875.875 0 0 0 0 1.75h3.75a.875.875 0 0 0 0-1.75zm0-3.5a.875.875 0 0 0 0 1.75h3.75a.875.875 0 0 0 0-1.75zm0-3.5a.876.876 0 0 0 0 1.75h3.75a.9.9 0 0 0 .3-.06L8.737 7.5z" clip-rule="evenodd" />
    <path fill="#000" d="M16.805 3.003c.343.01.704.027 1.072.054q.748.058 1.426.152A3.14 3.14 0 0 1 22 6.309v10.493c0 .526-.142 1.023-.377 1.463L6.4 3.044c.269-.017.54-.034.795-.041a7.8 7.8 0 0 1 4.463 1.288.63.63 0 0 0 .681 0c1.364-.887 2.887-1.334 4.465-1.288" />
</svg>
