<!-- This Source Code Form is subject to the terms of the Mozilla Public
   - License, v. 2.0. If a copy of the MPL was not distributed with this
   - file, You can obtain one at http://mozilla.org/MPL/2.0/. -->
<svg xmlns="http://www.w3.org/2000/svg" width="24" height="24" fill="none" viewBox="0 0 24 24">
    <path fill="#000" d="M13.125 15.25a.875.875 0 0 1 0 1.75h-3.25a.875.875 0 0 1 0-1.75zm2-4.125a.875.875 0 0 1 0 1.75h-5.25a.875.875 0 1 1 0-1.75zm0-4.125a.875.875 0 0 1 0 1.75h-5.25a.875.875 0 0 1 0-1.75z" />
    <path fill="#000" fill-rule="evenodd" d="M7.589 2.397a30.6 30.6 0 0 1 9.78-.008A3.12 3.12 0 0 1 20 5.477v13.006a3.14 3.14 0 0 1-2.63 3.121 30.1 30.1 0 0 1-9.783-.008C6.088 21.35 5 20.043 5 18.487V5.475c0-1.54 1.09-2.835 2.589-3.078m9.5 1.72a28.8 28.8 0 0 0-9.218.006c-.64.105-1.12.685-1.121 1.352v13.01c0 .684.482 1.28 1.122 1.385 3.028.501 6.175.504 9.215.007a1.4 1.4 0 0 0 1.163-1.395V5.477c0-.68-.488-1.252-1.161-1.36" clip-rule="evenodd" />
</svg>
