<!-- This Source Code Form is subject to the terms of the Mozilla Public
   - License, v. 2.0. If a copy of the MPL was not distributed with this
   - file, You can obtain one at http://mozilla.org/MPL/2.0/. -->
<svg xmlns="http://www.w3.org/2000/svg" width="24" height="24" fill="none">
    <path fill="#000" d="M11.697 19.25H6a.75.75 0 0 1-.75-.75v-14c0-.413.337-.75.75-.75h10c.413 0 .75.337.75.75v7.145c.256-.092.529-.145.811-.145h.883l.032.003.024.002V4.5C18.5 3.121 17.379 2 16 2H6a2.5 2.5 0 0 0-2.5 2.5v14C3.5 19.879 4.621 21 6 21h5.474a2.44 2.44 0 0 1 .223-1.75" />
    <path fill="#000" d="M7.75 6.25h6.5V8h-6.5zm0 4h6.5V12h-6.5zm3.972 4H7.75V16h3.972z" />
    <path fill="#000" fill-rule="evenodd" d="m22.022 18.897.835.881a.92.92 0 0 1 .129 1.089l-.441.764a.92.92 0 0 1-1.015.431l-1.155-.288a4 4 0 0 1-.714.43l-.338 1.14a.92.92 0 0 1-.879.656h-.883a.92.92 0 0 1-.881-.665l-.324-1.127a4 4 0 0 1-.73-.435l-1.154.288a.92.92 0 0 1-1.015-.431l-.441-.764a.92.92 0 0 1 .129-1.09l.834-.879-.004-.03a3 3 0 0 1-.033-.367c0-.136.018-.267.036-.398l.003-.019-.829-.858a.92.92 0 0 1-.135-1.095l.442-.764a.92.92 0 0 1 1.007-.433l1.174.282c.244-.178.48-.318.716-.424l.324-1.127a.92.92 0 0 1 .881-.664h.883c.402 0 .764.27.879.657l.338 1.14c.227.104.453.238.699.418l1.174-.282a.92.92 0 0 1 1.008.433l.441.764a.92.92 0 0 1-.134 1.095l-.829.858.003.019a3 3 0 0 1 .036.398c0 .118-.015.233-.03.347zM16.5 18.5a1.5 1.5 0 1 0 3.001-.001 1.5 1.5 0 0 0-3.001.001" clip-rule="evenodd" />
</svg>
