<!-- This Source Code Form is subject to the terms of the Mozilla Public
   - License, v. 2.0. If a copy of the MPL was not distributed with this
   - file, You can obtain one at http://mozilla.org/MPL/2.0/. -->
<svg xmlns="http://www.w3.org/2000/svg" width="24" height="24" fill="none" viewBox="0 0 24 24">
    <path fill="#000" d="M10.125 15a.875.875 0 1 1 0 1.75h-3.75a.875.875 0 1 1 0-1.75z" />
    <path fill="#000" fill-rule="evenodd" d="M2.256 2.256a.876.876 0 0 1 1.238 0l18.25 18.25a.876.876 0 0 1-1.238 1.238l-1.377-1.377a23 23 0 0 1-2.914.193 5.4 5.4 0 0 0-2.921.892 2.37 2.37 0 0 1-2.588 0 5.4 5.4 0 0 0-2.92-.892 23 23 0 0 1-3.09-.213A3.14 3.14 0 0 1 2 17.247V6.753c0-.95.433-1.817 1.12-2.396l-.864-.863a.876.876 0 0 1 0-1.238m2.11 3.347a1.39 1.39 0 0 0-.616 1.15v10.495a1.38 1.38 0 0 0 1.184 1.365 21.5 21.5 0 0 0 2.855.2 7.13 7.13 0 0 1 3.87 1.174.63.63 0 0 0 .682 0 7.13 7.13 0 0 1 3.87-1.174q.63-.002 1.316-.047l-6.542-6.542q.014.074.015.15a.875.875 0 0 1-.875.876h-3.75a.875.875 0 1 1 0-1.75h3.75q.076 0 .15.014L8.512 9.75H6.375a.875.875 0 0 1 0-1.75h.387z" clip-rule="evenodd" />
    <path fill="#000" d="M16.806 3.447a24 24 0 0 1 2.498.206A3.14 3.14 0 0 1 22 6.753v10.494c0 .41-.085.802-.233 1.165l-1.517-1.518V6.752a1.38 1.38 0 0 0-1.184-1.365 22 22 0 0 0-2.31-.19c-1.187-.037-2.397.313-3.462 1.004a2.37 2.37 0 0 1-2.588 0 6.3 6.3 0 0 0-1.986-.839L6.823 3.466c.123-.005.253-.016.373-.019a7.8 7.8 0 0 1 4.463 1.288.63.63 0 0 0 .682 0c1.363-.887 2.895-1.334 4.465-1.288" />
</svg>
