<svg width="24" height="24" viewBox="0 0 24 24" fill="none" xmlns="http://www.w3.org/2000/svg">
<path fill-rule="evenodd" clip-rule="evenodd" d="M2.98768 0.750244L23.2497 21.0122L22.0122 22.2497L20.1407 20.3782C19.7036 20.765 19.1301 21 18.5 21H13.982L12.435 21.885C12.3 21.961 12.149 22 12 22C11.851 22 11.7 21.961 11.566 21.885L10.018 21H5.5C4.121 21 3 19.878 3 18.5V5.50005C3 4.86993 3.23508 4.29646 3.62189 3.85933L1.75024 1.98768L2.98768 0.750244ZM12 12.2374L11.0126 11.25H7V13H12V12.2374ZM8.76256 9L7.01256 7.25H7V9H8.76256ZM11 17V15.25H7V17H11Z" fill="black"/>
<path d="M21 5.5V16.642L7.35803 3H10.25C10.402 3 10.552 3.04 10.685 3.115L12 3.867L13.315 3.115C13.448 3.04 13.598 3 13.75 3H18.5C19.879 3 21 4.122 21 5.5Z" fill="black"/>
</svg>
