<!-- This Source Code Form is subject to the terms of the Mozilla Public
   - License, v. 2.0. If a copy of the MPL was not distributed with this
   - file, You can obtain one at http://mozilla.org/MPL/2.0/. -->
<svg xmlns="http://www.w3.org/2000/svg" width="24" height="24" fill="none">
    <path fill="#000" fill-rule="evenodd" d="M3 5.5A2.5 2.5 0 0 1 5.5 3h4.75a.9.9 0 0 1 .434.115L12 3.867l1.316-.752A.9.9 0 0 1 13.75 3h4.75A2.5 2.5 0 0 1 21 5.5v13a2.5 2.5 0 0 1-2.5 2.5h-4.518l-1.548.885a.88.88 0 0 1-.868 0L10.018 21H5.5A2.5 2.5 0 0 1 3 18.5zm2.5-.75a.75.75 0 0 0-.75.75v13c0 .414.336.75.75.75h4.75a.9.9 0 0 1 .434.115l1.316.752 1.316-.752a.9.9 0 0 1 .434-.115h4.75a.75.75 0 0 0 .75-.75v-13a.75.75 0 0 0-.75-.75h-4.518l-1.548.885a.88.88 0 0 1-.868 0l-1.548-.885z" clip-rule="evenodd" />
    <path fill="#000" fill-rule="evenodd" d="M12 13H7v-1.75h5zm-1 4H7v-1.75h4zm1-8H7V7.25h5z" clip-rule="evenodd" />
</svg>
