<!-- This Source Code Form is subject to the terms of the Mozilla Public
   - License, v. 2.0. If a copy of the MPL was not distributed with this
   - file, You can obtain one at http://mozilla.org/MPL/2.0/. -->
<svg xmlns="http://www.w3.org/2000/svg" width="24" height="24" fill="none" viewBox="0 0 24 24">
    <path fill="#000" fill-rule="evenodd" d="M16.526 13.218a2.1 2.1 0 0 1 1.864 0c.279.14.482.393.557.695l.221.885q.315.149.629.374l.889-.254c.3-.086.62-.037.88.135.543.359.892.962.931 1.613.02.31-.1.613-.324.83l-.663.64c.016.12.028.24.028.364s-.012.244-.028.363l.663.642c.224.216.342.518.323.829a2.1 2.1 0 0 1-.931 1.613c-.26.173-.581.221-.88.135l-.89-.254q-.314.224-.629.374l-.22.885a1.07 1.07 0 0 1-.557.695 2.1 2.1 0 0 1-1.862 0 1.07 1.07 0 0 1-.558-.695l-.221-.885q-.315-.149-.629-.374l-.889.254c-.298.087-.62.036-.88-.134a2.1 2.1 0 0 1-.932-1.614c-.019-.311.1-.613.324-.83l.663-.64a3 3 0 0 1-.028-.364c0-.124.012-.244.028-.363l-.663-.642a1.06 1.06 0 0 1-.323-.829 2.1 2.1 0 0 1 .932-1.613c.259-.173.58-.222.88-.135l.89.254q.313-.225.628-.374l.22-.885c.076-.302.28-.555.557-.695m.932 3.507a1.776 1.776 0 1 0 0 3.548 1.776 1.776 0 0 0 0-3.548" clip-rule="evenodd" />
    <path fill="#000" d="M5.589 1.396a30.6 30.6 0 0 1 9.78-.008A3.12 3.12 0 0 1 18 4.477v7.086c-.18-.028-.359-.063-.541-.063-.415 0-.82.095-1.209.234V4.477c0-.68-.488-1.252-1.161-1.36a28.8 28.8 0 0 0-9.218.006c-.64.105-1.12.685-1.121 1.352v13.01c0 .684.482 1.28 1.122 1.385a28.3 28.3 0 0 0 5.282.35 2.55 2.55 0 0 0-.233 1.204c.01.189.06.372.1.555-.174.003-.348.02-.521.02-1.643 0-3.297-.135-4.913-.403C4.088 20.349 3 19.04 3 17.486V4.473c0-1.54 1.09-2.835 2.589-3.078" />
    <path fill="#000" d="M11.125 14.25c.247 0 .468.104.627.27-.354.43-.602.933-.727 1.48h-3.15a.875.875 0 0 1 0-1.75zm2-4.125a.875.875 0 0 1 0 1.75h-5.25a.875.875 0 1 1 0-1.75zm0-4.125a.875.875 0 0 1 0 1.75h-5.25a.875.875 0 0 1 0-1.75z" />
</svg>
