<!-- This Source Code Form is subject to the terms of the Mozilla Public
   - License, v. 2.0. If a copy of the MPL was not distributed with this
   - file, You can obtain one at http://mozilla.org/MPL/2.0/. -->
<svg width="24" height="24" fill="none" xmlns="http://www.w3.org/2000/svg"><path fill-rule="evenodd" clip-rule="evenodd" d="M7 3.75a.75.75 0 0 0-.75.75v14c0 .414.336.75.75.75h10a.75.75 0 0 0 .75-.75v-14a.75.75 0 0 0-.75-.75H7zm-2.5.75A2.5 2.5 0 0 1 7 2h10a2.5 2.5 0 0 1 2.5 2.5v14A2.5 2.5 0 0 1 17 21H7a2.5 2.5 0 0 1-2.5-2.5v-14z" fill="#000"/><path fill-rule="evenodd" clip-rule="evenodd" d="M8.75 6.25h6.5V8h-6.5V6.25zM8.75 10.25h6.5V12h-6.5v-1.75zM8.75 14.25h3.972V16H8.75v-1.75z" fill="#000"/></svg>
