<!-- This Source Code Form is subject to the terms of the Mozilla Public
   - License, v. 2.0. If a copy of the MPL was not distributed with this
   - file, You can obtain one at http://mozilla.org/MPL/2.0/. -->
<svg xmlns="http://www.w3.org/2000/svg" width="24" height="24" fill="none" viewBox="0 0 24 24">
    <path fill="#000" d="M19 15c.483 0 .875.392.875.875v2.25h2.25a.875.875 0 1 1 0 1.75h-2.25v2.25a.875.875 0 0 1-1.75 0v-2.25h-2.25a.875.875 0 0 1 0-1.75h2.25v-2.25c0-.483.392-.875.875-.875M5.196 3.004c1.562-.05 3.098.401 4.463 1.288a.63.63 0 0 0 .682 0c1.363-.886 2.897-1.327 4.465-1.288a24 24 0 0 1 2.498.206A3.14 3.14 0 0 1 20 6.31V13h-1.75V6.31a1.38 1.38 0 0 0-1.184-1.365 21 21 0 0 0-2.31-.191c-1.207-.04-2.397.314-3.462 1.005a2.37 2.37 0 0 1-2.588 0c-1.018-.66-2.155-1.008-3.3-1.008q-.08 0-.16.003a21 21 0 0 0-2.313.191A1.38 1.38 0 0 0 1.75 6.31v10.493a1.38 1.38 0 0 0 1.184 1.365 21.5 21.5 0 0 0 2.855.2 7.13 7.13 0 0 1 3.87 1.174.63.63 0 0 0 .682 0A7.2 7.2 0 0 1 13 18.49v1.802a5.5 5.5 0 0 0-1.706.718 2.37 2.37 0 0 1-2.588 0 5.4 5.4 0 0 0-2.92-.89 23 23 0 0 1-3.089-.214A3.14 3.14 0 0 1 0 16.803V6.31a3.14 3.14 0 0 1 2.695-3.1 24 24 0 0 1 2.501-.206" />
    <path fill="#000" d="M8.125 14.5a.875.875 0 0 1 0 1.75h-3.75a.875.875 0 0 1 0-1.75zm0-3.5a.875.875 0 0 1 0 1.75h-3.75a.875.875 0 0 1 0-1.75zm0-3.5a.875.875 0 0 1 0 1.75h-3.75a.875.875 0 0 1 0-1.75z" />
</svg>
