<!-- This Source Code Form is subject to the terms of the Mozilla Public
   - License, v. 2.0. If a copy of the MPL was not distributed with this
   - file, You can obtain one at http://mozilla.org/MPL/2.0/. -->
<svg xmlns="http://www.w3.org/2000/svg" width="24" height="24" fill="none" viewBox="0 0 24 24">
    <path fill="#000" d="M11 17H7v-1.75h4z" />
    <path fill="#000" fill-rule="evenodd" d="m23 20.763-.62.618-.617.619-1.626-1.626A2.45 2.45 0 0 1 18.5 21h-4.518l-1.547.885a.88.88 0 0 1-.869 0L10.018 21H5.5A2.5 2.5 0 0 1 3 18.5v-13c0-.63.237-1.202.624-1.638L2 2.238 3.238 1zM4.865 5.103a.74.74 0 0 0-.115.397v13c0 .413.337.75.75.75h4.75c.153 0 .302.04.435.115l1.315.752 1.315-.752a.9.9 0 0 1 .435-.115h4.75a.74.74 0 0 0 .396-.116L12 12.237V13H7v-1.75h4.012L8.762 9H7V7.25h.012z" clip-rule="evenodd" />
    <path fill="#000" d="M10.25 3c.152 0 .302.04.435.115L12 3.867l1.315-.752A.9.9 0 0 1 13.75 3h4.75C19.879 3 21 4.121 21 5.5v10.787l-1.75-1.75V5.5a.75.75 0 0 0-.75-.75h-4.517l-1.548.885a.87.87 0 0 1-.869 0l-1.548-.885h-.555L7.713 3z" />
</svg>
