<!-- This Source Code Form is subject to the terms of the Mozilla Public
   - License, v. 2.0. If a copy of the MPL was not distributed with this
   - file, You can obtain one at http://mozilla.org/MPL/2.0/. -->
<svg xmlns="http://www.w3.org/2000/svg" width="24" height="24" fill="none" viewBox="0 0 24 24">
    <path fill="#000" fill-rule="evenodd" d="M2.988.75 23.25 21.012l-1.238 1.238-1.871-1.872A2.47 2.47 0 0 1 18.5 21h-4.518l-1.547.885a.88.88 0 0 1-.869 0L10.018 21H5.5A2.503 2.503 0 0 1 3 18.5v-13c0-.63.235-1.204.622-1.64L1.75 1.987zM12 12.237l-.987-.987H7V13h5zM8.763 9l-1.75-1.75H7V9zM11 17v-1.75H7V17z" clip-rule="evenodd" />
    <path fill="#000" d="M21 5.5v11.142L7.358 3h2.892c.152 0 .302.04.435.115L12 3.867l1.315-.752A.9.9 0 0 1 13.75 3h4.75C19.879 3 21 4.122 21 5.5" />
</svg>
