<!-- This Source Code Form is subject to the terms of the Mozilla Public
   - License, v. 2.0. If a copy of the MPL was not distributed with this
   - file, You can obtain one at http://mozilla.org/MPL/2.0/. -->
<svg xmlns="http://www.w3.org/2000/svg" width="24" height="24" fill="none" viewBox="0 0 24 24">
    <path fill="#000" d="M12 13a1 1 0 1 1 0 2 1 1 0 0 1 0-2m0-6c.483 0 .875.392.875.875v2.75a.875.875 0 0 1-1.75 0v-2.75c0-.483.392-.875.875-.875" />
    <path fill="#000" fill-rule="evenodd" d="M12 3.501c2.13 0 4.576.12 7.263.466A3.14 3.14 0 0 1 22 7.073v7.859a3.12 3.12 0 0 1-2.42 3.048l-.288.051q-.63.082-1.292.15v1.692c0 1.803-2.087 2.761-3.45 1.662l-.13-.113-3.115-2.926a57 57 0 0 1-6.568-.46A3.14 3.14 0 0 1 2 14.93V7.07a3.12 3.12 0 0 1 2.708-3.1A57 57 0 0 1 12 3.502m0 1.75c-2.597 0-4.967.184-7.066.456A1.37 1.37 0 0 0 3.75 7.071v7.859c0 .69.52 1.28 1.212 1.37 2.463.318 4.716.44 6.7.451.22.001.432.086.593.237l3.362 3.157c.24.226.633.055.633-.272v-2.481c0-.453.345-.83.795-.872q1.047-.096 2.02-.224a1.37 1.37 0 0 0 1.185-1.364V7.073c0-.69-.52-1.28-1.212-1.37A55 55 0 0 0 12 5.251" clip-rule="evenodd" />
</svg>
