<!-- This Source Code Form is subject to the terms of the Mozilla Public
   - License, v. 2.0. If a copy of the MPL was not distributed with this
   - file, You can obtain one at http://mozilla.org/MPL/2.0/. -->
<svg width="24" height="24" fill="none" xmlns="http://www.w3.org/2000/svg">
    <path d="M2 4.5A2.5 2.5 0 0 1 4.5 2h7c.232 0 .455.092.619.256l4.625 4.625A.875.875 0 0 1 17 7.5V11h-1.75V8.5H11.5a1 1 0 0 1-1-1V3.75h-6a.75.75 0 0 0-.75.75v14c0 .414.336.75.75.75H13V21H4.5A2.5 2.5 0 0 1 2 18.5v-14zM19 13h-1.75v4h-1.612a.756.756 0 0 0-.535 1.291l2.487 2.487a.757.757 0 0 0 1.07 0l2.487-2.487A.756.756 0 0 0 20.612 17H19v-4z" fill="#000" />
</svg>
