<!-- This Source Code Form is subject to the terms of the Mozilla Public
   - License, v. 2.0. If a copy of the MPL was not distributed with this
   - file, You can obtain one at http://mozilla.org/MPL/2.0/. -->
<svg xmlns="http://www.w3.org/2000/svg" width="24" height="24" fill="none" viewBox="0 0 24 24">
    <path fill="#000" d="M11 2.02h.234c.618 0 1.212.245 1.65.682l4.427 4.411c.44.439.689 1.035.689 1.657V12h-1.75V8.5H12a1 1 0 0 1-1-1V3.77c-1.72-.03-3.442.077-5.129.353-.64.105-1.121.685-1.121 1.352v13.01c0 .684.482 1.28 1.122 1.385 2.463.407 5 .453 7.496.198l1.187 1.631a30 30 0 0 1-4.055.3c-1.643 0-3.297-.135-4.913-.403C4.088 21.35 3 20.041 3 18.486V5.473c0-1.54 1.089-2.835 2.589-3.078A30.5 30.5 0 0 1 11 2.02" />
    <path fill="#000" d="M18.125 14c.483 0 .875.392.875.875V18h1.612c.674 0 1.01.815.536 1.29l-2.488 2.488a.76.76 0 0 1-1.07 0l-2.486-2.487A.756.756 0 0 1 15.638 18h1.612v-3.125c0-.483.392-.875.875-.875" />
</svg>
