<svg width="24" height="24" viewBox="0 0 24 24" fill="none" xmlns="http://www.w3.org/2000/svg">
<path fill-rule="evenodd" clip-rule="evenodd" d="M10.5 4C14.6421 4 18 7.35786 18 11.5C18 13.2552 17.3948 14.8678 16.3848 16.1455L19.7451 19.5059C20.0861 19.8479 20.0861 20.4022 19.7451 20.7432C19.5741 20.9141 19.349 20.999 19.126 20.999C18.903 20.999 18.6778 20.9142 18.5068 20.7432L15.1465 17.3838C13.8686 18.3943 12.2557 19 10.5 19C6.35786 19 3 15.6421 3 11.5C3 7.35786 6.35786 4 10.5 4ZM10.5 5.75C7.32436 5.75 4.75 8.32436 4.75 11.5C4.75 14.6756 7.32436 17.25 10.5 17.25C13.6756 17.25 16.25 14.6756 16.25 11.5C16.25 8.32436 13.6756 5.75 10.5 5.75Z" fill="black"/>
</svg>
