<!-- This Source Code Form is subject to the terms of the Mozilla Public
   - License, v. 2.0. If a copy of the MPL was not distributed with this
   - file, You can obtain one at http://mozilla.org/MPL/2.0/. -->
<svg xmlns="http://www.w3.org/2000/svg" width="24" height="24" fill="none" viewBox="0 0 24 24">
    <path fill="#000" d="M20.506 8.07a.876.876 0 0 1 1.238 1.237l-6.816 6.816A2.98 2.98 0 0 1 12.81 17c-.8 0-1.552-.311-2.117-.876l-3.437-3.437a.875.875 0 1 1 1.238-1.237l3.436 3.436c.47.47 1.292.469 1.76 0zM2.256 11.45a.876.876 0 0 1 1.238 0l3.436 3.435c.197.197.46.292.727.324l1.472 1.472c-.407.2-.852.318-1.318.318-.8 0-1.553-.311-2.118-.876l-3.437-3.438a.875.875 0 0 1 0-1.236" />
    <path fill="#000" d="M15.507 8.07a.876.876 0 0 1 1.238 1.236l-4.136 4.136-1.237-1.238z" />
</svg>
