<!-- This Source Code Form is subject to the terms of the Mozilla Public
   - License, v. 2.0. If a copy of the MPL was not distributed with this
   - file, You can obtain one at http://mozilla.org/MPL/2.0/. -->
<svg xmlns="http://www.w3.org/2000/svg" width="24" height="24" fill="none" viewBox="0 0 24 24">
    <path fill="#000" fill-rule="evenodd" d="M12.5 8.5a3.5 3.5 0 1 1 0 7 3.5 3.5 0 0 1 0-7m0 1.75c-.965 0-1.75.785-1.75 1.75s.785 1.75 1.75 1.75 1.75-.786 1.75-1.75c0-.965-.785-1.75-1.75-1.75" clip-rule="evenodd" />
    <path fill="#000" fill-rule="evenodd" d="M10.74 2.416a3.94 3.94 0 0 1 3.311-.098l.21.097.002.002c.554.278.963.785 1.114 1.39l.364 1.46c.337.166.653.357.95.564l1.465-.42.228-.051c.532-.09 1.08.024 1.534.322a3.94 3.94 0 0 1 1.762 3.051 2.13 2.13 0 0 1-.647 1.661l-1.088 1.053c.02.172.038.362.038.553 0 .19-.017.38-.038.551l1.088 1.052c.393.38.622.892.649 1.43l-.002.232a3.94 3.94 0 0 1-1.571 2.918l-.19.133a2.13 2.13 0 0 1-1.763.271l-1.466-.42a7.4 7.4 0 0 1-.949.564l-.364 1.461a2.13 2.13 0 0 1-1.117 1.39v.002a3.94 3.94 0 0 1-3.31.097l-.211-.097a2.13 2.13 0 0 1-1.116-1.391l-.365-1.46a7.4 7.4 0 0 1-.948-.564l-1.466.42c-.6.17-1.243.07-1.762-.271v-.001a3.94 3.94 0 0 1-1.762-3.05 2.13 2.13 0 0 1 .646-1.663l1.088-1.053A5 5 0 0 1 5.017 12c0-.192.016-.381.036-.554l-1.087-1.05a2.13 2.13 0 0 1-.646-1.662 3.94 3.94 0 0 1 1.572-2.918l.19-.134a2.13 2.13 0 0 1 1.762-.27l1.465.419c.297-.207.612-.4.949-.566l.365-1.458a2.13 2.13 0 0 1 1.116-1.391m2.739 1.564a2.19 2.19 0 0 0-1.957 0l-.001.001a.38.38 0 0 0-.2.25l-.467 1.87a.88.88 0 0 1-.518.597c-.465.19-.9.458-1.321.784a.88.88 0 0 1-.776.15l-1.877-.538a.4.4 0 0 0-.243.011l-.074.038a2.19 2.19 0 0 0-.968 1.568l-.01.127a.38.38 0 0 0 .115.298l1.406 1.36c.2.194.296.471.259.747-.045.33-.08.534-.08.757s.036.422.08.76a.88.88 0 0 1-.259.743l-1.406 1.36a.38.38 0 0 0-.115.299c.041.688.404 1.315.978 1.694.095.063.21.08.317.05l1.877-.537.101-.023a.88.88 0 0 1 .675.171 6 6 0 0 0 1.148.71l.173.075.094.045c.21.117.365.317.424.553l.466 1.868c.027.108.102.2.202.25a2.19 2.19 0 0 0 1.957 0 .38.38 0 0 0 .2-.25l.467-1.869.03-.1a.88.88 0 0 1 .487-.498c.465-.19.9-.459 1.322-.785a.88.88 0 0 1 .776-.148l1.877.537c.107.03.223.013.316-.049h.001a2.19 2.19 0 0 0 .979-1.696.38.38 0 0 0-.116-.298l-1.407-1.36a.88.88 0 0 1-.259-.745c.045-.331.08-.534.08-.757 0-.224-.035-.423-.08-.76a.88.88 0 0 1 .26-.743l1.406-1.36a.4.4 0 0 0 .116-.299 2.19 2.19 0 0 0-.978-1.694l-.075-.039a.4.4 0 0 0-.244-.012v.001l-1.876.537a.88.88 0 0 1-.776-.149 5.7 5.7 0 0 0-1.322-.784.88.88 0 0 1-.517-.598l-.467-1.869a.4.4 0 0 0-.2-.25" clip-rule="evenodd" />
</svg>
