<!-- This Source Code Form is subject to the terms of the Mozilla Public
   - License, v. 2.0. If a copy of the MPL was not distributed with this
   - file, You can obtain one at http://mozilla.org/MPL/2.0/. -->
<svg width="24" height="24" fill="none" xmlns="http://www.w3.org/2000/svg"><path fill-rule="evenodd" clip-rule="evenodd" d="M8.25 12c0-2.07 1.68-3.75 3.75-3.75 2.07 0 3.75 1.68 3.75 3.75 0 2.07-1.68 3.75-3.75 3.75-2.07 0-3.75-1.68-3.75-3.75zM14 12c0-1.1-.9-2-2-2s-2 .9-2 2 .9 2 2 2 2-.9 2-2z" fill="#000"/><path fill-rule="evenodd" clip-rule="evenodd" d="M9.19 20.46c.26.91 1.1 1.54 2.05 1.54h1.52l.05.02c.94 0 1.78-.63 2.05-1.53l.51-1.72c.28-.15.57-.32.87-.53l1.73.43c.92.24 1.89-.18 2.36-1l.76-1.31c.47-.82.35-1.86-.3-2.54l-1.25-1.32c.02-.16.03-.32.03-.49 0-.18-.02-.35-.04-.52l1.23-1.28c.65-.68.78-1.73.31-2.55l-.76-1.31a2.157 2.157 0 0 0-2.35-1.01l-1.77.42c-.29-.2-.57-.37-.85-.51l-.51-1.72C14.56 2.63 13.72 2 12.78 2h-1.51c-.95 0-1.79.63-2.05 1.54l-.49 1.69c-.29.14-.58.32-.88.52l-1.77-.42c-.92-.22-1.88.2-2.35 1.01l-.76 1.31c-.48.82-.35 1.87.31 2.55l1.23 1.28c-.03.17-.04.34-.04.52 0 .17.01.33.03.49l-1.25 1.32c-.65.68-.77 1.73-.3 2.54l.76 1.31c.47.82 1.44 1.23 2.36 1l1.73-.43c.3.21.6.39.9.54l.49 1.69zm-.67-3.88a.85.85 0 0 0-.53-.18l.01.02c-.07 0-.14.01-.21.03l-2.13.53a.376.376 0 0 1-.42-.18l-.76-1.31a.376.376 0 0 1 .05-.46l1.54-1.62a.88.88 0 0 0 .23-.71l-.03-.22-.003-.027a3.501 3.501 0 0 1-.037-.443c0-.127.017-.255.034-.383l.016-.127.03-.2a.897.897 0 0 0-.24-.72L4.54 9a.395.395 0 0 1-.06-.46l.76-1.31a.37.37 0 0 1 .42-.18l2.16.52c.25.06.52.01.73-.15.43-.33.83-.56 1.23-.73.24-.11.43-.31.5-.57l.6-2.08c.05-.17.2-.28.37-.28h1.51c.17 0 .32.11.37.27l.62 2.1c.08.25.26.46.5.56.39.16.77.39 1.21.72.21.15.48.21.73.15l2.16-.52c.17-.04.34.03.42.18l.76 1.31c.08.15.06.34-.06.46l-1.53 1.58c-.19.19-.27.46-.24.72l.03.2.017.13c.017.124.033.246.033.38 0 .16-.02.32-.04.47l-.03.22c-.04.26.05.52.23.71l1.54 1.62c.11.13.14.31.05.46l-.76 1.31c-.08.15-.26.22-.42.18l-2.13-.53a.852.852 0 0 0-.74.15c-.45.34-.84.58-1.23.74-.24.1-.43.31-.5.56l-.62 2.1c-.05.16-.2.27-.37.27h-1.52c-.17 0-.32-.12-.37-.28l-.6-2.08a.84.84 0 0 0-.5-.57c-.4-.17-.81-.42-1.25-.75z" fill="#000"/></svg>
