<!-- This Source Code Form is subject to the terms of the Mozilla Public
   - License, v. 2.0. If a copy of the MPL was not distributed with this
   - file, You can obtain one at http://mozilla.org/MPL/2.0/. -->
<svg xmlns="http://www.w3.org/2000/svg" width="24" height="24" fill="none" viewBox="0 0 24 24">
    <path fill="#000" d="M17 8.304c.435.048.873.076 1.306.137A3.146 3.146 0 0 1 21 11.54v6.921c0 1.55-1.145 2.878-2.665 3.092A45 45 0 0 1 12 22c-2.099 0-4.22-.149-6.306-.442A3.145 3.145 0 0 1 3 18.458v-6.92c0-1.55 1.145-2.88 2.665-3.093.443-.063.89-.092 1.335-.14v1.757c-.363.042-.73.064-1.09.115a1.37 1.37 0 0 0-1.16 1.36v6.92c0 .683.51 1.27 1.188 1.367 4.018.563 8.137.562 12.152-.005a1.37 1.37 0 0 0 1.159-1.359v-6.92c0-.684-.51-1.272-1.189-1.368-.351-.049-.708-.07-1.061-.111z" />
    <path fill="#000" d="M10.686 2.538a1.88 1.88 0 0 1 2.631 0l2.922 2.876a.874.874 0 1 1-1.227 1.247l-2.137-2.103v9.567a.875.875 0 0 1-1.75 0V4.56L8.988 6.663a.874.874 0 0 1-1.226-1.248z" />
</svg>
