<!-- This Source Code Form is subject to the terms of the Mozilla Public
   - License, v. 2.0. If a copy of the MPL was not distributed with this
   - file, You can obtain one at http://mozilla.org/MPL/2.0/. -->
<svg xmlns="http://www.w3.org/2000/svg" width="24" height="24" fill="none">
    <path fill="#000" fill-rule="evenodd" d="M14 6.5a3.5 3.5 0 1 1 .947 2.395l-5.052 2.251a3.5 3.5 0 0 1-.003 1.72l5.047 2.248a3.5 3.5 0 1 1-.837 1.543l-5.058-2.253a3.5 3.5 0 1 1 .009-4.798l5.052-2.252A3.5 3.5 0 0 1 14 6.5m3.5-1.75a1.75 1.75 0 1 0 0 3.5 1.75 1.75 0 0 0 0-3.5m-11 5.5a1.75 1.75 0 1 0 0 3.5 1.75 1.75 0 0 0 0-3.5m9.25 7.25a1.75 1.75 0 1 1 3.5 0 1.75 1.75 0 0 1-3.5 0" clip-rule="evenodd" />
</svg>
