<!-- This Source Code Form is subject to the terms of the Mozilla Public
   - License, v. 2.0. If a copy of the MPL was not distributed with this
   - file, You can obtain one at http://mozilla.org/MPL/2.0/. -->
<svg xmlns="http://www.w3.org/2000/svg" width="24" height="24" fill="none">
    <path fill="#000" d="M12 3c.232 0 .455.092.619.256l5.38 5.382-1.237 1.237-3.887-3.887V18h-1.75V5.987L7.237 9.875 6 8.638l5.381-5.382A.88.88 0 0 1 12 3" />
    <path fill="#000" d="M5 17v2.5c0 .414.336.75.75.75h12.5a.75.75 0 0 0 .75-.75V17h1.75v2.5a2.5 2.5 0 0 1-2.5 2.5H5.75a2.5 2.5 0 0 1-2.5-2.5V17z" />
</svg>
