<svg width="24" height="24" viewBox="0 0 24 24" fill="none" xmlns="http://www.w3.org/2000/svg">
<path fill-rule="evenodd" clip-rule="evenodd" d="M17.5 3C19.433 3 21 4.567 21 6.5C21 8.433 19.433 10 17.5 10C16.3087 10 15.2571 9.40433 14.625 8.49512L9.78516 11.2891C9.92429 11.6664 10 12.0744 10 12.5C10 12.9253 9.92409 13.3329 9.78516 13.71L14.625 16.5039C15.2572 15.5951 16.309 15 17.5 15C19.433 15 21 16.567 21 18.5C21 20.433 19.433 22 17.5 22C15.567 22 14 20.433 14 18.5C14 18.39 14.0057 18.2812 14.0156 18.1738L8.78223 15.1514C8.1693 15.6794 7.3725 16 6.5 16C4.567 16 3 14.433 3 12.5C3 10.567 4.567 9 6.5 9C7.37227 9 8.16937 9.31984 8.78223 9.84766L14.0156 6.8252C14.0058 6.7181 14 6.60967 14 6.5C14 4.567 15.567 3 17.5 3ZM17.5 16.75C16.5335 16.75 15.75 17.5335 15.75 18.5C15.75 19.4665 16.5335 20.25 17.5 20.25C18.4665 20.25 19.25 19.4665 19.25 18.5C19.25 17.5335 18.4665 16.75 17.5 16.75ZM6.5 10.75C5.5335 10.75 4.75 11.5335 4.75 12.5C4.75 13.4665 5.5335 14.25 6.5 14.25C7.4665 14.25 8.25 13.4665 8.25 12.5C8.25 11.5335 7.4665 10.75 6.5 10.75ZM17.5 4.75C16.5335 4.75 15.75 5.5335 15.75 6.5C15.75 7.4665 16.5335 8.25 17.5 8.25C18.4665 8.25 19.25 7.4665 19.25 6.5C19.25 5.5335 18.4665 4.75 17.5 4.75Z" fill="black"/>
</svg>
