<!-- This Source Code Form is subject to the terms of the Mozilla Public
   - License, v. 2.0. If a copy of the MPL was not distributed with this
   - file, You can obtain one at http://mozilla.org/MPL/2.0/. -->
<svg xmlns="http://www.w3.org/2000/svg" width="24" height="24" fill="none" viewBox="0 0 24 24">
    <path fill="#000" fill-rule="evenodd" d="M17.5 3a3.5 3.5 0 1 1-2.875 5.495l-4.84 2.794c.14.377.215.785.215 1.211 0 .425-.076.833-.215 1.21l4.84 2.794a3.5 3.5 0 1 1-.61 1.67L8.783 15.15a3.5 3.5 0 1 1 0-5.304l5.234-3.022A3.5 3.5 0 0 1 17.5 3m0 13.75a1.75 1.75 0 1 0 0 3.5 1.75 1.75 0 0 0 0-3.5m-11-6a1.75 1.75 0 1 0 0 3.5 1.75 1.75 0 0 0 0-3.5m11-6a1.75 1.75 0 1 0 0 3.5 1.75 1.75 0 0 0 0-3.5" clip-rule="evenodd" />
</svg>
