<!-- This Source Code Form is subject to the terms of the Mozilla Public
   - License, v. 2.0. If a copy of the MPL was not distributed with this
   - file, You can obtain one at http://mozilla.org/MPL/2.0/. -->
<svg width="24" height="24" fill="none" xmlns="http://www.w3.org/2000/svg">
    <path d="m13.113 19.788.207-.138v-.01c.08.62.28 1.19.58 1.71-.058.034-.114.07-.17.106-.089.058-.178.115-.27.164a3 3 0 0 1-2.92 0c-2.08-1.16-3.99-2.96-5.39-5.08-.71-1.08-1.21-2.38-1.49-3.89L2.95 8.8c-.24-1.28.38-2.56 1.52-3.18l6.02-3.26a3 3 0 0 1 2.85 0l6.17 3.32c1.15.62 1.77 1.9 1.53 3.19l-.71 3.79c-.13.7-.31 1.34-.53 1.95-.53-.22-1.11-.35-1.72-.35.23-.58.41-1.21.54-1.91l.71-3.79c.1-.54-.16-1.07-.64-1.33l-6.17-3.32c-.19-.1-.39-.15-.59-.16h-.01c-.2 0-.41.05-.59.15L5.31 7.16c-.48.26-.73.79-.63 1.33l.71 3.85c.23 1.27.65 2.36 1.23 3.24 1.24 1.88 2.94 3.49 4.78 4.52.38.21.84.21 1.22 0 .168-.091.331-.202.493-.312z" fill="#000" />
    <path d="M18 22c1.66 0 3-1.34 3-3s-1.34-3-3-3-3 1.34-3 3 1.34 3 3 3z" fill="#000" />
</svg>
