<!-- This Source Code Form is subject to the terms of the Mozilla Public
   - License, v. 2.0. If a copy of the MPL was not distributed with this
   - file, You can obtain one at http://mozilla.org/MPL/2.0/. -->
<svg width="24" height="24" fill="none" xmlns="http://www.w3.org/2000/svg">
    <path d="M10.89 14.56c.16.17.39.26.62.26.23 0 .46-.09.62-.26l4.51-4.51-1.24-1.24-3.89 3.89-2.16-2.16-1.24 1.24 2.78 2.78z" fill="#000" />
    <path fill-rule="evenodd" clip-rule="evenodd" d="M10.54 21.62a3 3 0 0 0 2.92 0c2.08-1.17 3.99-2.97 5.39-5.09.7-1.07 1.2-2.37 1.48-3.87l.71-3.79c.24-1.29-.38-2.57-1.53-3.19l-6.17-3.32a3 3 0 0 0-2.85 0L4.47 5.62c-1.14.62-1.76 1.9-1.52 3.18l.71 3.85c.28 1.51.78 2.81 1.49 3.89 1.4 2.12 3.31 3.92 5.39 5.08zm.79-17.72c.18-.1.39-.15.59-.15v.01c.2 0 .4.05.59.15l6.18 3.32c.48.26.74.79.64 1.33l-.71 3.79c-.23 1.27-.64 2.35-1.22 3.23-1.24 1.89-2.94 3.49-4.78 4.52-.37.21-.84.21-1.22 0-1.84-1.03-3.54-2.63-4.78-4.52-.58-.88-1-1.97-1.23-3.24l-.71-3.85c-.1-.54.15-1.07.63-1.33l6.02-3.26z" fill="#000" />
</svg>
