<!-- This Source Code Form is subject to the terms of the Mozilla Public
   - License, v. 2.0. If a copy of the MPL was not distributed with this
   - file, You can obtain one at http://mozilla.org/MPL/2.0/. -->
<svg width="24" height="24" fill="none" xmlns="http://www.w3.org/2000/svg">
    <path d="M11.33 3.9 8.69 5.33v-.01L7.4 4.03l3.09-1.67a3 3 0 0 1 2.85 0l6.17 3.32c1.15.62 1.77 1.9 1.53 3.19l-.7 3.79c-.22 1.2-.6 2.28-1.1 3.21l-1.31-1.31c.3-.66.54-1.4.69-2.22l.7-3.79c.1-.54-.16-1.07-.64-1.33L12.51 3.9a1.232 1.232 0 0 0-1.18 0zM12.61 20.09c1.73-.97 3.32-2.45 4.54-4.19l1.26 1.26c-1.35 1.84-3.08 3.41-4.95 4.45-.45.25-.96.38-1.46.38s-1.01-.13-1.46-.38c-2.08-1.16-3.99-2.97-5.39-5.08-.71-1.08-1.21-2.39-1.49-3.89l-.71-3.85a2.98 2.98 0 0 1 1.52-3.18l1.55-.84 1.29 1.29L5.3 7.15c-.47.26-.73.8-.63 1.33l.71 3.85c.24 1.27.65 2.36 1.23 3.24 1.24 1.89 2.94 3.49 4.78 4.52.37.21.84.21 1.22 0z" fill="#000" />
    <path d="M3.232 2.001 1.995 3.24l18.76 18.76 1.237-1.238-18.76-18.76z" fill="#000" />
</svg>
