<svg width="24" height="24" fill="none" xmlns="http://www.w3.org/2000/svg"><path d="M13.32 19.65c-.23.15-.46.32-.7.45-.38.21-.84.21-1.22 0-1.84-1.03-3.54-2.64-4.78-4.52-.58-.88-1-1.97-1.23-3.24l-.71-3.85c-.1-.54.15-1.07.63-1.33l6.02-3.26c.18-.1.39-.15.59-.15h.01c.2.01.4.06.59.16l6.17 3.32c.48.26.74.79.64 1.33l-.71 3.79c-.13.7-.31 1.33-.54 1.91.61 0 1.19.13 1.72.35.22-.61.4-1.25.53-1.95l.71-3.79c.24-1.29-.38-2.57-1.53-3.19l-6.17-3.32a3 3 0 0 0-2.85 0L4.47 5.62c-1.14.62-1.76 1.9-1.52 3.18l.71 3.85c.28 1.51.78 2.81 1.49 3.89 1.4 2.12 3.31 3.92 5.39 5.08a3 3 0 0 0 2.92 0c.15-.08.29-.18.44-.27-.3-.52-.5-1.09-.58-1.71v.01z" fill="#000"/><path d="M18 22a3 3 0 1 0 0-6 3 3 0 0 0 0 6z" fill="#000"/></svg>