<!-- This Source Code Form is subject to the terms of the Mozilla Public
   - License, v. 2.0. If a copy of the MPL was not distributed with this
   - file, You can obtain one at http://mozilla.org/MPL/2.0/. -->
<svg xmlns="http://www.w3.org/2000/svg" width="24" height="24" fill="none" viewBox="0 0 24 24">
    <path fill="#000" d="M19 22c-1.654 0-3-1.346-3-3s1.346-3 3-3 3 1.346 3 3-1.346 3-3 3" />
    <path fill="#000" d="M14.5 19c0-.259.034-.509.076-.756-.56.479-1.14.923-1.747 1.283a1.64 1.64 0 0 1-1.678-.013c-1.67-.993-3.216-2.488-4.352-4.209-.56-.85-.958-1.903-1.185-3.132l-.57-3.098c-.144-.779.264-1.558.968-1.852.717-.297 1.433-.63 2.127-.987a30 30 0 0 0 2.875-1.689c.296-.197.633-.296.968-.296s.67.1.958.298a27.8 27.8 0 0 0 5.034 2.737 1.67 1.67 0 0 1 .981 1.845l-.567 3.05c-.182.983-.48 1.848-.879 2.592A4.5 4.5 0 0 1 19 14.499c.184 0 .358.033.536.054q.368-.952.573-2.053l.567-3.049c.293-1.579-.56-3.169-2.029-3.78a26 26 0 0 1-2.484-1.193 26 26 0 0 1-2.232-1.372 3.45 3.45 0 0 0-3.888-.015A28 28 0 0 1 5.34 5.609c-1.46.608-2.309 2.199-2.017 3.783l.57 3.098c.27 1.462.755 2.732 1.445 3.779 1.28 1.937 3.025 3.623 4.917 4.749a3.4 3.4 0 0 0 1.75.483c.595 0 1.187-.156 1.715-.469.344-.204.676-.446 1.008-.685a4.4 4.4 0 0 1-.229-1.348z" />
</svg>
