<svg width="24" height="24" fill="none" xmlns="http://www.w3.org/2000/svg"><path d="M12.87 14.75h-1.75v1.75h1.75v-1.75zM11.12 7.5h1.75V13h-1.75V7.5z" fill="#000"/><path fill-rule="evenodd" clip-rule="evenodd" d="M12 22a3 3 0 0 1-1.46-.38c-2.08-1.16-3.99-2.96-5.39-5.08-.71-1.08-1.21-2.38-1.49-3.89L2.95 8.8c-.24-1.28.38-2.56 1.52-3.18l6.02-3.26a3 3 0 0 1 2.85 0l6.17 3.32c1.15.62 1.77 1.9 1.53 3.19l-.71 3.79c-.28 1.5-.78 2.8-1.48 3.87-1.4 2.12-3.31 3.92-5.39 5.09-.45.25-.96.38-1.46.38zm-.08-18.25c-.2 0-.41.05-.59.15L5.31 7.16c-.48.26-.73.79-.63 1.33l.71 3.85c.23 1.27.65 2.36 1.23 3.24 1.24 1.89 2.94 3.49 4.78 4.52.38.21.85.21 1.22 0 1.84-1.03 3.54-2.63 4.78-4.52.58-.88.99-1.96 1.22-3.23l.71-3.79c.1-.54-.16-1.07-.64-1.33l-6.18-3.32c-.19-.1-.39-.15-.59-.15v-.01z" fill="#000"/></svg>