<!-- This Source Code Form is subject to the terms of the Mozilla Public
   - License, v. 2.0. If a copy of the MPL was not distributed with this
   - file, You can obtain one at http://mozilla.org/MPL/2.0/. -->
<svg xmlns="http://www.w3.org/2000/svg" width="24" height="24" fill="none" viewBox="0 0 24 24">
    <path fill="#000" d="M10.044 3.593a3.45 3.45 0 0 1 3.887.014c.5.344 1.044.691 1.63 1.033l.602.34.643.34a26 26 0 0 0 1.842.853 3.41 3.41 0 0 1 2.028 3.78L20.11 13c-.241 1.303-.685 2.614-1.44 3.76l-.002.004c-1.3 1.972-3.046 3.645-4.945 4.77a3.4 3.4 0 0 1-3.465-.013c-1.89-1.124-3.624-2.79-4.919-4.75-.759-1.152-1.202-2.468-1.444-3.778l-.57-3.097v-.001C3.038 8.339 3.84 6.736 5.34 6.11a27 27 0 0 0 1.998-.93h.001a28 28 0 0 0 2.704-1.588M12.94 5.05c-.58-.397-1.33-.4-1.926-.001a29 29 0 0 1-2.096 1.273l-.78.416q-.825.424-1.61.768l-.516.22c-.7.292-1.113 1.065-.969 1.851l.57 3.097.088.428c.222.988.576 1.912 1.097 2.704l.221.325c1.128 1.609 2.584 2.964 4.132 3.885h-.001c.521.31 1.171.313 1.679.012 1.66-.984 3.213-2.467 4.375-4.228l.002-.003c.594-.902.97-1.975 1.181-3.115l.001-.001.567-3.048.02-.147a1.655 1.655 0 0 0-1-1.697h-.002a28 28 0 0 1-2.651-1.274v-.001A28 28 0 0 1 12.94 5.05" />
    <path fill="#000" d="M12 15a1 1 0 1 1 0 2 1 1 0 0 1 0-2m0-6c.483 0 .875.392.875.875v2.75a.875.875 0 0 1-1.75 0v-2.75c0-.483.392-.875.875-.875" />
</svg>
