<!-- This Source Code Form is subject to the terms of the Mozilla Public
   - License, v. 2.0. If a copy of the MPL was not distributed with this
   - file, You can obtain one at http://mozilla.org/MPL/2.0/. -->
<svg width="24" height="24" fill="none" xmlns="http://www.w3.org/2000/svg"><path d="M8.692 5.327 11.328 3.9a1.26 1.26 0 0 1 1.187-.001l6.174 3.322c.48.259.736.792.637 1.328l-.705 3.793a9.696 9.696 0 0 1-.688 2.224l1.307 1.307c.503-.934.878-2.006 1.102-3.211l.705-3.794a2.988 2.988 0 0 0-1.528-3.188l-6.174-3.322a2.993 2.993 0 0 0-2.849.003L7.401 4.035l1.291 1.292z" fill="#000"/><path fill-rule="evenodd" clip-rule="evenodd" d="m18.409 17.171 3.59 3.591L20.763 22l-3.465-3.466c-1.134 1.248-2.445 2.31-3.831 3.085a3.005 3.005 0 0 1-1.464.378 3.005 3.005 0 0 1-1.464-.378c-2.08-1.161-3.992-2.965-5.388-5.079-.71-1.075-1.21-2.384-1.487-3.888L2.954 8.8a2.991 2.991 0 0 1 1.46-3.148L2 3.238 3.238 2 6.02 4.783l.005-.003 1.29 1.291-.004.003 9.834 9.833.003-.004 1.264 1.264-.003.004zm-2.358.117L5.704 6.943l-.396.214a1.248 1.248 0 0 0-.635 1.326l.709 3.852c.235 1.272.647 2.362 1.227 3.24 1.244 1.886 2.942 3.49 4.78 4.517a1.27 1.27 0 0 0 1.222 0c1.248-.698 2.423-1.666 3.438-2.804z" fill="#000"/></svg>
