<!-- This Source Code Form is subject to the terms of the Mozilla Public
   - License, v. 2.0. If a copy of the MPL was not distributed with this
   - file, You can obtain one at http://mozilla.org/MPL/2.0/. -->
<svg xmlns="http://www.w3.org/2000/svg" width="24" height="24" fill="none" viewBox="0 0 24 24">
    <path fill="#000" d="M8.025 6.79c-.656.333-1.33.65-2.012.935-.705.294-1.114 1.073-.97 1.851l.57 3.097c.227 1.23.625 2.284 1.185 3.132 1.136 1.72 2.682 3.216 4.352 4.21a1.64 1.64 0 0 0 1.68.012c1.647-.977 3.168-2.443 4.302-4.13l1.247 1.247c-1.255 1.782-2.885 3.335-4.66 4.387a3.37 3.37 0 0 1-1.715.469 3.4 3.4 0 0 1-1.75-.483c-1.893-1.126-3.64-2.813-4.918-4.75-.688-1.045-1.174-2.316-1.444-3.778l-.57-3.097C3.03 8.308 3.88 6.717 5.34 6.109c.464-.193.916-.417 1.369-.636zm2.019-3.198a3.45 3.45 0 0 1 3.888.015 26 26 0 0 0 4.716 2.565c1.468.612 2.32 2.201 2.028 3.78L20.11 13a11 11 0 0 1-.919 2.834l-1.326-1.325a9.6 9.6 0 0 0 .524-1.827l.566-3.05a1.67 1.67 0 0 0-.98-1.844A28 28 0 0 1 12.94 5.05a1.7 1.7 0 0 0-.959-.298c-.334 0-.672.098-.968.296-.523.349-1.065.678-1.614.995L8.113 4.756c.66-.366 1.31-.75 1.931-1.164" />
    <path fill="#c52d4f" d="M2.256 2.256a.876.876 0 0 1 1.238 0l18.25 18.25a.876.876 0 0 1-1.238 1.238L2.256 3.494a.876.876 0 0 1 0-1.238" />
</svg>
