<!-- This Source Code Form is subject to the terms of the Mozilla Public
   - License, v. 2.0. If a copy of the MPL was not distributed with this
   - file, You can obtain one at http://mozilla.org/MPL/2.0/. -->
<svg xmlns="http://www.w3.org/2000/svg" width="24" height="24" fill="none">
    <path fill="#000" fill-rule="evenodd" d="M15.227 18.75A3 3 0 0 0 17.664 20a3 3 0 0 0 2.437-1.25h.275c.897 0 1.625-.728 1.625-1.625V11.7a.9.9 0 0 0-.117-.437l-2.203-3.825A.88.88 0 0 0 18.923 7h-3.23a2.5 2.5 0 0 0-2.486-2.233H4.5a2.5 2.5 0 0 0-2.5 2.5v8.983c0 1.151.778 2.12 1.837 2.411A3 3 0 0 0 6.336 20a3 3 0 0 0 2.437-1.25zM4.5 6.517a.75.75 0 0 0-.75.75v8.211A3 3 0 0 1 9.336 17h4.621V7.267a.75.75 0 0 0-.75-.75zM15.707 12h4.544v-.066L18.417 8.75h-2.71zM5.086 17a1.25 1.25 0 1 1 2.5 0 1.25 1.25 0 0 1-2.5 0m11.328 0a1.25 1.25 0 1 1 2.5 0 1.25 1.25 0 0 1-2.5 0" clip-rule="evenodd" />
</svg>
