<svg width="24" height="24" fill="none" xmlns="http://www.w3.org/2000/svg"><path fill-rule="evenodd" clip-rule="evenodd" d="M15.227 18.75A2.996 2.996 0 0 0 17.664 20a2.996 2.996 0 0 0 2.437-1.25h.275c.897 0 1.625-.728 1.625-1.625V11.7a.875.875 0 0 0-.117-.437l-2.203-3.825A.875.875 0 0 0 18.923 7h-3.23a2.501 2.501 0 0 0-2.486-2.233H4.5a2.5 2.5 0 0 0-2.5 2.5v8.983c0 1.151.778 2.12 1.837 2.411A2.997 2.997 0 0 0 6.336 20a2.996 2.996 0 0 0 2.437-1.25h6.454zM4.5 6.517a.75.75 0 0 0-.75.75v8.211A3 3 0 0 1 9.336 17h4.621V7.267a.75.75 0 0 0-.75-.75H4.5zM15.707 12h4.544v-.066L18.417 8.75h-2.71V12zM5.086 17a1.25 1.25 0 1 1 2.5 0 1.25 1.25 0 0 1-2.5 0zm11.328 0a1.25 1.25 0 1 1 2.5 0 1.25 1.25 0 0 1-2.5 0z" fill="#000"/></svg>