<!-- This Source Code Form is subject to the terms of the Mozilla Public
   - License, v. 2.0. If a copy of the MPL was not distributed with this
   - file, You can obtain one at http://mozilla.org/MPL/2.0/. -->
<svg width="24" height="24" fill="none" xmlns="http://www.w3.org/2000/svg"><path d="M13.452 2H6v1.75h7.088l6.629 6.656 1.24-1.234-6.885-6.914a.875.875 0 0 0-.62-.258zM8.933 12.379l1.414-1.415L8.933 9.55l-1.415 1.414 1.415 1.415z" fill="#000"/><path fill-rule="evenodd" clip-rule="evenodd" d="M3.5 6.375c0-.483.392-.875.875-.875h7.265c.232 0 .455.092.619.256l6.735 6.735a2.5 2.5 0 0 1 0 3.536l-5.215 5.215a2.5 2.5 0 0 1-3.536 0l-6.487-6.487a.875.875 0 0 1-.256-.619V6.375zm1.75.875v6.524l6.23 6.23a.75.75 0 0 0 1.061 0l5.215-5.215a.75.75 0 0 0 0-1.06L11.278 7.25H5.25z" fill="#000"/></svg>
