<!-- This Source Code Form is subject to the terms of the Mozilla Public
   - License, v. 2.0. If a copy of the MPL was not distributed with this
   - file, You can obtain one at http://mozilla.org/MPL/2.0/. -->
<svg xmlns="http://www.w3.org/2000/svg" width="24" height="24" fill="none" viewBox="0 0 24 24">
    <path fill="#000" d="M6.625 17.25a.875.875 0 0 1 0 1.75h-3.75a.875.875 0 1 1 0-1.75zm7.25 0a.875.875 0 0 1 0 1.75h-3.75a.875.875 0 1 1 0-1.75zm7.25 0a.875.875 0 0 1 0 1.75h-3.75a.875.875 0 1 1 0-1.75zM8.806 5.004c.992.066 1.757.782 1.886 1.748.413 3.09.793 4.639 1.059 5.411q.075-.188.164-.433c.3-.828.91-1.545 1.728-1.875 1.355-.546 2.82-.09 3.62 1.027l.623.87c.376.528.984.84 1.63.84h1.609a.876.876 0 0 1 0 1.75h-1.608a3.75 3.75 0 0 1-3.053-1.569l-.625-.872a1.24 1.24 0 0 0-1.207-.513 1.26 1.26 0 0 0-1.034.838c-.554 1.546-.982 2.337-1.772 2.337h-.028c-1.162-.03-1.998-1.28-2.839-7.578-.023-.17-.146-.221-.245-.232-.133-.018-.228.038-.274.16l-1.913 5.036a3.75 3.75 0 0 1-3.494 2.394h-.156l-.002-.001a.875.875 0 0 1 0-1.75h.156c.824 0 1.57-.508 1.857-1.265l1.876-4.935c.32-.845 1.14-1.448 2.042-1.388" />
</svg>
