<!-- This Source Code Form is subject to the terms of the Mozilla Public
   - License, v. 2.0. If a copy of the MPL was not distributed with this
   - file, You can obtain one at http://mozilla.org/MPL/2.0/. -->
<svg xmlns="http://www.w3.org/2000/svg" width="24" height="24" fill="none" viewBox="0 0 24 24">
    <path fill="#000" d="M11 2.004h.234c.618 0 1.212.245 1.65.682L17.31 7.1c.44.439.689 1.036.689 1.658v1.213c-.008.008-1.63 1.639-1.75 1.767v-3.25H12a1 1 0 0 1-1-1.001V3.754a29 29 0 0 0-5.129.354c-.64.105-1.121.685-1.121 1.353v13.02c0 .685.482 1.28 1.122 1.386a28.5 28.5 0 0 0 9.215.008c.28-.046.518-.189.713-.375h1.432c.211 0 .418-.038.62-.09a3.12 3.12 0 0 1-2.482 2.193 30.1 30.1 0 0 1-9.783-.007C4.087 21.349 3 20.039 3 18.482V5.462c0-1.544 1.089-2.84 2.589-3.082A30.5 30.5 0 0 1 11 2.004" />
    <path fill="#000" d="M9.66 13.008a1.25 1.25 0 0 1 1.108 1.088c.088.653.17 1.142.244 1.509a1.7 1.7 0 0 1 1.008-.517 1.69 1.69 0 0 1 1.49.551c-.001.043-.01.086-.01.129v1.91l.002.023a2 2 0 0 1-.791-.648l-.282-.396a.2.2 0 0 0-.202-.084.21.21 0 0 0-.175.142c-.194.544-.46 1.285-1.13 1.285h-.024c-.76-.019-1.145-.698-1.484-2.803l-.532 1.4a2.04 2.04 0 0 1-1.899 1.304h-.232a.75.75 0 0 1 0-1.5h.232a.53.53 0 0 0 .496-.336l.858-2.257a1.25 1.25 0 0 1 1.322-.8m12.413.822q-.72.76-1.47 1.487a46 46 0 0 1-2.786 2.476.9.9 0 0 1-.584.207h-1.91a.32.32 0 0 1-.322-.322v-1.91c0-.212.074-.42.207-.583a46 46 0 0 1 2.476-2.786q.724-.75 1.489-1.47zm-1.17-4.459a1.57 1.57 0 0 1 2.12.085l.522.522c.573.574.61 1.506.085 2.12-.224.263-.463.517-.694.775l-2.808-2.808c.259-.231.512-.47.775-.694" />
</svg>
