<!-- This Source Code Form is subject to the terms of the Mozilla Public
   - License, v. 2.0. If a copy of the MPL was not distributed with this
   - file, You can obtain one at http://mozilla.org/MPL/2.0/. -->
<svg xmlns="http://www.w3.org/2000/svg" width="24" height="24" fill="none">
    <path fill="#000" d="M17 8.405V7.5a.88.88 0 0 0-.256-.619l-4.625-4.625A.88.88 0 0 0 11.5 2h-7A2.5 2.5 0 0 0 2 4.5v14C2 19.879 3.121 21 4.5 21h10c1.379 0 2.5-1.121 2.5-2.5v-.969l-.439.438c-.342.342-.796.53-1.28.53h-.031c0 .413-.337.75-.75.75h-10a.75.75 0 0 1-.75-.75v-14c0-.413.337-.75.75-.75h6V7.5a1 1 0 0 0 1 1h3.75v1.655zm2.282-.161a.83.83 0 0 1 1.174-.004l1.27 1.272a.82.82 0 0 1 .242.586.82.82 0 0 1-.244.588l-1.05 1.05-2.441-2.443z" />
    <path fill="#000" d="m17.526 10-4.446 4.446a.3.3 0 0 0-.091.219v2.024c0 .171.139.31.31.31h1.982a.3.3 0 0 0 .219-.091l4.467-4.466zm-6.005 4.336q-.031.162-.032.329v1.772a2 2 0 0 1-.27-.297l-.284-.403c-.061-.087-.14-.092-.2-.088a.22.22 0 0 0-.181.15l-.001.003c-.205.58-.46 1.299-1.13 1.299h-.025c-.766-.018-1.151-.709-1.49-2.855l-.538 1.435a2.045 2.045 0 0 1-1.906 1.32H5v-1.5h.464c.223 0 .424-.14.502-.348l.861-2.298a1.24 1.24 0 0 1 1.322-.81c.59.068 1.038.509 1.115 1.097.088.67.172 1.172.246 1.548a1.72 1.72 0 0 1 1.02-.526 1.7 1.7 0 0 1 .991.172" />
</svg>
