<!-- This Source Code Form is subject to the terms of the Mozilla Public
   - License, v. 2.0. If a copy of the MPL was not distributed with this
   - file, You can obtain one at http://mozilla.org/MPL/2.0/. -->
<svg xmlns="http://www.w3.org/2000/svg" width="24" height="24" fill="none" viewBox="0 0 24 24">
    <path fill="#000" d="M8 18H4v-1.75h4zm6 0h-4v-1.75h4zm6 0h-4v-1.75h4zM7.747 6.985c.733-1.526 2.994-1.2 3.35.403l.03.165.182 1.258c.168 1.079.34 1.924.511 2.546.736-1.899 3.321-2.269 4.532-.58l.506.707a1.42 1.42 0 0 0 1.156.588H20v1.75h-1.986c-.959 0-1.864-.43-2.463-1.167l-.116-.152-.505-.706c-.39-.545-1.256-.43-1.488.216a10 10 0 0 1-.46 1.11 2.5 2.5 0 0 1-.296.458c-.06.072-.15.165-.271.245a1 1 0 0 1-.582.171c-.626-.015-.986-.495-1.152-.77-.197-.325-.359-.752-.5-1.233-.284-.974-.545-2.387-.788-4.209l-.004-.018-.002-.004a.1.1 0 0 0-.036-.013.1.1 0 0 0-.03.001l-.007.015-1.53 4.03a3.16 3.16 0 0 1-2.959 2.027H4v-1.75h.825c.596 0 1.119-.365 1.321-.899l1.533-4.03z" />
</svg>
