<!-- This Source Code Form is subject to the terms of the Mozilla Public
   - License, v. 2.0. If a copy of the MPL was not distributed with this
   - file, You can obtain one at http://mozilla.org/MPL/2.0/. -->
<svg width="24" height="24" fill="none" xmlns="http://www.w3.org/2000/svg">
    <path d="M17 8.405V7.5a.876.876 0 0 0-.256-.619l-4.625-4.625A.876.876 0 0 0 11.5 2h-7A2.502 2.502 0 0 0 2 4.5v14C2 19.879 3.121 21 4.5 21h10c1.379 0 2.5-1.121 2.5-2.5v-.969l-.439.438c-.342.342-.796.53-1.28.53h-.031c0 .413-.337.75-.75.75h-10a.752.752 0 0 1-.75-.75v-14c0-.413.337-.75.75-.75h6V7.5a1 1 0 0 0 1 1h3.75v1.655L17 8.405zM19.282 8.244a.832.832 0 0 1 1.174-.004l1.27 1.272a.823.823 0 0 1 .242.586.82.82 0 0 1-.244.588l-1.05 1.05-2.441-2.443 1.049-1.049z" fill="#000" />
    <path d="m17.526 10-4.446 4.446a.31.31 0 0 0-.091.219v2.024c0 .171.139.31.31.31h1.982a.31.31 0 0 0 .219-.091l4.467-4.466-2.441-2.441zM11.521 14.336c-.02.108-.032.217-.032.329v1.772a1.957 1.957 0 0 1-.27-.297l-.284-.403c-.061-.087-.14-.092-.2-.088a.218.218 0 0 0-.181.15l-.001.003c-.205.58-.46 1.299-1.13 1.299h-.025c-.766-.018-1.151-.709-1.49-2.855l-.538 1.435a2.045 2.045 0 0 1-1.906 1.32H5v-1.5h.464c.223 0 .424-.14.502-.348l.861-2.298a1.24 1.24 0 0 1 1.322-.81c.59.068 1.038.509 1.115 1.097.088.67.172 1.172.246 1.548a1.723 1.723 0 0 1 1.02-.526 1.7 1.7 0 0 1 .991.172z" fill="#000" />
</svg>
