<!-- This Source Code Form is subject to the terms of the Mozilla Public
   - License, v. 2.0. If a copy of the MPL was not distributed with this
   - file, You can obtain one at http://mozilla.org/MPL/2.0/. -->
<svg xmlns="http://www.w3.org/2000/svg" width="24" height="24" fill="none" viewBox="0 0 24 24">
    <path fill="#000" d="M11.412 9.927a1 1 0 0 1 1.176 0l1.453 1.056a1 1 0 0 1 .363 1.118l-.555 1.708a1 1 0 0 1-.95.691h-1.797a1 1 0 0 1-.95-.691L9.594 12.1a1 1 0 0 1 .364-1.118z" />
    <path fill="#000" fill-rule="evenodd" d="M12 2.125c5.454 0 9.875 4.421 9.875 9.875S17.454 21.875 12 21.875 2.125 17.454 2.125 12 6.546 2.125 12 2.125m.588 4.323a1 1 0 0 1-1.176 0L8.55 4.368a8.4 8.4 0 0 0-2.6 1.842l1.29 3.353a1 1 0 0 1-.304 1.136l-3.21 2.598c.144.924.44 1.798.86 2.597l3.13-.164a1 1 0 0 1 .986.64l1.458 3.799a8.4 8.4 0 0 0 1.84.206c.672 0 1.324-.081 1.95-.23l.937-3.496a1 1 0 0 1 .913-.74l3.707-.194a8.3 8.3 0 0 0 .792-2.596l-3.189-2.07a1 1 0 0 1-.42-1.097l1.072-4.006.021-.002a8.4 8.4 0 0 0-2.334-1.576z" clip-rule="evenodd" />
</svg>
