<!-- This Source Code Form is subject to the terms of the Mozilla Public
   - License, v. 2.0. If a copy of the MPL was not distributed with this
   - file, You can obtain one at http://mozilla.org/MPL/2.0/. -->
<svg xmlns="http://www.w3.org/2000/svg" width="24" height="24" fill="none">
    <path fill="#000" d="M5.25 16h-2a1 1 0 0 1-1-1V6a1 1 0 0 1 1-1h2a1 1 0 0 1 1 1v9a1 1 0 0 1-1 1m13.686 1a2.5 2.5 0 0 0 2.372-3.291l-2.083-6.25a2.5 2.5 0 0 0-2.372-1.709H8v9.164l2.009 3.064q.178.271.281.58l.951 2.852c.117.352.447.59.818.59h.003a1.874 1.874 0 0 0 1.875-1.875V17z" />
</svg>
