<!-- This Source Code Form is subject to the terms of the Mozilla Public
   - License, v. 2.0. If a copy of the MPL was not distributed with this
   - file, You can obtain one at http://mozilla.org/MPL/2.0/. -->
<svg width="24" height="24" fill="none" xmlns="http://www.w3.org/2000/svg"><path d="m4.837 17.376.232-1.08c.11-.512.84-.512.95 0l.232 1.08c.04.187.186.333.373.373l1.08.232c.512.11.512.84 0 .95l-1.08.232a.485.485 0 0 0-.373.373l-.232 1.08c-.11.512-.84.512-.95 0l-.232-1.08a.485.485 0 0 0-.373-.373l-1.08-.232c-.512-.11-.512-.84 0-.95l1.08-.232a.485.485 0 0 0 .373-.373zm0-12.912.232-1.08c.11-.512.84-.512.95 0l.232 1.08c.04.187.186.333.373.373l1.08.232c.512.11.512.84 0 .95l-1.08.232a.485.485 0 0 0-.373.373l-.232 1.08c-.11.512-.84.512-.95 0l-.232-1.08a.485.485 0 0 0-.373-.373l-1.08-.232c-.512-.11-.512-.84 0-.95l1.08-.232a.485.485 0 0 0 .373-.373z" fill="#000"/><path fill-rule="evenodd" clip-rule="evenodd" d="m14.16 6.981-1.034 2.623a2.707 2.707 0 0 1-1.52 1.522L8.98 12.161a.365.365 0 0 0 0 .679l2.623 1.034a2.703 2.703 0 0 1 1.522 1.522l1.034 2.623a.365.365 0 0 0 .679 0l1.034-2.623a2.703 2.703 0 0 1 1.522-1.522l2.622-1.034a.366.366 0 0 0 0-.68l-2.622-1.034a2.703 2.703 0 0 1-1.522-1.522L14.84 6.981a.365.365 0 0 0-.679 0zm-1.628-.642c.704-1.786 3.23-1.786 3.935 0l1.034 2.623c.097.245.29.44.536.536l2.622 1.034c1.786.704 1.786 3.232 0 3.936l-2.622 1.034a.952.952 0 0 0-.536.536l-1.034 2.623c-.704 1.785-3.23 1.786-3.935 0l-1.034-2.623a.952.952 0 0 0-.536-.536L8.34 14.468c-1.785-.704-1.786-3.23 0-3.935L10.96 9.5a.959.959 0 0 0 .538-.538l1.034-2.623z" fill="#000"/></svg>
