<!-- This Source Code Form is subject to the terms of the Mozilla Public
   - License, v. 2.0. If a copy of the MPL was not distributed with this
   - file, You can obtain one at http://mozilla.org/MPL/2.0/. -->
<svg xmlns="http://www.w3.org/2000/svg" width="24" height="24" fill="none" viewBox="0 0 24 24">
    <path fill="#000" d="M5.029 16.316a.51.51 0 0 1 .943 0q.05.12.098.246.152.41.245.768a.51.51 0 0 0 .37.358 7.4 7.4 0 0 1 .995.337c.426.179.43.77.003.95q-.15.062-.308.121a8 8 0 0 1-.693.217.5.5 0 0 0-.367.355 8 8 0 0 1-.266.824q-.038.1-.078.194a.51.51 0 0 1-.941 0l-.078-.194a8 8 0 0 1-.266-.824.5.5 0 0 0-.367-.355 7.5 7.5 0 0 1-1.001-.339.513.513 0 0 1 .003-.95 7.4 7.4 0 0 1 .996-.336.5.5 0 0 0 .37-.357 8 8 0 0 1 .342-1.015" />
    <path fill="#000" fill-rule="evenodd" d="M12.444 5.375c.766-1.835 3.347-1.833 4.113 0a21 21 0 0 1 .947 2.804l.017.052a.48.48 0 0 0 .334.27 21 21 0 0 1 2.757.933h.002c1.833.77 1.86 3.35.007 4.128h-.001q-.412.173-.853.336c-.67.247-1.313.444-1.914.601-.196.052-.313.183-.349.317-.183.704-.422 1.47-.734 2.277v.002q-.106.271-.216.534v.002c-.763 1.824-3.344 1.826-4.107 0l-.001-.002a21.5 21.5 0 0 1-.95-2.812.47.47 0 0 0-.347-.318 21 21 0 0 1-2.768-.937c-1.852-.777-1.827-3.359.006-4.128a20 20 0 0 1 2.757-.933.47.47 0 0 0 .354-.322 21 21 0 0 1 .946-2.804m2.499.674a.476.476 0 0 0-.885 0q-.127.305-.247.622v.002c-.26.689-.462 1.343-.62 1.949l-.001.001c-.212.809-.855 1.376-1.602 1.572a19 19 0 0 0-1.66.515v.001q-.224.082-.44.165l-.424.172a.482.482 0 0 0-.009.9q.38.159.784.308a19 19 0 0 0 1.753.551c.744.195 1.387.76 1.598 1.567a20 20 0 0 0 .872 2.582c.163.39.712.392.877 0l.2-.495c.285-.74.504-1.441.672-2.086.211-.808.854-1.373 1.598-1.568l.42-.115a19 19 0 0 0 1.333-.436l.397-.152.386-.156a.482.482 0 0 0-.008-.9 19 19 0 0 0-.863-.337h-.001a19 19 0 0 0-1.66-.516c-.749-.196-1.39-.765-1.602-1.572a20 20 0 0 0-.621-1.95z" clip-rule="evenodd" />
    <path fill="#000" d="M5.029 3.316a.51.51 0 0 1 .943 0q.05.12.098.246.152.41.245.769a.51.51 0 0 0 .37.357 7.4 7.4 0 0 1 .995.337c.426.179.43.77.003.95q-.15.062-.308.121a8 8 0 0 1-.693.217.5.5 0 0 0-.367.355 8 8 0 0 1-.266.824q-.038.1-.078.194a.51.51 0 0 1-.941 0l-.078-.194a8 8 0 0 1-.266-.824.5.5 0 0 0-.367-.355 7.5 7.5 0 0 1-1.001-.339.513.513 0 0 1 .003-.95 7.4 7.4 0 0 1 .996-.336.5.5 0 0 0 .37-.357 8 8 0 0 1 .342-1.015" />
</svg>
