<!-- This Source Code Form is subject to the terms of the Mozilla Public
   - License, v. 2.0. If a copy of the MPL was not distributed with this
   - file, You can obtain one at http://mozilla.org/MPL/2.0/. -->
<svg xmlns="http://www.w3.org/2000/svg" width="24" height="24" fill="none">
    <path fill="#000" fill-rule="evenodd" d="M4.5 7.75a.75.75 0 0 0-.75.75v7c0 .414.336.75.75.75h15a.75.75 0 0 0 .75-.75v-7a.75.75 0 0 0-.75-.75zM2 8.5A2.5 2.5 0 0 1 4.5 6h15A2.5 2.5 0 0 1 22 8.5v7a2.5 2.5 0 0 1-2.5 2.5h-15A2.5 2.5 0 0 1 2 15.5z" clip-rule="evenodd" />
    <path fill="#000" d="M8.5 10.75H6v2.5h2.5z" />
</svg>
