<!-- This Source Code Form is subject to the terms of the Mozilla Public
   - License, v. 2.0. If a copy of the MPL was not distributed with this
   - file, You can obtain one at http://mozilla.org/MPL/2.0/. -->
<svg xmlns="http://www.w3.org/2000/svg" width="24" height="24" fill="none" viewBox="0 0 24 24">
    <path fill="#000" d="M7.25 10.5a1.25 1.25 0 1 1 0 2.5 1.25 1.25 0 0 1 0-2.5" />
    <path fill="#000" fill-rule="evenodd" d="M3.256 2.255a.876.876 0 0 1 1.238 0l3.858 3.858h.002l1.67 1.67h-.002l12.722 12.723a.876.876 0 0 1-1.238 1.238l-4.01-4.011A57 57 0 0 1 12 18c-2.418 0-4.862-.157-7.262-.466A3.145 3.145 0 0 1 2 14.426v-4.86c0-1.568 1.164-2.903 2.708-3.103q.678-.087 1.36-.157L3.255 3.494a.876.876 0 0 1 0-1.239M7.68 7.918q-1.381.106-2.747.283A1.37 1.37 0 0 0 3.75 9.566v4.86c0 .692.521 1.281 1.212 1.37a55 55 0 0 0 10.892.295z" clip-rule="evenodd" />
    <path fill="#000" d="M10.384 6.024a57 57 0 0 1 8.877.438 3.144 3.144 0 0 1 2.738 3.106v4.861c0 .878-.374 1.675-.967 2.248l-1.241-1.242c.276-.254.459-.605.459-1.006V9.568c0-.692-.521-1.281-1.212-1.37a55 55 0 0 0-6.93-.45z" />
</svg>
