<!-- This Source Code Form is subject to the terms of the Mozilla Public
   - License, v. 2.0. If a copy of the MPL was not distributed with this
   - file, You can obtain one at http://mozilla.org/MPL/2.0/. -->
<svg xmlns="http://www.w3.org/2000/svg" width="24" height="24" fill="none">
    <path fill="#000" d="M6 11h2.25v2.25H6z" />
    <path fill="#000" fill-rule="evenodd" d="M22 20.752 3.238 1.99 2 3.228 4.773 6H4.5A2.5 2.5 0 0 0 2 8.5v7C2 16.879 3.121 18 4.5 18h12.273l3.99 3.99zm-6.977-4.502-8.5-8.5H4.5a.75.75 0 0 0-.75.75v7c0 .413.337.75.75.75z" clip-rule="evenodd" />
    <path fill="#000" d="M11.109 7.75H19.5c.413 0 .75.337.75.75v7a.744.744 0 0 1-.659.732l1.325 1.325A2.5 2.5 0 0 0 22 15.5v-7C22 7.121 20.879 6 19.5 6H9.359z" />
</svg>
