<!-- This Source Code Form is subject to the terms of the Mozilla Public
   - License, v. 2.0. If a copy of the MPL was not distributed with this
   - file, You can obtain one at http://mozilla.org/MPL/2.0/. -->
<svg xmlns="http://www.w3.org/2000/svg" width="24" height="24" fill="none" viewBox="0 0 24 24">
    <path fill="#000" d="M12 18.362c.483 0 .875.392.875.875v1.888a.875.875 0 0 1-1.75 0v-1.888c0-.483.392-.875.875-.875m-5.736-1.864a.876.876 0 0 1 1.238 1.238l-1.335 1.335a.876.876 0 0 1-1.238-1.238zm10.234 0a.876.876 0 0 1 1.238 0l1.335 1.335a.876.876 0 0 1-1.238 1.238l-1.335-1.335a.876.876 0 0 1 0-1.238" />
    <path fill="#000" fill-rule="evenodd" d="M12 7.25a4.75 4.75 0 1 1 0 9.5 4.75 4.75 0 0 1 0-9.5M12 9a3 3 0 1 0 0 6 3 3 0 0 0 0-6" clip-rule="evenodd" />
    <path fill="#000" d="M4.763 11.125a.875.875 0 0 1 0 1.75H2.875a.875.875 0 0 1 0-1.75zm16.362 0a.875.875 0 0 1 0 1.75h-1.888a.875.875 0 0 1 0-1.75zM4.929 4.929a.876.876 0 0 1 1.238 0l1.335 1.335a.876.876 0 0 1-1.238 1.238L4.929 6.167a.876.876 0 0 1 0-1.238m12.904 0a.876.876 0 0 1 1.238 1.238l-1.335 1.335a.876.876 0 0 1-1.238-1.238zM12 2c.483 0 .875.392.875.875v1.888a.875.875 0 0 1-1.75 0V2.875c0-.483.392-.875.875-.875" />
</svg>
