<!-- This Source Code Form is subject to the terms of the Mozilla Public
   - License, v. 2.0. If a copy of the MPL was not distributed with this
   - file, You can obtain one at http://mozilla.org/MPL/2.0/. -->
<svg xmlns="http://www.w3.org/2000/svg" width="24" height="24" fill="none" viewBox="0 0 24 24">
    <path fill="#000" d="M12 18.362c.483 0 .875.392.875.875v1.888a.875.875 0 0 1-1.75 0v-1.888c0-.483.392-.875.875-.875m-5.736-1.864a.876.876 0 0 1 1.238 1.238l-1.335 1.335a.876.876 0 0 1-1.238-1.238zm10.234 0a.876.876 0 0 1 1.238 0l1.335 1.335a.876.876 0 0 1-1.238 1.238l-1.335-1.335a.876.876 0 0 1 0-1.238M12 7.5c2.481 0 4.5 2.019 4.5 4.5s-2.019 4.5-4.5 4.5A4.505 4.505 0 0 1 7.5 12c0-2.481 2.019-4.5 4.5-4.5m-7.237 3.625a.875.875 0 0 1 0 1.75H2.875a.875.875 0 0 1 0-1.75zm16.362 0a.875.875 0 0 1 0 1.75h-1.888a.875.875 0 0 1 0-1.75zM4.929 4.929a.876.876 0 0 1 1.238 0l1.335 1.335a.876.876 0 0 1-1.238 1.238L4.929 6.167a.876.876 0 0 1 0-1.238m12.904 0a.876.876 0 0 1 1.238 1.238l-1.335 1.335a.876.876 0 0 1-1.238-1.238zM12 2c.483 0 .875.392.875.875v1.888a.875.875 0 0 1-1.75 0V2.875c0-.483.392-.875.875-.875" />
</svg>
