<!-- This Source Code Form is subject to the terms of the Mozilla Public
   - License, v. 2.0. If a copy of the MPL was not distributed with this
   - file, You can obtain one at http://mozilla.org/MPL/2.0/. -->
<svg xmlns="http://www.w3.org/2000/svg" width="24" height="24" fill="none" viewBox="0 0 24 24">
    <path fill="#000" d="M6.927 13.061A.628.628 0 0 1 8 13.504V16h7.126a.876.876 0 0 1 0 1.75H8v2.496c0 .559-.677.84-1.073.444l-3.37-3.37a.63.63 0 0 1 0-.889zM16 3.753a.629.629 0 0 1 1.073-.443l3.37 3.37a.63.63 0 0 1 0 .889l-3.37 3.37A.629.629 0 0 1 16 10.495V8H8.875a.875.875 0 0 1 0-1.75H16z" />
</svg>
