<svg width="24" height="24" viewBox="0 0 24 24" fill="none" xmlns="http://www.w3.org/2000/svg">
<path d="M6.927 13.0611C7.3229 12.6652 7.99992 12.9447 8.00024 13.5044V15.9996H15.1262C15.609 15.9997 16.0011 16.3918 16.0012 16.8746C16.0012 17.3575 15.6081 17.7494 15.1252 17.7496H8.00024V20.2456C8.00024 20.8046 7.32301 21.0859 6.927 20.69L3.55688 17.3199C3.31203 17.0739 3.31216 16.6762 3.55688 16.4312L6.927 13.0611Z" fill="black"/>
<path d="M16.0002 3.75346C16.0005 3.19471 16.6776 2.91419 17.0735 3.3101L20.4426 6.68022C20.6876 6.92622 20.6876 7.32389 20.4426 7.56889L17.0735 10.939C16.6775 11.335 16.0002 11.0547 16.0002 10.4947V7.99955H8.87524C8.39224 7.99955 8.00024 7.60755 8.00024 7.12455C8.00039 6.64168 8.39233 6.24955 8.87524 6.24955H16.0002V3.75346Z" fill="black"/>
</svg>
