<svg width="24" height="24" fill="none" xmlns="http://www.w3.org/2000/svg"><path d="M4.75 12.03c0-3.998 3.252-7.25 7.25-7.25.028 0 .055.006.083.006v2.163c0 .49.592.735.939.389l2.949-2.949a.55.55 0 0 0 0-.778L13.022.662a.55.55 0 0 0-.939.389v1.985c-.028 0-.055-.006-.083-.006-4.963 0-9 4.037-9 9a8.983 8.983 0 0 0 3.236 6.904L7.48 17.69a7.239 7.239 0 0 1-2.73-5.66zM17.727 5.093l-1.248 1.248a7.237 7.237 0 0 1 2.771 5.69c0 3.998-3.252 7.25-7.25 7.25-.028 0-.055-.006-.083-.007v-2.223a.55.55 0 0 0-.939-.389l-2.949 2.949a.55.55 0 0 0 0 .778l2.949 2.949a.55.55 0 0 0 .939-.389v-1.922c.028 0 .055.003.083.003 4.963 0 9-4.037 9-9a8.984 8.984 0 0 0-3.273-6.937z" fill="#000"/></svg>