<!-- This Source Code Form is subject to the terms of the Mozilla Public
   - License, v. 2.0. If a copy of the MPL was not distributed with this
   - file, You can obtain one at http://mozilla.org/MPL/2.0/. -->
<svg xmlns="http://www.w3.org/2000/svg" width="24" height="24" fill="none" viewBox="0 0 24 24">
    <path fill="#000" fill-rule="evenodd" d="M21.5 10a2.5 2.5 0 0 1 2.5 2.5v8a2.5 2.5 0 0 1-2.5 2.5H17a2.5 2.5 0 0 1-2.5-2.5v-8A2.5 2.5 0 0 1 17 10zM17 11.75a.75.75 0 0 0-.75.75v7.75h6V12.5a.75.75 0 0 0-.75-.75z" clip-rule="evenodd" />
    <path fill="#000" d="M18.275 2a2.5 2.5 0 0 1 2.5 2.5v3.75h-1.75V4.5a.75.75 0 0 0-.75-.75H4.75A.75.75 0 0 0 4 4.5v9.75c0 .414.336.75.75.75h8v3H0v-1.75h3.255a2.5 2.5 0 0 1-1.005-2V4.5A2.5 2.5 0 0 1 4.75 2z" />
</svg>
