<!-- This Source Code Form is subject to the terms of the Mozilla Public
   - License, v. 2.0. If a copy of the MPL was not distributed with this
   - file, You can obtain one at http://mozilla.org/MPL/2.0/. -->
<svg xmlns="http://www.w3.org/2000/svg" width="24" height="24" fill="none" viewBox="0 0 24 24">
    <path fill="#000" fill-rule="evenodd" d="M19.25 10q1.07.002 2.037.066c1.507.1 2.713 1.332 2.713 2.872v7.121c0 1.495-1.153 2.768-2.665 2.87a31 31 0 0 1-4.122.004c-1.507-.1-2.713-1.331-2.713-2.872V12.94c0-1.495 1.153-2.768 2.665-2.87.74-.05 1.437-.07 2.085-.07m0 1.75c-.611 0-1.27.02-1.968.066a1.123 1.123 0 0 0-1.032 1.124V19h6v-6.062c0-.59-.46-1.084-1.077-1.125a29 29 0 0 0-1.923-.063" clip-rule="evenodd" />
    <path fill="#000" d="M3.665 2.447a45.4 45.4 0 0 1 12.64-.005A3.144 3.144 0 0 1 19 5.542v2.967c-.58.005-1.166.03-1.75.067V5.542c0-.683-.51-1.272-1.189-1.368A44 44 0 0 0 10 3.751c-2.029 0-4.078.145-6.09.43a1.37 1.37 0 0 0-1.16 1.358v6.92c0 .684.51 1.272 1.188 1.368a43.8 43.8 0 0 0 9.062.316v2.733H.875a.875.875 0 0 1 0-1.75h1.637A3.14 3.14 0 0 1 1 12.46V5.539c0-1.55 1.145-2.878 2.665-3.092" />
</svg>
