<!-- This Source Code Form is subject to the terms of the Mozilla Public
   - License, v. 2.0. If a copy of the MPL was not distributed with this
   - file, You can obtain one at http://mozilla.org/MPL/2.0/. -->
<svg width="24" height="24" fill="none" xmlns="http://www.w3.org/2000/svg">
    <path fill-rule="evenodd" clip-rule="evenodd" d="M2 6.5A2.5 2.5 0 0 1 4.5 4h15A2.5 2.5 0 0 1 22 6.5v10a2.5 2.5 0 0 1-2.5 2.5h-15A2.5 2.5 0 0 1 2 16.5v-10zm2.5-.75a.75.75 0 0 0-.75.75v10c0 .414.336.75.75.75h15a.75.75 0 0 0 .75-.75v-10a.75.75 0 0 0-.75-.75h-15z" fill="#000" />
    <path d="M8.641 15.1c1.64 0 2.82-.878 2.823-2.057-.003-.909-.703-1.651-1.576-1.797v-.05a1.633 1.633 0 0 0 1.306-1.611c-.003-1.126-1.083-1.957-2.553-1.957-1.473 0-2.553.83-2.55 1.957a1.615 1.615 0 0 0 1.307 1.612v.05c-.887.145-1.58.887-1.576 1.796C5.818 14.223 7 15.1 8.642 15.1zm0-1.13c-.731 0-1.221-.433-1.221-1.047 0-.629.515-1.084 1.221-1.084.703 0 1.222.455 1.222 1.084 0 .617-.494 1.047-1.222 1.047zm0-3.25c-.614 0-1.05-.4-1.05-.976 0-.568.429-.958 1.05-.958.618 0 1.051.394 1.051.958 0 .576-.44.977-1.05.977zm6.712 4.38c1.64 0 2.82-.878 2.823-2.057-.004-.909-.703-1.651-1.577-1.797v-.05a1.633 1.633 0 0 0 1.307-1.611c-.004-1.126-1.083-1.957-2.553-1.957-1.474 0-2.554.83-2.55 1.957a1.615 1.615 0 0 0 1.307 1.612v.05c-.888.145-1.58.887-1.577 1.796-.004 1.18 1.179 2.056 2.82 2.056zm0-1.13c-.732 0-1.222-.433-1.222-1.047 0-.629.515-1.084 1.222-1.084.703 0 1.221.455 1.221 1.084 0 .617-.494 1.047-1.221 1.047zm0-3.25c-.615 0-1.052-.4-1.052-.976 0-.568.43-.958 1.052-.958.617 0 1.05.394 1.05.958 0 .576-.44.977-1.05.977z" fill="#000" />
</svg>
