<!-- This Source Code Form is subject to the terms of the Mozilla Public
   - License, v. 2.0. If a copy of the MPL was not distributed with this
   - file, You can obtain one at http://mozilla.org/MPL/2.0/. -->
<svg xmlns="http://www.w3.org/2000/svg" width="24" height="24" fill="none" viewBox="0 0 24 24">
    <path fill="#000" fill-rule="evenodd" d="M9.045 13.455a2.5 2.5 0 0 1 2.5 2.5V18.5a2.5 2.5 0 0 1-2.5 2.5H6.5A2.5 2.5 0 0 1 4 18.5v-2.545a2.5 2.5 0 0 1 2.5-2.5zM6.5 15.205a.75.75 0 0 0-.75.75V18.5c0 .414.336.75.75.75h2.545a.75.75 0 0 0 .75-.75v-2.545a.75.75 0 0 0-.75-.75zm12-1.75a2.5 2.5 0 0 1 2.5 2.5V18.5a2.5 2.5 0 0 1-2.5 2.5h-2.545a2.5 2.5 0 0 1-2.5-2.5v-2.545a2.5 2.5 0 0 1 2.5-2.5zm-2.545 1.75a.75.75 0 0 0-.75.75V18.5c0 .414.336.75.75.75H18.5a.75.75 0 0 0 .75-.75v-2.545a.75.75 0 0 0-.75-.75zM9.045 4a2.5 2.5 0 0 1 2.5 2.5v2.545a2.5 2.5 0 0 1-2.5 2.5H6.5a2.5 2.5 0 0 1-2.5-2.5V6.5A2.5 2.5 0 0 1 6.5 4zM6.5 5.75a.75.75 0 0 0-.75.75v2.545c0 .414.336.75.75.75h2.545a.75.75 0 0 0 .75-.75V6.5a.75.75 0 0 0-.75-.75zM18.5 4A2.5 2.5 0 0 1 21 6.5v2.545a2.5 2.5 0 0 1-2.5 2.5h-2.545a2.5 2.5 0 0 1-2.5-2.5V6.5a2.5 2.5 0 0 1 2.5-2.5zm-2.545 1.75a.75.75 0 0 0-.75.75v2.545c0 .414.336.75.75.75H18.5a.75.75 0 0 0 .75-.75V6.5a.75.75 0 0 0-.75-.75z" clip-rule="evenodd" />
</svg>
