<!-- This Source Code Form is subject to the terms of the Mozilla Public
   - License, v. 2.0. If a copy of the MPL was not distributed with this
   - file, You can obtain one at http://mozilla.org/MPL/2.0/. -->
<svg xmlns="http://www.w3.org/2000/svg" width="24" height="24" fill="none" viewBox="0 0 24 24">
    <path fill="#000" d="M2 16.429V8.57a3.12 3.12 0 0 1 2.708-3.1h.001a56.8 56.8 0 0 1 14.554-.004A3.14 3.14 0 0 1 22 8.572v7.858a3.12 3.12 0 0 1-2.708 3.1h-.001a56.8 56.8 0 0 1-14.554.004A3.14 3.14 0 0 1 2 16.43m1.75 0c0 .69.519 1.28 1.21 1.369a55 55 0 0 0 14.106-.004 1.37 1.37 0 0 0 1.184-1.364V8.572c0-.69-.519-1.28-1.21-1.369a55 55 0 0 0-14.106.004A1.37 1.37 0 0 0 3.75 8.571z" />
    <path fill="#000" d="M8.641 16.3c-1.64 0-2.823-.878-2.82-2.057-.003-.909.69-1.651 1.577-1.797v-.05a1.615 1.615 0 0 1-1.306-1.612c-.004-1.125 1.076-1.956 2.55-1.956 1.47 0 2.549.83 2.553 1.957a1.63 1.63 0 0 1-1.307 1.612v.05c.873.145 1.573.887 1.576 1.796-.003 1.18-1.182 2.056-2.823 2.056m0-1.13c.728 0 1.222-.43 1.222-1.047 0-.629-.519-1.084-1.222-1.084-.706 0-1.221.455-1.221 1.084 0 .614.49 1.047 1.221 1.047m0-3.25c.611 0 1.051-.4 1.051-.976 0-.564-.433-.959-1.05-.959-.622 0-1.052.391-1.052.96 0 .575.437.976 1.051.976m6.712 4.38c-1.641 0-2.824-.878-2.82-2.057-.004-.909.689-1.651 1.577-1.797v-.05a1.615 1.615 0 0 1-1.307-1.612c-.004-1.125 1.076-1.956 2.55-1.956 1.47 0 2.55.83 2.553 1.957a1.63 1.63 0 0 1-1.307 1.612v.05c.874.145 1.573.887 1.577 1.796-.004 1.18-1.183 2.056-2.823 2.056m0-1.13c.728 0 1.221-.43 1.221-1.047 0-.629-.518-1.084-1.221-1.084-.707 0-1.222.455-1.222 1.084 0 .614.49 1.047 1.222 1.047m0-3.25c.61 0 1.05-.4 1.05-.976 0-.564-.432-.959-1.05-.959-.622 0-1.052.391-1.052.96 0 .575.437.976 1.052.976" />
</svg>
