<!-- This Source Code Form is subject to the terms of the Mozilla Public
   - License, v. 2.0. If a copy of the MPL was not distributed with this
   - file, You can obtain one at http://mozilla.org/MPL/2.0/. -->
<svg xmlns="http://www.w3.org/2000/svg" width="24" height="24" fill="none" viewBox="0 0 24 24">
    <path fill="#000" d="M15.25 9.999a.875.875 0 0 1 0 1.75H11a.875.875 0 0 1 0-1.75z" />
    <path fill="#000" fill-rule="evenodd" d="M8.74 3.369c2.881-.49 5.859-.492 8.734-.006a3.01 3.01 0 0 1 2.525 2.964v9.09a2.99 2.99 0 0 1-2.33 2.926 2.98 2.98 0 0 1-2.41 2.287 26.2 26.2 0 0 1-8.733.006A3.01 3.01 0 0 1 4 17.67V8.58a2.99 2.99 0 0 1 2.328-2.926A2.985 2.985 0 0 1 8.74 3.37m4.385 1.13c-1.38 0-2.77.118-4.133.349A1.496 1.496 0 0 0 7.75 6.329v9.09c0 .737.536 1.361 1.275 1.486 2.71.458 5.518.456 8.232-.005a1.496 1.496 0 0 0 1.242-1.481V6.327c0-.736-.536-1.36-1.275-1.485a24.7 24.7 0 0 0-4.1-.344z" clip-rule="evenodd" />
</svg>
