<!-- This Source Code Form is subject to the terms of the Mozilla Public
   - License, v. 2.0. If a copy of the MPL was not distributed with this
   - file, You can obtain one at http://mozilla.org/MPL/2.0/. -->
<svg xmlns="http://www.w3.org/2000/svg" width="24" height="24" fill="none" viewBox="0 0 24 24">
    <path fill="#000" d="M5.5 7.75a.75.75 0 0 0-.75.75v11c0 .414.336.75.75.75h9a.75.75 0 0 0 .75-.75H17a2.5 2.5 0 0 1-2.5 2.5h-9A2.5 2.5 0 0 1 3 19.5v-11A2.5 2.5 0 0 1 5.5 6z" />
    <path fill="#000" d="M17.5 7.738 15.237 10l2.263 2.263-.62.618-.617.619L14 11.237 11.738 13.5 10.5 12.263 12.762 10 10.5 7.738 11.738 6.5 14 8.762 16.263 6.5z" />
    <path fill="#000" fill-rule="evenodd" d="M18.5 2A2.5 2.5 0 0 1 21 4.5v11a2.5 2.5 0 0 1-2.5 2.5h-9A2.5 2.5 0 0 1 7 15.5v-11A2.5 2.5 0 0 1 9.5 2zm-9 1.75a.75.75 0 0 0-.75.75v11c0 .414.336.75.75.75h9a.75.75 0 0 0 .75-.75v-11a.75.75 0 0 0-.75-.75z" clip-rule="evenodd" />
</svg>
