<!-- This Source Code Form is subject to the terms of the Mozilla Public
   - License, v. 2.0. If a copy of the MPL was not distributed with this
   - file, You can obtain one at http://mozilla.org/MPL/2.0/. -->
<svg xmlns="http://www.w3.org/2000/svg" width="24" height="24" fill="none" viewBox="0 0 24 24">
    <path fill="#000" d="M11.506 11.256a.876.876 0 0 1 1.238 1.238L11.238 14l1.506 1.506a.876.876 0 0 1-1.238 1.238L10 15.238l-1.506 1.506a.876.876 0 0 1-1.238-1.238L8.762 14l-1.506-1.506a.876.876 0 0 1 1.238-1.238L10 12.762z" />
    <path fill="#000" fill-rule="evenodd" d="M10 6c1.647 0 3.128.156 4.405.373A3.12 3.12 0 0 1 17 9.456v9.089a3.12 3.12 0 0 1-2.595 3.083 26.3 26.3 0 0 1-8.81 0A3.12 3.12 0 0 1 3 18.545V9.454C3 7.908 4.13 6.62 5.63 6.367A26.3 26.3 0 0 1 10 6.001m0 1.75c-1.128 0-2.515.08-4.078.343a1.39 1.39 0 0 0-1.172 1.36v9.09a1.37 1.37 0 0 0 1.138 1.358 24.5 24.5 0 0 0 8.224 0 1.37 1.37 0 0 0 1.138-1.357V9.456a1.37 1.37 0 0 0-1.138-1.357A24.5 24.5 0 0 0 10 7.75" clip-rule="evenodd" />
    <path fill="#000" d="M9.63 2.364a26.4 26.4 0 0 1 8.775.006A3.115 3.115 0 0 1 21 5.454v9.09c0 1.41-.93 2.61-2.25 2.993v-1.953c.3-.254.5-.62.5-1.04v-9.09a1.37 1.37 0 0 0-1.138-1.358A24.6 24.6 0 0 0 9.92 4.09c-.18.03-.344.097-.492.185q-1.127.021-2.245.133A3.14 3.14 0 0 1 9.63 2.364" />
</svg>
