<!-- This Source Code Form is subject to the terms of the Mozilla Public
   - License, v. 2.0. If a copy of the MPL was not distributed with this
   - file, You can obtain one at http://mozilla.org/MPL/2.0/. -->
<svg xmlns="http://www.w3.org/2000/svg" width="24" height="24" fill="none" viewBox="0 0 24 24">
    <path fill="#000" fill-rule="evenodd" d="M12 2c1.529 0 3.417.116 5.545.508a2.385 2.385 0 0 1 1.955 2.34v7.092a3.125 3.125 0 0 1-2.423 3.044l-.02.007-2.06.46-.016 3.935A2.625 2.625 0 0 1 12.356 22h-.708a2.626 2.626 0 0 1-2.612-2.346l-.014-.267-.02-3.936-2.059-.46a3.126 3.126 0 0 1-2.443-3.05V4.85c0-1.135.8-2.126 1.932-2.336A30.5 30.5 0 0 1 12 2m-5.75 9.941c0 .644.447 1.202 1.075 1.342l2.741.614.144.044a.88.88 0 0 1 .54.805l.023 4.633.003.09c.047.439.42.781.872.781h.708c.482 0 .873-.39.875-.872l.019-4.632a.875.875 0 0 1 .684-.85l2.73-.61.01-.004a1.376 1.376 0 0 0 1.076-1.342V11H6.25zm1.846-7.923q-.707.097-1.344.215a.62.62 0 0 0-.502.616V9.25h11.5V4.848a.635.635 0 0 0-.523-.62q-.484-.089-.952-.158l-.171.165-1.598 1.495a1 1 0 0 1-1.39-.023L12.04 4.631h-.831l-.724.603a1 1 0 0 1-1.384-.1z" clip-rule="evenodd" />
</svg>
