<!-- This Source Code Form is subject to the terms of the Mozilla Public
   - License, v. 2.0. If a copy of the MPL was not distributed with this
   - file, You can obtain one at http://mozilla.org/MPL/2.0/. -->
<svg width="24" height="24" fill="none" xmlns="http://www.w3.org/2000/svg">
    <path fill-rule="evenodd" clip-rule="evenodd" d="M18 10V3.5c0-.28-.22-.5-.5-.5h-11c-.28 0-.5.22-.5.5V10H5c-.28 0-.5.22-.5.5v3A2.5 2.5 0 0 0 7 16h3v4.5c0 .83.67 1.5 1.5 1.5h1c.83 0 1.5-.67 1.5-1.5V16h3a2.5 2.5 0 0 0 2.5-2.5v-3c0-.28-.22-.5-.5-.5h-1zM7.75 10h8.51V5.37h-.57l-1.22 1.14c-.37.35-.94.34-1.3-.02l-1.12-1.12h-.83l-.77.64c-.39.33-.96.28-1.3-.09L8.09 4.75h-.34V10z" fill="#000" />
</svg>
