<svg width="24" height="24" viewBox="0 0 24 24" fill="none" xmlns="http://www.w3.org/2000/svg">
<path d="M5.25 15H3.25C2.698 15 2.25 14.552 2.25 14V5C2.25 4.448 2.698 4 3.25 4H5.25C5.802 4 6.25 4.448 6.25 5V14C6.25 14.552 5.802 15 5.25 15Z" fill="black"/>
<path d="M18.936 16C20.642 16 21.847 14.328 21.308 12.709L19.225 6.459C18.885 5.438 17.929 4.75 16.853 4.75H8V13.914L10.009 16.978C10.127 17.158 10.222 17.353 10.29 17.558L11.241 20.41C11.358 20.762 11.688 21 12.059 21H12.062C13.098 21 13.937 20.161 13.937 19.125V16H18.936Z" fill="black"/>
</svg>
