<!-- This Source Code Form is subject to the terms of the Mozilla Public
   - License, v. 2.0. If a copy of the MPL was not distributed with this
   - file, You can obtain one at http://mozilla.org/MPL/2.0/. -->
<svg xmlns="http://www.w3.org/2000/svg" width="24" height="24" fill="none" viewBox="0 0 24 24">
    <path fill="#000" d="M4.928 10.428c.286 0 .553.021.798.054a1.295 1.295 0 0 1 1.131 1.28v8.905c0 .64-.474 1.19-1.107 1.277a6 6 0 0 1-1.62.003A1.295 1.295 0 0 1 3 20.667v-8.905c0-.64.475-1.189 1.107-1.277.318-.044.597-.057.82-.057m8.15-6.427c.825 0 1.494.67 1.494 1.494v3.783a36 36 0 0 1 5.265-.074c1.54.09 2.678 1.48 2.41 2.998a21.3 21.3 0 0 1-2.608 7.08c-.425.724-1.18 1.173-2.016 1.247a48 48 0 0 1-9.158-.068V11.29l2.067-3.152q.184-.28.29-.597l.838-2.518a1.49 1.49 0 0 1 1.418-1.022" />
</svg>
