<!-- This Source Code Form is subject to the terms of the Mozilla Public
   - License, v. 2.0. If a copy of the MPL was not distributed with this
   - file, You can obtain one at http://mozilla.org/MPL/2.0/. -->
<svg xmlns="http://www.w3.org/2000/svg" width="24" height="24" fill="none" viewBox="0 0 24 24">
    <path fill="#000" fill-rule="evenodd" d="M12.342 2.5a2.64 2.64 0 0 1 2.635 2.636v2.352a38 38 0 0 1 4.088.005A3.12 3.12 0 0 1 22 10.528a12.12 12.12 0 0 1-2.743 7.928 3.1 3.1 0 0 1-2.07 1.135 78 78 0 0 1-5.42.409H6.914A1.5 1.5 0 0 1 5.5 21h-2A1.5 1.5 0 0 1 2 19.5V10a1.5 1.5 0 0 1 1.5-1.5h2a1.5 1.5 0 0 1 1.47 1.197l.436-.012a20.2 20.2 0 0 0 2.6-5.732c.338-.899 1.14-1.453 2.021-1.453zm-.316 1.75c-.158 0-.302.1-.357.246a21.5 21.5 0 0 1-1.406 3.702A22 22 0 0 1 8.6 11.042a.87.87 0 0 1-.692.378L7 11.448v6.802h4.73a77 77 0 0 0 5.262-.4c.352-.038.674-.218.908-.503a10.34 10.34 0 0 0 2.348-6.784 1.36 1.36 0 0 0-1.28-1.322 38 38 0 0 0-2.078-.055 37 37 0 0 0-2.721.107.87.87 0 0 1-.942-.872V5.136a.887.887 0 0 0-.886-.886z" clip-rule="evenodd" />
</svg>
