<!-- This Source Code Form is subject to the terms of the Mozilla Public
   - License, v. 2.0. If a copy of the MPL was not distributed with this
   - file, You can obtain one at http://mozilla.org/MPL/2.0/. -->
<svg width="24" height="24" viewBox="0 0 24 24" fill="none" xmlns="http://www.w3.org/2000/svg">
    <path d="M21.308 11.291C21.847 9.672 20.642 8 18.936 8H13.937V4.875C13.937 3.839 13.098 3 12.062 3H12.059C11.688 3 11.358 3.238 11.241 3.59L10.29 6.442C10.222 6.647 10.127 6.842 10.009 7.022L8 10.086V19.25H16.853C17.929 19.25 18.885 18.562 19.225 17.541L21.308 11.291Z" fill="black" />
    <path d="M3.25 9H5.25C5.802 9 6.25 9.448 6.25 10V19C6.25 19.552 5.802 20 5.25 20H3.25C2.698 20 2.25 19.552 2.25 19V10C2.25 9.448 2.698 9 3.25 9Z" fill="black" />
</svg>
