<!-- This Source Code Form is subject to the terms of the Mozilla Public
   - License, v. 2.0. If a copy of the MPL was not distributed with this
   - file, You can obtain one at http://mozilla.org/MPL/2.0/. -->
<svg xmlns="http://www.w3.org/2000/svg" width="24" height="24" fill="none" viewBox="0 0 24 24">
    <path fill="#000" d="M21.308 11.291A2.5 2.5 0 0 0 18.936 8h-4.999V4.875A1.874 1.874 0 0 0 12.062 3h-.003a.86.86 0 0 0-.818.59l-.951 2.852q-.103.309-.281.58L8 10.086v9.164h8.853a2.5 2.5 0 0 0 2.372-1.709zM3.25 9h2a1 1 0 0 1 1 1v9a1 1 0 0 1-1 1h-2a1 1 0 0 1-1-1v-9a1 1 0 0 1 1-1" />
</svg>
