<!-- This Source Code Form is subject to the terms of the Mozilla Public
   - License, v. 2.0. If a copy of the MPL was not distributed with this
   - file, You can obtain one at http://mozilla.org/MPL/2.0/. -->
<svg xmlns="http://www.w3.org/2000/svg" width="24" height="24" fill="none" viewBox="0 0 24 24">
    <path fill="#000" d="M13.564 5.284a48 48 0 0 1 4.058.187c.837.074 1.59.523 2.016 1.247a21.3 21.3 0 0 1 2.608 7.08c.268 1.519-.87 2.908-2.41 2.998a36 36 0 0 1-5.265-.074v3.783a1.495 1.495 0 0 1-2.912.472l-.839-2.518a2.6 2.6 0 0 0-.289-.597L8.464 14.71V5.54c1.542-.16 3.25-.262 5.1-.256M4.929 3.999a6 6 0 0 1 .821.057 1.29 1.29 0 0 1 1.107 1.277v8.905c0 .652-.486 1.192-1.131 1.28a6 6 0 0 1-1.619-.003A1.29 1.29 0 0 1 3 14.238V5.333c0-.652.485-1.192 1.13-1.28a6 6 0 0 1 .799-.054" />
</svg>
