<!-- This Source Code Form is subject to the terms of the Mozilla Public
   - License, v. 2.0. If a copy of the MPL was not distributed with this
   - file, You can obtain one at http://mozilla.org/MPL/2.0/. -->
<svg xmlns="http://www.w3.org/2000/svg" width="24" height="24" fill="none" viewBox="0 0 24 24">
    <path fill="#000" fill-rule="evenodd" d="M5.5 3.5a1.5 1.5 0 0 1 1.413 1h4.855a78 78 0 0 1 5.42.41c.807.09 1.542.491 2.069 1.134A12.1 12.1 0 0 1 22 13.972a3.12 3.12 0 0 1-2.935 3.035 39 39 0 0 1-4.087.005v2.352A2.64 2.64 0 0 1 12.343 22h-.315c-.882 0-1.683-.554-2.02-1.453a20.2 20.2 0 0 0-2.6-5.732l-.437-.013A1.5 1.5 0 0 1 5.5 16h-2A1.5 1.5 0 0 1 2 14.5V5a1.5 1.5 0 0 1 1.5-1.5zM7 13.05l.908.03c.278.01.535.15.692.378a22 22 0 0 1 1.663 2.844 21.5 21.5 0 0 1 1.406 3.702c.055.147.2.246.357.246h.315a.887.887 0 0 0 .886-.886V16.08a.87.87 0 0 1 .942-.872c.908.069 1.823.105 2.72.107a38 38 0 0 0 2.079-.055 1.36 1.36 0 0 0 1.28-1.322A10.35 10.35 0 0 0 17.9 7.153a1.37 1.37 0 0 0-.908-.503 77 77 0 0 0-5.262-.4H7z" clip-rule="evenodd" />
</svg>
