<!-- This Source Code Form is subject to the terms of the Mozilla Public
   - License, v. 2.0. If a copy of the MPL was not distributed with this
   - file, You can obtain one at http://mozilla.org/MPL/2.0/. -->
<svg width="24" height="24" fill="none" xmlns="http://www.w3.org/2000/svg">
    <path fill-rule="evenodd" clip-rule="evenodd" d="M7 20h9.656a3.217 3.217 0 0 0 3.054-2.201l2.145-6.436a2.751 2.751 0 0 0-.382-2.504 2.75 2.75 0 0 0-2.254-1.153H15.23V5.463a2.843 2.843 0 0 0-2.842-2.838c-.768 0-1.446.489-1.687 1.216l-.994 2.982a1.809 1.809 0 0 1-.197.408l-1.845 2.813H7V10a1 1 0 0 0-1-1H3a1 1 0 0 0-1 1v10.5a1 1 0 0 0 1 1h3a1 1 0 0 0 1-1V20zm0-1.75h9.656c.633 0 1.193-.403 1.394-1.005l2.145-6.435a1.022 1.022 0 0 0-.141-.928 1.02 1.02 0 0 0-.835-.427H13.48V5.463c0-.6-.488-1.088-1.089-1.088L11.366 7.38a3.558 3.558 0 0 1-.393.811L8.61 11.794H7v6.456z" fill="#000" />
</svg>
