<!-- This Source Code Form is subject to the terms of the Mozilla Public
   - License, v. 2.0. If a copy of the MPL was not distributed with this
   - file, You can obtain one at http://mozilla.org/MPL/2.0/. -->
<svg width="24" height="24" fill="none" xmlns="http://www.w3.org/2000/svg">
    <path d="M13.11 22h-2.22a2.68 2.68 0 0 1-2.68-2.68v-6.14C6.08 11.67 5.05 9.11 5.58 6.5c.37-1.85 1.55-3.44 3.23-4.38l.43-.21a.879.879 0 0 1 1.26.77l.05 4.07c0 .5.42.91.93.91h1.07c.51 0 .93-.42.93-.93V2.7c0-.3.16-.58.41-.74a.86.86 0 0 1 .85-.04l.41.2c2.12 1.18 3.41 3.37 3.41 5.74 0 2.14-1.03 4.1-2.77 5.33v6.14c0 1.48-1.2 2.68-2.68 2.68V22zM8.77 4.29c-.74.67-1.28 1.58-1.48 2.56-.41 2.04.47 4.04 2.25 5.11.26.16.42.44.42.75v6.61c0 .51.42.93.93.93h2.22c.51 0 .93-.42.93-.93v-6.61c0-.31.16-.59.42-.75 1.47-.88 2.35-2.42 2.35-4.11 0-1.36-.58-2.65-1.58-3.55v2.44c0 1.48-1.2 2.68-2.68 2.68h-1.07c-1.46 0-2.66-1.18-2.68-2.64l-.03-2.49z" fill="#000" />
</svg>
