<!-- This Source Code Form is subject to the terms of the Mozilla Public
   - License, v. 2.0. If a copy of the MPL was not distributed with this
   - file, You can obtain one at http://mozilla.org/MPL/2.0/. -->
<svg xmlns="http://www.w3.org/2000/svg" width="24" height="24" fill="none" viewBox="0 0 24 24">
    <path fill="#000" fill-rule="evenodd" d="M13.75 3.131c0-.786.836-1.403 1.621-1.015l.2.102a6.49 6.49 0 0 1 .423 11.202l-.01 5.461a3.126 3.126 0 0 1-3.126 3.12h-.712a3.125 3.125 0 0 1-3.125-3.118l-.013-5.462A6.49 6.49 0 0 1 6 7.945a6.5 6.5 0 0 1 3.629-5.83h.002c.785-.386 1.619.23 1.619 1.016v2.814a1.25 1.25 0 1 0 2.5 0zm1.75 2.814a3 3 0 1 1-6 0V4.268a4.743 4.743 0 0 0 .513 7.72l.277.159.103.063a.88.88 0 0 1 .364.71l.014 5.96a1.375 1.375 0 0 0 1.375 1.37h.712c.758 0 1.373-.613 1.375-1.372l.011-5.959.009-.12a.88.88 0 0 1 .458-.652 4.75 4.75 0 0 0 2.539-4.202 4.73 4.73 0 0 0-1.75-3.678z" clip-rule="evenodd" />
</svg>
