<svg width="24" height="24" fill="none" xmlns="http://www.w3.org/2000/svg"><path d="m13.87 15.1 1.45-3.48 1.45 3.48h-2.9z" fill="#000"/><path fill-rule="evenodd" clip-rule="evenodd" d="M6 2a4 4 0 0 0-4 4v12a4 4 0 0 0 4 4h12a4 4 0 0 0 4-4V6a4 4 0 0 0-4-4H6zm10.55 8.14a.963.963 0 0 0-.9-.59h-.68c-.39 0-.75.23-.9.59l-1.81 4.33c-.47-.25-.92-.55-1.33-.9-.35-.3-.67-.62-.98-.95 1.29-1.49 2.28-3.22 2.91-5.11h.83V5.78H9.71V4H8v1.78H4v1.73h7.07c-.53 1.37-1.27 2.63-2.2 3.75-.58-.81-1.07-1.68-1.45-2.6l-.04-.1H5.55l.09.23c.5 1.34 1.18 2.6 2.03 3.74h-.01a6.386 6.386 0 0 0-.067.068c-.064.066-.126.13-.193.182-.73.64-1.59 1.11-2.5 1.42l-.12.04v1.79l.22-.06c1.28-.36 2.49-.99 3.51-1.88.08-.07.17-.15.25-.23h.01c.34.35.69.7 1.06 1.02.54.48 1.14.88 1.77 1.21l-1.39 3.32h1.85l1.08-2.58h4.35l1.08 2.58h1.85l-3.87-9.26v-.01z" fill="#000"/></svg>