<!-- This Source Code Form is subject to the terms of the Mozilla Public
   - License, v. 2.0. If a copy of the MPL was not distributed with this
   - file, You can obtain one at http://mozilla.org/MPL/2.0/. -->
<svg xmlns="http://www.w3.org/2000/svg" width="24" height="24" fill="none" viewBox="0 0 24 24">
    <path fill="#000" fill-rule="evenodd" d="M7.856 2.5c.471 0 .854.382.854.854v1.221a24.2 24.2 0 0 1 5.126.701.875.875 0 0 1-.422 1.698 22 22 0 0 0-.952-.212 18.8 18.8 0 0 1-3.507 5.898q.645.715 1.374 1.36a9.3 9.3 0 0 0 1.91 1.275l2.35-5.677c.156-.373.52-.617.925-.617h.846a1 1 0 0 1 .924.617l4.225 10.197h.002a.857.857 0 1 1-1.584.656L18.8 17.75h-5.72l-1.128 2.72a.858.858 0 0 1-1.584-.655l1.195-2.886c-.84-.422-1.63-.95-2.347-1.583-.517-.455-1-.942-1.458-1.447-.158.148-.308.302-.47.446a10.9 10.9 0 0 1-3.113 1.92.876.876 0 0 1-1.198-.814.88.88 0 0 1 .564-.811 9.2 9.2 0 0 0 2.631-1.621c.167-.147.322-.306.481-.459A19 19 0 0 1 4.136 8H5.97a17 17 0 0 0 1.888 3.297 17 17 0 0 0 2.887-4.816c-2.72-.333-5.5-.169-8.16.493a.877.877 0 0 1-1.062-.638.876.876 0 0 1 .64-1.06 24 24 0 0 1 4.838-.688V3.354c0-.472.382-.854.854-.854M13.802 16h4.27l-2.135-5.155z" clip-rule="evenodd" />
</svg>
