<!-- This Source Code Form is subject to the terms of the Mozilla Public
   - License, v. 2.0. If a copy of the MPL was not distributed with this
   - file, You can obtain one at http://mozilla.org/MPL/2.0/. -->
<svg xmlns="http://www.w3.org/2000/svg" width="24" height="24" fill="none" viewBox="0 0 24 24">
    <g fill="#000">
        <path d="M16.086 14.738h-2.1l1.05-2.475z" />
        <path fill-rule="evenodd" d="M18 0a6 6 0 0 1 6 6v12a6 6 0 0 1-6 6H6a6 6 0 0 1-6-6V6a6 6 0 0 1 6-6zM9.213 5.999a.643.643 0 0 0-.644.644l.002.01v.623c-1.013.052-2.02.214-2.996.498a.625.625 0 0 0 .349 1.2 11.9 11.9 0 0 1 5.19-.32l-.17.482a8.7 8.7 0 0 1-1.646 2.773 8.6 8.6 0 0 1-1.263-2.306l-.01-.028H6.67l.157.44a9.9 9.9 0 0 0 1.552 2.802L6.396 14.09c-.287.183-.396.322-.396.589 0 .35.284.635.635.636a.6.6 0 0 0 .266-.064c.845-.361 1.616-.892 2.327-1.492a9.8 9.8 0 0 0 2.94 1.986l-.58 1.368a.637.637 0 0 0 1.169.505v.003l.007-.01.678-1.597h3.185l.679 1.6.038.07c-.006-.008-.004-.02-.009-.03a.632.632 0 0 0 1.196-.293.6.6 0 0 0-.05-.248l-.002.001-2.528-5.96a.64.64 0 0 0-.587-.39h-.659a.64.64 0 0 0-.587.39l-1.45 3.414a8.6 8.6 0 0 1-2.52-1.696 9.9 9.9 0 0 0 1.998-3.308l.227-.64.202.05a.624.624 0 1 0 .35-1.2c-1-.29-2.03-.452-3.068-.5v-.631a.644.644 0 0 0-.644-.644" clip-rule="evenodd" />
    </g>
</svg>
