<!-- This Source Code Form is subject to the terms of the Mozilla Public
   - License, v. 2.0. If a copy of the MPL was not distributed with this
   - file, You can obtain one at http://mozilla.org/MPL/2.0/. -->
<svg xmlns="http://www.w3.org/2000/svg" width="24" height="24" fill="none" viewBox="0 0 24 24">
    <g fill="#000">
        <path d="M18.072 16h-4.27l2.135-5.155z" />
        <path fill-rule="evenodd" d="M18 0a6 6 0 0 1 6 6v12a6 6 0 0 1-6 6H6a6 6 0 0 1-6-6V6a6 6 0 0 1 6-6zM7.854 2.501a.854.854 0 0 0-.853.853v1.242a24 24 0 0 0-4.838.681.876.876 0 0 0-.64 1.06.877.877 0 0 0 1.062.638 22.6 22.6 0 0 1 8.146-.494 17 17 0 0 1-2.873 4.817A17 17 0 0 1 5.97 8H4.135a19 19 0 0 0 2.518 4.56c-.16.153-.315.312-.482.459a9.2 9.2 0 0 1-2.631 1.62.88.88 0 0 0-.564.812.876.876 0 0 0 1.198.815 10.9 10.9 0 0 0 3.112-1.921c.163-.144.313-.298.47-.446.46.505.942.992 1.459 1.447a11 11 0 0 0 2.347 1.583l-1.195 2.886a.857.857 0 1 0 1.584.656l1.127-2.721h5.72l1.128 2.72a.858.858 0 0 0 1.584-.655h-.001L17.284 9.617A1 1 0 0 0 16.359 9h-.845a1 1 0 0 0-.924.617l-2.352 5.677a9.3 9.3 0 0 1-1.909-1.275 17 17 0 0 1-1.374-1.36c1.517-1.726 2.677-3.724 3.483-5.896.325.066.652.13.975.21a.875.875 0 0 0 .422-1.697c-1.677-.417-3.4-.64-5.126-.69V3.354a.854.854 0 0 0-.855-.853" clip-rule="evenodd" />
    </g>
</svg>
