<svg width="24" height="24" viewBox="0 0 24 24" fill="none" xmlns="http://www.w3.org/2000/svg">
<path d="M10.5098 7.60742C11.3318 6.79842 12.6712 6.79842 13.4912 7.60742L16.2402 10.3115C16.5842 10.6515 16.5888 11.2058 16.25 11.5498C16.078 11.7238 15.8529 11.8105 15.626 11.8105C15.404 11.8105 15.1817 11.7266 15.0107 11.5596L12.875 9.45703V16.125C12.875 16.608 12.483 17 12 17C11.517 17 11.125 16.608 11.125 16.125V9.45801L8.99023 11.5596C8.64423 11.8976 8.09295 11.8948 7.75195 11.5498C7.41302 11.2048 7.41774 10.6515 7.76172 10.3115L10.5098 7.60742Z" fill="black"/>
<path fill-rule="evenodd" clip-rule="evenodd" d="M12 2C17.5228 2 22 6.47715 22 12C22 17.5228 17.5228 22 12 22C6.47715 22 2 17.5228 2 12C2 6.47715 6.47715 2 12 2ZM12 3.75C7.44365 3.75 3.75 7.44365 3.75 12C3.75 16.5563 7.44365 20.25 12 20.25C16.5563 20.25 20.25 16.5563 20.25 12C20.25 7.44365 16.5563 3.75 12 3.75Z" fill="black"/>
</svg>
