<!-- This Source Code Form is subject to the terms of the Mozilla Public
   - License, v. 2.0. If a copy of the MPL was not distributed with this
   - file, You can obtain one at http://mozilla.org/MPL/2.0/. -->
<svg xmlns="http://www.w3.org/2000/svg" width="24" height="24" fill="none" viewBox="0 0 24 24">
    <path fill="#000" d="M4.75 13.25v4.209c0 .683.51 1.272 1.188 1.368 1.593.223 3.202.332 4.812.378v1.752a46 46 0 0 1-5.055-.398A3.144 3.144 0 0 1 3 17.459V13.25zM21 17.46c0 1.55-1.146 2.879-2.665 3.093-1.68.238-3.385.355-5.085.402v-1.75a43 43 0 0 0 4.84-.384 1.37 1.37 0 0 0 1.16-1.36V13.25H21z" />
    <path fill="#000" d="M9.254 10.67a1.66 1.66 0 0 1 2.676.01l1.974 2.706.083-.15c.59-1.07 2.123-1.08 2.727-.02.187.328.285.699.285 1.077v.835A1.873 1.873 0 0 1 15.124 17H8.875A1.873 1.873 0 0 1 7 15.128v-.589c0-.534.172-1.054.49-1.483zM15.75 8.5a1.25 1.25 0 1 1 0 2.5 1.25 1.25 0 0 1 0-2.5m-5-3.706c-1.618.047-3.24.159-4.84.385a1.37 1.37 0 0 0-1.16 1.36v4.211H3V6.538C3 4.99 4.146 3.66 5.665 3.446c1.681-.238 3.381-.354 5.085-.401zm2.5-1.749c1.692.047 3.382.161 5.055.396A3.144 3.144 0 0 1 21 6.541v4.209h-1.75V6.541c0-.683-.51-1.272-1.189-1.368a44 44 0 0 0-4.811-.38z" />
</svg>
