<svg width="24" height="24" viewBox="0 0 24 24" fill="none" xmlns="http://www.w3.org/2000/svg">
<path d="M4.75 13.25V17.459C4.75004 18.142 5.2605 18.7312 5.93848 18.8271C7.53131 19.0501 9.14017 19.1591 10.75 19.2051V20.957C9.06209 20.91 7.36723 20.7936 5.69531 20.5586C4.15834 20.3426 3.00004 19.01 3 17.459V13.25H4.75Z" fill="black"/>
<path d="M21 17.4609C21 19.0099 19.8539 20.3387 18.335 20.5527C16.655 20.7907 14.95 20.9081 13.25 20.9551V19.2041C14.8719 19.1581 16.4899 19.0473 18.0908 18.8213C18.7518 18.7283 19.25 18.1439 19.25 17.4619V13.249H21V17.4609Z" fill="black"/>
<path d="M9.25391 10.6709C9.91983 9.771 11.2696 9.77598 11.9297 10.6797L13.9043 13.3857L13.9873 13.2354C14.5763 12.1664 16.1098 12.1559 16.7139 13.2158C16.9009 13.5438 16.999 13.915 16.999 14.293V15.1279C16.999 16.1619 16.16 17 15.124 17H8.875C7.83901 17 7.00001 16.1619 7 15.1279V14.5391C7 14.0051 7.17226 13.4847 7.48926 13.0557L9.25391 10.6709Z" fill="black"/>
<path d="M15.75 8.5C16.4404 8.5 17 9.05964 17 9.75C17 10.4403 16.4403 11 15.75 11C15.0597 11 14.5 10.4403 14.5 9.75C14.5 9.05964 15.0596 8.5 15.75 8.5Z" fill="black"/>
<path d="M10.75 4.79395C9.13207 4.84094 7.50911 4.95273 5.90918 5.17871C5.24818 5.27171 4.75 5.85609 4.75 6.53809V10.75H3V6.53809C3 4.98909 4.14605 3.66029 5.66504 3.44629C7.34604 3.20829 9.046 3.09192 10.75 3.04492V4.79395Z" fill="black"/>
<path d="M13.25 3.04492C14.9419 3.09192 16.6318 3.20643 18.3047 3.44141C19.8417 3.65741 21 4.99002 21 6.54102V10.75H19.25V6.54102C19.25 5.85802 18.7395 5.26885 18.0615 5.17285C16.4697 4.9499 14.8568 4.83996 13.25 4.79297V3.04492Z" fill="black"/>
</svg>
