<!-- This Source Code Form is subject to the terms of the Mozilla Public
   - License, v. 2.0. If a copy of the MPL was not distributed with this
   - file, You can obtain one at http://mozilla.org/MPL/2.0/. -->
<svg xmlns="http://www.w3.org/2000/svg" width="24" height="24" fill="none" viewBox="0 0 24 24">
    <path fill="#000" d="M4.75 18.5c0 .414.336.75.75.75h5.25V21H5.5A2.5 2.5 0 0 1 3 18.5v-5.25h1.75zM21 18.5a2.5 2.5 0 0 1-2.5 2.5h-5.25v-1.75h5.25a.75.75 0 0 0 .75-.75v-5.25H21z" />
    <path fill="#000" d="M9.824 10.695a1 1 0 0 1 1.415-.004L14 13.44l.792-.748a1 1 0 0 1 1.397.023l.772.78c.186.186.29.44.29.703V16.5a.75.75 0 0 1-.751.75h-9a.75.75 0 0 1-.75-.75v-2.3c0-.265.105-.519.291-.706zM10.75 4.75H5.5a.75.75 0 0 0-.75.75v5.25H3V5.5A2.5 2.5 0 0 1 5.5 3h5.25zM18.5 3A2.5 2.5 0 0 1 21 5.5v5.25h-1.75V5.5a.75.75 0 0 0-.75-.75h-5.25V3z" />
</svg>
