<!-- This Source Code Form is subject to the terms of the Mozilla Public
   - License, v. 2.0. If a copy of the MPL was not distributed with this
   - file, You can obtain one at http://mozilla.org/MPL/2.0/. -->
<svg xmlns="http://www.w3.org/2000/svg" width="24" height="24" fill="none">
    <path fill="#000" d="M12.875 15.625h-1.75v1.75h1.75z" />
    <path fill="#000" fill-rule="evenodd" d="M11.125 14V9h1.75v5z" clip-rule="evenodd" />
    <path fill="#000" d="M11.956 4.92c.165 0 .47.05.655.385l7.04 12.66a.73.73 0 0 1-.009.745.73.73 0 0 1-.646.37H5.004a.73.73 0 0 1-.645-.368.73.73 0 0 1-.012-.743L11.3 5.309a.73.73 0 0 1 .657-.389zm0-1.75c-.859 0-1.717.433-2.19 1.297l-6.953 12.66c-.915 1.666.29 3.703 2.191 3.703h13.993c1.907 0 3.112-2.049 2.185-3.715l-7.04-12.66a2.48 2.48 0 0 0-2.186-1.285" />
</svg>
