<!-- This Source Code Form is subject to the terms of the Mozilla Public
   - License, v. 2.0. If a copy of the MPL was not distributed with this
   - file, You can obtain one at http://mozilla.org/MPL/2.0/. -->
<svg xmlns="http://www.w3.org/2000/svg" width="24" height="24" fill="none" viewBox="0 0 24 24">
    <path fill="#000" d="M12 15.5a1 1 0 1 1 0 2 1 1 0 0 1 0-2m0-7c.483 0 .875.392.875.875v3.75a.875.875 0 0 1-1.75 0v-3.75c0-.483.392-.875.875-.875" />
    <path fill="#000" fill-rule="evenodd" d="M11.963 3c1.196 0 2.393.599 3.06 1.799l6.023 10.83c1.253 2.255-.283 5.057-2.857 5.2a111 111 0 0 1-12.398-.003c-2.56-.144-4.077-2.932-2.844-5.178L8.895 4.815A3.46 3.46 0 0 1 11.964 3m-.001 1.75c-.311 0-1.084.09-1.534.908L4.479 16.49a1.74 1.74 0 0 0 .005 1.704c.14.25.553.837 1.403.885a110 110 0 0 0 12.202.003 1.72 1.72 0 0 0 1.426-.901 1.73 1.73 0 0 0 0-1.7L13.492 5.648a1.7 1.7 0 0 0-1.393-.894z" clip-rule="evenodd" />
</svg>
