<!-- This Source Code Form is subject to the terms of the Mozilla Public
   - License, v. 2.0. If a copy of the MPL was not distributed with this
   - file, You can obtain one at http://mozilla.org/MPL/2.0/. -->
<svg width="24" height="24" fill="none" xmlns="http://www.w3.org/2000/svg">
    <path d="M12.875 15.625h-1.75v1.75h1.75v-1.75z" fill="#000" />
    <path fill-rule="evenodd" clip-rule="evenodd" d="M11.125 14V9h1.75v5h-1.75z" fill="#000" />
    <path d="M11.956 4.92c.165 0 .47.05.655.385l7.04 12.66a.729.729 0 0 1-.009.745.726.726 0 0 1-.646.37H5.004a.727.727 0 0 1-.645-.368.728.728 0 0 1-.012-.743L11.3 5.309a.725.725 0 0 1 .657-.389zm0-1.75c-.859 0-1.717.433-2.19 1.297l-6.953 12.66c-.915 1.666.29 3.703 2.191 3.703h13.993c1.907 0 3.112-2.049 2.185-3.715l-7.04-12.66a2.478 2.478 0 0 0-2.186-1.285z" fill="#000" />
</svg>
