<!-- This Source Code Form is subject to the terms of the Mozilla Public
   - License, v. 2.0. If a copy of the MPL was not distributed with this
   - file, You can obtain one at http://mozilla.org/MPL/2.0/. -->
<svg xmlns="http://www.w3.org/2000/svg" width="24" height="24" fill="none" viewBox="0 0 24 24">
    <path fill="#000" fill-rule="evenodd" d="M11.963 3c1.196 0 2.393.599 3.06 1.799l6.023 10.83c1.253 2.255-.283 5.057-2.858 5.2a111 111 0 0 1-12.397-.003c-2.56-.144-4.078-2.932-2.844-5.178L8.895 4.815A3.46 3.46 0 0 1 11.963 3M12 15.5a1 1 0 1 0 0 2 1 1 0 0 0 0-2m0-7a.876.876 0 0 0-.875.875v3.75a.876.876 0 0 0 1.75 0v-3.75A.875.875 0 0 0 12 8.5" clip-rule="evenodd" />
</svg>
