<svg width="24" height="24" fill="none" xmlns="http://www.w3.org/2000/svg"><path fill-rule="evenodd" clip-rule="evenodd" d="M12 3.107A3.375 3.375 0 0 0 6.541 7H5.5A2.5 2.5 0 0 0 3 9.5v1c0 .818.393 1.544 1 2v7A2.5 2.5 0 0 0 6.5 22h11a2.5 2.5 0 0 0 2.5-2.5v-7c.608-.457 1-1.183 1-2v-1A2.5 2.5 0 0 0 18.5 7h-1.041A3.375 3.375 0 0 0 12 3.107zm-2.5.643A1.625 1.625 0 1 0 9.5 7h1.625V5.375c0-.898-.727-1.625-1.625-1.625zm3.375 5v2.5H18.5a.75.75 0 0 0 .75-.75v-1a.75.75 0 0 0-.75-.75h-5.625zM14.5 7a1.625 1.625 0 1 0-1.625-1.625V7H14.5zm-9 1.75h5.625v2.5H5.5a.75.75 0 0 1-.75-.75v-1a.75.75 0 0 1 .75-.75zM12.875 13h5.376l-.001 6.5a.75.75 0 0 1-.75.75h-4.625V13zm-1.75 0v7.25H6.5a.75.75 0 0 1-.75-.75V13h5.375z" fill="#000"/></svg>