<!-- This Source Code Form is subject to the terms of the Mozilla Public
   - License, v. 2.0. If a copy of the MPL was not distributed with this
   - file, You can obtain one at http://mozilla.org/MPL/2.0/. -->
<svg xmlns="http://www.w3.org/2000/svg" width="24" height="24" fill="none" viewBox="0 0 24 24">
    <path fill="#000" fill-rule="evenodd" d="M9.501 2c.99 0 1.882.427 2.499 1.106A3.37 3.37 0 0 1 14.5 2h.313a3.375 3.375 0 0 1 2.83 5.21q.87.066 1.7.148l.224.033A2.38 2.38 0 0 1 21.5 9.723v.902a2.37 2.37 0 0 1-1.5 2.206v5.666a3.13 3.13 0 0 1-2.64 3.092 35.1 35.1 0 0 1-10.694.003A3.13 3.13 0 0 1 4 18.499v-5.668a2.37 2.37 0 0 1-1.5-2.206v-.902a2.38 2.38 0 0 1 2.155-2.365 75 75 0 0 1 1.7-.147A3.375 3.375 0 0 1 9.187 2zM5.75 13v5.499c0 .679.497 1.258 1.182 1.363a33 33 0 0 0 4.193.375V13zm7.125 0v7.236a33 33 0 0 0 4.217-.377l.122-.024a1.38 1.38 0 0 0 1.036-1.338V13zm0-1.75h6.25c.345 0 .625-.28.625-.625v-.902a.63.63 0 0 0-.575-.623 74 74 0 0 0-6.3-.345zm-1.75-2.495a74 74 0 0 0-6.299.345.63.63 0 0 0-.576.623v.902c0 .345.28.625.625.625h6.25zM9.188 3.75a1.625 1.625 0 1 0 0 3.25h1.937V5.361A1.625 1.625 0 0 0 9.501 3.75zm5.312 0c-.893 0-1.618.72-1.625 1.612l.001.013V7h1.938a1.625 1.625 0 0 0 0-3.25z" clip-rule="evenodd" />
</svg>
