<!-- This Source Code Form is subject to the terms of the Mozilla Public
   - License, v. 2.0. If a copy of the MPL was not distributed with this
   - file, You can obtain one at http://mozilla.org/MPL/2.0/. -->
<svg xmlns="http://www.w3.org/2000/svg" width="20" height="20" fill="none" viewBox="0 0 20 20">
    <path fill="#000" d="M11.72 7.22a.75.75 0 1 1 1.06 1.06L11.06 10l1.72 1.72a.75.75 0 1 1-1.06 1.06L10 11.06l-1.72 1.72a.75.75 0 1 1-1.06-1.06L8.94 10 7.22 8.28a.75.75 0 1 1 1.06-1.06L10 8.94z" />
    <path fill="#000" fill-rule="evenodd" d="M10 2.5c1.178 0 2.184.179 2.96.383l.176.053a2.75 2.75 0 0 1 1.084.67l2.33 2.336c.607.61.95 1.435.95 2.296v3.524c0 .86-.34 1.686-.95 2.296l-2.332 2.337c-.32.32-.725.58-1.194.707a11.65 11.65 0 0 1-5.681.091l-.302-.075a2.77 2.77 0 0 1-1.26-.723l-2.33-2.336a3.26 3.26 0 0 1-.95-2.296V8.239c0-.86.34-1.686.95-2.296l2.331-2.339c.32-.32.726-.577 1.195-.704C8.19 2.573 9.245 2.5 10 2.5M10 4c-.658 0-1.577.065-2.633.349-.183.05-.364.156-.521.314l-.001.001-2.333 2.339A1.75 1.75 0 0 0 4 8.239v3.524c0 .462.184.907.51 1.236l2.333 2.337c.16.16.356.273.579.332l.263.065a10.14 10.14 0 0 0 4.948-.08 1.2 1.2 0 0 0 .522-.316l2.333-2.339A1.75 1.75 0 0 0 16 11.762V8.238c0-.463-.184-.908-.512-1.237l-2.332-2.337a1.3 1.3 0 0 0-.416-.276l-.162-.055A10 10 0 0 0 10 4" clip-rule="evenodd" />
</svg>
