<svg width="20" height="20" viewBox="0 0 20 20" fill="none" xmlns="http://www.w3.org/2000/svg">
<path d="M9.48999 3.99976C11.2356 3.99976 12.818 4.6893 13.9851 5.80737L15.1462 4.64722C15.4612 4.33232 15.9995 4.55593 15.9998 5.00073V8.49976C15.9998 8.77576 15.7758 8.99976 15.4998 8.99976H12.0007C11.5549 8.99956 11.3323 8.46118 11.6472 8.14624L12.9255 6.86694C12.0292 6.01925 10.8202 5.49976 9.48999 5.49976C6.72829 5.49976 4.49012 7.73808 4.48999 10.4998C4.48999 13.2615 6.7282 15.4998 9.48999 15.4998C11.721 15.4998 13.6128 14.0381 14.2556 12.0183C14.3813 11.624 14.8026 11.4057 15.197 11.531C15.5917 11.6566 15.8098 12.0787 15.6843 12.4734C14.8491 15.0975 12.3928 16.9998 9.48999 16.9998C5.89978 16.9998 2.98999 14.09 2.98999 10.4998C2.99012 6.90965 5.89986 3.99976 9.48999 3.99976Z" fill="black"/>
</svg>
