<svg xmlns="http://www.w3.org/2000/svg" width="20" height="20" fill="none" viewBox="0 0 20 20"><path fill="#000" d="M10 3.026c.516 0 .957.3 1.148.78l1.293 3.248 3.894.252c.5.033.918.348 1.09.823a1.2 1.2 0 0 1-.302 1.294 15.7 15.7 0 0 1-3.163 2.313l.941 3.698c.123.486-.044.978-.439 1.28a1.23 1.23 0 0 1-1.376.096 17.3 17.3 0 0 1-2.915-2.048.25.25 0 0 0-.339 0 18 18 0 0 1-2.915 2.048 1.3 1.3 0 0 1-.62.165h-.003c-.267 0-.53-.088-.756-.26a1.21 1.21 0 0 1-.44-1.28l.942-3.699a15.5 15.5 0 0 1-3.163-2.313 1.2 1.2 0 0 1-.302-1.294c.172-.475.59-.79 1.09-.823l3.894-.252 1.293-3.249c.19-.48.632-.779 1.148-.779"/></svg>