<!-- This Source Code Form is subject to the terms of the Mozilla Public
   - License, v. 2.0. If a copy of the MPL was not distributed with this
   - file, You can obtain one at http://mozilla.org/MPL/2.0/. -->
<svg xmlns="http://www.w3.org/2000/svg" width="20" height="20" fill="none" viewBox="0 0 20 20">
    <path fill="#000" fill-rule="evenodd" d="M8.652 2.61c.576-1.443 2.622-1.445 3.198.001l1.183 2.974 3.599.234.133.014c1.364.192 2.032 1.919.958 2.938q-.33.314-.706.631a16 16 0 0 1-2.24 1.574l.855 3.352c.382 1.5-1.22 2.648-2.523 1.919q-.508-.285-1.04-.63l-.355-.238a18 18 0 0 1-1.463-1.12 18 18 0 0 1-2.859 1.988c-1.303.73-2.904-.42-2.522-1.92l.853-3.35a16 16 0 0 1-2.944-2.205C1.67 7.72 2.417 5.912 3.87 5.82l3.598-.234.949-2.382zm1.596.417v9.661c.294 0 .589.102.83.308q.006.003.01.008a16.6 16.6 0 0 0 2.755 1.934c.096.054.187.04.258-.014a.2.2 0 0 0 .075-.095.2.2 0 0 0 .003-.13l-.997-3.91a.75.75 0 0 1 .374-.846 14.4 14.4 0 0 0 3.134-2.26l.04-.052a.2.2 0 0 0 .017-.044.2.2 0 0 0-.012-.12.22.22 0 0 0-.2-.15l-4.071-.266a.75.75 0 0 1-.649-.47l-1.124-2.823-.235-.592a.22.22 0 0 0-.208-.139" clip-rule="evenodd" />
</svg>
