<svg xmlns="http://www.w3.org/2000/svg" width="20" height="20" fill="none" viewBox="0 0 20 20"><path fill="#000" fill-rule="evenodd" d="M8.46 3.48c.643-1.314 2.58-1.268 3.137.13h.001l1.184 2.974 3.598.235.134.013c1.364.193 2.032 1.92.957 2.939q-.33.314-.706.63a16 16 0 0 1-2.24 1.575l.855 3.352c.383 1.5-1.219 2.648-2.522 1.919A18 18 0 0 1 10 15.258c-.315.267-.654.54-1.024.81l-.44.311c-.475.327-.943.614-1.394.867-1.303.73-2.906-.419-2.523-1.918l.852-3.352a16 16 0 0 1-2.943-2.204c-1.11-1.052-.362-2.86 1.09-2.953l3.598-.235 1.185-2.973zm1.745.685a.22.22 0 0 0-.41 0L8.435 7.58a.75.75 0 0 1-.648.471l-4.072.265a.22.22 0 0 0-.2.15.2.2 0 0 0-.012.12c.006.029.02.061.057.097l.31.284q.159.144.33.287c.9.758 1.77 1.302 2.495 1.689a.75.75 0 0 1 .373.847l-.996 3.908a.2.2 0 0 0 .003.13.2.2 0 0 0 .074.096.23.23 0 0 0 .259.014q.623-.348 1.279-.795l.403-.286q.587-.43 1.072-.854l.01-.008a1.27 1.27 0 0 1 1.572-.066l.093.074.335.284q.345.285.737.57l.402.285q.655.449 1.28.796c.096.054.187.04.26-.014a.2.2 0 0 0 .073-.095.2.2 0 0 0 .003-.13l-.996-3.91a.75.75 0 0 1 .373-.846 14.4 14.4 0 0 0 3.135-2.26l.04-.052a.2.2 0 0 0 .017-.045.2.2 0 0 0-.012-.12.22.22 0 0 0-.2-.15l-4.072-.265a.75.75 0 0 1-.648-.47L10.44 4.757z" clip-rule="evenodd"/></svg>