<!-- This Source Code Form is subject to the terms of the Mozilla Public
   - License, v. 2.0. If a copy of the MPL was not distributed with this
   - file, You can obtain one at http://mozilla.org/MPL/2.0/. -->
<svg width="20" height="20" fill="none" xmlns="http://www.w3.org/2000/svg">
    <path fill-rule="evenodd" clip-rule="evenodd" d="M10.208 4.085a.252.252 0 0 0-.42.07l-.001.002-1.4 3.52a.75.75 0 0 1-.65.472l-3.777.24a.25.25 0 0 0-.141.443v.001l2.91 2.42a.75.75 0 0 1 .248.763l-.942 3.676a.217.217 0 0 0 .004.14c.015.039.045.08.09.112.089.064.188.07.28.012l3.2-2.02a.75.75 0 0 1 .801 0l3.206 2.024a.246.246 0 0 0 .367-.277v-.001l-.94-3.666a.75.75 0 0 1 .247-.763l2.912-2.42a.25.25 0 0 0-.141-.445l-3.778-.24a.75.75 0 0 1-.65-.47l-1.4-3.52a.77.77 0 0 1-.025-.073zm1.483-.321a.749.749 0 0 0-.046-.165c-.589-1.455-2.669-1.477-3.252.005l-.001.002-1.223 3.076-3.307.21H3.86c-1.574.105-2.222 2.081-1 3.095 0 0 .001 0 0 0l2.546 2.116-.822 3.209c-.405 1.542 1.305 2.747 2.626 1.912l2.8-1.767 2.797 1.765c1.348.866 3.01-.385 2.63-1.904l-.823-3.215 2.544-2.115c1.223-1.014.576-2.991-.998-3.096l-3.309-.21-1.16-2.918z" fill="#000" />
</svg>
