<!-- This Source Code Form is subject to the terms of the Mozilla Public
   - License, v. 2.0. If a copy of the MPL was not distributed with this
   - file, You can obtain one at http://mozilla.org/MPL/2.0/. -->
<svg xmlns="http://www.w3.org/2000/svg" width="20" height="20" fill="none">
    <path fill="#000" d="M5.926 17.5c-.254 0-.507-.079-.723-.237a1.225 1.225 0 0 1-.469-1.3l.997-3.915-3.108-2.581a1.22 1.22 0 0 1-.384-1.327 1.225 1.225 0 0 1 1.091-.848l4.032-.262 1.495-3.754A1.22 1.22 0 0 1 10 2.5c.508 0 .956.304 1.144.776l1.495 3.754 4.032.261c.507.033.936.366 1.092.849a1.22 1.22 0 0 1-.386 1.327l-3.108 2.581.997 3.916a1.23 1.23 0 0 1-.469 1.3c-.41.298-.951.316-1.381.045L10 15.149l-3.415 2.159a1.24 1.24 0 0 1-.659.192" />
</svg>
