<!-- This Source Code Form is subject to the terms of the Mozilla Public
   - License, v. 2.0. If a copy of the MPL was not distributed with this
   - file, You can obtain one at http://mozilla.org/MPL/2.0/. -->
<svg xmlns="http://www.w3.org/2000/svg" width="20" height="20" fill="none" viewBox="0 0 20 20">
    <path fill="#000" fill-rule="evenodd" d="M14.398 11.695c.55-1.101.974-1.36 1.456-1.261.423.087.68.846.82 1.178.272.643.501 1.289.634 1.971.09.471.335.818.813.819h.004a.18.18 0 0 1 .162.242c-.102.273-.418.447-.68.549.119.03.471-.04.486.136.01.145-.355.29-.454.338-.927.446-1.78 1.247-2.877 1.106-.477-.063-.825-.398-1.215-.607a.63.63 0 0 0-.592 0c-.39.209-.738.544-1.215.607-1.096.14-1.95-.66-2.876-1.106-.099-.046-.467-.193-.455-.338.016-.177.369-.105.487-.136-.263-.101-.578-.276-.68-.55a.177.177 0 0 1 .162-.24c.48-.002.722-.347.813-.818.133-.684.362-1.328.634-1.972.14-.33.397-1.091.82-1.178.482-.1.908.159 1.456 1.26.446.896.75 1.527.756 1.541v.007l.311-.004h.163l.31.002v-.005s.306-.634.757-1.542m-1.789 3.534c-.223-.717-1.141-.987-1.834-.872-.116.019-.437.131-.423.279v.002c.312.77 1.622 1.17 2.257.59m3.113-.872c-.692-.115-1.609.154-1.833.87.635.581 1.942.18 2.256-.591.014-.148-.307-.26-.423-.28" clip-rule="evenodd" />
    <path fill="#000" fill-rule="evenodd" d="M4.139 4.26a28.7 28.7 0 0 1 7.697-.002A2.514 2.514 0 0 1 14 6.74v2.894a4.6 4.6 0 0 0-.752 1.026 4.5 4.5 0 0 0-.748-1.023V6.74a1 1 0 0 0-.013-.151L9.762 8.863a2.75 2.75 0 0 1-3.522 0L3.512 6.59q-.01.072-.011.147v3.522c0 .5.372.929.866.996 1.045.14 2.693.243 3.876.267-.18.466-.342.96-.463 1.484-1.16-.037-2.643-.134-3.614-.266a2.514 2.514 0 0 1-2.165-2.482V6.736c0-1.243.919-2.308 2.138-2.475M8 5.5c-1.074 0-2.156.065-3.22.193L7.2 7.71a1.25 1.25 0 0 0 1.6 0l2.42-2.017A27 27 0 0 0 8 5.5" clip-rule="evenodd" />
</svg>
