<!-- This Source Code Form is subject to the terms of the Mozilla Public
   - License, v. 2.0. If a copy of the MPL was not distributed with this
   - file, You can obtain one at http://mozilla.org/MPL/2.0/. -->
<svg width="20" height="20" fill="none" xmlns="http://www.w3.org/2000/svg">
    <path fill-rule="evenodd" clip-rule="evenodd" d="M7.287 12.502c.004-.173.034-.34.075-.502H3.604c-.057 0-.104-.043-.104-.097V7.101l4.03 3.234a.753.753 0 0 0 .94 0l4.03-3.234v3.822c.264.158.516.338.749.547.233-.21.486-.39.751-.548V6.097c0-.881-.72-1.597-1.604-1.597H3.604C2.72 4.5 2 5.216 2 6.097v5.807c0 .88.72 1.596 1.604 1.596h3.659a6.301 6.301 0 0 1 .024-.998zM8 8.788 4.525 6h6.95L8 8.788z" fill="#000" />
    <path fill-rule="evenodd" clip-rule="evenodd" d="M17.205 11.589c.46.105.778.53.754 1.007.124.477-.064 2.202-.166 2.475C17.587 16.172 16.699 17 15.635 17a2.06 2.06 0 0 1-1.308-.482v.002l-.348-.292a1.146 1.146 0 0 0-1.491.012l-.232.201c-.38.344-.861.559-1.393.559-1.065 0-1.952-.828-2.16-1.928-.102-.273-.283-2.006-.166-2.475v-.003a.982.982 0 0 1 .755-1.004 3.494 3.494 0 0 1 3.186.87l.143.135a.915.915 0 0 0 1.255 0l.146-.138a3.494 3.494 0 0 1 3.183-.868zm-5.236 2.104c.082.06.155.127.22.202a.43.43 0 0 1 0 .554c-.093.107-.204.2-.329.275-.22.133-.485.21-.77.21-.446 0-.843-.19-1.099-.485a.432.432 0 0 1 0-.554 1.451 1.451 0 0 1 1.099-.485c.333 0 .64.106.88.283zm4.506.752a1.44 1.44 0 0 1-1.088.477c-.442 0-.834-.187-1.088-.477a.42.42 0 0 1 0-.544 1.44 1.44 0 0 1 1.088-.477c.442 0 .834.187 1.088.477a.42.42 0 0 1 0 .544z" fill="#000" />
</svg>
