<!-- This Source Code Form is subject to the terms of the Mozilla Public
   - License, v. 2.0. If a copy of the MPL was not distributed with this
   - file, You can obtain one at http://mozilla.org/MPL/2.0/. -->
<svg xmlns="http://www.w3.org/2000/svg" width="20" height="20" fill="none" viewBox="0 0 20 20">
    <path fill="#000" fill-rule="evenodd" d="M13.107 8.791a1.705 1.705 0 0 1 1.922.008 10.7 10.7 0 0 0 1.936 1.053 1.7 1.7 0 0 1 1.007 1.873l-.238 1.281c-.12.646-.337 1.209-.645 1.675a6.84 6.84 0 0 1-2.162 2.085 1.67 1.67 0 0 1-1.719-.005 6.8 6.8 0 0 1-2.15-2.076c-.31-.47-.526-1.036-.646-1.684l-.24-1.302a1.7 1.7 0 0 1 1.002-1.875q.396-.163.821-.38c.382-.196.757-.416 1.112-.653m.958.96a.47.47 0 0 0-.265.082 13 13 0 0 1-2.146 1.149.445.445 0 0 0-.253.494l.24 1.3c.089.483.243.895.46 1.223a5.54 5.54 0 0 0 1.745 1.69.45.45 0 0 0 .225.061zm1.792 4.51q-.101.135-.216.271a6 6 0 0 0 .404-.537z" clip-rule="evenodd" />
    <path fill="#000" fill-rule="evenodd" d="M4.139 4.262a28.7 28.7 0 0 1 7.697-.003A2.51 2.51 0 0 1 14 6.74v.514a2.95 2.95 0 0 0-1.5.448V6.74c0-.048-.02-.092-.026-.14L9.762 8.863a2.75 2.75 0 0 1-3.522 0L3.525 6.6c-.007.046-.025.089-.025.137v3.522c0 .5.372.93.866.996 1.501.203 3.023.264 4.533.214q.004.228.044.458h.002l.19 1.034c-.378.015-.756.04-1.134.04-1.275 0-2.565-.088-3.835-.26a2.51 2.51 0 0 1-2.165-2.482V6.737c0-1.244.919-2.308 2.138-2.475M8 5.5a27 27 0 0 0-3.208.201L7.2 7.71a1.25 1.25 0 0 0 1.6 0l2.409-2.008A27 27 0 0 0 8 5.501" clip-rule="evenodd" />
</svg>
