<!-- This Source Code Form is subject to the terms of the Mozilla Public
   - License, v. 2.0. If a copy of the MPL was not distributed with this
   - file, You can obtain one at http://mozilla.org/MPL/2.0/. -->
<svg xmlns="http://www.w3.org/2000/svg" width="20" height="20" fill="none">
    <path fill="#000" fill-rule="evenodd" d="M9.042 11.197q-.012-.066-.015-.131L9.02 11H3.604c-.057 0-.104-.043-.104-.097V6.101l4.03 3.234a.75.75 0 0 0 .94 0l4.03-3.234V7.45l.338-.181a2.4 2.4 0 0 1 1.152-.286l.009.001V5.097A1.6 1.6 0 0 0 12.396 3.5H3.604C2.72 3.5 2 4.216 2 5.097v5.807c0 .88.72 1.596 1.604 1.596h5.68zM8 7.788 4.525 5h6.95z" clip-rule="evenodd" />
    <path fill="#000" fill-rule="evenodd" d="M14.006 16.52q-.31 0-.59-.127c-.931-.425-1.786-1.157-2.408-2.064a4.4 4.4 0 0 1-.681-1.688l-.303-1.628c-.113-.6.176-1.198.718-1.488l2.569-1.375a1.4 1.4 0 0 1 1.343.004l2.613 1.391c.569.308.829.907.698 1.604l-.281 1.498a4.3 4.3 0 0 1-.68 1.682c-.619.903-1.473 1.637-2.403 2.063q-.288.129-.595.128m-.028-7.29a.16.16 0 0 0-.075.02l-2.57 1.375a.145.145 0 0 0-.079.157l.303 1.629c.087.463.249.87.481 1.21.497.722 1.17 1.302 1.896 1.634l.07.015-.02-6.04z" clip-rule="evenodd" />
</svg>
