<!-- This Source Code Form is subject to the terms of the Mozilla Public
   - License, v. 2.0. If a copy of the MPL was not distributed with this
   - file, You can obtain one at http://mozilla.org/MPL/2.0/. -->
<svg width="20" height="20" fill="none" xmlns="http://www.w3.org/2000/svg">
    <path fill-rule="evenodd" clip-rule="evenodd" d="M10 2a8 8 0 1 1 0 16 8 8 0 0 1 0-16zm-2.466 8.75A8.959 8.959 0 0 0 10 16.22a8.962 8.962 0 0 0 2.468-5.47H7.534zm-3.99 0a6.504 6.504 0 0 0 4.477 5.441 10.445 10.445 0 0 1-1.994-5.441H3.544zm10.43 0a10.447 10.447 0 0 1-1.995 5.441 6.504 6.504 0 0 0 4.477-5.441h-2.482zM9.999 3.78a8.96 8.96 0 0 0-2.465 5.47h4.933a8.96 8.96 0 0 0-2.468-5.47zm1.981.028a10.447 10.447 0 0 1 1.994 5.442h2.482a6.505 6.505 0 0 0-4.476-5.442zm-3.96 0A6.505 6.505 0 0 0 3.545 9.25h2.483a10.446 10.446 0 0 1 1.994-5.442z" fill="#000" />
</svg>
