<!-- This Source Code Form is subject to the terms of the Mozilla Public
   - License, v. 2.0. If a copy of the MPL was not distributed with this
   - file, You can obtain one at http://mozilla.org/MPL/2.0/. -->
<svg xmlns="http://www.w3.org/2000/svg" width="20" height="20" fill="none" viewBox="0 0 20 20">
    <path fill="#000" fill-rule="evenodd" d="M10 2a8 8 0 1 1 0 16 8 8 0 0 1 0-16m0 7.75c-.728 0-1.568.033-2.497.122L7.5 10a8.97 8.97 0 0 0 2.499 6.22A8.96 8.96 0 0 0 12.5 10l-.004-.13A26 26 0 0 0 10 9.75m-4 .309c-.782.121-1.61.286-2.475.508a6.5 6.5 0 0 0 4.496 5.624A10.45 10.45 0 0 1 6 10.06m7.999 0a10.45 10.45 0 0 1-2.02 6.132 6.5 6.5 0 0 0 4.495-5.623 26 26 0 0 0-2.475-.508M11.98 3.809a10.45 10.45 0 0 1 1.918 4.72 28 28 0 0 1 2.527.485 6.51 6.51 0 0 0-4.445-5.205m-3.96 0A6.51 6.51 0 0 0 3.575 9.01c.885-.213 1.73-.37 2.529-.484a10.45 10.45 0 0 1 1.918-4.72M10 3.779a8.97 8.97 0 0 0-2.346 4.572 27.5 27.5 0 0 1 4.693 0A8.97 8.97 0 0 0 10 3.779" clip-rule="evenodd" />
</svg>
