<!-- This Source Code Form is subject to the terms of the Mozilla Public
   - License, v. 2.0. If a copy of the MPL was not distributed with this
   - file, You can obtain one at http://mozilla.org/MPL/2.0/. -->
<svg xmlns="http://www.w3.org/2000/svg" width="20" height="20" fill="none">
    <path fill="#000" fill-rule="evenodd" d="M10 2a8 8 0 1 1 0 16 8 8 0 0 1 0-16m-2.466 8.75A8.96 8.96 0 0 0 10 16.22a8.96 8.96 0 0 0 2.468-5.47zm-3.99 0a6.5 6.5 0 0 0 4.477 5.441 10.45 10.45 0 0 1-1.994-5.441zm10.43 0a10.45 10.45 0 0 1-1.995 5.441 6.5 6.5 0 0 0 4.477-5.441zM9.999 3.78a8.96 8.96 0 0 0-2.465 5.47h4.933a8.96 8.96 0 0 0-2.468-5.47m1.981.028a10.45 10.45 0 0 1 1.994 5.442h2.482a6.5 6.5 0 0 0-4.476-5.442m-3.96 0A6.5 6.5 0 0 0 3.545 9.25h2.483a10.45 10.45 0 0 1 1.994-5.442z" clip-rule="evenodd" />
</svg>
