<!-- This Source Code Form is subject to the terms of the Mozilla Public
   - License, v. 2.0. If a copy of the MPL was not distributed with this
   - file, You can obtain one at http://mozilla.org/MPL/2.0/. -->
<svg xmlns="http://www.w3.org/2000/svg" width="20" height="20" fill="none" viewBox="0 0 20 20">
    <path fill="#000" d="M11.773 2a1.75 1.75 0 0 1 1.625 2.4L12.358 7h3.365c1.326 0 2 1.596 1.074 2.547l-.001-.001-8.009 8.227A.75.75 0 0 1 8.25 18h-.5a.75.75 0 0 1-.742-.856L7.886 11H5.574a1.5 1.5 0 0 1-1.408-2.017l2.14-5.836A1.75 1.75 0 0 1 7.948 2zM7.948 3.5a.25.25 0 0 0-.234.163v.001L5.574 9.5H8.75a.75.75 0 0 1 .742.856l-.76 5.324 6.99-7.18H11.25a.75.75 0 0 1-.696-1.028l1.451-3.63a.25.25 0 0 0-.232-.342z" />
</svg>
