<!-- This Source Code Form is subject to the terms of the Mozilla Public
   - License, v. 2.0. If a copy of the MPL was not distributed with this
   - file, You can obtain one at http://mozilla.org/MPL/2.0/. -->
<svg xmlns="http://www.w3.org/2000/svg" width="20" height="20" fill="none" viewBox="0 0 20 20">
    <path fill="#000" fill-rule="evenodd" d="M9.826 2.999c.44 0 1.01.03 1.663.14l.229.053c1.109.327 1.675 1.568 1.247 2.633l-.648 1.612c.771.006 1.56.046 2.437.146 1.544.176 2.24 1.96 1.359 3.153l-.09.114-5.5 6.448c-1.308 1.534-3.784.367-3.467-1.608l.531-3.327c-.47-.021-.985-.06-1.534-.133l-.398-.058c-1.243-.194-1.953-1.491-1.534-2.638l1.685-4.596a2.7 2.7 0 0 1 1.973-1.725 10 10 0 0 1 2.047-.214m0 1.5a8.5 8.5 0 0 0-1.35.108l-.387.073a1.2 1.2 0 0 0-.875.774L5.53 10.05a.48.48 0 0 0 .357.64c.985.154 1.859.198 2.574.196a.75.75 0 0 1 .742.869l-.667 4.173c-.08.495.533.763.846.396l5.5-6.448a.49.49 0 0 0-.232-.79l-.066-.013a21 21 0 0 0-2.466-.137q-.452 0-.89.015l-.024.001a.75.75 0 0 1-.697-1.03l1.066-2.655.03-.112a.48.48 0 0 0-.27-.509l-.095-.028A8.4 8.4 0 0 0 9.827 4.5" clip-rule="evenodd" />
</svg>
