<!-- This Source Code Form is subject to the terms of the Mozilla Public
   - License, v. 2.0. If a copy of the MPL was not distributed with this
   - file, You can obtain one at http://mozilla.org/MPL/2.0/. -->
<svg xmlns="http://www.w3.org/2000/svg" width="20" height="20" fill="none" viewBox="0 0 20 20">
    <path fill="#000" fill-rule="evenodd" d="M10 2a4 4 0 0 1 4 4v2.312a2.75 2.75 0 0 1 2 2.646v4.084a2.755 2.755 0 0 1-2.415 2.732 28.5 28.5 0 0 1-7.2-.005C5.01 17.595 4 16.41 4 15.043v-4.084a2.75 2.75 0 0 1 2-2.645V6a4 4 0 0 1 4-4m0 7.5a27 27 0 0 0-3.396.214A1.255 1.255 0 0 0 5.5 10.958v4.084c0 .63.468 1.163 1.075 1.24a27 27 0 0 0 6.821.004 1.255 1.255 0 0 0 1.104-1.244v-4.084c0-.63-.467-1.163-1.074-1.24A27 27 0 0 0 10 9.5m0-6A2.5 2.5 0 0 0 7.5 6v2.111a28.6 28.6 0 0 1 5 0V6A2.5 2.5 0 0 0 10 3.5" clip-rule="evenodd" />
</svg>
