<!-- This Source Code Form is subject to the terms of the Mozilla Public
   - License, v. 2.0. If a copy of the MPL was not distributed with this
   - file, You can obtain one at http://mozilla.org/MPL/2.0/. -->
<svg width="20" height="20" fill="none" xmlns="http://www.w3.org/2000/svg">
    <path fill-rule="evenodd" clip-rule="evenodd" d="M8.963 18.436h8.574a1.25 1.25 0 0 0 1.085-1.87l-4.285-7.499a1.252 1.252 0 0 0-2.174 0l-4.285 7.499a1.25 1.25 0 0 0 1.085 1.87zM14 11.5h-1.5v2.75H14V11.5zm0 4h-1.5V17H14v-1.5zM3 7V5a3 3 0 1 1 6 0v2h.25c.69 0 1.25.56 1.25 1.25v1.711L8.192 14H2.75c-.69 0-1.25-.56-1.25-1.25v-4.5C1.5 7.56 2.06 7 2.75 7H3zm1.25-2a1.75 1.75 0 1 1 3.5 0v2h-3.5V5z" fill="#000" />
</svg>
