<svg width="20" height="20" viewBox="0 0 20 20" fill="none" xmlns="http://www.w3.org/2000/svg">
<path d="M4.16667 13.9583C4.16667 14.9698 4.90629 15.823 5.82296 15.823L10 15.8333V17.5H5.91665C4.0302 17.5 2.50001 15.9698 2.5 14.0834V12.0833H4.16667V13.9583Z" fill="black"/>
<path d="M15.0073 13.3333C15.9278 13.3333 16.674 14.0795 16.674 15C16.674 15.9205 15.9278 16.6667 15.0073 16.6667C14.0868 16.6667 13.3407 15.9205 13.3407 15C13.3407 14.0795 14.0868 13.3333 15.0073 13.3333Z" fill="black"/>
<path d="M10.0073 8.33333C11.388 8.33333 12.5073 9.45262 12.5073 10.8333C12.5073 12.214 11.388 13.3333 10.0073 13.3333C8.62661 13.3333 7.50732 12.214 7.50732 10.8333C7.50732 9.45262 8.62661 8.33333 10.0073 8.33333Z" fill="black"/>
<path d="M11.6667 2.5L12.9167 4.16667H14.0834C15.9698 4.16668 17.5 5.69687 17.5 7.58331V10.8333H15.8333V7.70833C15.8333 6.69688 15.0833 5.83333 14.1667 5.83333H5.83333C4.91667 5.83333 4.16667 6.69688 4.16667 7.70833V9.58333H2.5V7.58331C2.50001 5.69687 4.0302 4.16668 5.91665 4.16667H7.08333L8.33333 2.5H11.6667Z" fill="black"/>
</svg>
