<!-- This Source Code Form is subject to the terms of the Mozilla Public
   - License, v. 2.0. If a copy of the MPL was not distributed with this
   - file, You can obtain one at http://mozilla.org/MPL/2.0/. -->
<svg xmlns="http://www.w3.org/2000/svg" width="20" height="20" fill="none" viewBox="0 0 20 20">
    <path fill="#000" d="M4.167 13.958c0 1.012.74 1.865 1.656 1.865l4.177.01V17.5H5.917A3.417 3.417 0 0 1 2.5 14.083v-2h1.667zm10.84-.625a1.667 1.667 0 1 1 0 3.334 1.667 1.667 0 0 1 0-3.334m-5-5a2.5 2.5 0 1 1 0 5 2.5 2.5 0 0 1 0-5" />
    <path fill="#000" d="m11.667 2.5 1.25 1.667h1.166A3.417 3.417 0 0 1 17.5 7.583v3.25h-1.667V7.708c0-1.011-.75-1.875-1.666-1.875H5.833c-.916 0-1.666.864-1.666 1.875v1.875H2.5v-2a3.417 3.417 0 0 1 3.417-3.416h1.166L8.333 2.5z" />
</svg>
