<!-- This Source Code Form is subject to the terms of the Mozilla Public
   - License, v. 2.0. If a copy of the MPL was not distributed with this
   - file, You can obtain one at http://mozilla.org/MPL/2.0/. -->
<svg xmlns="http://www.w3.org/2000/svg" width="20" height="20" fill="none" viewBox="0 0 20 20">
    <path fill="#000" d="M15.303 9.008a.75.75 0 0 1 .637.848 6 6 0 0 1-5.19 5.096V16.5h2.5a.75.75 0 0 1 0 1.5h-6.5a.75.75 0 0 1 0-1.5h2.5v-1.548a6 6 0 0 1-5.19-5.095.75.75 0 1 1 1.485-.212 4.502 4.502 0 0 0 8.91-.001.75.75 0 0 1 .848-.636" />
    <path fill="#000" fill-rule="evenodd" d="M10 2c1.736 0 3.22 1.3 3.4 3.046l.042.464a19 19 0 0 1-.036 3.375C13.233 10.633 11.782 12 10.002 12c-1.736 0-3.22-1.3-3.4-3.046L6.56 8.49a19 19 0 0 1 .035-3.375C6.768 3.367 8.219 2 9.999 2m0 1.5c-.924 0-1.71.667-1.886 1.58l-.028.185A17.4 17.4 0 0 0 8.093 8.8a1.91 1.91 0 0 0 1.908 1.7c.985 0 1.813-.759 1.913-1.765l.04-.47a17.5 17.5 0 0 0-.046-3.065 1.91 1.91 0 0 0-1.909-1.7" clip-rule="evenodd" />
</svg>
