<!-- This Source Code Form is subject to the terms of the Mozilla Public
   - License, v. 2.0. If a copy of the MPL was not distributed with this
   - file, You can obtain one at http://mozilla.org/MPL/2.0/. -->
<svg width="20" height="20" fill="none" xmlns="http://www.w3.org/2000/svg"><path d="M10 18c-4.411 0-8-3.589-8-8s3.589-8 8-8 8 3.589 8 8-3.589 8-8 8z" fill="#000"/><path d="M14.957 8.51a1.02 1.02 0 0 0-.793-1.046 3.714 3.714 0 0 0-3.351.902l-.154.143a.968.968 0 0 1-1.321 0l-.15-.14a3.712 3.712 0 0 0-3.354-.905c-.482.11-.817.549-.794 1.043v.003c-.123.488.067 2.287.175 2.571.217 1.144 1.152 2.004 2.272 2.004.56 0 1.066-.223 1.467-.581l.244-.209a1.219 1.219 0 0 1 1.57-.012l.366.303v-.002c.386.31.859.5 1.377.5 1.12 0 2.055-.86 2.272-2.004.107-.283.304-2.075.174-2.57zm-6.083 2.001c-.32.387-.816.637-1.374.637a1.775 1.775 0 0 1-1.374-.637.587.587 0 0 1 0-.727c.32-.387.816-.636 1.374-.636.558 0 1.054.249 1.374.637a.586.586 0 0 1 0 .726zm5 0c-.32.387-.816.637-1.374.637a1.775 1.775 0 0 1-1.374-.637.587.587 0 0 1 0-.727c.32-.387.816-.637 1.374-.637.558 0 1.054.249 1.374.637a.587.587 0 0 1 0 .727z" fill="#fff"/></svg>
