<!-- This Source Code Form is subject to the terms of the Mozilla Public
   - License, v. 2.0. If a copy of the MPL was not distributed with this
   - file, You can obtain one at http://mozilla.org/MPL/2.0/. -->
<svg xmlns="http://www.w3.org/2000/svg" width="20" height="20" fill="none">
    <path fill="#000" d="M1.5 10c0 4.686 3.814 8.5 8.5 8.5s8.5-3.814 8.5-8.5-3.814-8.5-8.5-8.5S1.5 5.314 1.5 10" />
    <path fill="#fff" fill-rule="evenodd" d="M12.49 6.99h1.28c.67 0 1.21.54 1.21 1.21v2c0 1.01-.5 1.95-1.34 2.51l-.16.11c-.2.13-.43.2-.67.2h-.34c-.25 0-.49-.08-.7-.23l-1.13-.81a.9.9 0 0 0-.52-.17h-.28c-.19 0-.37.06-.52.17l-1.13.81c-.2.15-.45.23-.7.23h-.34c-.24 0-.47-.07-.67-.2l-.16-.11a3.01 3.01 0 0 1-1.34-2.51v-2c0-.67.54-1.21 1.21-1.21h1.3c.71 0 1.37.32 1.81.87.17.21.42.33.69.33s.52-.12.69-.33c.44-.55 1.11-.87 1.81-.87m-3.62 3.2c-.32.36-.82.59-1.37.59s-1.05-.23-1.37-.59a.52.52 0 0 1 0-.68c.32-.36.82-.59 1.37-.59s1.05.23 1.37.59c.17.19.17.49 0 .68m2.26 0c.32.36.82.59 1.37.59s1.05-.23 1.37-.59c.17-.19.17-.49 0-.68-.32-.36-.82-.59-1.37-.59s-1.05.23-1.37.59c-.17.19-.17.49 0 .68" clip-rule="evenodd" />
</svg>
