<!-- This Source Code Form is subject to the terms of the Mozilla Public
   - License, v. 2.0. If a copy of the MPL was not distributed with this
   - file, You can obtain one at http://mozilla.org/MPL/2.0/. -->
<svg xmlns="http://www.w3.org/2000/svg" width="20" height="20" fill="none" viewBox="0 0 20 20">
    <path fill="#000" d="M10 18c-4.411 0-8-3.589-8-8s3.589-8 8-8 8 3.589 8 8-3.589 8-8 8" />
    <path fill="#fff" d="M15.788 10.619c-.57 0-.86-.412-.968-.972-.157-.812-.43-1.579-.754-2.344-.166-.394-.471-1.298-.974-1.401-.573-.119-1.078.19-1.73 1.499-.538 1.08-.9 1.832-.9 1.832v.007l-.37-.004h-.184l-.01.002-.368.004v-.008s-.363-.754-.9-1.831c-.651-1.31-1.158-1.618-1.73-1.5-.504.104-.809 1.01-.975 1.402-.324.765-.597 1.53-.754 2.344-.109.56-.397.97-.967.972a.21.21 0 0 0-.193.286c.121.326.496.533.808.653-.14.037-.56-.048-.578.162-.015.172.423.346.54.402 1.103.53 2.117 1.482 3.42 1.314.567-.074.98-.473 1.445-.721a.75.75 0 0 1 .703 0c.464.248.878.647 1.444.72 1.304.169 2.318-.783 3.42-1.313.118-.058.554-.23.54-.402-.016-.208-.435-.125-.577-.162.312-.12.686-.327.808-.653a.213.213 0 0 0-.193-.286zm-9.237.279c-.016-.176.365-.31.504-.333.823-.136 1.914.185 2.18 1.037-.757.69-2.313.215-2.684-.702zm4.204.704c.266-.852 1.356-1.174 2.18-1.037.138.023.52.157.503.333-.372.917-1.927 1.394-2.683.702z" />
</svg>
