<!-- This Source Code Form is subject to the terms of the Mozilla Public
   - License, v. 2.0. If a copy of the MPL was not distributed with this
   - file, You can obtain one at http://mozilla.org/MPL/2.0/. -->
<svg xmlns="http://www.w3.org/2000/svg" width="16" height="16" fill="none" viewBox="0 0 16 16">
    <g clip-path="url(#clip0_4264_661)">
        <path fill="#b833e1" d="M8 16A8 8 0 1 0 8 0a8 8 0 0 0 0 16" />
        <path fill="#fff" d="M11.87 8.51c-.32.39-.82.64-1.37.64s-1.05-.25-1.37-.64a.586.586 0 0 1 0-.73c.32-.39.82-.64 1.37-.64s1.05.25 1.37.64c.17.2.17.52 0 .73m-5 0c-.32.39-.82.64-1.37.64s-1.05-.25-1.37-.64a.586.586 0 0 1 0-.73c.32-.39.82-.64 1.37-.64s1.05.25 1.37.64c.17.2.17.52 0 .73m6.08-2c.02-.49-.31-.94-.79-1.05-1.2-.27-2.45.07-3.35.9l-.15.14a.965.965 0 0 1-1.32 0l-.15-.14a3.71 3.71 0 0 0-3.35-.91c-.48.11-.82.55-.79 1.04-.12.49.07 2.29.17 2.57.22 1.14 1.15 2 2.27 2 .56 0 1.07-.22 1.47-.58l.24-.21c.45-.39 1.11-.39 1.57-.01l.37.3c.39.31.86.5 1.38.5 1.12 0 2.06-.86 2.27-2 .11-.28.3-2.07.17-2.57z" />
    </g>
</svg>
