<svg width="20" height="20" viewBox="0 0 20 20" fill="none" xmlns="http://www.w3.org/2000/svg">
<path fill-rule="evenodd" clip-rule="evenodd" d="M6 4.5C5.72421 4.5 5.5 4.72421 5.5 5V16C5.5 16.2758 5.72421 16.5 6 16.5H14C14.2758 16.5 14.5 16.2758 14.5 16V5C14.5 4.72421 14.2758 4.5 14 4.5H6ZM4 5C4 3.89579 4.89579 3 6 3H14C15.1042 3 16 3.89579 16 5V16C16 17.1042 15.1042 18 14 18H6C4.89579 18 4 17.1042 4 16V5ZM7.5 6.5H12.5V8H7.5V6.5ZM7.5 9.5H12.5V11H7.5V9.5ZM7.5 12.5H10.5V14H7.5V12.5Z" fill="black"/>
</svg>
