<!-- This Source Code Form is subject to the terms of the Mozilla Public
   - License, v. 2.0. If a copy of the MPL was not distributed with this
   - file, You can obtain one at http://mozilla.org/MPL/2.0/. -->
<svg xmlns="http://www.w3.org/2000/svg" width="20" height="20" fill="none" viewBox="0 0 20 20">
    <path fill="#000" d="M13.956 11.116a5.4 5.4 0 0 1 2.004-.04.87.87 0 0 1 .618.44c.135.241.153.527.05.783l-.479 1.194c.563-.007 1.103.017 1.654.08a.88.88 0 0 1 .73.562.91.91 0 0 1-.154.926l-3.087 3.62a.89.89 0 0 1-.678.32V19a.9.9 0 0 1-.387-.086.89.89 0 0 1-.515-.966l.336-2.1a10 10 0 0 1-1.296-.116.88.88 0 0 1-.625-.427.9.9 0 0 1-.07-.773l.945-2.58a1.3 1.3 0 0 1 .954-.835" />
    <path fill="#000" d="M5.416 1.225c2.386-.301 4.825-.3 7.2.004A2.75 2.75 0 0 1 15 3.957v5.547c-.456.004-.912.05-1.355.144-.051.01-.095.037-.145.05v-5.74c0-.63-.462-1.162-1.075-1.24a27 27 0 0 0-6.822-.004 1.26 1.26 0 0 0-1.103 1.243v10.085c0 .63.462 1.162 1.075 1.24 1.653.212 3.339.266 5.013.168.056.213.131.42.245.615l.001-.001c.197.334.472.6.79.8-.874.08-1.752.134-2.624.134-1.205 0-2.421-.076-3.614-.228A2.75 2.75 0 0 1 3 14.04V3.957a2.76 2.76 0 0 1 2.415-2.731" />
    <path fill="#000" d="M9.25 11.25a.75.75 0 0 1 0 1.5h-2.5a.75.75 0 0 1 0-1.5zM11.25 8.25a.75.75 0 0 1 0 1.5h-4.5a.75.75 0 0 1 0-1.5zM11.25 5.25a.75.75 0 0 1 0 1.5h-4.5a.75.75 0 0 1 0-1.5z" />
</svg>
