<svg xmlns="http://www.w3.org/2000/svg" width="20" height="20" fill="none" viewBox="0 0 20 20"><path fill="#000" d="M10.25 12.25a.75.75 0 0 1 0 1.5h-2.5a.75.75 0 0 1 0-1.5zm2-3a.75.75 0 0 1 0 1.5h-4.5a.75.75 0 0 1 0-1.5zm0-3a.75.75 0 0 1 0 1.5h-4.5a.75.75 0 0 1 0-1.5z"/><path fill="#000" fill-rule="evenodd" d="M10 2c1.054 0 2.271.059 3.615.23v.001C14.988 2.406 16 3.591 16 4.958v10.084a2.755 2.755 0 0 1-2.415 2.732 28.5 28.5 0 0 1-7.2-.005C5.01 17.595 4 16.41 4 15.043V4.958a2.755 2.755 0 0 1 2.415-2.732A29 29 0 0 1 10 2m0 1.5a27 27 0 0 0-3.396.214A1.255 1.255 0 0 0 5.5 4.958v10.084c0 .63.468 1.163 1.075 1.24a27 27 0 0 0 6.821.004 1.255 1.255 0 0 0 1.104-1.244V4.958c0-.63-.467-1.163-1.074-1.24A27 27 0 0 0 10 3.5" clip-rule="evenodd"/></svg>