<!-- This Source Code Form is subject to the terms of the Mozilla Public
   - License, v. 2.0. If a copy of the MPL was not distributed with this
   - file, You can obtain one at http://mozilla.org/MPL/2.0/. -->
<svg xmlns="http://www.w3.org/2000/svg" width="20" height="20" fill="none" viewBox="0 0 20 20">
    <path fill="#000" fill-rule="evenodd" d="M6 4.5a.5.5 0 0 0-.5.5v11a.5.5 0 0 0 .5.5h8a.5.5 0 0 0 .5-.5V5a.5.5 0 0 0-.5-.5zM4 5a2 2 0 0 1 2-2h8a2 2 0 0 1 2 2v11a2 2 0 0 1-2 2H6a2 2 0 0 1-2-2zm3.5 1.5h5V8h-5zm0 3h5V11h-5zm0 3h3V14h-3z" clip-rule="evenodd" />
</svg>
