<svg xmlns="http://www.w3.org/2000/svg" width="20" height="20" fill="none" viewBox="0 0 20 20"><path fill="#000" d="M7 8.631c-.472.037-.946.068-1.414.122A1.24 1.24 0 0 0 4.5 9.993v5.01c0 .637.476 1.173 1.11 1.245a38.6 38.6 0 0 0 8.804-.003 1.24 1.24 0 0 0 1.086-1.24V9.996c0-.638-.476-1.174-1.11-1.246-.46-.053-.926-.083-1.39-.119V7.127c.522.04 1.044.075 1.562.134A2.75 2.75 0 0 1 17 9.996v5.009a2.74 2.74 0 0 1-2.414 2.73 40 40 0 0 1-9.148.003A2.753 2.753 0 0 1 3 15.002V9.993a2.74 2.74 0 0 1 2.414-2.73C5.94 7.202 6.47 7.166 7 7.126z"/><path fill="#000" d="M9.667 2.138a.47.47 0 0 1 .666 0l2.528 2.528a.471.471 0 0 1-.333.805H10.75v6.28a.75.75 0 0 1-1.5 0V5.47H7.472a.472.472 0 0 1-.333-.805z"/></svg>