<!-- This Source Code Form is subject to the terms of the Mozilla Public
   - License, v. 2.0. If a copy of the MPL was not distributed with this
   - file, You can obtain one at http://mozilla.org/MPL/2.0/. -->
<svg xmlns="http://www.w3.org/2000/svg" width="20" height="20" fill="none" viewBox="0 0 20 20">
    <path fill="#000" fill-rule="evenodd" d="M8.432 3.474a2.77 2.77 0 0 1 3.116.012 20.4 20.4 0 0 0 3.679 2.002 2.75 2.75 0 0 1 1.627 3.03l-.444 2.387c-.212 1.143-.595 2.141-1.138 2.965-1.01 1.533-2.392 2.866-3.892 3.755-.423.251-.9.376-1.375.376-.484 0-.97-.129-1.403-.387-1.49-.886-2.864-2.213-3.87-3.738-.543-.826-.928-1.828-1.141-2.981L3.145 8.47c-.234-1.27.447-2.545 1.618-3.033a22 22 0 0 0 3.669-1.964m4.348 5.561a.75.75 0 0 0-1.061 0l-2.36 2.36-1.079-1.077a.75.75 0 0 0-1.061 1.061l1.255 1.255c.236.236.55.366.885.366.333 0 .647-.13.883-.366l2.538-2.538a.75.75 0 0 0 0-1.06" clip-rule="evenodd" />
</svg>
