<!-- This Source Code Form is subject to the terms of the Mozilla Public
   - License, v. 2.0. If a copy of the MPL was not distributed with this
   - file, You can obtain one at http://mozilla.org/MPL/2.0/. -->
<svg width="20" height="20" fill="none" xmlns="http://www.w3.org/2000/svg">
    <path d="m13.645 8.528-3.474 3.474a.751.751 0 0 1-1.061 0L6.942 9.833l1.06-1.06L9.64 10.41l2.945-2.943 1.06 1.06z" fill="#000" />
    <path fill-rule="evenodd" clip-rule="evenodd" d="M8.748 2.304a2.5 2.5 0 0 1 2.375-.003l4.845 2.606a2.502 2.502 0 0 1 1.273 2.66l-.553 2.974c-.199 1.074-.565 2.153-1.188 3.099-1.043 1.582-2.435 2.931-3.954 3.856l-.305.18a2.521 2.521 0 0 1-2.479 0c-1.636-.925-3.145-2.346-4.257-4.031-.626-.95-.992-2.034-1.19-3.112L2.757 7.51l-.029-.2a2.5 2.5 0 0 1 1.298-2.452l4.72-2.555zm1.665 1.317a1 1 0 0 0-.95.001v.001L4.74 6.178a1 1 0 0 0-.508 1.06l.557 3.022c.173.94.48 1.82.967 2.559.989 1.498 2.325 2.75 3.743 3.551l.119.058c.285.115.611.096.884-.058l.264-.155c1.32-.804 2.554-1.994 3.48-3.4.486-.736.793-1.613.966-2.547l.553-2.976a1 1 0 0 0-.51-1.063L10.414 3.62z" fill="#000" />
</svg>
