<!-- This Source Code Form is subject to the terms of the Mozilla Public
   - License, v. 2.0. If a copy of the MPL was not distributed with this
   - file, You can obtain one at http://mozilla.org/MPL/2.0/. -->
<svg xmlns="http://www.w3.org/2000/svg" width="20" height="20" fill="none">
    <path fill="#000" fill-rule="evenodd" d="m18.001 16.94-1.06 1.061-2.735-2.734c-.88.969-1.889 1.8-2.965 2.41a2.5 2.5 0 0 1-1.239.323c-.429 0-.857-.108-1.24-.324-1.642-.928-3.153-2.36-4.256-4.031-.569-.862-.97-1.91-1.19-3.114L2.757 7.51a2.495 2.495 0 0 1 1.124-2.568L2 3.061 3.06 2zM4.741 6.177a1 1 0 0 0-.509 1.062l.556 3.02c.186 1.005.51 1.867.969 2.56.974 1.477 2.303 2.738 3.742 3.552.31.175.693.174 1.003 0 .958-.543 1.862-1.289 2.647-2.161L4.983 6.044l-.243.133z" clip-rule="evenodd" />
    <path fill="#000" d="M8.751 2.303a2.49 2.49 0 0 1 2.374-.003l4.846 2.607a2.49 2.49 0 0 1 1.272 2.658l-.553 2.975a8.9 8.9 0 0 1-.833 2.486l-1.13-1.128a7.8 7.8 0 0 0 .488-1.631l.553-2.976a1 1 0 0 0-.51-1.063L10.414 3.62a1 1 0 0 0-.951.002L7.509 4.68 6.403 3.573z" />
</svg>
