<!-- This Source Code Form is subject to the terms of the Mozilla Public
   - License, v. 2.0. If a copy of the MPL was not distributed with this
   - file, You can obtain one at http://mozilla.org/MPL/2.0/. -->
<svg xmlns="http://www.w3.org/2000/svg" width="20" height="20" fill="none" viewBox="0 0 20 20">
    <path fill="#000" d="M11.22 8.22a.75.75 0 1 1 1.06 1.06l-1.22 1.22 1.22 1.22a.75.75 0 0 1-1.06 1.06L10 11.56l-1.22 1.22a.75.75 0 0 1-1.06-1.06l1.22-1.22-1.22-1.22a.75.75 0 0 1 1.06-1.06L10 9.44z" />
    <path fill="#000" fill-rule="evenodd" d="M8.613 3.36a2.77 2.77 0 0 1 2.935.125l.402.268q.412.27.87.537l.469.265.502.266q.747.38 1.436.666l.22.102c.989.519 1.55 1.59 1.442 2.691l-.035.237-.443 2.386c-.19 1.027-.542 2.06-1.139 2.966h-.002c-1.022 1.551-2.395 2.869-3.89 3.754a2.73 2.73 0 0 1-2.779-.01c-1.486-.885-2.85-2.195-3.869-3.738-.6-.91-.95-1.95-1.14-2.981L3.145 8.47c-.215-1.168.337-2.372 1.399-2.93l.22-.104a21 21 0 0 0 1.558-.724h.001a22 22 0 0 0 2.11-1.24zm2.085 1.36a1.26 1.26 0 0 0-1.262-.098l-.171.098c-.666.443-1.42.896-2.257 1.326h-.001a23 23 0 0 1-1.667.775c-.518.216-.827.789-.719 1.376l.446 2.425c.164.892.457 1.729.917 2.427.9 1.363 2.102 2.511 3.385 3.274.387.23.87.232 1.246.01 1.29-.765 2.501-1.92 3.404-3.29.46-.696.752-1.527.916-2.414h.001l.444-2.387c.1-.545-.162-1.08-.632-1.326l-.097-.045a21.7 21.7 0 0 1-3.953-2.151" clip-rule="evenodd" />
</svg>
