<!-- This Source Code Form is subject to the terms of the Mozilla Public
   - License, v. 2.0. If a copy of the MPL was not distributed with this
   - file, You can obtain one at http://mozilla.org/MPL/2.0/. -->
<svg xmlns="http://www.w3.org/2000/svg" width="20" height="20" fill="none" viewBox="0 0 20 20">
    <path fill="#000" d="M7.036 15a1 1 0 0 1-.605-.208.97.97 0 0 1-.352-1.024l.754-2.958a12.4 12.4 0 0 1-2.53-1.85.96.96 0 0 1-.242-1.035.98.98 0 0 1 .872-.658l3.115-.202 1.034-2.599a.97.97 0 0 1 .919-.623c.414 0 .766.239.919.623l1.034 2.599 3.115.202a.985.985 0 0 1 .872.658.96.96 0 0 1-.242 1.035q-.257.243-.546.488c-.615.517-1.281.974-1.984 1.362l.754 2.958a.97.97 0 0 1-.352 1.024.99.99 0 0 1-1.101.077 14 14 0 0 1-2.333-1.639.2.2 0 0 0-.271 0 14.2 14.2 0 0 1-2.333 1.639 1 1 0 0 1-.496.132z" />
    <path fill="#000" d="M10 13.176a.2.2 0 0 0-.136.053 14.2 14.2 0 0 1-2.333 1.639.99.99 0 0 1-1.101-.076.97.97 0 0 1-.352-1.024l.754-2.958a12.4 12.4 0 0 1-2.53-1.85.96.96 0 0 1-.242-1.035.98.98 0 0 1 .872-.658l3.115-.202 1.034-2.599a.97.97 0 0 1 .92-.623v9.335z" />
</svg>
