<svg width="20" height="20" viewBox="0 0 20 20" fill="none" xmlns="http://www.w3.org/2000/svg">
<path d="M9.99973 13.176C9.95187 13.1761 9.90487 13.1939 9.86398 13.2287C9.47003 13.5707 9.04891 13.8946 8.61496 14.1936C8.26996 14.4306 7.90498 14.6584 7.53098 14.8684C7.37404 14.9563 7.2038 15.0002 7.03488 15.0002C6.82206 15.0002 6.61028 14.93 6.43039 14.7922C6.11439 14.5492 5.97885 14.1568 6.07785 13.7678L6.83176 10.8098C6.12903 10.4219 5.46315 9.96524 4.84836 9.44846C4.65448 9.28556 4.47337 9.12208 4.30246 8.96017C4.01946 8.69117 3.92627 8.29502 4.06027 7.92502C4.19728 7.54504 4.53136 7.29281 4.93234 7.26682L8.0466 7.06467L9.08078 4.46603C9.23374 4.08213 9.58586 3.84311 9.99973 3.84299V13.176Z" fill="black"/>
</svg>
