<svg xmlns="http://www.w3.org/2000/svg" width="20" height="20" fill="none" viewBox="0 0 20 20"><path fill="#000" d="M10 3.843c.415 0 .767.24.92.623l1.034 2.599 3.115.202a.985.985 0 0 1 .872.658.96.96 0 0 1-.242 1.035q-.257.243-.546.488c-.615.517-1.281.974-1.984 1.362l.754 2.958a.97.97 0 0 1-.352 1.024.99.99 0 0 1-1.1.077 14.2 14.2 0 0 1-2.333-1.64.2.2 0 0 0-.272 0 14 14 0 0 1-2.333 1.64 1 1 0 0 1-.496.132h-.001a1 1 0 0 1-.605-.209.97.97 0 0 1-.352-1.024l.754-2.958a12.4 12.4 0 0 1-2.53-1.85.96.96 0 0 1-.242-1.035.98.98 0 0 1 .872-.658l3.115-.202 1.034-2.599A.97.97 0 0 1 10 3.843"/></svg>