<!-- This Source Code Form is subject to the terms of the Mozilla Public
   - License, v. 2.0. If a copy of the MPL was not distributed with this
   - file, You can obtain one at http://mozilla.org/MPL/2.0/. -->
<svg xmlns="http://www.w3.org/2000/svg" width="20" height="20" fill="none" viewBox="0 0 20 20">
    <path fill="#000" d="M10 15a.75.75 0 0 1 .75.75v1.5a.75.75 0 0 1-1.5 0v-1.5A.75.75 0 0 1 10 15m3.536-1.464a.75.75 0 0 1 1.06 0l1.062 1.06a.752.752 0 0 1-1.061 1.062l-1.06-1.061a.75.75 0 0 1 0-1.06m-8.134-.001a.751.751 0 0 1 1.062 1.06l-1.062 1.062a.75.75 0 0 1-1.06-1.061zM10 6.5c1.93 0 3.5 1.57 3.5 3.5s-1.57 3.5-3.5 3.5-3.5-1.57-3.5-3.5S8.07 6.5 10 6.5M4.25 9.25a.75.75 0 0 1 0 1.5h-1.5a.75.75 0 0 1 0-1.5zm13 0a.75.75 0 0 1 0 1.5h-1.5a.75.75 0 0 1 0-1.5zM4.343 4.343a.75.75 0 0 1 1.06 0l1.062 1.06a.751.751 0 0 1-1.062 1.062l-1.06-1.062a.75.75 0 0 1 0-1.06m10.254 0a.751.751 0 0 1 1.061 1.06l-1.061 1.062a.75.75 0 0 1-1.06-1.062zM10 2a.75.75 0 0 1 .75.75v1.5a.75.75 0 0 1-1.5 0v-1.5A.75.75 0 0 1 10 2" />
</svg>
