<!-- This Source Code Form is subject to the terms of the Mozilla Public
   - License, v. 2.0. If a copy of the MPL was not distributed with this
   - file, You can obtain one at http://mozilla.org/MPL/2.0/. -->
<svg xmlns="http://www.w3.org/2000/svg" width="20" height="20" fill="none" viewBox="0 0 20 20">
    <path fill="#000" fill-rule="evenodd" d="M16 8a2 2 0 0 1 2 2v6a2 2 0 0 1-2 2h-3a2 2 0 0 1-2-2v-6a2 2 0 0 1 2-2zm-3 1.5a.5.5 0 0 0-.5.5v5.5h4V10a.5.5 0 0 0-.5-.5z" clip-rule="evenodd" />
    <path fill="#000" d="M15 2a2 2 0 0 1 2 2v2.5h-1.5V4a.5.5 0 0 0-.5-.5H5a.5.5 0 0 0-.5.5v7a.5.5 0 0 0 .5.5h4.5v3H2V13h3a2 2 0 0 1-2-2V4a2 2 0 0 1 2-2z" />
</svg>
