<!-- This Source Code Form is subject to the terms of the Mozilla Public
   - License, v. 2.0. If a copy of the MPL was not distributed with this
   - file, You can obtain one at http://mozilla.org/MPL/2.0/. -->
<svg xmlns="http://www.w3.org/2000/svg" width="20" height="20" fill="none" viewBox="0 0 20 20">
    <path fill="#000" fill-rule="evenodd" d="M14.5 7.999c.717 0 1.377.048 1.969.122l.163.028A1.75 1.75 0 0 1 18 9.86v6.277c0 .905-.688 1.636-1.556 1.742a16 16 0 0 1-3.456.047l-.457-.05A1.75 1.75 0 0 1 11 16.137V9.858c0-.905.688-1.636 1.556-1.742a16 16 0 0 1 1.944-.118m0 1.5c-.388 0-.819.015-1.284.056l-.478.051a.264.264 0 0 0-.238.253v5.64h4V9.862a.25.25 0 0 0-.173-.242l-.044-.01A15 15 0 0 0 14.5 9.5" clip-rule="evenodd" />
    <path fill="#000" d="M5.415 2.264a40.2 40.2 0 0 1 9.147-.003A2.75 2.75 0 0 1 17 4.997V6.5h-1.5V4.997c0-.638-.477-1.175-1.11-1.247a38.6 38.6 0 0 0-8.804.004A1.24 1.24 0 0 0 4.5 4.994v5.011c0 .637.47 1.172 1.09 1.242a38 38 0 0 0 3.91.252v3H2.75a.75.75 0 0 1 0-1.5h6.74a40 40 0 0 1-4.073-.261A2.743 2.743 0 0 1 3 10.005V4.994a2.74 2.74 0 0 1 2.415-2.73" />
</svg>
