<!-- This Source Code Form is subject to the terms of the Mozilla Public
   - License, v. 2.0. If a copy of the MPL was not distributed with this
   - file, You can obtain one at http://mozilla.org/MPL/2.0/. -->
<svg xmlns="http://www.w3.org/2000/svg" width="20" height="20" fill="none" viewBox="0 0 20 20">
    <path fill="#000" d="M17.201 16.558a.742.742 0 0 0 1.398-.473l-.015-.055-.023-.063-3.187-7.509a.75.75 0 0 0-.69-.457h-.829a.75.75 0 0 0-.69.457l-1.848 4.353s-.005-.009-.01-.01a10.8 10.8 0 0 1-3.263-2.2 12.4 12.4 0 0 0 2.539-4.185l.431-1.213 1.225.132a.742.742 0 1 0 0-1.484 42 42 0 0 0-4.445-.329l-.044-.02v-.75a.75.75 0 0 0-1.5 0v.75l.036.017c-1.507.027-3.01.143-4.502.334a.74.74 0 0 0 .002 1.481l.062-.006a39 39 0 0 1 7.618-.252l-.299.84a10.9 10.9 0 0 1-2.125 3.558 10.9 10.9 0 0 1-1.636-2.971H3.812l.172.483a12.4 12.4 0 0 0 1.978 3.553 10.8 10.8 0 0 1-2.497 1.585l-.053.03a.737.737 0 0 0 .325 1.402.7.7 0 0 0 .295-.063 12.3 12.3 0 0 0 2.928-1.848 12.3 12.3 0 0 0 3.77 2.543l-.756 1.783a.7.7 0 0 0-.061.29.75.75 0 0 0 1.444.285l.037-.09.832-1.952h4.08l.892 2.058zM12.866 13l1.403-3.306L15.672 13z" />
</svg>
