<!-- This Source Code Form is subject to the terms of the Mozilla Public
   - License, v. 2.0. If a copy of the MPL was not distributed with this
   - file, You can obtain one at http://mozilla.org/MPL/2.0/. -->
<svg xmlns="http://www.w3.org/2000/svg" width="20" height="20" fill="none" viewBox="0 0 20 20">
    <path fill="#000" d="M17.37 17H19l-3.626-8.543a.75.75 0 0 0-.69-.457h-.829a.75.75 0 0 0-.69.457l-1.848 4.353c-.004-.002-.005-.009-.01-.01a10.8 10.8 0 0 1-3.263-2.2 12.4 12.4 0 0 0 2.539-4.185L11.085 5H12V3.5H7.75V2h-1.5v1.5H2V5h7.493l-.325.913a10.9 10.9 0 0 1-2.125 3.558A10.9 10.9 0 0 1 5.407 6.5H3.813l.172.483a12.4 12.4 0 0 0 1.978 3.553A10.8 10.8 0 0 1 3 12.321v1.58a12.3 12.3 0 0 0 3.963-2.259 12.3 12.3 0 0 0 3.77 2.543L9.538 17h1.63l1.061-2.5h4.08zm-4.504-4 1.403-3.306L15.672 13z" />
</svg>
