<!-- This Source Code Form is subject to the terms of the Mozilla Public
   - License, v. 2.0. If a copy of the MPL was not distributed with this
   - file, You can obtain one at http://mozilla.org/MPL/2.0/. -->
<svg xmlns="http://www.w3.org/2000/svg" width="20" height="20" fill="none" viewBox="0 0 20 20">
    <path fill="#000" fill-rule="evenodd" d="M9.975 3c1.024 0 2.05.514 2.622 1.542l4.386 7.888c1.074 1.932-.24 4.34-2.446 4.454a88 88 0 0 1-9.035 0c-2.218-.114-3.556-2.497-2.487-4.443l4.33-7.885A2.97 2.97 0 0 1 9.975 3M10 12.25A.875.875 0 1 0 10 14a.875.875 0 0 0 0-1.75M10 7a.75.75 0 0 0-.75.75v2.5a.75.75 0 0 0 1.5 0v-2.5A.75.75 0 0 0 10 7" clip-rule="evenodd" />
</svg>
