<svg width="20" height="21" viewBox="0 0 20 21" fill="none" xmlns="http://www.w3.org/2000/svg">
<path fill-rule="evenodd" clip-rule="evenodd" d="M9.99995 1.49999V3.69999C5.99995 3.69999 2.69995 6.99999 2.69995 10.9C2.69995 12.7 3.29995 14.4 4.39995 15.7C4.59995 15.9 4.79995 16 4.99995 16C5.19995 16 5.29995 16 5.49995 15.9C5.79995 15.6 5.89995 15.1 5.59995 14.8C4.69995 13.7 4.19995 12.4 4.19995 11C4.19995 7.79999 6.79995 5.19999 9.99995 5.19999V7.39999C9.99995 7.79999 10.5 7.99999 10.8 7.69999L13.7 4.89999V3.99999L10.9 1.09999C10.5 0.799992 9.99995 1.09999 9.99995 1.49999ZM9.99993 16.8V14.6C9.99993 14.2 9.49993 14 9.19993 14.3L6.29993 17.1V18L9.09993 20.8C9.49993 21.1 9.99993 20.8 9.99993 20.4V18.2C13.9999 18.2 17.2999 14.9 17.2999 10.9C17.2999 9.19998 16.6999 7.49998 15.5999 6.19998C15.2999 5.89998 14.7999 5.79998 14.4999 6.09998C14.1999 6.39998 14.0999 6.89998 14.3999 7.19998C15.2999 8.29998 15.7999 9.59998 15.7999 11C15.7999 14.2 13.1999 16.8 9.99993 16.8Z" fill="black"/>
</svg>
