<svg xmlns="http://www.w3.org/2000/svg" width="300" height="301" fill="none" viewBox="0 0 300 301"><g clip-path="url(#a)"><path fill="url(#b)" d="M94.217 65.748c-1.285 1.084-5.513 1.4-5.376 4.385.122 2.72 5.039 1.092 5.16 2.326.166 1.687-3.38 2.792-3.186 4.48.502 4.241 10.989 2.612 18.634 9.582 5.656 5.154 6.23 14.377 4.924 27.154-.948 9.231-3.352 25.568-3.352 25.568h77.917s-3.137-22.862-4.292-29.465c-2.283-13.107 2.117-29.617 8.534-35.84 7.43-7.207 11.837-6.288 11.823-9.676 0-1.6-2.599-1.6-2.721-3.194-.194-2.506 6.697-3.353 6.152-5.807-.639-2.915-4.207-2.635-5.434-3.073-.194-.071-1.572-.725-1.68-.804-12.231-1.005-95.561 7.774-107.117 14.364z"/><path fill="url(#c)" d="M94.217 65.748c-1.285 1.084-5.513 1.4-5.376 4.385.122 2.72 5.039 1.091 5.16 2.326.166 1.687-3.38 2.792-3.186 4.48.502 4.241 10.989 2.612 18.634 9.582 5.656 5.154 6.23 14.377 4.924 27.154-.948 9.231-3.352 25.568-3.352 25.568h77.917s-3.137-22.862-4.292-29.465c-2.283-13.108 2.117-29.617 8.534-35.84 7.43-7.207 11.837-6.288 11.823-9.676 0-1.601-2.599-1.601-2.721-3.194-.194-2.506 6.697-3.353 6.152-5.807-.639-2.915-4.207-2.635-5.434-3.073a2 2 0 0 1-.438-.215c-8.269.538-100.772 11.183-108.36 13.782z" opacity=".6"/><path fill="url(#d)" d="M150.399 110.926s-10.523 8.104-8.52 28.317h21.261c1.544-21.117-12.741-28.317-12.741-28.317" opacity=".6"/><path fill="url(#e)" d="M167.088 29.463c7.114 3.1 14.4 6.209 17.902 7.623-.976-2.182-1.794-4.321-2.404-5.578-2.728-5.598-3.84-9.934-7.867-18.153-4.085-8.34-7.286-13.15-11.227-13.35-3.395-.173-7.106 5.088-10.35 14.463-2.527 7.293-3.123 8.972-4.917 12.274 3.639-.359 11.312-.574 18.863 2.72"/><path fill="url(#f)" d="M139.51 27.252c-1.364-1.88-3.366-6.345-8.011-12.497-5.491-7.286-9.41-10.523-13.365-9.188-3.338 1.127-5.836 12.08-7.178 20.73-1.113 7.164-1.12 7.853-1.629 10.487-.46 2.39-.977 5.32-1.659 8.183 3.345-2.426 8.973-6.596 14.464-10.738 6.381-4.81 13.638-6.439 17.378-6.984z"/><path fill="url(#g)" d="M203.811 48.154c-1.651-3.1-9.131-.782-14.284-4.149-1.716-1.12-3.259-4.055-4.537-6.912-.976-2.182-1.794-4.321-2.405-5.577-2.727-5.6-3.84-9.935-7.867-18.154C170.634 5.014 167.433.205 163.492.004c-3.395-.172-7.106 5.09-10.351 14.464-2.526 7.293-3.122 8.972-4.917 12.274q-.002.011-.014.022c-.101.186-5.075 1.098-7.322 1.471-.438.072-.868-.28-1.378-.99-1.364-1.88-3.366-6.346-8.011-12.497-5.491-7.286-9.41-10.523-13.365-9.188-3.338 1.127-5.836 12.08-7.178 20.73-1.113 7.164-1.12 7.853-1.629 10.487-.46 2.39-.977 5.319-1.659 8.183-.99 4.163-2.34 8.204-4.428 10.308-4.472 4.508-9.92 3.438-10.846 6.819-1.07 3.919 2.512 2.404 2.146 3.266-.058.143-.18.265-.316.387 7.587-2.598 15.411-1.873 21.8.704 7.084 2.85 11.743 7.515 14.011 6.747.05-.05.093-.107.151-.165 1.723-1.622 8.154 6.704 9.324 5.183 2.29-3.266 24.463-8.729 24.707-8.528 2.254-.143 9.059-7.041 15.792-11.075 6.984-4.185 14.298-6.109 22.567-6.647-1.184-.797 2.29-1.83 1.235-3.82z"/><path fill="#ffc635" d="M164.217 69.696a5.7 5.7 0 0 0-.79-.553c-2.813-1.63-5.52-3.532-8.211-5.133-2.376-1.464-4.716-2.663-7.164-3.115-1.845-.402-3.711-.423-5.635.13-4.17 1.191-5.742 3.983-8.039 7.25-1.17 1.514-2.469 3.136-4.199 4.765-.058.05-.101.108-.151.166-4.235 4.392 2.771 15.009 16.373 14.937a29 29 0 0 0 6.432-.74c12.604-2.856 16.473-13.587 11.377-17.7z"/><path fill="#00073a" d="M148.54 66.336c-.431-1.062-1.866-2.218-4.378-1.945-2.843.309-4.257 1.687-4.58 2.864-.395 1.45 1.141 4.228 4.63 3.855 3.316-.352 4.924-3.28 4.321-4.774z"/><path fill="url(#h)" d="M160.901 58.476c3.208-.445 5.146-1.076 4.68-6.065-.596-6.353-3.044-8.284-6.432-7.781-3.546.524-3.826 3.718-3.316 8.915.373 3.811 3.395 5.161 5.075 4.931z"/><path fill="#fff" d="M162.186 50.954c.868-.1 1.493-.89 1.385-1.759a1.58 1.58 0 0 0-1.759-1.385 1.58 1.58 0 0 0-1.385 1.758c.108.869.89 1.493 1.759 1.386"/><path fill="url(#i)" d="M129.088 62.274c3.316-.46 5.204-1.206 4.974-5.083-.366-6.194-2.01-9.754-6.525-8.872-2.842.553-3.74 3.905-3.452 8.205.351 5.297 3.266 5.986 5.003 5.75"/><path fill="#fff" d="M130.531 54.579c.847-.1 1.45-.869 1.349-1.716a1.543 1.543 0 1 0-1.349 1.716"/></g><g clip-path="url(#j)"><mask id="s" fill="#fff"><path d="M2.857 116.983a6.45 6.45 0 0 1 6.45-6.45H288.67a6.45 6.45 0 0 1 6.45 6.45V293.55a6.45 6.45 0 0 1-6.45 6.45H9.307a6.45 6.45 0 0 1-6.45-6.45z"/></mask><path fill="#e8e8e8" d="M2.857 116.983a6.45 6.45 0 0 1 6.45-6.45H288.67a6.45 6.45 0 0 1 6.45 6.45V293.55a6.45 6.45 0 0 1-6.45 6.45H9.307a6.45 6.45 0 0 1-6.45-6.45z"/><g clip-path="url(#k)"><path fill="#f0f0f4" d="M2.857 110.533H295.12v8.062H2.857z"/><rect width="40.312" height="5.644" x="8.904" y="111.743" fill="#fff" rx="1.612"/><circle cx="287.662" cy="114.564" r="1.411" fill="#fff"/><path fill="#f9f9fb" d="M2.857 118.596H295.12v8.062H2.857z"/><circle cx="10.315" cy="122.565" r="1.411" fill="#f0f0f4"/><circle cx="17.168" cy="122.565" r="1.411" fill="#f0f0f4"/><circle cx="24.021" cy="122.565" r="1.411" fill="#f0f0f4"/><rect width="259.61" height="5.644" x="29.463" y="119.744" fill="#f0f0f4" rx="1.612"/></g><g clip-path="url(#l)"><g clip-path="url(#m)"><path fill="#fcf5f0" d="M294.787 126.834H2.524v173.342h292.263z"/><path fill="url(#n)" d="M283.198 235.454c-20.993-3.854-29.182-13.002-50.47-13.002s-30.12 8.053-47.852 13.002c-11.437 3.193-23.732 4.355-34.181 4.239-28.905-1.865-33.9-10.941-55.76-11.053-18.656-.094-28.23 7.328-42.964 10.382-17.32 3.591-36.991 3.542-45.364 3.314l-4.087-.117v28.831a65 65 0 0 1 2.06-1.435c21.734-14.349 49.062-14.733 67.406-4.302 17.812 10.128 32.304 16.982 50.657 12.551 12.246-2.955 22.369-10.507 32.287-15.47 15.038-7.526 28.485-9.006 49.983-2.656 15.623 4.614 27.507 9.51 43.903 9.617 19.456.13 32.251-3.393 44.175-13.154a76 76 0 0 0 1.796-1.538v-17.107c-.335-.058-.67-.117-.934-.161-3.029-.532-6.5-1.172-10.659-1.936z"/><path fill="url(#o)" d="M292.991 256.196c-11.924 9.761-24.719 13.285-44.175 13.155-16.396-.107-28.28-5.003-43.903-9.618-21.498-6.349-34.941-4.869-49.983 2.656-9.922 4.963-20.046 12.515-32.287 15.471-18.353 4.426-32.845-2.424-50.657-12.551-18.344-10.432-45.672-10.051-67.407 4.301-.558.367-1.358.935-2.06 1.436v29.134h292.263v-45.517c-.616.536-1.318 1.144-1.796 1.538z"/><path fill="url(#p)" d="M98.889 181.705c-2.945 2.119-3.977 3.738-5.786 3.738-3.252 0-4.164 2.929-2.841 3.769 2.403 1.525 7.304.743 15.734.743 9.396 0 11.795-.135 14.323-.635 3.275-.649 2.149-4.852-1.103-5.352-3.253-.501-4.557.473-9.717-2.853-3.668-2.365-7.622-1.561-10.61.59"/><path fill="url(#q)" d="M232.71 167.352c2.403 1.525 7.304.743 15.735.743 9.395 0 11.794-.135 14.323-.635 3.274-.649 2.148-4.852-1.104-5.352-3.252-.501-4.557.474-9.717-2.853-3.668-2.365-7.621-1.561-10.61.59-2.944 2.12-3.976 3.738-5.786 3.738-3.252 0-4.164 2.929-2.841 3.769"/><path fill="url(#r)" d="M48.338 165.479c2.19 1.882 15.753 1.547 31.068 1.547 17.066 0 23.848.022 28.445-.917 5.946-1.216 4.811-6.273-1.095-7.212s-9.627-6.899-19.255-6.273-12.255 3.452-18.38 5.96-11.588 2.196-14.876 2.196c-5.907 0-8.096 2.821-5.907 4.703z"/></g></g></g><path fill="#e8e8e8" d="M9.307 110.533v1.613H288.67v-3.225H9.307zm285.813 6.45h-1.612V293.55h3.225V116.983zM288.67 300v-1.612H9.307v3.225H288.67zM2.857 293.55H4.47V116.983H1.245V293.55zm6.45 6.45v-1.612a4.84 4.84 0 0 1-4.837-4.838H1.245a8.063 8.063 0 0 0 8.062 8.063zm285.813-6.45h-1.612a4.84 4.84 0 0 1-4.838 4.838v3.225a8.063 8.063 0 0 0 8.063-8.063zm-6.45-183.017v1.613a4.837 4.837 0 0 1 4.838 4.837h3.225a8.06 8.06 0 0 0-8.063-8.062zm-279.363 0v-1.612a8.06 8.06 0 0 0-8.062 8.062H4.47a4.837 4.837 0 0 1 4.837-4.837z" mask="url(#s)"/><defs><linearGradient id="b" x1="147.141" x2="152.876" y1="17.217" y2="189.418" gradientUnits="userSpaceOnUse"><stop stop-color="#f60"/><stop offset=".33" stop-color="#ffb029"/><stop offset=".46" stop-color="#ff9218"/><stop offset=".63" stop-color="#f60"/><stop offset="1" stop-color="#fb2872"/></linearGradient><linearGradient id="c" x1="148.748" x2="144.6" y1="59.618" y2="200.02" gradientUnits="userSpaceOnUse"><stop stop-color="#ffeb49"/><stop offset=".36" stop-color="#ffb52b" stop-opacity=".6"/><stop offset=".67" stop-color="#ff8a14" stop-opacity=".28"/><stop offset=".89" stop-color="#ff7005" stop-opacity=".08"/><stop offset="1" stop-color="#f60" stop-opacity="0"/></linearGradient><linearGradient id="d" x1="151.541" x2="155.41" y1="115.621" y2="200.687" gradientUnits="userSpaceOnUse"><stop offset=".06" stop-color="#ffc635"/><stop offset=".14" stop-color="#ffc132" stop-opacity=".96"/><stop offset=".29" stop-color="#ffb62c" stop-opacity=".84"/><stop offset=".47" stop-color="#ffa422" stop-opacity=".66"/><stop offset=".69" stop-color="#ff8c15" stop-opacity=".4"/><stop offset=".95" stop-color="#ff6c03" stop-opacity=".07"/><stop offset="1" stop-color="#f60" stop-opacity="0"/></linearGradient><linearGradient id="e" x1="166.707" x2="170.647" y1="29.895" y2="-7.497" gradientUnits="userSpaceOnUse"><stop stop-color="#f60" stop-opacity="0"/><stop offset=".06" stop-color="#f60" stop-opacity=".12"/><stop offset=".2" stop-color="#f60" stop-opacity=".42"/><stop offset=".39" stop-color="#f60" stop-opacity=".9"/><stop offset=".43" stop-color="#f60"/><stop offset=".72" stop-color="#fd4737"/><stop offset="1" stop-color="#fb2872"/></linearGradient><linearGradient id="f" x1="123.201" x2="110.678" y1="35.123" y2="-.33" gradientUnits="userSpaceOnUse"><stop stop-color="#f60" stop-opacity="0"/><stop offset=".04" stop-color="#f60" stop-opacity=".04"/><stop offset=".1" stop-color="#f60" stop-opacity=".15"/><stop offset=".19" stop-color="#f60" stop-opacity=".33"/><stop offset=".29" stop-color="#f60" stop-opacity=".58"/><stop offset=".4" stop-color="#f60" stop-opacity=".89"/><stop offset=".43" stop-color="#f60"/><stop offset=".72" stop-color="#fd4737"/><stop offset="1" stop-color="#fb2872"/></linearGradient><linearGradient id="g" x1="146.114" x2="150.557" y1="-3.449" y2="129.862" gradientUnits="userSpaceOnUse"><stop stop-color="#f60"/><stop offset=".11" stop-color="#ff6a02"/><stop offset=".23" stop-color="#ff7709"/><stop offset=".35" stop-color="#ff8c15"/><stop offset=".47" stop-color="#ffaa25"/><stop offset=".49" stop-color="#ffb029"/><stop offset=".55" stop-color="#ffac27"/><stop offset=".62" stop-color="#ffa120"/><stop offset=".68" stop-color="#ff8f16"/><stop offset=".73" stop-color="#ff7508"/><stop offset=".76" stop-color="#f60"/><stop offset=".91" stop-color="#fb2872"/></linearGradient><linearGradient id="h" x1="156.955" x2="162.472" y1="40.566" y2="58.072" gradientUnits="userSpaceOnUse"><stop offset=".16" stop-color="#a030b9"/><stop offset=".88" stop-color="#00073a"/></linearGradient><linearGradient id="i" x1="126.017" x2="130.217" y1="45.02" y2="60.361" gradientUnits="userSpaceOnUse"><stop offset=".16" stop-color="#a030b9"/><stop offset=".88" stop-color="#00073a"/></linearGradient><linearGradient id="n" x1="148.457" x2="149.088" y1="264.839" y2="213.196" gradientUnits="userSpaceOnUse"><stop stop-color="#fcf5f0"/><stop offset=".22" stop-color="#faecf1"/><stop offset=".56" stop-color="#f5d4f5"/><stop offset="1" stop-color="#eeaefc"/></linearGradient><linearGradient id="o" x1="149.775" x2="146.74" y1="296.903" y2="244.115" gradientUnits="userSpaceOnUse"><stop stop-color="#fcf5f0"/><stop offset=".22" stop-color="#faecf1"/><stop offset=".56" stop-color="#f5d4f5"/><stop offset="1" stop-color="#eeaefc"/></linearGradient><linearGradient id="p" x1="112.814" x2="102.604" y1="205.939" y2="178.473" gradientUnits="userSpaceOnUse"><stop stop-color="#fceede"/><stop offset="1" stop-color="#fff"/></linearGradient><linearGradient id="q" x1="255.262" x2="245.052" y1="184.084" y2="156.618" gradientUnits="userSpaceOnUse"><stop stop-color="#fceede"/><stop offset="1" stop-color="#fff"/></linearGradient><linearGradient id="r" x1="88.046" x2="75.25" y1="184.491" y2="152.256" gradientUnits="userSpaceOnUse"><stop stop-color="#fceede"/><stop offset="1" stop-color="#fff"/></linearGradient><clipPath id="a"><path fill="#fff" d="M79.03 0h139.243v139.243H79.03z"/></clipPath><clipPath id="j"><path fill="#fff" d="M2.857 116.983a6.45 6.45 0 0 1 6.45-6.45H288.67a6.45 6.45 0 0 1 6.45 6.45V293.55a6.45 6.45 0 0 1-6.45 6.45H9.307a6.45 6.45 0 0 1-6.45-6.45z"/></clipPath><clipPath id="k"><path fill="#fff" d="M2.857 114.564a4.03 4.03 0 0 1 4.032-4.031h284.2a4.03 4.03 0 0 1 4.031 4.031v12.094H2.857z"/></clipPath><clipPath id="l"><path fill="#fff" d="M2.857 126.658H295.12V300H2.857z"/></clipPath><clipPath id="m"><path fill="#fff" d="M2.524 126.834h292.263v173.342H2.524z"/></clipPath></defs></svg>