<!-- This Source Code Form is subject to the terms of the Mozilla Public
   - License, v. 2.0. If a copy of the MPL was not distributed with this
   - file, You can obtain one at http://mozilla.org/MPL/2.0/. -->
<svg xmlns="http://www.w3.org/2000/svg" width="15" height="15" fill="context-fill" fill-opacity="context-fill-opacity" viewBox="0 0 15 15">
    <path d="M7.5 1.002a2.2 2.2 0 0 0-2.054 1.392l-.819 2.059-2.553.165A2.22 2.22 0 0 0 .131 6.08 2.19 2.19 0 0 0 .68 8.415q.317.302.636.567.706.595 1.494 1.098l-.581 2.28a2.2 2.2 0 0 0 .794 2.296c.388.3.855.46 1.346.46a2.26 2.26 0 0 0 1.091-.285 16 16 0 0 0 2.04-1.359q.387.302.801.588c.385.264.799.522 1.231.766.341.19.72.289 1.098.289.491 0 .958-.16 1.35-.462a2.2 2.2 0 0 0 .79-2.295l-.58-2.279a14.3 14.3 0 0 0 2.131-1.666 2.19 2.19 0 0 0 .547-2.334 2.22 2.22 0 0 0-1.942-1.462l-2.553-.165-.819-2.059A2.2 2.2 0 0 0 7.5 1z" />
</svg>
