<!-- This Source Code Form is subject to the terms of the Mozilla Public
   - License, v. 2.0. If a copy of the MPL was not distributed with this
   - file, You can obtain one at http://mozilla.org/MPL/2.0/. -->
<svg xmlns="http://www.w3.org/2000/svg" width="20" height="20" fill="context-fill" fill-opacity="context-fill-opacity" viewBox="0 0 20 20">
    <g clip-path="url(#clip0_8069_32729)">
        <path fill-rule="evenodd" d="M14.128 1.066c1.14-1.141 3.037-1.479 4.45-.46V.605a3.39 3.39 0 0 1 .43 5.153l-1.866 1.868 1.552 5.797a2.79 2.79 0 0 1-.593 2.557l-.127.135-1.32 1.32a1.513 1.513 0 0 1-2.427-.403 21.2 21.2 0 0 1-1.693-4.792l-2.536 2.538.249 2.039.01.172a1.5 1.5 0 0 1-.327.951l-.115.13-1.576 1.578c-.538.538-1.516.47-1.905-.293a15.9 15.9 0 0 1-1.45-4.248 15.7 15.7 0 0 1-3.683-1.18l-.558-.27c-.765-.39-.827-1.367-.294-1.904l.002-.001 1.575-1.578a1.51 1.51 0 0 1 1.254-.433l2.033.248L7.75 7.45a21 21 0 0 1-1.633-.432l-.533-.173a21 21 0 0 1-2.622-1.09h-.001a1.514 1.514 0 0 1-.403-2.428l1.319-1.32a2.78 2.78 0 0 1 2.691-.72l5.788 1.551zm3.427.958c-.614-.443-1.563-.349-2.19.278l-2.126 2.13a.88.88 0 0 1-.846.227L6.115 2.975a1.03 1.03 0 0 0-.998.268L4.033 4.326c.628.299 1.332.596 2.112.86h.001a19.4 19.4 0 0 0 3.524.837.875.875 0 0 1 .497 1.484L6.15 11.528a.88.88 0 0 1-.725.25l-2.343-.286-.937.939c.467.206.985.408 1.554.584.757.233 1.457.378 2.073.47a.88.88 0 0 1 .736.738l.08.477a14 14 0 0 0 .97 3.15l.937-.937-.285-2.345a.88.88 0 0 1 .249-.724l4.017-4.022.093-.08a.876.876 0 0 1 1.393.577 19.4 19.4 0 0 0 1.692 5.64l1.082-1.081a1.04 1.04 0 0 0 .268-1.002l-1.682-6.285a.88.88 0 0 1 .226-.845l2.222-2.224c.659-.66.639-1.74-.064-2.376z" clip-rule="evenodd" />
    </g>
</svg>
