<!-- This Source Code Form is subject to the terms of the Mozilla Public
   - License, v. 2.0. If a copy of the MPL was not distributed with this
   - file, You can obtain one at http://mozilla.org/MPL/2.0/. -->
<svg xmlns="http://www.w3.org/2000/svg" width="20" height="20" fill="context-fill" fill-opacity="context-fill-opacity" viewBox="0 0 20 20">
    <path d="M3.42 16.25c.169.288.448.508.796.56 3.83.585 7.773.584 11.599-.004a1.09 1.09 0 0 0 .769-.556h1.86a2.84 2.84 0 0 1-2.363 2.285 40.1 40.1 0 0 1-12.13.005 2.91 2.91 0 0 1-2.392-2.29z" />
    <path fill-rule="evenodd" d="M10 2c1.725 0 3.772.111 6.049.46A2.89 2.89 0 0 1 18.5 5.308v6.386c0 1.402-1.01 2.625-2.419 2.841a40 40 0 0 1-12.13.005A2.89 2.89 0 0 1 1.5 11.692V5.306c0-1.402 1.01-2.625 2.419-2.841A40 40 0 0 1 10 2m0 1.75c-2.168 0-4.123.185-5.815.445a1.116 1.116 0 0 0-.935 1.11v6.387c0 .554.411 1.033.967 1.118a38.2 38.2 0 0 0 11.598-.005c.532-.082.935-.55.935-1.11V5.307a1.14 1.14 0 0 0-.967-1.119A38 38 0 0 0 10 3.75" clip-rule="evenodd" />
</svg>
