<!-- This Source Code Form is subject to the terms of the Mozilla Public
   - License, v. 2.0. If a copy of the MPL was not distributed with this
   - file, You can obtain one at http://mozilla.org/MPL/2.0/. -->
<svg xmlns="http://www.w3.org/2000/svg" width="20" height="20" fill="context-fill" fill-opacity="context-fill-opacity" viewBox="0 0 20 20">
    <g clip-path="url(#clip0_13876_782)">
        <path d="M9.694 7.547c.287-.729 1.326-.729 1.613 0l.586 1.488.072.071 1.486.586a.86.86 0 0 1 .55.807.86.86 0 0 1-.548.807l-1.56.657-.586 1.488A.86.86 0 0 1 10.5 14a.86.86 0 0 1-.807-.55l-.657-1.557-1.486-.587a.86.86 0 0 1-.55-.807c0-.359.215-.675.55-.807l1.558-.657z" />
        <path fill-rule="evenodd" d="M10.622 1.247c5.172 0 9.378 4.206 9.378 9.376s-4.207 9.376-9.378 9.376a9.36 9.36 0 0 1-4.425-1.113l-2.445.93a2.75 2.75 0 0 1-3.042-.738 2.75 2.75 0 0 1-.403-3.104l1.343-2.625a9.3 9.3 0 0 1-.405-2.726c0-5.17 4.205-9.376 9.377-9.376m0 1.75c-4.206 0-7.628 3.421-7.628 7.626 0 .859.144 1.704.426 2.51a.88.88 0 0 1-.047.69l-1.507 2.95c-.294.574.038 1.016.146 1.138a.99.99 0 0 0 1.117.27l2.827-1.075c.25-.094.53-.07.761.067a7.6 7.6 0 0 0 3.904 1.078c4.206 0 7.628-3.421 7.628-7.626s-3.422-7.626-7.628-7.626z" clip-rule="evenodd" />
    </g>
</svg>
