<!-- This Source Code Form is subject to the terms of the Mozilla Public
   - License, v. 2.0. If a copy of the MPL was not distributed with this
   - file, You can obtain one at http://mozilla.org/MPL/2.0/. -->
<svg xmlns="http://www.w3.org/2000/svg" width="20" height="20" fill="context-fill" fill-opacity="context-fill-opacity" viewBox="0 0 20 20">
    <path fill-rule="evenodd" d="M5.788 4c.844 0 1.6.568 1.815 1.392l.036.168c.214 1.304.313 2.505.347 3.565h3.903c.034-1.06.133-2.26.347-3.564A1.875 1.875 0 0 1 14.086 4h1.057c1.284 0 2.415.934 2.596 2.24.107.769.19 1.609.23 2.51h.781a1.25 1.25 0 0 1 0 2.5h-.78a27 27 0 0 1-.227 2.483A2.63 2.63 0 0 1 15.14 16H14.1l-.012.001a1.88 1.88 0 0 1-1.854-1.578 27 27 0 0 1-.343-3.547H7.985a27 27 0 0 1-.343 3.546A1.88 1.88 0 0 1 5.788 16l-.013-.001h-.914a2.63 2.63 0 0 1-2.604-2.266 27 27 0 0 1-.228-2.483H1.25a1.25 1.25 0 0 1 0-2.5h.78a27 27 0 0 1 .23-2.51C2.443 4.933 3.574 4 4.858 4zm-.93 1.75a.864.864 0 0 0-.864.73 25.6 25.6 0 0 0-.003 7.014l.036.156a.88.88 0 0 0 .834.599h.931a.13.13 0 0 0 .122-.111 25.6 25.6 0 0 0-.003-8.294.1.1 0 0 0-.038-.063.13.13 0 0 0-.085-.031zm9.229 0a.13.13 0 0 0-.085.031.1.1 0 0 0-.038.063 25.6 25.6 0 0 0-.003 8.294l.016.047c.022.04.062.062.105.064h1.057a.88.88 0 0 0 .87-.755 25.6 25.6 0 0 0-.002-7.014.865.865 0 0 0-.864-.73z" clip-rule="evenodd" />
</svg>
