<!-- This Source Code Form is subject to the terms of the Mozilla Public
   - License, v. 2.0. If a copy of the MPL was not distributed with this
   - file, You can obtain one at http://mozilla.org/MPL/2.0/. -->
<svg xmlns="http://www.w3.org/2000/svg" width="20" height="20" fill="context-fill" fill-opacity="context-fill-opacity" viewBox="0 0 20 20">
    <path fill-rule="evenodd" d="M8.054 2.273c.702-1.697 3.192-1.697 3.894 0l1.505 3.648 4.57.286c1.77.11 2.677 2.231 1.33 3.466q-.415.381-.886.764a20 20 0 0 1-2.852 1.928l1.088 4.117c.465 1.76-1.485 3.111-3.074 2.253q-.638-.344-1.305-.76l-.445-.289A23 23 0 0 1 10 16.294a22.5 22.5 0 0 1-3.628 2.44c-1.588.86-3.54-.491-3.074-2.252l1.087-4.117a20 20 0 0 1-2.85-1.928h-.001a20 20 0 0 1-.884-.762C-.701 8.44.207 6.317 1.978 6.207l4.569-.286zm2.268.625c-.116-.281-.528-.281-.644 0L7.968 7.04a.87.87 0 0 1-.755.53l-5.122.32a.35.35 0 0 0-.312.226.284.284 0 0 0 .073.334q.38.347.81.697a18.3 18.3 0 0 0 3.149 2.056.83.83 0 0 1 .435.952l-1.253 4.743c-.07.265.222.529.524.365a21 21 0 0 0 3.475-2.354l.01-.008a1.57 1.57 0 0 1 2.007.007 21 21 0 0 0 3.476 2.355c.302.163.593-.099.524-.364l-1.255-4.744a.83.83 0 0 1 .437-.952 18.3 18.3 0 0 0 3.15-2.056l.416-.35q.203-.172.39-.346h.002a.285.285 0 0 0 .073-.335.35.35 0 0 0-.312-.226l-5.121-.32a.87.87 0 0 1-.756-.53z" clip-rule="evenodd" />
</svg>
