<!-- This Source Code Form is subject to the terms of the Mozilla Public
   - License, v. 2.0. If a copy of the MPL was not distributed with this
   - file, You can obtain one at http://mozilla.org/MPL/2.0/. -->
<svg xmlns="http://www.w3.org/2000/svg" width="20" height="20" fill="context-fill" fill-opacity="context-fill-opacity" viewBox="0 0 20 20">
    <path d="M12.625 9.5a.875.875 0 0 1 0 1.75h-6.25a.875.875 0 0 1 0-1.75zm0-3.5a.875.875 0 0 1 0 1.75h-6.25a.875.875 0 1 1 0-1.75z" />
    <path fill-rule="evenodd" d="M9.5.999c1.594 0 3.487.101 5.595.42a3.13 3.13 0 0 1 2.655 3.094v8.362a3.1 3.1 0 0 1-.806 2.089v2.579l.134-.025a.874.874 0 1 1 .344 1.715c-1.77.356-3.894.655-6.302.743L10.07 20a39.3 39.3 0 0 1-6.61-.495 2.64 2.64 0 0 1-2.21-2.611l.001-.013-.001-.012V4.51a3.134 3.134 0 0 1 2.682-3.094A37.6 37.6 0 0 1 9.5.999m5.694 14.947a3 3 0 0 1-.569.054H3.894C3.4 16 3 16.4 3 16.894c0 .445.319.816.74.883 1.812.291 3.938.495 6.314.473l1.002-.023a38 38 0 0 0 4.138-.382zM9.5 2.75a36 36 0 0 0-5.309.396A1.385 1.385 0 0 0 3 4.51v9.898c.28-.1.58-.158.894-.158h10.731c.76 0 1.375-.615 1.375-1.375V4.513c0-.68-.501-1.263-1.167-1.364a36 36 0 0 0-5.333-.4" clip-rule="evenodd" />
</svg>
