<!-- This Source Code Form is subject to the terms of the Mozilla Public
   - License, v. 2.0. If a copy of the MPL was not distributed with this
   - file, You can obtain one at http://mozilla.org/MPL/2.0/. -->
<svg xmlns="http://www.w3.org/2000/svg" width="21" height="20" fill="context-fill" fill-opacity="context-fill-opacity" viewBox="0 0 21 20">
    <path fill-rule="evenodd" d="M8.058 1.983c.702-1.76 3.194-1.76 3.896 0l1.505 3.784 4.573.297c1.77.114 2.678 2.315 1.33 3.596q-.415.394-.886.793a20 20 0 0 1-2.853 2l1.088 4.27c.466 1.826-1.485 3.227-3.075 2.337a23 23 0 0 1-1.305-.79l-.446-.298c-.7-.48-1.323-.97-1.88-1.444a22.5 22.5 0 0 1-3.63 2.532c-1.589.89-3.541-.51-3.076-2.337l1.088-4.27a20 20 0 0 1-2.851-2l-.001-.002a21 21 0 0 1-.885-.79C-.702 8.382.207 6.179 1.979 6.065l4.571-.297zm2.27.648a.347.347 0 0 0-.645 0l-1.71 4.297a.88.88 0 0 1-.757.55l-5.124.332a.35.35 0 0 0-.312.234.3.3 0 0 0 .073.347q.38.36.81.723a18.2 18.2 0 0 0 3.15 2.132c.356.19.536.598.436.988l-1.253 4.92a.35.35 0 0 0 .524.38 21 21 0 0 0 3.477-2.443l.01-.008a1.53 1.53 0 0 1 2.007.007 21 21 0 0 0 3.478 2.444.35.35 0 0 0 .524-.378l-1.255-4.922a.875.875 0 0 1 .437-.988 18.3 18.3 0 0 0 3.151-2.132l.417-.363q.203-.18.39-.359l.002-.001a.3.3 0 0 0 .073-.347.35.35 0 0 0-.312-.234l-5.124-.332a.88.88 0 0 1-.756-.55z" clip-rule="evenodd" />
</svg>
