<!-- This Source Code Form is subject to the terms of the Mozilla Public
   - License, v. 2.0. If a copy of the MPL was not distributed with this
   - file, You can obtain one at http://mozilla.org/MPL/2.0/. -->
<svg xmlns="http://www.w3.org/2000/svg" width="20" height="20" fill="context-fill" fill-opacity="context-fill-opacity" viewBox="0 0 20 20">
    <path fill-rule="evenodd" d="M10 0c.724 0 1.397.049 2.01.126a3.13 3.13 0 0 1 2.74 3.105v.47q1.217.1 2.513.266A3.14 3.14 0 0 1 20 7.072v7.858a3.12 3.12 0 0 1-2.708 3.1 56.8 56.8 0 0 1-14.555.004A3.14 3.14 0 0 1 0 14.93V7.07a3.12 3.12 0 0 1 2.708-3.1A57 57 0 0 1 5.25 3.7v-.47C5.25 1.674 6.401.327 7.963.128l.56-.062A16 16 0 0 1 10 0m0 5.251c-1.402 0-2.737.054-4 .146v11.206a54.4 54.4 0 0 0 8-.001V5.397a55 55 0 0 0-4-.146m-5.75.303q-.675.07-1.316.153A1.37 1.37 0 0 0 1.75 7.071v7.858c0 .69.519 1.28 1.21 1.369q.656.083 1.29.148zm11.5 10.892q.675-.07 1.316-.152a1.37 1.37 0 0 0 1.184-1.364V7.072c0-.69-.519-1.28-1.21-1.369a55 55 0 0 0-1.29-.15zM10 1.75c-.517 0-1.131.027-1.817.114v.001A1.37 1.37 0 0 0 7 3.23v.351a57 57 0 0 1 6 0v-.35c0-.696-.516-1.282-1.208-1.369A14 14 0 0 0 10 1.75" clip-rule="evenodd" />
</svg>
