<!-- This Source Code Form is subject to the terms of the Mozilla Public
   - License, v. 2.0. If a copy of the MPL was not distributed with this
   - file, You can obtain one at http://mozilla.org/MPL/2.0/. -->
<svg xmlns="http://www.w3.org/2000/svg" width="20" height="20" fill="context-fill" fill-opacity="context-fill-opacity" viewBox="0 0 20 20">
    <path fill-rule="evenodd" d="M14.875 1c.483 0 .875.392.875.875v1.542l.299.043A2.89 2.89 0 0 1 18.5 6.308v9.386c0 1.402-1.01 2.625-2.419 2.841a40 40 0 0 1-12.13.005A2.89 2.89 0 0 1 1.5 15.692V6.306c0-1.402 1.01-2.625 2.419-2.841q.165-.025.331-.048V1.875a.875.875 0 0 1 1.75 0V3.2a40 40 0 0 1 8 .002V1.875c0-.483.392-.875.875-.875M3.25 15.692c0 .554.411 1.033.967 1.119a38.2 38.2 0 0 0 11.598-.006c.532-.082.935-.55.935-1.11V9.75H3.25zM10 4.75c-2.168 0-4.123.185-5.815.445a1.116 1.116 0 0 0-.935 1.11V8h13.5V6.308a1.14 1.14 0 0 0-.967-1.119A38 38 0 0 0 10 4.75" clip-rule="evenodd" />
</svg>
