<!-- This Source Code Form is subject to the terms of the Mozilla Public
   - License, v. 2.0. If a copy of the MPL was not distributed with this
   - file, You can obtain one at http://mozilla.org/MPL/2.0/. -->
<svg xmlns="http://www.w3.org/2000/svg" width="20" height="20" fill="context-fill" fill-opacity="context-fill-opacity" viewBox="0 0 20 20">
    <path fill-rule="evenodd" d="M12.865 2.753a3.14 3.14 0 0 1 4.261.17l.954.953a3.14 3.14 0 0 1 .17 4.26q-.89 1.043-1.867 2.113l.635.634a.875.875 0 1 1-1.238 1.238l-.592-.593a83 83 0 0 1-2.48 2.499 83 83 0 0 1-5.1 4.532v.001a1.97 1.97 0 0 1-1.248.442H2.875A.875.875 0 0 1 2 18.127v-3.485c0-.451.15-.89.442-1.248l.514-.621a84 84 0 0 1 6.517-6.96l-.594-.593a.876.876 0 0 1 1.238-1.238l.636.636a84 84 0 0 1 2.112-1.865M10.71 7.051a81 81 0 0 0-6.912 7.45.2.2 0 0 0-.048.141v2.61h2.61a.22.22 0 0 0 .14-.047l.608-.502a82 82 0 0 0 6.841-6.413z" clip-rule="evenodd" />
</svg>
