<!-- This Source Code Form is subject to the terms of the Mozilla Public
   - License, v. 2.0. If a copy of the MPL was not distributed with this
   - file, You can obtain one at http://mozilla.org/MPL/2.0/. -->
<svg xmlns="http://www.w3.org/2000/svg" width="20" height="20" fill="context-fill" fill-opacity="context-fill-opacity" viewBox="0 0 20 20">
    <path fill-rule="evenodd" d="M9.999 1c.933 0 2.04.055 3.277.226l.312.056a3.43 3.43 0 0 1 2.616 2.8q.443-.071.893-.081c.768.007 1.482.273 2.024.805a2.96 2.96 0 0 1 .879 2.1v1.116a4.656 4.656 0 0 1-4.651 4.65h-.223a8 8 0 0 1-.399.56l-.275.333a7.9 7.9 0 0 1-3.403 2.261q-.086.029-.174.051v2.373h3.25a.875.875 0 0 1 0 1.75h-8.25a.875.875 0 0 1 0-1.75h3.25v-2.373c-.058-.016-.117-.03-.174-.05a7.9 7.9 0 0 1-3.404-2.262 8 8 0 0 1-.673-.893h-.223A4.656 4.656 0 0 1 0 8.022V6.904c0-.784.32-1.55.878-2.097A2.79 2.79 0 0 1 2.87 4q.47.01.922.08c.227-1.445 1.353-2.633 2.858-2.846C7.652 1.095 8.775 1 10 1m0 1.75c-1.134 0-2.174.088-3.103.219-.793.112-1.397.809-1.397 1.648v.502a1 1 0 0 1 0 .11v3.892c0 .411.05.804.16 1.166l.05.153.084.222a6.1 6.1 0 0 0 1.07 1.75 6.15 6.15 0 0 0 2.649 1.757c.317.107.658.107.973 0a6.14 6.14 0 0 0 2.65-1.757c.6-.684.95-1.396 1.155-1.972l.05-.153c.11-.36.158-.748.159-1.155V4.616a1.68 1.68 0 0 0-1.46-1.657 22 22 0 0 0-3.04-.209M2.865 5.752c-.295-.041-.556.103-.76.303a1.2 1.2 0 0 0-.355.85v1.118c0 1.376.963 2.528 2.251 2.824l-.018-.054a5.8 5.8 0 0 1-.234-1.672V5.853a5 5 0 0 0-.884-.101m14.291-.002a5 5 0 0 0-.907.103v3.246l.001.022a5.8 5.8 0 0 1-.252 1.725 2.9 2.9 0 0 0 2.252-2.824V6.906c0-.319-.13-.63-.356-.852-.204-.2-.423-.283-.738-.304" clip-rule="evenodd" />
</svg>
