<svg width="20" height="20" viewBox="0 0 20 20" fill="none" xmlns="http://www.w3.org/2000/svg">
<g clip-path="url(#clip0_8069_32731)">
<path d="M7.25 11.5C7.94036 11.5 8.5 12.0596 8.5 12.75C8.5 13.4404 7.94036 14 7.25 14C6.55964 14 6 13.4404 6 12.75C6 12.0596 6.55964 11.5 7.25 11.5Z" fill="black"/>
<path d="M12.75 11.5C13.4404 11.5 14 12.0596 14 12.75C14 13.4404 13.4404 14 12.75 14C12.0596 14 11.5 13.4404 11.5 12.75C11.5 12.0596 12.0596 11.5 12.75 11.5Z" fill="black"/>
<path d="M7.25 6C7.94036 6 8.5 6.55964 8.5 7.25C8.5 7.94036 7.94036 8.5 7.25 8.5C6.55964 8.5 6 7.94036 6 7.25C6 6.55964 6.55964 6 7.25 6Z" fill="black"/>
<path d="M12.75 6C13.4404 6 14 6.55964 14 7.25C14 7.94036 13.4404 8.5 12.75 8.5C12.0596 8.5 11.5 7.94036 11.5 7.25C11.5 6.55964 12.0596 6 12.75 6Z" fill="black"/>
<path fill-rule="evenodd" clip-rule="evenodd" d="M10 0C15.5228 0 20 4.47715 20 10C20 15.5228 15.5228 20 10 20C4.47715 20 0 15.5228 0 10C0 4.47715 4.47715 0 10 0ZM10 1.75C5.44365 1.75 1.75 5.44365 1.75 10C1.75 14.5563 5.44365 18.25 10 18.25C14.5563 18.25 18.25 14.5563 18.25 10C18.25 5.44365 14.5563 1.75 10 1.75Z" fill="black"/>
</g>
<defs>
<clipPath id="clip0_8069_32731">
<rect width="20" height="20" fill="white"/>
</clipPath>
</defs>
</svg>
