<!-- This Source Code Form is subject to the terms of the Mozilla Public
   - License, v. 2.0. If a copy of the MPL was not distributed with this
   - file, You can obtain one at http://mozilla.org/MPL/2.0/. -->
<svg xmlns="http://www.w3.org/2000/svg" width="20" height="20" fill="context-fill" fill-opacity="context-fill-opacity" viewBox="0 0 20 20">
    <path fill-rule="evenodd" d="M10 0c5.514 0 10 4.486 10 10s-4.486 10-10 10S0 15.514 0 10 4.486 0 10 0m0 13a1 1 0 1 0 0 2 1 1 0 0 0 0-2m0-8a.875.875 0 0 0-.875.875v4.75a.875.875 0 0 0 1.75 0v-4.75A.875.875 0 0 0 10 5" clip-rule="evenodd" />
</svg>
