<!-- This Source Code Form is subject to the terms of the Mozilla Public
   - License, v. 2.0. If a copy of the MPL was not distributed with this
   - file, You can obtain one at http://mozilla.org/MPL/2.0/. -->
<svg xmlns="http://www.w3.org/2000/svg" width="20" height="20" fill="context-fill" fill-opacity="context-fill-opacity" viewBox="0 0 20 20">
    <path fill-rule="evenodd" d="M5 10.75c.655 0 1.255.06 1.788.148A2.63 2.63 0 0 1 9 13.493v2.515c0 1.252-.891 2.368-2.157 2.585a10.842 10.842 0 0 1-3.632.008A2.63 2.63 0 0 1 1 16.006V13.49c0-1.251.891-2.368 2.157-2.585.721-.122 1.351-.156 1.843-.156m0 1.75c-.309 0-.684.016-1.108.067l-.44.065a.87.87 0 0 0-.702.86v2.514c0 .427.31.796.749.869l.346.05a9.1 9.1 0 0 0 2.703-.058l.142-.038a.875.875 0 0 0 .56-.821v-2.515a.88.88 0 0 0-.59-.828l-.159-.041A9 9 0 0 0 5 12.5" clip-rule="evenodd" />
    <path d="M13.887 11.54c.28-.72 1.448-.72 1.73 0l.626 1.605 1.67.709a.93.93 0 0 1 .588.87.93.93 0 0 1-.59.872l-1.592.631-.704 1.681a.92.92 0 0 1-.864.592.92.92 0 0 1-.865-.592l-.627-1.605-1.67-.71a.93.93 0 0 1-.588-.87c0-.387.23-.73.59-.871l1.592-.632.077-.076z" />
    <path fill-rule="evenodd" d="M5 1c.655 0 1.255.06 1.788.148A2.63 2.63 0 0 1 9 3.743v2.515c0 1.252-.891 2.368-2.157 2.585a10.843 10.843 0 0 1-3.632.008A2.63 2.63 0 0 1 1 6.256V3.74c0-1.252.891-2.368 2.157-2.585C3.878 1.034 4.508 1 5 1m0 1.75a9 9 0 0 0-1.108.067l-.44.065a.87.87 0 0 0-.702.86v2.514c0 .427.31.796.749.869l.346.05a9.1 9.1 0 0 0 2.703-.058l.142-.038a.875.875 0 0 0 .56-.821V3.743a.88.88 0 0 0-.59-.828l-.159-.041A9 9 0 0 0 5 2.75M14.75 1c.655 0 1.255.06 1.788.148a2.63 2.63 0 0 1 2.212 2.595v2.515c0 1.252-.891 2.368-2.157 2.585a10.843 10.843 0 0 1-3.632.008 2.63 2.63 0 0 1-2.211-2.595V3.74c0-1.252.891-2.368 2.157-2.585C13.628 1.034 14.258 1 14.75 1m0 1.75a9 9 0 0 0-1.108.067l-.44.065a.87.87 0 0 0-.702.86v2.514c0 .427.31.796.749.869l.346.05a9.1 9.1 0 0 0 2.703-.058l.142-.038a.875.875 0 0 0 .56-.821V3.743a.88.88 0 0 0-.59-.828l-.159-.041a9 9 0 0 0-1.501-.124" clip-rule="evenodd" />
</svg>
