<!-- This Source Code Form is subject to the terms of the Mozilla Public
   - License, v. 2.0. If a copy of the MPL was not distributed with this
   - file, You can obtain one at http://mozilla.org/MPL/2.0/. -->
<svg xmlns="http://www.w3.org/2000/svg" width="20" height="20" fill="context-fill" fill-opacity="context-fill-opacity" viewBox="0 0 20 20">
    <path d="M7.875 8c.483 0 .875.392.875.875v6.25a.875.875 0 0 1-1.75 0v-6.25C7 8.392 7.392 8 7.875 8M12.125 8c.483 0 .875.392.875.875v6.25a.875.875 0 1 1-1.75 0v-6.25c0-.483.392-.875.875-.875" />
    <path fill-rule="evenodd" d="M10 0c.79 0 1.499.085 2.105.205C13.23.426 14 1.424 14 2.535v1.644c1.339.118 2.773.304 4.285.586a.875.875 0 0 1-.32 1.72q-.234-.042-.465-.08V16.52a3.13 3.13 0 0 1-2.633 3.09 30.6 30.6 0 0 1-9.78-.008C3.573 19.355 2.5 18.025 2.5 16.523V6.403q-.236.041-.465.082a.875.875 0 0 1-.32-1.72A45 45 0 0 1 6 4.18V2.534C6 1.387 6.821.413 7.936.197A11 11 0 0 1 10 0m0 5.75c-2.113 0-4.042.156-5.75.384v10.39c0 .677.484 1.247 1.12 1.351a28.7 28.7 0 0 0 9.218.007l.124-.027a1.376 1.376 0 0 0 1.038-1.335V6.13A43.5 43.5 0 0 0 10 5.75m0-4c-.34 0-.76.019-1.237.084l-.495.081a.636.636 0 0 0-.518.62v1.52a45 45 0 0 1 4.5.004V2.534a.615.615 0 0 0-.482-.611A9 9 0 0 0 10 1.75" clip-rule="evenodd" />
</svg>
