<!-- This Source Code Form is subject to the terms of the Mozilla Public
   - License, v. 2.0. If a copy of the MPL was not distributed with this
   - file, You can obtain one at http://mozilla.org/MPL/2.0/. -->
<svg xmlns="http://www.w3.org/2000/svg" width="20" height="20" fill="context-fill" fill-opacity="context-fill-opacity" viewBox="0 0 20 20">
    <path fill-rule="evenodd" d="M3.728 3.6c4.15-.805 8.46-.8 12.593.01.835.163 1.562.69 1.994 1.445l1.292 2.262a3 3 0 0 1-.482 3.597l-7.01 7.01a2.97 2.97 0 0 1-2.115.877c-.798 0-1.549-.312-2.114-.877l-7.01-7.009a3 3 0 0 1-.482-3.598l1.292-2.261A3 3 0 0 1 3.728 3.6m5.395 13.085h.002v-6.2a57 57 0 0 1-6.705-.503zm8.458-6.705c-2.22.3-4.465.469-6.706.504v6.2zM9.999 4.747q-.585 0-1.17.024L6.618 8.639q1.684.104 3.366.104h.014q1.663 0 3.327-.102L11.11 4.766q-.555-.021-1.11-.022zm5.253 3.74q1.413-.136 2.812-.343l-1.27-2.223a1.22 1.22 0 0 0-.811-.597 31 31 0 0 0-2.774-.413zM6.726 4.921q-1.342.14-2.666.397c-.363.07-.676.29-.855.605L1.934 8.147q1.372.203 2.756.336z" clip-rule="evenodd" />
</svg>
