<!-- This Source Code Form is subject to the terms of the Mozilla Public
   - License, v. 2.0. If a copy of the MPL was not distributed with this
   - file, You can obtain one at http://mozilla.org/MPL/2.0/. -->
<svg xmlns="http://www.w3.org/2000/svg" width="20" height="20" fill="context-fill" fill-opacity="context-fill-opacity" viewBox="0 0 20 20">
    <g fill-rule="evenodd" clip-rule="evenodd">
        <path d="M15.379 9c.396.002.79.121 1.133.357a12.5 12.5 0 0 0 2.266 1.232 2.01 2.01 0 0 1 1.189 2.214l-.28 1.502a5.5 5.5 0 0 1-.627 1.762 4 4 0 0 1-.131.21c-.66 1-1.561 1.87-2.54 2.45A1.97 1.97 0 0 1 15.38 19a2 2 0 0 1-1.024-.283c-.97-.578-1.869-1.444-2.525-2.438-.362-.55-.618-1.216-.76-1.98l-.28-1.525c-.171-.928.327-1.86 1.184-2.216.306-.128.629-.275.959-.446a13 13 0 0 0 1.303-.765 2.03 2.03 0 0 1 1.14-.346zm-.009 1.5a.53.53 0 0 0-.299.094c-.465.309-.952.597-1.449.85-.366.19-.725.354-1.068.498a.504.504 0 0 0-.287.56l.28 1.525c.104.564.286 1.044.537 1.425.534.808 1.258 1.51 2.041 1.975.078.046.167.07.256.07l-.003-6.998h-.009z" />
        <path d="M2.632 3.391a30.7 30.7 0 0 1 9.78.008 3.08 3.08 0 0 1 2.54 2.533l.007.011-.005.002q.045.26.046.532v1.051a3.5 3.5 0 0 0-1.597.573c-.049.033-.103.058-.153.09V6.997L9.14 9.532a3.11 3.11 0 0 1-3.279 0L1.75 6.996v3.528c0 .667.481 1.248 1.12 1.352 2.107.344 4.267.434 6.41.302a3.5 3.5 0 0 0 .037.868v-.001l.16.875c-.66.043-1.32.08-1.977.08-1.642 0-3.295-.133-4.912-.398C1.089 13.36 0 12.064 0 10.524V6.48q0-.273.046-.535l-.004-.002.006-.01A3.12 3.12 0 0 1 2.632 3.39M7.5 4.751c-1.532 0-3.076.124-4.589.369a1.4 1.4 0 0 0-.536.206l4.404 2.716c.445.275.998.275 1.443 0l4.407-2.719a1.3 1.3 0 0 0-.5-.197A29 29 0 0 0 7.5 4.75" />
    </g>
</svg>
