<!-- This Source Code Form is subject to the terms of the Mozilla Public
   - License, v. 2.0. If a copy of the MPL was not distributed with this
   - file, You can obtain one at http://mozilla.org/MPL/2.0/. -->
<svg xmlns="http://www.w3.org/2000/svg" width="20" height="20" fill="context-fill" fill-opacity="context-fill-opacity" viewBox="0 0 20 20">
    <g fill-rule="evenodd" clip-rule="evenodd">
        <path d="M15.493 12.11c.635-1.272 1.125-1.572 1.682-1.457.489.1.786.978.948 1.361.315.744.58 1.49.732 2.28.106.544.388.944.94.945l.005.002c.14.001.236.147.187.278-.118.316-.482.517-.786.634.138.036.546-.045.563.158.012.167-.412.335-.527.39-1.07.516-2.056 1.441-3.324 1.278-.551-.072-.953-.46-1.404-.701a.73.73 0 0 0-.684 0c-.45.24-.853.629-1.404.7-1.268.164-2.254-.76-3.325-1.277-.115-.053-.54-.223-.526-.39.019-.205.426-.122.563-.158-.304-.117-.668-.318-.786-.634a.205.205 0 0 1 .187-.278c.555-.002.835-.402.94-.946.153-.79.418-1.535.733-2.28.162-.38.46-1.26.948-1.361.557-.115 1.05.184 1.682 1.458.515 1.033.865 1.76.875 1.78v.008l.358-.004.01-.002h.18l.358.004v-.007s.353-.732.875-1.781m-2.068 4.085c-.259-.829-1.32-1.142-2.12-1.01-.134.022-.505.154-.489.325.36.891 1.874 1.355 2.609.685m3.598-1.01c-.8-.132-1.86.18-2.12 1.008.735.672 2.247.208 2.609-.683.016-.17-.355-.303-.49-.324" />
        <path d="M2.632 3.39a30.7 30.7 0 0 1 9.78.009 3.08 3.08 0 0 1 2.541 2.535l.005.009-.004.002q.045.26.046.532v3.26c-.325.326-.599.72-.837 1.142-.257-.456-.552-.88-.913-1.22V6.995L9.139 9.532A3.1 3.1 0 0 1 7.5 10a3.1 3.1 0 0 1-1.64-.468L1.75 6.996v3.527c0 .667.481 1.247 1.12 1.351a28.6 28.6 0 0 0 4.285.36l1.092.005a17 17 0 0 0-.526 1.72c-1.4-.046-3.898-.155-5.133-.357C1.089 13.359 0 12.064 0 10.524V6.48q0-.273.046-.534L.04 5.943l.007-.013a3.12 3.12 0 0 1 2.584-2.54M7.5 4.75c-1.532 0-3.076.123-4.589.368a1.4 1.4 0 0 0-.537.207l4.404 2.717c.445.275.998.275 1.443 0l4.409-2.72a1.3 1.3 0 0 0-.5-.198A29 29 0 0 0 7.5 4.75" />
    </g>
</svg>
