<!-- This Source Code Form is subject to the terms of the Mozilla Public
   - License, v. 2.0. If a copy of the MPL was not distributed with this
   - file, You can obtain one at http://mozilla.org/MPL/2.0/. -->
<svg xmlns="http://www.w3.org/2000/svg" width="20" height="20" fill="context-fill" fill-opacity="context-fill-opacity" viewBox="0 0 20 20">
    <path fill-rule="evenodd" d="M15.337 12.813c.657-1.317 1.164-1.627 1.74-1.508.506.104.813 1.013.98 1.409.326.77.601 1.541.76 2.357.108.564.4.979.972.979l.004.002a.214.214 0 0 1 .193.288c-.122.327-.498.535-.812.656.143.037.564-.046.58.163.014.173-.425.346-.543.404-1.108.533-2.128 1.49-3.44 1.322-.57-.075-.986-.476-1.453-.725a.76.76 0 0 0-.707 0c-.466.25-.883.65-1.453.725-1.311.169-2.33-.789-3.44-1.323-.118-.055-.558-.23-.543-.403.019-.211.44-.126.58-.163-.313-.12-.69-.33-.812-.656-.05-.136.047-.288.194-.288.574-.002.864-.415.973-.979.158-.818.433-1.588.758-2.357.168-.394.474-1.305.98-1.41.576-.118 1.086.19 1.74 1.509.54 1.083.906 1.842.906 1.842v.007l.371-.004h.195l.372.002v-.007s.365-.757.905-1.842m-2.14 4.226c-.267-.857-1.364-1.181-2.192-1.044-.14.022-.523.159-.506.335v.002c.373.922 1.938 1.4 2.698.707m3.722-1.044c-.828-.137-1.925.186-2.192 1.042.76.696 2.324.215 2.699-.707.017-.176-.368-.313-.507-.335" clip-rule="evenodd" />
    <path fill-rule="evenodd" d="M7.996 3.005c.19.002.381 0 .571.005l.414.012q.336.01.67.022.18.008.359.018.334.014.667.034c.24.014.48.034.72.052l.33.025h.006l.033.003A3.516 3.516 0 0 1 15 6.71v3.718a32 32 0 0 0-1.036 1.432s-.288-.503-1.049-1.456V6.698l-2.646 2.647A3.97 3.97 0 0 1 7.458 10.5c-.92 0-1.84-.314-2.58-.952-.559-.48-1.708-1.58-2.793-2.634v4.047l-.003-.002a1.48 1.48 0 0 0 1.36 1.455c1.127.093 2.255.138 3.381.15h1.31c-.26.653-.527 1.408-.68 2.094a52 52 0 0 1-4.18-.167C1.437 14.34 0 12.785 0 10.952V6.711a3.516 3.516 0 0 1 3.234-3.535l.03-.003h.01l.328-.025q.359-.029.72-.052.332-.02.666-.034l.359-.018q.335-.013.67-.022c.138-.003.276-.01.414-.012q.285-.004.57-.005.23-.004.46-.005h.078q.229.001.457.005M7.5 5.082c-1.278 0-2.578.05-3.865.152l-.196.015-.07.009c1.122 1.09 2.328 2.247 2.867 2.712a1.886 1.886 0 0 0 2.556-.1l2.63-2.632-.058-.004A49 49 0 0 0 7.5 5.082" clip-rule="evenodd" />
</svg>
