<!-- This Source Code Form is subject to the terms of the Mozilla Public
   - License, v. 2.0. If a copy of the MPL was not distributed with this
   - file, You can obtain one at http://mozilla.org/MPL/2.0/. -->
<svg xmlns="http://www.w3.org/2000/svg" width="20" height="20" fill="context-fill" fill-opacity="context-fill-opacity" viewBox="0 0 20 20">
    <path d="M5.25 13.5q.066 0 .128.007a1.25 1.25 0 1 1-.128-.007" />
    <path fill-rule="evenodd" d="M10 7a3 3 0 1 1 0 6 3 3 0 0 1 0-6m0 1.75a1.25 1.25 0 1 0 .001 2.5 1.25 1.25 0 0 0 0-2.5" clip-rule="evenodd" />
    <path d="M14.75 4a1.25 1.25 0 1 1 0 2.5 1.25 1.25 0 0 1 0-2.5" />
    <path fill-rule="evenodd" d="M12.383.964c2.52-.814 4.618-.552 5.912.74 1.292 1.293 1.555 3.392.74 5.912A14 14 0 0 1 17.99 10h.002c.436.799.793 1.6 1.047 2.384.814 2.52.55 4.62-.74 5.912-.8.8-1.91 1.205-3.235 1.205-.817 0-1.717-.155-2.678-.465a14 14 0 0 1-2.384-1.047c-.799.436-1.6.793-2.383 1.047-.961.31-1.862.465-2.68.465-1.325 0-2.433-.407-3.233-1.206-1.291-1.292-1.555-3.392-.74-5.91.254-.786.611-1.586 1.047-2.385-.436-.8-.793-1.6-1.047-2.384-.815-2.52-.552-4.62.74-5.911C2.997.412 5.095.15 7.615.965c.785.253 1.586.61 2.384 1.046A14 14 0 0 1 12.383.964m4.52 10.776a21.4 21.4 0 0 1-5.162 5.163c.396.18.792.342 1.182.468 1.834.594 3.342.481 4.135-.313.792-.792.907-2.3.313-4.135a12 12 0 0 0-.468-1.183m-1.855-9.488c-.629 0-1.347.125-2.124.376-.389.126-.784.288-1.182.468.32.226.634.482.95.732a2.5 2.5 0 0 0-.395 1.93 18.5 18.5 0 0 0-2.295-1.722 19 19 0 0 0-3.304 2.657 19 19 0 0 0-2.659 3.306 18.5 18.5 0 0 0 1.729 2.305 2.48 2.48 0 0 0-1.933.39c-.252-.317-.509-.632-.736-.955-.18.397-.342.793-.468 1.183-.594 1.835-.48 3.343.313 4.135.792.793 2.298.907 4.135.313.39-.126.785-.288 1.183-.468-.322-.228-.638-.485-.955-.736a2.48 2.48 0 0 0 .39-1.933c.75.654 1.524 1.238 2.305 1.728a19 19 0 0 0 3.305-2.657A19 19 0 0 0 15.964 10a18.6 18.6 0 0 0-1.727-2.302 2.5 2.5 0 0 0 1.928-.396c.252.318.51.635.738.96.18-.398.342-.794.468-1.184l.001-.001c.594-1.835.48-3.343-.313-4.135-.457-.458-1.152-.69-2.01-.69m-10.095 0c-.859 0-1.554.232-2.011.69l-.001.001c-.792.792-.907 2.3-.313 4.135.126.389.288.785.468 1.183A21.4 21.4 0 0 1 8.26 3.097a11 11 0 0 0-1.183-.468c-.775-.251-1.494-.376-2.124-.376" clip-rule="evenodd" />
</svg>
