<!-- This Source Code Form is subject to the terms of the Mozilla Public
   - License, v. 2.0. If a copy of the MPL was not distributed with this
   - file, You can obtain one at http://mozilla.org/MPL/2.0/. -->
<svg xmlns="http://www.w3.org/2000/svg" width="20" height="20" fill="context-fill" fill-opacity="context-fill-opacity" viewBox="0 0 20 20">
    <path d="M10.5.999a2.5 2.5 0 0 1 2.5 2.5v1.575c.947.055 1.893.134 2.83.252a2.76 2.76 0 0 1 2.419 2.718l.001-.002v7.9l-.001.015-.014.254a2.764 2.764 0 0 1-2.405 2.462 41.8 41.8 0 0 1-10.441-.004A2.746 2.746 0 0 1 3 15.94V14.5a.5.5 0 0 1 .5-.5h2c1.088 0 2-.882 2-1.97v-.06c0-1.088-.912-1.97-2-1.97h-2a.5.5 0 0 1-.5-.5V8.058a2.746 2.746 0 0 1 2.389-2.729Q6.688 5.164 8 5.082V3.499a2.5 2.5 0 0 1 2.5-2.5" />
</svg>
