<!-- This Source Code Form is subject to the terms of the Mozilla Public
   - License, v. 2.0. If a copy of the MPL was not distributed with this
   - file, You can obtain one at http://mozilla.org/MPL/2.0/. -->
<svg xmlns="http://www.w3.org/2000/svg" width="20" height="20" fill="context-fill" fill-opacity="context-fill-opacity" viewBox="0 0 20 20">
    <g clip-path="url(#clip0_8069_32745)">
        <path d="M10.5 9.251a1.25 1.25 0 1 1 0 2.5 1.25 1.25 0 0 1 0-2.5" />
        <path fill-rule="evenodd" d="M10.502 1.001a4.72 4.72 0 0 1 4.582 3.573 4.72 4.72 0 0 1 4.917 4.736 4.69 4.69 0 0 1-1.777 3.686c.384.694.588 1.472.588 2.263A4.746 4.746 0 0 1 14.074 20h-.002a4.73 4.73 0 0 1-3.569-1.62A4.73 4.73 0 0 1 6.932 20a4.746 4.746 0 0 1-4.74-4.741c0-.79.206-1.567.59-2.262a4.7 4.7 0 0 1-1.78-3.686c0-2.672 2.192-4.858 4.917-4.737a4.724 4.724 0 0 1 4.583-3.573m0 1.75a2.98 2.98 0 0 0-2.974 2.853.873.873 0 0 1-1.079.811 3 3 0 0 0-.704-.095 2.995 2.995 0 0 0-2.991 2.99c0 1.125.634 2.145 1.655 2.66a.875.875 0 0 1 .27 1.352 2.95 2.95 0 0 0-.735 1.937 2.995 2.995 0 0 0 2.99 2.991 2.985 2.985 0 0 0 2.762-1.843.875.875 0 0 1 1.614 0 2.99 2.99 0 0 0 2.762 1.843 2.994 2.994 0 0 0 2.99-2.991c0-.897-.398-1.549-.733-1.937a.874.874 0 0 1 .269-1.352 2.97 2.97 0 0 0 1.655-2.66h-.002a2.995 2.995 0 0 0-2.991-2.99c-.211 0-.441.031-.705.095a.878.878 0 0 1-1.08-.81 2.98 2.98 0 0 0-2.973-2.854" clip-rule="evenodd" />
    </g>
</svg>
