<!-- This Source Code Form is subject to the terms of the Mozilla Public
   - License, v. 2.0. If a copy of the MPL was not distributed with this
   - file, You can obtain one at http://mozilla.org/MPL/2.0/. -->
<svg xmlns="http://www.w3.org/2000/svg" width="20" height="20" fill="context-fill" fill-opacity="context-fill-opacity" viewBox="0 0 20 20">
    <path fill-rule="evenodd" d="M7.501 0C8.491 0 9.383.427 10 1.106A3.37 3.37 0 0 1 12.5 0h.313a3.375 3.375 0 0 1 2.83 5.21q.87.067 1.7.148l.224.033A2.38 2.38 0 0 1 19.5 7.723v.902a2.375 2.375 0 0 1-1.5 2.206v5.666a3.13 3.13 0 0 1-2.64 3.092 35.1 35.1 0 0 1-10.694.003A3.13 3.13 0 0 1 2 16.499v-5.668A2.37 2.37 0 0 1 .5 8.625v-.902a2.38 2.38 0 0 1 2.155-2.365 75 75 0 0 1 1.7-.147A3.375 3.375 0 0 1 7.187 0zM3.75 11v5.499c0 .679.497 1.258 1.182 1.363a33 33 0 0 0 4.193.375V11zm7.125 0v7.236a33 33 0 0 0 4.217-.377l.122-.024a1.38 1.38 0 0 0 1.036-1.338V11zm0-1.75h6.25c.345 0 .625-.28.625-.625v-.902a.63.63 0 0 0-.575-.623 74 74 0 0 0-6.3-.345zm-1.75-2.495a74 74 0 0 0-6.299.345.63.63 0 0 0-.576.623v.902c0 .345.28.625.625.625h6.25zM7.188 1.75a1.625 1.625 0 1 0 0 3.25h1.937V3.361A1.625 1.625 0 0 0 7.501 1.75zm5.312 0c-.893 0-1.618.72-1.625 1.612l.001.013V5h1.938a1.625 1.625 0 0 0 0-3.25z" clip-rule="evenodd" />
</svg>
