<!-- This Source Code Form is subject to the terms of the Mozilla Public
   - License, v. 2.0. If a copy of the MPL was not distributed with this
   - file, You can obtain one at http://mozilla.org/MPL/2.0/. -->
<svg xmlns="http://www.w3.org/2000/svg" width="20" height="20" fill="context-fill" fill-opacity="context-fill-opacity" viewBox="0 0 20 20">
    <path fill-rule="evenodd" d="M10 0c5.523 0 10 4.477 10 10s-4.477 10-10 10S0 15.523 0 10 4.477 0 10 0m4.963 10.36a13.03 13.03 0 0 1-2.694 7.57 8.25 8.25 0 0 0 5.943-7.161c-1.01-.16-2.095-.3-3.25-.41m-9.929.001c-1.038.098-2.122.23-3.247.407a8.25 8.25 0 0 0 5.883 7.145 13.03 13.03 0 0 1-2.636-7.552M10 10.125c-1 0-2.075.029-3.218.099a11.3 11.3 0 0 0 3.189 7.686 11.3 11.3 0 0 0 3.244-7.684A53 53 0 0 0 10 10.125M7.73 2.068a8.26 8.26 0 0 0-5.917 6.925c1.141-.173 2.241-.3 3.294-.395a13.03 13.03 0 0 1 2.623-6.53m4.598.017a13 13 0 0 1 2.569 6.51 56 56 0 0 1 3.29.398 8.25 8.25 0 0 0-5.859-6.908m-2.302.002a11.3 11.3 0 0 0-3.14 6.377A55 55 0 0 1 10 8.375c1.08 0 2.121.035 3.12.093a11.3 11.3 0 0 0-3.094-6.381" clip-rule="evenodd" />
</svg>
