<!-- This Source Code Form is subject to the terms of the Mozilla Public
   - License, v. 2.0. If a copy of the MPL was not distributed with this
   - file, You can obtain one at http://mozilla.org/MPL/2.0/. -->
<svg xmlns="http://www.w3.org/2000/svg" width="20" height="20" fill="context-fill" fill-opacity="context-fill-opacity" viewBox="0 0 20 20">
    <path d="M9.254 7.595c.359-1.33 2.15-1.472 2.747-.29l.055.118.787 1.938h2.28a.875.875 0 0 1 0 1.75h-2.46a1.48 1.48 0 0 1-1.372-.92l-.001-.002-.556-1.367-.968 3.585c-.373 1.374-2.29 1.486-2.81.15l-.563-1.446H4.875a.875.875 0 0 1 0-1.75h1.703c.61 0 1.157.373 1.379.944l.332.854z" />
    <path fill-rule="evenodd" d="M10 2.501c2.13 0 4.575.12 7.263.466A3.14 3.14 0 0 1 20 6.072v7.858a3.12 3.12 0 0 1-2.708 3.1 56.8 56.8 0 0 1-14.555.004A3.14 3.14 0 0 1 0 13.93V6.07a3.12 3.12 0 0 1 2.708-3.1A57 57 0 0 1 10 2.502m0 1.75c-2.597 0-4.967.184-7.066.456A1.37 1.37 0 0 0 1.75 6.071v7.858c0 .69.519 1.28 1.21 1.369a55 55 0 0 0 14.106-.004 1.37 1.37 0 0 0 1.184-1.364V6.072c0-.69-.519-1.28-1.21-1.369A55 55 0 0 0 10 4.251" clip-rule="evenodd" />
</svg>
