<!-- This Source Code Form is subject to the terms of the Mozilla Public
   - License, v. 2.0. If a copy of the MPL was not distributed with this
   - file, You can obtain one at http://mozilla.org/MPL/2.0/. -->
<svg xmlns="http://www.w3.org/2000/svg" width="20" height="20" fill="context-fill" fill-opacity="context-fill-opacity" viewBox="0 0 20 20">
    <path d="M5.65 10.058a.873.873 0 0 1 1.232.105c.33.39.556.631.564.64a29.25 29.25 0 0 0 1.668 1.624.873.873 0 0 1-.585 1.525h.002a.87.87 0 0 1-.585-.224A31 31 0 0 1 6.18 12.01s-.258-.271-.635-.718a.874.874 0 0 1 .104-1.233" />
    <path fill-rule="evenodd" d="M5.777 2.025c1.634.102 3.142.995 4.217 2.477 1.045-1.438 2.495-2.308 4.074-2.443 1.683-.146 3.36.589 4.583 2.01a5.5 5.5 0 0 1 1.332 4.043q0 .031-.003.065c-.205 2.727-3.324 6.083-3.68 6.457-.328.347-.7.723-1.116 1.117a29 29 0 0 1-3.212 2.614l-.027.018a3.4 3.4 0 0 1-3.904 0 27 27 0 0 1-2.578-2.029 32 32 0 0 1-1.768-1.72c-.354-.373-3.474-3.729-3.68-6.457a6.3 6.3 0 0 1 .211-2.093q.305-1.002.948-1.82c1.199-1.53 2.884-2.349 4.603-2.24M5.67 3.773c-1.153-.064-2.266.486-3.118 1.572-.293.374-.512.79-.648 1.24 0 0-.2.695-.142 1.462.135 1.787 2.358 4.492 3.204 5.383.527.557 1.089 1.103 1.668 1.624a26 26 0 0 0 2.416 1.898c.569.4 1.33.397 1.895-.003l.452-.326a26 26 0 0 0 3.635-3.193c.832-.877 2.997-3.509 3.196-5.295l.004-.08a3.76 3.76 0 0 0-.906-2.844c-.866-1.005-1.976-1.503-3.106-1.409-1.203.103-2.318.869-3.059 2.103-.532.889-1.823.85-2.309.04C8.07 4.642 6.911 3.85 5.67 3.773" clip-rule="evenodd" />
</svg>
