<!-- This Source Code Form is subject to the terms of the Mozilla Public
   - License, v. 2.0. If a copy of the MPL was not distributed with this
   - file, You can obtain one at http://mozilla.org/MPL/2.0/. -->
<svg xmlns="http://www.w3.org/2000/svg" width="20" height="20" fill="context-fill" fill-opacity="context-fill-opacity" viewBox="0 0 20 20">
    <path d="M10.126 13.75a1 1 0 1 1 0 2 1 1 0 0 1 0-2M10.122 4.8a3.16 3.16 0 0 1 3.153 3.153 3.16 3.16 0 0 1-1.817 2.855c-.284.134-.46.384-.459.653v.329a.874.874 0 0 1-.873.876l-.001.002a.876.876 0 0 1-.875-.876v-.328c-.002-.957.56-1.815 1.466-2.24.492-.23.81-.728.81-1.27 0-.773-.63-1.403-1.404-1.403a1.41 1.41 0 0 0-1.387 1.188.875.875 0 0 1-1.73-.264A3.17 3.17 0 0 1 10.122 4.8" />
    <path fill-rule="evenodd" d="M10 0c5.523 0 10 4.477 10 10s-4.477 10-10 10S0 15.523 0 10 4.477 0 10 0m0 1.75a8.25 8.25 0 1 0 0 16.5 8.25 8.25 0 0 0 0-16.5" clip-rule="evenodd" />
</svg>
