<!-- This Source Code Form is subject to the terms of the Mozilla Public
   - License, v. 2.0. If a copy of the MPL was not distributed with this
   - file, You can obtain one at http://mozilla.org/MPL/2.0/. -->
<svg xmlns="http://www.w3.org/2000/svg" width="20" height="20" fill="context-fill" fill-opacity="context-fill-opacity" viewBox="0 0 20 20">
    <path fill-rule="evenodd" d="M8.143 1.614a3.12 3.12 0 0 1 3.713 0 56.6 56.6 0 0 1 7.91 7.07.874.874 0 1 1-1.283 1.188l-.233-.25v5.864a3.145 3.145 0 0 1-2.655 3.094c-1.847.278-3.73.42-5.595.42a38 38 0 0 1-5.567-.415 3.12 3.12 0 0 1-2.683-3.096V9.623l-.233.249A.875.875 0 1 1 .233 8.683a56.3 56.3 0 0 1 7.91-7.07M10 11.75c-.466 0-.894.042-1.275.107a.876.876 0 0 0-.725.866v4.469c1.332.074 2.669.074 4 0v-4.474c0-.435-.306-.787-.68-.853A7.7 7.7 0 0 0 10 11.75m.817-8.728a1.37 1.37 0 0 0-1.634 0A55 55 0 0 0 3.5 7.84v7.65c0 .688.501 1.261 1.19 1.364a36 36 0 0 0 1.56.196v-4.327c0-1.275.914-2.375 2.182-2.59a9.4 9.4 0 0 1 2.725-.062l.465.07c1.265.222 2.128 1.347 2.128 2.577v4.332q.794-.081 1.583-.2a1.384 1.384 0 0 0 1.167-1.363V7.84a54.5 54.5 0 0 0-5.683-4.819" clip-rule="evenodd" />
</svg>
