<svg width="20" height="20" viewBox="0 0 20 20" fill="none" xmlns="http://www.w3.org/2000/svg">
<path fill-rule="evenodd" clip-rule="evenodd" d="M10 0C15.514 0 20 4.486 20 10C20 15.514 15.514 20 10 20C4.486 20 0 15.514 0 10C0 4.486 4.486 0 10 0ZM10 8.5C9.517 8.5 9.125 8.892 9.125 9.375V14.125C9.125 14.608 9.517 15 10 15C10.483 15 10.875 14.608 10.875 14.125V9.375C10.875 8.892 10.483 8.5 10 8.5ZM10 5C9.44771 5 9 5.44772 9 6C9 6.55228 9.44771 7 10 7C10.5523 7 11 6.55228 11 6C11 5.44772 10.5523 5 10 5Z" fill="black"/>
</svg>
