<svg width="20" height="20" viewBox="0 0 20 20" fill="none" xmlns="http://www.w3.org/2000/svg">
<path d="M10 8.5C10.483 8.5 10.875 8.892 10.875 9.375V14.125C10.875 14.608 10.483 15 10 15C9.517 15 9.125 14.608 9.125 14.125V9.375C9.125 8.892 9.517 8.5 10 8.5Z" fill="black"/>
<path d="M10 5C10.5523 5 11 5.44772 11 6C11 6.55228 10.5523 7 10 7C9.44771 7 9 6.55228 9 6C9 5.44772 9.44771 5 10 5Z" fill="black"/>
<path fill-rule="evenodd" clip-rule="evenodd" d="M10 0C15.5228 0 20 4.47715 20 10C20 15.5228 15.5228 20 10 20C4.47715 20 0 15.5228 0 10C0 4.47715 4.47715 0 10 0ZM10 1.75C5.44365 1.75 1.75 5.44365 1.75 10C1.75 14.5563 5.44365 18.25 10 18.25C14.5563 18.25 18.25 14.5563 18.25 10C18.25 5.44365 14.5563 1.75 10 1.75Z" fill="black"/>
</svg>
