<svg width="20" height="20" viewBox="0 0 20 20" fill="none" xmlns="http://www.w3.org/2000/svg">
<path d="M13.125 15C13.608 15 14 15.392 14 15.875C14 16.358 13.608 16.75 13.125 16.75H6.875C6.392 16.75 6 16.358 6 15.875C6 15.392 6.392 15 6.875 15H13.125Z" fill="black"/>
<path d="M17.125 11C17.608 11 18 11.392 18 11.875C18 12.358 17.608 12.75 17.125 12.75H2.875C2.392 12.75 2 12.358 2 11.875C2 11.392 2.392 11 2.875 11H17.125Z" fill="black"/>
<path d="M13.125 7C13.608 7 14 7.392 14 7.875C14 8.358 13.608 8.75 13.125 8.75H6.875C6.392 8.75 6 8.358 6 7.875C6 7.392 6.392 7 6.875 7H13.125Z" fill="black"/>
<path d="M17.125 3C17.608 3 18 3.392 18 3.875C18 4.358 17.608 4.75 17.125 4.75H2.875C2.392 4.75 2 4.358 2 3.875C2 3.392 2.392 3 2.875 3H17.125Z" fill="black"/>
</svg>
