<!-- This Source Code Form is subject to the terms of the Mozilla Public
   - License, v. 2.0. If a copy of the MPL was not distributed with this
   - file, You can obtain one at http://mozilla.org/MPL/2.0/. -->
<svg xmlns="http://www.w3.org/2000/svg" width="20" height="20" fill="context-fill" fill-opacity="context-fill-opacity" viewBox="0 0 20 20">
    <g fill-rule="evenodd" clip-path="url(#clip0_8069_32726)" clip-rule="evenodd">
        <path d="M15 10a5 5 0 1 1 0 10 5 5 0 0 1 0-10m.001 2.25a.75.75 0 0 0-.75.75v2.108h-1.356a.393.393 0 0 0-.279.67l2.107 2.106a.393.393 0 0 0 .554 0l2.108-2.107a.393.393 0 0 0-.278-.67H15.75V13a.75.75 0 0 0-.75-.75M5.899 0c.68 0 1.293.41 1.556 1.037l3.664 8.76a6.6 6.6 0 0 0-1.336 1.343h-.002L8.554 8.207H3.237l-1.116 2.669a.874.874 0 1 1-1.614-.675l3.834-9.164A1.69 1.69 0 0 1 5.899 0M3.97 6.457h3.854L5.9 1.85z" />
    </g>
</svg>
