<!-- This Source Code Form is subject to the terms of the Mozilla Public
   - License, v. 2.0. If a copy of the MPL was not distributed with this
   - file, You can obtain one at http://mozilla.org/MPL/2.0/. -->
<svg xmlns="http://www.w3.org/2000/svg" width="20" height="20" fill="context-fill" fill-opacity="context-fill-opacity" viewBox="0 0 20 20">
    <path fill-rule="evenodd" d="M15.583 1A3.417 3.417 0 0 1 19 4.417V9.5a8.505 8.505 0 0 1-9.807 8.402l-.512-.091a8.35 8.35 0 0 1-3.852-1.96q-.645.85-1.218 1.745a.875.875 0 1 1-1.473-.942q.699-1.091 1.497-2.116A8.3 8.3 0 0 1 2.19 11.32C1.047 5.838 5.209 1 10.5 1zM10.5 2.75c-4.202 0-7.509 3.838-6.598 8.212.163.781.472 1.517.894 2.178q.553-.624 1.14-1.213a28 28 0 0 1 4.728-3.8.874.874 0 1 1 .942 1.475 26.3 26.3 0 0 0-5.67 4.892 6.6 6.6 0 0 0 3.102 1.604c4.374.91 8.212-2.396 8.212-6.598V4.417c0-.92-.746-1.667-1.667-1.667z" clip-rule="evenodd" />
</svg>
