<!-- This Source Code Form is subject to the terms of the Mozilla Public
   - License, v. 2.0. If a copy of the MPL was not distributed with this
   - file, You can obtain one at http://mozilla.org/MPL/2.0/. -->
<svg xmlns="http://www.w3.org/2000/svg" width="20" height="20" fill="context-fill" fill-opacity="context-fill-opacity" viewBox="0 0 20 20">
    <path fill-rule="evenodd" d="M10 5a3.754 3.754 0 0 1 3.75 3.75A3.754 3.754 0 0 1 10 12.5a3.754 3.754 0 0 1-3.75-3.75A3.754 3.754 0 0 1 10 5m0 1.75c-1.103 0-2 .897-2 2s.897 2 2 2 2-.897 2-2-.897-2-2-2" clip-rule="evenodd" />
    <path fill-rule="evenodd" d="M10 0a8.75 8.75 0 0 1 8.75 8.752c0 1.799-1.091 3.813-2.327 5.558-1.268 1.791-2.825 3.483-4.003 4.674a3.394 3.394 0 0 1-4.84 0c-1.178-1.19-2.735-2.883-4.003-4.674-1.159-1.636-2.19-3.508-2.315-5.218l-.013-.34C1.25 3.919 5.168 0 10 0m0 1.75c-3.865 0-7 3.135-7.001 7.002 0 1.204.785 2.823 2.006 4.547 1.19 1.679 2.671 3.294 3.818 4.455l.127.116a1.643 1.643 0 0 0 2.226-.116l.444-.456c1.069-1.11 2.334-2.53 3.374-4C16.215 11.576 17 9.957 17 8.753a7 7 0 0 0-7-7.002" clip-rule="evenodd" />
</svg>
