<!-- This Source Code Form is subject to the terms of the Mozilla Public
   - License, v. 2.0. If a copy of the MPL was not distributed with this
   - file, You can obtain one at http://mozilla.org/MPL/2.0/. -->
<svg xmlns="http://www.w3.org/2000/svg" width="20" height="20" fill="context-fill" fill-opacity="context-fill-opacity" viewBox="0 0 20 20">
    <path fill-rule="evenodd" d="M10 3.75a4.5 4.5 0 1 1 0 9 4.5 4.5 0 0 1 0-9m0 1.75a2.75 2.75 0 1 0 0 5.5 2.75 2.75 0 0 0 0-5.5" clip-rule="evenodd" />
    <path fill-rule="evenodd" d="M10 0a8.25 8.25 0 0 1 6.016 13.894h.981l.099.005a1.87 1.87 0 0 1 1.654 1.865v.92a2.87 2.87 0 0 1-2.433 2.844 42.6 42.6 0 0 1-12.604.005 2.89 2.89 0 0 1-2.463-2.85v-.92A1.87 1.87 0 0 1 2.904 13.9a1 1 0 0 1 .099-.005h.98A8.25 8.25 0 0 1 10 0M3.083 15.644a.12.12 0 0 0-.083.12v.92c0 .554.413 1.034.972 1.118a40.8 40.8 0 0 0 12.087-.005c.536-.08.941-.55.941-1.112v-.921a.12.12 0 0 0-.083-.12zM10 1.75a6.5 6.5 0 0 0-6.5 6.5 6.5 6.5 0 0 0 3.28 5.644h6.44A6.5 6.5 0 0 0 16.5 8.25a6.5 6.5 0 0 0-6.5-6.5" clip-rule="evenodd" />
</svg>
