<!-- This Source Code Form is subject to the terms of the Mozilla Public
   - License, v. 2.0. If a copy of the MPL was not distributed with this
   - file, You can obtain one at http://mozilla.org/MPL/2.0/. -->
<svg xmlns="http://www.w3.org/2000/svg" width="20" height="20" fill="context-fill" fill-opacity="context-fill-opacity" viewBox="0 0 20 20">
    <g clip-path="url(#clip0_13876_778)">
        <path fill-rule="evenodd" d="M.256.256a.877.877 0 0 1 1.238 0l5.492 5.493-.058.15-.932.37q-.337.136-.61.355L3.022 4.26Q3 4.38 3 4.509v9.894c.28-.1.582-.154.895-.154h9.114l-1.652-1.652c.14-.18.26-.382.347-.604l.399-.952.125-.05 7.516 7.515v.001a.875.875 0 1 1-1.238 1.238l-.7-.699a.9.9 0 0 1-.385.184 39.3 39.3 0 0 1-7.351.768L9.692 20c-2.086 0-4.18-.167-6.233-.496a2.63 2.63 0 0 1-2.21-2.611V4.509c0-.58.156-1.122.433-1.587L.256 1.495a.88.88 0 0 1 0-1.239m14.37 15.741H3.894a.896.896 0 0 0-.895.895c0 .443.31.814.74.883a37.3 37.3 0 0 0 11.454.066v-1.407l-.442-.442q-.063.004-.127.005" clip-rule="evenodd" />
        <path d="M4.688 1.33a37.7 37.7 0 0 1 10.407.088 3.145 3.145 0 0 1 2.655 3.094v8.361c0 .445-.104.861-.275 1.243L16 12.641V4.51c0-.676-.501-1.263-1.166-1.363a36 36 0 0 0-5.334-.4 36 36 0 0 0-3.23.164z" />
        <path d="M8.693 5.504c.287-.734 1.326-.734 1.613 0l.586 1.498 1.56.661c.333.133.548.451.548.813s-.215.68-.55.813l-1.486.59-.657 1.567a.864.864 0 0 1-1.614.001L8.107 9.95l-1.559-.66a.87.87 0 0 1-.549-.814c0-.362.215-.68.55-.813l1.486-.59.072-.07z" />
    </g>
</svg>
