<!-- This Source Code Form is subject to the terms of the Mozilla Public
   - License, v. 2.0. If a copy of the MPL was not distributed with this
   - file, You can obtain one at http://mozilla.org/MPL/2.0/. -->
<svg xmlns="http://www.w3.org/2000/svg" width="20" height="20" fill="context-fill" fill-opacity="context-fill-opacity" viewBox="0 0 20 20">
    <path fill-rule="evenodd" d="M7.589 2.399a30.6 30.6 0 0 1 9.779-.008A3.12 3.12 0 0 1 20 5.48v10.572c0 .98-.455 1.859-1.218 2.35A3.74 3.74 0 0 1 16.75 19a3.74 3.74 0 0 1-2.873-1.34 3.77 3.77 0 0 1-.818-3.083 3.76 3.76 0 0 1 3.177-3.043 3.8 3.8 0 0 1 2.014.277V8.25H6.75v7.87c0 1.313-.893 2.481-2.122 2.777q-.435.105-.878.104a4 4 0 0 1-.665-.058C1.57 18.68.326 17.438.059 15.923a3.77 3.77 0 0 1 .818-3.083c.992-1.18 2.696-1.63 4.123-1.124V5.477C5 3.937 6.089 2.642 7.589 2.4M3.75 13.249c-.593 0-1.152.26-1.533.714a2 2 0 0 0-.435 1.656 2.03 2.03 0 0 0 1.602 1.598c.283.05.565.042.836-.023.451-.108.779-.56.779-1.075v-2.431a2 2 0 0 0-1.25-.44m12.992.002q-.136 0-.274.02c-.832.111-1.543.788-1.687 1.61a2 2 0 0 0 .435 1.655c.63.75 1.799.92 2.615.397.258-.167.418-.504.418-.88h-.001v-2.125a2 2 0 0 0-1.506-.678m.346-9.132a28.9 28.9 0 0 0-9.218.006c-.64.105-1.121.685-1.121 1.352V6.5h11.5V5.48c0-.68-.488-1.253-1.161-1.361" clip-rule="evenodd" />
</svg>
