<!-- This Source Code Form is subject to the terms of the Mozilla Public
   - License, v. 2.0. If a copy of the MPL was not distributed with this
   - file, You can obtain one at http://mozilla.org/MPL/2.0/. -->
<svg xmlns="http://www.w3.org/2000/svg" width="20" height="20" fill="context-fill" fill-opacity="context-fill-opacity" viewBox="0 0 20 20">
    <path d="M6.75 8a1.25 1.25 0 1 1 0 2.5 1.25 1.25 0 0 1 0-2.5m7.5 0a1.25 1.25 0 1 1 0 2.5 1.25 1.25 0 0 1 0-2.5m-3.736-2.5c.683 0 1.236.553 1.236 1.236v.028c0 .683-.553 1.236-1.236 1.236h-.028A1.236 1.236 0 0 1 9.25 6.764v-.028c0-.682.553-1.236 1.236-1.236z" />
    <path fill-rule="evenodd" d="M8.764 1.154a9.507 9.507 0 0 1 11.234 9.212c.037 2.63-2.072 4.805-4.715 4.805h-1.312a.74.74 0 0 0-.643 1.105c.949 1.66-.25 3.724-2.16 3.725h-.67l-.018-.002A9.503 9.503 0 0 1 1.072 9.315c.493-4.061 3.655-7.443 7.692-8.161m9.485 9.236c-.065-4.693-4.301-8.38-9.18-7.513-3.27.582-5.859 3.343-6.26 6.65A7.754 7.754 0 0 0 10.5 18.25h.667a.74.74 0 0 0 .642-1.105c-.946-1.658.251-3.724 2.162-3.724h1.313c1.653 0 2.988-1.364 2.965-3.03" clip-rule="evenodd" />
</svg>
