<!-- This Source Code Form is subject to the terms of the Mozilla Public
   - License, v. 2.0. If a copy of the MPL was not distributed with this
   - file, You can obtain one at http://mozilla.org/MPL/2.0/. -->
<svg xmlns="http://www.w3.org/2000/svg" width="20" height="20" fill="context-fill" fill-opacity="context-fill-opacity" viewBox="0 0 20 20">
    <g clip-path="url(#clip0_8069_32719)">
        <path d="M6 8.75a1.25 1.25 0 1 1 0 2.5 1.25 1.25 0 0 1 0-2.5" />
        <path fill-rule="evenodd" d="M6.235 4.004a5.99 5.99 0 0 1 5.058 3.188l5.475-.011c2.712-.008 4.219 3.139 2.51 5.247a3.22 3.22 0 0 1-4.158.733l-.23-.138-.331.33a1.9 1.9 0 0 1-2.687 0l-.557-.557h-.018A5.99 5.99 0 0 1 6 16a6 6 0 0 1 .001-12.001zm-.234 1.745A4.25 4.25 0 0 0 6 14.25a4.24 4.24 0 0 0 3.93-2.658.88.88 0 0 1 .811-.546h.937c.232 0 .455.093.619.257l.812.812a.15.15 0 0 0 .214 0l.813-.812.113-.096a.88.88 0 0 1 .955-.036l.817.49a1.47 1.47 0 0 0 1.897-.335c.78-.962.093-2.4-1.145-2.395l-6.032.013A.88.88 0 0 1 9.93 8.4 4.25 4.25 0 0 0 6.33 5.762z" clip-rule="evenodd" />
    </g>
</svg>
