<!-- This Source Code Form is subject to the terms of the Mozilla Public
   - License, v. 2.0. If a copy of the MPL was not distributed with this
   - file, You can obtain one at http://mozilla.org/MPL/2.0/. -->
<svg xmlns="http://www.w3.org/2000/svg" width="20" height="20" fill="context-fill" fill-opacity="context-fill-opacity" viewBox="0 0 20 20">
    <path fill-rule="evenodd" d="M10 6.5c1.398 0 2.676.842 3.257 2.146a13.1 13.1 0 0 0 2.534 3.76l.76.786c.62.642.964 1.487.964 2.383a3.13 3.13 0 0 1-2.696 3.103 36 36 0 0 1-4.818.323L10 19c-1.618 0-3.25-.11-4.852-.328-1.518-.205-2.663-1.53-2.663-3.081 0-.906.343-1.758.965-2.4l.759-.785a13 13 0 0 0 2.534-3.76C7.324 7.342 8.602 6.5 10 6.5m0 1.75c-.708 0-1.358.435-1.66 1.108a14.8 14.8 0 0 1-2.873 4.264l-.76.786c-.3.31-.472.74-.472 1.183 0 .68.494 1.258 1.148 1.348a34.5 34.5 0 0 0 9.2.004 1.37 1.37 0 0 0 1.18-1.355c0-.451-.166-.864-.47-1.178l-.76-.787a14.8 14.8 0 0 1-2.875-4.264c-.3-.674-.951-1.108-1.659-1.108z" clip-rule="evenodd" />
    <path d="M1.875 7C2.911 7 3.75 8.12 3.75 9.5S2.91 12 1.875 12 0 10.88 0 9.5.84 7 1.875 7M18.125 7C19.16 7 20 8.12 20 9.5s-.84 2.5-1.875 2.5-1.875-1.12-1.875-2.5.84-2.5 1.875-2.5M6.875 1C7.911 1 8.75 2.12 8.75 3.5S7.91 6 6.875 6 5 4.88 5 3.5 5.84 1 6.875 1M13.125 1C14.161 1 15 2.12 15 3.5S14.16 6 13.125 6 11.25 4.88 11.25 3.5 12.09 1 13.125 1" />
</svg>
