<svg width="20" height="20" viewBox="0 0 20 20" fill="none" xmlns="http://www.w3.org/2000/svg">
<path fill-rule="evenodd" clip-rule="evenodd" d="M8.5 1C12.6421 1 16 4.35786 16 8.5C16 10.2562 15.3939 11.8694 14.3828 13.1475L17.7432 16.5068C18.0851 16.8488 18.0851 17.4031 17.7432 17.7441C17.4012 18.0861 16.8469 18.0861 16.5059 17.7441L13.1455 14.3848C11.8678 15.3948 10.2552 16 8.5 16C4.35786 16 1 12.6421 1 8.5C1 4.35786 4.35786 1 8.5 1ZM8.5 2.75C5.32436 2.75 2.75 5.32436 2.75 8.5C2.75 11.6756 5.32436 14.25 8.5 14.25C11.6756 14.25 14.25 11.6756 14.25 8.5C14.25 5.32436 11.6756 2.75 8.5 2.75Z" fill="black"/>
</svg>
