<!-- This Source Code Form is subject to the terms of the Mozilla Public
   - License, v. 2.0. If a copy of the MPL was not distributed with this
   - file, You can obtain one at http://mozilla.org/MPL/2.0/. -->
<svg xmlns="http://www.w3.org/2000/svg" width="20" height="20" fill="context-fill" fill-opacity="context-fill-opacity" viewBox="0 0 20 20">
    <path fill-rule="evenodd" d="M14.5 1.5c.791 0 1.76.05 2.857.222A3.13 3.13 0 0 1 20 4.813v10.375a3.13 3.13 0 0 1-2.655 3.092 18.5 18.5 0 0 1-5.702-.002A3.13 3.13 0 0 1 9 15.187V4.812a3.13 3.13 0 0 1 2.655-3.092c.845-.131 1.8-.22 2.845-.22m-1 13.5a.75.75 0 0 0 0 1.5h2a.75.75 0 0 0 0-1.5zm1-11.75c-.947 0-1.811.08-2.576.198a1.38 1.38 0 0 0-1.174 1.364V13h7.5V4.813c0-.635-.437-1.186-1.04-1.337l-.122-.026a17 17 0 0 0-2.588-.2" clip-rule="evenodd" />
    <path d="M4.001 7.501a.5.5 0 0 1 .853-.354l2.5 2.5a.5.5 0 0 1 0 .705l-2.5 2.5a.5.5 0 0 1-.853-.354v-1.623H.875a.875.875 0 0 1 0-1.75h3.126z" />
</svg>
