<!-- This Source Code Form is subject to the terms of the Mozilla Public
   - License, v. 2.0. If a copy of the MPL was not distributed with this
   - file, You can obtain one at http://mozilla.org/MPL/2.0/. -->
<svg xmlns="http://www.w3.org/2000/svg" width="20" height="20" fill="context-fill" fill-opacity="context-fill-opacity" viewBox="0 0 20 20">
    <path fill-rule="evenodd" d="M10 6.5a3.5 3.5 0 1 1 0 7 3.5 3.5 0 0 1 0-7m0 1.75c-.964 0-1.75.785-1.75 1.75s.785 1.75 1.75 1.75 1.75-.785 1.75-1.75-.785-1.75-1.75-1.75" clip-rule="evenodd" />
    <path fill-rule="evenodd" d="M8.24.416a3.94 3.94 0 0 1 3.31-.098l.21.097.002.002c.554.279.963.785 1.114 1.39l.365 1.46c.336.166.652.357.949.564l1.466-.419.227-.052c.532-.09 1.08.024 1.534.322a3.94 3.94 0 0 1 1.762 3.051 2.13 2.13 0 0 1-.646 1.661l-1.088 1.053c.02.173.037.363.037.553s-.017.38-.037.552l1.088 1.051c.392.38.622.892.648 1.43l-.002.232a3.94 3.94 0 0 1-1.571 2.918l-.19.133a2.13 2.13 0 0 1-1.762.272l-1.467-.42a7.4 7.4 0 0 1-.948.563l-.365 1.461a2.13 2.13 0 0 1-1.117 1.39l.001.002a3.94 3.94 0 0 1-3.311.098l-.211-.098a2.13 2.13 0 0 1-1.116-1.39l-.365-1.46a7.4 7.4 0 0 1-.948-.565l-1.466.42c-.6.171-1.243.07-1.762-.27v-.002a3.94 3.94 0 0 1-1.762-3.05 2.13 2.13 0 0 1 .646-1.663l1.088-1.052A5 5 0 0 1 2.517 10c0-.191.016-.381.036-.554l-1.087-1.05A2.13 2.13 0 0 1 .82 6.733a3.94 3.94 0 0 1 1.572-2.918l.19-.134a2.13 2.13 0 0 1 1.762-.27l1.465.419c.297-.207.612-.399.95-.566l.364-1.458A2.13 2.13 0 0 1 8.24.416m2.739 1.564a2.19 2.19 0 0 0-1.957 0l-.001.001a.38.38 0 0 0-.2.25L8.354 4.1a.88.88 0 0 1-.518.597c-.464.19-.9.459-1.32.784a.88.88 0 0 1-.776.15l-1.877-.537a.4.4 0 0 0-.243.01l-.075.038a2.19 2.19 0 0 0-.967 1.568l-.011.128a.38.38 0 0 0 .115.298l1.406 1.36c.2.193.296.47.26.746-.046.33-.08.534-.081.757 0 .224.037.422.081.76a.88.88 0 0 1-.26.743l-1.406 1.36a.38.38 0 0 0-.115.299c.041.688.404 1.315.978 1.694.096.063.21.08.318.05l1.877-.537.1-.022a.88.88 0 0 1 .675.17 5.8 5.8 0 0 0 1.149.71l.172.076.094.044c.21.117.365.317.424.553l.467 1.868c.027.108.101.2.2.25a2.19 2.19 0 0 0 1.958 0 .38.38 0 0 0 .2-.25l.467-1.869.031-.1a.88.88 0 0 1 .487-.497 5.7 5.7 0 0 0 1.32-.785.88.88 0 0 1 .777-.149l1.877.537c.108.03.223.013.316-.049h.002a2.19 2.19 0 0 0 .978-1.696.38.38 0 0 0-.116-.298l-1.406-1.36a.88.88 0 0 1-.26-.745c.045-.33.08-.534.08-.757 0-.224-.035-.422-.08-.76a.88.88 0 0 1 .26-.743l1.406-1.36a.4.4 0 0 0 .116-.298 2.19 2.19 0 0 0-.978-1.695l-.075-.039a.4.4 0 0 0-.244-.011h.001l-1.877.538a.88.88 0 0 1-.776-.15 5.7 5.7 0 0 0-1.321-.784.88.88 0 0 1-.518-.598l-.467-1.869a.4.4 0 0 0-.2-.25" clip-rule="evenodd" />
</svg>
