<!-- This Source Code Form is subject to the terms of the Mozilla Public
   - License, v. 2.0. If a copy of the MPL was not distributed with this
   - file, You can obtain one at http://mozilla.org/MPL/2.0/. -->
<svg xmlns="http://www.w3.org/2000/svg" width="20" height="20" fill="context-fill" fill-opacity="context-fill-opacity" viewBox="0 0 20 20">
    <path fill-rule="evenodd" d="M.256.256a.876.876 0 0 1 1.239 0l18.25 18.25a.876.876 0 0 1-1.239 1.239l-3.217-3.218c-1.053 1.198-2.272 2.236-3.569 3.005a3.37 3.37 0 0 1-1.716.468 3.4 3.4 0 0 1-1.75-.483c-1.893-1.126-3.639-2.813-4.918-4.75-.687-1.045-1.173-2.316-1.443-3.777l-.57-3.098c-.27-1.466.437-2.937 1.7-3.63L.257 1.495a.876.876 0 0 1 0-1.239m3.757 5.469c-.705.294-1.114 1.074-.97 1.852l.57 3.096c.228 1.23.625 2.284 1.185 3.132 1.136 1.721 2.683 3.216 4.353 4.21a1.64 1.64 0 0 0 1.678.013c1.173-.695 2.279-1.638 3.229-2.732L4.344 5.582q-.165.073-.33.143" clip-rule="evenodd" />
    <path d="M8.044 1.592a3.45 3.45 0 0 1 3.888.016 26 26 0 0 0 4.716 2.564c1.469.612 2.321 2.202 2.028 3.78L18.111 11a11 11 0 0 1-.92 2.834l-1.325-1.325a9.6 9.6 0 0 0 .523-1.827l.567-3.049a1.67 1.67 0 0 0-.981-1.844 28 28 0 0 1-5.033-2.739 1.7 1.7 0 0 0-.96-.298 1.74 1.74 0 0 0-.968.296c-.523.35-1.064.68-1.613.996L6.114 2.756c.659-.366 1.308-.75 1.93-1.164" />
</svg>
