<!-- This Source Code Form is subject to the terms of the Mozilla Public
   - License, v. 2.0. If a copy of the MPL was not distributed with this
   - file, You can obtain one at http://mozilla.org/MPL/2.0/. -->
<svg xmlns="http://www.w3.org/2000/svg" width="20" height="20" fill="context-fill" fill-opacity="context-fill-opacity" viewBox="0 0 20 20">
    <path fill-rule="evenodd" d="M8.043 1.593a3.45 3.45 0 0 1 3.888.014c.5.344 1.043.691 1.63 1.033l.601.34.644.34c.637.325 1.254.608 1.842.853a3.41 3.41 0 0 1 2.028 3.78L18.11 11c-.241 1.303-.686 2.614-1.44 3.76l-.002.004c-1.3 1.972-3.046 3.645-4.945 4.77a3.4 3.4 0 0 1-3.465-.013c-1.888-1.124-3.624-2.79-4.919-4.75-.759-1.152-1.202-2.468-1.444-3.778h-.001l-.57-3.097c-.285-1.555.518-3.16 2.017-3.784.64-.266 1.309-.574 1.998-.93a28 28 0 0 0 2.705-1.588m2.898 1.457a1.7 1.7 0 0 0-1.926-.001c-.636.424-1.336.854-2.096 1.273l-.78.416q-.825.424-1.61.768l-.516.22c-.7.292-1.113 1.065-.969 1.851l.57 3.097.088.428c.222.988.575 1.912 1.097 2.704l.22.325c1.13 1.609 2.585 2.964 4.133 3.885.52.31 1.17.313 1.678.012 1.66-.984 3.213-2.467 4.374-4.228l.002-.003c.595-.902.971-1.975 1.182-3.115l.001-.001.567-3.048.02-.147a1.655 1.655 0 0 0-1.001-1.697 28 28 0 0 1-5.034-2.74" clip-rule="evenodd" />
</svg>
