<!-- This Source Code Form is subject to the terms of the Mozilla Public
   - License, v. 2.0. If a copy of the MPL was not distributed with this
   - file, You can obtain one at http://mozilla.org/MPL/2.0/. -->
<svg xmlns="http://www.w3.org/2000/svg" width="20" height="20" fill="context-fill" fill-opacity="context-fill-opacity" viewBox="0 0 20 20">
    <g clip-path="url(#clip0_8069_32750)">
        <path d="M8.5 17a1.5 1.5 0 1 1 0 3 1.5 1.5 0 0 1 0-3m8 0a1.5 1.5 0 1 1 0 3 1.5 1.5 0 0 1 0-3" />
        <path fill-rule="evenodd" d="M2.574 1.25c1.418 0 2.658.954 3.02 2.325l.543 2.046a33.4 33.4 0 0 1 11.426-.242l.157.028A2.874 2.874 0 0 1 19.9 8.97l-1.171 4.37a3.11 3.11 0 0 1-2.332 2.242 17.9 17.9 0 0 1-7.694 0 3.11 3.11 0 0 1-2.332-2.241v-.003L3.902 4.023A1.375 1.375 0 0 0 2.574 3H.875a.875.875 0 1 1 0-1.75zm9.48 5.504a31.6 31.6 0 0 0-5.468.563l1.476 5.569c.134.5.528.878 1.018.986a16.1 16.1 0 0 0 6.942 0c.49-.108.884-.486 1.017-.985l1.172-4.371a1.123 1.123 0 0 0-.911-1.407 32 32 0 0 0-4.74-.359z" clip-rule="evenodd" />
    </g>
</svg>
