<svg width="20" height="20" viewBox="0 0 20 20" fill="none" xmlns="http://www.w3.org/2000/svg">
<path d="M3 5.25306C3 3.52506 4.86621 2.44196 6.36621 3.29896L14.6729 8.04603C14.8992 8.17537 15.0914 8.33435 15.25 8.51381V3.87513C15.25 3.39189 15.6418 3.00013 16.125 3.00013C16.6082 3.00013 17 3.39189 17 3.87513V16.1251C16.9999 16.6083 16.6082 17.0001 16.125 17.0001C15.6418 17.0001 15.2501 16.6083 15.25 16.1251V11.4845C15.0914 11.6641 14.8993 11.8239 14.6729 11.9533L6.36621 16.7003C4.86632 17.5572 3.00024 16.475 3 14.7472V5.25306Z" fill="black"/>
</svg>
