<svg width="20" height="20" viewBox="0 0 20 20" fill="none" xmlns="http://www.w3.org/2000/svg">
<path d="M13.6338 3.29896C15.1338 2.44196 17 3.52506 17 5.25306V14.7472C16.9998 16.475 15.1337 17.5572 13.6338 16.7003L5.32715 11.9533C5.10071 11.8239 4.90862 11.6641 4.75 11.4845V16.1251C4.74987 16.6083 4.35817 17.0001 3.875 17.0001C3.39183 17.0001 3.00013 16.6083 3 16.1251V3.87513C3 3.39189 3.39175 3.00013 3.875 3.00013C4.35825 3.00013 4.75 3.39189 4.75 3.87513V8.51381C4.90858 8.33435 5.10081 8.17537 5.32715 8.04603L13.6338 3.29896Z" fill="black"/>
</svg>
