<!-- This Source Code Form is subject to the terms of the Mozilla Public
   - License, v. 2.0. If a copy of the MPL was not distributed with this
   - file, You can obtain one at http://mozilla.org/MPL/2.0/. -->
<svg xmlns="http://www.w3.org/2000/svg" width="20" height="20" fill="context-fill" fill-opacity="context-fill-opacity" viewBox="0 0 20 20">
    <path d="M9.558 7.82a.75.75 0 0 1 .882 0l1.747 1.269c.262.19.372.53.272.839l-.667 2.054a.75.75 0 0 1-.713.518h-2.16a.75.75 0 0 1-.712-.518L7.54 9.928a.75.75 0 0 1 .272-.84z" />
    <path fill-rule="evenodd" d="M10 .125c5.454 0 9.875 4.421 9.875 9.875S15.454 19.875 10 19.875.125 15.454.125 10 4.546.125 10 .125m.441 4.429a.75.75 0 0 1-.882 0L6.551 2.368a8.4 8.4 0 0 0-2.6 1.841l1.354 3.523a.75.75 0 0 1-.228.852l-3.352 2.714a8.3 8.3 0 0 0 .86 2.596l3.312-.173a.75.75 0 0 1 .74.48l1.522 3.968a8.4 8.4 0 0 0 1.84.206c.672 0 1.325-.082 1.951-.231l.983-3.67a.75.75 0 0 1 .685-.555l3.888-.204a8.3 8.3 0 0 0 .792-2.596L14.957 8.95a.75.75 0 0 1-.316-.823l1.12-4.18.021-.003a8.4 8.4 0 0 0-2.334-1.576z" clip-rule="evenodd" />
</svg>
