<svg width="20" height="20" viewBox="0 0 20 20" fill="none" xmlns="http://www.w3.org/2000/svg">
<g clip-path="url(#clip0_8069_32783)">
<path d="M9.55835 7.82031C9.82134 7.62936 10.1772 7.62933 10.4402 7.82031L12.1873 9.08887C12.4492 9.27984 12.5586 9.61881 12.4587 9.92773L11.7917 11.9824C11.6916 12.2912 11.4037 12.5 11.0789 12.5H8.91968C8.59493 12.4999 8.30684 12.2911 8.20679 11.9824L7.53979 9.92773C7.43897 9.61882 7.54935 9.2798 7.81226 9.08887L9.55835 7.82031Z" fill="black"/>
<path fill-rule="evenodd" clip-rule="evenodd" d="M9.99976 0.125C15.4536 0.125 19.8748 4.54619 19.8748 10C19.8748 15.4538 15.4536 19.875 9.99976 19.875C4.54606 19.8749 0.124756 15.4537 0.124756 10C0.124756 4.54627 4.54606 0.125132 9.99976 0.125ZM10.4412 4.55371C10.1782 4.74469 9.82232 4.74466 9.55933 4.55371L6.55054 2.36816C5.56853 2.81272 4.68789 3.44053 3.9519 4.20898L5.30542 7.73242C5.42214 8.0363 5.32977 8.38009 5.0769 8.58398L1.72534 11.2979C1.86912 12.222 2.16481 13.0955 2.58472 13.8936L5.89722 13.7207C6.22114 13.7038 6.5205 13.8982 6.63647 14.2012L8.15894 18.1689C8.75147 18.3019 9.36709 18.375 9.99976 18.375C10.6714 18.375 11.3241 18.2929 11.95 18.1436L12.9333 14.4736C13.0175 14.1599 13.2941 13.936 13.6179 13.9189L17.5056 13.7148C17.9029 12.9137 18.1745 12.0404 18.2976 11.1191L14.9568 8.9502C14.6838 8.77319 14.5574 8.44095 14.6414 8.12695L15.7605 3.94629L15.782 3.94434C15.1027 3.29555 14.315 2.76048 13.448 2.36816L10.4412 4.55371Z" fill="black"/>
</g>
<defs>
<clipPath id="clip0_8069_32783">
<rect width="20" height="20" fill="white"/>
</clipPath>
</defs>
</svg>
