<!-- This Source Code Form is subject to the terms of the Mozilla Public
   - License, v. 2.0. If a copy of the MPL was not distributed with this
   - file, You can obtain one at http://mozilla.org/MPL/2.0/. -->
<svg xmlns="http://www.w3.org/2000/svg" width="20" height="20" fill="context-fill" fill-opacity="context-fill-opacity" viewBox="0 0 20 20">
    <path d="M3.029 14.316a.51.51 0 0 1 .943 0q.05.12.098.246.152.41.245.769a.51.51 0 0 0 .37.357 7.4 7.4 0 0 1 .995.337c.426.18.43.77.003.95q-.15.062-.308.121a8 8 0 0 1-.693.217.5.5 0 0 0-.367.356 8 8 0 0 1-.266.823q-.038.1-.078.194a.51.51 0 0 1-.941 0l-.078-.194a8 8 0 0 1-.266-.823.5.5 0 0 0-.367-.356 7.5 7.5 0 0 1-1.001-.339.513.513 0 0 1 .003-.949 7.4 7.4 0 0 1 .996-.337.5.5 0 0 0 .37-.357 8 8 0 0 1 .342-1.015" />
    <path fill-rule="evenodd" d="M10.444 3.376c.766-1.835 3.347-1.834 4.113-.001a21 21 0 0 1 .947 2.804l.017.052a.48.48 0 0 0 .334.27 21 21 0 0 1 2.757.933h.002c1.833.77 1.86 3.351.007 4.128l-.001.001a22 22 0 0 1-.853.335v.001a21 21 0 0 1-1.914.6c-.195.052-.313.183-.348.317-.184.704-.423 1.47-.735 2.277v.002q-.106.272-.216.535v.002c-.763 1.824-3.344 1.825-4.107-.001l-.001-.001a21.5 21.5 0 0 1-.95-2.812.47.47 0 0 0-.347-.318 21 21 0 0 1-2.768-.938c-1.852-.777-1.827-3.359.006-4.128a20 20 0 0 1 2.757-.932c.198-.052.318-.185.354-.323a21 21 0 0 1 .946-2.803m2.499.674a.476.476 0 0 0-.885 0q-.128.304-.247.622v.002c-.26.688-.462 1.342-.62 1.948l-.001.002c-.212.808-.855 1.375-1.603 1.571-.523.137-1.079.305-1.659.516q-.224.081-.44.166l-.424.172a.482.482 0 0 0-.009.899q.38.159.784.309c.615.226 1.202.406 1.753.55.744.195 1.387.76 1.598 1.568a20 20 0 0 0 .872 2.582c.163.39.712.392.877 0l.2-.495c.285-.74.504-1.442.672-2.087.211-.808.854-1.373 1.598-1.568l.42-.115q.64-.182 1.333-.435l.397-.153.386-.156a.482.482 0 0 0-.008-.9q-.42-.175-.863-.336l-.001-.001a19 19 0 0 0-1.66-.516 2.22 2.22 0 0 1-1.602-1.571v-.001a20 20 0 0 0-.621-1.95z" clip-rule="evenodd" />
    <path d="M3.029 1.316a.51.51 0 0 1 .943 0q.05.12.098.246.152.41.245.769a.51.51 0 0 0 .37.357 7.4 7.4 0 0 1 .995.337c.426.18.43.77.003.95q-.15.062-.308.121-.366.133-.693.217a.5.5 0 0 0-.367.356 8 8 0 0 1-.266.823q-.038.1-.078.194a.51.51 0 0 1-.941 0l-.078-.194a8 8 0 0 1-.266-.823.5.5 0 0 0-.367-.356 7.5 7.5 0 0 1-1.001-.339.513.513 0 0 1 .003-.949 7.4 7.4 0 0 1 .996-.337.5.5 0 0 0 .37-.357 8 8 0 0 1 .342-1.015" />
</svg>
