<!-- This Source Code Form is subject to the terms of the Mozilla Public
   - License, v. 2.0. If a copy of the MPL was not distributed with this
   - file, You can obtain one at http://mozilla.org/MPL/2.0/. -->
<svg xmlns="http://www.w3.org/2000/svg" width="20" height="20" fill="context-fill" fill-opacity="context-fill-opacity" viewBox="0 0 20 20">
    <path fill-rule="evenodd" d="M7.749 2.376c.965-1.895 3.747-1.832 4.591.19l.166.406q.083.207.165.422c.344.912.612 1.78.822 2.584l.03.09a.79.79 0 0 0 .543.446 25 25 0 0 1 3.355 1.135c2.089.876 2.119 3.813.01 4.697q-.5.21-1.04.408v.001c-.815.3-1.595.54-2.328.733-.304.08-.507.289-.57.529a26 26 0 0 1-.894 2.768l.001.002-.264.655c-.84 2.012-3.623 2.075-4.584.188l-.087-.188-.263-.654c-.38-.982-.67-1.914-.895-2.77-.063-.24-.266-.451-.569-.53a25 25 0 0 1-2.328-.733h-.001a27 27 0 0 1-1.037-.409C.462 11.462.49 8.525 2.58 7.65l.563-.229q.288-.111.586-.22c.77-.278 1.509-.504 2.206-.686.304-.079.509-.29.573-.535l.17-.615c.18-.627.395-1.287.654-1.971v-.002q.16-.425.329-.825zm2.976.864a.781.781 0 0 0-1.45 0q-.155.375-.307.772-.358.957-.61 1.835l-.156.574c-.225.86-.88 1.481-1.666 1.74l-.16.046q-.728.19-1.519.454l-.532.185q-.278.1-.545.204l-.524.213a.789.789 0 0 0-.008 1.469 24 24 0 0 0 3.134 1.063c.85.222 1.58.865 1.819 1.779l.169.613a24 24 0 0 0 .91 2.58.78.78 0 0 0 1.441 0q.126-.3.245-.608l.001-.001c.354-.915.624-1.785.833-2.584.24-.915.97-1.557 1.82-1.78a23.5 23.5 0 0 0 3.133-1.062.789.789 0 0 0-.008-1.469 24 24 0 0 0-.525-.213l-.544-.204a24 24 0 0 0-1.56-.504l-.491-.135c-.803-.209-1.494-.791-1.775-1.617l-.05-.169c-.197-.75-.446-1.56-.767-2.41h-.001a23 23 0 0 0-.307-.771" clip-rule="evenodd" />
</svg>
