<svg width="20" height="20" viewBox="0 0 20 20" fill="none" xmlns="http://www.w3.org/2000/svg">
<path d="M4.927 11.0611C5.32291 10.6652 5.99993 10.9447 6.00024 11.5044V13.9996H14.1243C14.6071 13.9997 14.9991 14.3918 14.9993 14.8746C14.9993 15.3575 14.6071 15.7494 14.1243 15.7496H6.00024V18.2456C6.00024 18.8046 5.32301 19.0859 4.927 18.69L1.55688 15.3199C1.31202 15.0739 1.31216 14.6762 1.55688 14.4312L4.927 11.0611Z" fill="black"/>
<path d="M14.0002 1.75346C14.0005 1.19471 14.6776 0.914187 15.0735 1.3101L18.4426 4.68022C18.6876 4.92622 18.6876 5.32389 18.4426 5.56889L15.0735 8.93901C14.6775 9.33501 14.0002 9.05467 14.0002 8.49467V5.99955H4.87524C4.39224 5.99955 4.00024 5.60755 4.00024 5.12455C4.00039 4.64168 4.39233 4.24955 4.87524 4.24955H14.0002V1.75346Z" fill="black"/>
</svg>
