<svg width="20" height="20" viewBox="0 0 20 20" fill="none" xmlns="http://www.w3.org/2000/svg">
<path d="M8.50977 5.60742C9.33177 4.79842 10.6712 4.79842 11.4912 5.60742L14.2402 8.31152C14.5842 8.65147 14.5888 9.20579 14.25 9.5498C14.078 9.72378 13.8529 9.81052 13.626 9.81055C13.404 9.81055 13.1817 9.72657 13.0107 9.55957L10.875 7.45703V14.125C10.875 14.608 10.483 15 10 15C9.517 15 9.125 14.608 9.125 14.125V7.45801L6.99023 9.55957C6.64423 9.89757 6.09295 9.8948 5.75195 9.5498C5.41302 9.2048 5.41774 8.6515 5.76172 8.31152L8.50977 5.60742Z" fill="black"/>
<path fill-rule="evenodd" clip-rule="evenodd" d="M10 0C15.5228 0 20 4.47715 20 10C20 15.5228 15.5228 20 10 20C4.47715 20 0 15.5228 0 10C0 4.47715 4.47715 0 10 0ZM10 1.75C5.44365 1.75 1.75 5.44365 1.75 10C1.75 14.5563 5.44365 18.25 10 18.25C14.5563 18.25 18.25 14.5563 18.25 10C18.25 5.44365 14.5563 1.75 10 1.75Z" fill="black"/>
</svg>
