<!-- This Source Code Form is subject to the terms of the Mozilla Public
   - License, v. 2.0. If a copy of the MPL was not distributed with this
   - file, You can obtain one at http://mozilla.org/MPL/2.0/. -->
<svg xmlns="http://www.w3.org/2000/svg" width="20" height="20" fill="context-fill" fill-opacity="context-fill-opacity" viewBox="0 0 20 20">
    <path d="M7 7a.75.75 0 0 1 .75.75v.75h.75a.75.75 0 0 1 0 1.5h-.75v.75a.75.75 0 0 1-1.5 0V10H5.5a.75.75 0 0 1 0-1.5h.75v-.75A.75.75 0 0 1 7 7M13 8a1.5 1.5 0 1 1 0 3 1.5 1.5 0 0 1 0-3" />
    <path fill-rule="evenodd" d="M10 3.001c1.98 0 3.738.206 5.214.48a3.14 3.14 0 0 1 2.479 2.312l1.032 4.081 1.147 4.184a3.08 3.08 0 0 1-1.631 3.658c-1.52.723-3.245 0-4.033-1.332l-.918-1.403A24 24 0 0 0 10 14.75c-1.23 0-2.338.098-3.303.232l-.904 1.4c-.79 1.337-2.523 2.062-4.046 1.329a3.075 3.075 0 0 1-1.613-3.67l1.178-4.296.999-3.951a3.14 3.14 0 0 1 2.478-2.312A28.5 28.5 0 0 1 10 3.001m0 1.75c-1.857 0-3.505.194-4.891.451-.544.101-.97.5-1.102 1.02l-.999 3.952-.004.016-1.183 4.313-.01.033c-.195.613.08 1.302.695 1.598.588.283 1.4.027 1.792-.66l.025-.04 1.12-1.739a.88.88 0 0 1 .601-.39 25.6 25.6 0 0 1 7.465-.063l.432.064.133.032a.9.9 0 0 1 .35.213l.001.002.06.066a1 1 0 0 1 .053.073l1.134 1.734q.015.022.028.047c.39.686 1.2.943 1.788.663a1.33 1.33 0 0 0 .704-1.59l-.008-.025-1.152-4.2-.004-.017-1.033-4.082a1.39 1.39 0 0 0-1.101-1.02A27 27 0 0 0 10 4.751" clip-rule="evenodd" />
</svg>
