<!-- This Source Code Form is subject to the terms of the Mozilla Public
   - License, v. 2.0. If a copy of the MPL was not distributed with this
   - file, You can obtain one at http://mozilla.org/MPL/2.0/. -->
<svg xmlns="http://www.w3.org/2000/svg" width="20" height="20" fill="context-fill" fill-opacity="context-fill-opacity" viewBox="0 0 20 20">
    <path d="M10 13.5a1 1 0 1 1 0 2 1 1 0 0 1 0-2M10 6.5c.483 0 .875.392.875.875v3.75a.875.875 0 0 1-1.75 0v-3.75c0-.483.392-.875.875-.875" />
    <path fill-rule="evenodd" d="M9.964 1c1.196 0 2.391.599 3.058 1.799l6.024 10.83c1.253 2.255-.283 5.057-2.857 5.2a111 111 0 0 1-12.398-.003c-2.56-.144-4.077-2.932-2.844-5.178l5.95-10.833A3.46 3.46 0 0 1 9.963 1m0 1.75c-.311 0-1.085.09-1.535.908L2.48 14.49a1.74 1.74 0 0 0 .005 1.704c.14.25.553.837 1.403.885a110 110 0 0 0 12.202.003 1.72 1.72 0 0 0 1.426-.901 1.73 1.73 0 0 0 0-1.7L11.493 3.648a1.72 1.72 0 0 0-1.53-.899" clip-rule="evenodd" />
</svg>
