<!-- This Source Code Form is subject to the terms of the Mozilla Public
   - License, v. 2.0. If a copy of the MPL was not distributed with this
   - file, You can obtain one at http://mozilla.org/MPL/2.0/. -->
<svg xmlns="http://www.w3.org/2000/svg" width="20" height="20" fill="context-fill" fill-opacity="context-fill-opacity" viewBox="0 0 20 20">
    <g clip-path="url(#clip0_8069_32721)">
        <path fill-rule="evenodd" d="M11 5.25a4.25 4.25 0 0 1 2.245 7.856 3.329 3.329 0 0 1-.33 6.518 34 34 0 0 1-9.546.076A3.88 3.88 0 0 1 0 15.864a3.865 3.865 0 0 1 3.578-3.853 4.77 4.77 0 0 1 3.186-2.849A4.25 4.25 0 0 1 11 5.25m-2.161 5.612c-1.785-.476-3.398.63-3.763 2.21a.875.875 0 0 1-.852.678h-.36a2.115 2.115 0 0 0-2.114 2.114 2.13 2.13 0 0 0 1.853 2.102 32 32 0 0 0 9.053-.072A1.58 1.58 0 0 0 14 16.329c0-.872-.706-1.578-1.578-1.578h-.547a.875.875 0 0 1-.875-.875v-.057c0-1.388-.894-2.618-2.161-2.957M11 7a2.5 2.5 0 0 0-2.455 2.031q.368.042.744.14c1.35.361 2.389 1.305 2.962 2.49A2.5 2.5 0 0 0 13.5 9.5 2.5 2.5 0 0 0 11 7" clip-rule="evenodd" />
        <path d="M19.125 8.875a.875.875 0 0 1 0 1.75h-1.5a.875.875 0 0 1 0-1.75zM4.263 3.256a.875.875 0 0 1 1.237 0l1.06 1.06a.875.875 0 0 1-1.237 1.238l-1.06-1.06a.875.875 0 0 1 0-1.238m12.237 0a.875.875 0 0 1 1.237 1.238l-1.06 1.06a.875.875 0 0 1-1.237-1.237zM11 .5c.483 0 .875.392.875.875v1.5a.875.875 0 0 1-1.75 0v-1.5c0-.483.392-.875.875-.875" />
    </g>
</svg>
