<!-- This Source Code Form is subject to the terms of the Mozilla Public
   - License, v. 2.0. If a copy of the MPL was not distributed with this
   - file, You can obtain one at http://mozilla.org/MPL/2.0/. -->
<svg xmlns="http://www.w3.org/2000/svg" width="20" height="20" fill="context-fill" fill-opacity="context-fill-opacity" viewBox="0 0 20 20">
    <g clip-path="url(#clip0_8069_32752)">
        <path fill-rule="evenodd" d="M4.499 5.75c.606 0 1.154.362 1.392.92l3.036 7.113A.875.875 0 0 1 8.117 15a.88.88 0 0 1-.81-.533L6.468 12.5H2.531l-.84 1.967a.88.88 0 0 1-1.62-.684L3.107 6.67c.238-.558.785-.92 1.392-.92m-1.221 5h2.444L4.5 7.889z" clip-rule="evenodd" />
        <path d="M11.032 7.61a.567.567 0 0 1 .969.4V9h5v-.99c0-.505.611-.758.968-.4l1.865 1.864a.567.567 0 0 1 0 .802l-1.865 1.865a.567.567 0 0 1-.969-.4v-.991h-5v.99a.568.568 0 0 1-.968.4l-1.866-1.864a.567.567 0 0 1 0-.802z" />
    </g>
</svg>
