<svg width="16" height="16" viewBox="0 0 16 16" fill="none" xmlns="http://www.w3.org/2000/svg">
<path d="M3.99999 6.625C3.99999 6.785 4.06099 6.945 4.18299 7.067L7.52799 10.412C7.78799 10.672 8.13299 10.815 8.49999 10.815C8.86699 10.815 9.21199 10.672 9.47199 10.412L12.817 7.067C13.061 6.823 13.061 6.427 12.817 6.183C12.573 5.939 12.177 5.939 11.933 6.183L8.58799 9.528C8.54599 9.57 8.45299 9.57 8.41099 9.528L5.06599 6.183C4.82199 5.939 4.42599 5.939 4.18199 6.183C4.05999 6.305 3.99999 6.465 3.99999 6.625Z" fill="black"/>
</svg>
