<svg width="16" height="16" viewBox="0 0 16 16" fill="none" xmlns="http://www.w3.org/2000/svg">
<path d="M3.99999 10.375C3.99999 10.215 4.06099 10.055 4.18299 9.933L7.52799 6.588C7.78799 6.328 8.13299 6.185 8.49999 6.185C8.86699 6.185 9.21199 6.328 9.47199 6.588L12.817 9.933C13.061 10.177 13.061 10.573 12.817 10.817C12.573 11.061 12.177 11.061 11.933 10.817L8.58799 7.472C8.54599 7.43 8.45299 7.43 8.41099 7.472L5.06599 10.817C4.82199 11.061 4.42599 11.061 4.18199 10.817C4.05999 10.695 3.99999 10.535 3.99999 10.375Z" fill="black"/>
</svg>
