<!-- This Source Code Form is subject to the terms of the Mozilla Public
   - License, v. 2.0. If a copy of the MPL was not distributed with this
   - file, You can obtain one at http://mozilla.org/MPL/2.0/. -->
<svg xmlns="http://www.w3.org/2000/svg" width="16" height="16" fill="none">
    <path fill="#000" fill-rule="evenodd" d="M6.028 9.721c.008-.367.141-.705.351-.984L3.25 8.726l.005-3.702 2.848 2.351a.62.62 0 0 0 .794 0l2.851-2.354-.007 3.36c.269.132.527.286.758.484A3.6 3.6 0 0 1 11 8.507V4.274C11 3.572 10.437 3 9.744 3H3.256C2.563 3 2 3.572 2 4.274v4.451C2 9.428 2.563 10 3.256 10h2.758l.003-.085a2 2 0 0 1 .011-.194M6.5 6.082 4.285 4.254l4.41.016z" clip-rule="evenodd" />
    <path fill="#000" fill-rule="evenodd" d="M13.415 9.064a.715.715 0 0 1 .555.733c.091.347-.047 1.602-.122 1.799-.152.801-.806 1.403-1.59 1.403a1.53 1.53 0 0 1-.964-.349l-.256-.212a.85.85 0 0 0-1.099.009l-.171.146A1.54 1.54 0 0 1 8.741 13c-.784 0-1.438-.602-1.59-1.403-.076-.198-.209-1.459-.123-1.8v-.002a.714.714 0 0 1 .556-.73 2.6 2.6 0 0 1 2.347.633l.105.097a.68.68 0 0 0 .925 0l.108-.1a2.6 2.6 0 0 1 2.346-.631M9.781 11.05a.3.3 0 0 1-.055.092 1.07 1.07 0 0 1-.801.347 1.07 1.07 0 0 1-.802-.347.304.304 0 0 1 0-.396c.187-.211.476-.347.802-.347.325 0 .615.136.801.347a.3.3 0 0 1 .055.304m3.096.092a1.07 1.07 0 0 1-.802.347c-.325 0-.615-.136-.801-.347a.3.3 0 0 1 0-.396c.187-.211.476-.347.801-.347s.615.136.802.347a.3.3 0 0 1 0 .396" clip-rule="evenodd" />
</svg>
