<svg width="16" height="16" fill="none" xmlns="http://www.w3.org/2000/svg"><path fill-rule="evenodd" clip-rule="evenodd" d="m7.28 8.741-4.03-.015.005-3.702 2.848 2.351a.62.62 0 0 0 .794 0l2.851-2.354-.004 2.036.265-.14a2.106 2.106 0 0 1 .991-.24V4.274C11 3.572 10.437 3 9.744 3H3.256C2.563 3 2 3.572 2 4.274v4.451C2 9.428 2.563 10 3.256 10h3.777a2.019 2.019 0 0 1 .247-1.259zm1.415-4.47-4.41-.017L6.5 6.082 8.695 4.27zM11.004 14c-.154 0-.311-.034-.451-.097a4.48 4.48 0 0 1-1.798-1.52 3.225 3.225 0 0 1-.512-1.251l-.225-1.19a1.059 1.059 0 0 1 .555-1.136l1.902-1.004a1.09 1.09 0 0 1 1.023.002l1.937 1.016c.438.235.639.69.538 1.221l-.208 1.095c-.088.465-.26.884-.511 1.245a4.468 4.468 0 0 1-1.796 1.521 1.117 1.117 0 0 1-.454.098zM9.039 9.691l1.95-.982.013 4.29-.038-.008a3.468 3.468 0 0 1-1.388-1.179 2.232 2.232 0 0 1-.35-.866l-.187-1.255z" fill="#000"/></svg>