<!-- This Source Code Form is subject to the terms of the Mozilla Public
   - License, v. 2.0. If a copy of the MPL was not distributed with this
   - file, You can obtain one at http://mozilla.org/MPL/2.0/. -->
<svg xmlns="http://www.w3.org/2000/svg" width="16" height="16" fill="none" viewBox="0 0 16 16">
    <path fill="#000" fill-rule="evenodd" d="M10.253 7.737c.42-.28.96-.302 1.398-.048l.086.055h.001a8 8 0 0 0 1.46.794c.573.24.89.846.778 1.447l-.18.97c-.08.436-.23.883-.491 1.28H13.3a5.2 5.2 0 0 1-1.644 1.584 1.3 1.3 0 0 1-1.172.074l-.156-.079a5.2 5.2 0 0 1-1.636-1.579 3.3 3.3 0 0 1-.418-.955l-.074-.33-.181-.984a1.31 1.31 0 0 1 .773-1.448l.306-.134q.155-.073.314-.154h.001c.311-.16.591-.327.838-.492zm.743.775a.34.34 0 0 0-.19.058 10 10 0 0 1-.935.548h.001a9 9 0 0 1-.692.322l-.001.001a.31.31 0 0 0-.175.345l.18.984c.064.344.175.657.343.913.35.53.818.977 1.313 1.272l.077.032a.3.3 0 0 0 .081.009z" clip-rule="evenodd" />
    <path fill="#000" fill-rule="evenodd" d="M6.237 4a32 32 0 0 1 3.063.128 1.865 1.865 0 0 1 1.699 1.87v.516h-.006c-.442 0-.869.133-1.244.37v-.508L7.695 8.072a1.88 1.88 0 0 1-2.388 0L3.25 6.374v2.63c0 .327.252.596.587.626 1.046.095 2.107.127 3.164.109q0 .203.037.407l.155.84c-.23.004-.463.015-.693.015a31 31 0 0 1-2.776-.125A1.877 1.877 0 0 1 2 9.005V5.998c0-.978.732-1.782 1.704-1.871A31 31 0 0 1 6.237 4m.012 1.25c-.757.008-1.518.045-2.266.11l2.119 1.748a.63.63 0 0 0 .797 0L9.015 5.36a29 29 0 0 0-2.517-.11z" clip-rule="evenodd" />
</svg>
