<!-- This Source Code Form is subject to the terms of the Mozilla Public
   - License, v. 2.0. If a copy of the MPL was not distributed with this
   - file, You can obtain one at http://mozilla.org/MPL/2.0/. -->
<svg xmlns="http://www.w3.org/2000/svg" width="16" height="16" fill="none" viewBox="0 0 16 16">
    <path fill="#000" fill-rule="evenodd" d="M12.52 9.049c.343.07.552.688.665.957a8 8 0 0 1 .514 1.6c.074.381.273.662.66.662l.003.002a.146.146 0 0 1 .132.196c-.083.222-.338.363-.552.445.098.025.383-.032.395.11.009.118-.289.236-.37.275-.751.362-1.443 1.011-2.333.896-.387-.05-.669-.323-.986-.492a.51.51 0 0 0-.48 0c-.317.17-.599.442-.985.492-.89.115-1.582-.534-2.334-.896-.08-.038-.38-.157-.37-.274.014-.144.3-.086.395-.11-.213-.083-.469-.224-.552-.446-.034-.092.033-.196.132-.196.39-.002.586-.281.66-.664.107-.554.293-1.077.514-1.6.114-.267.322-.885.666-.955.39-.08.736.128 1.18 1.022.361.724.607 1.235.615 1.25v.006l.252-.003h.133l.25.001v-.005c.005-.008.252-.52.615-1.25.445-.893.79-1.104 1.18-1.023m-2.633 3.89c-.182-.58-.926-.8-1.488-.707-.094.016-.355.107-.343.227.252.626 1.315.95 1.83.48m2.526-.707c-.561-.093-1.306.126-1.488.707.516.471 1.577.146 1.83-.48.012-.12-.247-.211-.342-.227" clip-rule="evenodd" />
    <path fill="#000" fill-rule="evenodd" d="M6.237 4a34 34 0 0 1 3.063.128 1.865 1.865 0 0 1 1.699 1.87v2.69a4.5 4.5 0 0 0-.584.923v.001l-.009.014-.007-.014c-.186-.375-.395-.722-.65-.997v-2.24L7.695 8.073a1.88 1.88 0 0 1-2.388 0L3.25 6.374v2.63c0 .327.252.596.587.626.921.084 1.853.117 2.784.111a10 10 0 0 0-.424 1.256 31 31 0 0 1-2.473-.121A1.877 1.877 0 0 1 2 9.005V5.998c0-.978.732-1.782 1.704-1.871A31 31 0 0 1 6.237 4m.012 1.25c-.757.008-1.518.045-2.266.11l2.119 1.748a.63.63 0 0 0 .797 0L9.015 5.36a29 29 0 0 0-2.517-.11z" clip-rule="evenodd" />
</svg>
