<!-- This Source Code Form is subject to the terms of the Mozilla Public
   - License, v. 2.0. If a copy of the MPL was not distributed with this
   - file, You can obtain one at http://mozilla.org/MPL/2.0/. -->
<svg xmlns="http://www.w3.org/2000/svg" width="16" height="16" fill="none" viewBox="0 0 16 16">
    <path fill="#000" d="M7.5 4.259a39 39 0 0 0-2.216.088A1.126 1.126 0 0 0 4.25 5.472v5.055c0 .59.464 1.084 1.056 1.127a38 38 0 0 0 5.41-.002 1.126 1.126 0 0 0 1.034-1.125V8.5H13v2.027a2.38 2.38 0 0 1-2.194 2.372 39 39 0 0 1-5.59.001A2.39 2.39 0 0 1 3 10.526V5.471A2.38 2.38 0 0 1 5.194 3.1 39 39 0 0 1 7.5 3.009z" />
    <path fill="#000" d="M12.534 3c.257 0 .466.209.466.466v3.068a.466.466 0 0 1-.795.33L11.113 5.77 8.068 8.817a.626.626 0 0 1-.885-.885l3.044-3.046-1.09-1.091A.466.466 0 0 1 9.466 3z" />
</svg>
