<svg width="16" height="16" viewBox="0 0 16 16" fill="none" xmlns="http://www.w3.org/2000/svg">
<path fill-rule="evenodd" clip-rule="evenodd" d="M8 2C11.3137 2 14 4.68629 14 8C14 11.3137 11.3137 14 8 14C4.68629 14 2 11.3137 2 8C2 4.68629 4.68629 2 8 2ZM8 8.3252C7.43098 8.3252 6.83861 8.33461 6.22461 8.35742C6.30998 9.96112 6.96906 11.411 7.99902 12.5107C9.02904 11.4114 9.68762 9.96272 9.77344 8.35938C9.19866 8.338 8.60723 8.3252 8 8.3252ZM4.97656 8.4209C4.42682 8.45578 3.86201 8.50101 3.2832 8.55859C3.49404 10.3581 4.71024 11.8498 6.35547 12.457C5.55527 11.2986 5.05553 9.91573 4.97656 8.4209ZM11.0215 8.4209C10.9426 9.91576 10.4445 11.2986 9.64453 12.457C11.2897 11.8498 12.5049 10.3581 12.7158 8.55859C12.1715 8.50452 11.6064 8.458 11.0215 8.4209ZM9.64258 3.54199C10.3687 4.59313 10.847 5.82874 10.9883 7.16602C11.5779 7.20208 12.1483 7.24775 12.6982 7.30078C12.4419 5.56366 11.2458 4.13289 9.64258 3.54199ZM6.35449 3.54199C4.75285 4.13339 3.55721 5.56398 3.30078 7.2998C3.88486 7.24341 4.45497 7.20093 5.00977 7.16699C5.15081 5.82978 5.62857 4.59318 6.35449 3.54199ZM8 3.48828C7.08626 4.46394 6.46663 5.71556 6.27832 7.10547C6.87272 7.0846 7.44708 7.0752 8 7.0752C8.58826 7.0752 9.1621 7.08582 9.7207 7.10547C9.53253 5.71554 8.91364 4.46395 8 3.48828Z" fill="black"/>
</svg>
