<!-- This Source Code Form is subject to the terms of the Mozilla Public
   - License, v. 2.0. If a copy of the MPL was not distributed with this
   - file, You can obtain one at http://mozilla.org/MPL/2.0/. -->
<svg xmlns="http://www.w3.org/2000/svg" width="16" height="16" fill="none">
    <path fill="#000" fill-rule="evenodd" d="M8 2a6 6 0 1 1 0 12A6 6 0 0 1 8 2M6.247 8.625A6.57 6.57 0 0 0 8 12.511a6.57 6.57 0 0 0 1.754-3.886zm-2.955 0a4.75 4.75 0 0 0 3.063 3.832 7.8 7.8 0 0 1-1.362-3.832zm7.714 0a7.8 7.8 0 0 1-1.361 3.832 4.75 4.75 0 0 0 3.063-3.832zM8 3.488a6.58 6.58 0 0 0-1.753 3.887h3.506A6.58 6.58 0 0 0 8 3.488m1.643.054a7.8 7.8 0 0 1 1.363 3.833h1.702a4.75 4.75 0 0 0-3.065-3.833m-3.289 0a4.76 4.76 0 0 0-3.062 3.833h1.701a7.8 7.8 0 0 1 1.361-3.833" clip-rule="evenodd" />
</svg>
