<!-- This Source Code Form is subject to the terms of the Mozilla Public
   - License, v. 2.0. If a copy of the MPL was not distributed with this
   - file, You can obtain one at http://mozilla.org/MPL/2.0/. -->
<svg xmlns="http://www.w3.org/2000/svg" width="16" height="16" fill="none" viewBox="0 0 16 16">
    <path fill="#000" fill-rule="evenodd" d="M8 2a6 6 0 1 1 0 12A6 6 0 0 1 8 2m0 6.325q-.854 0-1.775.032a6.57 6.57 0 0 0 1.774 4.154 6.57 6.57 0 0 0 1.774-4.152A48 48 0 0 0 8 8.325m-3.023.096q-.825.052-1.694.138a4.75 4.75 0 0 0 3.072 3.898 7.8 7.8 0 0 1-1.378-4.036m6.044 0a7.8 7.8 0 0 1-1.376 4.036 4.75 4.75 0 0 0 3.07-3.898q-.816-.082-1.694-.138M9.644 3.542a7.8 7.8 0 0 1 1.345 3.624q.885.055 1.71.135a4.76 4.76 0 0 0-3.055-3.759m-3.289 0A4.76 4.76 0 0 0 3.301 7.3a49 49 0 0 1 1.709-.133 7.8 7.8 0 0 1 1.344-3.625M8 3.488a6.6 6.6 0 0 0-1.722 3.617 49 49 0 0 1 3.443 0A6.6 6.6 0 0 0 8 3.488" clip-rule="evenodd" />
</svg>
