<!-- This Source Code Form is subject to the terms of the Mozilla Public
   - License, v. 2.0. If a copy of the MPL was not distributed with this
   - file, You can obtain one at http://mozilla.org/MPL/2.0/. -->
<svg xmlns="http://www.w3.org/2000/svg" width="16" height="16" fill="none" viewBox="0 0 16 16">
    <path fill="#000" fill-rule="evenodd" d="M8 2c1.654 0 3 1.346 3 3v1.75a2.38 2.38 0 0 1 1.5 2.209v2.584a2.37 2.37 0 0 1-1.947 2.34l-.23.03a31 31 0 0 1-4.624.001A2.383 2.383 0 0 1 3.5 11.542V8.958c0-.992.61-1.866 1.5-2.215V5c0-1.654 1.346-3 3-3m0 5.751c-.785 0-1.53.031-2.229.084A1.117 1.117 0 0 0 4.75 8.958v2.584c0 .588.46 1.082 1.043 1.126a30 30 0 0 0 4.436-.002 1.117 1.117 0 0 0 1.021-1.123V8.959c0-.588-.46-1.082-1.043-1.126A30 30 0 0 0 8 7.751M8 3.25c-.965 0-1.75.785-1.75 1.75v1.55a31 31 0 0 1 3.5 0V5c0-.965-.785-1.75-1.75-1.75" clip-rule="evenodd" />
</svg>
