<!-- This Source Code Form is subject to the terms of the Mozilla Public
   - License, v. 2.0. If a copy of the MPL was not distributed with this
   - file, You can obtain one at http://mozilla.org/MPL/2.0/. -->
<svg xmlns="http://www.w3.org/2000/svg" width="16" height="16" fill="none" viewBox="0 0 16 16">
    <path fill="#000" fill-rule="evenodd" d="M2.182 2.182a.627.627 0 0 1 .885 0l10.75 10.75a.626.626 0 0 1-.885.885l-.89-.89c-.393.55-1.01.928-1.721.982a31 31 0 0 1-4.624.002 2.39 2.39 0 0 1-2.2-2.372V8.955a2.38 2.38 0 0 1 1.5-2.202v-.87L2.183 3.066a.627.627 0 0 1 0-.885M6.885 7.77q-.559.021-1.115.063a1.12 1.12 0 0 0-1.02 1.123v2.584c0 .587.458 1.081 1.043 1.126 1.459.11 2.957.11 4.437-.001.405-.03.745-.286.911-.64z" clip-rule="evenodd" />
    <path fill="#000" d="M8 2c1.654 0 3 1.347 3 3v1.76a2.38 2.38 0 0 1 1.5 2.199v1.263l-1.25-1.25V8.96c0-.587-.458-1.082-1.042-1.126l-.1-.004-1.29-1.29c.31.009.623.009.932.027V5c0-.965-.786-1.75-1.75-1.75-.668 0-1.243.381-1.538.933l-.908-.907A3 3 0 0 1 8.001 2" />
</svg>
