<svg width="16" height="16" viewBox="0 0 16 16" fill="none" xmlns="http://www.w3.org/2000/svg">
<path fill-rule="evenodd" clip-rule="evenodd" d="M8 2C9.654 2 11 3.346 11 5V6.75C11.8822 7.10209 12.5 7.96537 12.5 8.95898V11.543C12.5 12.6934 11.6798 13.6864 10.5527 13.8838L10.3232 13.9121C9.59541 13.9672 8.8186 14 8 14C7.28966 14 6.51887 13.9753 5.69922 13.9141C4.46112 13.8215 3.50001 12.782 3.5 11.542V8.95801C3.50001 7.96624 4.10973 7.09199 5 6.74316V5C5 3.346 6.346 2 8 2ZM8 7.75098C7.21472 7.75098 6.46957 7.7821 5.77148 7.83496C5.19892 7.87847 4.75002 8.36516 4.75 8.95801V11.542C4.75001 12.1299 5.20921 12.6244 5.79297 12.668C6.57916 12.7267 7.31846 12.75 8 12.75C8.78528 12.75 9.53043 12.7189 10.2285 12.666C10.8011 12.6225 11.25 12.1358 11.25 11.543V8.95898C11.25 8.37111 10.7908 7.87658 10.207 7.83301C9.42084 7.77427 8.68154 7.75098 8 7.75098ZM8 3.25C7.035 3.25 6.25 4.035 6.25 5V6.55078C6.80837 6.51899 7.39267 6.50098 8 6.50098C8.54901 6.50098 9.13412 6.51581 9.75 6.55078V5C9.75 4.035 8.965 3.25 8 3.25Z" fill="black"/>
</svg>
