<!-- This Source Code Form is subject to the terms of the Mozilla Public
   - License, v. 2.0. If a copy of the MPL was not distributed with this
   - file, You can obtain one at http://mozilla.org/MPL/2.0/. -->
<svg xmlns="http://www.w3.org/2000/svg" width="16" height="16" fill="none" viewBox="0 0 16 16">
    <path fill="#000" fill-rule="evenodd" d="M7.015 13.743a2.01 2.01 0 0 0 1.972-.002c1.212-.685 2.328-1.742 3.142-2.977.422-.641.721-1.417.886-2.307l.465-2.503a1.5 1.5 0 0 0-.764-1.595l-4.051-2.18a1.5 1.5 0 0 0-1.425.002L3.28 4.324a1.5 1.5 0 0 0-.761 1.591l.467 2.535c.165.894.463 1.674.888 2.319.814 1.233 1.929 2.288 3.141 2.974m.37-3.889a.504.504 0 0 0 .707 0l2.658-2.658-.707-.707-2.304 2.304-1.282-1.282-.707.707z" clip-rule="evenodd" />
</svg>
