<!-- This Source Code Form is subject to the terms of the Mozilla Public
   - License, v. 2.0. If a copy of the MPL was not distributed with this
   - file, You can obtain one at http://mozilla.org/MPL/2.0/. -->
<svg xmlns="http://www.w3.org/2000/svg" width="16" height="16" fill="none" viewBox="0 0 16 16">
    <path fill="#000" fill-rule="evenodd" d="M7.25 2.38a2.2 2.2 0 0 1 2.484.01 16 16 0 0 0 2.93 1.601 2.2 2.2 0 0 1 1.298 2.424l-.354 1.908c-.169.915-.474 1.713-.907 2.372-.805 1.226-1.907 2.294-3.102 3.004A2.13 2.13 0 0 1 8.504 14c-.386 0-.772-.105-1.117-.31-1.187-.71-2.283-1.77-3.085-2.99-.434-.66-.74-1.462-.91-2.384l-.356-1.939c-.186-1.016.356-2.036 1.29-2.426A17 17 0 0 0 7.25 2.38m3.567 4.534a.626.626 0 0 0-.884 0L8.105 8.75l-.764-.764a.626.626 0 0 0-.885.884l.766.765c.233.235.547.364.88.364s.645-.13.88-.364l1.835-1.836a.626.626 0 0 0 0-.885" clip-rule="evenodd" />
</svg>
