<!-- This Source Code Form is subject to the terms of the Mozilla Public
   - License, v. 2.0. If a copy of the MPL was not distributed with this
   - file, You can obtain one at http://mozilla.org/MPL/2.0/. -->
<svg xmlns="http://www.w3.org/2000/svg" width="16" height="16" fill="none" viewBox="0 0 16 16">
    <path fill="#000" d="M1.682 2.682a.627.627 0 0 1 .885 0l10.75 10.75a.626.626 0 0 1-.885.885l-1.846-1.846A8.3 8.3 0 0 1 9 13.725a1.94 1.94 0 0 1-.997.276 1.97 1.97 0 0 1-1.016-.284c-1.08-.65-2.075-1.623-2.804-2.74-.394-.607-.672-1.342-.826-2.187l-.323-1.777a2.05 2.05 0 0 1 .43-1.665L1.681 3.567a.627.627 0 0 1 0-.885m5.184.666a1.98 1.98 0 0 1 2.258.009 14.6 14.6 0 0 0 2.665 1.467c.854.36 1.35 1.294 1.18 2.222l-.323 1.75a6 6 0 0 1-.682 1.886L8 6.72 5.475 4.174a15 15 0 0 0 1.39-.826" />
</svg>
