<!-- This Source Code Form is subject to the terms of the Mozilla Public
   - License, v. 2.0. If a copy of the MPL was not distributed with this
   - file, You can obtain one at http://mozilla.org/MPL/2.0/. -->
<svg xmlns="http://www.w3.org/2000/svg" width="16" height="16" fill="none" viewBox="0 0 16 16">
    <path fill="#000" d="M11.384 11.567c-.674.87-1.496 1.626-2.384 2.158a1.94 1.94 0 0 1-2.013-.008c-1.079-.65-2.075-1.623-2.804-2.741-.394-.606-.672-1.341-.826-2.186l-.323-1.777c-.17-.931.323-1.866 1.172-2.224.106-.045.207-.1.312-.147zM6.865 3.348a1.985 1.985 0 0 1 2.258.009 14.6 14.6 0 0 0 2.665 1.468c.854.36 1.35 1.293 1.179 2.221l-.322 1.749a6 6 0 0 1-.683 1.887L8 6.72 5.474 4.174c.477-.253.947-.526 1.391-.826" />
    <path fill="#000" d="M1.683 2.683a.626.626 0 0 1 .884 0l10.75 10.75a.626.626 0 0 1-.884.884L1.683 3.567a.626.626 0 0 1 0-.884" />
</svg>
