<!-- This Source Code Form is subject to the terms of the Mozilla Public
   - License, v. 2.0. If a copy of the MPL was not distributed with this
   - file, You can obtain one at http://mozilla.org/MPL/2.0/. -->
<svg xmlns="http://www.w3.org/2000/svg" width="16" height="16" fill="none" viewBox="0 0 16 16">
    <path fill="#000" fill-rule="evenodd" d="M6.865 3.348a1.985 1.985 0 0 1 2.258.009 14.5 14.5 0 0 0 2.665 1.467c.854.36 1.35 1.295 1.179 2.222l-.322 1.749c-.154.839-.431 1.57-.825 2.175-.731 1.124-1.732 2.102-2.819 2.753a1.94 1.94 0 0 1-.997.276V14a1.97 1.97 0 0 1-1.017-.284c-1.08-.65-2.075-1.623-2.804-2.741-.394-.605-.672-1.34-.826-2.186l-.323-1.777c-.169-.931.324-1.866 1.173-2.224a15.7 15.7 0 0 0 2.658-1.44m3.432 4.067a.616.616 0 0 0-.876 0L7.608 9.251l-.76-.765a.617.617 0 0 0-.876 0 .63.63 0 0 0 0 .884l.759.765a1.22 1.22 0 0 0 1.745 0l1.821-1.836a.63.63 0 0 0 0-.884" clip-rule="evenodd" />
</svg>
