<!-- This Source Code Form is subject to the terms of the Mozilla Public
   - License, v. 2.0. If a copy of the MPL was not distributed with this
   - file, You can obtain one at http://mozilla.org/MPL/2.0/. -->
<svg xmlns="http://www.w3.org/2000/svg" width="16" height="16" fill="none" viewBox="0 0 16 16">
    <path fill="#000" fill-rule="evenodd" d="M2.884 2 14 13.116l-.884.884L2 2.884z" clip-rule="evenodd" />
    <path fill="#000" d="M13.016 8.457a6.3 6.3 0 0 1-.578 1.682L5.449 3.15l1.792-.969a1.5 1.5 0 0 1 1.425-.002l4.051 2.18a1.5 1.5 0 0 1 .764 1.595zM3.28 4.324l.104-.056 7.746 7.746a8.9 8.9 0 0 1-2.143 1.727 2.01 2.01 0 0 1-1.971.002c-1.212-.685-2.327-1.741-3.141-2.974-.426-.645-.724-1.425-.889-2.319l-.467-2.535a1.5 1.5 0 0 1 .761-1.591" />
</svg>
