<!-- This Source Code Form is subject to the terms of the Mozilla Public
   - License, v. 2.0. If a copy of the MPL was not distributed with this
   - file, You can obtain one at http://mozilla.org/MPL/2.0/. -->
<svg xmlns="http://www.w3.org/2000/svg" width="16" height="16" fill="none" viewBox="0 0 16 16">
    <path fill="#000" fill-rule="evenodd" d="M6.651 3.825c.58-1.134 2.246-1.098 2.752.114l.179.45q.279.748.448 1.408c.02.072.084.148.2.178q.57.147 1.2.373v.001q.324.118.625.243l.114.053c1.135.58 1.116 2.248-.109 2.76q-.273.116-.563.223c-.446.165-.873.295-1.27.4h-.002c-.114.03-.177.105-.195.175a14 14 0 0 1-.487 1.508v.001q-.072.183-.143.353v.002c-.52 1.244-2.277 1.245-2.799.003l-.142-.358-.001-.002a14 14 0 0 1-.487-1.505l-.022-.055a.28.28 0 0 0-.174-.122 14 14 0 0 1-1.268-.4h-.002a15 15 0 0 1-.565-.222c-1.263-.53-1.244-2.29.005-2.814q.301-.126.626-.244l.312-.108q.462-.154.89-.265l.077-.03a.24.24 0 0 0 .121-.149c.115-.439.26-.91.448-1.407v-.002q.087-.229.18-.448zm1.598.595a.267.267 0 0 0-.497.001q-.083.197-.164.409-.253.683-.408 1.283c-.126.483-.477.84-.906 1.01l-.187.062a12 12 0 0 0-1.659.56.27.27 0 0 0-.004.507l.515.204q.606.22 1.15.362c.445.116.836.426 1.024.87l.067.197c.112.426.256.888.444 1.375l.129.323v.002c.093.22.4.22.493 0q.067-.16.13-.324l.133-.361q.188-.535.311-1.013c.126-.483.478-.838.904-1.008l.187-.061a12.5 12.5 0 0 0 1.666-.566.271.271 0 0 0-.004-.506q-.271-.115-.568-.223a12 12 0 0 0-1.091-.338h-.002A1.51 1.51 0 0 1 8.82 6.113a13 13 0 0 0-.57-1.693" clip-rule="evenodd" />
</svg>
