<svg width="16" height="16" viewBox="0 0 16 16" fill="none" xmlns="http://www.w3.org/2000/svg">
<path fill-rule="evenodd" clip-rule="evenodd" d="M6.65111 3.82475C7.23027 2.69106 8.89719 2.72718 9.40306 3.93901L9.58177 4.3892C9.76886 4.88566 9.91571 5.35804 10.03 5.79741C10.0493 5.86918 10.114 5.9446 10.2302 5.97514C10.6087 6.07373 11.0099 6.19648 11.4294 6.34819L11.4304 6.34916C11.645 6.42729 11.8547 6.50825 12.0554 6.59233L12.1687 6.64506C13.3044 7.22431 13.2847 8.89305 12.0603 9.40581C11.8781 9.48224 11.6903 9.55668 11.4968 9.62846C11.0508 9.79322 10.6243 9.92339 10.2273 10.0279H10.2253C10.1106 10.0578 10.0482 10.1329 10.03 10.2027C9.9084 10.6692 9.74858 11.1765 9.54271 11.7105V11.7124C9.49539 11.8344 9.44701 11.9519 9.40013 12.065V12.0669C8.88068 13.3112 7.12275 13.3122 6.6013 12.0699L6.45872 11.7124L6.45775 11.7105C6.25185 11.1764 6.0937 10.6706 5.97142 10.2046L5.94896 10.1499C5.91766 10.0971 5.8601 10.05 5.77513 10.0279C5.37602 9.92312 4.95022 9.79168 4.50658 9.62846H4.50462C4.31089 9.55659 4.12259 9.48234 3.94017 9.40581C2.67669 8.87648 2.69642 7.11557 3.94505 6.59233C4.14521 6.50849 4.35416 6.42676 4.57103 6.34819L4.88255 6.23979C5.19035 6.13659 5.48827 6.04912 5.77318 5.97514L5.85033 5.94487C5.9174 5.90785 5.95693 5.85174 5.97142 5.79643C6.08569 5.35735 6.23175 4.88527 6.41868 4.3892L6.41966 4.38725C6.47749 4.23546 6.53741 4.08511 6.59837 3.93901L6.65111 3.82475ZM8.24876 4.42045C8.15476 4.19606 7.84685 4.19426 7.75169 4.42143C7.69708 4.55235 7.6414 4.68855 7.58763 4.82963L7.58861 4.83061C7.41776 5.28399 7.28407 5.71433 7.1804 6.11284C7.05372 6.59582 6.70252 6.95335 6.27415 7.12358L6.08665 7.1851C5.74279 7.27441 5.37746 7.38598 4.99681 7.52397C4.79974 7.59537 4.61024 7.66951 4.42845 7.74565C4.18751 7.84657 4.19737 8.15776 4.42357 8.25249L4.93919 8.45561C5.34248 8.60397 5.72753 8.72282 6.08958 8.81791C6.53447 8.93378 6.92544 9.24351 7.11302 9.68706L7.1804 9.8853C7.292 10.3107 7.43603 10.7732 7.62376 11.2603L7.75267 11.5826L7.75365 11.5855C7.84583 11.8059 8.15354 11.8058 8.24583 11.5855C8.29054 11.4776 8.33438 11.3703 8.37669 11.2613L8.5095 10.8999C8.63477 10.5442 8.73728 10.2048 8.82005 9.88725C8.94596 9.40408 9.29841 9.0491 9.72435 8.87944L9.91087 8.81791C10.2729 8.72257 10.6584 8.60439 11.0613 8.45561C11.2394 8.38952 11.4114 8.32191 11.5769 8.25249C11.8027 8.15767 11.8134 7.84671 11.573 7.74565C11.3921 7.6699 11.2016 7.59472 11.0046 7.52299C10.6226 7.38486 10.2569 7.27446 9.9138 7.1851L9.91185 7.18413C9.40476 7.05074 8.96507 6.6656 8.82005 6.11381C8.71637 5.71526 8.58272 5.28405 8.41185 4.83061C8.35857 4.68985 8.30393 4.55265 8.24876 4.42045Z" fill="black"/>
</svg>
