<!-- This Source Code Form is subject to the terms of the Mozilla Public
   - License, v. 2.0. If a copy of the MPL was not distributed with this
   - file, You can obtain one at http://mozilla.org/MPL/2.0/. -->
<svg xmlns="http://www.w3.org/2000/svg" width="12" height="12" fill="context-fill" fill-opacity="context-fill-opacity" viewBox="0 0 12 12">
    <path d="M8.13.783c.092 0 .158.022.258.058A5.495 5.495 0 0 1 11.999 6a5.495 5.495 0 0 1-3.611 5.159c.06-.027-.095.058-.26.058a.63.63 0 0 1-.152-1.239l-.026.004A4.25 4.25 0 0 0 10.75 6a4.24 4.24 0 0 0-2.792-3.98c-.281-.13-.458-.26-.458-.608a.63.63 0 0 1 .63-.63m-4.458.837C4.317.52 6 .978 6 2.252v7.495c0 1.274-1.683 1.732-2.328.633L2.413 8.235c-.092.003-.203.014-.289.014q-.527-.002-.99-.048A1.253 1.253 0 0 1 0 6.953v-1.91c0-.63.47-1.176 1.098-1.24a10 10 0 0 1 1.026-.053c.101 0 .195.007.292.01z" />
    <path d="M7.5 3.574c0-.18.189-.312.35-.231A2.97 2.97 0 0 1 9.5 6a2.97 2.97 0 0 1-1.65 2.657c-.16.08-.35-.052-.35-.231z" />
</svg>
