<!-- This Source Code Form is subject to the terms of the Mozilla Public
   - License, v. 2.0. If a copy of the MPL was not distributed with this
   - file, You can obtain one at http://mozilla.org/MPL/2.0/. -->
<svg xmlns="http://www.w3.org/2000/svg" width="12" height="12" fill="context-fill" fill-opacity="context-fill-opacity" viewBox="0 0 12 12">
    <path d="M4.06 2.35C4.597 1.432 6 1.814 6 2.876v6.245c0 1.06-1.402 1.443-1.94.527L3.01 7.862c-.076.002-.169.012-.24.012q-.44-.001-.824-.04A1.045 1.045 0 0 1 1 6.794V5.203c0-.526.392-.982.915-1.035.315-.032.602-.043.855-.043.085 0 .156.011.239.014zm6.087 1.797a.5.5 0 0 1 .705.707L9.706 6.001l1.146 1.146a.5.5 0 0 1-.706.707L9 6.707 7.853 7.854a.5.5 0 0 1-.706 0 .5.5 0 0 1 0-.707l1.146-1.146-1.147-1.147a.5.5 0 0 1 .707-.707l1.146 1.147z" />
</svg>
