<!-- This Source Code Form is subject to the terms of the Mozilla Public
   - License, v. 2.0. If a copy of the MPL was not distributed with this
   - file, You can obtain one at http://mozilla.org/MPL/2.0/. -->
<svg xmlns="http://www.w3.org/2000/svg" width="12" height="12" fill="context-fill" fill-opacity="context-fill-opacity" viewBox="0 0 12 12">
    <path fill-rule="evenodd" d="M7.47 1c.574 0 1.082.362 1.273.895l.034.109.004.015.729 3.017a2.537 2.537 0 0 1-.048 5.074 2.539 2.539 0 0 1-1.248-4.747 15.6 15.6 0 0 0-3.928.024l-.122.237a2.539 2.539 0 1 1-1.128-.541l.24-.466-.006-1.15a9 9 0 0 1-.446-.045c-.187-.025-.328-.21-.328-.427v-.49c0-.215.135-.4.323-.426a8.8 8.8 0 0 1 2.117-.03c.316.035.56.338.56.701 0 .365-.242.666-.56.7a9 9 0 0 1-.416.032l.002.618c.552-.06 1.16-.1 1.817-.1.593 0 1.147.034 1.655.084L7.57 2.326a.104.104 0 0 0-.1-.076h-.65a.625.625 0 1 1 0-1.25zM2.418 6.29a1.288 1.288 0 1 0 1.145.504l-.507.991a.624.624 0 1 1-1.112-.57zm7.652 1.064a.626.626 0 0 1-1.216.292l-.25-1.034a1.289 1.289 0 1 0 1.22-.276z" clip-rule="evenodd" />
</svg>
