<!-- This Source Code Form is subject to the terms of the Mozilla Public
   - License, v. 2.0. If a copy of the MPL was not distributed with this
   - file, You can obtain one at http://mozilla.org/MPL/2.0/. -->
<svg xmlns="http://www.w3.org/2000/svg" width="12" height="12" fill="context-fill" fill-opacity="context-fill-opacity" viewBox="0 0 12 12">
    <path fill-rule="evenodd" d="M4.754 1.237c.45-1.13 2.048-1.13 2.498 0L8.114 3.4l2.624.17c1.132.073 1.72 1.482.851 2.306q-.246.236-.526.472c-.57.48-1.127.855-1.624 1.148l.621 2.435c.29 1.137-.878 2.013-1.875 1.549l-.096-.049q-.253-.141-.512-.303l-.527-.342a13 13 0 0 1-1.048-.8A14 14 0 0 1 4.43 11.13l-.513.303c-1.016.57-2.27-.327-1.971-1.5l.258-1.008.363-1.427a12 12 0 0 1-2.15-1.619c-.87-.825-.28-2.234.852-2.307l2.623-.17zm1.25.402a.1.1 0 0 0-.055.015.1.1 0 0 0-.034.045L4.908 4.23a.63.63 0 0 1-.541.393l-3.018.195a.1.1 0 0 0-.054.018.1.1 0 0 0-.035.05.1.1 0 0 0-.006.05l.023.034q.111.105.228.211l.243.211.248.202c.573.455 1.123.792 1.59 1.042a.625.625 0 0 1 .31.705l-.738 2.9c-.008.03-.004.046 0 .054a.1.1 0 0 0 .03.04q.028.02.056.022a.1.1 0 0 0 .062-.017 12.3 12.3 0 0 0 1.965-1.37l.02-.014c.396-.326.95-.342 1.363-.05l.082.064c.302.258.641.524 1.021.784l.478.312q.236.147.466.274a.1.1 0 0 0 .062.017.1.1 0 0 0 .055-.022.1.1 0 0 0 .031-.04c.003-.008.008-.024 0-.054l-.74-2.9a.626.626 0 0 1 .312-.706A10.6 10.6 0 0 0 10.73 4.97l.022-.035a.1.1 0 0 0-.007-.05.1.1 0 0 0-.034-.049.1.1 0 0 0-.053-.018l-3.019-.195a.63.63 0 0 1-.54-.393L6.091 1.7a.1.1 0 0 0-.034-.046.1.1 0 0 0-.054-.015" clip-rule="evenodd" />
</svg>
