<!-- This Source Code Form is subject to the terms of the Mozilla Public
   - License, v. 2.0. If a copy of the MPL was not distributed with this
   - file, You can obtain one at http://mozilla.org/MPL/2.0/. -->
<svg xmlns="http://www.w3.org/2000/svg" width="12" height="12" fill="context-fill" fill-opacity="context-fill-opacity" viewBox="0 0 12 12">
    <g fill-rule="evenodd" clip-rule="evenodd">
        <path d="M10.246 6.187c.304.062.489.608.589.845.195.462.36.925.455 1.414.066.338.24.587.583.587l.003.001a.13.13 0 0 1 .116.174c-.073.196-.3.321-.488.394.086.022.339-.029.35.097.007.104-.256.208-.328.242-.665.32-1.276.895-2.063.793-.342-.044-.592-.285-.872-.434a.45.45 0 0 0-.424 0c-.28.15-.53.39-.872.434-.787.102-1.399-.472-2.064-.793-.07-.033-.335-.138-.326-.242.012-.127.264-.075.349-.097-.189-.073-.415-.198-.488-.394-.03-.081.028-.174.116-.174.344 0 .518-.248.584-.586.095-.49.26-.953.455-1.415.1-.236.284-.783.588-.846.345-.07.652.115 1.045.906.324.65.543 1.105.543 1.105v.004l.222-.002h.118l.222.001v-.004s.22-.454.543-1.105c.394-.79.699-.977 1.044-.905M6.603 9c-.084.014-.314.095-.304.201.223.553 1.163.84 1.619.425-.16-.514-.819-.709-1.315-.626m3.548 0c-.496-.082-1.154.111-1.315.625l.09.07c.48.31 1.318.025 1.53-.494.01-.106-.221-.188-.305-.201" />
        <path d="M4.798 1.003q.17 0 .343.003l.248.008.402.012.215.011.4.02.432.032.198.015h.004l.02.001A2.11 2.11 0 0 1 9 3.227v2.412c-.25.236-.448.542-.623.874-.176-.334-.376-.644-.628-.88V3.219L6.161 4.806a2.38 2.38 0 0 1-1.686.693 2.36 2.36 0 0 1-1.548-.571c-.336-.29-1.026-.952-1.677-1.584v2.432h-.002c.002.452.36.836.816.872.676.056 1.353.083 2.029.09h.868a8 8 0 0 0-.418 1.256 34 34 0 0 1-2.58-.1A2.146 2.146 0 0 1 0 5.772V3.227a2.11 2.11 0 0 1 1.94-2.122l.019-.001h.005l.197-.015q.216-.018.432-.031.2-.012.4-.02.107-.007.215-.012l.402-.012.248-.008.343-.003L4.477 1h.046q.137 0 .275.003M4.5 2.249c-.767 0-1.547.03-2.32.092l-.117.009q-.02.001-.039.004c.673.655 1.396 1.35 1.72 1.627a1.13 1.13 0 0 0 1.532-.06l1.578-1.578-.036-.002A30 30 0 0 0 4.5 2.249" />
    </g>
</svg>
