<!-- This Source Code Form is subject to the terms of the Mozilla Public
   - License, v. 2.0. If a copy of the MPL was not distributed with this
   - file, You can obtain one at http://mozilla.org/MPL/2.0/. -->
<svg xmlns="http://www.w3.org/2000/svg" width="12" height="12" fill="context-fill" fill-opacity="context-fill-opacity" viewBox="0 0 12 12">
    <path d="M5.5 2.26a39 39 0 0 0-2.216.088A1.126 1.126 0 0 0 2.25 3.473v5.054c0 .59.464 1.084 1.056 1.127 1.795.127 3.615.127 5.41-.002A1.126 1.126 0 0 0 9.75 8.527V6.5H11v2.027a2.38 2.38 0 0 1-2.194 2.371 39 39 0 0 1-5.59.002A2.39 2.39 0 0 1 1 8.527V3.472A2.38 2.38 0 0 1 3.194 1.1 39 39 0 0 1 5.5 1.009z" />
    <path d="M10.534 1c.257 0 .466.209.466.466v3.068a.466.466 0 0 1-.795.33L9.113 3.77 6.067 6.818A.62.62 0 0 1 5.625 7c-.16 0-.32-.06-.442-.183a.63.63 0 0 1 0-.885l3.045-3.046-1.091-1.091A.466.466 0 0 1 7.466 1z" />
</svg>
