<!-- This Source Code Form is subject to the terms of the Mozilla Public
   - License, v. 2.0. If a copy of the MPL was not distributed with this
   - file, You can obtain one at http://mozilla.org/MPL/2.0/. -->
<svg xmlns="http://www.w3.org/2000/svg" width="12" height="12" fill="context-fill" fill-opacity="context-fill-opacity" viewBox="0 0 12 12">
    <path d="M6.5 5.625a.875.875 0 1 1 0 1.75.875.875 0 0 1 0-1.75" />
    <path fill-rule="evenodd" d="M6.501 1c1.27 0 2.348.845 2.69 2.018A2.814 2.814 0 0 1 12 5.828c0 .825-.36 1.59-.972 2.115.196.388.3.815.3 1.247 0 1.55-1.26 2.81-2.81 2.81a2.8 2.8 0 0 1-2.017-.852A2.8 2.8 0 0 1 4.484 12a2.814 2.814 0 0 1-2.81-2.81c0-.432.104-.859.299-1.246a2.78 2.78 0 0 1-.971-2.116c0-1.549 1.26-2.81 2.81-2.81A2.8 2.8 0 0 1 6.502 1M6.5 2.249c-.831 0-1.512.654-1.55 1.49a.624.624 0 0 1-.771.577 1.5 1.5 0 0 0-.368-.05c-.86 0-1.56.701-1.56 1.561 0 .586.331 1.118.863 1.387a.625.625 0 0 1 .193.966 1.54 1.54 0 0 0-.384 1.01c0 .86.7 1.56 1.56 1.56.632 0 1.197-.377 1.44-.96a.627.627 0 0 1 1.155 0c.243.583.808.96 1.439.96.86 0 1.56-.699 1.561-1.56 0-.466-.209-.807-.384-1.011a.624.624 0 0 1 .19-.965c.534-.27.865-.8.865-1.387 0-.86-.699-1.56-1.56-1.56q-.163 0-.367.05a.622.622 0 0 1-.771-.579A1.555 1.555 0 0 0 6.5 2.25" clip-rule="evenodd" />
</svg>
