<!-- This Source Code Form is subject to the terms of the Mozilla Public
   - License, v. 2.0. If a copy of the MPL was not distributed with this
   - file, You can obtain one at http://mozilla.org/MPL/2.0/. -->
<svg xmlns="http://www.w3.org/2000/svg" width="12" height="12" fill="context-fill" fill-opacity="context-fill-opacity" viewBox="0 0 12 12">
    <path fill-rule="evenodd" d="M6 0a6 6 0 1 1 0 12A6 6 0 0 1 6 0m0 6.325q-.854 0-1.775.032a6.57 6.57 0 0 0 1.774 4.154 6.57 6.57 0 0 0 1.774-4.152A48 48 0 0 0 6 6.325m-3.023.096q-.825.052-1.694.138a4.75 4.75 0 0 0 3.072 3.898 7.8 7.8 0 0 1-1.378-4.036m6.044 0a7.8 7.8 0 0 1-1.376 4.036 4.75 4.75 0 0 0 3.07-3.9q-.816-.08-1.694-.136M7.645 1.542a7.8 7.8 0 0 1 1.343 3.624q.885.055 1.71.135a4.76 4.76 0 0 0-3.053-3.759m-3.29 0A4.76 4.76 0 0 0 1.301 5.3a49 49 0 0 1 1.709-.133 7.8 7.8 0 0 1 1.345-3.625M6 1.488a6.57 6.57 0 0 0-1.72 3.617 49 49 0 0 1 3.442 0A6.57 6.57 0 0 0 6 1.488" clip-rule="evenodd" />
</svg>
