<!-- This Source Code Form is subject to the terms of the Mozilla Public
   - License, v. 2.0. If a copy of the MPL was not distributed with this
   - file, You can obtain one at http://mozilla.org/MPL/2.0/. -->
<svg xmlns="http://www.w3.org/2000/svg" width="12" height="12" fill="context-fill" fill-opacity="context-fill-opacity" viewBox="0 0 12 12">
    <path d="M5.463 4.885c.241-.89 1.413-1.018 1.865-.279l.081.16.515 1.266h.948a.625.625 0 0 1 0 1.25H7.775a1.03 1.03 0 0 1-.953-.64l-.324-.798-.613 2.27-.001.001c-.26.956-1.59 1.03-1.951.105l-.366-.938h-.443a.625.625 0 0 1 0-1.25h.595c.422 0 .805.259.959.656l.175.45z" />
    <path fill-rule="evenodd" d="M6 2c1.178 0 2.436.035 3.76.121A2.387 2.387 0 0 1 12 4.495v4.01a2.38 2.38 0 0 1-1.993 2.347l-.232.027a59 59 0 0 1-7.536 0A2.387 2.387 0 0 1 0 8.507v-4.01c0-1.255.972-2.293 2.225-2.374l.906-.052Q4.51 2.001 6 2m0 1.25c-1.296 0-2.529.045-3.694.12A1.126 1.126 0 0 0 1.25 4.496v4.01c0 .591.466 1.087 1.07 1.126a57 57 0 0 0 7.374-.001 1.126 1.126 0 0 0 1.056-1.126v-4.01c0-.591-.466-1.087-1.07-1.126A57 57 0 0 0 6 3.25" clip-rule="evenodd" />
</svg>
