<!-- This Source Code Form is subject to the terms of the Mozilla Public
   - License, v. 2.0. If a copy of the MPL was not distributed with this
   - file, You can obtain one at http://mozilla.org/MPL/2.0/. -->
<svg xmlns="http://www.w3.org/2000/svg" width="12" height="12" fill="context-fill" fill-opacity="context-fill-opacity" viewBox="0 0 12 12">
    <path fill-rule="evenodd" d="M2.225 2.121a58.5 58.5 0 0 1 7.535 0A2.39 2.39 0 0 1 12 4.494v4.012c0 1.25-.978 2.293-2.225 2.373A59 59 0 0 1 6 11.001V11c-1.25 0-2.515-.04-3.76-.12A2.39 2.39 0 0 1 0 8.506V4.494c0-1.25.978-2.293 2.225-2.373m2.15 6.254a.625.625 0 1 0 0 1.25h3.25a.625.625 0 0 0 0-1.25zM2.4 5.75a.4.4 0 0 0-.4.4v.45c0 .22.18.4.4.4h.45a.4.4 0 0 0 .4-.4v-.45a.4.4 0 0 0-.4-.4zm2.25 0a.4.4 0 0 0-.4.4v.45c0 .22.18.4.4.4h.45a.4.4 0 0 0 .4-.4v-.45a.4.4 0 0 0-.4-.4zm2.25 0a.4.4 0 0 0-.4.4v.45c0 .22.18.4.4.4h.45a.4.4 0 0 0 .4-.4v-.45a.4.4 0 0 0-.4-.4zm2.25 0a.4.4 0 0 0-.4.4v.45c0 .22.18.4.4.4h.45a.4.4 0 0 0 .4-.4v-.45a.4.4 0 0 0-.4-.4zm-6.75-2a.4.4 0 0 0-.4.4v.45c0 .22.18.4.4.4h.45a.4.4 0 0 0 .4-.4v-.45a.4.4 0 0 0-.4-.4zm2.25 0a.4.4 0 0 0-.4.4v.45c0 .22.18.4.4.4h.45a.4.4 0 0 0 .4-.4v-.45a.4.4 0 0 0-.4-.4zm2.25 0a.4.4 0 0 0-.4.4v.45c0 .22.18.4.4.4h.45a.4.4 0 0 0 .4-.4v-.45a.4.4 0 0 0-.4-.4zm2.25 0a.4.4 0 0 0-.4.4v.45c0 .22.18.4.4.4h.45a.4.4 0 0 0 .4-.4v-.45a.4.4 0 0 0-.4-.4z" clip-rule="evenodd" />
</svg>
