<svg width="12" height="12" viewBox="0 0 12 12" fill="none" xmlns="http://www.w3.org/2000/svg">
<path fill-rule="evenodd" clip-rule="evenodd" d="M2.22461 2.12125C4.71951 1.95925 7.26487 1.95926 9.75977 2.12125C11.0155 2.20223 11.9996 3.24463 12 4.49429V8.50601C11.9998 9.75672 11.0221 10.7989 9.77539 10.8791C8.52539 10.9601 7.254 11.0011 6 11.0011V10.9992C4.75009 10.9992 3.48515 10.959 2.24023 10.8791C0.984367 10.7981 0.000188911 9.75584 0 8.50601V4.49429C0.000394454 3.24375 0.978034 2.20141 2.22461 2.12125ZM4.375 8.37515C4.02982 8.37515 3.75 8.65497 3.75 9.00015C3.75003 9.3453 4.02984 9.62515 4.375 9.62515H7.625C7.97016 9.62515 8.24997 9.3453 8.25 9.00015C8.25 8.65497 7.97018 8.37515 7.625 8.37515H4.375ZM2.40039 5.75015C2.17948 5.75015 2 5.92963 2 6.15054V6.59976C2.00003 6.82065 2.1795 7.00015 2.40039 7.00015H2.84961C3.0705 7.00015 3.24997 6.82065 3.25 6.59976V6.15054C3.25 5.92963 3.07052 5.75015 2.84961 5.75015H2.40039ZM4.65039 5.75015C4.42948 5.75015 4.25 5.92963 4.25 6.15054V6.59976C4.25003 6.82065 4.4295 7.00015 4.65039 7.00015H5.09961C5.3205 7.00015 5.49997 6.82065 5.5 6.59976V6.15054C5.5 5.92963 5.32052 5.75015 5.09961 5.75015H4.65039ZM6.90039 5.75015C6.67948 5.75015 6.5 5.92963 6.5 6.15054V6.59976C6.50003 6.82065 6.6795 7.00015 6.90039 7.00015H7.34961C7.5705 7.00015 7.74997 6.82065 7.75 6.59976V6.15054C7.75 5.92963 7.57052 5.75015 7.34961 5.75015H6.90039ZM9.15039 5.75015C8.92948 5.75015 8.75 5.92963 8.75 6.15054V6.59976C8.75003 6.82065 8.9295 7.00015 9.15039 7.00015H9.59961C9.8205 7.00015 9.99997 6.82065 10 6.59976V6.15054C10 5.92963 9.82052 5.75015 9.59961 5.75015H9.15039ZM2.40039 3.75015C2.17948 3.75015 2 3.92963 2 4.15054V4.59976C2.00003 4.82065 2.1795 5.00015 2.40039 5.00015H2.84961C3.0705 5.00015 3.24997 4.82065 3.25 4.59976V4.15054C3.25 3.92963 3.07052 3.75015 2.84961 3.75015H2.40039ZM4.65039 3.75015C4.42948 3.75015 4.25 3.92963 4.25 4.15054V4.59976C4.25003 4.82065 4.4295 5.00015 4.65039 5.00015H5.09961C5.3205 5.00015 5.49997 4.82065 5.5 4.59976V4.15054C5.5 3.92963 5.32052 3.75015 5.09961 3.75015H4.65039ZM6.90039 3.75015C6.67948 3.75015 6.5 3.92963 6.5 4.15054V4.59976C6.50003 4.82065 6.6795 5.00015 6.90039 5.00015H7.34961C7.5705 5.00015 7.74997 4.82065 7.75 4.59976V4.15054C7.75 3.92963 7.57052 3.75015 7.34961 3.75015H6.90039ZM9.15039 3.75015C8.92948 3.75015 8.75 3.92963 8.75 4.15054V4.59976C8.75003 4.82065 8.9295 5.00015 9.15039 5.00015H9.59961C9.8205 5.00015 9.99997 4.82065 10 4.59976V4.15054C10 3.92963 9.82052 3.75015 9.59961 3.75015H9.15039Z" fill="black"/>
</svg>
