<!-- This Source Code Form is subject to the terms of the Mozilla Public
   - License, v. 2.0. If a copy of the MPL was not distributed with this
   - file, You can obtain one at http://mozilla.org/MPL/2.0/. -->
<svg xmlns="http://www.w3.org/2000/svg" width="12" height="12" fill="context-fill" fill-opacity="context-fill-opacity" viewBox="0 0 12 12">
    <g fill-rule="evenodd" clip-rule="evenodd">
        <path d="M6 2.5a2.5 2.5 0 1 1 0 5 2.5 2.5 0 0 1 0-5m0 1.25a1.25 1.25 0 1 0 0 2.5 1.25 1.25 0 0 0 0-2.5" />
        <path d="M6 0a5 5 0 0 1 5 5c0 1.129-.377 2.17-1.008 3.006.843.06 1.508.761 1.508 1.619v.124c0 1.12-.863 2.04-1.976 2.122a48 48 0 0 1-7.035.001A2.135 2.135 0 0 1 .5 9.75v-.125c0-.857.665-1.559 1.507-1.62A5 5 0 0 1 6 0M2.125 9.25a.375.375 0 0 0-.375.375v.125c0 .456.357.841.83.876a47.4 47.4 0 0 0 6.854-.001.877.877 0 0 0 .816-.876v-.124a.375.375 0 0 0-.375-.375zM6 1.25A3.75 3.75 0 0 0 3.75 8h4.498A3.75 3.75 0 0 0 6 1.25" />
    </g>
</svg>
