<!-- This Source Code Form is subject to the terms of the Mozilla Public
   - License, v. 2.0. If a copy of the MPL was not distributed with this
   - file, You can obtain one at http://mozilla.org/MPL/2.0/. -->
<svg xmlns="http://www.w3.org/2000/svg" width="12" height="12" fill="context-fill" fill-opacity="context-fill-opacity" viewBox="0 0 12 12">
    <path fill-rule="evenodd" d="M8.292 1.008q.802.018 1.537.076c1.24.096 2.17 1.146 2.17 2.368v6.743c0 .557-.286 1.077-.76 1.374l-.008.007v-.001l-.019.013a2.376 2.376 0 0 1-3.68-2.355C7.727 8.025 8.835 7.25 9.967 7.25h.781v-2H4.497l-.003 5.003-.004-.001a1.62 1.62 0 0 1-.756 1.316l-.027.019v-.001A2.376 2.376 0 0 1 .026 9.23c.196-1.205 1.305-1.98 2.436-1.98h.783l.002-3.798c0-1.224.931-2.272 2.173-2.367A28 28 0 0 1 7.752 1zM9.968 8.5c-.574 0-1.056.368-1.183.837l-.02.094a1.126 1.126 0 0 0 1.752 1.118l.02-.014.027-.018.01-.006a.37.37 0 0 0 .175-.317V8.501zm-7.505 0c-.574 0-1.056.368-1.183.837l-.02.094a1.127 1.127 0 0 0 1.75 1.118l.01-.007.011-.007.028-.018.006-.003a.38.38 0 0 0 .166-.226l.013-.094.001-1.694zm5.283-6.25a27 27 0 0 0-2.228.08c-.57.043-1.02.53-1.02 1.122V4h6.251v-.548a1.12 1.12 0 0 0-.911-1.108l-.105-.014q-.703-.054-1.47-.072z" clip-rule="evenodd" />
</svg>
