<svg width="16" height="18" viewBox="0 0 16 18" fill="none" xmlns="http://www.w3.org/2000/svg">
<path fill-rule="evenodd" clip-rule="evenodd" d="M8 3.20002H7.8C4.6 3.20002 2 5.80002 2 9.00002C2 10.1 2.4 11.2 3 12.2C3.1 12.4 3.3 12.5 3.5 12.5C3.7 12.5 3.8 12.5 3.9 12.4C4.2 12.2 4.3 11.8 4.1 11.5C3.6 10.8 3.3 9.90002 3.3 9.00002C3.3 6.50002 5.3 4.50002 7.8 4.50002H8V6.50002C8 6.90002 8.5 7.20002 8.9 6.90002L11.6 4.20002V3.80002L8.9 1.10002C8.5 0.800022 8 1.10002 8 1.50002V3.20002ZM7.99999 11.5C7.99999 11 7.39999 10.8 7.09999 11.1L4.39999 13.9V14.3L7.09999 17C7.49999 17.3 7.99999 17 7.99999 16.6V14.8H8.19999C11.4 14.8 14 12.2 14 9.00001C14 7.90001 13.7 6.80001 13 5.80001C12.8 5.50001 12.4 5.40001 12.1 5.60001C11.8 5.80001 11.7 6.20001 11.9 6.50001C12.4 7.20001 12.7 8.10001 12.7 9.00001C12.7 11.5 10.7 13.5 8.19999 13.5H7.99999V11.5Z" fill="black"/>
</svg>
